<svg width="138" height="70" viewBox="0 0 138 70" fill="none" xmlns="http://www.w3.org/2000/svg">
<rect x="0.75" y="0.75" width="136.5" height="68.5" stroke="#606060" stroke-width="1.5"/>
<path d="M37.7251 21.4493L34.7585 18.4993L18.2751 34.9993L34.7751 51.4993L37.7251 48.5493L24.1751 34.9993L37.7251 21.4493Z" fill="black"/>
<path d="M72.6072 40.232C72.6072 43.9 69.9192 46 65.7472 46H58.3832V25.896H65.3552C69.4152 25.896 71.8512 27.772 71.8512 31.16C71.8512 33.064 70.7032 34.688 68.7712 35.528C71.2632 36.228 72.6072 37.936 72.6072 40.232ZM65.1592 28.36H61.2112V34.408H65.1592C67.5952 34.408 68.9112 33.26 68.9112 31.384C68.9112 29.508 67.5952 28.36 65.1592 28.36ZM65.5512 36.872H61.2112V43.536H65.5512C68.1832 43.536 69.6672 42.276 69.6672 40.148C69.6672 38.104 68.1832 36.872 65.5512 36.872ZM84.9207 46V43.704C83.9967 45.356 82.3447 46.28 80.1607 46.28C77.0807 46.28 75.0647 44.516 75.0647 41.8C75.0647 38.888 77.3887 37.376 81.8127 37.376C82.6807 37.376 83.3807 37.404 84.5847 37.544V36.452C84.5847 34.324 83.4367 33.12 81.4767 33.12C79.4047 33.12 78.1447 34.352 78.0607 36.424H75.4847C75.6247 33.092 78.0047 30.88 81.4767 30.88C85.1447 30.88 87.2727 32.952 87.2727 36.48V46H84.9207ZM77.7527 41.716C77.7527 43.256 78.9007 44.264 80.7207 44.264C83.1007 44.264 84.5847 42.78 84.5847 40.512V39.308C83.4927 39.168 82.7087 39.14 81.9807 39.14C79.1527 39.14 77.7527 39.98 77.7527 41.716ZM96.9058 46.308C92.8458 46.308 89.9898 43.116 89.9898 38.58C89.9898 34.1 92.9018 30.88 96.9058 30.88C100.574 30.88 103.234 33.316 103.766 37.18H100.798C100.49 34.8 99.0058 33.372 96.9338 33.372C94.4978 33.372 92.9018 35.444 92.9018 38.58C92.9018 41.744 94.4978 43.788 96.9338 43.788C99.0338 43.788 100.49 42.388 100.826 39.98H103.766C103.262 43.9 100.63 46.308 96.9058 46.308ZM109.44 46H106.612V25.896H109.44V37.796L115.796 31.16H119.128L112.268 38.356L119.772 46H116.132L109.44 38.972V46Z" fill="black"/>
</svg>
