<svg width="256" height="356" viewBox="0 0 256 356" fill="none" xmlns="http://www.w3.org/2000/svg">
<rect width="256" height="356" rx="15" fill="#E9B017"/>
<g clip-path="url(#clip0_229_1747)">
<path d="M158.89 140.337C159.196 139.414 159.584 139.238 160.427 139.261C162.324 139.312 164.225 139.297 166.123 139.273C167.988 139.249 168.827 138.425 168.843 136.572C168.866 133.933 168.851 131.291 168.851 128.649C168.851 125.755 168.227 125.135 165.323 125.135C153.14 125.135 140.961 125.135 128.778 125.135H106.153C101.461 125.135 96.7649 125.131 92.0729 125.135C89.4623 125.135 88.7645 125.829 88.7567 128.378C88.7528 131.071 88.741 133.764 88.7567 136.458C88.7685 138.452 89.5563 139.253 91.5123 139.273C93.4644 139.293 95.4165 139.304 97.3647 139.265C98.1173 139.249 98.4034 139.473 98.6543 140.243C100.175 144.911 103.362 147.797 108.234 148.547C109.634 148.763 109.806 149.308 109.802 150.53C109.763 167.008 109.771 183.483 109.783 199.961C109.783 201.975 110.645 203.012 112.201 202.98C113.71 202.953 114.471 201.983 114.475 200.012C114.487 196.738 114.518 193.463 114.455 190.189C114.436 189.164 114.702 188.838 115.768 188.846C124.365 188.889 132.961 188.893 141.557 188.846C142.694 188.838 142.839 189.278 142.827 190.232C142.784 193.506 142.8 196.781 142.815 200.055C142.823 202.003 143.611 202.98 145.128 202.984C146.633 202.988 147.495 201.983 147.511 200.083C147.566 192.427 147.629 184.77 147.625 177.114C147.625 168.084 147.574 159.057 147.492 150.031C147.484 148.994 147.805 148.794 148.785 148.668C153.857 148.013 157.283 145.213 158.887 140.345L158.89 140.337ZM95.1147 134.585C93.8839 134.589 93.3821 134.428 93.4331 133.011C93.5546 129.826 93.4644 129.826 96.6748 129.826C118.559 129.826 140.448 129.838 162.332 129.795C163.716 129.795 164.233 130.054 164.167 131.566C164.033 134.554 164.131 134.558 161.089 134.558H128.657C117.477 134.558 106.298 134.538 95.1186 134.585H95.1147ZM114.463 149.968C114.459 148.998 114.694 148.712 115.682 148.723C120.006 148.778 124.329 148.747 128.649 148.747C132.969 148.747 137.296 148.778 141.616 148.723C142.604 148.712 142.843 148.998 142.835 149.964C142.796 157.777 142.796 165.591 142.835 173.404C142.839 174.413 142.607 174.747 141.537 174.743C132.945 174.696 124.353 174.696 115.757 174.743C114.686 174.747 114.455 174.413 114.459 173.408C114.498 165.595 114.498 157.781 114.459 149.968H114.463ZM139.397 184.174C131.644 184.174 123.894 184.146 116.141 184.205C114.937 184.213 114.643 183.899 114.671 182.717C114.737 179.442 114.679 179.442 117.932 179.442C121.519 179.442 125.105 179.442 128.688 179.442C132.961 179.442 137.233 179.474 141.502 179.419C142.506 179.407 142.854 179.631 142.847 180.715C142.823 184.174 142.874 184.174 139.397 184.174ZM147.68 143.996C142.831 144.047 137.978 144.016 133.125 144.016C125.533 144.016 117.94 144.028 110.347 144.012C106.957 144.004 104.601 142.434 103.425 139.406H154.073C153.34 142.092 150.812 143.965 147.676 144L147.68 143.996Z" fill="#121212"/>
<path d="M101.692 151.083C92.994 151.083 84.292 151.032 75.5939 151.126C74.0965 151.142 73.7829 150.577 73.6379 149.308C72.2777 137.412 70.8744 125.519 69.4868 113.627C69.2633 111.726 68.5303 111.02 66.6292 111.012C63.2033 111 59.7734 111.008 56.3475 111.008C53.537 111.012 52.8157 111.703 53.0391 114.463C53.5683 121.039 54.1602 127.608 54.7325 134.181C55.6341 144.538 56.5788 154.892 57.4254 165.253C57.7782 169.588 57.7704 169.682 62.1488 170.094C60.7142 180.09 59.2874 190.004 57.8645 199.922C57.5901 201.834 58.5348 202.961 60.4829 202.98C63.3836 203.008 66.2843 203 69.181 202.98C70.992 202.969 71.7368 202.281 71.9955 200.475C73.3792 190.711 74.7746 180.95 76.1348 171.182C76.2563 170.298 76.5111 169.898 77.495 169.953C79.0708 170.043 80.6583 169.976 82.238 169.976C84.3978 169.976 84.3547 169.984 84.6526 172.1C85.9971 181.602 87.3573 191.103 88.7332 200.601C88.988 202.368 89.7053 202.969 91.4653 202.98C94.2053 203 96.9492 202.988 99.6891 202.98C102.264 202.976 103.068 202.148 102.715 199.619C101.504 190.895 100.254 182.179 98.9875 173.463C98.4818 169.98 98.4387 169.984 101.849 169.972C104.326 169.964 105.079 169.242 105.087 166.792C105.102 162.673 105.099 158.555 105.087 154.436C105.083 151.751 104.401 151.079 101.692 151.079V151.083ZM68.9968 188.08C68.5578 191.158 68.0835 194.233 67.6758 197.319C67.5817 198.018 67.3975 198.269 66.6292 198.3C62.8701 198.449 62.8779 198.481 63.4071 194.739C64.5047 186.961 65.6101 179.183 66.6723 171.401C66.8174 170.353 67.1074 169.803 68.3147 169.964C69.3457 170.102 70.4079 169.992 71.5682 169.992C70.698 176.105 69.8513 182.093 68.9929 188.08H68.9968ZM95.4283 198.273C93.9178 198.273 93.0515 197.512 92.8294 195.992C91.626 187.648 90.4344 179.305 89.2036 170.966C89.0899 170.208 89.2036 169.996 90.015 169.964C93.6839 169.823 93.6918 169.792 94.2249 173.443C95.3499 181.158 96.4631 188.877 97.5803 196.592C97.7423 197.713 97.0249 198.273 95.4283 198.273ZM100.418 163.91C100.473 165.072 100.05 165.28 98.9914 165.273C93.0881 165.225 87.1848 165.249 81.2816 165.249C75.3783 165.249 69.475 165.202 63.5717 165.284C62.3566 165.3 62.1175 164.904 62.0273 163.82C61.3923 156.144 60.6867 148.476 60.0243 140.8C59.3383 132.865 58.7072 124.922 57.9703 116.991C57.8645 115.857 58.178 115.66 59.1776 115.704C60.7573 115.77 62.3409 115.743 63.9206 115.711C64.6379 115.696 65.0064 115.79 65.1083 116.689C66.2098 126.383 67.374 136.069 68.5225 145.759C68.8126 148.221 69.0987 150.683 69.4123 153.14C69.6749 155.198 70.3295 155.783 72.3757 155.783C81.1248 155.791 89.8739 155.826 98.6229 155.748C100.097 155.736 100.504 156.14 100.418 157.573C100.297 159.678 100.316 161.798 100.418 163.902V163.91Z" fill="#121212"/>
<path d="M201.287 111.016C197.595 110.996 193.906 110.996 190.214 111.016C188.568 111.024 187.729 111.734 187.541 113.309C186.878 118.809 186.251 124.314 185.608 129.815C184.832 136.47 184.04 143.125 183.299 149.784C183.182 150.851 182.766 151.134 181.712 151.111C178.231 151.036 174.75 151.083 171.269 151.083C165.891 151.083 160.509 151.071 155.131 151.091C153.226 151.099 152.262 151.821 152.238 153.482C152.172 158.182 152.176 162.882 152.238 167.581C152.258 169.136 153.207 169.925 154.806 169.972C155.911 170.004 157.025 170.031 158.126 169.961C158.965 169.906 159.079 170.228 158.965 170.966C158.589 173.31 158.263 175.661 157.93 178.009C156.88 185.371 155.821 192.733 154.798 200.098C154.547 201.897 155.461 202.953 157.264 202.973C160.321 203.008 163.383 202.988 166.44 202.976C167.804 202.973 168.6 202.227 168.823 200.915C169.074 199.459 169.258 197.994 169.466 196.533C170.662 188.127 171.865 179.721 173.033 171.311C173.17 170.322 173.472 169.874 174.578 169.949C176.259 170.059 177.957 170.047 179.638 169.953C180.728 169.89 181.045 170.279 181.19 171.331C182.531 181.103 183.93 190.864 185.322 200.629C185.553 202.246 186.345 202.965 187.952 202.976C190.904 203.004 193.859 203.004 196.811 202.976C198.759 202.961 199.708 201.826 199.433 199.922C198.01 190.004 196.584 180.086 195.149 170.09C198.928 169.745 199.237 169.462 199.492 166.372C199.817 162.426 200.147 158.48 200.492 154.538C201.287 145.39 202.095 136.242 202.891 127.09C203.275 122.673 203.667 118.256 203.992 113.835C204.133 111.891 203.255 111.024 201.295 111.012L201.287 111.016ZM164.676 197.056C164.539 198.053 164.123 198.308 163.155 198.3C159.866 198.273 159.827 198.308 160.278 195.085C161.395 187.103 162.571 179.124 163.661 171.138C163.79 170.192 164.072 169.902 165.005 169.972C166.15 170.059 167.302 169.992 168.486 169.992C167.197 179.109 165.919 188.08 164.68 197.056H164.676ZM193.33 198.3C189.869 198.367 189.818 198.414 189.301 194.939C188.152 187.22 187.058 179.497 185.957 171.771C185.702 169.992 185.73 169.988 188.058 169.988C190.386 169.988 190.371 169.988 190.708 172.367C191.872 180.616 193.036 188.865 194.251 197.103C194.381 197.982 194.318 198.277 193.33 198.296V198.3ZM199.053 116.736C197.693 132.241 196.344 147.75 195.063 163.262C194.933 164.813 194.522 165.324 192.871 165.284C187.235 165.159 181.59 165.237 175.95 165.237V165.249C170.097 165.249 164.245 165.202 158.393 165.284C157.072 165.304 156.833 164.86 156.88 163.682C156.966 161.574 156.974 159.458 156.88 157.349C156.825 156.132 157.134 155.748 158.424 155.755C166.965 155.818 175.507 155.787 184.044 155.787C186.862 155.787 187.329 155.449 187.674 152.614C188.807 143.242 189.889 133.863 190.99 124.483C191.296 121.864 191.637 119.249 191.899 116.622C191.966 115.967 192.138 115.692 192.832 115.708C194.624 115.747 196.419 115.751 198.21 115.708C199.03 115.684 199.12 115.978 199.053 116.736Z" fill="#121212"/>
</g>
<path d="M85.6044 285H79.0764V262.024H85.6044C92.9644 262.024 97.0284 266.696 97.0284 273.416C97.0284 280.04 92.8044 285 85.6044 285ZM81.4764 264.104V282.92H85.5404C91.3644 282.92 94.5964 279.112 94.5964 273.416C94.5964 267.752 91.4284 264.104 85.5404 264.104H81.4764ZM103.641 264.232C103.641 265.224 102.905 265.928 101.817 265.928C100.761 265.928 100.025 265.224 100.025 264.232C100.025 263.272 100.761 262.568 101.817 262.568C102.905 262.568 103.641 263.272 103.641 264.232ZM102.969 285H100.729V268.136H102.969V285ZM110.063 275.176V285H107.823V268.136H109.903V271.304C110.991 269.224 113.039 267.816 115.471 267.816C118.991 267.816 121.263 270.056 121.263 274.056V285H119.023V274.824C119.023 271.592 117.551 269.768 114.799 269.768C112.175 269.768 110.063 272.04 110.063 275.176ZM132.603 285.32C127.867 285.32 124.731 281.768 124.731 276.424C124.731 271.496 127.995 267.816 132.475 267.816C137.275 267.816 140.411 271.688 140.027 277.096H126.971C127.163 281.096 129.275 283.56 132.571 283.56C135.387 283.56 137.339 281.992 137.883 279.304H140.091C139.323 283.048 136.475 285.32 132.603 285.32ZM132.443 269.544C129.403 269.544 127.259 271.88 126.971 275.56H137.691C137.499 271.784 135.547 269.544 132.443 269.544ZM152.551 277.16H142.439V275.176H152.551V277.16ZM158.61 264.232C158.61 265.224 157.874 265.928 156.786 265.928C155.73 265.928 154.994 265.224 154.994 264.232C154.994 263.272 155.73 262.568 156.786 262.568C157.874 262.568 158.61 263.272 158.61 264.232ZM157.938 285H155.698V268.136H157.938V285ZM165.031 275.176V285H162.791V268.136H164.871V271.304C165.959 269.224 168.007 267.816 170.439 267.816C173.959 267.816 176.231 270.056 176.231 274.056V285H173.991V274.824C173.991 271.592 172.519 269.768 169.767 269.768C167.143 269.768 165.031 272.04 165.031 275.176Z" fill="#121212"/>
<defs>
<clipPath id="clip0_229_1747">
<rect width="151" height="92" fill="white" transform="translate(53 111)"/>
</clipPath>
</defs>
</svg>
