<svg width="151" height="92" viewBox="0 0 151 92" fill="none" xmlns="http://www.w3.org/2000/svg">
<g clip-path="url(#clip0_622_4184)">
<path d="M105.891 29.337C106.196 28.4143 106.584 28.2377 107.427 28.2612C109.324 28.3123 111.226 28.2966 113.123 28.273C114.989 28.2494 115.827 27.4249 115.843 25.5717C115.867 22.9333 115.851 20.2909 115.851 17.6486C115.851 14.7549 115.228 14.1346 112.323 14.1346C100.14 14.1346 87.9613 14.1346 75.7785 14.1346H53.1532C48.4611 14.1346 43.7652 14.1306 39.0731 14.1346C36.4625 14.1346 35.7648 14.8295 35.7569 17.3776C35.753 20.0711 35.7413 22.7645 35.7569 25.4579C35.7687 27.4524 36.5566 28.2534 38.5126 28.273C40.4647 28.2926 42.4168 28.3044 44.3649 28.2651C45.1175 28.2494 45.4037 28.4732 45.6545 29.2428C47.1754 33.9111 50.3623 36.7969 55.2346 37.5468C56.634 37.7628 56.8065 38.3085 56.8026 39.5296C56.7634 56.0081 56.7712 72.4826 56.783 88.9611C56.783 90.9753 57.6453 92.0118 59.2015 91.9804C60.7106 91.9529 61.4711 90.9831 61.475 89.0122C61.4868 85.7377 61.5181 82.4632 61.4554 79.1887C61.4358 78.1639 61.7024 77.838 62.7686 77.8459C71.3648 77.8891 79.961 77.893 88.5572 77.8459C89.6939 77.838 89.839 78.2778 89.8272 79.2319C89.7841 82.5064 89.7998 85.7809 89.8154 89.0553C89.8233 91.0028 90.6112 91.9804 92.1281 91.9843C93.6334 91.9883 94.4957 90.9831 94.5114 89.0828C94.5663 81.4266 94.629 73.7704 94.6251 66.1142C94.6251 57.0839 94.5741 48.0574 94.4918 39.0309C94.484 37.9944 94.8054 37.7942 95.7853 37.6685C100.858 37.0128 104.284 34.2134 105.887 29.3449L105.891 29.337ZM42.1149 23.5851C40.8841 23.589 40.3824 23.428 40.4333 22.0106C40.5548 18.8264 40.4647 18.8264 43.675 18.8264C65.5595 18.8264 87.4479 18.8382 109.332 18.795C110.716 18.795 111.233 19.0542 111.167 20.5658C111.034 23.5536 111.132 23.5576 108.09 23.5576H75.657C64.4776 23.5576 53.2982 23.5379 42.1188 23.5851H42.1149ZM61.4632 38.9681C61.4593 37.9983 61.6945 37.7117 62.6823 37.7235C67.0059 37.7785 71.3295 37.7471 75.6491 37.7471C79.9688 37.7471 84.2963 37.7785 88.616 37.7235C89.6038 37.7117 89.8429 37.9983 89.835 38.9642C89.7958 46.7774 89.7958 54.5907 89.835 62.4039C89.8389 63.413 89.6077 63.7467 88.5376 63.7428C79.9453 63.6957 71.353 63.6957 62.7568 63.7428C61.6867 63.7467 61.4554 63.413 61.4593 62.4079C61.4985 54.5946 61.4985 46.7814 61.4593 38.9681H61.4632ZM86.3973 73.1736C78.6439 73.1736 70.8944 73.1462 63.1409 73.2051C61.9375 73.2129 61.6436 72.8988 61.671 71.717C61.7376 68.4425 61.6788 68.4425 64.9323 68.4425C68.519 68.4425 72.1056 68.4425 75.6883 68.4425C79.961 68.4425 84.2336 68.4739 88.5023 68.4189C89.5058 68.4072 89.8546 68.631 89.8468 69.7146C89.8233 73.1736 89.8742 73.1736 86.3973 73.1736ZM94.6799 32.9963C89.8311 33.0473 84.9784 33.0159 80.1256 33.0159C72.5329 33.0159 64.9401 33.0277 57.3474 33.012C53.9568 33.0041 51.6009 31.4336 50.425 28.4065H101.073C100.34 31.0921 97.8119 32.9649 94.676 33.0002L94.6799 32.9963Z" fill="#121212"/>
<path d="M48.6924 40.0827C39.9943 40.0827 31.2922 40.0317 22.5941 40.1259C21.0968 40.1416 20.7832 39.5762 20.6381 38.3081C19.2779 26.4115 17.8746 14.5189 16.487 2.62626C16.2636 0.725952 15.5306 0.0192257 13.6295 0.0113732C10.2035 -0.000405612 6.77366 0.0074469 3.34773 0.0074469C0.537203 0.0113732 -0.184047 0.702394 0.0393838 3.46255C0.568562 10.039 1.16046 16.6077 1.73275 23.1802C2.63432 33.5377 3.579 43.8912 4.42568 54.2526C4.77847 58.5872 4.77063 58.6814 9.14909 59.0937C7.71443 69.0899 6.2876 79.0037 4.8647 88.9214C4.59032 90.8335 5.535 91.9603 7.48316 91.98C10.3838 92.0074 13.2845 91.9996 16.1813 91.98C17.9922 91.9682 18.737 91.2811 18.9957 89.475C20.3794 79.7104 21.7749 69.9497 23.1351 60.1812C23.2566 59.2978 23.5114 58.8973 24.4953 58.9523C26.071 59.0426 27.6586 58.9759 29.2383 58.9759C31.3981 58.9759 31.355 58.9837 31.6529 61.1C32.9974 70.6015 34.3576 80.103 35.7334 89.6007C35.9882 91.3675 36.7055 91.9682 38.4656 91.98C41.2055 91.9996 43.9494 91.9878 46.6894 91.98C49.2647 91.976 50.0683 91.1476 49.7155 88.6191C48.5043 79.895 47.2538 71.1787 45.9877 62.4624C45.4821 58.9798 45.4389 58.9837 48.8492 58.9719C51.3265 58.9641 52.0792 58.2417 52.087 55.7917C52.1027 51.673 52.0988 47.5544 52.087 43.4358C52.0831 40.7502 51.401 40.0788 48.6924 40.0788V40.0827ZM15.997 77.0798C15.558 80.158 15.0837 83.2323 14.6761 86.3183C14.582 87.0172 14.3977 87.2685 13.6295 87.2999C9.87034 87.4491 9.87818 87.4805 10.4074 83.7388C11.5049 75.9608 12.6103 68.1829 13.6726 60.4011C13.8176 59.3528 14.1077 58.8031 15.315 58.9641C16.3459 59.1015 17.4082 58.9916 18.5685 58.9916C17.6983 65.1048 16.8516 71.0923 15.9931 77.0798H15.997ZM42.4285 87.2724C40.9181 87.2724 40.0518 86.512 39.8297 84.9912C38.6263 76.6479 37.4346 68.3046 36.2038 59.9653C36.0901 59.2075 36.2038 58.9955 37.0152 58.9641C40.6842 58.8227 40.692 58.7913 41.2251 62.4427C42.3501 70.1578 43.4633 77.8769 44.5805 85.5919C44.7425 86.7122 44.0252 87.2724 42.4285 87.2724ZM47.4185 52.9098C47.4733 54.072 47.05 54.2801 45.9916 54.2722C40.0884 54.2251 34.1851 54.2487 28.2818 54.2487C22.3785 54.2487 16.4753 54.2015 10.572 54.284C9.35684 54.2997 9.11773 53.9031 9.02757 52.8195C8.39256 45.1437 7.68699 37.4757 7.02453 29.7999C6.33856 21.8649 5.70747 13.9221 4.97054 5.99106C4.8647 4.85637 5.17829 4.66006 6.17785 4.70325C7.75754 4.76999 9.34116 4.74251 10.9209 4.7111C11.6382 4.69539 12.0066 4.78963 12.1086 5.68874C13.21 15.3827 14.3742 25.0687 15.5227 34.7587C15.8128 37.2205 16.099 39.6823 16.4125 42.1401C16.6752 44.1974 17.3298 44.7825 19.3759 44.7825C28.125 44.7903 36.8741 44.8256 45.6232 44.7471C47.097 44.7353 47.5047 45.1397 47.4185 46.5728C47.2969 48.6773 47.3165 50.7975 47.4185 52.902V52.9098Z" fill="#121212"/>
<path d="M148.287 0.0157C144.595 -0.00393126 140.906 -0.00393126 137.214 0.0157C135.568 0.0235525 134.729 0.734205 134.541 2.30863C133.878 7.80932 133.251 13.3139 132.608 18.8146C131.832 25.4696 131.04 32.1246 130.299 38.7835C130.182 39.8515 129.766 40.1342 128.712 40.1106C125.231 40.036 121.75 40.0831 118.269 40.0831C112.891 40.0831 107.509 40.0713 102.131 40.091C100.226 40.0988 99.262 40.8213 99.2385 42.4821C99.1718 47.1818 99.1757 51.8815 99.2385 56.5812C99.2581 58.136 100.207 58.9252 101.806 58.9723C102.911 59.0037 104.025 59.0312 105.126 58.9606C105.965 58.9056 106.079 59.2275 105.965 59.9657C105.589 62.3097 105.263 64.6615 104.93 67.0094C103.88 74.3711 102.821 81.7328 101.798 89.0985C101.547 90.8967 102.461 91.9529 104.264 91.9725C107.321 92.0078 110.383 91.9882 113.44 91.9764C114.804 91.9725 115.6 91.2265 115.823 89.9151C116.074 88.4585 116.258 86.994 116.466 85.5334C117.662 77.1273 118.865 68.7212 120.033 60.3112C120.17 59.3218 120.472 58.8742 121.578 58.9488C123.259 59.0587 124.957 59.0469 126.638 58.9527C127.728 58.8899 128.045 59.2786 128.19 60.3308C129.531 70.1033 130.93 79.8639 132.322 89.6285C132.553 91.2461 133.345 91.9647 134.952 91.9764C137.904 92.0039 140.859 92.0039 143.811 91.9764C145.759 91.9607 146.708 90.826 146.433 88.9218C145.01 79.0041 143.584 69.0864 142.149 59.0901C145.928 58.7446 146.237 58.4619 146.492 55.372C146.817 51.4261 147.147 47.4802 147.492 43.5382C148.287 34.3901 149.095 25.2419 149.891 16.0898C150.275 11.6728 150.667 7.25571 150.992 2.83475C151.133 0.891255 150.255 0.0235525 148.295 0.0117738L148.287 0.0157ZM111.676 86.0556C111.539 87.0529 111.123 87.3081 110.155 87.3003C106.866 87.2728 106.827 87.3081 107.278 84.0847C108.395 76.1026 109.571 68.1244 110.661 60.1384C110.79 59.1922 111.072 58.9017 112.005 58.9723C113.15 59.0587 114.302 58.992 115.486 58.992C114.197 68.1087 112.919 77.0802 111.68 86.0556H111.676ZM140.33 87.3003C136.869 87.367 136.818 87.4141 136.301 83.9394C135.152 76.2204 134.058 68.4974 132.957 60.7706C132.702 58.992 132.73 58.988 135.058 58.988C137.386 58.988 137.371 58.988 137.708 61.3674C138.872 69.6164 140.036 77.8655 141.251 86.1028C141.381 86.9822 141.318 87.2767 140.33 87.2963V87.3003ZM146.053 5.73625C144.693 21.241 143.344 36.7497 142.063 52.2624C141.933 53.8132 141.522 54.3237 139.871 54.2844C134.235 54.1587 128.59 54.2373 122.95 54.2373V54.2491C117.097 54.2491 111.245 54.2019 105.393 54.2844C104.072 54.304 103.833 53.8604 103.88 52.6825C103.966 50.5741 103.974 48.4578 103.88 46.3494C103.825 45.1323 104.134 44.7475 105.424 44.7554C113.965 44.8182 122.507 44.7868 131.044 44.7868C133.862 44.7868 134.329 44.4491 134.674 41.6144C135.807 32.2424 136.889 22.8626 137.99 13.4828C138.296 10.8639 138.637 8.24906 138.899 5.62239C138.966 4.96671 139.138 4.69187 139.832 4.70757C141.624 4.74684 143.419 4.75076 145.21 4.70757C146.03 4.68402 146.12 4.97849 146.053 5.73625Z" fill="#121212"/>
</g>
<defs>
<clipPath id="clip0_622_4184">
<rect width="151" height="92" fill="white"/>
</clipPath>
</defs>
</svg>
