<svg width="166" height="166" viewBox="0 0 166 166" fill="none" xmlns="http://www.w3.org/2000/svg">
<g clip-path="url(#clip0_1030_1358)">
<path d="M164.02 18.87C161.971 16.7902 159.472 16.0623 156.674 16.0579C145.928 16.0493 135.182 16.0579 124.436 16.0536C122.136 16.0536 122.114 15.9973 122.071 13.6922C122.036 11.8593 122.344 9.9918 121.82 8.20662C120.455 3.54003 117.514 0.593615 112.524 0H9.46795C2.04397 1.88484 -0.0394244 7.3097 -0.000442027 13.2805C0.168482 38.9403 0.06886 64.6044 0.0731914 90.2685C0.0731914 97.7862 4.65146 102.383 12.1534 102.392C21.4442 102.401 30.7307 102.422 40.0215 102.362C41.3079 102.353 41.5894 102.704 41.5851 103.948C41.5375 116.375 41.5548 128.797 41.5548 141.224C41.5548 143.603 41.5201 145.977 41.5721 148.356C41.5894 149.21 41.3382 149.478 40.4806 149.439C38.917 149.374 37.349 149.383 35.7854 149.439C32.866 149.539 30.6051 151.818 30.5271 154.739C30.4751 156.628 30.4881 158.521 30.5184 160.41C30.5747 163.669 32.8877 165.983 36.1882 165.987C52.6604 166.004 69.1327 166.004 85.6005 165.987C88.8361 165.987 91.136 163.834 91.318 160.601C91.4262 158.664 91.4306 156.706 91.318 154.769C91.1274 151.528 88.8621 149.47 85.5789 149.422C84.3921 149.405 83.1923 149.322 82.0185 149.444C80.6238 149.587 80.2123 149.179 80.221 147.706C80.2859 133.174 80.2816 118.641 80.221 104.108C80.2167 102.652 80.5978 102.344 82.0012 102.353C91.344 102.422 100.687 102.405 110.03 102.383C117.033 102.366 121.664 97.7342 121.737 90.7105C121.759 88.6567 121.824 86.5985 121.711 84.5534C121.642 83.2751 122.032 82.9588 123.301 82.9632C134.48 83.0152 145.659 82.9978 156.839 82.9892C157.644 82.9892 158.467 82.9805 159.251 82.8245C162.929 82.0836 164.93 79.6008 165.995 76.1864V23.3417C165.744 21.6735 165.272 20.1439 164.016 18.87H164.02ZM84.3271 154.916C85.5399 154.908 85.9644 155.198 85.8344 156.428C85.7002 157.707 86.2113 159.375 85.5702 160.185C84.8859 161.052 83.149 160.454 81.8799 160.458C67.1359 160.48 52.3919 160.449 37.6479 160.51C36.2792 160.514 35.859 160.172 36.0063 158.833C36.1449 157.611 35.6121 155.965 36.2315 155.237C36.9679 154.379 38.6571 154.968 39.9262 154.964C46.891 154.934 53.8602 154.947 60.8251 154.947C68.6562 154.947 76.4873 154.977 84.3185 154.916H84.3271ZM47.0513 103.709C47.0513 102.669 47.2939 102.362 48.368 102.366C56.6799 102.414 64.9962 102.414 73.3081 102.366C74.4169 102.362 74.7548 102.604 74.7461 103.766C74.6898 111.166 74.7158 118.563 74.7158 125.963C74.7158 133.364 74.6941 140.652 74.7418 148.001C74.7505 149.106 74.4862 149.457 73.3298 149.448C65.0178 149.396 56.7016 149.4 48.3897 149.448C47.3285 149.452 47.0513 149.166 47.0513 148.109C47.0859 133.312 47.0859 118.511 47.0513 103.714V103.709ZM109.661 96.859C77.2107 96.859 44.76 96.859 12.305 96.859C7.65743 96.859 5.59136 94.7922 5.59136 90.1559C5.59136 64.1755 5.59136 38.1907 5.59136 12.2103C5.59136 7.55235 7.62711 5.52886 12.3137 5.52886C28.513 5.52886 44.7124 5.52886 60.9117 5.52886C77.163 5.52886 93.4187 5.52886 109.67 5.52886C114.149 5.52886 116.197 7.56968 116.197 12.0543C116.197 38.143 116.197 64.2361 116.197 90.3249C116.197 94.7922 114.123 96.8633 109.661 96.8633V96.859ZM160.477 73.9723C160.477 76.5114 159.498 77.4733 156.934 77.4733C145.707 77.4776 134.476 77.4473 123.249 77.5166C121.85 77.5253 121.72 77.0097 121.724 75.8571C121.763 67.2172 121.746 58.5773 121.746 49.933C121.746 41.1848 121.772 32.4365 121.716 23.6883C121.707 22.4274 122.019 22.0678 123.314 22.0764C134.489 22.1328 145.664 22.1068 156.839 22.1111C159.52 22.1111 160.481 23.0557 160.481 25.6944C160.481 41.7871 160.486 57.8797 160.481 73.9723H160.477Z" fill="black"/>
<path d="M104.1 11.0488C89.737 11.0488 75.3741 11.0488 61.0156 11.0488C46.6008 11.0488 32.1816 11.0488 17.7668 11.0488C13.2102 11.0488 11.1182 13.1286 11.1182 17.6523C11.1182 39.9583 11.1182 62.2687 11.1182 84.5748C11.1182 89.2371 13.1756 91.3169 17.8015 91.3169C46.5791 91.3169 75.3568 91.3169 104.134 91.3169C108.604 91.3169 110.666 89.2587 110.666 84.7871C110.666 62.3727 110.666 39.954 110.666 17.5396C110.666 13.0853 108.6 11.0488 104.104 11.0488H104.1ZM105.165 84.1285C105.165 85.4717 104.827 85.8097 103.48 85.8054C75.1273 85.762 46.7784 85.7577 18.4252 85.8097C16.8832 85.8097 16.606 85.3461 16.6103 83.9249C16.6537 62.0434 16.658 40.1663 16.6017 18.2849C16.6017 16.816 16.9915 16.5344 18.3819 16.5387C32.5325 16.595 46.6788 16.5734 60.8294 16.5734C74.98 16.5734 89.2345 16.5993 103.437 16.5344C104.927 16.5257 105.165 16.9633 105.161 18.3282C105.118 40.2616 105.118 62.1951 105.161 84.1285H105.165Z" fill="black"/>
<path d="M154.946 33.2682C154.998 31.561 153.681 30.4561 151.554 30.4518C144.59 30.4431 137.625 30.4431 130.66 30.4518C128.563 30.4518 127.364 31.4311 127.329 33.1296C127.29 34.8974 128.529 35.9633 130.686 35.972C134.086 35.985 137.49 35.972 140.891 35.972C144.455 35.972 148.02 35.9807 151.58 35.972C153.62 35.9633 154.898 34.9191 154.95 33.2682H154.946Z" fill="black"/>
<path d="M152.178 66.4326C150.671 66.4326 149.502 67.5462 149.445 69.0411C149.389 70.5923 150.567 71.8835 152.087 71.9398C153.569 71.9918 154.916 70.7049 154.946 69.21C154.976 67.7065 153.707 66.437 152.174 66.4326H152.178Z" fill="black"/>
<path d="M152.149 60.8778C153.634 60.8952 154.947 59.5823 154.947 58.0874C154.947 56.5665 153.682 55.3533 152.123 55.3793C150.607 55.401 149.476 56.5232 149.446 58.0354C149.416 59.5736 150.641 60.8648 152.149 60.8822V60.8778Z" fill="black"/>
<path d="M141.09 66.4327C139.513 66.4413 138.357 67.6372 138.391 69.2274C138.426 70.7136 139.596 71.9009 141.055 71.9355C142.541 71.9658 143.875 70.6703 143.888 69.1798C143.901 67.6806 142.623 66.424 141.086 66.4327H141.09Z" fill="black"/>
<path d="M141.09 60.8738C142.576 60.8825 143.888 59.5739 143.884 58.0834C143.884 56.5712 142.606 55.3536 141.055 55.3753C139.535 55.3969 138.417 56.5149 138.387 58.0357C138.361 59.5869 139.574 60.8608 141.086 60.8738H141.09Z" fill="black"/>
<path d="M141.003 49.7902C142.502 49.8509 143.836 48.6073 143.888 47.1038C143.936 45.6609 142.784 44.413 141.311 44.3133C139.734 44.2093 138.465 45.3273 138.392 46.8785C138.322 48.4297 139.483 49.7252 141.003 49.7859V49.7902Z" fill="black"/>
<path d="M152.204 44.2963C150.706 44.2833 149.515 45.4012 149.445 46.8831C149.376 48.4343 150.541 49.7212 152.07 49.7862C153.564 49.8468 154.903 48.5946 154.946 47.0954C154.989 45.5919 153.738 44.3093 152.204 44.292V44.2963Z" fill="black"/>
<path d="M129.967 60.8735C131.449 60.9255 132.774 59.6473 132.804 58.1394C132.839 56.6229 131.596 55.375 130.049 55.375C128.473 55.375 127.295 56.5666 127.321 58.1394C127.347 59.6126 128.521 60.8259 129.967 60.8735Z" fill="black"/>
<path d="M129.976 66.4333C128.478 66.468 127.343 67.6206 127.325 69.1198C127.308 70.6666 128.534 71.9362 130.045 71.9362C131.535 71.9362 132.826 70.6276 132.813 69.1328C132.796 67.6076 131.527 66.3987 129.981 66.4333H129.976Z" fill="black"/>
<path d="M130.08 49.7899C131.592 49.7682 132.848 48.4684 132.809 46.9648C132.77 45.4353 131.497 44.2524 129.946 44.3044C128.395 44.3564 127.252 45.6129 127.33 47.1815C127.404 48.6503 128.625 49.8116 130.08 49.7942V49.7899Z" fill="black"/>
<path d="M85.7911 42.1858C85.8518 41.5488 85.7565 40.8902 85.7088 40.2446C85.1068 31.7953 78.1982 25.1182 69.739 24.9623C63.8527 24.8539 57.9664 24.8973 52.08 24.9536C48.2164 24.9882 44.8076 26.3835 41.8796 28.8792C36.7903 33.2122 35.5168 38.923 36.1449 45.2622C36.2012 45.8341 36.2532 46.1938 35.8244 46.6747C32.3679 50.544 32.3852 54.7297 35.846 58.508C36.2012 58.8937 36.3918 59.1796 36.3008 59.7559C35.0014 67.6722 40.8011 75.8355 48.6885 77.1701C52.7124 77.8504 56.7752 77.2741 59.8418 77.4604C64.1646 77.4604 67.517 77.5774 70.8609 77.4387C80.9097 77.0228 86.5708 67.8109 85.6309 60.2585C85.5182 59.3573 85.6525 58.8243 86.2762 58.1787C88.8058 55.5703 89.5594 51.506 87.4414 48.6765C85.8691 46.5751 85.5616 44.5559 85.7954 42.1858H85.7911ZM50.5597 30.6428C51.1877 30.5128 51.8418 30.4651 52.4872 30.4651C58.0443 30.4521 63.6058 30.4131 69.163 30.4651C76.1321 30.5301 81.2302 36.5746 80.2903 43.4943C80.143 44.5862 79.4283 44.2656 78.8652 44.2656C72.823 44.2829 66.7764 44.2786 60.7341 44.2786C54.8521 44.2786 48.9701 44.2353 43.0881 44.3132C41.767 44.3306 41.5201 43.9146 41.5288 42.6927C41.5678 36.2539 44.8423 31.8213 50.564 30.6428H50.5597ZM80.2296 62.269C79.8918 67.6896 75.5864 71.8839 70.1808 71.9445C67.1012 71.9792 64.0216 71.9489 60.9463 71.9532C57.8667 71.9532 54.7871 71.9792 51.7118 71.9489C46.2933 71.8969 41.9749 67.7589 41.5634 62.3427C41.4768 61.1988 41.8146 60.8695 42.9668 60.8738C54.956 60.9128 66.9496 60.9128 78.9389 60.8738C80.0477 60.8738 80.2989 61.2118 80.234 62.2734L80.2296 62.269ZM81.2302 55.1326C80.6108 55.3753 79.9654 55.3666 79.3157 55.3623C67.0622 55.3623 54.8088 55.3623 42.5553 55.3623C42.1785 55.3623 41.7973 55.384 41.4248 55.3363C39.7746 55.124 38.722 53.9281 38.8173 52.3899C38.9083 50.9253 39.9911 49.8984 41.6284 49.8464C43.3523 49.7901 45.0805 49.8291 46.8087 49.8248C51.5602 49.8248 56.3074 49.8248 61.059 49.8248C67.1575 49.8248 73.2561 49.8248 79.359 49.8248C80.0564 49.8248 80.771 49.7511 81.4251 50.0761C82.4906 50.6047 83.071 51.48 83.019 52.6715C82.9671 53.8501 82.3477 54.695 81.2302 55.1326Z" fill="black"/>
</g>
<defs>
<clipPath id="clip0_1030_1358">
<rect width="166" height="166" fill="white"/>
</clipPath>
</defs>
</svg>
