<svg width="324" height="278" viewBox="0 0 324 278" fill="none" xmlns="http://www.w3.org/2000/svg">
<path d="M144.536 73.688C137.461 66.2508 131.413 58.1618 128.556 48.0887C127.611 44.7441 127.451 41.2257 128.087 37.8085C128.724 34.3914 130.14 31.168 132.226 28.3904C134.312 25.6127 137.01 23.3559 140.11 21.7964C143.21 20.2369 146.628 19.4168 150.097 19.4004C157.915 19.3356 163.922 22.6445 168.635 28.6858C168.956 29.1355 169.31 29.5613 169.694 29.9596C170.054 30.36 170.495 30.6785 170.988 30.8934C171.481 31.1084 172.014 31.2148 172.551 31.2056C173.089 31.1963 173.618 31.0716 174.104 30.8398C174.589 30.608 175.019 30.2745 175.364 29.8619C176.665 28.4819 177.709 26.8769 179.121 25.5924C185.413 19.86 192.744 17.9768 200.875 20.2846C208.926 22.5723 214.116 27.9883 216.447 36.0848C215.832 41.6643 213.606 46.6663 210.924 51.5016C207.035 58.4068 201.652 64.3516 195.171 68.8998C188.69 73.4481 181.274 76.4843 173.469 77.7856C170.585 78.258 167.666 78.4849 164.743 78.4639C158.684 78.4127 152.686 77.2402 147.053 75.0054C146.167 74.6413 145.45 73.9895 144.536 73.688Z" fill="#EFB519"/>
<path d="M144.541 73.688C145.054 73.6367 145.57 73.7193 146.041 73.9279C151.237 76.1655 156.789 77.4595 162.437 77.7495C171.232 78.3298 180.022 76.5515 187.903 72.5978C197.765 67.7301 205.851 59.8814 211.02 50.1598C213.217 46.1256 214.836 41.8016 215.83 37.3151C215.927 36.866 215.977 36.3596 216.451 36.0826C217.782 40.9685 217.485 46.1563 215.604 50.8572C212.715 58.804 207.881 65.5066 202.334 71.7538C195.844 79.2324 188.295 85.717 179.927 91.0008C178.41 91.929 176.824 92.7378 175.182 93.42C174.329 93.7897 173.409 93.9788 172.479 93.9755C171.549 93.9722 170.631 93.7766 169.78 93.4009C165.631 91.5382 161.742 89.142 158.211 86.2726C153.491 82.6803 149.089 78.6865 145.054 74.3355C144.859 74.1381 144.71 73.9045 144.541 73.688Z" fill="#C49006"/>
<path d="M191.063 0.82959C193.288 2.54718 193.55 5.10657 193.91 7.60546C193.979 8.31378 193.995 9.02633 193.957 9.73705C193.94 11.1171 194.208 12.3559 195.563 13.0459C196.94 13.7476 198.075 13.1722 199.121 12.2731C199.312 12.2281 199.511 12.222 199.704 12.255C199.898 12.288 200.083 12.3595 200.249 12.4652C201.998 13.3188 204.01 13.4555 205.858 12.8462C207.706 12.2369 209.245 10.9296 210.147 9.20203C210.369 8.75512 210.5 8.19568 211.206 8.34536C212.477 11.651 211.671 14.2274 208.712 16.1446C207.906 16.6441 207.066 17.0892 206.201 17.4768C205.775 17.6963 205.305 17.8166 204.826 17.8285C204.347 17.8405 203.872 17.7438 203.436 17.5458C198.97 15.4227 194.348 15.8165 189.724 16.7327C184.045 17.8716 178.945 20.9749 175.318 25.5C175.194 25.7115 175.028 25.8948 174.829 26.0379C174.63 26.1809 174.404 26.2807 174.164 26.3307C173.925 26.3807 173.677 26.3799 173.438 26.3282C173.199 26.2765 172.973 26.1752 172.776 26.0308C171.362 25.3195 170.024 24.4659 168.783 23.483C168.973 22.4151 169.851 22.7739 170.464 22.7294C170.869 22.7549 171.274 22.6926 171.653 22.5466C172.031 22.4006 172.374 22.1744 172.657 21.8835C172.94 21.5926 173.157 21.2438 173.293 20.861C173.429 20.4782 173.481 20.0705 173.445 19.6657C173.547 18.4382 173.185 17.2171 172.429 16.2454C172.333 16.1212 172.242 15.9938 172.142 15.8717C171.888 15.5628 171.627 15.2412 171.788 14.8102C171.985 14.2922 172.465 14.582 172.816 14.4917C174.174 14.7697 175.427 15.4257 176.43 16.3845C176.882 16.8268 177.406 17.1887 177.979 17.4545C178.377 17.6303 178.814 17.7028 179.248 17.6654C179.682 17.6279 180.099 17.4816 180.462 17.24C180.825 16.9984 181.121 16.6693 181.324 16.2829C181.526 15.8965 181.628 15.4653 181.621 15.0289C181.631 13.7327 181.454 12.4366 181.358 11.1404C181.501 10.9714 181.701 10.8614 181.919 10.8316C182.138 10.8017 182.36 10.8543 182.542 10.9791C186.895 13.393 189.893 10.03 190.521 6.30825C190.779 5.0258 190.811 3.70777 190.613 2.41448C190.509 1.86142 190.404 1.21281 191.063 0.82959Z" fill="#E22006"/>
<path d="M191.066 0.828566C191.15 2.70539 191.563 4.57477 191.089 6.46327C190.819 8.0218 190.125 9.47576 189.086 10.6659C188.305 11.5714 187.229 12.1686 186.049 12.3503C184.869 12.532 183.663 12.2863 182.647 11.6574C182.236 11.4451 181.88 11.0821 181.358 11.1415C180.983 8.12778 181.146 5.2117 182.977 2.62471C183.854 1.36294 185.173 0.477883 186.671 0.145164C188.17 -0.187556 189.738 0.0563802 191.066 0.828566Z" fill="#EF5A28"/>
<path d="M211.206 8.34541C210.398 9.86236 209.751 11.4303 208.125 12.4101C206.175 13.5573 203.898 14.0163 201.657 13.7137C200.695 13.4802 199.817 12.9816 199.122 12.2742C200.816 10.0787 202.862 8.17968 205.175 6.65436C205.503 6.43406 205.843 6.23171 206.193 6.04822C208.91 4.61619 210.446 5.31999 211.206 8.34541Z" fill="#EF5A28"/>
<path d="M172.813 14.4939C172.157 14.6892 171.9 14.8867 172.535 15.5353C173.267 16.2608 173.769 17.1874 173.976 18.1981C174.183 19.2088 174.087 20.2584 173.7 21.2146C173.507 21.8655 173.095 22.4291 172.534 22.8091C171.972 23.1892 171.297 23.3621 170.622 23.2984C170.01 23.2984 169.361 23.0988 168.78 23.4788C167.377 22.2252 165.893 20.9906 166.595 18.7815C166.957 17.5785 167.666 16.5098 168.633 15.7099C169.6 14.9099 170.782 14.4144 172.029 14.2858C172.299 14.3184 172.562 14.3884 172.813 14.4939Z" fill="#EF5A28"/>
<path d="M219.097 42.9943C219.031 41.1791 218.757 39.3766 218.831 37.5528C218.871 36.6272 219.163 36.3352 220.142 36.4584C222.952 36.8076 225.696 37.2651 227.915 39.2386C228.059 39.3691 228.185 39.5241 228.318 39.6632C228.379 40.6621 227.568 41.1122 226.982 41.6398C224.945 43.471 222.477 43.7629 219.878 43.4858C219.566 43.4257 219.287 43.2503 219.097 42.9943Z" fill="#CA795B"/>
<path d="M219.097 42.9944C220.627 43.0757 222.162 43.0046 223.678 42.7821C225.622 42.3044 226.932 40.9392 228.321 39.6643C229.444 40.4937 230.233 41.6989 230.545 43.0613C230.757 43.7746 230.524 44.1483 229.833 44.229C228.35 44.3935 226.867 44.5782 225.372 44.6536C223.836 44.7268 222.294 44.6844 220.753 44.6823C219.159 44.6706 219.092 44.5995 219.097 42.9944Z" fill="#AF5B3C"/>
<path d="M204.388 36.09C204.37 36.8186 204.137 37.5254 203.718 38.1216C203.3 38.7178 202.715 39.1767 202.037 39.4407C201.359 39.7046 200.618 39.7619 199.908 39.6052C199.198 39.4485 198.55 39.0849 198.045 38.5601C197.54 38.0353 197.202 37.3727 197.072 36.6556C196.942 35.9385 197.026 35.1989 197.315 34.5298C197.603 33.8607 198.082 33.2919 198.692 32.8951C199.302 32.4982 200.016 32.2909 200.743 32.2992C201.237 32.286 201.729 32.3761 202.186 32.5637C202.644 32.7514 203.057 33.0325 203.4 33.3892C203.743 33.7459 204.008 34.1702 204.178 34.6353C204.348 35.1003 204.42 35.5957 204.388 36.09Z" fill="#0B7F7C"/>
<path d="M99.5742 270.798C99.6706 269.874 99.6706 268.858 100.919 268.765C101.679 268.709 102.36 269.136 102.171 269.936C101.962 270.838 102.228 272.208 100.719 272.31C99.6665 272.38 99.6816 271.513 99.5742 270.798Z" fill="#EFB519"/>
<path d="M103.975 270.74C104.076 269.788 104.134 268.787 105.394 268.768C106.134 268.755 106.77 269.146 106.547 270.009C106.313 270.921 106.572 272.291 105.041 272.309C103.999 272.322 104.083 271.417 103.975 270.74Z" fill="#EFB519"/>
<path d="M108.014 270.773C108.109 269.837 108.134 268.827 109.391 268.765C110.149 268.728 110.81 269.164 110.612 269.971C110.39 270.87 110.654 272.252 109.128 272.315C108.076 272.354 108.119 271.477 108.014 270.773Z" fill="#EFB519"/>
<path d="M153.191 259.126C152.133 258.628 151.449 259.264 150.865 260.028C150.03 261.119 149.225 262.235 148.407 263.339C148.252 261.546 148.493 259.74 149.116 258.052C149.723 256.071 150.469 254.133 151.204 252.192C151.532 251.33 151.825 250.474 150.76 250.008C149.628 249.512 149.28 250.453 148.925 251.249C148.604 251.972 148.286 252.701 148.012 253.446C147.936 253.745 147.748 254.002 147.487 254.164C147.226 254.326 146.912 254.38 146.611 254.315C145.769 254.228 145.865 253.697 145.97 253.122C146.006 252.971 146.01 252.815 145.981 252.663C145.952 252.51 145.891 252.366 145.801 252.24C145.712 252.114 145.596 252.008 145.462 251.93C145.329 251.853 145.179 251.805 145.026 251.79C144.394 251.642 144.004 252.021 143.765 252.59C143.498 253.282 143.008 253.865 142.372 254.246C141.737 254.628 140.993 254.785 140.258 254.695C139.552 254.672 139.045 254.97 139.045 255.743C139.045 256.42 139.4 257.09 140.094 256.991C142.194 256.692 141.695 257.973 141.491 259.108C141.327 260.01 141.099 260.901 140.957 261.806C140.452 264.451 140.25 267.145 140.353 269.835C140.41 270.663 140.778 271.544 141.721 271.507C142.896 271.46 142.38 270.429 142.354 269.808C142.375 265.889 142.925 261.992 143.991 258.221C144.072 257.864 144.208 257.522 144.395 257.208C144.575 256.843 144.888 256.562 145.27 256.422C145.651 256.283 146.072 256.297 146.443 256.46C147.269 256.809 146.684 257.548 146.55 258.055C145.76 260.82 145.389 263.689 145.45 266.565C145.477 267.28 145.373 268.107 146.337 268.358C147.239 268.59 147.672 267.944 148.092 267.335C148.905 265.865 149.874 264.488 150.983 263.227C150.893 263.87 150.829 264.201 150.801 264.537C150.608 266.056 150.625 267.595 150.853 269.108C150.977 269.724 151.338 270.28 152.102 270.193C152.581 270.14 152.611 269.707 152.554 269.34C152.151 266.522 153.243 263.917 153.693 261.221C153.817 260.461 154.187 259.597 153.191 259.126Z" fill="#EFB519"/>
<path d="M288.175 258.67C287.227 259.23 286.308 259.838 285.422 260.491C285.582 259.195 286.485 257.783 284.712 257.409C283.143 257.078 283.13 258.617 282.785 259.569C280.991 265.03 280.146 270.76 280.287 276.507C280.277 277.215 280.287 277.913 281.214 277.994C282.254 278.084 282.152 277.277 282.223 276.629C282.438 274.626 282.664 272.629 282.855 270.618C282.922 269.928 282.947 269.27 283.777 269.026C287.675 267.88 289.134 264.474 290.843 261.315C291.054 260.97 291.137 260.562 291.077 260.163C291.018 259.763 290.82 259.396 290.519 259.128C290.228 258.812 289.843 258.597 289.422 258.514C289 258.432 288.563 258.486 288.175 258.67ZM284.227 266.724C284.512 265.61 285.014 264.563 285.706 263.646C286.398 262.729 287.265 261.958 288.257 261.38C287.503 263.539 286.094 265.407 284.227 266.722V266.724Z" fill="#EFB519"/>
<path d="M261.363 259.114C260.225 258.613 259.573 259.441 258.936 260.217C258.137 261.49 257.189 262.663 256.112 263.71C256.313 262.634 256.46 261.799 256.626 260.969C257.273 257.861 258.249 254.832 259.537 251.932C259.873 251.159 259.831 250.449 259.041 250.037C258.175 249.586 257.664 250.133 257.341 250.881C255.001 255.804 253.756 261.177 253.691 266.63C253.707 267.365 253.654 268.162 254.625 268.373C255.535 268.568 255.918 267.913 256.325 267.282C257.081 266.111 257.859 264.949 258.622 263.784C258.73 263.822 258.836 263.862 258.943 263.902C258.943 265.175 258.933 266.448 258.943 267.724C258.88 268.117 258.903 268.52 259.008 268.904C259.114 269.288 259.301 269.645 259.556 269.951C259.838 270.172 260.195 270.274 260.551 270.235C260.924 270.189 260.856 269.762 260.826 269.478C260.456 266.731 261.349 264.162 261.879 261.536C262.041 260.7 262.546 259.639 261.363 259.114Z" fill="#EFB519"/>
<path d="M123.695 257.686C122.669 257.306 122.339 258.144 122.067 258.937C121.437 260.779 120.787 262.612 120.111 264.547C119.705 263.894 119.534 263.12 119.628 262.355C119.613 261.7 119.521 261.126 118.779 260.913C118.454 260.813 118.105 260.834 117.795 260.972C117.484 261.11 117.234 261.355 117.09 261.663C116.603 262.402 116.094 263.122 115.403 264.132C115.285 262.989 115.439 261.835 115.853 260.764C115.908 260.603 115.929 260.433 115.917 260.263C115.904 260.094 115.857 259.929 115.779 259.778C115.701 259.627 115.593 259.494 115.462 259.386C115.331 259.278 115.18 259.198 115.017 259.15C114.192 258.874 113.719 259.376 113.473 260.059C112.532 262.464 112.229 265.072 112.594 267.63C112.617 267.97 112.752 268.294 112.978 268.549C113.204 268.804 113.509 268.977 113.843 269.04C114.171 269.132 114.519 269.12 114.84 269.006C115.16 268.891 115.438 268.679 115.633 268.4C116.183 267.602 116.704 266.778 117.422 265.674C117.697 266.549 117.875 267.118 118.063 267.68C118.358 268.567 118.645 269.434 119.843 269.451C121.04 269.467 121.166 268.564 121.42 267.757C122.291 265.022 123.133 262.277 124.018 259.546C124.245 258.841 124.677 258.048 123.695 257.686Z" fill="#EFB519"/>
<path d="M204.997 258.486C204.065 257.97 203.557 258.823 203.032 259.38C201.478 261.035 199.952 262.721 198.185 264.643C198.356 263.181 198.698 261.743 199.203 260.361C199.357 259.733 199.341 259.081 198.617 258.816C197.929 258.559 197.446 258.945 197.143 259.555C196.257 261.303 195.73 263.21 195.592 265.165C195.533 265.563 195.604 265.97 195.796 266.325C195.987 266.679 196.288 266.962 196.653 267.13C197.031 267.341 197.468 267.42 197.895 267.354C198.322 267.288 198.715 267.081 199.012 266.766C199.517 266.263 199.989 265.725 200.812 264.835C200.591 267.5 200.218 270.15 199.696 272.772C199.383 273.899 199.444 275.097 199.869 276.187C199.957 276.418 200.124 276.609 200.341 276.726C200.558 276.843 200.81 276.877 201.05 276.823C201.523 276.74 201.55 276.335 201.557 275.97C201.659 270.617 203.447 265.685 205.301 260.765C205.592 259.968 206.005 259.046 204.997 258.486Z" fill="#EFB519"/>
<path d="M272.887 258.499C271.962 257.947 271.445 258.786 270.919 259.355C269.353 261.049 267.806 262.756 266.05 264.677C266.136 263.299 266.458 261.946 266.999 260.677C267.233 259.96 267.372 259.144 266.448 258.811C265.65 258.524 265.202 259.113 264.903 259.757C264.111 261.415 263.626 263.204 263.471 265.035C263.401 265.478 263.481 265.932 263.698 266.324C263.915 266.716 264.256 267.024 264.668 267.198C265.08 267.373 265.538 267.404 265.97 267.287C266.402 267.17 266.782 266.912 267.05 266.553C267.58 265.922 268.106 265.288 268.636 264.658L269.009 264.827C268.531 267.448 268.038 270.053 267.587 272.674C267.287 273.805 267.328 275 267.707 276.107C267.772 276.347 267.923 276.553 268.13 276.689C268.338 276.824 268.588 276.879 268.833 276.843C269.39 276.76 269.431 276.299 269.439 275.866C269.57 270.572 271.291 265.677 273.156 260.812C273.461 260.001 273.862 259.084 272.887 258.499Z" fill="#EFB519"/>
<path d="M246.185 257.392C245.712 257.157 245.166 257.11 244.66 257.261C244.153 257.413 243.723 257.752 243.456 258.209C242.407 259.472 241.374 260.745 240.118 262.279C240.035 261.763 239.98 261.59 239.98 261.417C239.971 260.675 240.052 259.863 239.035 259.718C237.924 259.556 237.772 260.45 237.534 261.201C237.124 262.548 236.923 263.952 236.937 265.361C236.937 266.213 236.832 267.162 237.881 267.521C238.982 267.897 239.533 267.159 240.064 266.34C241.107 264.548 242.387 262.905 243.87 261.457C243.703 263.716 243.399 265.919 243.025 268.111C242.852 268.954 242.941 269.829 243.278 270.62C243.352 270.824 243.495 270.996 243.682 271.106C243.869 271.216 244.088 271.257 244.302 271.223C244.853 271.158 244.976 270.75 244.975 270.293C244.96 266.696 246.061 263.305 246.835 259.85C247.038 258.959 247.205 257.928 246.185 257.392Z" fill="#EFB519"/>
<path d="M303.127 259.42C302.843 259.057 302.455 258.79 302.015 258.654C301.575 258.519 301.104 258.522 300.666 258.663C299.186 259.065 297.879 259.945 296.949 261.167C296.019 262.389 295.518 263.885 295.522 265.421C295.466 266.016 295.533 266.615 295.719 267.182C295.904 267.749 296.205 268.272 296.601 268.717C296.997 269.163 297.481 269.522 298.022 269.772C298.563 270.021 299.15 270.157 299.745 270.169C300.72 270.097 301.644 269.808 301.579 268.595C301.5 267.121 300.555 267.686 299.73 267.885C299.51 267.963 299.277 267.993 299.045 267.973C298.813 267.952 298.588 267.881 298.386 267.765C298.185 267.648 298.011 267.489 297.876 267.299C297.741 267.108 297.65 266.891 297.607 266.661C297.302 265.468 298.345 265.508 299.064 265.259C300.682 264.671 302.069 263.579 303.022 262.143C303.348 261.77 303.536 261.295 303.555 260.8C303.574 260.304 303.423 259.817 303.127 259.42ZM298.536 263.282C298.687 262.595 299.033 261.967 299.532 261.473C300.032 260.98 300.664 260.642 301.351 260.501C301.138 261.156 300.772 261.751 300.283 262.235C299.794 262.719 299.197 263.079 298.541 263.285L298.536 263.282Z" fill="#EFB519"/>
<path d="M318.241 259.525C317.54 258.369 316.379 258.518 315.288 258.77C312.724 259.37 310.587 262.445 310.577 265.479C310.564 266.245 310.727 267.003 311.054 267.694C311.382 268.386 311.864 268.992 312.464 269.466C312.867 269.797 313.342 270.027 313.852 270.135C314.361 270.244 314.889 270.229 315.392 270.09C315.591 270.071 315.785 270.008 315.958 269.907C316.131 269.805 316.28 269.668 316.395 269.503C316.51 269.338 316.589 269.15 316.625 268.953C316.66 268.755 316.653 268.551 316.603 268.357C316.387 267.402 315.723 267.566 315.03 267.838C314.738 267.925 314.431 267.951 314.129 267.913C313.759 267.901 313.404 267.759 313.127 267.512C312.85 267.264 312.669 266.927 312.615 266.559C312.395 265.605 313.127 265.525 313.799 265.336C315.386 264.86 316.778 263.886 317.771 262.558C318.178 262.178 318.445 261.673 318.53 261.123C318.615 260.573 318.513 260.01 318.241 259.525ZM314.047 262.973C314.184 261.441 314.387 261.234 316.281 260.766C316.124 261.294 315.838 261.773 315.447 262.159C315.056 262.546 314.574 262.827 314.045 262.977L314.047 262.973Z" fill="#EFB519"/>
<path d="M168.135 258.673C167.092 258.894 166.116 259.364 165.291 260.041C164.465 260.718 163.813 261.583 163.389 262.564C162.966 263.545 162.783 264.614 162.855 265.68C162.928 266.747 163.255 267.78 163.808 268.695C164.165 269.198 164.647 269.599 165.206 269.857C165.765 270.116 166.382 270.223 166.996 270.169C167.995 270.08 168.87 269.681 168.738 268.5C168.591 267.171 167.696 267.75 166.949 267.92C166.728 267.993 166.495 268.018 166.263 267.995C166.032 267.971 165.808 267.899 165.607 267.783C165.405 267.667 165.231 267.509 165.094 267.321C164.957 267.132 164.862 266.917 164.814 266.689C164.454 265.462 165.502 265.533 166.211 265.27C167.907 264.696 169.347 263.54 170.276 262.006C171.301 260.245 170.485 258.703 168.135 258.673ZM165.658 263.433C165.794 262.73 166.132 262.083 166.631 261.571C167.13 261.06 167.767 260.705 168.464 260.553C168.014 262.103 167.052 262.657 165.658 263.433Z" fill="#EFB519"/>
<path d="M183.307 259.017C182.131 259.558 181.128 260.414 180.408 261.492C179.689 262.569 179.281 263.825 179.23 265.121C179.103 267.921 180.998 270.224 183.289 270.177C184.356 270.159 185.354 269.841 185.288 268.577C185.213 267.112 184.224 267.75 183.416 267.922C183.195 267.992 182.962 268.015 182.732 267.989C182.501 267.963 182.279 267.889 182.079 267.771C181.879 267.653 181.707 267.495 181.572 267.306C181.437 267.117 181.344 266.901 181.298 266.674C180.983 265.503 181.986 265.481 182.72 265.246C184.125 264.808 185.359 263.94 186.247 262.763C186.99 261.777 187.771 260.638 186.834 259.453C186.394 258.972 185.797 258.664 185.15 258.584C184.504 258.504 183.851 258.658 183.307 259.017ZM182.293 263.354C182.372 262.635 182.696 261.965 183.211 261.457C183.726 260.95 184.4 260.636 185.118 260.569C184.858 261.199 184.473 261.77 183.988 262.249C183.502 262.727 182.926 263.103 182.293 263.354Z" fill="#EFB519"/>
<path d="M179.434 258.586C178.46 257.881 178.064 258.902 177.592 259.473C176.078 261.309 175.193 263.549 173.617 265.925C173.425 264.184 173.472 262.425 173.755 260.696C173.909 259.831 173.718 259.041 172.712 258.873C171.645 258.687 171.546 259.593 171.438 260.285C171.029 262.764 170.996 265.29 171.339 267.779C171.477 268.716 171.839 269.581 172.933 269.77C174.065 269.961 174.568 269.204 174.998 268.335C176.265 265.691 177.709 263.135 179.321 260.687C179.767 260.029 180.307 259.219 179.434 258.586Z" fill="#EFB519"/>
<path d="M235.818 259.253C235.716 259.185 235.601 259.138 235.48 259.115C235.359 259.092 235.235 259.094 235.115 259.119C234.995 259.145 234.881 259.194 234.78 259.265C234.68 259.335 234.594 259.425 234.528 259.529C234.195 259.965 233.914 260.438 233.591 260.879C232.64 262.613 231.485 264.225 230.15 265.682C230.108 263.989 230.498 262.314 231.284 260.815C231.545 260.141 231.473 259.573 230.801 259.275C230.13 258.977 229.817 259.542 229.529 260.011C228.311 262.012 227.836 264.381 228.189 266.699C228.208 267.023 228.321 267.335 228.515 267.595C228.708 267.856 228.974 268.054 229.278 268.165C229.583 268.277 229.913 268.296 230.229 268.222C230.544 268.148 230.831 267.983 231.055 267.747C231.382 267.497 231.566 267.057 232.098 267.002C232.399 267.846 232.187 268.811 232.669 269.608C232.751 269.772 232.878 269.91 233.036 270.004C233.194 270.097 233.376 270.143 233.559 270.136C234.081 270.111 234.11 269.703 234.094 269.348C234.04 266.284 234.75 263.255 236.158 260.535C236.224 260.429 236.267 260.311 236.286 260.188C236.304 260.066 236.297 259.94 236.265 259.82C236.234 259.7 236.177 259.588 236.1 259.49C236.023 259.393 235.928 259.312 235.818 259.253Z" fill="#EFB519"/>
<path d="M229.011 259.001C228.441 258.161 227.634 258.328 226.92 258.824C226.028 259.445 225.18 260.132 224.27 260.823C224.117 260.395 224.127 259.925 224.298 259.503C224.517 258.798 224.554 258.165 223.626 257.933C223.466 257.878 223.296 257.857 223.127 257.872C222.958 257.888 222.794 257.939 222.647 258.023C222.499 258.107 222.371 258.222 222.272 258.359C222.172 258.497 222.103 258.654 222.068 258.82C221.14 261.918 220.594 265.118 220.443 268.349C220.405 268.563 220.447 268.785 220.56 268.971C220.674 269.157 220.851 269.295 221.059 269.36C221.284 269.466 221.54 269.487 221.779 269.418C222.017 269.349 222.223 269.196 222.357 268.986C222.65 268.456 222.904 267.906 223.116 267.339C224.038 264.604 225.766 262.213 228.071 260.481C228.587 260.125 229.757 260.097 229.011 259.001Z" fill="#EFB519"/>
<path d="M140.285 259.079C139.777 258.153 138.916 258.35 138.221 258.793C137.257 259.401 136.386 260.14 135.417 260.868C135.392 260.575 135.362 260.395 135.362 260.213C135.362 259.413 136.336 258.337 134.84 257.961C133.428 257.605 133.296 258.805 133.015 259.713C132.31 262.369 131.863 265.086 131.68 267.829C131.608 268.496 131.536 269.241 132.48 269.402C133.306 269.54 133.703 269.013 133.981 268.351C134.195 267.848 134.394 267.332 134.583 266.819C135.459 264.256 137.12 262.036 139.329 260.474C139.816 260.137 140.808 260.045 140.285 259.079Z" fill="#EFB519"/>
<path d="M196.013 259.027C195.92 258.865 195.791 258.727 195.637 258.622C195.483 258.517 195.307 258.449 195.122 258.423C194.938 258.396 194.75 258.412 194.572 258.469C194.395 258.526 194.233 258.622 194.098 258.751C193.142 259.391 192.229 260.099 191.135 260.893C191.119 260.613 191.119 260.332 191.135 260.052C191.272 259.258 191.897 258.269 190.602 257.939C189.354 257.618 189.119 258.647 188.832 259.546C188.075 262.193 187.617 264.918 187.465 267.667C187.41 268.338 187.169 269.247 188.268 269.407C189.217 269.545 189.507 268.798 189.794 268.118C189.988 267.67 190.158 267.214 190.345 266.758C191.261 264.208 192.934 262.001 195.14 260.433C195.649 260.088 196.62 260.001 196.013 259.027Z" fill="#EFB519"/>
<path d="M127.178 259.408C125.706 261.434 124.909 263.874 124.899 266.38C125.02 267.409 124.874 268.747 126.421 269.195C127.896 269.619 128.663 268.658 129.386 267.629C130.015 266.732 130.512 265.75 130.863 264.711C131.222 263.866 131.366 262.944 131.281 262.029C131.197 261.114 130.886 260.235 130.378 259.47C129.355 258.011 128.205 257.965 127.178 259.408ZM127.569 266.475C126.813 264.315 127.627 262.686 128.874 260.841C129.198 261.809 129.248 262.849 129.018 263.844C128.788 264.839 128.287 265.75 127.57 266.477L127.569 266.475Z" fill="#EFB519"/>
<path d="M308.156 258.336C307.666 258.34 307.19 258.499 306.795 258.79C304.582 260.277 302.889 265.366 303.791 267.893C303.925 268.5 304.283 269.033 304.795 269.384C305.306 269.736 305.932 269.879 306.544 269.784C307.932 269.595 308.484 268.437 308.979 267.315C309.039 267.14 309.039 266.949 308.978 266.774C308.917 266.599 308.799 266.45 308.643 266.35C308.479 266.213 308.272 266.139 308.059 266.139C307.846 266.139 307.639 266.213 307.475 266.35C306.965 266.641 306.737 267.357 305.892 267.326C305.917 264.591 306.398 262.115 308.92 260.512C309.389 260.216 309.91 259.897 309.623 259.217C309.5 258.936 309.293 258.7 309.03 258.542C308.767 258.384 308.462 258.312 308.156 258.336Z" fill="#EFB519"/>
<path d="M218.092 258.344C217.727 258.385 217.375 258.499 217.056 258.679C216.737 258.859 216.457 259.102 216.232 259.392C215.303 260.445 214.603 261.682 214.18 263.022C213.756 264.363 213.617 265.777 213.771 267.175C213.797 267.572 213.903 267.96 214.082 268.316C214.262 268.671 214.511 268.987 214.815 269.244C215.034 269.461 215.298 269.627 215.588 269.73C215.879 269.833 216.189 269.87 216.495 269.839C216.802 269.808 217.098 269.71 217.363 269.551C217.627 269.392 217.853 269.176 218.024 268.919C218.619 268.23 219.779 267.461 218.805 266.471C217.654 265.303 217.201 267.238 216.068 267.355C215.896 266.064 216.079 264.75 216.599 263.556C217.119 262.362 217.955 261.333 219.017 260.581C219.549 260.195 220.016 259.814 219.628 259.101C219.484 258.829 219.258 258.609 218.982 258.473C218.707 258.337 218.395 258.292 218.092 258.344Z" fill="#EFB519"/>
<path d="M251.887 258.384C251.585 258.34 251.277 258.361 250.983 258.446C250.69 258.531 250.418 258.677 250.185 258.875C248.989 260.02 248.099 261.446 247.594 263.024C247.089 264.601 246.986 266.281 247.294 267.908C247.356 268.228 247.483 268.531 247.667 268.799C247.852 269.067 248.089 269.294 248.365 269.465C248.641 269.637 248.949 269.749 249.271 269.796C249.592 269.842 249.92 269.821 250.233 269.735C251.51 269.488 252.022 268.355 252.454 267.263C252.491 267.177 252.509 267.085 252.51 266.992C252.51 266.899 252.492 266.806 252.457 266.72C252.422 266.634 252.369 266.556 252.304 266.49C252.238 266.424 252.161 266.372 252.075 266.336C250.921 265.755 250.56 267.059 249.487 267.449C249.275 266.124 249.44 264.767 249.962 263.531C250.485 262.296 251.344 261.233 252.441 260.464C252.863 260.173 253.293 259.912 253.119 259.323C253.04 259.056 252.878 258.821 252.656 258.652C252.435 258.483 252.165 258.389 251.887 258.384Z" fill="#EFB519"/>
<path d="M294.009 259.201C293.039 258.907 292.681 259.636 292.508 260.372C291.975 262.25 291.661 264.183 291.57 266.133C291.601 266.801 291.601 267.474 291.665 268.139C291.659 268.293 291.685 268.446 291.742 268.59C291.798 268.733 291.885 268.863 291.995 268.971C292.104 269.079 292.235 269.163 292.38 269.217C292.524 269.271 292.678 269.294 292.831 269.285C293.649 269.263 293.54 268.605 293.519 268.067C293.5 265.686 293.919 263.322 294.758 261.094C295.065 260.208 294.996 259.494 294.009 259.201Z" fill="#EFB519"/>
<path d="M296.381 256.54C296.606 255.566 296.468 254.995 295.65 254.945C294.453 254.878 294.323 255.799 294.234 256.672C294.166 257.318 293.958 258.212 294.943 258.232C296.158 258.259 296.208 257.133 296.381 256.54Z" fill="#EFB519"/>
<path d="M101.397 131.865C99.4554 131.865 97.7808 131.186 96.3731 129.827C95.014 128.419 94.3344 126.744 94.3344 124.803C94.3344 122.91 95.014 121.284 96.3731 119.924C97.7808 118.517 99.4554 117.813 101.397 117.813C103.339 117.813 104.989 118.517 106.348 119.924C107.707 121.284 108.387 122.91 108.387 124.803C108.387 126.744 107.707 128.419 106.348 129.827C104.989 131.186 103.339 131.865 101.397 131.865ZM88.6553 174.386C90.3056 173.464 91.3978 172.299 91.9317 170.891C92.5142 169.484 92.8054 167.93 92.8054 166.231V145.044C92.8054 142.326 92.5385 140.36 92.0045 139.146C91.4706 137.933 90.3542 137.18 88.6553 136.889V135.87H110.28V166.231C110.28 167.979 110.547 169.556 111.081 170.964C111.663 172.323 112.78 173.464 114.43 174.386V175.405H88.6553V174.386Z" fill="white"/>
<path d="M138.823 175.405C131.639 175.405 126.057 174.386 122.077 172.347C118.145 170.309 116.179 166.523 116.179 160.989V138.272H112.247V135.87C114.869 135.53 117.562 134.656 120.329 133.249C123.145 131.792 125.62 129.899 127.756 127.569C129.94 125.24 131.421 122.691 132.197 119.924H133.653V135.87H138.75V138.272H133.653V164.266C133.653 166.11 133.726 167.615 133.872 168.78C134.018 169.896 134.454 170.94 135.182 171.911C135.959 172.881 137.173 173.561 138.823 173.949V175.405Z" fill="white"/>
<path d="M161.123 176.425C157.239 176.425 153.55 175.721 150.056 174.313C146.561 172.906 143.697 170.697 141.464 167.688C139.231 164.63 138.115 160.795 138.115 156.184C138.115 152.64 138.94 149.267 140.59 146.063C142.241 142.86 144.765 140.263 148.163 138.272C151.609 136.234 155.832 135.214 160.831 135.214C165.588 135.214 169.763 136.088 173.355 137.836C176.995 139.583 178.815 142.398 178.815 146.282C178.815 147.786 178.354 149.121 177.432 150.286C176.558 151.403 175.393 152.276 173.937 152.907C172.53 153.49 171.073 153.781 169.569 153.781C168.307 153.781 167.142 153.563 166.074 153.126C165.006 152.689 164.132 152.034 163.453 151.16C164.375 150.238 165.079 149.024 165.564 147.519C166.049 145.966 166.292 144.413 166.292 142.86C166.292 141.209 166.025 139.85 165.491 138.782C164.957 137.666 164.181 137.108 163.161 137.108C160.686 137.108 158.793 138.467 157.482 141.185C156.172 143.903 155.516 147.349 155.516 151.524C155.516 155.067 156.244 158.222 157.701 160.989C159.157 163.707 161.001 165.843 163.234 167.396C165.467 168.901 167.676 169.654 169.86 169.654C171.801 169.654 173.452 169.022 174.811 167.76C176.17 166.498 177.044 164.63 177.432 162.154H179.107C178.913 165.066 177.99 167.615 176.34 169.799C174.69 171.935 172.53 173.585 169.86 174.75C167.19 175.867 164.278 176.425 161.123 176.425Z" fill="white"/>
<path d="M176.923 174.386C178.573 173.464 179.665 172.299 180.199 170.891C180.782 169.484 181.073 167.93 181.073 166.231V137.18C181.073 133.783 180.976 131.331 180.782 129.827C180.588 128.322 180.199 127.254 179.617 126.623C179.083 125.992 178.185 125.579 176.923 125.385V124.293H198.547V138.272C200.392 137.253 202.334 136.501 204.372 136.015C206.459 135.481 208.522 135.214 210.561 135.214C213.376 135.214 215.973 135.7 218.352 136.671C220.73 137.593 222.623 138.976 224.031 140.821C225.439 142.617 226.142 144.777 226.142 147.301V166.231C226.142 167.979 226.409 169.556 226.943 170.964C227.526 172.323 228.642 173.464 230.293 174.386V175.405H204.518V174.386C206.168 173.464 207.26 172.299 207.794 170.891C208.377 169.484 208.668 167.93 208.668 166.231V147.592C208.668 145.02 208.061 143.029 206.848 141.622C205.634 140.214 204.057 139.51 202.115 139.51C200.902 139.51 199.712 139.753 198.547 140.238V166.231C198.547 167.979 198.814 169.556 199.348 170.964C199.931 172.323 201.047 173.464 202.698 174.386V175.405H176.923V174.386Z" fill="white"/>
<path d="M252.604 176.425C248.721 176.425 245.032 175.721 241.537 174.313C238.042 172.906 235.178 170.697 232.946 167.688C230.713 164.63 229.596 160.795 229.596 156.184C229.596 152.64 230.421 149.267 232.072 146.063C233.722 142.86 236.246 140.263 239.644 138.272C243.09 136.234 247.313 135.214 252.313 135.214C257.167 135.214 261.366 136.112 264.909 137.908C268.452 139.704 270.224 142.568 270.224 146.5C270.224 150.238 268.719 153.174 265.71 155.31C262.7 157.397 258.963 158.441 254.497 158.441C252.361 158.441 249.983 158.125 247.362 157.494C247.993 160.213 249.037 162.567 250.493 164.557C251.949 166.498 253.599 167.979 255.444 168.998C257.288 169.969 259.133 170.454 260.977 170.454C263.113 170.454 264.909 169.751 266.365 168.343C267.821 166.935 268.744 164.872 269.132 162.154H270.588C270.394 165.066 269.472 167.615 267.821 169.799C266.171 171.935 264.011 173.585 261.341 174.75C258.672 175.867 255.759 176.425 252.604 176.425ZM247.071 156.111C247.75 156.208 248.26 156.257 248.6 156.257C251.318 156.257 253.502 154.946 255.153 152.325C256.851 149.704 257.701 146.379 257.701 142.35C257.701 140.602 257.434 139.17 256.9 138.054C256.415 136.938 255.662 136.379 254.643 136.379C252.167 136.379 250.226 137.86 248.818 140.821C247.41 143.733 246.707 147.301 246.707 151.524C246.707 153.029 246.828 154.558 247.071 156.111Z" fill="white"/>
<path d="M269.827 174.386C271.477 173.464 272.569 172.299 273.103 170.891C273.685 169.484 273.977 167.93 273.977 166.231V148.684C273.977 145.286 273.88 142.835 273.685 141.331C273.491 139.826 273.103 138.758 272.521 138.127C271.987 137.496 271.089 137.083 269.827 136.889V135.87H291.451V141.622C293.15 139.535 295.189 137.957 297.567 136.889C299.994 135.821 302.47 135.287 304.994 135.287C307.469 135.287 309.751 135.773 311.838 136.743C313.974 137.666 315.672 139.049 316.934 140.894C318.245 142.69 318.9 144.825 318.9 147.301V166.231C318.9 167.979 319.167 169.556 319.701 170.964C320.284 172.323 321.4 173.464 323.051 174.386V175.405H297.276V174.386C298.926 173.464 300.018 172.299 300.552 170.891C301.135 169.484 301.426 167.93 301.426 166.231V148.32C301.426 145.99 300.941 144.219 299.97 143.005C298.999 141.743 297.786 141.112 296.329 141.112C294.582 141.112 292.956 141.913 291.451 143.515V166.231C291.451 167.979 291.718 169.556 292.252 170.964C292.834 172.323 293.951 173.464 295.601 174.386V175.405H269.827V174.386Z" fill="white"/>
<path d="M86.5346 179.542C82.4903 178.715 76.606 180.37 70.4767 184.871L69.8214 181.012C68.6565 174.313 67.6129 168.925 66.6906 164.848C65.8169 160.771 64.7005 157.324 63.3414 154.509C61.9823 151.694 60.4047 150.286 58.6087 150.286C57.8806 150.286 57.1283 150.529 56.3516 151.014V166.231C56.3516 167.979 56.6186 169.556 57.1525 170.964C57.735 172.323 58.8514 173.464 60.5018 174.386V175.405H34.7271V174.386C36.3775 173.464 37.4696 172.299 38.0036 170.891C38.586 169.484 38.8773 167.93 38.8773 166.231V133.467C38.8773 131.04 38.222 129.196 36.9114 127.933C35.6008 126.623 33.9019 125.968 31.8147 125.968C29.3392 125.968 26.7666 126.817 24.0969 128.516C21.4272 130.166 19.1944 132.521 17.3984 135.579C15.6024 138.637 14.7044 142.156 14.7044 146.136C14.7044 149.34 15.0927 152.034 15.8694 154.218C16.6946 156.354 17.7382 157.931 19.0002 158.95C20.2622 159.97 21.5243 160.479 22.7863 160.479C24.0484 160.479 25.092 160.018 25.9171 159.096C26.7909 158.174 27.2277 156.96 27.2277 155.456C27.2277 154.582 26.9607 153.757 26.4268 152.98C25.9414 152.155 25.1162 151.669 23.9513 151.524C23.9513 150.602 24.4609 149.704 25.4803 148.83C26.4996 147.908 27.6646 147.447 28.9751 147.447C30.7711 147.447 32.1788 147.932 33.1981 148.903C34.2175 149.825 34.7271 150.99 34.7271 152.398C34.7271 155.747 33.5864 158.295 31.3051 160.043C29.0722 161.742 26.1841 162.591 22.6407 162.591C19.1944 162.591 15.7238 161.79 12.2289 160.188C8.78256 158.538 5.91871 156.208 3.63734 153.198C1.4045 150.14 0.288086 146.621 0.288086 142.641C0.288086 139.535 1.28315 136.574 3.27329 133.758C5.26342 130.943 8.15154 128.662 11.9377 126.914C15.7723 125.167 20.3108 124.293 25.5531 124.293H60.5018V125.312C58.8514 126.235 57.735 127.4 57.1525 128.807C56.6186 130.166 56.3516 131.72 56.3516 133.467V148.903L64.3607 140.311C68.972 135.409 72.5882 130.506 75.2094 125.604C77.8305 120.653 79.1411 116.454 79.1411 113.007C79.1411 110.726 78.5101 108.954 77.248 107.692C75.986 106.382 74.0687 105.727 71.4961 105.727C70.8165 105.727 70.3068 105.751 69.9671 105.799C70.6466 102.547 72.2727 99.9988 74.8453 98.1543C77.4665 96.3098 80.3546 95.3875 83.5097 95.3875C86.5677 95.3875 89.1646 96.2855 91.3003 98.0815C93.4361 99.8289 94.504 102.353 94.504 105.654C94.504 109.78 92.1255 114.998 87.3686 121.308C82.6602 127.569 75.1366 134.729 64.7976 142.787C66.3994 142.156 67.9527 141.84 69.4574 141.84C73.0493 141.84 75.8647 143.321 77.9033 146.282C79.9905 149.243 81.5196 152.859 82.4903 157.13C83.4611 161.402 85.6123 172.553 86.5346 179.542Z" fill="white"/>
<path d="M77.2595 232.303C79.7836 232.06 81.895 231.405 83.5939 230.337C85.2928 229.269 87.3072 227.206 89.6372 224.148L94.5154 217.814L83.3755 200.048C81.9679 198.107 80.7544 196.772 79.735 196.044C78.7642 195.316 77.5265 194.952 76.0217 194.952L75.8761 193.787H102.67V194.952C100.874 194.952 99.9761 195.655 99.9761 197.063C99.9761 197.791 100.243 198.641 100.777 199.611L105.728 207.548L109.223 202.961C111.553 199.903 112.718 197.767 112.718 196.553C112.718 195.631 112.063 195.049 110.752 194.806V193.787H123.785V194.806C121.261 195.049 119.149 195.704 117.451 196.772C115.752 197.84 113.737 199.903 111.407 202.961L106.747 209.077L117.96 226.988C119.368 228.978 120.557 230.337 121.528 231.065C122.547 231.793 123.809 232.157 125.314 232.157V233.322H98.6656V232.157C100.462 232.157 101.36 231.454 101.36 230.046C101.36 229.269 101.093 228.396 100.559 227.425L95.5347 219.343L91.8214 224.148C89.4915 227.158 88.3266 229.294 88.3266 230.556C88.3266 231.478 88.9819 232.06 90.2924 232.303V233.322H77.2595V232.303Z" fill="white"/>
<path d="M124.71 243.88C126.36 242.958 127.452 241.793 127.986 240.385C128.569 238.977 128.86 237.424 128.86 235.725V206.601C128.86 203.203 128.763 200.752 128.569 199.247C128.375 197.743 127.986 196.675 127.404 196.044C126.87 195.413 125.972 195 124.71 194.806V193.787H146.334V196.262L154.198 193.787C158.372 193.787 161.916 194.709 164.828 196.553C167.74 198.398 169.9 200.849 171.308 203.907C172.764 206.917 173.492 210.145 173.492 213.591C173.492 217.134 172.74 220.508 171.235 223.711C169.731 226.915 167.522 229.512 164.61 231.502C161.746 233.444 158.324 234.415 154.343 234.415C151.334 234.415 148.664 233.419 146.334 231.429V235.725C146.334 237.473 146.601 239.026 147.135 240.385C147.718 241.793 148.834 242.958 150.485 243.88V244.899H124.71V243.88ZM147.718 230.701C150.533 230.264 152.693 228.541 154.198 225.532C155.703 222.474 156.455 218.906 156.455 214.829C156.455 210.363 155.557 206.407 153.761 202.961C152.014 199.466 149.538 197.451 146.334 196.917V230.556C147.111 230.701 147.572 230.75 147.718 230.701Z" fill="white"/>
<path d="M172.761 232.303C174.412 231.381 175.504 230.216 176.038 228.808C176.62 227.401 176.912 225.847 176.912 224.148V206.601C176.912 203.203 176.815 200.752 176.62 199.247C176.426 197.743 176.038 196.675 175.455 196.044C174.922 195.413 174.024 195 172.761 194.806V193.787H194.386V202.888C195.842 200.315 197.76 198.058 200.138 196.117C202.516 194.126 204.895 193.131 207.273 193.131C209.506 193.131 211.205 193.811 212.37 195.17C213.535 196.481 214.117 198.082 214.117 199.975C214.117 201.917 213.462 203.446 212.152 204.563C210.841 205.679 209.288 206.237 207.492 206.237C205.647 206.237 204.045 205.655 202.686 204.49C201.327 203.325 200.648 201.699 200.648 199.611C200.648 199.175 200.745 198.641 200.939 198.01C200.017 198.689 198.924 199.806 197.662 201.359C196.449 202.864 195.357 204.465 194.386 206.164V224.148C194.386 225.896 194.653 227.473 195.187 228.881C195.769 230.24 196.886 231.381 198.536 232.303V233.322H172.761V232.303Z" fill="white"/>
<path d="M233.511 234.342C229.628 234.342 225.939 233.638 222.444 232.23C218.949 230.823 216.085 228.614 213.852 225.605C211.62 222.547 210.503 218.712 210.503 214.101C210.503 210.557 211.328 207.184 212.979 203.98C214.629 200.776 217.153 198.18 220.551 196.189C223.997 194.151 228.22 193.131 233.22 193.131C238.074 193.131 242.272 194.029 245.816 195.825C249.359 197.621 251.131 200.485 251.131 204.417C251.131 208.154 249.626 211.091 246.617 213.227C243.607 215.314 239.87 216.358 235.404 216.358C233.268 216.358 230.89 216.042 228.269 215.411C228.9 218.129 229.943 220.484 231.4 222.474C232.856 224.415 234.506 225.896 236.351 226.915C238.195 227.886 240.04 228.371 241.884 228.371C244.02 228.371 245.816 227.667 247.272 226.26C248.728 224.852 249.651 222.789 250.039 220.071H251.495C251.301 222.983 250.379 225.532 248.728 227.716C247.078 229.852 244.918 231.502 242.248 232.667C239.579 233.784 236.666 234.342 233.511 234.342ZM227.977 214.028C228.657 214.125 229.167 214.173 229.506 214.173C232.225 214.173 234.409 212.863 236.059 210.242C237.758 207.621 238.608 204.296 238.608 200.267C238.608 198.519 238.341 197.087 237.807 195.971C237.321 194.855 236.569 194.296 235.55 194.296C233.074 194.296 231.133 195.777 229.725 198.738C228.317 201.65 227.613 205.218 227.613 209.441C227.613 210.945 227.735 212.475 227.977 214.028Z" fill="white"/>
<path d="M252.901 219.124H253.92C254.26 221.309 255.328 223.396 257.124 225.386C258.968 227.376 261.055 228.978 263.385 230.192C265.764 231.357 267.827 231.939 269.574 231.939C271.758 231.939 272.85 231.017 272.85 229.172C272.85 228.201 272.535 227.158 271.904 226.041C271.273 224.876 270.254 223.784 268.846 222.765L267.608 221.891C264.307 219.416 261.589 217.328 259.453 215.63C257.366 213.882 255.497 211.989 253.847 209.95C252.245 207.912 251.444 205.994 251.444 204.198C251.444 201.917 252.173 199.951 253.629 198.301C255.133 196.602 257.124 195.316 259.599 194.442C262.123 193.568 264.938 193.131 268.045 193.131C269.453 193.131 270.836 193.301 272.195 193.641C273.603 193.932 275.132 194.345 276.782 194.879C278.869 195.51 280.253 195.825 280.932 195.825C281.563 195.825 282.025 195.68 282.316 195.388C282.607 195.049 282.753 194.515 282.753 193.787H283.772V206.092H282.753C282.753 204.053 282.073 202.184 280.714 200.485C279.403 198.738 277.777 197.379 275.836 196.408C273.943 195.388 272.171 194.879 270.521 194.879C269.356 194.879 268.409 195.17 267.681 195.753C267.001 196.286 266.662 197.112 266.662 198.228C266.662 199.781 267.099 201.213 267.972 202.524C268.895 203.834 269.987 204.975 271.249 205.946C272.559 206.917 274.355 208.154 276.637 209.659C279.064 211.212 280.981 212.547 282.389 213.664C283.796 214.732 284.985 216.018 285.956 217.523C286.976 219.027 287.485 220.702 287.485 222.547C287.485 224.488 286.879 226.284 285.665 227.934C284.5 229.536 282.704 230.847 280.277 231.866C277.899 232.837 274.938 233.322 271.394 233.322C270.423 233.322 269.695 233.298 269.21 233.25C268.433 233.201 267.438 233.104 266.225 232.958C265.06 232.813 264.186 232.716 263.604 232.667C260.74 232.23 258.531 232.012 256.978 232.012C255.619 232.012 254.745 232.449 254.357 233.322H252.901V219.124Z" fill="white"/>
<path d="M288.225 219.124H289.244C289.584 221.309 290.652 223.396 292.448 225.386C294.292 227.376 296.379 228.978 298.709 230.192C301.088 231.357 303.151 231.939 304.898 231.939C307.082 231.939 308.175 231.017 308.175 229.172C308.175 228.201 307.859 227.158 307.228 226.041C306.597 224.876 305.578 223.784 304.17 222.765L302.932 221.891C299.632 219.416 296.913 217.328 294.778 215.63C292.69 213.882 290.822 211.989 289.171 209.95C287.569 207.912 286.769 205.994 286.769 204.198C286.769 201.917 287.497 199.951 288.953 198.301C290.458 196.602 292.448 195.316 294.923 194.442C297.447 193.568 300.263 193.131 303.369 193.131C304.777 193.131 306.16 193.301 307.519 193.641C308.927 193.932 310.456 194.345 312.106 194.879C314.194 195.51 315.577 195.825 316.257 195.825C316.888 195.825 317.349 195.68 317.64 195.388C317.931 195.049 318.077 194.515 318.077 193.787H319.096V206.092H318.077C318.077 204.053 317.397 202.184 316.038 200.485C314.728 198.738 313.101 197.379 311.16 196.408C309.267 195.388 307.495 194.879 305.845 194.879C304.68 194.879 303.733 195.17 303.005 195.753C302.326 196.286 301.986 197.112 301.986 198.228C301.986 199.781 302.423 201.213 303.296 202.524C304.219 203.834 305.311 204.975 306.573 205.946C307.883 206.917 309.679 208.154 311.961 209.659C314.388 211.212 316.305 212.547 317.713 213.664C319.12 214.732 320.31 216.018 321.28 217.523C322.3 219.027 322.809 220.702 322.809 222.547C322.809 224.488 322.203 226.284 320.989 227.934C319.824 229.536 318.028 230.847 315.601 231.866C313.223 232.837 310.262 233.322 306.718 233.322C305.748 233.322 305.02 233.298 304.534 233.25C303.757 233.201 302.762 233.104 301.549 232.958C300.384 232.813 299.51 232.716 298.928 232.667C296.064 232.23 293.855 232.012 292.302 232.012C290.943 232.012 290.069 232.449 289.681 233.322H288.225V219.124Z" fill="white"/>
<path d="M82.6889 261.573C78.563 261.573 74.7284 260.869 71.185 259.461C67.6901 258.053 64.6078 256.33 61.9381 254.292C59.317 252.301 56.1862 249.68 52.5457 246.428C49.5362 243.71 47.0607 241.598 45.1191 240.094C43.1775 238.589 41.066 237.327 38.7846 236.308C36.5518 235.288 34.1976 234.779 31.7221 234.779C30.1203 234.779 28.834 235.313 27.8632 236.38C26.8924 237.497 26.407 238.783 26.407 240.239C26.407 241.21 26.6497 242.084 27.1351 242.86C27.669 243.686 28.4456 244.317 29.465 244.754C28.834 246.21 27.5234 246.938 25.5332 246.938C23.9314 246.938 22.451 246.452 21.0918 245.482C19.7813 244.511 19.126 243.273 19.126 241.768C19.126 239.147 20.4123 237.011 22.9849 235.361C25.5575 233.759 28.8825 232.91 32.9598 232.813C33.4452 232.376 33.8336 231.915 34.1248 231.429C35.2898 229.585 35.8722 227.158 35.8722 224.148V191.966C35.8722 189.2 35.2898 187.112 34.1248 185.705C32.9598 184.249 31.4308 183.52 29.5378 183.52C27.4506 183.52 25.2905 184.37 23.0577 186.069C20.8249 187.768 18.9561 190.195 17.4514 193.35C15.9952 196.456 15.2671 200.024 15.2671 204.053C15.2671 206.723 15.6068 208.98 16.2864 210.824C16.966 212.62 17.7911 213.955 18.7619 214.829C19.7327 215.702 20.7035 216.139 21.6743 216.139C22.4024 216.139 22.9849 215.897 23.4218 215.411C23.9072 214.926 24.1499 214.246 24.1499 213.372C24.1499 212.499 23.8829 211.674 23.349 210.897C22.8636 210.072 22.0384 209.586 20.8734 209.441C20.8734 208.519 21.3831 207.621 22.4024 206.747C23.4218 205.825 24.5867 205.363 25.8973 205.363C27.6933 205.363 29.1009 205.849 30.1203 206.82C31.1396 207.742 31.6493 208.907 31.6493 210.314C31.6493 211.479 31.261 212.62 30.4843 213.737C29.7562 214.853 28.6398 215.775 27.1351 216.503C25.6303 217.183 23.8101 217.523 21.6743 217.523C17.5484 217.523 13.9808 216.746 10.9713 215.193C8.01035 213.591 5.75325 211.504 4.19998 208.931C2.69524 206.31 1.94287 203.519 1.94287 200.558C1.94287 197.306 2.86513 194.296 4.70964 191.53C6.6027 188.763 9.5879 186.53 13.6652 184.831C17.7426 183.084 22.9121 182.21 29.1737 182.21H73.0052L73.7333 193.495H72.2043C71.4277 191.408 70.6996 189.806 70.02 188.69C69.0007 187.04 67.9814 185.923 66.962 185.341C65.9427 184.71 64.7292 184.394 63.3215 184.394H57.5696C55.9677 184.394 54.8756 185.098 54.2931 186.506C53.7106 187.913 53.4194 189.539 53.4194 191.384V204.781H58.5161C60.3606 204.781 61.744 204.708 62.6662 204.563C63.637 204.417 64.3651 204.126 64.8505 203.689C65.3845 203.203 65.7485 202.475 65.9427 201.504C66.1368 200.679 66.2582 199.903 66.3067 199.175H67.3989V213.3H66.3067C66.2582 212.572 66.1368 211.746 65.9427 210.824C65.7 209.853 65.3117 209.15 64.7777 208.713C64.2923 208.276 63.5885 208.009 62.6662 207.912C61.7925 207.766 60.4091 207.693 58.5161 207.693H53.4194V224.148C53.4194 225.993 53.7106 227.619 54.2931 229.027C54.8756 230.434 55.9677 231.138 57.5696 231.138L53.3466 233.322C55.5794 233.953 57.6181 234.924 59.4626 236.235C60.9673 237.303 62.6662 238.637 64.5593 240.239C66.5009 241.841 67.7387 242.86 68.2726 243.297C71.6704 246.21 74.5342 248.564 76.8642 250.36C79.2426 252.204 81.6939 253.758 84.2179 255.02C86.7906 256.282 89.2176 256.913 91.4989 256.913C94.4599 256.913 96.9597 256.476 98.9983 255.602C101.037 254.728 102.542 253.588 103.513 252.18C104.483 250.772 104.969 249.268 104.969 247.666C104.969 245.918 104.411 244.414 103.294 243.152C102.226 241.938 100.794 241.331 98.9983 241.331C97.979 241.331 97.1781 241.598 96.5956 242.132C96.0131 242.715 95.7219 243.37 95.7219 244.098C95.7219 244.778 95.9403 245.36 96.3772 245.846C96.8626 246.331 97.5421 246.598 98.4159 246.647C98.3673 247.229 98.0033 247.836 97.3237 248.467C96.6442 249.098 95.7462 249.413 94.6298 249.413C92.7852 249.413 91.3776 248.855 90.4068 247.739C89.4845 246.671 89.0234 245.457 89.0234 244.098C89.0234 242.448 89.7272 241.016 91.1349 239.802C92.5911 238.637 94.5084 238.055 96.8869 238.055C100.042 238.055 102.517 238.88 104.313 240.531C106.109 242.229 107.007 244.292 107.007 246.719C107.007 249.146 106.134 251.476 104.386 253.709C102.639 255.99 99.9206 257.859 96.2316 259.315C92.5911 260.82 88.0769 261.573 82.6889 261.573Z" fill="white"/>
</svg>
