<svg width="109" height="183" viewBox="0 0 109 183" fill="none" xmlns="http://www.w3.org/2000/svg">
<g clip-path="url(#clip0_1030_1372)">
<path d="M76.2861 28.2239C83.3534 28.6872 89.3754 24.441 91.1925 17.7157C92.9521 11.2198 89.8165 4.46109 83.7034 1.4185C82.3849 0.764125 80.9225 0.601726 79.604 -0.00488281H74.5793C74.1957 0.64949 73.4573 0.553961 72.8772 0.759349C66.3566 3.05204 62.4825 9.47636 63.4798 16.4022C64.3716 22.5925 70.0244 27.8131 76.2766 28.2239H76.2861ZM77.4368 5.35907C82.3321 5.33518 86.3787 9.35218 86.3308 14.2003C86.2828 19.0102 82.3273 22.8982 77.4848 22.8886C72.6135 22.8838 68.7443 19.0197 68.7299 14.1573C68.7155 9.31396 72.6087 5.38295 77.4368 5.35907Z" fill="black"/>
<path d="M108.967 48.6195C108.904 42.1951 104.911 36.9076 98.7735 35.0257C95.983 34.1707 93.1734 33.3778 90.3638 32.5945C87.2521 31.7252 84.476 32.3652 82.0404 34.5051C78.8856 37.2802 76.167 37.2706 72.993 34.5051C70.4998 32.3318 67.6662 31.7204 64.4874 32.6327C62.0278 33.3396 59.5634 34.0418 57.099 34.7343C50.1181 36.7022 46.1098 41.8895 46.0523 49.1353C46.0139 53.8974 46.0427 58.6596 46.0427 63.4265C46.0427 70.6914 46.0091 77.9564 46.0571 85.2166C46.105 92.3049 49.8112 97.2532 56.6291 99.3788C57.4682 99.6415 57.7031 100.019 57.7319 100.864C58.5613 122.459 59.41 144.053 60.297 165.642C60.3641 167.238 60.2826 168.599 59.0839 169.865C58.0004 171.011 57.6312 172.578 57.6024 174.164C57.564 176.127 57.5257 178.095 57.5832 180.058C57.6408 182.026 58.6332 182.971 60.6374 182.976C71.8759 182.99 83.1096 182.99 94.3481 182.976C96.4097 182.976 97.4166 181.973 97.4693 179.905C97.5173 178.118 97.5173 176.332 97.4646 174.546C97.407 172.592 96.87 170.758 95.5275 169.301C94.8132 168.527 94.6118 167.754 94.6549 166.741C95.0529 157.403 95.4029 148.065 95.7721 138.722C96.2707 126.17 96.7741 113.617 97.2584 101.07C97.292 100.248 97.3543 99.6797 98.3611 99.3692C105.241 97.2389 108.957 92.1854 108.976 85.0542C108.996 79.1601 108.976 73.2659 108.976 67.3718C108.976 61.1194 109.024 54.8671 108.962 48.6147L108.967 48.6195ZM57.3099 93.8858C56.8209 94.1056 56.3223 93.6088 55.8716 93.3413C53.038 91.6457 51.4893 89.1428 51.4558 85.8566C51.3934 79.4849 51.4558 73.1083 51.4078 66.7365C51.3982 65.6618 51.8297 65.4899 52.7791 65.4755C57.5736 65.3896 57.5688 65.3609 57.5688 70.0991C57.5688 73.3758 57.5688 76.6524 57.5688 79.9291C57.5688 84.0989 57.5784 88.2688 57.5545 92.4386C57.5545 92.9306 57.8853 93.6327 57.3051 93.8906L57.3099 93.8858ZM74.4985 177.378C73.7122 178.133 71.6697 177.593 70.1834 177.627C69.7039 177.636 69.2293 177.627 68.7498 177.627C67.2587 177.627 65.758 177.541 64.2717 177.655C63.1018 177.746 62.9244 177.292 62.9244 176.251C62.9244 172.325 63.6628 171.541 67.5991 171.541C69.5697 171.541 71.5403 171.584 73.5108 171.522C74.4602 171.494 74.9732 171.67 74.8533 172.769C74.6855 174.345 75.5102 176.399 74.4937 177.383L74.4985 177.378ZM77.3657 106.066C75.9225 106.142 75.0547 106.949 74.8869 108.397C74.815 109.046 74.8437 109.705 74.8437 110.36C74.8437 128.348 74.8245 146.336 74.8773 164.319C74.8773 165.743 74.6376 166.335 73.0649 166.211C71.1615 166.058 69.2341 166.087 67.3306 166.206C66.0121 166.287 65.6429 165.924 65.5998 164.568C65.2737 154.389 64.847 144.215 64.4539 134.041C64.4395 133.683 64.4155 133.33 64.3963 132.972H64.3819C63.96 122.502 63.5573 112.027 63.0874 101.557C63.0299 100.243 63.3175 99.8707 64.6984 99.8803C73.2471 99.9519 81.7959 99.9424 90.3446 99.8898C91.572 99.8803 91.9556 100.143 91.898 101.442C91.011 122.626 90.1624 143.809 89.3521 164.993C89.309 166.087 88.887 166.225 87.9665 166.196C85.9336 166.139 83.8959 166.091 81.8726 166.211C80.5637 166.287 80.1657 165.958 80.1849 164.582C80.2712 158.506 80.2232 152.431 80.2232 146.355C80.2232 134.266 80.2232 122.172 80.2184 110.083C80.2184 109.433 80.2328 108.76 80.089 108.129C79.7677 106.72 78.8184 105.989 77.3657 106.066ZM89.6686 177.627C88.4747 177.627 87.2809 177.627 86.087 177.627C84.5336 177.627 82.9801 177.584 81.4315 177.641C80.5493 177.674 80.1369 177.488 80.2041 176.495C80.3143 174.904 79.715 172.869 80.4965 171.842C81.2397 170.863 83.3973 171.613 84.9315 171.551C86.1254 171.503 87.3192 171.527 88.5131 171.546C90.8912 171.58 92.0083 172.669 92.0994 175.023C92.1665 176.762 91.3563 177.631 89.6686 177.631V177.627ZM97.4741 51.7576C97.4118 49.8852 96.2611 48.6481 94.6885 48.6911C93.1638 48.7341 92.1186 49.9091 92.1138 51.7242C92.0898 57.2027 92.0898 62.6766 92.1138 68.1551C92.1234 70.08 93.0344 71.1309 94.6405 71.193C96.3091 71.2598 97.3783 70.1469 97.4885 68.2316C97.5908 66.4006 98.5449 65.4851 100.351 65.4851C102.521 65.4851 103.606 66.5709 103.606 68.7426C103.606 74.3406 103.635 79.9339 103.597 85.5319C103.568 89.5871 101.247 92.7968 97.4885 93.9432C97.4885 89.63 97.4885 85.3647 97.4885 81.1041C97.4885 80.4545 97.5365 79.8049 97.2824 79.1648C96.7406 77.8083 95.7337 77.2065 94.3241 77.4358C92.8953 77.665 92.1282 78.5965 92.1234 80.0389C92.0994 84.2661 92.0467 88.4932 92.1474 92.7204C92.1809 94.2011 91.7686 94.5975 90.2775 94.5832C81.7911 94.5116 73.3047 94.5116 64.8183 94.5832C63.3511 94.5975 62.9148 94.2489 62.9244 92.7347C62.9867 79.5183 62.9627 66.3019 62.958 53.0854C62.958 52.5505 62.9819 52.0107 62.9436 51.4806C62.8093 49.8184 61.7114 48.6911 60.2586 48.6911C58.7963 48.6911 57.6504 49.8136 57.6024 51.4806C57.5353 53.8592 57.5353 56.2427 57.6024 58.6261C57.6312 59.7247 57.4202 60.1689 56.1544 60.1689C51.4414 60.1689 51.4414 60.2262 51.4414 55.4641C51.4414 53.2622 51.4126 51.0555 51.451 48.8535C51.5373 44.3254 53.9585 41.2351 58.3264 39.998C60.9059 39.2672 63.4997 38.5842 66.06 37.7865C67.4265 37.3614 68.4813 37.7148 69.5121 38.5889C74.8102 43.0788 80.1993 43.0454 85.6123 38.5077C86.5952 37.6814 87.6261 37.3805 88.9158 37.7722C91.6535 38.5985 94.4392 39.2672 97.1673 40.1126C101.152 41.3449 103.549 44.612 103.597 48.7914C103.635 52.1254 103.578 55.4593 103.626 58.7933C103.64 59.739 103.467 60.1259 102.379 60.1546C97.4885 60.2836 97.4885 60.3265 97.4885 55.5023C97.4885 54.2509 97.5173 52.9995 97.4789 51.7528L97.4741 51.7576Z" fill="black"/>
<path d="M48.5593 177.636C46.1093 177.612 43.6592 177.641 41.2092 177.617C40.7729 177.617 40.2359 177.846 39.9386 177.269C38.716 174.885 40.6866 171.589 43.3955 171.546C45.2462 171.513 47.1017 171.585 48.9524 171.522C50.6305 171.46 51.6854 170.357 51.6758 168.829C51.6662 167.305 50.597 166.244 48.9093 166.192C47.236 166.144 45.5627 166.135 43.8894 166.192C43.0072 166.225 42.638 166.034 42.6284 165.041C42.5996 162.543 42.4174 160.045 42.3119 157.547C41.6407 142.08 40.9743 126.614 40.3078 111.153C39.6222 96.752 40.0297 82.3414 39.9195 67.9309C39.8955 64.4202 39.9386 60.9047 39.9003 57.3893C39.8811 55.5933 38.7783 54.4231 37.2489 54.4231C35.729 54.4231 34.6214 55.5981 34.5495 57.3797C34.4968 58.6885 34.5351 59.9972 34.5351 61.3107C34.5351 66.0251 34.5351 66.0012 29.7454 65.8961C28.8008 65.877 28.3597 65.7194 28.3789 64.6304C28.446 61.177 28.3405 57.7236 28.4268 54.2703C28.5275 50.1052 31.083 46.9241 35.0865 45.7634C36.1749 45.4482 37.2872 45.1998 38.342 44.8081C39.814 44.2636 40.4948 42.9166 40.1064 41.5362C39.7277 40.1988 38.366 39.3916 36.8557 39.7021C35.868 39.9027 34.8995 40.2275 33.931 40.5141C26.9645 42.5775 23.0425 47.7695 23.0329 55.0345C23.0138 66.9422 23.0138 78.8546 23.0329 90.7623C23.0473 97.9222 26.7535 102.933 33.6338 105.101C34.4488 105.359 34.7701 105.713 34.7605 106.582C34.7413 108.187 34.8372 109.796 34.9091 111.401C35.7002 129.485 36.4817 147.564 37.3064 165.647C37.3783 167.238 37.3208 168.633 36.0742 169.865C35.2783 170.653 34.9331 171.799 34.7509 172.936C34.3529 175.425 34.4968 177.932 34.5975 180.421C34.6694 182.112 35.7961 182.962 37.6516 182.972C41.2955 182.995 44.9442 182.995 48.5881 182.972C50.549 182.957 51.6901 181.935 51.6854 180.287C51.6854 178.644 50.5347 177.641 48.5689 177.622L48.5593 177.636ZM34.5303 97.8935V99.6704C30.9728 98.6769 28.494 95.5292 28.4364 91.6555C28.3357 85.2312 28.4173 78.8069 28.3885 72.3825C28.3885 71.5562 28.6138 71.1359 29.496 71.241C29.6159 71.2553 29.7358 71.241 29.8556 71.241C32.9753 71.1741 34.5351 72.6819 34.5351 75.7643V97.8935H34.5303Z" fill="black"/>
<path d="M29.9706 138.765C29.8939 138.765 29.8172 138.765 29.7405 138.765C29.7405 136.864 29.8076 134.959 29.7309 133.058C29.448 126.041 29.1028 119.024 28.8103 112.008C28.7576 110.723 28.3404 109.739 27.1897 109.042C19.9931 104.7 16.7999 98.2326 16.8814 89.9454C16.9629 81.6105 16.9006 73.2756 16.9006 64.9407C16.9006 64.4631 16.9006 63.9902 16.9006 63.5126C16.8766 61.4109 15.9129 60.1834 14.2779 60.1595C12.643 60.1356 11.5354 61.4109 11.5306 63.4362C11.5163 72.9031 11.3868 82.37 11.5738 91.8321C11.7416 100.387 15.4334 107.279 22.4239 112.328C23.1575 112.858 23.5507 113.393 23.589 114.344C24.2746 130.76 24.9938 147.172 25.7322 163.584C25.7705 164.41 25.5068 165.074 25.1425 165.767C22.678 170.462 22.8938 175.544 23.1143 180.602C23.1815 182.078 24.2555 182.933 25.7849 182.967C27.2089 183 28.3165 181.902 28.3788 180.344C28.4507 178.501 28.3932 176.652 28.4172 174.809C28.4507 172.21 28.9829 169.722 30.3494 167.486C31.0062 166.412 31.2028 165.327 31.1405 164.095C30.7329 155.65 30.3638 147.205 29.9802 138.765H29.9706Z" fill="black"/>
<path d="M18.6601 142.911C18.2142 132.847 17.8594 125.472 17.5765 118.097C17.5285 116.851 17.0299 115.977 16.1429 115.174C8.82637 108.549 5.34551 100.262 5.39345 90.4514C5.41263 86.1669 5.40784 81.8777 5.39345 77.5932C5.38386 75.7591 4.5592 74.7178 3.06329 74.5363C1.32285 74.3213 0.0427004 75.5919 0.0331112 77.6553C0.00434371 82.1213 -0.00524545 86.5873 0.0331112 91.0532C0.114619 101.538 3.7633 110.551 11.2812 117.949C11.9045 118.561 12.2353 119.177 12.2737 120.099C12.8346 133.779 13.4436 147.458 14.0429 161.133C14.0764 161.855 14.0045 162.523 13.7168 163.216C11.4298 168.69 11.3819 174.464 11.5497 180.249C11.5976 181.916 12.7867 183.005 14.2682 182.986C15.7545 182.971 16.8141 181.853 16.8957 180.187C16.9292 179.475 16.9244 178.758 16.9004 178.042C16.7662 173.184 17.1258 168.417 19.245 163.927C19.5806 163.221 19.4847 162.413 19.4512 161.635C19.1443 154.499 18.8518 147.363 18.6649 142.916L18.6601 142.911Z" fill="black"/>
<path d="M46.0328 30.9467C47.3801 30.4643 47.9363 29.38 47.7061 27.9614C47.639 27.5554 47.4664 27.1685 47.3274 26.7769C45.678 21.9861 48.6938 17.1858 53.7521 16.8753C55.9336 16.7416 56.9789 15.2465 56.8974 13.9712C56.7919 12.2756 55.3727 11.3203 53.2343 11.4827C46.6513 11.9747 41.5211 17.4915 41.4972 24.5654C41.4109 26.0461 41.8424 27.8946 42.7102 29.6189C43.391 30.9706 44.604 31.453 46.0232 30.9467H46.0328Z" fill="black"/>
</g>
<defs>
<clipPath id="clip0_1030_1372">
<rect width="109" height="183" fill="white"/>
</clipPath>
</defs>
</svg>
