<svg width="104" height="95" viewBox="0 0 104 95" fill="none" xmlns="http://www.w3.org/2000/svg">
<path d="M16.893 73.8315C9.79165 66.3866 3.72171 58.2891 0.854177 48.2056C-0.0943557 44.8574 -0.25542 41.3354 0.383563 37.9147C1.02255 34.494 2.44421 31.2673 4.53759 28.4867C6.63096 25.7061 9.33943 23.447 12.4511 21.8858C15.5627 20.3247 18.9933 19.5038 22.4749 19.4873C30.3216 19.4225 36.3512 22.7348 41.0815 28.7824C41.4045 29.2326 41.7598 29.6588 42.1447 30.0575C42.5057 30.4584 42.9486 30.7772 43.4434 30.9924C43.9381 31.2075 44.4733 31.3141 45.0128 31.3048C45.5523 31.2955 46.0837 31.1707 46.5708 30.9386C47.0578 30.7066 47.4892 30.3728 47.8362 29.9598C49.1419 28.5783 50.1893 26.9716 51.6066 25.6858C57.9222 19.9474 65.2806 18.0623 73.442 20.3725C81.5226 22.6625 86.7323 28.0842 89.0714 36.1891C88.4548 41.7744 86.22 46.7816 83.5279 51.622C79.6242 58.5344 74.2215 64.4854 67.7162 69.0384C61.2109 73.5914 53.7683 76.6307 45.9343 77.9334C43.039 78.4063 40.1089 78.6335 37.1753 78.6124C31.0939 78.5612 25.074 77.3874 19.4192 75.1503C18.5303 74.7858 17.8105 74.1333 16.893 73.8315Z" fill="#EFB519"/>
<path d="M16.8984 73.8314C17.4126 73.78 17.9314 73.8627 18.404 74.0715C23.6193 76.3115 29.1916 77.6069 34.8607 77.8971C43.6882 78.478 52.5111 76.6979 60.4219 72.74C70.3196 67.8673 78.4359 60.0104 83.6247 50.2787C85.8295 46.2403 87.4545 41.9117 88.4518 37.4205C88.5497 36.971 88.5995 36.4641 89.0759 36.1868C90.4118 41.0778 90.1131 46.271 88.2252 50.9768C85.3258 58.9319 80.4734 65.6415 74.9063 71.8952C68.3919 79.3816 60.8144 85.873 52.4157 91.1622C50.8933 92.0914 49.3012 92.9011 47.6535 93.584C46.797 93.954 45.8732 94.1433 44.9401 94.14C44.007 94.1367 43.0847 93.9409 42.2309 93.5649C38.0668 91.7002 34.1636 89.3015 30.6195 86.4291C25.8816 82.8331 21.4629 78.8351 17.4129 74.4796C17.2173 74.2819 17.0675 74.0481 16.8984 73.8314Z" fill="#C49006"/>
<path d="M63.5934 0.897217C65.8261 2.61659 66.0898 5.17866 66.4503 7.68015C66.5198 8.38921 66.5357 9.1025 66.498 9.81396C66.481 11.1954 66.7501 12.4355 68.11 13.1263C69.4922 13.8287 70.6308 13.2527 71.6813 12.3527C71.8732 12.3076 72.0721 12.3015 72.2664 12.3345C72.4607 12.3675 72.6466 12.4391 72.8128 12.545C74.5685 13.3995 76.5883 13.5363 78.4433 12.9264C80.2983 12.3164 81.8424 11.0078 82.7476 9.27839C82.9709 8.83101 83.1027 8.27099 83.8108 8.42082C85.0867 11.7299 84.2776 14.309 81.308 16.2282C80.4983 16.7282 79.656 17.1738 78.787 17.5618C78.3595 17.7815 77.8879 17.9019 77.4073 17.9139C76.9268 17.9258 76.4497 17.8291 76.0118 17.6309C71.5292 15.5056 66.8905 15.8998 62.2495 16.8169C56.5489 17.957 51.4305 21.0636 47.7895 25.5933C47.6653 25.8051 47.4983 25.9885 47.2989 26.1318C47.0994 26.275 46.8719 26.3749 46.6315 26.4249C46.3911 26.475 46.1429 26.4741 45.9029 26.4224C45.6628 26.3707 45.4363 26.2693 45.2378 26.1247C43.8189 25.4127 42.4762 24.5581 41.2305 23.5743C41.4208 22.5053 42.3021 22.8644 42.9177 22.8198C43.3239 22.8454 43.7309 22.783 44.1107 22.6369C44.4906 22.4907 44.8343 22.2643 45.1184 21.9731C45.4026 21.6818 45.6204 21.3327 45.757 20.9495C45.8936 20.5663 45.9455 20.1582 45.9096 19.753C46.0122 18.5242 45.6482 17.3018 44.89 16.3291C44.7932 16.2048 44.7018 16.0773 44.6019 15.9551C44.3467 15.6458 44.0852 15.3238 44.2468 14.8924C44.4445 14.3738 44.9261 14.6639 45.2781 14.5736C46.6415 14.8518 47.8989 15.5085 48.9059 16.4683C49.3594 16.9111 49.8849 17.2734 50.4603 17.5395C50.8604 17.7155 51.2985 17.7881 51.734 17.7505C52.1695 17.713 52.5887 17.5666 52.9527 17.3248C53.3168 17.0829 53.6141 16.7534 53.8174 16.3666C54.0207 15.9798 54.1231 15.5481 54.1157 15.1113C54.1263 13.8138 53.9479 12.5163 53.8522 11.2188C53.9952 11.0496 54.1959 10.9394 54.4155 10.9096C54.635 10.8798 54.8578 10.9324 55.0408 11.0573C59.4096 13.4738 62.4185 10.1073 63.049 6.38159C63.3085 5.09781 63.3397 3.77839 63.1414 2.48376C63.0372 1.93012 62.932 1.28084 63.5934 0.897217Z" fill="#E22006"/>
<path d="M63.5957 0.896081C63.6807 2.77486 64.0954 4.6462 63.619 6.53666C63.3477 8.09682 62.6521 9.55229 61.6084 10.7437C60.8252 11.6501 59.7445 12.2479 58.5601 12.4298C57.3758 12.6117 56.1655 12.3658 55.1462 11.7362C54.7336 11.5237 54.3763 11.1603 53.8522 11.2198C53.4758 8.20291 53.6396 5.28379 55.4769 2.6941C56.3577 1.43101 57.6813 0.545032 59.1852 0.211965C60.6891 -0.121101 62.2635 0.123089 63.5957 0.896081Z" fill="#EF5A28"/>
<path d="M83.8109 8.42081C83.0007 9.93935 82.3511 11.5089 80.719 12.4897C78.7619 13.6381 76.4761 14.0976 74.227 13.7947C73.261 13.561 72.3796 13.0619 71.6826 12.3537C73.3828 10.1559 75.4359 8.25491 77.758 6.728C78.0874 6.50747 78.4284 6.30491 78.7797 6.12123C81.5069 4.6877 83.0485 5.39224 83.8109 8.42081Z" fill="#EF5A28"/>
<path d="M45.2753 14.5757C44.6171 14.7712 44.3588 14.9689 44.9967 15.6182C45.7316 16.3445 46.2347 17.272 46.4428 18.2838C46.651 19.2955 46.5546 20.3462 46.1661 21.3034C45.9726 21.955 45.5587 22.5192 44.9952 22.8996C44.4316 23.2801 43.7534 23.4532 43.0764 23.3894C42.4618 23.3894 41.8111 23.1896 41.2274 23.57C39.8197 22.315 38.3301 21.0792 39.034 18.8678C39.3976 17.6636 40.1094 16.5937 41.08 15.793C42.0505 14.9922 43.2365 14.4962 44.4885 14.3674C44.7591 14.4 45.0239 14.4702 45.2753 14.5757Z" fill="#EF5A28"/>
<path d="M91.7317 43.1059C91.6647 41.2888 91.3904 39.4844 91.4648 37.6587C91.5042 36.7321 91.7977 36.4399 92.7801 36.5631C95.6009 36.9127 98.3545 37.3708 100.582 39.3462C100.727 39.4769 100.853 39.6321 100.986 39.7713C101.048 40.7712 100.233 41.2218 99.6454 41.75C97.6008 43.583 95.1235 43.8753 92.5154 43.5979C92.2018 43.5377 91.9221 43.3621 91.7317 43.1059Z" fill="#CA795B"/>
<path d="M91.7317 43.1058C93.2674 43.1872 94.8077 43.116 96.3293 42.8933C98.2804 42.4151 99.5954 41.0485 100.989 39.7722C102.116 40.6025 102.909 41.8089 103.222 43.1727C103.435 43.8868 103.201 44.2609 102.508 44.3416C101.019 44.5064 99.5306 44.6913 98.0293 44.7667C96.4876 44.84 94.9397 44.7975 93.3938 44.7954C91.7936 44.7837 91.7264 44.7125 91.7317 43.1058Z" fill="#AF5B3C"/>
<path d="M76.9679 36.1942C76.9492 36.9236 76.7153 37.6311 76.2954 38.2279C75.8754 38.8247 75.2883 39.2841 74.6078 39.5483C73.9274 39.8126 73.1839 39.8699 72.471 39.713C71.7581 39.5562 71.1075 39.1922 70.601 38.6669C70.0945 38.1415 69.7546 37.4782 69.6242 36.7603C69.4938 36.0425 69.5788 35.3021 69.8682 34.6323C70.1576 33.9625 70.6387 33.3932 71.251 32.9959C71.8633 32.5986 72.5795 32.3911 73.3094 32.3995C73.8054 32.3862 74.2985 32.4764 74.7576 32.6642C75.2167 32.8521 75.6316 33.1335 75.9758 33.4906C76.3201 33.8476 76.5861 34.2724 76.7569 34.7379C76.9277 35.2034 76.9996 35.6994 76.9679 36.1942Z" fill="#0B7F7C"/>
</svg>
