<svg width="112" height="40" viewBox="0 0 112 40" fill="none" xmlns="http://www.w3.org/2000/svg">
<path d="M34.1666 3.33341V6.70008C30.2999 3.55008 25.3666 1.66675 19.9999 1.66675C14.6333 1.66675 9.69992 3.55008 5.83325 6.70008V3.33341H3.33325V11.6667H11.6666V9.16675H6.81659C10.3333 6.06675 14.9499 4.16675 19.9999 4.16675C25.0499 4.16675 29.6499 6.06675 33.1833 9.16675H28.3333V11.6667H36.6666V3.33341H34.1666Z" fill="#414141"/>
<path d="M31.4833 22.9501L25.1499 20.1667C24.9333 20.0667 24.6833 20.0001 24.4166 20.0001H23.3333V12.7167C23.3333 10.5167 21.7333 8.55008 19.5499 8.35008C17.0833 8.13341 14.9999 10.0834 14.9999 12.5001V26.0834L11.8833 25.4167C11.5666 25.3667 10.1833 25.1667 8.99992 26.3501L6.66659 28.7001L15.1999 37.3501C15.8166 37.9834 16.6666 38.3334 17.5499 38.3334H28.4666C30.0999 38.3334 31.4833 37.1667 31.7499 35.5501L33.2833 26.4834C33.5333 25.0501 32.7999 23.6167 31.4833 22.9501ZM29.9999 25.9334L28.4666 35.0001H17.5499L11.3833 28.7001L18.3333 30.1834V12.5001C18.3333 12.0334 18.6999 11.6667 19.1666 11.6667C19.6333 11.6667 19.9999 12.0334 19.9999 12.5001V22.8001H22.9333L29.9999 25.9334Z" fill="#414141"/>
<path d="M62.472 23.96C62.472 26.96 60.072 29.24 55.896 29.24C51.744 29.24 49.224 26.96 49.008 23.528H51.696C51.816 25.712 53.208 27.128 55.848 27.128C58.032 27.128 59.664 26.096 59.664 24.32C59.664 22.88 58.728 22.16 56.736 21.728L54.24 21.248C51.816 20.768 49.608 19.544 49.608 16.616C49.608 13.712 52.152 11.528 55.728 11.528C59.304 11.528 62.016 13.712 62.232 17.144H59.544C59.4 15.08 57.912 13.64 55.752 13.64C53.52 13.64 52.296 14.96 52.296 16.448C52.296 18.08 53.712 18.656 55.32 18.992L57.864 19.496C60.816 20.096 62.472 21.392 62.472 23.96ZM70.3523 29.264C66.8723 29.264 64.4243 26.528 64.4243 22.64C64.4243 18.8 66.9203 16.04 70.3523 16.04C73.4963 16.04 75.7762 18.128 76.2323 21.44H73.6883C73.4243 19.4 72.1523 18.176 70.3763 18.176C68.2883 18.176 66.9203 19.952 66.9203 22.64C66.9203 25.352 68.2883 27.104 70.3763 27.104C72.1763 27.104 73.4243 25.904 73.7123 23.84H76.2323C75.8003 27.2 73.5443 29.264 70.3523 29.264ZM81.0962 22.496V29H78.6722V16.28H80.9282V18.968C81.8162 17.216 83.7362 16.112 85.8242 16.112V18.632C83.0882 18.488 81.0962 19.688 81.0962 22.496ZM93.0236 29.24C89.4236 29.24 86.7836 26.408 86.7836 22.64C86.7836 18.872 89.4236 16.04 93.0236 16.04C96.6236 16.04 99.2636 18.872 99.2636 22.64C99.2636 26.408 96.6236 29.24 93.0236 29.24ZM93.0236 27.104C95.1116 27.104 96.7676 25.424 96.7676 22.64C96.7676 19.856 95.1116 18.2 93.0236 18.2C90.9356 18.2 89.3036 19.856 89.3036 22.64C89.3036 25.424 90.9356 27.104 93.0236 27.104ZM104.183 29H101.735V11.768H104.183V29ZM109.995 29H107.547V11.768H109.995V29Z" fill="#414141"/>
</svg>
