<svg width="158" height="158" viewBox="0 0 158 158" fill="none" xmlns="http://www.w3.org/2000/svg">
<g clip-path="url(#clip0_1030_1379)">
<path d="M156.339 147.908C144.101 135.572 131.905 123.199 119.698 110.833C116.447 107.541 113.188 104.256 109.96 100.945C109.039 99.9974 107.998 99.5689 106.788 100.155C106.198 100.441 105.769 100.625 105.39 99.9974C104.942 99.2532 103.653 99.0991 104.146 97.6783C105.206 94.6076 104.356 91.9314 102.045 89.6838C99.613 87.3196 97.2227 84.9066 94.7534 82.5838C94.013 81.8847 93.7649 81.1743 93.7649 80.1821C93.7875 54.6838 93.7837 29.1855 93.7837 3.68718C93.7837 0.714133 93.1147 0.0263102 90.2057 0.0263102C61.3185 0.0263102 32.4276 0.0375859 3.54043 0C2.04082 0 0.860677 0.323239 0 1.57109V156.459C0.191679 157.293 0.706582 157.808 1.54095 158H92.2428C93.2012 157.737 93.9604 157.192 94.0543 156.166C94.2385 154.136 94.3362 152.091 94.0055 150.062C93.9867 149.96 93.9341 149.938 93.8664 149.998C93.7123 150.133 93.8927 149.803 93.9341 149.911C96.1929 152.178 98.4066 154.373 100.598 156.594C101.218 157.222 101.876 157.756 102.733 158.004H156.414C157.647 157.136 158.135 155.967 157.974 154.459C157.883 153.595 157.876 152.704 157.974 151.84C158.158 150.201 157.47 149.047 156.343 147.908H156.339ZM98.2788 92.8974C99.9851 94.57 100.072 95.333 98.7448 97.2686C97.9217 98.4676 98.0082 99.5915 98.9854 100.618C99.9062 101.584 100.868 102.516 101.857 103.418C102.368 103.884 102.488 104.169 101.906 104.737C95.0841 111.363 88.2889 118.016 81.5087 124.688C80.9563 125.229 80.5729 125.236 80.1707 124.65C77.8142 121.226 74.4655 120.771 70.5943 120.933C64.4869 121.192 58.3607 121.012 52.2457 120.997C50.1485 120.993 48.897 119.764 49.0473 117.937C49.1676 116.501 50.2763 115.449 51.8436 115.415C53.952 115.37 56.0605 115.404 58.1652 115.404C59.9655 115.4 61.7658 115.366 63.5623 115.408C64.9717 115.441 66.3135 115.325 66.9035 113.81C67.456 112.386 66.6367 111.408 65.6595 110.454C54.2903 99.3584 42.9399 88.2443 31.582 77.1376C31.1422 76.7054 30.6687 76.2994 30.2815 75.8221C29.4321 74.7847 29.3495 73.6684 30.1876 72.586C30.9618 71.5862 32.4201 71.3231 33.5288 72.0259C34.1264 72.4055 34.6338 72.943 35.1449 73.4429C43.4548 81.5615 51.7797 89.6688 60.0444 97.8362C60.9465 98.727 61.4351 98.6556 62.1529 97.7573C62.8557 96.8815 64.2651 96.0809 64.2539 95.2616C64.2426 94.4459 62.8632 93.6416 62.0665 92.8485C60.751 91.5481 59.4468 90.2326 58.0863 88.9772C57.5188 88.451 57.3797 88.1052 58.0412 87.5414C59.056 86.6769 59.9317 85.087 60.9803 84.9856C62.074 84.8766 62.9347 86.5792 63.9043 87.4813C65.1822 88.6727 66.4413 89.8868 67.6477 91.1497C68.1739 91.7022 68.4445 91.6345 68.9707 91.1271C71.8647 88.3382 71.8797 88.357 69.0007 85.5343C67.7529 84.3128 66.5277 83.0612 65.2423 81.881C64.6898 81.3736 64.6673 81.0428 65.2273 80.5429C66.2233 79.6559 67.0802 78.1036 68.1513 77.957C69.2713 77.8029 70.102 79.513 71.0679 80.3963C72.2818 81.5051 73.4657 82.6515 74.597 83.8429C75.2359 84.5157 75.6268 84.6811 76.386 83.8993C78.9906 81.2119 79.0244 81.2495 76.3522 78.6335C75.0292 77.3406 73.7288 76.0213 72.3758 74.7584C71.8797 74.2961 71.9098 74.0405 72.3645 73.5444C74.6797 71.0186 75.8786 70.966 78.3366 73.3677C84.989 79.8739 91.6414 86.38 98.2863 92.8936L98.2788 92.8974ZM26.8501 79.3815C28.2595 80.8661 29.7028 82.3207 31.2888 83.9482H28.3685C24.2568 83.9482 20.1451 83.9294 16.0372 83.9632C15.2065 83.9707 14.7706 83.9256 14.7818 82.8582C14.842 76.9985 14.8307 71.1427 14.7931 65.283C14.7856 64.411 15.0261 64.178 15.8943 64.1817C21.7537 64.2193 27.6093 64.2193 33.4687 64.1817C34.3256 64.178 34.6789 64.3847 34.5699 65.2755C34.5023 65.8242 34.5586 66.388 34.5586 67.0195C33.2845 66.8052 32.1382 66.5797 30.9505 66.809C28.0227 67.3803 25.997 69.0454 25.0649 71.8493C24.129 74.672 24.8093 77.2203 26.8539 79.3777L26.8501 79.3815ZM6.32541 4.93503C19.8482 4.98014 33.3672 4.9651 46.89 4.9651C60.4128 4.9651 73.8303 4.98389 87.3005 4.93127C88.5746 4.92752 88.9504 5.20565 88.8828 6.50612C88.7625 8.8139 88.7775 11.1367 88.8828 13.4445C88.9354 14.6021 88.6159 14.869 87.4621 14.8652C65.7159 14.8277 43.9659 14.8352 22.2197 14.8352C16.8715 14.8352 11.5271 14.8089 6.17883 14.8577C5.1791 14.869 4.87842 14.6172 4.91225 13.6023C4.99118 11.1893 5.00621 8.7688 4.90849 6.35578C4.85963 5.19813 5.17534 4.93127 6.32917 4.93503H6.32541ZM4.90849 21.3563C4.90849 20.1423 5.09641 19.7364 6.44192 19.7401C33.4349 19.789 60.4278 19.7777 87.4245 19.7627C88.319 19.7627 88.8865 19.7063 88.8828 20.9767C88.8339 39.2322 88.8489 57.4877 88.8489 75.7432V76.7805C86.2519 74.2397 83.8803 71.9244 81.5163 69.6092C77.5023 65.6777 73.3943 65.6626 69.3991 69.5678C64.547 74.3149 59.6799 79.0432 54.8616 83.8242C54.1024 84.5759 53.7002 84.7563 52.8358 83.888C48.7391 79.7686 44.5673 75.7244 40.3879 71.6914C39.749 71.075 39.4408 70.4736 39.4671 69.5678C39.531 67.151 39.4972 64.7343 39.4859 62.3175C39.4746 60.1826 38.6064 59.273 36.5318 59.2693C28.6128 59.258 20.6938 59.258 12.7786 59.2693C10.7829 59.2693 9.88087 60.1901 9.87712 62.2085C9.86584 70.1278 9.86584 78.0472 9.87712 85.9666C9.87712 87.9699 10.7942 88.8795 12.8049 88.8795C20.209 88.8907 27.6131 88.9095 35.0172 88.8569C36.1447 88.8494 36.9001 89.2027 37.6856 89.977C44.0524 96.2613 50.4605 102.504 56.8648 108.755C57.3421 109.221 57.8721 109.627 58.3757 110.063C58.3268 110.194 58.2817 110.326 58.2329 110.458C56.0643 110.458 53.8919 110.412 51.7233 110.469C48.0852 110.559 45.1273 113.043 44.3831 116.562C43.3646 121.372 46.9013 125.872 51.8323 125.905C58.5148 125.954 65.2047 126.026 71.8834 125.857C74.0483 125.8 75.4652 126.533 76.7393 128.375H65.9113C46.1684 128.375 26.4217 128.363 6.6787 128.401C5.36702 128.401 4.89721 128.198 4.90097 126.713C4.94983 91.5932 4.94607 56.4691 4.91225 21.3488L4.90849 21.3563ZM87.4583 153.095C75.8373 153.046 64.22 153.065 52.599 153.065H46.8937C33.4236 153.065 19.9534 153.046 6.48327 153.099C5.20165 153.103 4.88594 152.806 4.90473 151.52C4.98366 145.863 4.96487 140.207 4.91601 134.554C4.90849 133.543 5.1791 133.295 6.17883 133.299C29.8794 133.329 53.5837 133.325 77.2843 133.306C78.0097 133.306 78.5246 133.509 79.0244 134.035C82.0462 137.192 85.0868 140.331 88.1461 143.45C88.6497 143.962 88.8828 144.469 88.8677 145.202C88.8189 147.359 88.7775 149.524 88.879 151.678C88.9354 152.839 88.6084 153.103 87.4583 153.099V153.095ZM152.971 152.727C152.682 153.441 151.896 153.046 151.355 153.046C143.804 153.076 136.25 153.065 128.699 153.065C121.149 153.065 113.493 153.054 105.89 153.08C105.066 153.08 104.473 152.87 103.875 152.272C97.0047 145.409 90.1719 138.508 83.4255 131.524C82.6926 130.769 82.6363 130.386 83.4255 129.619C91.322 121.966 99.1883 114.288 107.021 106.571C107.739 105.865 108.047 106.011 108.66 106.631C123.19 121.384 137.735 136.121 152.295 150.844C152.851 151.407 153.264 152.009 152.975 152.723L152.971 152.727Z" fill="black"/>
<path d="M12.7409 54.327C20.7012 54.3383 28.6653 54.3421 36.6256 54.327C38.5349 54.327 39.4783 53.3987 39.482 51.5006C39.497 43.5399 39.497 35.5754 39.482 27.6147C39.482 25.6264 38.5537 24.7281 36.5392 24.7206C32.5853 24.7055 28.6277 24.7168 24.6739 24.7168C20.72 24.7168 16.6609 24.7018 12.6544 24.7243C10.8391 24.7356 9.88074 25.6677 9.87698 27.4681C9.85819 35.4814 9.86195 43.4948 9.87698 51.5081C9.87698 53.4024 10.8241 54.3233 12.7371 54.327H12.7409ZM14.793 30.7606C14.7892 29.9338 14.9471 29.6218 15.8641 29.6293C21.7235 29.6744 27.5866 29.6669 33.446 29.6331C34.2729 29.6293 34.5848 29.7872 34.5773 30.7043C34.5322 36.5639 34.5247 42.4273 34.5848 48.287C34.5961 49.3243 34.2127 49.4296 33.3483 49.4145C30.4205 49.3694 27.4889 49.3957 24.5573 49.3957C21.6258 49.3957 18.7995 49.3657 15.9205 49.4145C15.0899 49.4296 14.7817 49.2604 14.7892 48.3433C14.8343 42.4837 14.8268 36.6203 14.793 30.7606Z" fill="black"/>
<path d="M12.8873 123.439C20.7461 123.447 28.6049 123.447 36.4638 123.439C38.576 123.439 39.4818 122.552 39.4856 120.463C39.4968 112.551 39.4968 104.639 39.4856 96.7307C39.4856 94.7387 38.561 93.8366 36.5502 93.8291C32.6452 93.8141 28.744 93.8253 24.839 93.8253C20.934 93.8253 16.8261 93.8141 12.8196 93.8291C10.8013 93.8366 9.88429 94.7349 9.88053 96.727C9.86925 104.639 9.86925 112.551 9.88053 120.459C9.88053 122.552 10.7788 123.439 12.891 123.443L12.8873 123.439ZM15.8902 98.7416C21.7496 98.7792 27.6127 98.7792 33.4721 98.7416C34.344 98.7341 34.5771 98.9746 34.5733 99.8429C34.5357 105.703 34.5357 111.566 34.5733 117.426C34.5808 118.298 34.3403 118.531 33.4721 118.527C27.6127 118.489 21.7496 118.489 15.8902 118.527C15.0183 118.534 14.774 118.298 14.789 117.426C14.8416 114.445 14.8078 111.461 14.8078 108.48C14.8078 105.5 14.8416 102.722 14.789 99.8429C14.774 98.9671 15.022 98.7341 15.8902 98.7416Z" fill="black"/>
<path d="M82.467 46.8927C70.9512 46.9491 59.4354 46.9265 47.9197 46.9265C44.398 46.9265 44.4431 46.9265 44.3943 50.5272C44.3792 51.5759 44.5972 51.9029 45.7135 51.8916C51.8322 51.8315 57.9471 51.8615 64.0658 51.8615H80.4149C83.9178 51.8615 83.8689 51.8615 83.9403 48.4149C83.9628 47.2573 83.7186 46.8852 82.467 46.8927Z" fill="black"/>
<path d="M59.2331 41.9906H70.4895C74.0562 41.9906 73.9999 41.9906 74.0713 38.4425C74.0938 37.2811 73.7931 37.018 72.6468 37.0255C64.4723 37.0819 56.3015 37.0556 48.1269 37.0556C44.3798 37.0556 44.4211 37.0556 44.3986 40.7578C44.3911 41.7689 44.6654 42.0282 45.6652 42.0132C50.1865 41.9568 54.7117 41.9906 59.2368 41.9906H59.2331Z" fill="black"/>
<path d="M60.469 32.1397C67.05 32.0946 73.6272 32.1171 80.2082 32.1171C84.0117 32.1171 83.9817 32.1171 83.9366 28.2608C83.9253 27.3926 83.6998 27.1483 82.8316 27.1595C79.1296 27.2084 75.4313 27.1783 71.7292 27.1783H62.9383C59.1912 27.1783 59.2288 27.1783 59.2062 30.8806C59.1987 31.8879 59.4655 32.1472 60.469 32.1397Z" fill="black"/>
<path d="M48.0025 32.1172H50.468C54.5158 32.1172 54.5045 32.1172 54.3091 28.0767C54.279 27.4753 54.2302 27.1521 53.4935 27.1634C50.7198 27.2047 47.9424 27.1859 45.1686 27.1746C44.6913 27.1746 44.4809 27.2573 44.4057 27.8249C43.8682 31.8315 44.09 32.1172 48.0025 32.1172Z" fill="black"/>
<path d="M54.2977 62.5206C54.3766 61.9343 54.1549 61.7163 53.5347 61.7238C50.761 61.7539 47.9836 61.7501 45.2099 61.7238C44.6273 61.7201 44.4544 61.8854 44.4018 62.4906C44.041 66.6701 44.0222 66.6701 48.1114 66.6701H50.5769C53.1777 66.6701 54.4167 65.3383 54.294 62.6747C54.294 62.6221 54.2864 62.5695 54.294 62.5206H54.2977Z" fill="black"/>
<path d="M83.9143 39.5249C83.9143 37.8761 83.0938 37.0518 81.4526 37.0518C79.8114 37.0518 78.9871 37.8724 78.9795 39.5136C78.972 41.1549 79.7926 41.9793 81.4413 41.9868C83.09 41.9943 83.9143 41.1737 83.9143 39.5249Z" fill="black"/>
<path d="M61.5589 61.7354C60.0079 61.7354 59.2324 62.5021 59.2324 64.0356C59.2324 65.7921 60.1019 66.6704 61.8408 66.6704C63.3917 66.6704 64.1672 65.9036 64.1672 64.3701C64.1672 62.6136 63.2978 61.7354 61.5589 61.7354Z" fill="black"/>
<path d="M51.2876 136.05C49.8143 135.636 48.3297 135.873 47.142 135.79C45.9281 135.79 45.0035 135.757 44.0827 135.798C40.1852 135.96 37.0507 139.218 37.0169 143.112C36.9831 147.025 40.0349 150.37 43.9248 150.565C45.8679 150.663 47.8223 150.652 49.7692 150.573C53.3622 150.423 56.3539 147.54 56.7298 143.962C57.1094 140.361 54.7942 137.042 51.2838 136.053L51.2876 136.05ZM49.5324 145.634C48.668 145.706 47.7923 145.649 46.9241 145.649C46.0559 145.649 45.1802 145.702 44.3157 145.638C42.9665 145.54 42.0005 144.525 41.9667 143.255C41.9291 141.924 42.9176 140.797 44.3308 140.74C46.0671 140.669 47.8148 140.665 49.5512 140.748C50.8854 140.812 51.8288 141.921 51.825 143.191C51.825 144.461 50.8704 145.521 49.5362 145.63L49.5324 145.634Z" fill="black"/>
<path d="M43.0416 12.3887C45.9694 12.3361 48.901 12.3699 51.8326 12.3699H58.0001C61.7473 12.3699 61.7059 12.3699 61.7285 8.66768C61.736 7.65662 61.4654 7.39728 60.4619 7.40855C55.5271 7.46117 50.5923 7.4311 45.6575 7.4311C41.8577 7.4311 41.8878 7.4311 41.9291 11.2874C41.9404 12.1594 42.1697 12.4037 43.0379 12.3849L43.0416 12.3887Z" fill="black"/>
<path d="M34.6266 12.3696C36.2227 12.3696 37.0207 11.574 37.0207 9.9829C37.0207 8.28401 36.1738 7.43457 34.48 7.43457C32.884 7.43457 32.0859 8.23014 32.0859 9.82128C32.0859 11.5202 32.9328 12.3696 34.6266 12.3696Z" fill="black"/>
</g>
<defs>
<clipPath id="clip0_1030_1379">
<rect width="158" height="158" fill="white"/>
</clipPath>
</defs>
</svg>
