<svg width="116" height="115" viewBox="0 0 116 115" fill="none" xmlns="http://www.w3.org/2000/svg">
<g clip-path="url(#clip0_622_4176)">
<path d="M115.506 43.8289C108.866 31.0301 102.239 18.225 95.5991 5.42311C93.7087 1.78251 90.7121 4.07935e-06 86.6219 4.07935e-06C67.5677 0.0157506 48.5166 0.0188999 29.4656 4.07935e-06C25.2754 -0.00314522 22.2695 1.81715 20.3353 5.55853C13.786 18.2313 7.2211 30.8915 0.643681 43.5486C0.215602 44.3706 0 45.1831 0 46.1184C0.018748 66.9668 0.0124987 87.8184 0.0124987 108.667C0.0124987 112.748 2.24351 115 6.29307 115C23.5131 115 40.7362 115 57.9563 115C75.295 115 92.6306 115 109.969 115C113.622 115 115.984 112.644 115.984 108.991C115.988 87.9443 115.984 66.9007 115.997 45.8539C115.997 45.1232 115.838 44.4745 115.506 43.832V43.8289ZM11.8518 30.0853C15.7702 22.5207 19.7166 14.9718 23.5943 7.38512C24.8536 4.92552 26.7315 3.76027 29.4749 3.76342C48.5291 3.78862 67.5833 3.78547 86.6375 3.76342C89.2373 3.76342 91.0964 4.84678 92.2963 7.16782C98.455 19.0722 104.623 30.9734 110.788 42.8778C110.838 42.9754 110.857 43.0919 110.916 43.284H5.01196C7.32734 38.8152 9.58959 34.4471 11.8518 30.0822V30.0853ZM3.72772 55.264C3.81521 52.9115 3.79959 50.5526 3.73085 48.197C3.70585 47.3089 3.94332 47.1136 4.81198 47.1167C22.5819 47.1451 40.3519 47.1388 58.1219 47.1388C75.8918 47.1388 93.4274 47.1482 111.079 47.1136C112.05 47.1136 112.307 47.334 112.275 48.3198C112.197 50.792 112.225 53.2673 112.266 55.7395C112.275 56.4103 112.085 56.593 111.429 56.5804C109.326 56.5395 107.22 56.5647 105.117 56.5647C71.761 56.5647 38.4021 56.5584 5.04633 56.5899C3.99019 56.5899 3.69335 56.3379 3.73085 55.2672L3.72772 55.264ZM3.72772 61.5122C3.7246 60.5359 3.94957 60.306 4.92134 60.306C22.6132 60.3407 40.305 60.3312 57.9969 60.3312C75.6887 60.3312 93.3806 60.3407 111.072 60.306C112.038 60.306 112.272 60.5233 112.269 61.5091C112.232 73.2906 112.232 85.0722 112.269 96.8537C112.272 97.83 112.047 98.0599 111.076 98.0599C75.6918 98.0315 40.3082 98.0315 4.92447 98.0599C3.95895 98.0599 3.7246 97.8426 3.72772 96.86C3.76522 85.0785 3.76522 73.2969 3.72772 61.5154V61.5122ZM112.275 103.039C112.175 104.998 112.254 106.963 112.244 108.925C112.235 110.541 111.569 111.224 109.982 111.227C105.892 111.237 101.802 111.227 97.7113 111.227C67.3302 111.227 36.946 111.227 6.56492 111.227C4.24954 111.227 3.75272 110.733 3.75272 108.415C3.75272 106.453 3.77147 104.488 3.74022 102.526C3.73085 101.984 3.84959 101.71 4.44015 101.795C4.66825 101.83 4.90572 101.801 5.14007 101.801C22.785 101.801 40.43 101.801 58.075 101.801C75.72 101.801 93.3649 101.811 111.01 101.776C112.019 101.776 112.325 101.981 112.272 103.036L112.275 103.039Z" fill="#121212"/>
<path d="M58.0626 92.3784C65.2368 92.3721 71.1081 86.4105 71.0925 79.1482C71.0768 71.8418 65.165 65.9557 57.8783 65.9904C50.7603 66.0219 44.8859 71.9867 44.9078 79.1608C44.9296 86.4987 50.7915 92.3879 58.0626 92.3816V92.3784ZM57.9907 69.7601C63.1371 69.7475 67.3491 73.9833 67.3522 79.1734C67.3522 84.3729 63.1746 88.5929 58.0126 88.6055C52.9132 88.6181 48.6855 84.4233 48.6511 79.3119C48.6167 74.0369 52.7851 69.7727 57.9939 69.7601H57.9907Z" fill="#121212"/>
<path d="M80.5853 86.7164C82.1039 86.7416 83.6256 86.7762 85.1442 86.7038C85.9504 86.666 86.1035 86.9589 86.0785 87.6895C86.0254 89.2201 86.0378 90.7538 86.0722 92.2843C86.1035 93.5944 87.1565 94.5109 88.2939 94.2212C89.4 93.9409 89.8156 93.1441 89.8124 92.0198C89.7937 87.7399 89.8062 83.46 89.8062 79.1801C89.8062 74.938 89.7968 70.699 89.8124 66.4569C89.8156 65.5278 89.6218 64.75 88.7251 64.3028C87.8033 63.843 87.094 64.2524 86.3878 64.8224C84.2599 66.5325 82.5601 68.6016 81.204 70.973C78.7043 75.3379 78.3731 80.1123 78.6043 84.9874C78.6543 86.0487 79.4448 86.7006 80.5916 86.7195L80.5853 86.7164ZM82.357 79.9391C82.6101 76.5126 83.7537 73.4106 86.0597 70.4502C86.0597 74.6073 86.0535 78.4715 86.066 82.3388C86.066 82.764 85.9816 82.9246 85.5035 82.9718C82.3726 83.2647 82.1258 83.0726 82.357 79.9422V79.9391Z" fill="#121212"/>
<path d="M29.1438 80.3133C29.8124 80.6723 29.978 81.0534 29.9593 81.7525C29.9124 83.4374 29.9437 85.1254 29.9437 86.8135C29.9437 88.5015 29.9405 90.1864 29.9437 91.8744C29.9468 93.3703 30.6123 94.2301 31.7716 94.2584C32.9652 94.2867 33.6808 93.3923 33.6808 91.8397C33.6839 88.5046 33.6964 85.1695 33.6714 81.8344C33.6651 81.1195 33.7839 80.6881 34.5182 80.2975C36.418 79.2866 37.3772 77.5734 37.4147 75.4098C37.4585 73.0163 37.4335 70.6229 37.421 68.2294C37.4147 66.85 36.6961 65.9997 35.5681 65.9902C34.4338 65.9808 33.6933 66.8311 33.687 68.2011C33.6745 70.5158 33.6964 72.8305 33.6776 75.1453C33.6683 76.4396 32.9433 77.2679 31.8497 77.2931C30.7186 77.3183 29.953 76.4617 29.9437 75.1075C29.9312 72.8305 29.9437 70.5567 29.9374 68.2798C29.9312 66.8311 29.1875 65.9556 28.0189 65.9902C26.894 66.0217 26.2066 66.8658 26.2034 68.264C26.1941 70.6197 26.1816 72.9723 26.2066 75.3279C26.2316 77.545 27.1971 79.2677 29.1406 80.3133H29.1438Z" fill="#121212"/>
<path d="M75.8885 9.44446C69.9673 9.40666 64.0429 9.43501 58.1186 9.43501C52.1567 9.43501 46.1949 9.40981 40.233 9.44131C35.5429 9.4665 31.8277 13.2268 31.812 17.8814C31.7995 22.5424 35.4991 26.372 40.1705 26.3846C52.0536 26.4192 63.9398 26.4003 75.8229 26.394C77.2915 26.394 78.6664 26.0098 79.9412 25.2666C83.2596 23.3297 84.8532 19.538 83.9252 15.7872C83.0253 12.1529 79.685 9.4665 75.8885 9.44131V9.44446ZM75.7667 22.618C69.8454 22.6463 63.9242 22.6274 58.0061 22.6274C52.088 22.6274 46.1636 22.6432 40.2455 22.6211C37.9895 22.6117 36.2241 21.1567 35.6835 18.968C35.1961 16.9965 36.1053 14.8833 37.902 13.8409C38.6238 13.422 39.3987 13.2016 40.2361 13.2016C52.0786 13.2016 63.918 13.1921 75.7604 13.211C78.407 13.2142 80.4474 15.3085 80.4506 17.9098C80.4537 20.508 78.4133 22.6085 75.7698 22.6211L75.7667 22.618Z" fill="#121212"/>
</g>
<defs>
<clipPath id="clip0_622_4176">
<rect width="116" height="115" fill="white"/>
</clipPath>
</defs>
</svg>
