<svg width="256" height="356" viewBox="0 0 256 356" fill="none" xmlns="http://www.w3.org/2000/svg">
<rect width="256" height="356" rx="15" fill="#E9B017"/>
<g clip-path="url(#clip0_229_1739)">
<path d="M185.506 139.829C178.866 127.03 172.239 114.225 165.599 101.423C163.709 97.7825 160.712 96 156.622 96C137.568 96.0158 118.517 96.0189 99.4656 96C95.2754 95.9969 92.2695 97.8172 90.3353 101.559C83.786 114.231 77.2211 126.892 70.6437 139.549C70.2156 140.371 70 141.183 70 142.118C70.0187 162.967 70.0125 183.818 70.0125 204.667C70.0125 208.748 72.2435 211 76.2931 211C93.5131 211 110.736 211 127.956 211C145.295 211 162.631 211 179.969 211C183.622 211 185.984 208.644 185.984 204.991C185.988 183.944 185.984 162.901 185.997 141.854C185.997 141.123 185.838 140.474 185.506 139.832V139.829ZM81.8518 126.085C85.7702 118.521 89.7166 110.972 93.5943 103.385C94.8536 100.926 96.7315 99.7603 99.4749 99.7634C118.529 99.7886 137.583 99.7855 156.638 99.7634C159.237 99.7634 161.096 100.847 162.296 103.168C168.455 115.072 174.623 126.973 180.788 138.878C180.838 138.975 180.857 139.092 180.916 139.284H75.012C77.3273 134.815 79.5896 130.447 81.8518 126.082V126.085ZM73.7277 151.264C73.8152 148.911 73.7996 146.553 73.7308 144.197C73.7059 143.309 73.9433 143.114 74.812 143.117C92.5819 143.145 110.352 143.139 128.122 143.139C145.892 143.139 163.427 143.148 181.079 143.114C182.05 143.114 182.307 143.334 182.275 144.32C182.197 146.792 182.225 149.267 182.266 151.74C182.275 152.41 182.085 152.593 181.429 152.58C179.326 152.539 177.22 152.565 175.117 152.565C141.761 152.565 108.402 152.558 75.0463 152.59C73.9902 152.59 73.6934 152.338 73.7308 151.267L73.7277 151.264ZM73.7277 157.512C73.7246 156.536 73.9496 156.306 74.9213 156.306C92.6132 156.341 110.305 156.331 127.997 156.331C145.689 156.331 163.381 156.341 181.072 156.306C182.038 156.306 182.272 156.523 182.269 157.509C182.232 169.291 182.232 181.072 182.269 192.854C182.272 193.83 182.047 194.06 181.076 194.06C145.692 194.032 110.308 194.032 74.9245 194.06C73.9589 194.06 73.7246 193.843 73.7277 192.86C73.7652 181.078 73.7652 169.297 73.7277 157.515V157.512ZM182.275 199.039C182.175 200.998 182.254 202.963 182.244 204.925C182.235 206.541 181.569 207.224 179.982 207.227C175.892 207.237 171.802 207.227 167.711 207.227C137.33 207.227 106.946 207.227 76.5649 207.227C74.2495 207.227 73.7527 206.733 73.7527 204.415C73.7527 202.453 73.7715 200.488 73.7402 198.526C73.7308 197.984 73.8496 197.71 74.4401 197.795C74.6682 197.83 74.9057 197.801 75.1401 197.801C92.785 197.801 110.43 197.801 128.075 197.801C145.72 197.801 163.365 197.811 181.01 197.776C182.019 197.776 182.325 197.981 182.272 199.036L182.275 199.039Z" fill="#121212"/>
<path d="M128.063 188.379C135.237 188.372 141.108 182.411 141.092 175.148C141.077 167.842 135.165 161.956 127.878 161.991C120.76 162.022 114.886 167.987 114.908 175.161C114.93 182.499 120.792 188.388 128.063 188.382V188.379ZM127.991 165.76C133.137 165.748 137.349 169.983 137.352 175.174C137.352 180.373 133.175 184.593 128.013 184.606C122.913 184.618 118.685 180.423 118.651 175.312C118.617 170.037 122.785 165.773 127.994 165.76H127.991Z" fill="#121212"/>
<path d="M150.585 182.716C152.104 182.741 153.625 182.776 155.144 182.703C155.95 182.666 156.103 182.959 156.078 183.689C156.025 185.22 156.038 186.754 156.072 188.284C156.103 189.594 157.156 190.511 158.294 190.221C159.4 189.941 159.815 189.144 159.812 188.02C159.793 183.74 159.806 179.46 159.806 175.18C159.806 170.938 159.797 166.699 159.812 162.457C159.815 161.528 159.622 160.75 158.725 160.302C157.803 159.843 157.094 160.252 156.388 160.822C154.26 162.532 152.56 164.601 151.204 166.973C148.704 171.338 148.373 176.112 148.604 180.987C148.654 182.048 149.445 182.7 150.591 182.719L150.585 182.716ZM152.357 175.939C152.61 172.512 153.753 169.41 156.059 166.45C156.059 170.607 156.053 174.471 156.066 178.339C156.066 178.764 155.981 178.924 155.503 178.972C152.372 179.264 152.126 179.072 152.357 175.942V175.939Z" fill="#121212"/>
<path d="M99.1438 176.314C99.8124 176.673 99.978 177.054 99.9593 177.753C99.9124 179.438 99.9437 181.126 99.9437 182.814C99.9437 184.502 99.9405 186.187 99.9437 187.875C99.9468 189.371 100.612 190.23 101.772 190.259C102.965 190.287 103.681 189.393 103.681 187.84C103.684 184.505 103.696 181.17 103.671 177.835C103.665 177.12 103.784 176.688 104.518 176.298C106.418 175.287 107.377 173.574 107.415 171.41C107.458 169.017 107.433 166.623 107.421 164.23C107.415 162.85 106.696 162 105.568 161.991C104.434 161.981 103.693 162.831 103.687 164.201C103.675 166.516 103.696 168.831 103.678 171.146C103.668 172.44 102.943 173.268 101.85 173.293C100.719 173.319 99.953 172.462 99.9437 171.108C99.9312 168.831 99.9437 166.557 99.9374 164.28C99.9312 162.831 99.1875 161.956 98.0189 161.991C96.894 162.022 96.2066 162.866 96.2034 164.264C96.1941 166.62 96.1816 168.973 96.2066 171.328C96.2316 173.545 97.1971 175.268 99.1406 176.314H99.1438Z" fill="#121212"/>
<path d="M145.889 105.445C139.968 105.407 134.043 105.435 128.119 105.435C122.157 105.435 116.195 105.41 110.233 105.442C105.543 105.467 101.828 109.227 101.812 113.882C101.8 118.543 105.499 122.372 110.171 122.385C122.054 122.42 133.94 122.401 145.823 122.394C147.292 122.394 148.667 122.01 149.941 121.267C153.26 119.33 154.853 115.538 153.925 111.787C153.026 108.153 149.685 105.467 145.889 105.442V105.445ZM145.767 118.618C139.846 118.647 133.924 118.628 128.006 118.628C122.088 118.628 116.164 118.643 110.246 118.621C107.99 118.612 106.224 117.157 105.684 114.968C105.196 112.997 106.106 110.884 107.902 109.841C108.624 109.422 109.399 109.202 110.236 109.202C122.079 109.202 133.918 109.192 145.761 109.211C148.407 109.214 150.448 111.309 150.451 113.91C150.454 116.508 148.414 118.609 145.77 118.621L145.767 118.618Z" fill="#121212"/>
</g>
<path d="M62.97 285H60.602V264.168H52.89V262.024H70.682V264.168H62.97V285ZM81.9563 285V281.928C80.9643 284.04 78.9163 285.32 76.2923 285.32C72.8043 285.32 70.5323 283.368 70.5323 280.328C70.5323 277.032 73.1562 275.304 78.2763 275.304C79.3003 275.304 80.0683 275.368 81.7323 275.496V274.088C81.7323 271.272 80.2283 269.608 77.6683 269.608C74.9163 269.608 73.1883 271.304 73.1562 274.056H71.1083C71.2043 270.312 73.7963 267.816 77.6363 267.816C81.5723 267.816 83.8763 270.12 83.8763 274.024V285H81.9563ZM72.6763 280.264C72.6763 282.312 74.2443 283.688 76.6123 283.688C79.7483 283.688 81.7323 281.64 81.7323 278.472V276.968C80.2923 276.84 79.3003 276.808 78.3723 276.808C74.5323 276.808 72.6763 277.928 72.6763 280.264ZM90.8283 285H88.5883V262.024H90.8283V275.976L98.9563 268.136H101.612L93.1003 276.392L102.316 285H99.4043L90.8283 276.904V285ZM110.837 285.32C106.101 285.32 102.965 281.768 102.965 276.424C102.965 271.496 106.229 267.816 110.709 267.816C115.509 267.816 118.645 271.688 118.261 277.096H105.205C105.397 281.096 107.509 283.56 110.805 283.56C113.621 283.56 115.573 281.992 116.117 279.304H118.325C117.557 283.048 114.709 285.32 110.837 285.32ZM110.677 269.544C107.637 269.544 105.493 271.88 105.205 275.56H115.925C115.733 271.784 113.781 269.544 110.677 269.544ZM130.786 277.16H120.674V275.176H130.786V277.16ZM144.3 285V281.928C143.308 284.04 141.26 285.32 138.636 285.32C135.148 285.32 132.876 283.368 132.876 280.328C132.876 277.032 135.5 275.304 140.62 275.304C141.644 275.304 142.412 275.368 144.076 275.496V274.088C144.076 271.272 142.572 269.608 140.012 269.608C137.26 269.608 135.532 271.304 135.5 274.056H133.452C133.548 270.312 136.14 267.816 139.98 267.816C143.916 267.816 146.22 270.12 146.22 274.024V285H144.3ZM135.02 280.264C135.02 282.312 136.588 283.688 138.956 283.688C142.092 283.688 144.076 281.64 144.076 278.472V276.968C142.636 276.84 141.644 276.808 140.716 276.808C136.876 276.808 135.02 277.928 135.02 280.264ZM164.48 285L160.064 271.112L155.68 285H153.408L148.48 268.136H150.688L154.592 281.832L158.976 268.136H161.184L165.536 281.864L169.44 268.136H171.68L166.72 285H164.48ZM184.456 285V281.928C183.464 284.04 181.416 285.32 178.792 285.32C175.304 285.32 173.032 283.368 173.032 280.328C173.032 277.032 175.656 275.304 180.776 275.304C181.8 275.304 182.568 275.368 184.232 275.496V274.088C184.232 271.272 182.728 269.608 180.168 269.608C177.416 269.608 175.688 271.304 175.656 274.056H173.608C173.704 270.312 176.296 267.816 180.136 267.816C184.072 267.816 186.376 270.12 186.376 274.024V285H184.456ZM175.176 280.264C175.176 282.312 176.744 283.688 179.112 283.688C182.248 283.688 184.232 281.64 184.232 278.472V276.968C182.792 276.84 181.8 276.808 180.872 276.808C177.032 276.808 175.176 277.928 175.176 280.264ZM203.58 268.136L194.94 291.176H192.54L195.004 284.776L188.316 268.136H190.716L196.156 282.088L201.308 268.136H203.58Z" fill="#121212"/>
<defs>
<clipPath id="clip0_229_1739">
<rect width="116" height="115" fill="white" transform="translate(70 96)"/>
</clipPath>
</defs>
</svg>
