<svg width="100" height="100" viewBox="0 0 100 100" fill="none" xmlns="http://www.w3.org/2000/svg">
<g clip-path="url(#clip0_970_6252)">
<path d="M100 0H0V100H100V0Z" fill="white"/>
<path d="M11.36 8H8V11.36H11.36V8Z" fill="black"/>
<path d="M14.72 8H11.36V11.36H14.72V8Z" fill="black"/>
<path d="M18.08 8H14.72V11.36H18.08V8Z" fill="black"/>
<path d="M21.44 8H18.08V11.36H21.44V8Z" fill="black"/>
<path d="M24.8 8H21.44V11.36H24.8V8Z" fill="black"/>
<path d="M28.16 8H24.8V11.36H28.16V8Z" fill="black"/>
<path d="M31.52 8H28.16V11.36H31.52V8Z" fill="black"/>
<path d="M44.96 8H41.6V11.36H44.96V8Z" fill="black"/>
<path d="M58.4 8H55.04V11.36H58.4V8Z" fill="black"/>
<path d="M65.12 8H61.76V11.36H65.12V8Z" fill="black"/>
<path d="M71.84 8H68.48V11.36H71.84V8Z" fill="black"/>
<path d="M75.2 8H71.84V11.36H75.2V8Z" fill="black"/>
<path d="M78.56 8H75.2V11.36H78.56V8Z" fill="black"/>
<path d="M81.92 8H78.56V11.36H81.92V8Z" fill="black"/>
<path d="M85.28 8H81.92V11.36H85.28V8Z" fill="black"/>
<path d="M88.64 8H85.28V11.36H88.64V8Z" fill="black"/>
<path d="M92 8H88.64V11.36H92V8Z" fill="black"/>
<path d="M11.36 11.36H8V14.72H11.36V11.36Z" fill="black"/>
<path d="M31.52 11.36H28.16L28.16 14.72H31.52V11.36Z" fill="black"/>
<path d="M38.24 11.36H34.88V14.72H38.24V11.36Z" fill="black"/>
<path d="M44.96 11.36H41.6V14.72H44.96V11.36Z" fill="black"/>
<path d="M51.68 11.36H48.32V14.72H51.68V11.36Z" fill="black"/>
<path d="M61.76 11.36H58.4L58.4 14.72H61.76V11.36Z" fill="black"/>
<path d="M71.84 11.36H68.48V14.72H71.84V11.36Z" fill="black"/>
<path d="M92 11.36H88.64V14.72H92V11.36Z" fill="black"/>
<path d="M11.36 14.72H8V18.08H11.36V14.72Z" fill="black"/>
<path d="M18.08 14.72H14.72V18.08H18.08V14.72Z" fill="black"/>
<path d="M21.44 14.72H18.08V18.08H21.44V14.72Z" fill="black"/>
<path d="M24.8 14.72H21.44V18.08H24.8V14.72Z" fill="black"/>
<path d="M31.52 14.72H28.16V18.08H31.52V14.72Z" fill="black"/>
<path d="M38.24 14.72H34.88V18.08H38.24V14.72Z" fill="black"/>
<path d="M41.6 14.72H38.24V18.08H41.6V14.72Z" fill="black"/>
<path d="M44.96 14.72H41.6V18.08H44.96V14.72Z" fill="black"/>
<path d="M48.32 14.72H44.96V18.08H48.32V14.72Z" fill="black"/>
<path d="M51.68 14.72H48.32V18.08H51.68V14.72Z" fill="black"/>
<path d="M61.76 14.72H58.4V18.08H61.76V14.72Z" fill="black"/>
<path d="M71.84 14.72H68.48V18.08H71.84V14.72Z" fill="black"/>
<path d="M78.56 14.72H75.2V18.08H78.56V14.72Z" fill="black"/>
<path d="M81.92 14.72H78.56V18.08H81.92V14.72Z" fill="black"/>
<path d="M85.28 14.72H81.92V18.08H85.28V14.72Z" fill="black"/>
<path d="M92 14.72H88.64V18.08H92V14.72Z" fill="black"/>
<path d="M11.36 18.08H8V21.44H11.36V18.08Z" fill="black"/>
<path d="M18.08 18.08H14.72V21.44H18.08V18.08Z" fill="black"/>
<path d="M21.44 18.08H18.08V21.44H21.44V18.08Z" fill="black"/>
<path d="M24.8 18.08H21.44V21.44H24.8V18.08Z" fill="black"/>
<path d="M31.52 18.08H28.16V21.44H31.52V18.08Z" fill="black"/>
<path d="M41.6 18.08H38.24V21.44H41.6V18.08Z" fill="black"/>
<path d="M48.32 18.08H44.96V21.44H48.32V18.08Z" fill="black"/>
<path d="M55.04 18.08H51.68V21.44H55.04V18.08Z" fill="black"/>
<path d="M61.76 18.08H58.4V21.44H61.76V18.08Z" fill="black"/>
<path d="M71.84 18.08H68.48V21.44H71.84V18.08Z" fill="black"/>
<path d="M78.56 18.08H75.2V21.44H78.56V18.08Z" fill="black"/>
<path d="M81.92 18.08H78.56V21.44H81.92V18.08Z" fill="black"/>
<path d="M85.28 18.08H81.92V21.44H85.28V18.08Z" fill="black"/>
<path d="M92 18.08H88.64V21.44H92V18.08Z" fill="black"/>
<path d="M11.36 21.44H8V24.8H11.36V21.44Z" fill="black"/>
<path d="M18.08 21.44H14.72V24.8H18.08V21.44Z" fill="black"/>
<path d="M21.44 21.44H18.08V24.8H21.44V21.44Z" fill="black"/>
<path d="M24.8 21.44H21.44V24.8H24.8V21.44Z" fill="black"/>
<path d="M31.52 21.44H28.16V24.8H31.52V21.44Z" fill="black"/>
<path d="M38.24 21.44H34.88V24.8H38.24V21.44Z" fill="black"/>
<path d="M41.6 21.44H38.24V24.8H41.6V21.44Z" fill="black"/>
<path d="M44.96 21.44H41.6V24.8H44.96V21.44Z" fill="black"/>
<path d="M48.32 21.44H44.96V24.8H48.32V21.44Z" fill="black"/>
<path d="M51.68 21.44H48.32V24.8H51.68V21.44Z" fill="black"/>
<path d="M55.04 21.44H51.68V24.8H55.04V21.44Z" fill="black"/>
<path d="M58.4 21.44H55.04V24.8H58.4L58.4 21.44Z" fill="black"/>
<path d="M65.12 21.44H61.76V24.8H65.12V21.44Z" fill="black"/>
<path d="M71.84 21.44H68.48V24.8H71.84V21.44Z" fill="black"/>
<path d="M78.56 21.44H75.2V24.8H78.56V21.44Z" fill="black"/>
<path d="M81.92 21.44H78.56V24.8H81.92V21.44Z" fill="black"/>
<path d="M85.28 21.44H81.92V24.8H85.28V21.44Z" fill="black"/>
<path d="M92 21.44H88.64V24.8H92V21.44Z" fill="black"/>
<path d="M11.36 24.8H8V28.16H11.36V24.8Z" fill="black"/>
<path d="M31.52 24.8H28.16V28.16H31.52V24.8Z" fill="black"/>
<path d="M41.6 24.8H38.24V28.16H41.6V24.8Z" fill="black"/>
<path d="M44.96 24.8H41.6V28.16H44.96V24.8Z" fill="black"/>
<path d="M55.04 24.8H51.68V28.16H55.04V24.8Z" fill="black"/>
<path d="M61.76 24.8H58.4L58.4 28.16H61.76V24.8Z" fill="black"/>
<path d="M65.12 24.8H61.76V28.16H65.12V24.8Z" fill="black"/>
<path d="M71.84 24.8H68.48V28.16H71.84V24.8Z" fill="black"/>
<path d="M92 24.8H88.64V28.16H92V24.8Z" fill="black"/>
<path d="M11.36 28.16H8V31.52H11.36V28.16Z" fill="black"/>
<path d="M14.72 28.16L11.36 28.16V31.52H14.72V28.16Z" fill="black"/>
<path d="M18.08 28.16H14.72V31.52H18.08V28.16Z" fill="black"/>
<path d="M21.44 28.16H18.08V31.52H21.44V28.16Z" fill="black"/>
<path d="M24.8 28.16H21.44V31.52H24.8V28.16Z" fill="black"/>
<path d="M28.16 28.16L24.8 28.16V31.52H28.16L28.16 28.16Z" fill="black"/>
<path d="M31.52 28.16H28.16L28.16 31.52H31.52V28.16Z" fill="black"/>
<path d="M38.24 28.16L34.88 28.16V31.52H38.24V28.16Z" fill="black"/>
<path d="M44.96 28.16H41.6V31.52H44.96V28.16Z" fill="black"/>
<path d="M51.68 28.16L48.32 28.16V31.52H51.68V28.16Z" fill="black"/>
<path d="M58.4 28.16H55.04V31.52H58.4L58.4 28.16Z" fill="black"/>
<path d="M65.12 28.16H61.76V31.52H65.12V28.16Z" fill="black"/>
<path d="M71.84 28.16H68.48V31.52H71.84V28.16Z" fill="black"/>
<path d="M75.2 28.16L71.84 28.16V31.52H75.2V28.16Z" fill="black"/>
<path d="M78.56 28.16H75.2V31.52H78.56V28.16Z" fill="black"/>
<path d="M81.92 28.16H78.56V31.52H81.92V28.16Z" fill="black"/>
<path d="M85.28 28.16H81.92V31.52H85.28V28.16Z" fill="black"/>
<path d="M88.64 28.16L85.28 28.16V31.52H88.64V28.16Z" fill="black"/>
<path d="M92 28.16H88.64V31.52H92V28.16Z" fill="black"/>
<path d="M38.24 31.52H34.88V34.88H38.24V31.52Z" fill="black"/>
<path d="M41.6 31.52H38.24V34.88H41.6V31.52Z" fill="black"/>
<path d="M44.96 31.52H41.6V34.88H44.96V31.52Z" fill="black"/>
<path d="M58.4 31.52H55.04V34.88H58.4V31.52Z" fill="black"/>
<path d="M65.12 31.52H61.76V34.88H65.12V31.52Z" fill="black"/>
<path d="M11.36 34.88H8V38.24H11.36V34.88Z" fill="black"/>
<path d="M14.72 34.88H11.36V38.24H14.72V34.88Z" fill="black"/>
<path d="M18.08 34.88H14.72V38.24H18.08V34.88Z" fill="black"/>
<path d="M21.44 34.88H18.08V38.24H21.44V34.88Z" fill="black"/>
<path d="M24.8 34.88H21.44V38.24H24.8V34.88Z" fill="black"/>
<path d="M31.52 34.88H28.16V38.24H31.52V34.88Z" fill="black"/>
<path d="M34.88 34.88H31.52V38.24H34.88V34.88Z" fill="black"/>
<path d="M44.96 34.88H41.6V38.24H44.96V34.88Z" fill="black"/>
<path d="M55.04 34.88H51.68V38.24H55.04V34.88Z" fill="black"/>
<path d="M61.76 34.88H58.4L58.4 38.24H61.76V34.88Z" fill="black"/>
<path d="M68.48 34.88H65.12V38.24H68.48V34.88Z" fill="black"/>
<path d="M71.84 34.88H68.48V38.24H71.84V34.88Z" fill="black"/>
<path d="M78.56 34.88H75.2V38.24H78.56V34.88Z" fill="black"/>
<path d="M85.28 34.88H81.92V38.24H85.28V34.88Z" fill="black"/>
<path d="M88.64 34.88H85.28V38.24H88.64V34.88Z" fill="black"/>
<path d="M18.08 38.24H14.72V41.6H18.08V38.24Z" fill="black"/>
<path d="M24.8 38.24H21.44V41.6H24.8V38.24Z" fill="black"/>
<path d="M28.16 38.24H24.8V41.6H28.16L28.16 38.24Z" fill="black"/>
<path d="M41.6 38.24H38.24V41.6H41.6V38.24Z" fill="black"/>
<path d="M44.96 38.24H41.6V41.6H44.96V38.24Z" fill="black"/>
<path d="M61.76 38.24H58.4V41.6H61.76V38.24Z" fill="black"/>
<path d="M78.56 38.24H75.2V41.6H78.56V38.24Z" fill="black"/>
<path d="M81.92 38.24H78.56V41.6H81.92V38.24Z" fill="black"/>
<path d="M85.28 38.24H81.92V41.6H85.28V38.24Z" fill="black"/>
<path d="M92 38.24H88.64V41.6H92V38.24Z" fill="black"/>
<path d="M14.72 41.6H11.36V44.96H14.72V41.6Z" fill="black"/>
<path d="M18.08 41.6H14.72V44.96H18.08V41.6Z" fill="black"/>
<path d="M28.16 41.6H24.8V44.96H28.16V41.6Z" fill="black"/>
<path d="M31.52 41.6H28.16V44.96H31.52V41.6Z" fill="black"/>
<path d="M34.88 41.6H31.52V44.96H34.88V41.6Z" fill="black"/>
<path d="M41.6 41.6H38.24V44.96H41.6V41.6Z" fill="black"/>
<path d="M58.4 41.6H55.04V44.96H58.4L58.4 41.6Z" fill="black"/>
<path d="M61.76 41.6H58.4L58.4 44.96H61.76V41.6Z" fill="black"/>
<path d="M65.12 41.6H61.76V44.96H65.12V41.6Z" fill="black"/>
<path d="M68.48 41.6H65.12V44.96H68.48V41.6Z" fill="black"/>
<path d="M71.84 41.6H68.48V44.96H71.84V41.6Z" fill="black"/>
<path d="M88.64 41.6H85.28V44.96H88.64V41.6Z" fill="black"/>
<path d="M92 41.6H88.64V44.96H92V41.6Z" fill="black"/>
<path d="M18.08 44.96H14.72V48.32H18.08V44.96Z" fill="black"/>
<path d="M24.8 44.96H21.44V48.32H24.8V44.96Z" fill="black"/>
<path d="M34.88 44.96H31.52V48.32H34.88V44.96Z" fill="black"/>
<path d="M38.24 44.96H34.88V48.32H38.24V44.96Z" fill="black"/>
<path d="M51.68 44.96H48.32V48.32H51.68V44.96Z" fill="black"/>
<path d="M55.04 44.96H51.68V48.32H55.04V44.96Z" fill="black"/>
<path d="M58.4 44.96H55.04V48.32H58.4V44.96Z" fill="black"/>
<path d="M61.76 44.96H58.4V48.32H61.76V44.96Z" fill="black"/>
<path d="M75.2 44.96H71.84V48.32H75.2V44.96Z" fill="black"/>
<path d="M81.92 44.96H78.56V48.32H81.92V44.96Z" fill="black"/>
<path d="M92 44.96H88.64V48.32H92V44.96Z" fill="black"/>
<path d="M18.08 48.32H14.72V51.68H18.08V48.32Z" fill="black"/>
<path d="M21.44 48.32H18.08V51.68H21.44V48.32Z" fill="black"/>
<path d="M31.52 48.32H28.16V51.68H31.52V48.32Z" fill="black"/>
<path d="M34.88 48.32H31.52V51.68H34.88V48.32Z" fill="black"/>
<path d="M44.96 48.32H41.6V51.68H44.96V48.32Z" fill="black"/>
<path d="M48.32 48.32H44.96V51.68H48.32V48.32Z" fill="black"/>
<path d="M51.68 48.32H48.32V51.68H51.68V48.32Z" fill="black"/>
<path d="M58.4 48.32H55.04V51.68H58.4V48.32Z" fill="black"/>
<path d="M68.48 48.32H65.12V51.68H68.48V48.32Z" fill="black"/>
<path d="M75.2 48.32H71.84V51.68H75.2V48.32Z" fill="black"/>
<path d="M78.56 48.32H75.2V51.68H78.56V48.32Z" fill="black"/>
<path d="M81.92 48.32H78.56V51.68H81.92V48.32Z" fill="black"/>
<path d="M92 48.32H88.64V51.68H92V48.32Z" fill="black"/>
<path d="M14.72 51.68H11.36V55.04H14.72V51.68Z" fill="black"/>
<path d="M21.44 51.68H18.08V55.04H21.44V51.68Z" fill="black"/>
<path d="M24.8 51.68H21.44V55.04H24.8V51.68Z" fill="black"/>
<path d="M41.6 51.68H38.24V55.04H41.6V51.68Z" fill="black"/>
<path d="M48.32 51.68H44.96V55.04H48.32V51.68Z" fill="black"/>
<path d="M61.76 51.68H58.4L58.4 55.04H61.76V51.68Z" fill="black"/>
<path d="M71.84 51.68H68.48V55.04H71.84V51.68Z" fill="black"/>
<path d="M85.28 51.68H81.92V55.04H85.28V51.68Z" fill="black"/>
<path d="M88.64 51.68H85.28V55.04H88.64V51.68Z" fill="black"/>
<path d="M92 51.68H88.64V55.04H92V51.68Z" fill="black"/>
<path d="M11.36 55.04H8V58.4H11.36V55.04Z" fill="black"/>
<path d="M28.16 55.04H24.8V58.4H28.16V55.04Z" fill="black"/>
<path d="M31.52 55.04H28.16V58.4H31.52V55.04Z" fill="black"/>
<path d="M44.96 55.04H41.6V58.4H44.96V55.04Z" fill="black"/>
<path d="M48.32 55.04H44.96V58.4H48.32V55.04Z" fill="black"/>
<path d="M51.68 55.04H48.32V58.4H51.68V55.04Z" fill="black"/>
<path d="M55.04 55.04H51.68V58.4H55.04V55.04Z" fill="black"/>
<path d="M58.4 55.04H55.04V58.4H58.4L58.4 55.04Z" fill="black"/>
<path d="M61.76 55.04H58.4L58.4 58.4H61.76V55.04Z" fill="black"/>
<path d="M68.48 55.04H65.12V58.4H68.48V55.04Z" fill="black"/>
<path d="M92 55.04H88.64V58.4H92V55.04Z" fill="black"/>
<path d="M18.08 58.4H14.72V61.76H18.08V58.4Z" fill="black"/>
<path d="M28.16 58.4H24.8V61.76H28.16V58.4Z" fill="black"/>
<path d="M34.88 58.4L31.52 58.4V61.76H34.88V58.4Z" fill="black"/>
<path d="M41.6 58.4L38.24 58.4V61.76H41.6V58.4Z" fill="black"/>
<path d="M44.96 58.4H41.6V61.76H44.96V58.4Z" fill="black"/>
<path d="M51.68 58.4H48.32V61.76H51.68V58.4Z" fill="black"/>
<path d="M55.04 58.4H51.68V61.76H55.04V58.4Z" fill="black"/>
<path d="M61.76 58.4H58.4L58.4 61.76H61.76V58.4Z" fill="black"/>
<path d="M68.48 58.4H65.12V61.76H68.48V58.4Z" fill="black"/>
<path d="M78.56 58.4H75.2V61.76H78.56V58.4Z" fill="black"/>
<path d="M81.92 58.4H78.56V61.76H81.92V58.4Z" fill="black"/>
<path d="M85.28 58.4H81.92V61.76H85.28V58.4Z" fill="black"/>
<path d="M21.44 61.76H18.08V65.12H21.44V61.76Z" fill="black"/>
<path d="M24.8 61.76H21.44V65.12H24.8V61.76Z" fill="black"/>
<path d="M28.16 61.76H24.8V65.12H28.16V61.76Z" fill="black"/>
<path d="M31.52 61.76H28.16V65.12H31.52V61.76Z" fill="black"/>
<path d="M38.24 61.76H34.88V65.12H38.24V61.76Z" fill="black"/>
<path d="M41.6 61.76H38.24V65.12H41.6V61.76Z" fill="black"/>
<path d="M44.96 61.76H41.6V65.12H44.96V61.76Z" fill="black"/>
<path d="M48.32 61.76H44.96V65.12H48.32V61.76Z" fill="black"/>
<path d="M65.12 61.76H61.76V65.12H65.12V61.76Z" fill="black"/>
<path d="M68.48 61.76H65.12V65.12H68.48V61.76Z" fill="black"/>
<path d="M71.84 61.76H68.48V65.12H71.84V61.76Z" fill="black"/>
<path d="M75.2 61.76H71.84V65.12H75.2V61.76Z" fill="black"/>
<path d="M78.56 61.76H75.2V65.12H78.56V61.76Z" fill="black"/>
<path d="M81.92 61.76H78.56V65.12H81.92V61.76Z" fill="black"/>
<path d="M92 61.76H88.64V65.12H92V61.76Z" fill="black"/>
<path d="M41.6 65.12H38.24V68.48H41.6V65.12Z" fill="black"/>
<path d="M44.96 65.12H41.6V68.48H44.96V65.12Z" fill="black"/>
<path d="M55.04 65.12H51.68V68.48H55.04V65.12Z" fill="black"/>
<path d="M58.4 65.12H55.04V68.48H58.4V65.12Z" fill="black"/>
<path d="M61.76 65.12H58.4V68.48H61.76V65.12Z" fill="black"/>
<path d="M65.12 65.12H61.76V68.48H65.12V65.12Z" fill="black"/>
<path d="M78.56 65.12H75.2V68.48H78.56V65.12Z" fill="black"/>
<path d="M88.64 65.12H85.28V68.48H88.64V65.12Z" fill="black"/>
<path d="M92 65.12H88.64V68.48H92V65.12Z" fill="black"/>
<path d="M11.36 68.48H8V71.84H11.36V68.48Z" fill="black"/>
<path d="M14.72 68.48H11.36V71.84H14.72V68.48Z" fill="black"/>
<path d="M18.08 68.48H14.72V71.84H18.08V68.48Z" fill="black"/>
<path d="M21.44 68.48H18.08V71.84H21.44V68.48Z" fill="black"/>
<path d="M24.8 68.48H21.44V71.84H24.8V68.48Z" fill="black"/>
<path d="M28.16 68.48H24.8V71.84H28.16V68.48Z" fill="black"/>
<path d="M31.52 68.48H28.16V71.84H31.52V68.48Z" fill="black"/>
<path d="M38.24 68.48H34.88V71.84H38.24V68.48Z" fill="black"/>
<path d="M41.6 68.48H38.24V71.84H41.6V68.48Z" fill="black"/>
<path d="M51.68 68.48H48.32V71.84H51.68V68.48Z" fill="black"/>
<path d="M61.76 68.48H58.4L58.4 71.84H61.76V68.48Z" fill="black"/>
<path d="M65.12 68.48H61.76V71.84H65.12V68.48Z" fill="black"/>
<path d="M71.84 68.48H68.48V71.84H71.84V68.48Z" fill="black"/>
<path d="M78.56 68.48H75.2V71.84H78.56V68.48Z" fill="black"/>
<path d="M81.92 68.48H78.56V71.84H81.92V68.48Z" fill="black"/>
<path d="M85.28 68.48H81.92V71.84H85.28V68.48Z" fill="black"/>
<path d="M92 68.48H88.64V71.84H92V68.48Z" fill="black"/>
<path d="M11.36 71.84H8V75.2H11.36V71.84Z" fill="black"/>
<path d="M31.52 71.84H28.16L28.16 75.2H31.52V71.84Z" fill="black"/>
<path d="M44.96 71.84H41.6V75.2H44.96V71.84Z" fill="black"/>
<path d="M58.4 71.84H55.04V75.2H58.4L58.4 71.84Z" fill="black"/>
<path d="M61.76 71.84H58.4L58.4 75.2H61.76V71.84Z" fill="black"/>
<path d="M65.12 71.84H61.76V75.2H65.12V71.84Z" fill="black"/>
<path d="M78.56 71.84H75.2V75.2H78.56V71.84Z" fill="black"/>
<path d="M81.92 71.84H78.56V75.2H81.92V71.84Z" fill="black"/>
<path d="M85.28 71.84H81.92V75.2H85.28V71.84Z" fill="black"/>
<path d="M88.64 71.84H85.28V75.2H88.64V71.84Z" fill="black"/>
<path d="M92 71.84H88.64V75.2H92V71.84Z" fill="black"/>
<path d="M11.36 75.2H8V78.56H11.36V75.2Z" fill="black"/>
<path d="M18.08 75.2H14.72V78.56H18.08V75.2Z" fill="black"/>
<path d="M21.44 75.2H18.08V78.56H21.44V75.2Z" fill="black"/>
<path d="M24.8 75.2H21.44V78.56H24.8V75.2Z" fill="black"/>
<path d="M31.52 75.2H28.16V78.56H31.52V75.2Z" fill="black"/>
<path d="M38.24 75.2H34.88V78.56H38.24V75.2Z" fill="black"/>
<path d="M48.32 75.2H44.96V78.56H48.32V75.2Z" fill="black"/>
<path d="M65.12 75.2H61.76V78.56H65.12V75.2Z" fill="black"/>
<path d="M68.48 75.2H65.12V78.56H68.48V75.2Z" fill="black"/>
<path d="M71.84 75.2H68.48V78.56H71.84V75.2Z" fill="black"/>
<path d="M75.2 75.2H71.84V78.56H75.2V75.2Z" fill="black"/>
<path d="M78.56 75.2H75.2V78.56H78.56V75.2Z" fill="black"/>
<path d="M81.92 75.2H78.56V78.56H81.92V75.2Z" fill="black"/>
<path d="M85.28 75.2H81.92V78.56H85.28V75.2Z" fill="black"/>
<path d="M88.64 75.2H85.28V78.56H88.64V75.2Z" fill="black"/>
<path d="M11.36 78.56H8V81.92H11.36V78.56Z" fill="black"/>
<path d="M18.08 78.56H14.72V81.92H18.08V78.56Z" fill="black"/>
<path d="M21.44 78.56H18.08V81.92H21.44V78.56Z" fill="black"/>
<path d="M24.8 78.56H21.44V81.92H24.8V78.56Z" fill="black"/>
<path d="M31.52 78.56H28.16V81.92H31.52V78.56Z" fill="black"/>
<path d="M38.24 78.56H34.88V81.92H38.24V78.56Z" fill="black"/>
<path d="M44.96 78.56H41.6V81.92H44.96V78.56Z" fill="black"/>
<path d="M58.4 78.56H55.04V81.92H58.4V78.56Z" fill="black"/>
<path d="M68.48 78.56H65.12V81.92H68.48V78.56Z" fill="black"/>
<path d="M78.56 78.56H75.2V81.92H78.56V78.56Z" fill="black"/>
<path d="M81.92 78.56H78.56V81.92H81.92V78.56Z" fill="black"/>
<path d="M85.28 78.56H81.92V81.92H85.28V78.56Z" fill="black"/>
<path d="M88.64 78.56H85.28V81.92H88.64V78.56Z" fill="black"/>
<path d="M11.36 81.92H8V85.28H11.36V81.92Z" fill="black"/>
<path d="M18.08 81.92H14.72V85.28H18.08V81.92Z" fill="black"/>
<path d="M21.44 81.92H18.08V85.28H21.44V81.92Z" fill="black"/>
<path d="M24.8 81.92H21.44V85.28H24.8V81.92Z" fill="black"/>
<path d="M31.52 81.92H28.16V85.28H31.52V81.92Z" fill="black"/>
<path d="M38.24 81.92H34.88V85.28H38.24V81.92Z" fill="black"/>
<path d="M41.6 81.92H38.24V85.28H41.6V81.92Z" fill="black"/>
<path d="M55.04 81.92H51.68V85.28H55.04V81.92Z" fill="black"/>
<path d="M68.48 81.92H65.12V85.28H68.48V81.92Z" fill="black"/>
<path d="M71.84 81.92H68.48V85.28H71.84V81.92Z" fill="black"/>
<path d="M85.28 81.92H81.92V85.28H85.28V81.92Z" fill="black"/>
<path d="M11.36 85.28H8V88.64H11.36V85.28Z" fill="black"/>
<path d="M31.52 85.28H28.16V88.64H31.52V85.28Z" fill="black"/>
<path d="M38.24 85.28H34.88V88.64H38.24V85.28Z" fill="black"/>
<path d="M41.6 85.28H38.24V88.64H41.6V85.28Z" fill="black"/>
<path d="M44.96 85.28H41.6V88.64H44.96V85.28Z" fill="black"/>
<path d="M48.32 85.28H44.96V88.64H48.32V85.28Z" fill="black"/>
<path d="M58.4 85.28H55.04V88.64H58.4V85.28Z" fill="black"/>
<path d="M61.76 85.28H58.4V88.64H61.76V85.28Z" fill="black"/>
<path d="M65.12 85.28H61.76V88.64H65.12V85.28Z" fill="black"/>
<path d="M71.84 85.28H68.48V88.64H71.84V85.28Z" fill="black"/>
<path d="M75.2 85.28H71.84V88.64H75.2V85.28Z" fill="black"/>
<path d="M81.92 85.28H78.56V88.64H81.92V85.28Z" fill="black"/>
<path d="M88.64 85.28H85.28V88.64H88.64V85.28Z" fill="black"/>
<path d="M92 85.28H88.64V88.64H92V85.28Z" fill="black"/>
<path d="M11.36 88.64H8V92H11.36V88.64Z" fill="black"/>
<path d="M14.72 88.64H11.36V92H14.72V88.64Z" fill="black"/>
<path d="M18.08 88.64H14.72V92H18.08V88.64Z" fill="black"/>
<path d="M21.44 88.64H18.08V92H21.44V88.64Z" fill="black"/>
<path d="M24.8 88.64H21.44V92H24.8V88.64Z" fill="black"/>
<path d="M28.16 88.64H24.8V92H28.16L28.16 88.64Z" fill="black"/>
<path d="M31.52 88.64H28.16L28.16 92H31.52V88.64Z" fill="black"/>
<path d="M38.24 88.64H34.88V92H38.24V88.64Z" fill="black"/>
<path d="M41.6 88.64H38.24V92H41.6V88.64Z" fill="black"/>
<path d="M44.96 88.64H41.6V92H44.96V88.64Z" fill="black"/>
<path d="M48.32 88.64H44.96V92H48.32V88.64Z" fill="black"/>
<path d="M51.68 88.64H48.32V92H51.68V88.64Z" fill="black"/>
<path d="M55.04 88.64H51.68V92H55.04V88.64Z" fill="black"/>
<path d="M58.4 88.64H55.04V92H58.4V88.64Z" fill="black"/>
<path d="M65.12 88.64H61.76V92H65.12V88.64Z" fill="black"/>
<path d="M68.48 88.64H65.12V92H68.48V88.64Z" fill="black"/>
<path d="M71.84 88.64H68.48V92H71.84V88.64Z" fill="black"/>
<path d="M75.2 88.64H71.84V92H75.2V88.64Z" fill="black"/>
<path d="M85.28 88.64H81.92V92H85.28V88.64Z" fill="black"/>
<path d="M92 88.64H88.64V92H92V88.64Z" fill="black"/>
</g>
<defs>
<clipPath id="clip0_970_6252">
<rect width="100" height="100" fill="white"/>
</clipPath>
</defs>
</svg>
