<svg width="20" height="20" viewBox="0 0 20 20" fill="none" xmlns="http://www.w3.org/2000/svg">
<path d="M13.968 3C14.3167 3 14.6118 3.10036 14.8704 3.30664L14.9788 3.40137C15.2273 3.63749 15.3752 3.91623 15.425 4.25488L15.4397 4.4043L16.1379 17H7.73462L7.71216 16.6357L7.17212 7.83496L6.35767 7.7627L6.9856 5.23242L7.00415 5.15625L6.99829 5.07715L6.95728 4.49316V4.49219L6.93872 4.33105C6.8832 3.96039 6.73157 3.62698 6.47876 3.34668C6.34501 3.1984 6.19217 3.08415 6.02563 3H13.968ZM9.35571 9.90234C9.35571 10.2638 9.45279 10.599 9.64673 10.8945L9.7356 11.0186C9.90117 11.2306 10.1025 11.3949 10.3333 11.5117V14.8584H12.3108V11.5078C12.5345 11.3909 12.7306 11.2286 12.8958 11.0234C13.1564 10.6995 13.2883 10.3191 13.2883 9.90234V6.74414H12.1428V6.74316H9.35571V9.90234Z" stroke="#344054"/>
</svg>
