<svg width="20" height="20" viewBox="0 0 20 20" fill="none" xmlns="http://www.w3.org/2000/svg">
<path d="M1.78695 4.52708L1.16958 4.62443L1.78695 4.52708ZM2.16862 6.94761L1.55125 7.04496L2.16862 6.94761ZM6.54947 4.52708L5.9321 4.42973L6.54947 4.52708ZM6.1678 6.94761L5.55043 6.85027L5.55043 6.85027L6.1678 6.94761ZM6.48586 2.96338L6.03438 3.39557L6.03438 3.39557L6.48586 2.96338ZM1.85057 2.96338L1.39909 2.53118L1.85057 2.96338ZM4.79206 8.33315C4.79206 7.98798 4.51224 7.70815 4.16706 7.70815C3.82188 7.70815 3.54206 7.98798 3.54206 8.33315H4.16706H4.79206ZM3.54206 17.4998C3.54206 17.845 3.82188 18.1248 4.16706 18.1248C4.51224 18.1248 4.79206 17.845 4.79206 17.4998H4.16706H3.54206ZM1.78695 4.52708L1.16958 4.62443L1.55125 7.04496L2.16862 6.94761L2.78599 6.85027L2.40432 4.42973L1.78695 4.52708ZM6.54947 4.52708L5.9321 4.42973L5.55043 6.85027L6.1678 6.94761L6.78518 7.04496L7.16685 4.62443L6.54947 4.52708ZM3.93185 8.33309V8.95809H4.40458V8.33309V7.70809H3.93185V8.33309ZM6.54947 4.52708L7.16685 4.62443C7.23115 4.21661 7.2926 3.83842 7.29321 3.52942C7.29387 3.19518 7.22562 2.83233 6.93734 2.53118L6.48586 2.96338L6.03438 3.39557C6.03483 3.39605 6.03301 3.39412 6.03093 3.39055C6.02893 3.38712 6.02919 3.38647 6.03068 3.39122C6.03441 3.40313 6.04338 3.44117 6.04321 3.52694C6.04284 3.71598 6.00293 3.98054 5.9321 4.42973L6.54947 4.52708ZM1.78695 4.52708L2.40432 4.42973C2.33349 3.98054 2.29359 3.71598 2.29322 3.52694C2.29305 3.44117 2.30202 3.40313 2.30575 3.39122C2.30723 3.38647 2.3075 3.38712 2.30549 3.39055C2.30341 3.39412 2.30159 3.39605 2.30205 3.39557L1.85057 2.96338L1.39909 2.53118C1.1108 2.83233 1.04256 3.19518 1.04322 3.52942C1.04383 3.83842 1.10527 4.21661 1.16958 4.62443L1.78695 4.52708ZM2.16862 6.94761L1.55125 7.04496C1.6468 7.65096 1.80433 8.23042 2.28374 8.58926C2.73549 8.92739 3.33845 8.95809 3.93185 8.95809V8.33309V7.70809C3.29138 7.70809 3.10703 7.64411 3.03278 7.58854C2.98619 7.55367 2.87904 7.44039 2.78599 6.85027L2.16862 6.94761ZM6.1678 6.94761L5.55043 6.85027C5.45738 7.44039 5.35023 7.55367 5.30364 7.58854C5.22939 7.64411 5.04505 7.70809 4.40458 7.70809V8.33309V8.95809C4.99797 8.95809 5.60094 8.92739 6.05268 8.58926C6.53209 8.23042 6.68962 7.65096 6.78518 7.04496L6.1678 6.94761ZM6.48586 2.96338L6.93734 2.53118C6.77231 2.3588 6.55462 2.2541 6.37511 2.18624C6.18208 2.11326 5.96198 2.05705 5.73457 2.01365C5.27863 1.92664 4.73726 1.8807 4.20397 1.8753C3.67111 1.8699 3.12214 1.90471 2.65225 1.98943C2.4176 2.03174 2.18832 2.08902 1.98464 2.16699C1.79016 2.24143 1.56953 2.35314 1.39909 2.53118L1.85057 2.96338L2.30205 3.39557C2.28919 3.409 2.31436 3.37923 2.43153 3.33437C2.53949 3.29304 2.68772 3.25319 2.87405 3.2196C3.24615 3.15251 3.71313 3.12039 4.19131 3.12523C4.66906 3.13007 5.13384 3.17157 5.50026 3.24149C5.68402 3.27656 5.82916 3.31619 5.93308 3.35547C6.05049 3.39986 6.06143 3.42384 6.03438 3.39557L6.48586 2.96338ZM4.16706 8.33315H3.54206L3.54206 17.4998H4.16706H4.79206L4.79206 8.33315H4.16706Z" fill="#344054"/>
<path d="M10.0017 11.6664L10.0017 2.49976M10.0017 11.6664C8.621 11.6664 7.50171 12.8626 7.50171 13.8539C7.50171 15.3123 8.621 17.4998 10.0017 17.4998C11.3824 17.4998 12.5017 15.3123 12.5017 13.8539C12.5017 12.8626 11.3824 11.6664 10.0017 11.6664Z" stroke="#344054" stroke-width="1.25" stroke-linecap="round"/>
<path d="M15.0017 2.49976L15.2081 1.90983C15.017 1.84293 14.8052 1.87283 14.64 1.99003C14.4749 2.10724 14.3767 2.29722 14.3767 2.49976L15.0017 2.49976ZM14.3767 17.4998C14.3767 17.8449 14.6565 18.1248 15.0017 18.1248C15.3469 18.1248 15.6267 17.8449 15.6267 17.4998H15.0017H14.3767ZM17.7994 5.68382L17.1784 5.75497L17.7994 5.68382ZM18.3178 10.2088L18.9387 10.1377L18.9387 10.1377L18.3178 10.2088ZM16.4439 11.5369L16.4415 10.9119H16.4415L16.4439 11.5369ZM14.7355 11.1009C14.4232 11.2479 14.2892 11.6203 14.4362 11.9326C14.5832 12.2449 14.9556 12.3789 15.2679 12.2319L15.0017 11.6664L14.7355 11.1009ZM15.0017 2.49976L14.3767 2.49976L14.3767 17.4998H15.0017H15.6267L15.6267 2.49976L15.0017 2.49976ZM17.7994 5.68382L17.1784 5.75497L17.6969 10.2799L18.3178 10.2088L18.9387 10.1377L18.4203 5.61268L17.7994 5.68382ZM16.4439 11.5369L16.4415 10.9119C16.0581 10.9134 15.739 10.9143 15.4837 10.9325C15.2285 10.9508 14.9727 10.9893 14.7355 11.1009L15.0017 11.6664L15.2679 12.2319C15.2962 12.2186 15.3693 12.1939 15.5727 12.1794C15.776 12.1648 16.0453 12.1635 16.4464 12.1619L16.4439 11.5369ZM17.7994 5.68382L18.4203 5.61268C18.2038 3.7231 16.8969 2.50074 15.2081 1.90983L15.0017 2.49976L14.7953 3.08969C16.1629 3.56821 17.0307 4.46565 17.1784 5.75497L17.7994 5.68382ZM18.3178 10.2088L17.6969 10.2799C17.7279 10.5509 17.6972 10.6797 17.676 10.7307C17.6635 10.7609 17.6509 10.7787 17.6014 10.803C17.5317 10.8372 17.4085 10.8706 17.1954 10.8899C16.9852 10.909 16.7408 10.9108 16.4415 10.9119L16.4439 11.5369L16.4463 12.1619C16.7327 12.1608 17.0341 12.1597 17.3085 12.1348C17.5802 12.1101 17.8804 12.0583 18.1517 11.9254C18.443 11.7825 18.6888 11.5513 18.8305 11.2099C18.9635 10.8894 18.983 10.524 18.9387 10.1377L18.3178 10.2088Z" fill="#344054"/>
</svg>
