<svg width="24" height="29" viewBox="0 0 24 29" fill="none" xmlns="http://www.w3.org/2000/svg">
<path fill-rule="evenodd" clip-rule="evenodd" d="M20.1372 15.7535C20.1656 13.5495 21.321 11.5136 23.1988 10.3592C22.0088 8.65976 20.0872 7.62089 18.0135 7.55601C15.8319 7.32702 13.7169 8.86147 12.6051 8.86147C11.4719 8.86147 9.76022 7.57875 7.91703 7.61667C5.49187 7.69502 3.28577 9.04044 2.10588 11.1607C-0.406742 15.5109 1.46745 21.9042 3.87433 25.4206C5.07855 27.1425 6.48593 29.0659 8.32746 28.9977C10.1295 28.9229 10.8025 27.8486 12.9778 27.8486C15.1328 27.8486 15.7642 28.9977 17.6431 28.9543C19.5768 28.9229 20.7951 27.2248 21.9571 25.4866C22.8223 24.2597 23.4881 22.9037 23.9298 21.4689C21.6332 20.4975 20.1398 18.2471 20.1372 15.7535Z" fill="#0B0A17"/>
<path fill-rule="evenodd" clip-rule="evenodd" d="M16.5885 5.24199C17.6428 3.97631 18.1622 2.3495 18.0365 0.707031C16.4257 0.876212 14.9378 1.64606 13.8692 2.86317C12.8141 4.06402 12.2795 5.63505 12.3833 7.23024C14.0157 7.24704 15.5656 6.51424 16.5885 5.24199Z" fill="#0B0A17"/>
</svg>
