<svg width="48" height="48" viewBox="0 0 48 48" fill="none" xmlns="http://www.w3.org/2000/svg">
<path d="M24.444 39.7098C24.084 40.0698 23.444 40.1298 23.024 39.7098C22.664 39.3498 22.604 38.7098 23.024 38.2898L29.804 31.5098L26.984 28.6898L20.204 35.4698C19.824 35.8698 19.184 35.8498 18.784 35.4698C18.364 35.0498 18.424 34.4098 18.784 34.0498L25.564 27.2698L22.744 24.4498L15.964 31.2298C15.604 31.5898 14.964 31.6498 14.544 31.2298C14.164 30.8498 14.164 30.2098 14.544 29.8098L21.324 23.0298L18.484 20.2098L11.704 26.9898C11.344 27.3498 10.704 27.4098 10.284 26.9898C9.90397 26.5898 9.90397 25.9698 10.284 25.5698L19.044 16.8098L22.784 20.5298C24.684 22.4298 27.964 22.4098 29.864 20.5298C31.824 18.5698 31.824 15.4098 29.864 13.4498L26.144 9.72977L26.704 9.16976C28.264 7.60977 30.804 7.60977 32.364 9.16976L40.844 17.6498C42.404 19.2098 42.404 21.7498 40.844 23.3098L24.444 39.7098ZM43.664 26.1498C46.784 23.0298 46.784 17.9698 43.664 14.8298L35.184 6.34977C32.064 3.22977 27.004 3.22977 23.864 6.34977L23.304 6.90977L22.744 6.34977C19.624 3.22977 14.564 3.22977 11.424 6.34977L4.34397 13.4298C1.50397 16.2698 1.24397 20.6898 3.54397 23.8098L6.44397 20.9098C5.66397 19.4098 5.92397 17.5098 7.18397 16.2498L14.264 9.16976C15.824 7.60977 18.364 7.60977 19.924 9.16976L27.044 16.2898C27.404 16.6498 27.464 17.2898 27.044 17.7098C26.624 18.1298 25.984 18.0698 25.624 17.7098L19.044 11.1498L7.44397 22.7298C5.48397 24.6698 5.48397 27.8498 7.44397 29.8098C8.22397 30.5898 9.22397 31.0698 10.284 31.2098C10.424 32.2498 10.884 33.2498 11.684 34.0498C12.484 34.8498 13.484 35.3098 14.524 35.4498C14.664 36.4898 15.124 37.4898 15.924 38.2898C16.724 39.0898 17.724 39.5498 18.764 39.6898C18.904 40.7698 19.384 41.7498 20.164 42.5298C21.104 43.4698 22.364 43.9898 23.704 43.9898C25.044 43.9898 26.304 43.4698 27.244 42.5298L43.664 26.1498Z" fill="#5855B3"/>
</svg>
