<svg width="162" height="42" viewBox="0 0 162 42" fill="none" xmlns="http://www.w3.org/2000/svg">
<path d="M74.5253 10.2287H67.9097L58.1587 21.7969V9.94189H52.6091V34.7991H58.1587V22.7529L67.9724 34.7991H75.0269L64.3354 22.0199L74.5253 10.2287Z" fill="white"/>
<path d="M91.864 12.9698C91.1742 12.1412 90.3277 11.472 89.3557 10.9302C87.9134 10.1335 86.2831 9.71924 84.4332 9.71924C82.2384 9.71924 80.2632 10.2929 78.5074 11.4401C76.7516 12.5874 75.3407 14.1171 74.3373 16.061C73.3027 18.005 72.801 20.172 72.801 22.594C72.801 24.9841 73.3027 27.1511 74.3373 29.0632C75.372 31.0072 76.7516 32.505 78.5074 33.6523C80.2632 34.7676 82.2384 35.3413 84.4332 35.3413C86.2831 35.3413 87.9134 34.927 89.3871 34.1303C90.359 33.5885 91.1742 32.9193 91.864 32.1226V34.8314H97.4136V10.2291H91.864V12.9698ZM90.3277 27.8841C89.0735 29.2863 87.4118 29.9874 85.3738 29.9874C84.0256 29.9874 82.8342 29.6687 81.8309 29.0314C80.7962 28.394 80.0123 27.5336 79.4166 26.3863C78.8209 25.2709 78.5387 23.9643 78.5387 22.4984C78.5387 21.0324 78.8209 19.7259 79.4166 18.6105C80.0123 17.4951 80.7962 16.6028 81.8309 15.9654C82.8655 15.328 84.0256 15.0094 85.3738 15.0094C86.7534 15.0094 87.9448 15.328 88.9795 15.9654C90.0141 16.6028 90.798 17.4632 91.3623 18.6105C91.9267 19.7259 92.2089 21.0324 92.2089 22.4984C92.2089 24.6973 91.5818 26.4819 90.3277 27.8841Z" fill="white"/>
<path d="M117.104 11.1214C115.693 10.1973 114.094 9.71924 112.275 9.71924C110.488 9.71924 108.889 10.1335 107.478 10.9621C106.537 11.5039 105.754 12.1731 105.095 13.0017V10.2291H99.5457V34.7995H105.095V20.6182C105.095 19.5346 105.315 18.5467 105.785 17.6863C106.255 16.8258 106.914 16.1566 107.76 15.6786C108.607 15.2006 109.547 14.9775 110.645 14.9775C112.244 14.9775 113.561 15.5192 114.595 16.5709C115.63 17.6226 116.132 18.9929 116.132 20.6182V34.7995H121.681V19.3753C121.681 17.7819 121.274 16.2204 120.458 14.7544C119.612 13.2566 118.515 12.0456 117.104 11.1214Z" fill="white"/>
<path d="M139.584 10.2297H133.784V0H128.234V10.2297H122.434V15.3605H128.234V34.8319H133.784V15.3605H136.355C136.511 15.0099 136.668 14.6912 136.825 14.3726C137.577 12.9704 138.518 11.6956 139.584 10.6121V10.2297Z" fill="white"/>
<path d="M156.013 10.2291V12.9698C155.324 12.1412 154.477 11.472 153.505 10.9302C152.063 10.1335 150.432 9.71924 148.583 9.71924C146.388 9.71924 144.413 10.2929 142.657 11.4401C140.901 12.5874 139.49 14.1171 138.487 16.061C137.452 18.005 136.95 20.172 136.95 22.594C136.95 24.9841 137.452 27.1511 138.487 29.0632C139.521 31.0072 140.901 32.505 142.657 33.6523C144.413 34.7676 146.388 35.3413 148.583 35.3413C150.432 35.3413 152.063 34.927 153.536 34.1303C154.508 33.5885 155.324 32.9193 156.013 32.1226V34.8314H161.563V10.2291H156.013ZM154.477 27.8841C153.223 29.2863 151.561 29.9874 149.523 29.9874C148.175 29.9874 146.984 29.6687 145.98 29.0314C144.946 28.394 144.162 27.5336 143.566 26.3863C142.97 25.2709 142.688 23.9643 142.688 22.4984C142.688 21.0324 142.97 19.7259 143.566 18.6105C144.162 17.4951 144.946 16.6028 145.98 15.9654C147.015 15.328 148.175 15.0094 149.523 15.0094C150.903 15.0094 152.094 15.328 153.129 15.9654C154.164 16.6028 154.947 17.4632 155.512 18.6105C156.076 19.7259 156.358 21.0324 156.358 22.4984C156.358 24.6973 155.731 26.4819 154.477 27.8841Z" fill="white"/>
<path d="M30.944 6.43937C30.944 5.89761 30.7246 5.64266 30.2856 5.67453C29.9721 5.7064 29.6272 5.73827 29.3137 5.80201C29.0628 5.83387 28.8434 5.86574 28.5925 5.89761C28.1849 5.96134 27.9655 6.15255 27.9655 6.56684C27.9655 6.69431 27.9655 6.85366 27.9655 6.98113C27.9655 17.1471 27.9655 27.313 27.9655 37.5109C27.9655 37.6065 27.9655 37.7021 27.9655 37.7977C27.9655 38.3076 28.0909 38.4669 28.5925 38.5625C29.1255 38.6581 29.6899 38.7218 30.2229 38.7856C30.7559 38.8493 30.9754 38.6262 30.9754 38.0845C30.9754 35.4076 30.9754 32.7306 30.9754 30.0537C30.9754 27.4405 30.9754 24.8592 30.9754 22.246C30.944 16.9559 30.944 11.6976 30.944 6.43937Z" fill="white"/>
<path d="M35.4275 8.54103C34.9258 8.5729 34.4242 8.63663 33.8912 8.70037C33.5776 8.73224 33.4209 8.92345 33.3582 9.21026C33.3268 9.3696 33.3582 9.49707 33.3582 9.65642C33.3582 17.9421 33.3582 26.2597 33.3582 34.5455C33.3582 35.374 33.4836 35.5334 34.3301 35.5971C34.7377 35.629 35.1453 35.6927 35.5529 35.7246C36.1486 35.7565 36.3681 35.5653 36.3681 34.9598C36.3681 30.6894 36.3681 26.3872 36.3681 22.1169C36.3681 17.8784 36.3681 13.6399 36.3681 9.40147C36.3681 8.63663 36.2113 8.47729 35.4275 8.54103Z" fill="white"/>
<path d="M24.5165 2.80391C23.137 3.05886 21.7574 3.28194 20.3779 3.50501C19.0297 3.72809 17.7128 3.95117 16.3646 4.17425C15.0164 4.39732 13.6996 4.6204 12.3514 4.84348C11.0032 5.06656 9.68631 5.28963 8.33811 5.51271C6.98991 5.73579 5.61035 5.95887 4.26215 6.18194C3.16477 6.37315 2.0674 6.56436 0.970024 6.75557C0.625134 6.81931 0.437012 7.04239 0.437012 7.39294C0.437012 7.45667 0.437012 7.55228 0.437012 7.61601C0.437012 17.3677 0.437012 27.1512 0.437012 36.9029C0.437012 37.2534 0.499719 37.5721 0.875962 37.6996C1.09544 37.7633 1.31491 37.7952 1.53439 37.8271C3.4156 38.1776 5.32817 38.4963 7.20938 38.8468C8.99653 39.1655 10.815 39.4842 12.6022 39.8029C14.3893 40.1216 16.1765 40.4721 17.9636 40.7908C19.5 41.0776 21.0049 41.3326 22.5413 41.5875C23.231 41.715 23.9208 41.8106 24.5793 41.9699C25.1436 42.0974 25.4885 41.8106 25.4885 41.237C25.4571 34.9589 25.4885 28.6809 25.4885 22.4029C25.4885 16.1567 25.4885 9.87865 25.4885 3.63249C25.5512 2.83578 25.1436 2.67644 24.5165 2.80391ZM21.5693 36.6161C21.5693 37.2534 21.3498 37.4765 20.7228 37.4128C19.5 37.2534 18.3085 37.0622 17.1171 36.9029C15.5808 36.6798 14.0445 36.4567 12.5395 36.2337C11.348 36.0743 10.1566 35.8831 8.96518 35.7238C7.42886 35.5007 5.89253 35.2776 4.38756 35.0545C3.72913 34.9589 3.60372 34.8315 3.60372 34.1622C3.60372 31.7084 3.60372 29.2545 3.60372 26.8007C3.60372 21.4468 3.60372 16.093 3.60372 10.7391C3.60372 10.0061 3.63508 9.94239 4.35621 9.84679C5.70441 9.65558 7.05261 9.49623 8.43217 9.33689C9.81173 9.17755 11.1599 8.98635 12.5395 8.82701C13.8877 8.66766 15.2359 8.47645 16.6154 8.31711C17.9636 8.15777 19.3119 7.99843 20.6287 7.80722C21.3812 7.71161 21.632 7.90283 21.632 8.66766C21.632 13.3204 21.632 17.9732 21.632 22.5941C21.5693 27.2468 21.5693 31.9314 21.5693 36.6161Z" fill="white"/>
</svg>
