<svg xmlns="http://www.w3.org/2000/svg" width="153" height="40" viewBox="0 0 153 40" fill="none">
  <path d="M70.3518 9.71326H64.0699L54.8107 20.698V9.44092H49.541V33.0445H54.8107V21.6058L64.1294 33.0445H70.8282L60.6758 20.9098L70.3518 9.71326Z" fill="#121212"/>
  <path d="M86.8158 12.3161C86.1608 11.5293 85.3569 10.8938 84.434 10.3794C83.0645 9.62289 81.5163 9.22949 79.7598 9.22949C77.6757 9.22949 75.8 9.77419 74.1328 10.8636C72.4655 11.953 71.1258 13.4055 70.1731 15.2514C69.1906 17.0973 68.7142 19.1551 68.7142 21.4549C68.7142 23.7245 69.1906 25.7822 70.1731 27.5979C71.1556 29.4438 72.4655 30.8661 74.1328 31.9555C75.8 33.0146 77.6757 33.5593 79.7598 33.5593C81.5163 33.5593 83.0645 33.1659 84.4638 32.4094C85.3867 31.895 86.1608 31.2595 86.8158 30.503V33.0751H92.0855V9.71367H86.8158V12.3161ZM85.3569 26.4782C84.166 27.8097 82.5881 28.4755 80.6529 28.4755C79.3727 28.4755 78.2414 28.1729 77.2887 27.5676C76.3062 26.9624 75.5619 26.1454 74.9962 25.056C74.4305 23.9968 74.1626 22.7561 74.1626 21.3641C74.1626 19.9721 74.4305 18.7314 74.9962 17.6723C75.5619 16.6132 76.3062 15.7659 77.2887 15.1606C78.2711 14.5554 79.3727 14.2528 80.6529 14.2528C81.9629 14.2528 83.0942 14.5554 84.0767 15.1606C85.0592 15.7659 85.8035 16.5829 86.3394 17.6723C86.8753 18.7314 87.1433 19.9721 87.1433 21.3641C87.1433 23.4521 86.5478 25.1468 85.3569 26.4782Z" fill="#121212"/>
  <path d="M110.783 10.561C109.443 9.68341 107.924 9.22949 106.198 9.22949C104.501 9.22949 102.982 9.62289 101.642 10.4097C100.749 10.9241 100.005 11.5596 99.3798 12.3464V9.71367H94.1101V33.0449H99.3798V19.5787C99.3798 18.5499 99.5882 17.6118 100.035 16.7947C100.481 15.9777 101.107 15.3422 101.91 14.8883C102.714 14.4344 103.607 14.2226 104.649 14.2226C106.168 14.2226 107.418 14.737 108.401 15.7356C109.383 16.7342 109.86 18.0354 109.86 19.5787V33.0449H115.129V18.3986C115.129 16.8855 114.742 15.4027 113.968 14.0107C113.164 12.5885 112.122 11.4385 110.783 10.561Z" fill="#121212"/>
  <path d="M132.129 9.71378H126.621V0H121.352V9.71378H115.844V14.5858H121.352V33.0753H126.621V14.5858H129.063C129.211 14.2529 129.36 13.9503 129.509 13.6477C130.224 12.3162 131.117 11.1058 132.129 10.0769V9.71378Z" fill="#121212"/>
  <path d="M147.73 9.71367V12.3161C147.075 11.5293 146.271 10.8938 145.348 10.3794C143.979 9.62289 142.431 9.22949 140.674 9.22949C138.59 9.22949 136.714 9.77419 135.047 10.8636C133.38 11.953 132.04 13.4055 131.088 15.2514C130.105 17.0973 129.629 19.1551 129.629 21.4549C129.629 23.7245 130.105 25.7822 131.088 27.5979C132.07 29.4438 133.38 30.8661 135.047 31.9555C136.714 33.0146 138.59 33.5593 140.674 33.5593C142.431 33.5593 143.979 33.1659 145.378 32.4094C146.301 31.895 147.075 31.2595 147.73 30.503V33.0751H153V9.71367H147.73ZM146.271 26.4782C145.08 27.8097 143.503 28.4755 141.567 28.4755C140.287 28.4755 139.156 28.1729 138.203 27.5676C137.221 26.9624 136.476 26.1454 135.911 25.056C135.345 23.9968 135.077 22.7561 135.077 21.3641C135.077 19.9721 135.345 18.7314 135.911 17.6723C136.476 16.6132 137.221 15.7659 138.203 15.1606C139.186 14.5554 140.287 14.2528 141.567 14.2528C142.877 14.2528 144.009 14.5554 144.991 15.1606C145.974 15.7659 146.718 16.5829 147.254 17.6723C147.79 18.7314 148.058 19.9721 148.058 21.3641C148.058 23.4521 147.462 25.1468 146.271 26.4782Z" fill="#121212"/>
  <path d="M28.9686 6.11355C28.9686 5.59912 28.7602 5.35703 28.3434 5.38729C28.0457 5.41755 27.7182 5.44781 27.4205 5.50833C27.1823 5.53859 26.9739 5.56885 26.7357 5.59911C26.3487 5.65964 26.1403 5.8412 26.1403 6.2346C26.1403 6.35564 26.1403 6.50695 26.1403 6.62799C26.1403 16.2812 26.1403 25.9345 26.1403 35.618C26.1403 35.7088 26.1403 35.7996 26.1403 35.8903C26.1403 36.3745 26.2593 36.5258 26.7357 36.6166C27.2418 36.7074 27.7777 36.7679 28.2839 36.8284C28.79 36.889 28.9984 36.6771 28.9984 36.1627C28.9984 33.6208 28.9984 31.0788 28.9984 28.5369C28.9984 26.0555 28.9984 23.6044 28.9984 21.123C28.9686 16.0997 28.9686 11.1066 28.9686 6.11355Z" fill="#5955B3"/>
  <path d="M33.2259 8.11021C32.7495 8.14047 32.2732 8.201 31.767 8.26152C31.4693 8.29178 31.3205 8.47335 31.2609 8.74569C31.2311 8.897 31.2609 9.01804 31.2609 9.16935C31.2609 17.0372 31.2609 24.9353 31.2609 32.8032C31.2609 33.5899 31.38 33.7413 32.1839 33.8018C32.5709 33.832 32.9579 33.8926 33.345 33.9228C33.9106 33.9531 34.119 33.7715 34.119 33.1966C34.119 29.1416 34.119 25.0564 34.119 21.0014C34.119 16.9767 34.119 12.952 34.119 8.92726C34.119 8.20099 33.9702 8.04969 33.2259 8.11021Z" fill="#121212"/>
  <path d="M22.8651 2.66228C21.5551 2.90437 20.2452 3.1162 18.9352 3.32803C17.655 3.53985 16.4045 3.75168 15.1243 3.96351C13.8441 4.17533 12.5937 4.38716 11.3135 4.59899C10.0333 4.81082 8.78282 5.02264 7.50262 5.23447C6.22241 5.44629 4.91243 5.65812 3.63222 5.86995C2.59019 6.05152 1.54816 6.23308 0.50613 6.41465C0.178635 6.47517 0 6.687 0 7.01987C0 7.08039 0 7.17117 0 7.23169C0 16.4916 0 25.7817 0 35.0415C0 35.3744 0.059545 35.677 0.416812 35.798C0.625218 35.8586 0.833626 35.8888 1.04203 35.9191C2.82837 36.252 4.64448 36.5546 6.43081 36.8874C8.12783 37.19 9.85462 37.4927 11.5516 37.7953C13.2487 38.0979 14.9457 38.4308 16.6427 38.7334C18.1015 39.0057 19.5306 39.2478 20.9895 39.4899C21.6445 39.6109 22.2994 39.7017 22.9247 39.853C23.4606 39.9741 23.7881 39.7017 23.7881 39.157C23.7583 33.1956 23.7881 27.2342 23.7881 21.2728C23.7881 15.3416 23.7881 9.38022 23.7881 3.44907C23.8476 2.69255 23.4606 2.54124 22.8651 2.66228ZM20.0665 34.7692C20.0665 35.3744 19.8581 35.5862 19.2627 35.5257C18.1015 35.3744 16.9702 35.1928 15.8389 35.0415C14.38 34.8297 12.9212 34.6179 11.4921 34.406C10.3608 34.2547 9.22941 34.0732 8.09806 33.9219C6.63922 33.71 5.18038 33.4982 3.75131 33.2864C3.12609 33.1956 3.007 33.0746 3.007 32.4391C3.007 30.109 3.007 27.7789 3.007 25.4488C3.007 20.365 3.007 15.2811 3.007 10.1973C3.007 9.50127 3.03678 9.44074 3.72154 9.34996C5.00175 9.1684 6.28195 9.01709 7.59193 8.86578C8.90191 8.71448 10.1821 8.53292 11.4921 8.38161C12.7723 8.23031 14.0525 8.04874 15.3625 7.89743C16.6427 7.74613 17.9229 7.59482 19.1733 7.41326C19.8879 7.32247 20.1261 7.50404 20.1261 8.23031C20.1261 12.6484 20.1261 17.0665 20.1261 21.4543C20.0665 25.8725 20.0665 30.3208 20.0665 34.7692Z" fill="#121212"/>
</svg>