<svg width="48" height="48" viewBox="0 0 48 48" fill="none" xmlns="http://www.w3.org/2000/svg">
<path d="M8.16998 35V33.7C8.16998 33.02 8.48998 32.38 8.98998 32.08C12.37 30.06 16.23 29 20.17 29C20.23 29 20.27 29 20.33 29.02C20.53 27.62 20.93 26.28 21.51 25.06C21.07 25.02 20.63 25 20.17 25C15.33 25 10.81 26.34 6.94998 28.64C5.18998 29.68 4.16998 31.64 4.16998 33.7V39H22.69C21.85 37.8 21.19 36.44 20.75 35H8.16998Z" fill="#5855B3"/>
<path d="M20.17 23C24.59 23 28.17 19.42 28.17 15C28.17 10.58 24.59 7 20.17 7C15.75 7 12.17 10.58 12.17 15C12.17 19.42 15.75 23 20.17 23ZM20.17 11C22.37 11 24.17 12.8 24.17 15C24.17 17.2 22.37 19 20.17 19C17.97 19 16.17 17.2 16.17 15C16.17 12.8 17.97 11 20.17 11Z" fill="#5855B3"/>
<path d="M41.67 31C41.67 30.56 41.61 30.16 41.55 29.74L43.83 27.72L41.83 24.26L38.93 25.24C38.29 24.7 37.57 24.28 36.77 23.98L36.17 21H32.17L31.57 23.98C30.77 24.28 30.05 24.7 29.41 25.24L26.51 24.26L24.51 27.72L26.79 29.74C26.73 30.16 26.67 30.56 26.67 31C26.67 31.44 26.73 31.84 26.79 32.26L24.51 34.28L26.51 37.74L29.41 36.76C30.05 37.3 30.77 37.72 31.57 38.02L32.17 41H36.17L36.77 38.02C37.57 37.72 38.29 37.3 38.93 36.76L41.83 37.74L43.83 34.28L41.55 32.26C41.61 31.84 41.67 31.44 41.67 31ZM34.17 35C31.97 35 30.17 33.2 30.17 31C30.17 28.8 31.97 27 34.17 27C36.37 27 38.17 28.8 38.17 31C38.17 33.2 36.37 35 34.17 35Z" fill="#5855B3"/>
</svg>
