<svg width="48" height="48" viewBox="0 0 48 48" fill="none" xmlns="http://www.w3.org/2000/svg">
<path d="M12 30C14.2 30 16 31.8 16 34C16 36.2 14.2 38 12 38C9.8 38 8 36.2 8 34C8 31.8 9.8 30 12 30ZM12 26C7.6 26 4 29.6 4 34C4 38.4 7.6 42 12 42C16.4 42 20 38.4 20 34C20 29.6 16.4 26 12 26ZM24 10C26.2 10 28 11.8 28 14C28 16.2 26.2 18 24 18C21.8 18 20 16.2 20 14C20 11.8 21.8 10 24 10ZM24 6C19.6 6 16 9.6 16 14C16 18.4 19.6 22 24 22C28.4 22 32 18.4 32 14C32 9.6 28.4 6 24 6ZM36 30C38.2 30 40 31.8 40 34C40 36.2 38.2 38 36 38C33.8 38 32 36.2 32 34C32 31.8 33.8 30 36 30ZM36 26C31.6 26 28 29.6 28 34C28 38.4 31.6 42 36 42C40.4 42 44 38.4 44 34C44 29.6 40.4 26 36 26Z" fill="#5855B3"/>
</svg>
