<svg width="24" height="20" viewBox="0 0 24 20" fill="none" xmlns="http://www.w3.org/2000/svg">
<path d="M2.76497 16.4166V15.6583C2.76497 15.2616 2.95164 14.8883 3.24331 14.7133C5.21497 13.5349 7.46664 12.9166 9.76497 12.9166C9.79997 12.9166 9.82331 12.9166 9.85831 12.9283C9.97497 12.1116 10.2083 11.3299 10.5466 10.6183C10.29 10.5949 10.0333 10.5833 9.76497 10.5833C6.94164 10.5833 4.30497 11.3649 2.05331 12.7066C1.02664 13.3133 0.431641 14.4566 0.431641 15.6583V18.7499H11.235C10.745 18.0499 10.36 17.2566 10.1033 16.4166H2.76497Z" fill="#167E6E"/>
<path d="M9.76497 9.41658C12.3433 9.41658 14.4316 7.32825 14.4316 4.74992C14.4316 2.17159 12.3433 0.083252 9.76497 0.083252C7.18664 0.083252 5.09831 2.17159 5.09831 4.74992C5.09831 7.32825 7.18664 9.41658 9.76497 9.41658ZM9.76497 2.41659C11.0483 2.41659 12.0983 3.46659 12.0983 4.74992C12.0983 6.03325 11.0483 7.08325 9.76497 7.08325C8.48164 7.08325 7.43164 6.03325 7.43164 4.74992C7.43164 3.46659 8.48164 2.41659 9.76497 2.41659Z" fill="#167E6E"/>
<path d="M22.3066 14.0833C22.3066 13.8266 22.2716 13.5933 22.2366 13.3483L23.5666 12.1699L22.4 10.1516L20.7083 10.7233C20.335 10.4083 19.915 10.1633 19.4483 9.98825L19.0983 8.24992H16.765L16.415 9.98825C15.9483 10.1633 15.5283 10.4083 15.155 10.7233L13.4633 10.1516L12.2966 12.1699L13.6266 13.3483C13.5916 13.5933 13.5566 13.8266 13.5566 14.0833C13.5566 14.3399 13.5916 14.5733 13.6266 14.8183L12.2966 15.9966L13.4633 18.0149L15.155 17.4433C15.5283 17.7583 15.9483 18.0033 16.415 18.1783L16.765 19.9166H19.0983L19.4483 18.1783C19.915 18.0033 20.335 17.7583 20.7083 17.4433L22.4 18.0149L23.5666 15.9966L22.2366 14.8183C22.2716 14.5733 22.3066 14.3399 22.3066 14.0833ZM17.9316 16.4166C16.6483 16.4166 15.5983 15.3666 15.5983 14.0833C15.5983 12.7999 16.6483 11.7499 17.9316 11.7499C19.215 11.7499 20.265 12.7999 20.265 14.0833C20.265 15.3666 19.215 16.4166 17.9316 16.4166Z" fill="#167E6E"/>
</svg>
