<svg width="21" height="12" viewBox="0 0 21 12" fill="none" xmlns="http://www.w3.org/2000/svg">
<path d="M5.87886 11.7077C5.97184 11.6148 6.04559 11.5045 6.09592 11.3831C6.14624 11.2617 6.17215 11.1316 6.17215 11.0002C6.17215 10.8688 6.14624 10.7387 6.09592 10.6173C6.04559 10.4959 5.97184 10.3856 5.87886 10.2927L2.58686 6.9997L19.9989 6.9927C20.2641 6.9927 20.5184 6.88735 20.706 6.69981C20.8935 6.51227 20.9989 6.25792 20.9989 5.9927C20.9989 5.72749 20.8935 5.47313 20.706 5.2856C20.5184 5.09806 20.2641 4.9927 19.9989 4.9927L2.58486 4.9997L5.87886 1.7077C6.0665 1.52019 6.17197 1.26583 6.17206 1.00056C6.17216 0.735286 6.06687 0.480843 5.87936 0.293202C5.69185 0.105562 5.43748 9.38336e-05 5.17221 6.25814e-08C4.90694 -9.37084e-05 4.6525 0.105195 4.46486 0.292703L0.87886 3.8787C0.60023 4.15728 0.379206 4.48802 0.22841 4.85203C0.0776144 5.21604 0 5.60619 0 6.0002C0 6.39421 0.0776144 6.78436 0.22841 7.14837C0.379206 7.51238 0.60023 7.84312 0.87886 8.1217L4.46486 11.7077C4.65239 11.8952 4.9067 12.0005 5.17186 12.0005C5.43702 12.0005 5.69133 11.8952 5.87886 11.7077Z" fill="black"/>
</svg>
