<svg width="48" height="32" viewBox="0 0 48 32" fill="none" xmlns="http://www.w3.org/2000/svg">
<g clip-path="url(#clip0_1394_2698)">
<path d="M25.7495 16.7113C25.0508 16.7113 24.4594 16.4694 23.9755 15.9854C23.4915 15.5014 23.2495 14.9101 23.2495 14.2114C23.2495 13.5127 23.4915 12.9213 23.9755 12.4374C24.4594 11.9534 25.0508 11.7114 25.7495 11.7114C26.4482 11.7114 27.0395 11.9534 27.5235 12.4374C28.0074 12.9213 28.2494 13.5127 28.2494 14.2114C28.2494 14.9101 28.0074 15.5014 27.5235 15.9854C27.0395 16.4694 26.4482 16.7113 25.7495 16.7113ZM19.1533 19.8075C18.6562 19.8075 18.2307 19.6305 17.8767 19.2765C17.5227 18.9225 17.3457 18.4969 17.3457 17.9998V10.4229C17.3457 9.92581 17.5227 9.50025 17.8767 9.14623C18.2307 8.79223 18.6562 8.61523 19.1533 8.61523H32.3456C32.8427 8.61523 33.2683 8.79223 33.6223 9.14623C33.9763 9.50025 34.1533 9.92581 34.1533 10.4229V17.9998C34.1533 18.4969 33.9763 18.9225 33.6223 19.2765C33.2683 19.6305 32.8427 19.8075 32.3456 19.8075H19.1533ZM20.6533 18.3075H30.8456C30.8456 17.8088 31.0226 17.3829 31.3766 17.0297C31.7306 16.6764 32.1562 16.4998 32.6533 16.4998V11.9229C32.1546 11.9229 31.7286 11.7459 31.3754 11.3919C31.0222 11.0379 30.8456 10.6123 30.8456 10.1152H20.6533C20.6533 10.6139 20.4763 11.0399 20.1223 11.3931C19.7683 11.7463 19.3427 11.9229 18.8456 11.9229V16.4998C19.3443 16.4998 19.7703 16.6768 20.1235 17.0309C20.4767 17.3849 20.6533 17.8104 20.6533 18.3075ZM31.1725 23.3075H15.6534C15.1563 23.3075 14.7307 23.1305 14.3767 22.7764C14.0227 22.4224 13.8457 21.9969 13.8457 21.4998V11.596H15.3457V21.4998C15.3457 21.5767 15.3777 21.6472 15.4418 21.7113C15.5059 21.7754 15.5764 21.8075 15.6534 21.8075H31.1725V23.3075ZM19.1533 18.3075H18.8456V10.1152H19.1533C19.07 10.1152 18.9979 10.1457 18.937 10.2066C18.8761 10.2675 18.8456 10.3396 18.8456 10.4229V17.9998C18.8456 18.0831 18.8761 18.1553 18.937 18.2162C18.9979 18.2771 19.07 18.3075 19.1533 18.3075Z" fill="#121212"/>
</g>
<rect x="0.5" y="0.5" width="47" height="31" rx="4.5" stroke="#E7E7E7"/>
<defs>
<clipPath id="clip0_1394_2698">
<rect width="48" height="32" rx="5" fill="white"/>
</clipPath>
</defs>
</svg>
