<svg width="111" height="136" viewBox="0 0 111 136" fill="none" xmlns="http://www.w3.org/2000/svg">
<g clip-path="url(#clip0_195_1756)">
<path d="M34.541 44.5284C30.2654 40.034 26.6109 35.1457 24.8844 29.0584C24.3133 27.0372 24.2163 24.911 24.6011 22.846C24.9858 20.7809 25.8417 18.833 27.1021 17.1544C28.3625 15.4758 29.9932 14.112 31.8666 13.1696C33.7401 12.2272 35.8055 11.7316 37.9017 11.7216C42.626 11.6825 46.2563 13.6821 49.1043 17.3329C49.2988 17.6047 49.5127 17.862 49.7444 18.1027C49.9618 18.3447 50.2284 18.5372 50.5263 18.6671C50.8242 18.797 51.1464 18.8613 51.4712 18.8557C51.7961 18.8501 52.116 18.7747 52.4093 18.6346C52.7025 18.4946 52.9623 18.2931 53.1712 18.0437C53.9573 17.2098 54.5879 16.2398 55.4412 15.4636C59.2437 11.9994 63.674 10.8614 68.5878 12.256C73.4529 13.6385 76.5896 16.9115 77.9979 21.8043C77.6266 25.176 76.2811 28.1988 74.6603 31.1209C72.31 35.2938 69.0571 38.8863 65.1404 41.6349C61.2238 44.3834 56.7427 46.2182 52.026 47.0047C50.2829 47.2902 48.5187 47.4273 46.7525 47.4146C43.091 47.3836 39.4666 46.6751 36.0619 45.3246C35.5268 45.1045 35.0934 44.7106 34.541 44.5284Z" fill="#C1272E"/>
<path d="M34.5439 44.5284C34.8535 44.4974 35.1658 44.5474 35.4504 44.6734C38.5904 46.0256 41.9454 46.8076 45.3586 46.9828C50.6734 47.3335 55.9855 46.2589 60.7484 43.8696C66.7075 40.928 71.5942 36.1849 74.7183 30.31C76.0457 27.8721 77.0241 25.259 77.6245 22.5477C77.6834 22.2764 77.7135 21.9704 78.0003 21.8029C78.8046 24.7556 78.6248 27.8907 77.4881 30.7315C75.7424 35.5338 72.8209 39.5843 69.4691 43.3596C65.5469 47.879 60.9847 51.7978 55.928 54.9908C55.0115 55.5517 54.0529 56.0405 53.0608 56.4528C52.5452 56.6762 51.9889 56.7904 51.4272 56.7884C50.8654 56.7865 50.3101 56.6683 49.796 56.4413C47.2889 55.3156 44.9389 53.8675 42.805 52.1335C39.9525 49.9626 37.2921 47.5491 34.8537 44.9197C34.7359 44.8004 34.6457 44.6593 34.5439 44.5284Z" fill="#940608"/>
<path d="M62.6585 0.499054C64.0028 1.53702 64.1616 3.08369 64.3786 4.59381C64.4204 5.02186 64.43 5.45246 64.4073 5.88196C64.3971 6.71592 64.5591 7.46456 65.3779 7.88154C66.2101 8.30558 66.8956 7.95788 67.528 7.41453C67.6436 7.38736 67.7633 7.38363 67.8803 7.40357C67.9973 7.42352 68.1092 7.46672 68.2093 7.53064C69.2664 8.04649 70.4824 8.12907 71.5993 7.76087C72.7161 7.39266 73.6458 6.60266 74.1908 5.55864C74.3252 5.28856 74.4046 4.95049 74.831 5.04094C75.5991 7.0386 75.112 8.59554 73.3241 9.75411C72.8366 10.056 72.3294 10.325 71.8062 10.5592C71.5488 10.6919 71.2649 10.7645 70.9755 10.7717C70.6862 10.779 70.399 10.7206 70.1354 10.6009C67.4365 9.31788 64.6436 9.55588 61.8494 10.1095C58.4172 10.7978 55.3355 12.6732 53.1434 15.4077C53.0686 15.5356 52.9681 15.6463 52.848 15.7328C52.7279 15.8192 52.5909 15.8795 52.4462 15.9097C52.3014 15.94 52.152 15.9395 52.0075 15.9082C51.8629 15.877 51.7266 15.8158 51.6071 15.7285C50.7528 15.2987 49.9443 14.7828 49.1943 14.1889C49.3089 13.5435 49.8395 13.7603 50.2102 13.7334C50.4547 13.7489 50.6998 13.7112 50.9285 13.623C51.1572 13.5347 51.3641 13.398 51.5352 13.2222C51.7062 13.0464 51.8374 12.8356 51.9196 12.6043C52.0019 12.373 52.0331 12.1266 52.0115 11.882C52.0733 11.1402 51.8541 10.4023 51.3977 9.81505C51.3394 9.74 51.2843 9.66302 51.2242 9.58924C51.0705 9.40256 50.9131 9.20819 51.0104 8.94773C51.1294 8.63468 51.4194 8.80981 51.6313 8.75528C52.4522 8.92323 53.2092 9.31966 53.8155 9.89909C54.0885 10.1664 54.405 10.3851 54.7514 10.5457C54.9923 10.652 55.2561 10.6958 55.5183 10.6731C55.7805 10.6505 56.0328 10.5621 56.252 10.4161C56.4712 10.2701 56.6502 10.0712 56.7726 9.83771C56.895 9.6042 56.9567 9.3436 56.9522 9.07988C56.9586 8.2966 56.8512 7.51332 56.7936 6.73003C56.8797 6.6279 57.0005 6.56139 57.1327 6.54338C57.2649 6.52537 57.399 6.55713 57.5092 6.63252C60.1396 8.09132 61.9512 6.05902 62.3308 3.80988C62.487 3.03489 62.5058 2.23838 62.3864 1.45683C62.3237 1.1226 62.2603 0.730639 62.6585 0.499054Z" fill="#E22006"/>
<path d="M62.6597 0.498426C62.7109 1.63261 62.9605 2.76231 62.6737 3.90356C62.5104 4.8454 62.0915 5.72405 61.4631 6.44329C60.9916 6.99048 60.341 7.35135 59.6279 7.46116C58.9148 7.57097 58.1861 7.42253 57.5724 7.04246C57.324 6.91416 57.1089 6.69477 56.7933 6.73069C56.5667 4.90944 56.6654 3.14722 57.7715 1.58386C58.3018 0.821356 59.0987 0.286503 60.0042 0.0854356C60.9097 -0.115632 61.8576 0.0317826 62.6597 0.498426Z" fill="#EF5A28"/>
<path d="M74.8305 5.04097C74.3427 5.95768 73.9516 6.90519 72.9689 7.49731C71.7906 8.19058 70.4144 8.46795 69.0602 8.28508C68.4786 8.14401 67.948 7.84269 67.5283 7.41519C68.552 6.08841 69.7881 4.94081 71.1862 4.01904C71.3845 3.88591 71.5898 3.76363 71.8013 3.65274C73.4433 2.78735 74.3715 3.21267 74.8305 5.04097Z" fill="#EF5A28"/>
<path d="M51.6289 8.75657C51.2327 8.87461 51.0771 8.99392 51.4612 9.38589C51.9037 9.82435 52.2066 10.3843 52.3319 10.9951C52.4572 11.6058 52.3992 12.2401 52.1653 12.818C52.0488 13.2113 51.7996 13.5519 51.4603 13.7816C51.121 14.0113 50.7127 14.1158 50.305 14.0772C49.935 14.0772 49.5433 13.9566 49.1918 14.1863C48.3443 13.4287 47.4474 12.6826 47.8712 11.3476C48.0901 10.6207 48.5187 9.97482 49.103 9.49139C49.6874 9.00797 50.4015 8.70855 51.1552 8.63083C51.3182 8.65052 51.4776 8.69284 51.6289 8.75657Z" fill="#EF5A28"/>
<path d="M79.5999 25.9798C79.5596 24.8828 79.3945 23.7935 79.4393 22.6914C79.463 22.132 79.6397 21.9556 80.2312 22.03C81.9295 22.2411 83.5874 22.5176 84.9285 23.7102C85.0156 23.7891 85.0918 23.8827 85.1718 23.9668C85.209 24.5704 84.7186 24.8424 84.3646 25.1612C83.1336 26.2678 81.642 26.4443 80.0718 26.2768C79.883 26.2405 79.7146 26.1345 79.5999 25.9798Z" fill="#F4EC25"/>
<path d="M79.5998 25.9798C80.5244 26.029 81.4517 25.986 82.3679 25.8515C83.5426 25.5628 84.3343 24.7379 85.1735 23.9674C85.8521 24.4686 86.3291 25.1969 86.5179 26.0202C86.6459 26.4513 86.505 26.6771 86.0876 26.7259C85.1914 26.8253 84.2953 26.937 83.3914 26.9825C82.4632 27.0268 81.5312 27.0011 80.6005 26.9998C79.637 26.9928 79.5966 26.9498 79.5998 25.9798Z" fill="#EBDC05"/>
<path d="M70.7102 21.8074C70.699 22.2477 70.5581 22.6749 70.3053 23.0351C70.0525 23.3954 69.699 23.6727 69.2893 23.8323C68.8796 23.9918 68.432 24.0264 68.0027 23.9317C67.5735 23.837 67.1818 23.6173 66.8769 23.3001C66.5719 22.983 66.3673 22.5825 66.2888 22.1492C66.2103 21.7158 66.2614 21.2689 66.4357 20.8645C66.6099 20.4602 66.8996 20.1165 67.2682 19.8767C67.6368 19.6368 68.0681 19.5116 68.5076 19.5166C68.8061 19.5086 69.1031 19.563 69.3795 19.6764C69.6559 19.7898 69.9057 19.9597 70.1129 20.1753C70.3202 20.3908 70.4803 20.6473 70.5832 20.9283C70.686 21.2093 70.7293 21.5087 70.7102 21.8074Z" fill="#EFB519"/>
<path d="M69.5996 79.8455C69.5247 81.7527 69.5996 83.5463 69.4249 85.3374C69.2124 87.5019 69.2456 87.5077 67.1011 87.5038C66.3124 87.5038 65.5251 87.4852 64.7326 87.4839C64.4317 87.4839 64.1437 87.4551 64.0157 87.133C63.9451 86.9789 63.9234 86.8067 63.9538 86.6399C63.9841 86.473 64.0649 86.3195 64.1852 86.2003C64.5162 85.8551 64.8682 85.5318 65.1953 85.1841C65.4164 84.9775 65.5585 84.6999 65.597 84.3995C65.6354 84.099 65.5678 83.7945 65.406 83.5387C65.3893 83.4937 65.3677 83.4507 65.3419 83.4103C63.9714 81.8765 64.0239 80.0104 64.0649 78.1269C64.1257 75.4723 64.1846 72.8145 64.0194 70.1613C63.9874 69.6481 64.1237 69.3664 64.6947 69.3016C65.7606 69.181 66.8155 68.9725 67.882 68.8404C68.688 68.7397 69.0305 69.0386 69.1156 69.8565C69.1796 70.475 69.2142 71.0953 69.2603 71.7169C69.2744 71.9049 69.236 72.1307 69.4402 72.2256C69.6444 72.3206 69.8006 72.1493 69.9484 72.037C71.1788 71.0465 72.2713 69.8955 73.1971 68.6146C74.3923 67.075 74.5415 67.075 75.8704 68.5453C76.3025 69.0239 76.7667 69.4755 77.2404 69.9124C77.9164 70.5346 77.958 70.7893 77.3357 71.4372C76.1408 72.6775 74.9359 73.9064 73.7209 75.124C73.436 75.4101 73.3534 75.6128 73.6568 75.9534C75.9613 78.5394 78.1776 81.2081 80.669 83.6246C80.781 83.7337 80.861 83.9094 81.1254 83.8889C81.1772 82.4776 81.2356 81.0547 81.2804 79.6344C81.3399 77.7227 81.3719 75.8085 81.4564 73.898C81.4877 73.2026 81.2771 72.8922 80.5429 72.8877C79.6307 72.8819 79.4899 72.6952 79.4464 71.7682C79.4061 70.9086 79.3503 70.049 79.3273 69.1881C79.3004 68.186 79.5359 67.9763 80.5435 68.0096C83.9824 68.1232 87.4149 67.9455 90.8499 67.7928C92.0777 67.737 92.1167 67.7684 92.0661 68.9918C92.0264 69.9951 91.9873 70.9997 91.9413 72.003C91.9035 72.837 91.6545 73.134 90.8076 73.1443C89.6649 73.1571 88.5204 73.0801 87.3758 73.0641C86.9425 73.057 86.3862 72.8787 86.1814 73.4362C85.9505 74.0723 85.9713 74.7728 86.2395 75.394C86.3432 75.6397 86.6582 75.5737 86.8925 75.5794C87.7029 75.5993 88.5146 75.5794 89.325 75.6314C90.1086 75.6846 90.252 75.9303 90.1643 76.7066C90.0535 77.681 89.9825 78.6587 89.8903 79.6344C89.8039 80.537 89.6004 80.7596 88.7016 80.8219C87.9398 80.8751 87.1735 80.8937 86.4105 80.8937C85.8811 80.8937 85.6102 81.0765 85.632 81.6501C85.6595 82.3916 85.6583 83.1345 85.632 83.8767C85.616 84.3469 85.7998 84.5118 86.2632 84.4977C87.9084 84.4432 89.5562 84.6343 91.2027 84.4547C91.6764 84.4028 92.0463 84.5278 91.9874 85.093C91.8715 86.1971 92.104 87.2896 92.0694 88.3891C92.0432 89.191 91.8485 89.4527 91.0765 89.4874C88.0486 89.6195 85.0227 89.7908 81.9865 89.6798C81.4597 89.6599 81.2663 89.4386 81.2291 88.9556C81.1312 87.6879 81.1785 86.4203 81.1849 85.1527C81.1849 84.9814 81.295 84.7242 81.0569 84.6555C80.941 84.6222 80.7619 84.7646 80.6268 84.8525C79.8932 85.3471 79.2343 85.9449 78.6704 86.6275C77.8197 87.6148 77.312 87.6405 76.3313 86.7558C74.647 85.197 73.0818 83.5139 71.6487 81.7206C71.1134 80.9505 70.4134 80.3099 69.5996 79.8455Z" fill="#EFB519"/>
<path d="M105.09 77.6759C105.133 76.4512 105.079 75.2251 104.928 74.009C104.855 72.5284 104.758 71.0497 104.669 69.5691C104.632 68.9584 104.861 68.6145 105.527 68.6274C106.984 68.6562 108.44 68.6806 109.897 68.6691C110.443 68.6646 110.578 68.8833 110.576 69.3978C110.562 72.2205 110.547 75.0482 110.6 77.8709C110.646 80.3574 111.033 82.8265 110.999 85.3207C110.983 86.4113 110.882 86.4934 109.87 86.8244C107.684 87.5371 105.935 87.2055 104.497 85.1905C103.06 83.1755 101.385 81.3171 99.7861 79.4169C99.274 78.8043 98.6633 78.2686 97.9533 77.5514C98.0218 79.0853 98.0763 80.4292 98.1454 81.7713C98.2248 83.2993 98.3061 84.828 98.4066 86.3548C98.4495 87.0188 98.1811 87.3171 97.5103 87.3479C96.2473 87.4082 94.9876 87.5262 93.7246 87.5981C92.9429 87.6423 92.7002 87.421 92.7232 86.6698C92.8757 81.8151 92.7511 76.9557 92.35 72.1153C92.3251 71.8291 92.3328 71.5417 92.3328 71.2543C92.3203 71.0841 92.374 70.9156 92.4826 70.7841C92.5911 70.6526 92.7461 70.5683 92.9153 70.5487C94.3941 70.2857 95.8753 70.0355 97.3573 69.7911C97.7087 69.7218 98.0732 69.7673 98.3969 69.921C98.7206 70.0747 98.9864 70.3285 99.1555 70.6449C100.953 73.1359 102.937 75.4863 105.09 77.6759Z" fill="#EFB519"/>
<path d="M82.9469 113.942C82.2069 113.942 81.2025 113.92 80.2013 113.949C79.4869 113.969 79.2014 113.59 79.1681 112.951C79.1124 111.9 79.0766 110.848 79.0401 109.798C79.0383 109.248 78.9971 108.699 78.9166 108.155C78.7745 107.355 78.912 107.216 79.7398 107.315C80.972 107.464 82.1986 107.648 83.4303 107.798C83.9507 107.862 84.4774 107.871 85.0024 107.899C85.2187 107.91 85.4505 107.919 85.4947 107.62C85.5109 107.512 85.4878 107.401 85.4298 107.309C85.3718 107.216 85.2827 107.148 85.1785 107.115C84.9589 107.023 84.7341 106.943 84.5051 106.877C83.2907 106.526 82.0984 106.102 80.9349 105.608C78.4383 104.503 77.1382 102.336 77.4781 99.8528C77.907 96.7165 79.5906 94.9183 82.4655 94.4988C84.9224 94.1396 87.3575 94.0434 89.7472 94.9055C91.6459 95.5894 91.6433 95.5778 91.0697 97.4498C90.8527 98.1554 90.6984 98.8854 90.4641 99.5873C90.1658 100.485 89.7024 100.729 88.7595 100.567C88.2031 100.433 87.6596 100.25 87.1353 100.02C86.595 99.823 86.0195 99.7422 85.4461 99.7823C85.1574 99.8035 84.8321 99.8541 84.7943 100.217C84.7611 100.548 85.0504 100.63 85.3065 100.716C86.7334 101.183 88.1538 101.678 89.5903 102.114C90.5433 102.432 91.4167 102.952 92.1509 103.639C92.4213 103.881 92.593 104.215 92.633 104.576C92.9407 106.692 92.7747 108.849 92.1471 110.892C91.5947 112.695 90.2433 113.504 88.4925 113.774C86.6576 114.054 84.7954 114.111 82.9469 113.942Z" fill="#EFB519"/>
<path d="M98.4269 113.943C97.7868 113.943 96.7817 113.962 95.7805 113.937C94.8843 113.915 94.7076 113.745 94.6551 112.831C94.5911 111.732 94.5745 110.633 94.5271 109.533C94.5054 109.056 94.4631 108.579 94.4068 108.106C94.3146 107.376 94.4299 107.219 95.1584 107.304C96.4387 107.453 97.7111 107.65 98.9914 107.806C99.4875 107.866 99.9907 107.873 100.491 107.898C100.706 107.908 100.943 107.924 100.988 107.625C101.01 107.517 100.99 107.405 100.934 107.311C100.877 107.218 100.787 107.149 100.682 107.119C100.303 106.976 99.9133 106.854 99.5292 106.725C98.3374 106.381 97.1739 105.945 96.0494 105.421C93.5381 104.118 92.5241 101.919 93.1277 99.1414C93.7801 96.1449 95.1871 94.9318 98.6093 94.3942C101.188 93.9292 103.847 94.2576 106.235 95.336C107.057 95.717 107.119 95.8588 106.836 96.6986C106.546 97.5582 106.308 98.4306 106.046 99.3018C105.662 100.568 105.123 100.851 103.844 100.467C103.127 100.141 102.369 99.9179 101.59 99.8034C101.107 99.7951 100.414 99.5854 100.325 100.222C100.249 100.762 100.962 100.879 101.389 100.959C102.97 101.324 104.514 101.832 106.004 102.477C107.629 103.093 108.238 104.095 108.249 105.843C108.29 107.422 108.123 108.999 107.752 110.534C107.24 112.498 105.919 113.485 103.999 113.771C102.155 114.047 100.285 114.105 98.4269 113.943Z" fill="#EFB519"/>
<path d="M17.928 78.4438C17.9862 76.1183 17.8506 73.3239 17.6573 70.5301C17.5843 69.478 17.7789 69.2567 18.7987 69.1188C19.911 68.9658 21.0337 68.8995 22.1563 68.9206C22.9802 68.9379 23.0902 69.0489 23.0915 69.9008C23.0915 71.8151 23.1088 73.7312 23.0832 75.6455C23.0749 76.2607 23.2958 76.4346 23.8969 76.3698C25.3193 76.2158 26.7498 76.1132 28.1767 76.006C29.0326 75.9419 29.201 75.7603 29.1773 74.9007C29.1273 73.2751 29.1133 71.6483 29.0301 70.0253C28.9983 69.8721 29.0005 69.7138 29.0366 69.5616C29.0727 69.4095 29.1419 69.2671 29.239 69.1446C29.3361 69.0222 29.459 68.9227 29.5988 68.8531C29.7386 68.7836 29.8919 68.7457 30.0479 68.7422C31.2818 68.6097 32.5259 68.6044 33.7608 68.7262C34.2224 68.7518 34.2858 69.1111 34.3056 69.5082C34.4799 72.7818 34.4732 76.0626 34.2858 79.3355C34.1578 81.507 33.999 83.6791 33.8671 85.8506C33.83 86.4703 33.5419 86.7661 32.9133 86.7372C31.889 86.6897 30.8648 86.6538 29.8405 86.6153C29.7206 86.628 29.5994 86.613 29.4861 86.5716C29.3728 86.5302 29.2705 86.4634 29.1868 86.3764C29.1032 86.2894 29.0403 86.1843 29.0033 86.0693C28.9663 85.9543 28.956 85.8324 28.9732 85.7127C28.9789 84.4682 28.9597 83.2237 28.9821 81.9785C28.9904 81.4537 28.8156 81.2529 28.2689 81.2882C26.9598 81.3761 25.6443 81.4204 24.3359 81.4691C23.6746 81.4935 23.4263 81.7899 23.4641 82.4692C23.5281 83.6881 23.5115 84.907 23.5313 86.1259C23.5514 86.264 23.5401 86.4049 23.4982 86.5381C23.4562 86.6712 23.3847 86.7931 23.2891 86.8947C23.1934 86.9962 23.0761 87.0747 22.9459 87.1243C22.8156 87.1739 22.676 87.1934 22.5372 87.1812C21.3439 87.2228 20.1507 87.2588 18.9568 87.2562C18.0933 87.2562 17.9325 87.0637 17.9325 86.1695C17.9223 83.7561 17.928 81.3376 17.928 78.4438Z" fill="#EFB519"/>
<path d="M20.2452 94.7157C20.4591 94.7277 20.6668 94.7907 20.8515 94.8995C21.0361 95.0083 21.1922 95.1597 21.3066 95.3411C22.3577 96.7351 23.5035 98.0489 24.6641 99.3525C25.0897 99.831 25.3382 99.7939 25.6679 99.2447C26.381 98.056 27.137 96.8949 27.9007 95.7389C28.5018 94.8292 28.8333 94.7426 29.8057 95.2545C30.65 95.6984 31.4702 96.1886 32.2941 96.6658C32.3923 96.699 32.4799 96.7577 32.5479 96.8361C32.6159 96.9144 32.6619 97.0096 32.681 97.1116C32.7002 97.2137 32.6919 97.319 32.657 97.4168C32.622 97.5146 32.5617 97.6012 32.4822 97.6679C30.992 99.4705 30.163 101.672 28.9141 103.621C28.6299 104.064 28.8385 104.432 29.0619 104.817C30.5535 107.375 32.0335 109.939 33.3016 112.621C33.3657 112.75 33.4295 112.878 33.4936 113.006C34.0959 114.289 34.0729 114.311 32.7453 114.701C31.7172 115.003 30.6968 115.336 29.6841 115.689C29.5709 115.744 29.4471 115.775 29.321 115.778C29.195 115.781 29.0698 115.757 28.9539 115.707C28.838 115.658 28.7341 115.584 28.6493 115.49C28.5646 115.397 28.5009 115.286 28.4627 115.166C27.8143 113.809 27.1824 112.443 26.5103 111.1C26.2497 110.581 26.0698 109.729 25.5436 109.712C25.0315 109.694 24.746 110.515 24.449 111.015C23.3889 112.799 22.517 114.69 21.3084 116.391C20.941 116.904 20.6504 117.09 20.0217 116.846C19.1134 116.494 18.1456 116.302 17.2308 115.964C15.5843 115.354 15.5356 115.162 16.4747 113.753C18.1845 111.187 19.8797 108.612 21.6184 106.067C21.7841 105.87 21.875 105.621 21.875 105.363C21.875 105.106 21.7841 104.856 21.6184 104.66C20.2011 102.436 18.4636 100.454 16.9163 98.3312C15.8966 96.9314 15.8922 96.9199 17.4196 96.1206C18.1167 95.7556 18.8107 95.3828 19.5123 95.0268C19.7512 94.9109 19.9959 94.807 20.2452 94.7157Z" fill="#EFB519"/>
<path d="M56.4318 88.8484C49.202 88.656 46.1824 82.7541 47.9486 76.9298C48.9218 73.7827 51.0839 71.1414 53.9735 69.5698C56.0815 68.3368 60.5556 69.2394 61.9466 72.5849C62.896 74.8674 62.8518 75.122 60.7476 76.4211C59.903 76.9638 58.982 77.3766 58.0154 77.6457C57.3701 77.8151 56.9496 77.6772 56.7748 76.9805C56.6525 76.4962 56.5424 75.9457 55.9087 75.8899C55.3287 75.8399 55.0209 76.2748 54.7226 76.6893C54.5837 76.8817 54.4544 77.0857 54.3308 77.2903C53.3706 78.8787 53.3609 79.7191 54.2814 80.8264C55.5137 82.3082 56.8562 82.715 58.4643 82.0985C59.4404 81.6473 60.3547 81.0725 61.1849 80.3882C62.1547 79.6954 62.2936 79.7255 62.9132 80.7C63.4894 81.6071 64.0654 82.5167 64.6646 83.411C64.7634 83.5229 64.8391 83.6533 64.8873 83.7947C64.9355 83.9361 64.9553 84.0857 64.9456 84.2348C64.9358 84.3839 64.8968 84.5296 64.8306 84.6635C64.7643 84.7973 64.6722 84.9167 64.5597 85.0148C63.5345 86.172 62.2854 87.1085 60.8882 87.7675C59.4911 88.4265 57.975 88.7942 56.4318 88.8484Z" fill="#EFB519"/>
<path d="M9.89451 88.8009C1.88564 88.7695 -1.30817 82.6071 0.484239 76.8926C1.46357 73.7733 3.61252 71.1567 6.47857 69.5935C8.68964 68.3105 12.3648 69.3074 13.8979 71.5379C14.4199 72.3406 14.8039 73.2253 15.0341 74.1552C15.1261 74.3935 15.1371 74.6554 15.0654 74.9005C14.9936 75.1456 14.8432 75.3602 14.6373 75.5108C13.4168 76.4748 12.0255 77.199 10.5365 77.6451C9.88102 77.8119 9.47962 77.6451 9.31062 76.9567C9.19732 76.4968 9.08978 75.9823 8.497 75.8976C7.90423 75.8129 7.5937 76.235 7.2922 76.6437C7.15008 76.8361 7.01959 77.0363 6.89476 77.2403C5.9051 78.8614 5.89095 79.7152 6.83068 80.8327C8.08985 82.3319 9.431 82.713 11.0832 82.0516C12.0528 81.5877 12.9628 81.0081 13.7935 80.3253C14.6731 79.6998 14.8306 79.7332 15.4183 80.646C16.0155 81.5705 16.5974 82.5019 17.2107 83.4141C17.3085 83.5272 17.3831 83.6584 17.4303 83.8004C17.4775 83.9423 17.4964 84.0922 17.4858 84.2414C17.4751 84.3907 17.4351 84.5364 17.3682 84.6701C17.3014 84.8039 17.209 84.9232 17.0961 85.0211C14.8345 87.4011 12.1209 88.7611 9.89451 88.8009Z" fill="#EFB519"/>
<path d="M33.5615 97.6018C33.5615 97.0283 33.5615 96.4548 33.5615 95.8813C33.5692 94.9043 33.7497 94.7182 34.7349 94.6881C36.7431 94.6239 38.7454 94.7683 40.7522 94.8491C41.8041 94.9094 42.8365 95.159 43.7999 95.5862C47.2094 97.0309 48.6408 100 47.8374 103.798C47.7356 104.412 47.5022 104.996 47.1534 105.511C46.8045 106.026 46.3484 106.46 45.8165 106.781C45.0003 107.277 44.204 107.808 43.3634 108.257C43.0731 108.371 42.8363 108.59 42.7 108.872C42.5637 109.153 42.5381 109.475 42.628 109.774C42.8719 110.993 43.0657 112.221 43.2808 113.445C43.4459 114.382 43.277 114.664 42.3501 114.864C41.0439 115.147 39.7163 115.32 38.3812 115.381C38.2466 115.407 38.1079 115.403 37.975 115.369C37.8422 115.335 37.7184 115.273 37.6123 115.186C37.5062 115.099 37.4203 114.99 37.3608 114.866C37.3013 114.742 37.2697 114.607 37.268 114.47C36.7764 111.661 36.6277 108.815 36.2859 105.99C36.1451 104.826 35.9601 103.67 35.7969 102.511C35.7597 102.251 35.7104 101.991 35.6983 101.729C35.6342 100.51 35.6407 100.496 34.4577 100.428C33.9455 100.399 33.7132 100.172 33.7119 99.6784C33.7119 98.9856 33.7119 98.2915 33.7119 97.5986C33.6562 97.6018 33.6089 97.6018 33.5615 97.6018Z" fill="#EFB519"/>
<path d="M4.61684 108.441C4.70219 106.051 4.78883 103.661 4.87674 101.272C4.90811 100.374 4.83771 100.305 3.93574 100.245C3.10355 100.191 2.92305 100.02 2.88144 99.219C2.83087 98.2401 2.78342 97.2599 2.75782 96.2797C2.73539 96.1475 2.74523 96.0119 2.78658 95.8844C2.82792 95.757 2.89955 95.6415 2.99522 95.5478C3.09089 95.4541 3.20779 95.3851 3.33592 95.3466C3.46405 95.3082 3.59956 95.3014 3.73085 95.327C7.24333 95.5053 10.7456 95.2725 14.2511 95.107C15.4789 95.0492 15.5371 95.1185 15.4917 96.3759C15.4558 97.3561 15.4173 98.335 15.368 99.314C15.3239 100.192 15.0557 100.483 14.1806 100.481C12.8907 100.481 11.6014 100.44 10.3147 100.386C9.76673 100.363 9.54016 100.583 9.49279 101.117C9.3462 102.801 9.41158 102.894 11.0894 102.97C11.6617 102.996 12.2358 102.977 12.8087 102.977C13.4143 102.977 13.705 103.269 13.6033 103.88C13.4381 104.873 13.3971 105.876 13.3177 106.878C13.239 107.9 13.0027 108.124 11.9945 108.166C11.2314 108.198 10.4684 108.235 9.70346 108.238C9.24192 108.238 9.05692 108.443 9.06332 108.889C9.07164 109.703 9.06844 110.518 9.06332 111.331C9.06332 111.731 9.24258 111.879 9.64267 111.855C11.307 111.752 12.9828 112.036 14.6497 111.777C15.1042 111.707 15.4532 111.89 15.4071 112.381C15.3008 113.511 15.5236 114.626 15.4929 115.748C15.4718 116.529 15.2497 116.786 14.4636 116.811C11.5766 116.904 8.68928 116.985 5.80179 117.052C4.9312 117.072 4.6271 116.789 4.62262 115.984C4.60854 113.468 4.61684 110.955 4.61684 108.441Z" fill="#EFB519"/>
<path d="M71.4871 95.3283C72.8314 95.2641 74.5958 95.2 76.3581 95.0884C77.0405 95.0454 77.3272 95.2597 77.2799 95.9711C77.2075 97.0674 77.198 98.1689 77.1519 99.2665C77.1096 100.205 76.8259 100.485 75.8567 100.481C74.6157 100.472 73.3755 100.439 72.1362 100.38C71.5152 100.351 71.304 100.596 71.2829 101.214C71.2272 102.865 71.3617 103.032 73.0261 102.971C73.5724 102.928 74.1211 102.928 74.6674 102.971C75.1283 103.025 75.3716 103.234 75.3319 103.713C75.2257 104.928 75.1226 106.143 75.0048 107.356C74.9466 107.96 74.4983 108.129 73.9894 108.159C73.2033 108.205 72.4161 108.251 71.63 108.237C71.0487 108.226 70.8035 108.412 70.8432 109.026C70.8817 109.719 70.8799 110.413 70.8381 111.106C70.8106 111.65 70.966 111.886 71.562 111.85C73.1796 111.75 74.805 112.024 76.4272 111.772C76.929 111.694 77.2031 111.939 77.1794 112.465C77.1282 113.566 77.2068 114.663 77.2619 115.76C77.2888 115.891 77.2853 116.026 77.2517 116.155C77.2181 116.284 77.1553 116.403 77.0681 116.504C76.9809 116.605 76.8717 116.684 76.749 116.735C76.6262 116.787 76.4934 116.809 76.3606 116.801C73.4287 116.95 70.4949 117.041 67.5611 117.047C67.184 117.047 66.7232 117.126 66.5094 116.631C66.4404 116.49 66.4171 116.332 66.443 116.177C66.469 116.023 66.5428 115.88 66.654 115.77C66.8718 115.559 66.9991 115.271 67.0088 114.967C67.0184 114.663 66.9098 114.368 66.7059 114.143C66.4225 113.695 66.2933 113.166 66.3378 112.637C66.3692 108.788 66.4441 104.939 66.6662 101.098C66.6988 100.533 66.5043 100.276 65.9045 100.249C64.7759 100.197 64.7055 100.092 64.6581 98.9766C64.621 98.0926 64.5576 97.2099 64.5429 96.3265C64.5288 95.4925 64.6709 95.3463 65.5594 95.336C67.3934 95.3135 69.2306 95.3283 71.4871 95.3283Z" fill="#EFB519"/>
<path d="M41.2595 67.1962C42.8842 67.1962 44.5095 67.218 46.1342 67.1834C46.7552 67.1705 47.0036 67.4092 47.0196 68.0051C47.0439 68.961 47.2437 69.9053 47.2116 70.8682C47.1784 71.8125 46.9101 72.087 45.9479 72.1044C45.4947 72.1127 45.0402 72.1217 44.587 72.1287C44.4855 72.1148 44.3823 72.1241 44.2849 72.1559C44.1875 72.1876 44.0984 72.241 44.0245 72.3121C43.9506 72.3832 43.8939 72.4701 43.8582 72.5663C43.8226 72.6625 43.8091 72.7656 43.8188 72.8678C43.7471 75.9784 43.5865 79.0859 43.6365 82.1972C43.6505 83.1287 43.7887 83.2192 44.7022 83.189C46.4811 83.13 46.501 83.1531 46.5893 84.9063C46.6194 85.5029 46.6822 86.0976 46.7328 86.6929C46.8198 87.7367 46.5343 88.051 45.5063 88.0542C42.903 88.0615 40.2998 88.07 37.6965 88.0799C37.1473 88.0799 36.5986 88.1241 36.05 88.1132C35.5424 88.1017 35.205 87.8432 35.2927 87.2998C35.421 86.2787 35.4172 85.2452 35.2813 84.2251C35.2281 83.6734 35.4848 83.4232 36.011 83.3988C36.5372 83.3744 37.0595 83.3487 37.5845 83.3314C37.7222 83.3493 37.8622 83.3349 37.9935 83.2893C38.1247 83.2437 38.2435 83.1681 38.3406 83.0686C38.4377 82.969 38.5104 82.8482 38.553 82.7157C38.5955 82.5832 38.6066 82.4426 38.5856 82.305C38.5715 79.1689 38.5673 76.0332 38.5728 72.8979C38.5728 72.4354 38.3577 72.3257 37.9595 72.3206C37.3866 72.3242 36.814 72.2968 36.244 72.2384C36.1053 72.2403 35.9682 72.2106 35.8427 72.1516C35.7171 72.0925 35.6067 72.0056 35.5196 71.8975C35.4325 71.7893 35.3711 71.6628 35.34 71.5273C35.309 71.3919 35.3089 71.2512 35.34 71.1158C35.4603 70.0685 35.4565 69.0105 35.3286 67.9641C35.2313 67.3174 35.6672 67.1981 36.1735 67.1981C37.8661 67.1949 39.5631 67.1981 41.2595 67.1962Z" fill="#EFB519"/>
<path d="M66.0186 114.198C63.7551 111.623 61.8474 108.782 59.8194 106.029C59.3258 105.36 59.3221 105.347 60.1293 105.165C60.9623 105.03 61.7318 104.636 62.3295 104.039C62.9272 103.442 63.323 102.672 63.4612 101.838C63.6547 100.923 63.7075 99.9832 63.6174 99.0522C63.2974 95.8312 61.8641 94.3218 58.6435 94.0446C55.8517 93.8731 53.0495 94.0181 50.2902 94.477C48.8499 94.6797 48.6297 94.9742 48.615 96.449C48.5849 99.4641 48.5932 102.479 48.5285 105.494C48.5757 107.839 48.4761 110.185 48.2302 112.517C48.1239 113.239 48.4139 113.599 49.1712 113.672C50.0977 113.761 51.0283 113.801 51.959 113.79C54.5266 113.754 54.3084 114.303 54.6579 111.376C54.7757 110.39 54.896 109.404 55.0381 108.233C55.4062 108.731 55.6623 109.067 55.9101 109.413C57.7161 111.914 59.5217 114.416 61.3269 116.919C61.9434 117.771 62.1156 117.802 63.0336 117.265C63.94 116.735 64.8568 116.219 65.7517 115.67C66.5538 115.177 66.6191 114.88 66.0186 114.198ZM56.1354 100.941C55.9453 100.939 55.7602 100.879 55.6041 100.77C55.0645 100.408 54.6482 99.8895 54.4108 99.2838C54.3279 99.1218 54.2995 98.9373 54.3297 98.7578C54.3599 98.5783 54.4472 98.4134 54.5785 98.2876C54.7081 98.1419 54.8856 98.0475 55.0786 98.0216C55.2717 97.9957 55.4676 98.04 55.6309 98.1464C55.7733 98.2478 55.9449 98.2996 56.1195 98.294C56.2941 98.2883 56.462 98.2254 56.5976 98.115C56.731 98.0486 56.8792 98.0178 57.028 98.0255C57.1767 98.0332 57.3211 98.0793 57.447 98.1591C57.5728 98.239 57.676 98.3501 57.7466 98.4816C57.8171 98.6131 57.8526 98.7606 57.8497 98.9098C57.8657 99.5725 56.7647 100.904 56.1348 100.941L56.1354 100.941Z" fill="#EFB519"/>
<path d="M4.56348 132.649C4.60829 132.22 4.60832 131.747 5.18893 131.704C5.54229 131.678 5.85911 131.876 5.77141 132.248C5.67411 132.668 5.7977 133.305 5.0961 133.353C4.60639 133.385 4.61341 132.982 4.56348 132.649Z" fill="#EFB519"/>
<path d="M6.61035 132.622C6.65772 132.18 6.68461 131.714 7.27035 131.705C7.61474 131.699 7.91042 131.881 7.80672 132.282C7.69789 132.706 7.81824 133.344 7.1064 133.352C6.62181 133.358 6.66092 132.937 6.61035 132.622Z" fill="#EFB519"/>
<path d="M8.48926 132.638C8.53343 132.202 8.54495 131.733 9.1294 131.704C9.48212 131.686 9.78937 131.889 9.69719 132.265C9.59413 132.683 9.71695 133.326 9.00703 133.355C8.51796 133.373 8.53791 132.965 8.48926 132.638Z" fill="#EFB519"/>
<path d="M29.4997 127.221C29.0081 126.989 28.6898 127.285 28.4184 127.64C28.0298 128.148 27.6554 128.667 27.2752 129.18C27.2027 128.346 27.3152 127.506 27.6048 126.721C27.8871 125.8 28.2341 124.899 28.5759 123.996C28.7283 123.595 28.8646 123.197 28.3692 122.98C27.843 122.75 27.681 123.187 27.5159 123.557C27.3667 123.893 27.2188 124.233 27.0914 124.579C27.0561 124.718 26.9687 124.838 26.8471 124.913C26.7256 124.989 26.5795 125.014 26.4398 124.983C26.0481 124.943 26.0928 124.696 26.1415 124.428C26.1585 124.358 26.1603 124.286 26.1468 124.215C26.1333 124.144 26.1047 124.077 26.063 124.018C26.0214 123.959 25.9677 123.91 25.9055 123.874C25.8432 123.838 25.7739 123.816 25.7023 123.809C25.4085 123.74 25.2273 123.917 25.1159 124.181C24.9917 124.503 24.7638 124.774 24.4683 124.951C24.1728 125.129 23.8268 125.202 23.4849 125.16C23.1565 125.149 22.9209 125.288 22.9209 125.647C22.9209 125.962 23.086 126.274 23.4087 126.228C24.3855 126.089 24.1532 126.685 24.0585 127.213C23.9823 127.632 23.8759 128.047 23.81 128.467C23.5753 129.697 23.481 130.95 23.529 132.202C23.5559 132.586 23.7269 132.996 24.1654 132.979C24.7121 132.957 24.472 132.477 24.4598 132.189C24.4694 130.366 24.7254 128.554 25.221 126.8C25.2588 126.634 25.3222 126.475 25.4091 126.329C25.4927 126.159 25.6384 126.028 25.8158 125.963C25.9932 125.899 26.1888 125.905 26.3617 125.981C26.7458 126.143 26.4736 126.487 26.4115 126.722C26.044 128.009 25.8715 129.343 25.8995 130.681C25.9123 131.013 25.8637 131.398 26.3125 131.515C26.7317 131.622 26.9333 131.322 27.1286 131.039C27.5065 130.355 27.9573 129.714 28.4729 129.128C28.4313 129.427 28.4012 129.581 28.3884 129.738C28.2984 130.444 28.3067 131.159 28.4128 131.864C28.4704 132.15 28.6381 132.408 28.9934 132.368C29.2161 132.343 29.2301 132.142 29.2039 131.971C29.0163 130.661 29.5241 129.449 29.7334 128.195C29.791 127.842 29.9632 127.44 29.4997 127.221Z" fill="#EFB519"/>
<path d="M92.2792 127.009C91.8385 127.269 91.4112 127.552 90.9989 127.855C91.0732 127.253 91.4932 126.596 90.6687 126.422C89.9389 126.268 89.9331 126.984 89.7724 127.427C88.938 129.967 88.545 132.631 88.6106 135.305C88.6061 135.634 88.6106 135.958 89.0421 135.996C89.5254 136.038 89.4779 135.663 89.5112 135.361C89.6111 134.43 89.7161 133.501 89.805 132.565C89.8364 132.245 89.848 131.939 90.234 131.825C92.0469 131.292 92.7254 129.708 93.5204 128.239C93.6183 128.079 93.6568 127.889 93.6292 127.703C93.6016 127.517 93.5097 127.347 93.3694 127.222C93.234 127.075 93.0552 126.975 92.8592 126.936C92.6631 126.898 92.4599 126.923 92.2792 127.009ZM90.4433 130.754C90.5755 130.236 90.8093 129.75 91.1311 129.323C91.4529 128.896 91.8563 128.538 92.3176 128.269C91.967 129.273 91.3116 130.142 90.4433 130.754V130.754Z" fill="#EFB519"/>
<path d="M79.8094 127.215C79.28 126.982 78.9771 127.367 78.6807 127.728C78.3091 128.32 77.8681 128.866 77.3671 129.353C77.4606 128.852 77.5291 128.464 77.6065 128.078C77.9073 126.633 78.3612 125.224 78.9604 123.875C79.1166 123.516 79.0969 123.185 78.7294 122.993C78.3268 122.784 78.0892 123.038 77.9388 123.386C76.8508 125.676 76.2717 128.175 76.2412 130.711C76.2489 131.053 76.2239 131.423 76.6758 131.522C77.099 131.612 77.2769 131.307 77.4663 131.014C77.8178 130.47 78.1796 129.929 78.5349 129.387C78.5848 129.405 78.634 129.423 78.684 129.442C78.684 130.034 78.6795 130.626 78.684 131.219C78.6548 131.403 78.6651 131.59 78.7143 131.768C78.7634 131.947 78.8503 132.113 78.9689 132.256C79.1001 132.358 79.2661 132.406 79.4316 132.388C79.6051 132.366 79.5737 132.168 79.5596 132.035C79.3874 130.758 79.803 129.563 80.0494 128.342C80.125 127.953 80.3599 127.46 79.8094 127.215Z" fill="#EFB519"/>
<path d="M15.7818 126.551C15.3043 126.374 15.1507 126.764 15.0246 127.133C14.7314 127.989 14.4292 128.842 14.1149 129.742C13.9258 129.438 13.8464 129.078 13.8901 128.723C13.8831 128.418 13.8402 128.151 13.4952 128.052C13.3443 128.005 13.1817 128.015 13.0374 128.079C12.8932 128.143 12.7768 128.258 12.7097 128.401C12.4831 128.745 12.2464 129.079 11.925 129.549C11.87 129.018 11.9417 128.481 12.1343 127.982C12.1598 127.908 12.1699 127.828 12.164 127.75C12.1581 127.671 12.1364 127.594 12.1 127.524C12.0637 127.454 12.0136 127.392 11.9527 127.342C11.8918 127.291 11.8214 127.254 11.7457 127.232C11.3617 127.104 11.142 127.337 11.0275 127.655C10.59 128.773 10.4491 129.986 10.6185 131.176C10.6292 131.334 10.6921 131.485 10.7973 131.603C10.9025 131.722 11.044 131.802 11.1997 131.832C11.3521 131.875 11.514 131.869 11.6631 131.816C11.8122 131.762 11.9411 131.664 12.0319 131.534C12.288 131.163 12.53 130.779 12.8641 130.266C12.9922 130.673 13.0746 130.938 13.1623 131.199C13.2993 131.611 13.4331 132.015 13.99 132.023C14.5469 132.03 14.6052 131.61 14.7236 131.235C15.1288 129.963 15.5201 128.686 15.9317 127.416C16.0373 127.088 16.2382 126.719 15.7818 126.551Z" fill="#EFB519"/>
<path d="M53.5944 126.923C53.161 126.683 52.9248 127.08 52.6809 127.339C51.9582 128.109 51.2483 128.893 50.4263 129.787C50.5058 129.107 50.6648 128.438 50.9 127.795C50.9717 127.503 50.964 127.2 50.6273 127.077C50.3072 126.957 50.0825 127.137 49.9417 127.42C49.53 128.233 49.2847 129.12 49.2203 130.029C49.1929 130.215 49.2262 130.404 49.3151 130.569C49.4041 130.734 49.544 130.865 49.7138 130.944C49.8895 131.042 50.0928 131.078 50.2915 131.047C50.4902 131.017 50.673 130.921 50.8111 130.774C51.046 130.54 51.2655 130.29 51.6483 129.876C51.5454 131.115 51.372 132.348 51.1291 133.567C50.9836 134.092 51.0119 134.649 51.2098 135.156C51.2505 135.263 51.3285 135.352 51.4294 135.406C51.5303 135.461 51.6474 135.477 51.7591 135.451C51.9787 135.413 51.9915 135.224 51.9947 135.055C52.042 132.565 52.8736 130.271 53.7358 127.983C53.8715 127.612 54.0636 127.184 53.5944 126.923Z" fill="#EFB519"/>
<path d="M85.169 126.929C84.7389 126.672 84.4982 127.062 84.2537 127.327C83.5252 128.115 82.8058 128.909 81.9889 129.802C82.0294 129.162 82.1787 128.532 82.4306 127.942C82.5394 127.608 82.604 127.229 82.1745 127.074C81.8032 126.941 81.5946 127.215 81.4557 127.514C81.0875 128.285 80.8619 129.117 80.7899 129.969C80.7572 130.175 80.7942 130.386 80.8951 130.568C80.996 130.751 81.1549 130.894 81.3464 130.975C81.538 131.056 81.7511 131.071 81.9519 131.016C82.1527 130.962 82.3296 130.842 82.4542 130.675C82.7007 130.382 82.9453 130.087 83.1917 129.793L83.3652 129.872C83.1431 131.091 82.9139 132.303 82.7039 133.522C82.5644 134.048 82.5837 134.604 82.7596 135.119C82.7901 135.23 82.8602 135.326 82.9567 135.389C83.0531 135.452 83.1694 135.477 83.2833 135.46C83.5426 135.422 83.5617 135.208 83.5655 135.006C83.6264 132.544 84.4265 130.267 85.2939 128.005C85.436 127.628 85.6223 127.201 85.169 126.929Z" fill="#EFB519"/>
<path d="M72.7507 126.415C72.5305 126.305 72.2768 126.283 72.0412 126.354C71.8056 126.424 71.6054 126.582 71.4812 126.794C70.9934 127.382 70.5133 127.974 69.9288 128.687C69.8904 128.447 69.8649 128.367 69.8649 128.286C69.8604 127.941 69.8982 127.563 69.4251 127.496C68.9085 127.421 68.8381 127.837 68.7273 128.186C68.5364 128.813 68.4428 129.465 68.4496 130.121C68.4496 130.517 68.4008 130.958 68.8886 131.125C69.4007 131.3 69.6569 130.957 69.904 130.576C70.3892 129.743 70.9845 128.979 71.6739 128.305C71.5965 129.356 71.455 130.38 71.2809 131.4C71.2007 131.792 71.2418 132.199 71.3987 132.567C71.4332 132.662 71.4995 132.742 71.5864 132.793C71.6733 132.844 71.7754 132.863 71.8749 132.847C72.131 132.817 72.1886 132.627 72.1879 132.415C72.1809 130.742 72.6931 129.165 73.0528 127.558C73.1476 127.143 73.2251 126.663 72.7507 126.415Z" fill="#EFB519"/>
<path d="M99.2332 127.358C99.1011 127.189 98.9206 127.065 98.716 127.002C98.5114 126.939 98.2925 126.94 98.0887 127.005C97.4003 127.192 96.7927 127.602 96.3602 128.17C95.9276 128.739 95.6944 129.434 95.6964 130.149C95.6704 130.425 95.7015 130.704 95.7878 130.968C95.8742 131.231 96.0139 131.475 96.1982 131.682C96.3826 131.889 96.6074 132.056 96.859 132.172C97.1106 132.288 97.3835 132.351 97.6605 132.357C98.1137 132.324 98.5437 132.189 98.5136 131.625C98.4765 130.939 98.0374 131.202 97.6533 131.295C97.5513 131.331 97.4428 131.345 97.3349 131.335C97.227 131.326 97.1225 131.293 97.0286 131.239C96.9347 131.184 96.8538 131.111 96.7912 131.022C96.7286 130.933 96.6859 130.832 96.6662 130.726C96.5241 130.171 97.0094 130.189 97.3435 130.073C98.0961 129.8 98.7414 129.292 99.1846 128.624C99.3361 128.45 99.4237 128.23 99.4326 127.999C99.4414 127.769 99.371 127.542 99.2332 127.358ZM97.0983 129.154C97.1682 128.834 97.3292 128.542 97.5615 128.313C97.7939 128.083 98.0878 127.926 98.4075 127.861C98.3084 128.165 98.1381 128.442 97.9107 128.667C97.6833 128.892 97.4054 129.059 97.1003 129.155L97.0983 129.154Z" fill="#EFB519"/>
<path d="M106.263 127.406C105.937 126.869 105.397 126.938 104.89 127.055C103.697 127.335 102.703 128.764 102.699 130.176C102.692 130.532 102.768 130.884 102.921 131.206C103.073 131.527 103.297 131.809 103.576 132.03C103.763 132.184 103.985 132.291 104.222 132.341C104.459 132.392 104.704 132.385 104.938 132.32C105.031 132.311 105.121 132.282 105.201 132.235C105.282 132.188 105.351 132.124 105.405 132.047C105.458 131.97 105.495 131.883 105.511 131.791C105.528 131.699 105.525 131.604 105.501 131.514C105.401 131.07 105.092 131.146 104.77 131.273C104.634 131.313 104.491 131.325 104.351 131.307C104.178 131.302 104.013 131.236 103.884 131.121C103.756 131.006 103.672 130.849 103.647 130.678C103.544 130.234 103.885 130.197 104.197 130.109C104.935 129.887 105.583 129.435 106.045 128.817C106.234 128.64 106.358 128.405 106.397 128.15C106.437 127.894 106.39 127.632 106.263 127.406ZM104.312 129.01C104.376 128.297 104.471 128.201 105.351 127.984C105.279 128.229 105.145 128.452 104.963 128.632C104.782 128.811 104.557 128.942 104.312 129.012L104.312 129.01Z" fill="#EFB519"/>
<path d="M36.4501 127.01C35.9648 127.113 35.5112 127.331 35.1272 127.646C34.7432 127.961 34.4399 128.363 34.2429 128.82C34.0459 129.276 33.9607 129.773 33.9945 130.269C34.0284 130.765 34.1804 131.246 34.4376 131.671C34.6036 131.905 34.8277 132.091 35.0878 132.212C35.3478 132.332 35.6348 132.382 35.9201 132.357C36.3849 132.315 36.7919 132.13 36.7305 131.581C36.662 130.962 36.246 131.232 35.8984 131.311C35.7958 131.345 35.6872 131.357 35.5796 131.346C35.472 131.335 35.3679 131.301 35.2742 131.247C35.1805 131.193 35.0993 131.12 35.0357 131.032C34.9722 130.944 34.9278 130.844 34.9055 130.738C34.7378 130.167 35.2255 130.201 35.5552 130.078C36.344 129.811 37.0136 129.274 37.4456 128.56C37.9226 127.741 37.5428 127.024 36.4501 127.01ZM35.298 129.224C35.3612 128.897 35.5185 128.596 35.7504 128.358C35.9824 128.12 36.2788 127.955 36.6031 127.884C36.3938 128.605 35.9464 128.863 35.298 129.224Z" fill="#EFB519"/>
<path d="M43.5064 127.17C42.9596 127.422 42.4928 127.82 42.1582 128.321C41.8235 128.822 41.6338 129.406 41.6102 130.009C41.5513 131.311 42.4323 132.383 43.4981 132.361C43.9943 132.352 44.4583 132.204 44.4276 131.617C44.393 130.935 43.9327 131.232 43.5569 131.312C43.4542 131.345 43.3458 131.355 43.2387 131.343C43.1316 131.331 43.0281 131.296 42.9352 131.242C42.8423 131.187 42.762 131.113 42.6994 131.025C42.6368 130.937 42.5933 130.837 42.5718 130.731C42.4252 130.187 42.8919 130.176 43.2331 130.067C43.8868 129.863 44.4605 129.46 44.8738 128.913C45.2194 128.454 45.5824 127.924 45.1465 127.373C44.9418 127.149 44.6642 127.006 44.3637 126.969C44.0631 126.932 43.7592 127.003 43.5064 127.17ZM43.0346 129.187C43.0715 128.853 43.2223 128.541 43.4617 128.305C43.7012 128.069 44.0145 127.923 44.3488 127.892C44.2275 128.185 44.0487 128.451 43.8229 128.673C43.5971 128.896 43.3291 129.071 43.0346 129.187Z" fill="#EFB519"/>
<path d="M41.705 126.969C41.2518 126.642 41.068 127.116 40.8484 127.382C40.1443 128.236 39.7327 129.278 38.9997 130.383C38.9104 129.573 38.932 128.755 39.0638 127.951C39.1355 127.549 39.0465 127.181 38.5785 127.103C38.0824 127.016 38.0363 127.438 37.9864 127.76C37.7961 128.913 37.7805 130.088 37.9403 131.245C38.0043 131.681 38.1726 132.083 38.6815 132.171C39.2077 132.26 39.442 131.908 39.6418 131.504C40.231 130.274 40.9029 129.085 41.6525 127.946C41.8599 127.64 42.1109 127.264 41.705 126.969Z" fill="#EFB519"/>
<path d="M67.9292 127.28C67.8816 127.248 67.8281 127.226 67.772 127.216C67.7159 127.205 67.6582 127.206 67.6023 127.218C67.5464 127.23 67.4935 127.253 67.4466 127.285C67.3998 127.318 67.36 127.36 67.3294 127.408C67.1745 127.611 67.0438 127.831 66.8934 128.036C66.451 128.842 65.9137 129.592 65.293 130.27C65.2734 129.483 65.4551 128.703 65.8206 128.006C65.9416 127.693 65.9083 127.429 65.5959 127.29C65.2835 127.152 65.1381 127.414 65.0044 127.632C64.4377 128.563 64.2169 129.665 64.3809 130.743C64.3899 130.894 64.4425 131.039 64.5325 131.16C64.6226 131.281 64.746 131.373 64.8876 131.425C65.0292 131.477 65.1828 131.486 65.3296 131.451C65.4763 131.417 65.6099 131.34 65.7137 131.23C65.8661 131.114 65.9517 130.91 66.1988 130.884C66.339 131.277 66.2405 131.725 66.4645 132.096C66.5026 132.172 66.562 132.236 66.6355 132.28C66.709 132.323 66.7934 132.345 66.8787 132.341C67.1213 132.33 67.1349 132.14 67.1272 131.975C67.1022 130.55 67.4322 129.141 68.0874 127.876C68.118 127.827 68.1382 127.772 68.1468 127.715C68.1554 127.658 68.1521 127.599 68.1373 127.544C68.1224 127.488 68.0963 127.435 68.0605 127.39C68.0247 127.345 67.9801 127.307 67.9292 127.28Z" fill="#EFB519"/>
<path d="M64.7628 127.163C64.4977 126.772 64.1226 126.85 63.7904 127.08C63.3755 127.369 62.9812 127.689 62.558 128.01C62.4867 127.811 62.4913 127.592 62.5709 127.396C62.6726 127.068 62.6899 126.774 62.2584 126.666C62.1839 126.64 62.1048 126.63 62.0262 126.638C61.9477 126.645 61.8715 126.669 61.8029 126.708C61.7343 126.747 61.6749 126.8 61.6285 126.864C61.5821 126.928 61.5499 127.001 61.5339 127.079C61.1022 128.519 60.8482 130.007 60.7778 131.51C60.7602 131.61 60.7797 131.713 60.8325 131.8C60.8853 131.886 60.9678 131.95 61.0646 131.98C61.1691 132.03 61.2881 132.039 61.3992 132.007C61.5103 131.975 61.606 131.904 61.6683 131.806C61.8046 131.56 61.9225 131.304 62.0211 131.04C62.4502 129.768 63.2536 128.657 64.3255 127.851C64.5655 127.685 65.1097 127.673 64.7628 127.163Z" fill="#EFB519"/>
<path d="M23.4975 127.199C23.2613 126.768 22.8605 126.86 22.5373 127.066C22.0892 127.349 21.684 127.692 21.2334 128.031C21.2218 127.895 21.2077 127.811 21.2077 127.726C21.2077 127.354 21.6609 126.854 20.965 126.679C20.3082 126.513 20.2468 127.071 20.1162 127.494C19.7885 128.729 19.5806 129.993 19.4953 131.268C19.462 131.579 19.4281 131.925 19.8673 132C20.2514 132.064 20.4363 131.819 20.5656 131.511C20.6648 131.277 20.7576 131.037 20.8453 130.799C21.253 129.607 22.0254 128.574 23.0525 127.848C23.2791 127.691 23.7407 127.648 23.4975 127.199Z" fill="#EFB519"/>
<path d="M49.4156 127.175C49.3724 127.1 49.3126 127.035 49.2409 126.986C49.1692 126.938 49.0874 126.906 49.0016 126.894C48.9158 126.881 48.8283 126.889 48.7458 126.915C48.6633 126.942 48.5879 126.986 48.5253 127.046C48.0804 127.344 47.6559 127.673 47.147 128.043C47.1399 127.912 47.1399 127.782 47.147 127.651C47.211 127.282 47.5016 126.822 46.8993 126.669C46.3187 126.519 46.2093 126.998 46.0761 127.416C45.7241 128.647 45.5108 129.914 45.4403 131.193C45.4147 131.505 45.3027 131.928 45.8136 132.002C46.2553 132.066 46.3898 131.719 46.5236 131.403C46.6138 131.194 46.6925 130.982 46.7796 130.77C47.2057 129.585 47.9839 128.558 49.0098 127.828C49.2466 127.668 49.6979 127.628 49.4156 127.175Z" fill="#EFB519"/>
<path d="M17.4019 127.352C16.7175 128.294 16.3466 129.429 16.3418 130.595C16.3981 131.073 16.3302 131.695 17.0498 131.904C17.736 132.101 18.0926 131.654 18.4287 131.175C18.7213 130.758 18.9526 130.301 19.1156 129.818C19.2827 129.425 19.3496 128.997 19.3103 128.571C19.2709 128.145 19.1266 127.736 18.8902 127.381C18.4146 126.702 17.8794 126.681 17.4019 127.352ZM17.5836 130.639C17.2322 129.634 17.6105 128.877 18.1905 128.018C18.3415 128.469 18.3647 128.952 18.2577 129.415C18.1507 129.878 17.9175 130.302 17.5843 130.64L17.5836 130.639Z" fill="#EFB519"/>
<path d="M101.573 126.853C101.345 126.855 101.123 126.929 100.94 127.064C99.9105 127.756 99.123 130.123 99.543 131.298C99.6049 131.581 99.7717 131.829 100.009 131.992C100.247 132.155 100.538 132.222 100.823 132.178C101.469 132.09 101.725 131.551 101.956 131.03C101.984 130.948 101.983 130.859 101.955 130.778C101.927 130.697 101.872 130.627 101.8 130.581C101.723 130.517 101.627 130.483 101.528 130.483C101.429 130.483 101.332 130.517 101.256 130.581C101.019 130.716 100.913 131.049 100.52 131.035C100.531 129.763 100.755 128.611 101.928 127.866C102.146 127.728 102.388 127.58 102.255 127.263C102.198 127.133 102.102 127.023 101.979 126.949C101.857 126.876 101.715 126.842 101.573 126.853Z" fill="#EFB519"/>
<path d="M59.6843 126.857C59.515 126.876 59.3512 126.929 59.2027 127.013C59.0541 127.097 58.9239 127.21 58.8196 127.345C58.3872 127.835 58.062 128.41 57.8649 129.033C57.6677 129.656 57.603 130.314 57.675 130.964C57.6871 131.149 57.7363 131.33 57.8197 131.495C57.9031 131.66 58.0189 131.807 58.1602 131.926C58.2622 132.027 58.385 132.105 58.5202 132.153C58.6553 132.2 58.7994 132.218 58.942 132.203C59.0846 132.189 59.2224 132.143 59.3454 132.069C59.4683 131.995 59.5733 131.895 59.6531 131.776C59.9296 131.455 60.4692 131.098 60.016 130.637C59.4808 130.094 59.2702 130.994 58.7433 131.048C58.663 130.448 58.7484 129.837 58.9901 129.281C59.2318 128.726 59.6207 128.247 60.1146 127.898C60.3623 127.718 60.5792 127.541 60.3987 127.209C60.3319 127.083 60.227 126.98 60.0987 126.917C59.9703 126.854 59.8253 126.833 59.6843 126.857Z" fill="#EFB519"/>
<path d="M75.4025 126.876C75.2619 126.855 75.1187 126.865 74.9821 126.905C74.8456 126.944 74.7191 127.012 74.6108 127.104C74.0548 127.636 73.6405 128.3 73.4057 129.034C73.1709 129.767 73.123 130.548 73.2664 131.305C73.2951 131.454 73.3542 131.595 73.4399 131.72C73.5256 131.844 73.6362 131.95 73.7645 132.03C73.8929 132.109 74.0362 132.162 74.1857 132.183C74.3352 132.205 74.4876 132.195 74.6331 132.155C75.2272 132.04 75.4653 131.513 75.6663 131.005C75.6831 130.965 75.6919 130.922 75.6921 130.879C75.6923 130.836 75.684 130.793 75.6676 130.753C75.6512 130.713 75.6269 130.676 75.5963 130.646C75.5658 130.615 75.5297 130.591 75.4897 130.574C74.9533 130.304 74.7855 130.91 74.2862 131.092C74.1877 130.476 74.2644 129.844 74.5073 129.27C74.7503 128.695 75.1497 128.201 75.6599 127.843C75.8565 127.708 76.0561 127.587 75.9755 127.313C75.9386 127.188 75.8633 127.079 75.7603 127C75.6573 126.922 75.5319 126.878 75.4025 126.876Z" fill="#EFB519"/>
<path d="M94.9927 127.256C94.5414 127.119 94.3749 127.458 94.2943 127.8C94.0467 128.674 93.9005 129.573 93.8584 130.48C93.8725 130.79 93.8724 131.103 93.9025 131.413C93.8996 131.484 93.9117 131.556 93.9381 131.622C93.9645 131.689 94.0045 131.749 94.0556 131.8C94.1067 131.85 94.1677 131.889 94.2347 131.914C94.3018 131.939 94.3733 131.95 94.4448 131.946C94.825 131.935 94.7745 131.629 94.7649 131.379C94.7557 130.272 94.9509 129.172 95.3409 128.136C95.4837 127.724 95.4517 127.392 94.9927 127.256Z" fill="#EFB519"/>
<path d="M96.0964 126.018C96.2008 125.565 96.1368 125.3 95.7565 125.277C95.1996 125.245 95.1394 125.674 95.0978 126.08C95.0664 126.38 94.9697 126.796 95.4274 126.805C95.9926 126.817 96.0158 126.294 96.0964 126.018Z" fill="#EFB519"/>
</g>
<defs>
<clipPath id="clip0_195_1756">
<rect width="111" height="136" fill="white"/>
</clipPath>
</defs>
</svg>
