<svg width="32" height="32" viewBox="0 0 32 32" fill="none" xmlns="http://www.w3.org/2000/svg">
<path d="M16.0012 23.3846C16.2534 23.3846 16.4644 23.3024 16.6342 23.1379C16.804 22.9733 16.8889 22.7695 16.8889 22.5263C16.8889 22.2831 16.8036 22.0797 16.633 21.9159C16.4624 21.7522 16.251 21.6703 15.9988 21.6703C15.7466 21.6703 15.5356 21.7526 15.3658 21.9171C15.196 22.0816 15.1111 22.2854 15.1111 22.5286C15.1111 22.7718 15.1964 22.9753 15.367 23.139C15.5376 23.3028 15.749 23.3846 16.0012 23.3846ZM16.0012 16.8571C16.2534 16.8571 16.4644 16.7749 16.6342 16.6104C16.804 16.4459 16.8889 16.242 16.8889 15.9988C16.8889 15.7556 16.8036 15.5522 16.633 15.3885C16.4624 15.2247 16.251 15.1429 15.9988 15.1429C15.7466 15.1429 15.5356 15.2251 15.3658 15.3896C15.196 15.5541 15.1111 15.758 15.1111 16.0012C15.1111 16.2444 15.1964 16.4478 15.367 16.6115C15.5376 16.7753 15.749 16.8571 16.0012 16.8571ZM16.0012 10.3297C16.2534 10.3297 16.4644 10.2474 16.6342 10.0829C16.804 9.91841 16.8889 9.71456 16.8889 9.47136C16.8889 9.22818 16.8036 9.02473 16.633 8.86098C16.4624 8.69724 16.251 8.61537 15.9988 8.61537C15.7466 8.61537 15.5356 8.69763 15.3658 8.86214C15.196 9.02666 15.1111 9.2305 15.1111 9.47367C15.1111 9.71687 15.1964 9.92034 15.367 10.0841C15.5376 10.2478 15.749 10.3297 16.0012 10.3297ZM29.1282 28H2.87178C2.08203 28 1.40597 27.7288 0.8436 27.1865C0.2812 26.6442 0 25.9923 0 25.2308V20.8132C1.04613 20.4396 1.90027 19.8181 2.5624 18.9489C3.2245 18.0797 3.55556 17.0967 3.55556 16C3.55556 14.9033 3.2245 13.9203 2.5624 13.0511C1.90027 12.1819 1.04613 11.5604 0 11.1868V6.76921C0 6.00767 0.2812 5.35576 0.8436 4.81347C1.40597 4.27116 2.08203 4 2.87178 4H29.1282C29.918 4 30.594 4.27116 31.1564 4.81347C31.7188 5.35576 32 6.00767 32 6.76921V11.1868C30.9539 11.5604 30.0997 12.1819 29.4376 13.0511C28.7755 13.9203 28.4444 14.9033 28.4444 16C28.4444 17.0967 28.7755 18.0797 29.4376 18.9489C30.0997 19.8181 30.9539 20.4396 32 20.8132V25.2308C32 25.9923 31.7188 26.6442 31.1564 27.1865C30.594 27.7288 29.918 28 29.1282 28ZM29.1282 26.2857C29.4473 26.2857 29.7094 26.1868 29.9145 25.989C30.1197 25.7912 30.2222 25.5385 30.2222 25.2308V21.9143C29.1259 21.2857 28.2593 20.45 27.6222 19.4071C26.9852 18.3643 26.6667 17.2286 26.6667 16C26.6667 14.7714 26.9852 13.6357 27.6222 12.5929C28.2593 11.55 29.1259 10.7143 30.2222 10.0857V6.76921C30.2222 6.46153 30.1197 6.20878 29.9145 6.01098C29.7094 5.81318 29.4473 5.71429 29.1282 5.71429H2.87178C2.5527 5.71429 2.29059 5.81318 2.08547 6.01098C1.88034 6.20878 1.77778 6.46153 1.77778 6.76921V10.0857C2.87407 10.7143 3.74074 11.55 4.37778 12.5929C5.01481 13.6357 5.33333 14.7714 5.33333 16C5.33333 17.2286 5.01481 18.3643 4.37778 19.4071C3.74074 20.45 2.87407 21.2857 1.77778 21.9143V25.2308C1.77778 25.5385 1.88034 25.7912 2.08547 25.989C2.29059 26.1868 2.5527 26.2857 2.87178 26.2857H29.1282Z" fill="#121212"/>
</svg>
