<svg width="26" height="26" viewBox="0 0 26 26" fill="none" xmlns="http://www.w3.org/2000/svg">
<g clip-path="url(#clip0_4086_21917)">
<path d="M23.9023 14.7019C24.4419 14.7181 24.9827 14.7087 25.5229 14.7066C25.7534 14.7053 25.9377 14.6361 26.0001 14.3854V10.8353C25.9398 10.5832 25.7547 10.5059 25.5243 10.51C25.3487 10.5127 25.266 10.4368 25.2362 10.2653C25.0315 9.0772 24.0142 8.45705 22.9704 8.46925C20.6042 8.49772 18.2374 8.47874 15.8712 8.47738C15.5432 8.47738 15.5269 8.46044 15.5262 8.13512C15.5249 7.50142 15.5262 6.86772 15.5262 6.23334C15.5262 5.32108 15.1372 4.63994 14.3123 4.23125C14.1395 4.14586 14.1381 4.06859 14.2411 3.92627C14.4262 3.67075 14.5536 3.38542 14.6349 3.08043C14.7298 2.72212 14.9618 2.54297 15.331 2.54297C15.9383 2.54297 15.9681 2.50569 15.9322 1.88894C15.92 1.67748 15.8285 1.58259 15.6191 1.58259C15.3486 1.58259 15.0782 1.57852 14.8078 1.58259C14.6349 1.5853 14.5204 1.51685 14.4472 1.36029C14.357 1.16848 14.2404 0.993623 14.0995 0.832995C13.5654 0.22505 12.8977 -0.0209747 12.0919 0.00139117C11.1552 0.0278236 10.476 0.458197 10.0273 1.24575C9.51355 2.14648 9.59488 3.04451 10.1527 3.90525C10.2428 4.04419 10.2991 4.1323 10.0958 4.23261C9.27158 4.64062 8.88252 5.32244 8.8832 6.23537C8.8832 7.80708 8.8832 9.3788 8.8832 10.9512C8.8832 11.6256 9.09467 12.2288 9.4966 12.7676C9.52846 12.8103 9.59217 12.8435 9.55218 12.9411C9.1489 12.9417 8.7368 12.9424 8.32471 12.9411C7.78857 12.9397 7.81636 12.9811 7.81636 12.4307C7.81636 8.55194 7.81636 4.67247 7.81636 0.793686C7.81636 0.0617113 7.76349 0.00816872 7.04572 0.00816872H1.11235C0.425747 0.00816872 0.362035 0.0725553 0.362035 0.762509C0.362035 4.60741 0.362035 8.45298 0.362035 12.2979C0.362035 12.4328 0.36068 12.5683 0.362035 12.7032C0.362713 12.8306 0.324079 12.9343 0.21021 13.0034C0.0468631 13.1024 0.00484016 13.2569 0.00619574 13.4379C0.00958468 13.9279 0.00755131 14.4179 0.00755131 14.9086C0.00755131 15.4067 0.119387 15.5233 0.616884 15.5247C1.76913 15.5267 2.92137 15.5281 4.03701 15.524C3.07794 15.9889 2.21986 16.6328 1.54003 17.4969C0.408125 18.9331 -0.0670055 20.5794 0.00755131 22.3944C0.0183959 22.6641 0.155309 22.7997 0.44337 22.8214C0.704319 22.841 0.967301 22.8275 1.22893 22.8288C1.65594 22.8302 1.65729 22.8288 1.79353 23.2341C2.03007 23.9376 2.41235 24.5422 2.97356 25.0349C3.60119 25.5853 4.3149 25.9316 5.15401 26.0007H6.16866C6.18899 25.9858 6.21068 25.9756 6.23779 25.975C7.28701 25.9424 8.09968 25.4321 8.78763 24.6893C9.20719 24.2365 9.50812 23.7086 9.66402 23.1081C9.72095 22.8885 9.84024 22.8214 10.0626 22.822C11.9895 22.8295 13.9165 22.8261 15.8434 22.8268C16.1857 22.8268 16.1898 22.8336 16.1918 23.188C16.1932 23.4415 16.1823 23.6957 16.1966 23.9485C16.2142 24.2602 16.3809 24.4256 16.694 24.4446C16.9137 24.4581 17.1339 24.4405 17.3529 24.4514C17.6606 24.4663 17.9446 24.3917 18.1899 24.2135C18.3573 24.0915 18.4448 24.1335 18.5566 24.286C18.9199 24.7801 19.3503 25.201 19.8837 25.5182C20.3507 25.796 20.853 25.939 21.385 26.0014H22.3997C22.5949 25.9506 22.8003 25.9783 22.9941 25.9275C23.943 25.6774 24.6981 25.1406 25.281 24.3572C25.7025 23.7906 25.9445 23.1555 26.0008 22.4513V21.4367C25.9364 21.211 25.9587 20.9731 25.8889 20.7447C25.6429 19.9335 25.163 19.2855 24.5286 18.7413C24.3063 18.5508 24.3049 18.5529 24.4961 18.3441C24.8926 17.9131 24.9678 17.3214 24.6737 16.8483C24.4907 16.5542 24.248 16.319 23.8942 16.2451C23.6895 16.2024 23.6217 16.0919 23.6305 15.8886C23.6441 15.5857 23.6434 15.2807 23.6305 14.9777C23.6217 14.7717 23.6841 14.6971 23.9023 14.7032V14.7019ZM22.2472 9.46352C22.2397 9.43979 22.237 9.41472 22.2275 9.36592C22.5698 9.36592 22.8904 9.35711 23.211 9.36795C23.7695 9.38625 24.2256 9.78545 24.3537 10.3432C24.3924 10.5134 24.387 10.6015 24.164 10.5872C23.4652 10.5432 22.8674 10.7756 22.4126 11.3172C21.7138 12.1488 21.8012 13.3606 22.6118 14.0973C22.7155 14.1915 22.7589 14.2803 22.7576 14.4186C22.7501 14.9676 22.7501 15.5165 22.7576 16.0648C22.7596 16.2092 22.7393 16.2702 22.5705 16.2668C22.1408 16.2573 21.709 16.2356 21.282 16.3122C21.1519 16.3353 21.1288 16.2858 21.1288 16.1658C21.1322 14.6205 21.1322 13.0753 21.1295 11.5307C21.1295 11.4256 21.1485 11.3741 21.2678 11.3389C22.1401 11.0813 22.5257 10.3338 22.2472 9.46352ZM20.9235 9.36524C21.2562 9.36253 21.5362 9.64176 21.5355 9.97522C21.5341 10.2978 21.2671 10.5716 20.9445 10.5811C20.6123 10.5906 20.3263 10.3168 20.3202 9.98403C20.3141 9.65057 20.59 9.36795 20.9235 9.36592V9.36524ZM20.3243 11.6005C20.3155 13.1708 20.3195 14.7412 20.3189 16.3115C20.3189 16.4078 20.3433 16.5013 20.2003 16.544C19.6736 16.7013 19.1897 16.9534 18.6962 17.2848C18.6962 16.0533 18.682 14.8639 18.701 13.6744C18.7145 12.8157 18.4814 12.0634 17.8829 11.4371C17.9344 11.3585 18.009 11.3958 18.0686 11.3958C18.7444 11.3924 19.4194 11.3992 20.0952 11.3904C20.2592 11.3883 20.3256 11.41 20.3243 11.6012V11.6005ZM13.8216 2.63989C13.7064 3.82935 12.3203 4.48609 11.3232 3.82664C11.1646 3.72226 11.1701 3.65652 11.3016 3.53317C11.5842 3.26817 11.8641 2.99842 12.123 2.71037C12.2884 2.52603 12.464 2.43317 12.712 2.46503C12.8361 2.48129 12.9649 2.46774 13.0909 2.46774C13.2848 2.46774 13.4793 2.47858 13.6725 2.46435C13.8243 2.45283 13.8331 2.52128 13.8216 2.63989ZM11.4602 1.02819C12.222 0.634413 13.1404 0.894671 13.5816 1.65579C13.2421 1.65579 12.9283 1.68222 12.6212 1.64969C12.1942 1.60428 11.8831 1.75 11.6086 2.07329C11.3327 2.39861 11.0135 2.68665 10.7051 2.9991C10.3845 2.29017 10.7363 1.40231 11.4602 1.02819ZM9.16313 13.8242C10.1344 13.8316 11.1057 13.8283 12.0776 13.8283C13.0238 13.8283 13.97 13.8283 14.9155 13.8283C15.3432 13.8283 15.5167 14.0411 15.43 14.4559C15.3066 15.0448 14.8281 15.4474 14.2249 15.4494C12.6287 15.4542 11.0318 15.4522 9.4356 15.4501C9.10891 15.4501 8.96183 15.2976 8.95912 14.9669C8.9564 14.6544 8.96928 14.3413 8.95437 14.0295C8.94624 13.8594 9.00182 13.8235 9.16381 13.8249L9.16313 13.8242ZM14.6349 16.441C14.6336 16.2844 14.66 16.1963 14.8301 16.1624C15.0457 16.1191 15.2287 15.9937 15.4503 15.8554C15.4503 17.0476 15.4483 18.2032 15.453 19.3587C15.453 19.4841 15.4123 19.5072 15.2951 19.5119C14.6383 19.5349 14.6383 19.5383 14.6383 18.8979C14.6383 18.0791 14.6431 17.2597 14.6342 16.441H14.6349ZM6.92914 10.1758C6.92914 11.0549 6.92439 11.9339 6.9332 12.813C6.93456 12.9777 6.89186 13.021 6.72648 13.0204C4.96829 13.0143 3.21011 13.0143 1.45192 13.0204C1.28654 13.0204 1.24452 12.9783 1.24519 12.813C1.25129 11.0549 1.25129 9.29679 1.24519 7.53869C1.24519 7.37197 1.28857 7.32723 1.45328 7.33198C1.86741 7.34418 2.28153 7.34215 2.69566 7.33198C2.84139 7.32859 2.87731 7.37332 2.87528 7.5143C2.86782 8.09716 2.87121 8.68071 2.87257 9.26358C2.87325 9.62618 3.01626 9.76783 3.37888 9.76918C3.86078 9.77054 4.34269 9.77122 4.8246 9.76918C5.15468 9.76715 5.30448 9.61872 5.30583 9.29001C5.30854 8.69833 5.31125 8.10665 5.30312 7.51497C5.30109 7.374 5.33701 7.32859 5.48273 7.33198C5.89686 7.34215 6.31099 7.3435 6.72512 7.33198C6.88982 7.32723 6.93524 7.37129 6.9332 7.53869C6.92439 8.41774 6.92914 9.29679 6.92914 10.1758ZM4.49723 8.82168C4.50197 8.93622 4.45927 8.95723 4.35286 8.96266C3.6832 8.99722 3.6832 9.00061 3.6832 8.33573C3.6832 8.05718 3.69066 7.77794 3.67981 7.49938C3.67439 7.3618 3.72184 7.33537 3.84994 7.33266C4.49452 7.3191 4.49452 7.31504 4.49452 7.95958C4.49452 8.02736 4.49452 8.09445 4.49452 8.16223C4.49452 8.38182 4.48842 8.60209 4.49723 8.821V8.82168ZM3.6832 1.63275V1.45517C3.6832 0.83774 3.6832 0.843839 4.28982 0.840451C4.45182 0.839773 4.50468 0.876372 4.49926 1.04581C4.48638 1.46805 4.49113 1.89029 4.49723 2.31253C4.49926 2.43114 4.46808 2.4657 4.34473 2.47113C3.6832 2.49756 3.6832 2.50163 3.6832 1.83539V1.63275ZM1.4526 0.840451C1.86673 0.851973 2.28086 0.850617 2.69499 0.840451C2.84139 0.837062 2.87596 0.883149 2.8746 1.02344C2.86714 1.60631 2.87053 2.18986 2.87189 2.77273C2.87257 3.13465 3.01558 3.2763 3.37888 3.27765C3.86078 3.27901 4.34269 3.28037 4.8246 3.27765C5.15468 3.27562 5.3038 3.12719 5.30515 2.7978C5.30786 2.20613 5.31058 1.61445 5.30244 1.02277C5.30041 0.880438 5.33769 0.837062 5.48273 0.840451C5.89686 0.849939 6.31099 0.851973 6.72512 0.840451C6.8905 0.835706 6.93456 0.881794 6.93253 1.04784C6.92371 1.93502 6.92846 2.82288 6.92846 3.71006C6.92846 4.59724 6.92371 5.45121 6.93253 6.32213C6.93388 6.48818 6.88982 6.52952 6.72512 6.52884C4.96694 6.52274 3.20875 6.52274 1.45056 6.52884C1.28383 6.52884 1.24384 6.48479 1.24452 6.32077C1.25062 4.56268 1.25062 2.80458 1.24452 1.04649C1.24452 0.879083 1.28925 0.835706 1.45328 0.840451H1.4526ZM1.09676 14.6443C0.886644 14.6449 0.831065 14.5968 0.837166 14.3854C0.853432 13.8283 0.84191 13.8276 1.40109 13.8276H4.49452C5.63524 13.8276 6.77663 13.8323 7.91735 13.8228C8.10646 13.8215 8.15526 13.8655 8.15119 14.056C8.13967 14.6388 8.14848 14.6388 7.56219 14.6388C5.40682 14.6388 3.25145 14.6355 1.09608 14.6443H1.09676ZM5.86094 25.184C4.30677 25.2355 2.91798 24.2135 2.5879 22.7536C2.9783 22.7536 3.34905 22.759 3.72048 22.7502C3.83638 22.7475 3.87773 22.8037 3.92585 22.8905C4.31558 23.5913 4.91746 23.9661 5.71589 23.9647C6.51433 23.9634 7.11553 23.5872 7.50187 22.8844C7.55202 22.7936 7.60015 22.7482 7.71198 22.7509C8.08273 22.759 8.45416 22.7543 8.82627 22.7543C8.63649 24.0149 7.26058 25.1386 5.86094 25.1847V25.184ZM4.82731 22.7604H6.54822C6.26694 23.2761 5.36073 23.2938 4.82731 22.7604ZM16.4595 20.4953C16.3348 20.9182 16.2657 21.3527 16.267 21.7925C16.2677 22.0054 16.1301 21.9396 16.0305 21.9403C14.0534 21.943 12.0763 21.9423 10.0998 21.9423H8.57888C6.08664 21.9423 3.59441 21.9396 1.10218 21.9471C0.888 21.9471 0.845299 21.9037 0.864955 21.6855C1.0161 19.9877 1.64035 18.5176 2.9173 17.3594C4.00719 16.3712 5.31735 15.8534 6.74817 15.6033C7.17314 15.5294 7.60218 15.5009 8.03122 15.4637C8.1661 15.4522 8.23591 15.4901 8.30369 15.6162C8.5355 16.0465 8.91031 16.26 9.39832 16.2607C10.7837 16.2634 12.1698 16.2661 13.5552 16.2566C13.7646 16.2553 13.8372 16.2878 13.8338 16.523C13.8182 17.6128 13.8263 18.7027 13.827 19.7925C13.827 20.1863 13.9626 20.3191 14.3625 20.3191C15.0131 20.3198 15.6638 20.3245 16.3138 20.3157C16.4663 20.3137 16.5009 20.353 16.4589 20.4953H16.4595ZM16.2847 19.4875C16.2311 19.4251 16.263 19.3411 16.263 19.2679C16.2609 17.6372 16.2616 16.0059 16.2616 14.3752C16.2616 13.5002 15.775 13.0163 14.8952 13.0163C13.8894 13.0163 12.8835 13.0177 11.8784 13.0163C10.6475 13.0136 9.77246 12.1413 9.77043 10.9112C9.76772 9.33949 9.76907 7.76778 9.77043 6.19606C9.77111 5.42071 10.2815 4.90494 11.0501 4.90291C11.8194 4.90088 12.588 4.90088 13.3573 4.90291C14.1273 4.90494 14.637 5.41868 14.639 6.19471C14.641 7.07375 14.639 7.95212 14.639 8.83117C14.639 9.22969 14.7725 9.36524 15.1677 9.36524C16.6459 9.36524 18.1249 9.36524 19.6472 9.36524C19.4648 9.7807 19.4635 10.1752 19.6492 10.5825C18.518 10.5825 17.42 10.5825 16.3219 10.5825C15.7729 10.5825 15.2232 10.5852 14.6742 10.5818C13.9497 10.5771 13.4271 10.0586 13.423 9.33745C13.419 8.60209 13.4163 7.86673 13.4264 7.13204C13.4291 6.96125 13.3769 6.92668 13.2163 6.92736C12.6104 6.93075 12.6104 6.92465 12.6104 7.51768C12.6104 8.1175 12.6077 8.71799 12.6104 9.3178C12.6165 10.5134 13.4969 11.3829 14.6966 11.3965C15.2192 11.4026 15.7451 11.3416 16.2643 11.4405C17.1644 11.6127 17.8666 12.4145 17.8775 13.3328C17.8951 14.8367 17.8836 16.3414 17.8856 17.8453C17.8856 17.9239 17.8741 17.9883 17.8151 18.0507C17.4355 18.4512 17.1244 18.9012 16.8737 19.3926C16.8228 19.4929 16.3545 19.5702 16.2847 19.4882V19.4875ZM25.1888 21.943C25.1874 23.7343 23.722 25.1922 21.9286 25.1874C20.1515 25.1827 18.6962 23.7207 18.6969 21.9403C18.6969 20.1503 20.163 18.6918 21.9571 18.6959C23.7349 18.7006 25.1908 20.1632 25.1888 21.943ZM23.9701 17.4746C23.9728 17.7131 23.7946 17.8812 23.5201 17.8833C22.9873 17.8873 22.4553 17.8819 21.9225 17.8853C19.7007 17.8975 17.8985 19.6983 17.8856 21.9179C17.8836 22.307 17.8876 22.6953 17.8842 23.0843C17.8809 23.4673 17.4694 23.7235 17.1238 23.5635C17.0736 23.5405 17.0729 23.5039 17.0743 23.4625C17.1007 22.4947 16.9889 21.5208 17.2702 20.5672C17.8673 18.5414 19.7522 17.0984 21.8642 17.074C22.1008 17.0713 22.3373 17.074 22.5745 17.0733C22.887 17.0733 23.2001 17.07 23.5126 17.0733C23.7898 17.0767 23.9681 17.2367 23.9708 17.4739L23.9701 17.4746ZM22.7542 12.5988C22.7589 11.9563 23.2754 11.4168 23.9193 11.3958C24.2826 11.3843 24.6459 11.3999 25.0092 11.3897C25.1501 11.3856 25.1962 11.4229 25.1922 11.5693C25.1813 11.9238 25.1888 12.2789 25.1888 12.634C25.1888 12.9804 25.184 13.3274 25.1915 13.6737C25.1942 13.7937 25.1623 13.833 25.0376 13.8303C24.6574 13.8222 24.2765 13.8391 23.8969 13.8228C23.255 13.7944 22.7494 13.2433 22.7542 12.5995V12.5988Z" fill="black"/>
<path d="M2.20998 5.71639C2.43772 5.70623 2.66613 5.71368 2.89387 5.71368C2.95284 5.71368 3.01248 5.71368 3.07145 5.71368C3.69773 5.71368 3.69298 5.71368 3.68688 5.08269C3.68553 4.94375 3.65638 4.89225 3.50795 4.89902C3.22938 4.91122 2.9508 4.90241 2.67156 4.90241C2.03037 4.90241 2.03376 4.90241 2.0568 5.55916C2.06087 5.67573 2.08323 5.72249 2.20998 5.71707V5.71639Z" fill="black"/>
<path d="M3.54258 11.3911C3.2552 11.3986 2.96781 11.3938 2.68111 11.3938C2.01688 11.3938 2.02026 11.3938 2.05687 12.0662C2.06297 12.1766 2.09008 12.2112 2.20056 12.2078C2.42016 12.1997 2.63976 12.2058 2.85937 12.2058C2.92715 12.2058 2.99425 12.2058 3.06203 12.2058C3.72626 12.2058 3.72287 12.2058 3.68627 11.5334C3.68017 11.423 3.65306 11.3891 3.54258 11.3918V11.3911Z" fill="black"/>
<path d="M19.9141 21.9421C19.9141 23.0563 20.8284 23.9706 21.9427 23.9706C23.0576 23.9706 23.9713 23.0563 23.9713 21.9414C23.9713 20.8258 23.0583 19.9136 21.942 19.9136C20.827 19.9136 19.9141 20.8272 19.9141 21.9421ZM23.16 21.9306C23.1654 22.6036 22.6137 23.16 21.9413 23.1593C21.2791 23.1593 20.7308 22.6151 20.7254 21.9536C20.72 21.2799 21.2703 20.7248 21.9434 20.7255C22.6069 20.7255 23.1539 21.2684 23.1593 21.9306H23.16Z" fill="black"/>
</g>
<defs>
<clipPath id="clip0_4086_21917">
<rect width="26" height="26" fill="white"/>
</clipPath>
</defs>
</svg>
