<svg width="45" height="14" viewBox="0 0 45 14" fill="none" xmlns="http://www.w3.org/2000/svg">
<path fill-rule="evenodd" clip-rule="evenodd" d="M24.9186 5.27318V6.04118C24.9186 8.78038 23.0112 10.4444 20.5022 10.4444C17.6859 10.4444 15.6634 8.37078 15.6634 5.79798C15.6634 3.19958 17.7243 1.12598 20.3614 1.12598C22.0767 1.12598 23.5232 1.97078 24.2785 3.17398L22.5376 4.17238C22.1663 3.58358 21.3599 3.12278 20.3486 3.12278C18.838 3.12278 17.7115 4.23638 17.7115 5.81078C17.7115 7.33398 18.7868 8.44758 20.5278 8.44758C21.7183 8.44758 22.4992 7.92278 22.8192 7.06518H20.4254V5.27318H24.9186ZM6.17916 3.86518H8.04812V9.94518C8.04812 12.0956 6.37118 13.0044 4.66863 13.0044C3.33732 13.0044 2.22362 12.5052 1.63477 11.4556L3.27331 10.5084C3.51653 10.9564 3.88777 11.3148 4.73264 11.3148C5.62871 11.3148 6.17916 10.854 6.17916 9.94518V9.35638C5.75673 9.88118 5.14227 10.1884 4.3102 10.1884C2.49245 10.1884 1.16113 8.70358 1.16113 6.93718C1.16113 5.17078 2.49245 3.68598 4.3102 3.68598C5.14227 3.68598 5.75673 3.99318 6.17916 4.51798V3.86518ZM4.63023 8.42198C5.53911 8.42198 6.17916 7.82038 6.17916 6.93718C6.17916 6.05398 5.53911 5.45238 4.63023 5.45238C3.72135 5.45238 3.0813 6.05398 3.0813 6.93718C3.0813 7.82038 3.72135 8.42198 4.63023 8.42198ZM29.3375 3.73718C28.5311 3.73718 27.6734 4.14678 27.4174 5.00438V3.86518H25.4972V10.2652H27.4174V7.37238C27.4174 6.10518 28.5439 5.78518 29.3375 5.91318V3.73718ZM33.8578 3.86518H35.778V10.2652H33.8578V9.66358C33.5122 10.1372 32.8721 10.4444 32.0273 10.4444C30.7344 10.4444 29.6335 9.52278 29.6335 7.79478V3.86518H31.5536V7.51318C31.5536 8.30678 32.0529 8.67798 32.6673 8.67798C33.3714 8.67798 33.8578 8.26838 33.8578 7.35958V3.86518ZM43.5611 7.06518C43.5611 5.15798 42.1786 3.68598 40.5017 3.68598C39.644 3.68598 39.0168 3.98038 38.5943 4.46678V1.30518H36.6742V10.2652H38.5943V9.66358C39.0168 10.15 39.644 10.4444 40.5017 10.4444C42.1786 10.4444 43.5611 8.97238 43.5611 7.06518ZM41.641 7.06518C41.641 8.02518 41.0009 8.62678 40.1177 8.62678C39.2344 8.62678 38.5943 8.02518 38.5943 7.06518C38.5943 6.10518 39.2344 5.50358 40.1177 5.50358C41.0009 5.50358 41.641 6.10518 41.641 7.06518ZM10.151 2.92044C10.1036 2.87804 10.0666 2.82837 10.04 2.77143C10.0134 2.71449 9.99849 2.6569 9.99522 2.59866C9.99194 2.54041 9.99992 2.48237 10.0192 2.42452C10.0384 2.36668 10.0701 2.31398 10.1142 2.26642L10.2909 2.06867C10.3145 2.0423 10.3316 2.01296 10.3422 1.98064C10.3529 1.94832 10.3573 1.91551 10.3555 1.88223C10.3537 1.84894 10.3457 1.81684 10.3313 1.78593C10.3169 1.75502 10.2966 1.72778 10.2704 1.70421L10.1465 1.59349C10.1254 1.57464 10.1145 1.55188 10.1138 1.52521C10.1131 1.49854 10.1222 1.47465 10.1411 1.45356C10.16 1.43246 10.1832 1.42114 10.2105 1.4196C10.2379 1.41806 10.2622 1.42671 10.2834 1.44555L10.4047 1.55392C10.4521 1.59633 10.4887 1.64519 10.5143 1.70051C10.5399 1.75583 10.5544 1.81261 10.5577 1.87085C10.5611 1.92909 10.5531 1.98674 10.5337 2.04379C10.5143 2.10084 10.4835 2.15306 10.4411 2.20045L10.2644 2.39821C10.2393 2.42633 10.2213 2.45655 10.2106 2.48888C10.1999 2.5212 10.1955 2.554 10.1974 2.58728C10.1993 2.62056 10.2074 2.6531 10.2216 2.68488C10.2358 2.71667 10.2571 2.74509 10.2853 2.77015L10.4092 2.88087C10.4303 2.89972 10.4416 2.92289 10.4432 2.95038C10.4447 2.97787 10.4361 3.00213 10.4172 3.02316C10.3984 3.04419 10.3752 3.05551 10.3477 3.05712C10.3202 3.05873 10.296 3.05008 10.275 3.03116L10.151 2.92044ZM9.65183 2.94853C9.60437 2.90612 9.56778 2.85686 9.54205 2.80075C9.51633 2.74463 9.50185 2.68738 9.49864 2.629C9.49542 2.57062 9.50338 2.51217 9.52253 2.45367C9.54167 2.39516 9.5725 2.34211 9.61503 2.2945L9.7917 2.09675C9.81526 2.07039 9.83237 2.04104 9.84304 2.00872C9.85371 1.9764 9.85814 1.9436 9.85633 1.91031C9.85453 1.87702 9.84644 1.84493 9.83208 1.81401C9.81772 1.7831 9.79743 1.75586 9.7712 1.7323L9.64728 1.62157C9.62795 1.6043 9.61708 1.58197 9.61467 1.55459C9.61226 1.52722 9.62051 1.50295 9.63942 1.48178C9.6566 1.46078 9.67931 1.44909 9.70755 1.4467C9.7358 1.44431 9.76046 1.4525 9.78155 1.47128L9.90547 1.58201C9.95292 1.62441 9.98946 1.67327 10.0151 1.72859C10.0407 1.78391 10.0552 1.8407 10.0585 1.89894C10.0619 1.95718 10.0538 2.01483 10.0344 2.07188C10.015 2.12893 9.98411 2.18115 9.94184 2.22854L9.76517 2.42629C9.74004 2.45442 9.72211 2.48464 9.71138 2.51696C9.70064 2.54929 9.69625 2.58209 9.69819 2.61537C9.70012 2.64865 9.7082 2.68118 9.72241 2.71297C9.73661 2.74476 9.75784 2.77318 9.7861 2.79823L9.91001 2.90896C9.9311 2.92781 9.94242 2.95097 9.94397 2.97847C9.94552 3.00596 9.93687 3.03022 9.91802 3.05125C9.89917 3.07227 9.876 3.08359 9.84851 3.08521C9.82103 3.08682 9.79677 3.07817 9.77574 3.05925L9.65183 2.94853ZM9.15248 2.97412C9.10502 2.93171 9.06845 2.88285 9.04277 2.82753C9.01709 2.77222 9.00264 2.71543 8.99943 2.65718C8.99622 2.59893 9.00418 2.54049 9.02332 2.48185C9.04246 2.42321 9.07329 2.37012 9.11582 2.32259L9.29235 2.12234C9.31591 2.09598 9.33302 2.06663 9.34369 2.03431C9.35435 2.00199 9.35879 1.96919 9.35698 1.9359C9.35517 1.90261 9.34709 1.87051 9.33273 1.8396C9.31837 1.80869 9.29808 1.78145 9.27185 1.75789L9.14793 1.64716C9.1286 1.62989 9.11773 1.60756 9.11532 1.58018C9.11291 1.55281 9.12116 1.52854 9.14007 1.50737C9.15734 1.48804 9.18012 1.47757 9.20841 1.47598C9.2367 1.47439 9.26051 1.48223 9.27985 1.49951L9.40626 1.61009C9.45371 1.6525 9.49025 1.70136 9.51586 1.75668C9.54148 1.812 9.55596 1.86878 9.5593 1.92702C9.56264 1.98527 9.5546 2.04291 9.53518 2.09997C9.51575 2.15702 9.4849 2.20924 9.44263 2.25662L9.26596 2.45438C9.24083 2.4825 9.22293 2.51316 9.21224 2.54635C9.20156 2.57954 9.19718 2.61274 9.19912 2.64595C9.20105 2.67916 9.2091 2.71126 9.22326 2.74225C9.23743 2.77324 9.25863 2.80127 9.28689 2.82632L9.4108 2.93704C9.43189 2.95589 9.44279 2.97865 9.44349 3.00532C9.44419 3.03199 9.43508 3.05588 9.41617 3.07698C9.39723 3.09641 9.37447 3.1073 9.3479 3.10967C9.32132 3.11203 9.29749 3.10375 9.27639 3.08484L9.15248 2.97412ZM10.5812 3.77389C10.3865 3.86334 10.2017 3.97065 10.0289 4.09371C10.0464 4.10733 10.063 4.1226 10.0784 4.1395L12.1958 6.45161C12.2532 6.33082 12.2874 6.19915 12.2953 6.06335C12.311 5.79265 12.2209 5.52628 12.0437 5.3201L10.5812 3.77389ZM9.44406 4.6217C9.30398 4.7811 9.17858 4.95373 9.06997 5.13745L10.4854 6.734C10.6753 6.92876 10.9339 7.04295 11.207 7.05205C11.3432 7.05659 11.4776 7.0348 11.6032 6.98927L9.48836 4.67987C9.47156 4.66153 9.4568 4.64205 9.44406 4.6217ZM8.72292 5.95211C8.64214 6.24261 8.59896 6.54877 8.59896 6.86501C8.59896 8.74278 10.1213 10.265 11.9992 10.265C12.7491 10.265 13.4422 10.0223 14.0044 9.61124L12.1678 7.60577C11.8702 7.77671 11.5284 7.86321 11.1801 7.8516C10.6967 7.83549 10.2385 7.63166 9.90346 7.28324C9.89971 7.27935 9.89605 7.27538 9.89247 7.27134L8.72292 5.95211ZM14.5905 9.06659C15.0951 8.4734 15.3995 7.70476 15.3995 6.86501C15.3995 4.98724 13.8772 3.46501 11.9992 3.46501C11.8068 3.46501 11.6182 3.48099 11.4345 3.51169L12.631 4.77665C12.6347 4.78057 12.6383 4.78457 12.6419 4.78864C12.9596 5.15302 13.122 5.62702 13.0939 6.10948C13.0738 6.45622 12.9565 6.78731 12.7593 7.06695L14.5905 9.06659Z" fill="#FF4F00"/>
</svg>
