<svg width="40" height="40" viewBox="0 0 40 40" fill="none" xmlns="http://www.w3.org/2000/svg">
<circle cx="20" cy="20" r="20" fill="#FFF5D9"/>
<path d="M19.9996 28V20.8M26.3996 20.8V23.896C26.3999 24.198 26.3173 24.4942 26.1607 24.7524C26.0041 25.0106 25.7796 25.2207 25.5116 25.36L20.7116 27.824C20.4917 27.9383 20.2475 27.998 19.9996 27.998C19.7518 27.998 19.5076 27.9383 19.2876 27.824L14.4876 25.36C14.2197 25.2207 13.9952 25.0106 13.8386 24.7524C13.682 24.4942 13.5993 24.198 13.5996 23.896V20.8M22.5356 12.168C22.7349 12.0566 22.9593 11.9981 23.1876 11.9981C23.4159 11.9981 23.6404 12.0566 23.8396 12.168L27.1996 14.056C27.4376 14.1906 27.6356 14.3859 27.7733 14.622C27.911 14.8582 27.9836 15.1266 27.9836 15.4C27.9836 15.6734 27.911 15.9418 27.7733 16.178C27.6356 16.4141 27.4376 16.6094 27.1996 16.744L17.4556 22.232C17.2558 22.346 17.0297 22.4059 16.7996 22.4059C16.5696 22.4059 16.3435 22.346 16.1436 22.232L12.7996 20.344C12.5617 20.2094 12.3637 20.0141 12.226 19.778C12.0882 19.5418 12.0156 19.2734 12.0156 19C12.0156 18.7266 12.0882 18.4582 12.226 18.222C12.3637 17.9859 12.5617 17.7906 12.7996 17.656L22.5356 12.168ZM27.1996 20.344C27.4376 20.2094 27.6356 20.0141 27.7733 19.778C27.911 19.5418 27.9836 19.2734 27.9836 19C27.9836 18.7266 27.911 18.4582 27.7733 18.222C27.6356 17.9859 27.4376 17.7906 27.1996 17.656L17.4636 12.16C17.2651 12.0463 17.0404 11.9865 16.8116 11.9865C16.5829 11.9865 16.3581 12.0463 16.1596 12.16L12.7996 14.056C12.5617 14.1906 12.3637 14.3859 12.226 14.622C12.0882 14.8582 12.0156 15.1266 12.0156 15.4C12.0156 15.6734 12.0882 15.9418 12.226 16.178C12.3637 16.4141 12.5617 16.6094 12.7996 16.744L22.5436 22.232C22.742 22.346 22.9668 22.406 23.1956 22.406C23.4244 22.406 23.6492 22.346 23.8476 22.232L27.1996 20.344Z" stroke="#E4B83C" stroke-width="1.6" stroke-linecap="round" stroke-linejoin="round"/>
</svg>
