<svg width="40" height="40" viewBox="0 0 40 40" fill="none" xmlns="http://www.w3.org/2000/svg">
<circle cx="20" cy="20" r="20" fill="#FFD9D9"/>
<path d="M27.2008 18.4V16.8C27.2005 16.5194 27.1264 16.2438 26.986 16.0009C26.8456 15.758 26.6438 15.5563 26.4008 15.416L20.8008 12.216C20.5576 12.0756 20.2816 12.0016 20.0008 12.0016C19.7199 12.0016 19.444 12.0756 19.2008 12.216L13.6008 15.416C13.3578 15.5563 13.156 15.758 13.0156 16.0009C12.8751 16.2438 12.8011 16.5194 12.8008 16.8V23.2C12.8011 23.4806 12.8751 23.7561 13.0156 23.9991C13.156 24.242 13.3578 24.4437 13.6008 24.584L19.2008 27.784C19.444 27.9244 19.7199 27.9984 20.0008 27.9984C20.2816 27.9984 20.5576 27.9244 20.8008 27.784L22.4008 26.872M16.4008 13.816L23.6008 17.936M13.0328 16L20.0008 20M20.0008 20L26.9688 16M20.0008 20V28M24.0008 20.8L28.0008 24.8M24.0008 24.8L28.0008 20.8" stroke="#DE4444" stroke-width="1.6" stroke-linecap="round" stroke-linejoin="round"/>
</svg>
