<svg width="40" height="40" viewBox="0 0 40 40" fill="none" xmlns="http://www.w3.org/2000/svg">
<g clip-path="url(#clip0_5873_18066)">
<circle cx="20" cy="20" r="20" fill="#C3F4F0"/>
<path d="M16.3988 13.816L23.5988 17.936M13.0388 16L19.9988 20M19.9988 20L26.9588 16M19.9988 20V28M27.1988 16.8C27.1985 16.5194 27.1245 16.2439 26.9841 16.0009C26.8436 15.758 26.6418 15.5563 26.3988 15.416L20.7988 12.216C20.5556 12.0756 20.2797 12.0016 19.9988 12.0016C19.718 12.0016 19.4421 12.0756 19.1988 12.216L13.5988 15.416C13.3558 15.5563 13.154 15.758 13.0136 16.0009C12.8732 16.2439 12.7991 16.5194 12.7988 16.8V23.2C12.7991 23.4806 12.8732 23.7562 13.0136 23.9991C13.154 24.242 13.3558 24.4437 13.5988 24.584L19.1988 27.784C19.4421 27.9244 19.718 27.9984 19.9988 27.9984C20.2797 27.9984 20.5556 27.9244 20.7988 27.784L26.3988 24.584C26.6418 24.4437 26.8436 24.242 26.9841 23.9991C27.1245 23.7562 27.1985 23.4806 27.1988 23.2V16.8Z" stroke="#19ACA0" stroke-width="1.6" stroke-linecap="round" stroke-linejoin="round"/>
</g>
<defs>
<clipPath id="clip0_5873_18066">
<rect width="40" height="40" fill="white"/>
</clipPath>
</defs>
</svg>
