<svg width="24" height="24" viewBox="0 0 24 24" fill="none" xmlns="http://www.w3.org/2000/svg">
<path d="M7.1002 10.44C6.0502 10.44 5.0102 10.44 3.9602 10.44C3.7502 10.44 3.7002 10.39 3.7002 10.18C3.7102 9.00002 3.7002 7.81002 3.7002 6.63002C3.7002 5.69002 3.7102 4.75002 3.6902 3.81002C3.6702 3.09002 3.1302 2.52002 2.4102 2.43002C2.0602 2.39002 1.7102 2.41002 1.3602 2.40002C1.0802 2.40002 0.840195 2.47002 0.700195 2.73002V20.12C0.820195 20.27 0.930195 20.43 1.1502 20.44C1.5002 20.46 1.7002 20.26 1.7002 19.85C1.7002 17.81 1.7002 15.76 1.7002 13.72C1.7002 13.49 1.7502 13.43 1.9902 13.43C3.8002 13.44 5.6102 13.44 7.4202 13.43C7.7002 13.43 7.7302 13.52 7.7302 13.76C7.7302 15.73 7.7302 17.71 7.7302 19.69C7.7302 19.82 7.7302 19.94 7.7602 20.07C7.7902 20.29 7.9302 20.41 8.1502 20.44C8.5202 20.5 8.7402 20.29 8.7402 19.84C8.7402 17.24 8.7402 14.64 8.7402 12.04C8.7402 11.03 8.1302 10.45 7.1202 10.45L7.1002 10.44ZM1.7102 6.92002C1.7102 5.84002 1.7102 4.77002 1.7102 3.69002C1.7102 3.48002 1.7402 3.40002 1.9802 3.41002C2.5902 3.43002 2.7202 3.54002 2.7202 4.15002C2.7202 6.15002 2.7202 8.16002 2.7202 10.16C2.7202 10.37 2.6902 10.47 2.4602 10.43C2.2202 10.4 1.9002 10.53 1.7602 10.38C1.6402 10.25 1.7202 9.94002 1.7202 9.70002C1.7202 8.77002 1.7202 7.84002 1.7202 6.91002L1.7102 6.92002ZM7.7202 12.35C7.6802 12.5 7.5602 12.43 7.4802 12.43C6.5502 12.43 5.62019 12.43 4.7002 12.43C3.78019 12.43 2.8602 12.43 1.9502 12.43C1.7602 12.43 1.7002 12.38 1.7102 12.19C1.7302 11.95 1.6302 11.62 1.7502 11.48C1.8902 11.32 2.2302 11.43 2.4702 11.43C3.9902 11.43 5.5202 11.43 7.0402 11.43C7.6102 11.43 7.8702 11.79 7.7202 12.34V12.35Z" fill="#B2B1DC"/>
<path d="M23.2497 7.22998C23.2497 6.86998 23.2497 6.50998 23.2497 6.13998C23.2497 5.54998 23.1197 5.41998 22.5197 5.41998C20.2597 5.41998 17.9997 5.41998 15.7397 5.41998C15.0697 5.41998 14.3897 5.41998 13.7197 5.41998C12.1197 5.41998 10.5097 5.41998 8.90973 5.41998C8.35973 5.41998 8.21973 5.55998 8.21973 6.11998C8.21973 6.45998 8.21973 6.79998 8.21973 7.14998C8.21973 8.25998 8.86973 8.91998 9.97973 8.91998C10.9697 8.91998 11.9597 8.91998 12.9397 8.91998C13.1797 8.91998 13.2397 8.98998 13.2197 9.21998C13.1997 9.51998 13.2297 9.82998 13.3797 10.1C13.7097 10.75 14.2697 10.96 14.9597 10.93C15.1197 10.93 15.2297 10.92 15.2297 11.15C15.2297 13.17 15.2297 15.2 15.2297 17.22C15.2297 17.41 15.1597 17.45 14.9897 17.44C14.5997 17.43 14.2097 17.43 13.8197 17.44C12.8197 17.46 12.2297 18.06 12.2197 19.06C12.2197 19.3 12.2197 19.55 12.2197 19.79C12.2197 20.28 12.3797 20.44 12.8697 20.44C13.5197 20.44 14.1597 20.44 14.8097 20.44C16.0597 20.44 17.3097 20.44 18.5697 20.44C19.0797 20.44 19.2397 20.28 19.2397 19.78C19.2397 19.54 19.2397 19.29 19.2397 19.05C19.2297 18.05 18.6297 17.45 17.6297 17.43C17.2397 17.43 16.8497 17.42 16.4597 17.43C16.2797 17.43 16.2297 17.38 16.2297 17.2C16.2397 16.54 16.2297 15.87 16.2297 15.2C16.2297 13.86 16.2297 12.52 16.2297 11.18C16.2297 10.95 16.2897 10.89 16.5097 10.91C16.7097 10.92 16.9197 10.91 17.1197 10.86C17.8397 10.68 18.2497 10.1 18.2297 9.24998C18.2297 8.95998 18.3097 8.89998 18.5897 8.89998C19.5897 8.91998 20.5897 8.91998 21.5797 8.89998C22.5797 8.88998 23.2397 8.20998 23.2397 7.20998L23.2497 7.22998ZM17.5397 18.44C18.2497 18.44 18.2597 18.8 18.2397 19.34C18.2397 19.52 18.0797 19.45 17.9897 19.45C17.2297 19.45 16.4697 19.45 15.6997 19.45C14.9697 19.45 14.2297 19.45 13.4997 19.45C13.2897 19.45 13.2097 19.42 13.2097 19.18C13.2197 18.58 13.3597 18.44 13.9497 18.44C15.1397 18.44 16.3297 18.44 17.5297 18.44H17.5397ZM17.2397 9.09998C17.2297 9.23998 17.2397 9.36998 17.2197 9.50998C17.1897 9.76998 17.0297 9.90998 16.7697 9.91998C16.4297 9.91998 16.0897 9.91998 15.7497 9.91998C15.4097 9.91998 15.0697 9.92998 14.7297 9.91998C14.3497 9.89998 14.0497 9.31998 14.2397 8.97998C14.2797 8.89998 14.3597 8.91998 14.4197 8.91998C15.2997 8.91998 16.1697 8.91998 17.0497 8.91998C17.1797 8.91998 17.2497 8.94998 17.2397 9.09998ZM22.2497 6.68998C22.2297 6.86998 22.2497 7.05998 22.2497 7.24998C22.2397 7.67998 22.0097 7.91998 21.5697 7.92998C20.8697 7.92998 20.1597 7.92998 19.4597 7.92998C16.3397 7.92998 13.2197 7.92998 10.0997 7.92998C9.36973 7.92998 9.21973 7.77998 9.21973 7.05998C9.21973 6.64665 9.42306 6.43998 9.82973 6.43998C11.7997 6.43998 13.7797 6.43998 15.7497 6.43998C17.8197 6.43998 19.8997 6.43998 21.9697 6.43998C22.1697 6.43998 22.2797 6.46998 22.2497 6.69998V6.68998Z" fill="#B2B1DC"/>
</svg>
