<svg width="22" height="22" viewBox="0 0 22 22" fill="none" xmlns="http://www.w3.org/2000/svg">
<path d="M2.05803 21.0967L0.828594 19.8673L12.7196 7.97627C12.3472 7.09977 12.2799 6.17803 12.5177 5.21103C12.7555 4.24406 13.2835 3.36346 14.1016 2.56923C14.9976 1.67329 16.0476 1.10791 17.2516 0.873075C18.4557 0.638245 19.4488 0.911964 20.2311 1.69423C21.0134 2.47648 21.2871 3.46964 21.0522 4.6737C20.8174 5.87776 20.252 6.92774 19.3561 7.82367C18.5619 8.64183 17.6813 9.16982 16.7143 9.40765C15.7473 9.64547 14.8256 9.57817 13.9491 9.20573L12.1542 11.0006L21.0208 19.8673L19.7914 21.0967L10.9247 12.2884L2.05803 21.0967ZM5.56701 11.1891L2.20164 7.82367C1.2414 6.86342 0.744448 5.72145 0.710789 4.39775C0.677131 3.07403 1.11425 1.90961 2.02215 0.904487L8.9189 7.83717L5.56701 11.1891Z" fill="#A75935"/>
</svg>
