<svg width="24" height="24" viewBox="0 0 24 24" fill="none" xmlns="http://www.w3.org/2000/svg">
<path d="M19.3002 2.1C19.3002 2 19.3002 1.9 19.3002 1.8C19.2002 1.3 19.0002 0.999997 18.5002 0.799997C18.4002 0.799997 18.4002 0.799997 18.3002 0.699997C14.1002 0.699997 9.8002 0.699997 5.6002 0.699997C5.0002 0.899997 4.7002 1.3 4.7002 2C4.7002 8.6 4.7002 15.3 4.7002 21.9C4.7002 22.7 5.2002 23.2 6.0002 23.2C7.3002 23.2 8.6002 23.2 9.9002 23.2C12.6002 23.2 15.3002 23.2 18.1002 23.2C18.7002 23.2 19.1002 22.9 19.3002 22.4C19.4002 22.2 19.4002 22 19.4002 21.8C19.3002 15.3 19.3002 8.7 19.3002 2.1ZM8.8002 2C9.9002 2 10.9002 2 12.0002 2C13.0002 2 14.1002 2 15.1002 2C15.3002 2 15.3002 2.1 15.3002 2.3C15.2002 2.9 14.8002 3.4 14.1002 3.4C12.6002 3.4 11.2002 3.4 9.7002 3.4C9.0002 3.4 8.6002 2.9 8.5002 2.3C8.6002 2.1 8.7002 2 8.8002 2ZM17.8002 22C14.0002 22 10.1002 22 6.3002 22C6.0002 22 6.0002 21.9 6.0002 21.7C6.0002 15.2 6.0002 8.7 6.0002 2.3C6.0002 2.1 6.0002 2 6.2002 2C6.4002 2 6.7002 2 6.9002 2C7.2002 2 7.2002 2 7.3002 2.3C7.4002 3.2 7.8002 3.8 8.5002 4.3C8.9002 4.5 9.3002 4.6 9.7002 4.6C11.2002 4.6 12.7002 4.6 14.2002 4.6C15.5002 4.6 16.5002 3.6 16.6002 2.3C16.6002 2.2 16.6002 2.2 16.6002 2.1C16.6002 2 16.6002 2 16.7002 2C17.1002 2 17.4002 2 17.8002 2C18.0002 2 18.0002 2.1 18.0002 2.2C18.0002 2.3 18.0002 2.3 18.0002 2.4C18.0002 5.6 18.0002 8.9 18.0002 12.1C18.0002 15.3 18.0002 18.6 18.0002 21.8C18.0002 21.9 18.0002 22 17.8002 22Z" fill="#E46060"/>
<path d="M16 13.7C15.9 13.7 15.9 13.7 15.9 13.6C16 13.2 16 12.8 15.9 12.5C15.9 12.4 15.9 12.4 16 12.4C16.3 12.3 16.5 12 16.4 11.7C16.4 9.8 15 8.1 13.1 7.7C12.9 7.7 12.7 7.7 12.6 7.6C12.5 7.5 12.6 7.3 12.6 7.1C12.6 6.7 12.3 6.5 11.9 6.5C11.5 6.5 11.3 6.8 11.3 7.2C11.3 7.6 11.3 7.6 10.9 7.7C9 7.9 7.5 9.7 7.5 11.7C7.5 12 7.6 12.3 7.9 12.4C8 12.4 8 12.5 8 12.6C7.9 13 7.9 13.3 8 13.7C8 13.8 8 13.8 7.9 13.9C7.7 14 7.5 14.2 7.5 14.4C7.5 14.8 7.5 15.2 7.5 15.6C7.8 16.9 8.8 17.8 10.2 17.8C10.8 17.8 11.4 17.8 12 17.8C12.6 17.8 13.3 17.8 13.9 17.8C14.7 17.8 15.4 17.4 15.9 16.7C16.4 16 16.5 15.2 16.4 14.4C16.4 14 16.3 13.8 16 13.7ZM9 10.8C9.4 9.7 10.2 9 11.3 8.8C11.3 8.9 11.3 9 11.4 9.1C11.5 9.4 11.8 9.6 12.1 9.6C12.4 9.6 12.7 9.3 12.7 9C12.7 8.8 12.8 8.8 12.9 8.8C14 9.1 14.7 9.7 15 10.7C15.1 10.8 15 10.9 14.9 10.9C13 10.9 11.1 10.9 9.1 10.9C8.9 11 8.9 11 9 10.8ZM14.7 13C14.7 13.4 14.4 13.7 14 13.7C13.3 13.7 12.6 13.7 12 13.7C11.3 13.7 10.7 13.7 10 13.7C9.5 13.7 9.2 13.3 9.3 12.9C9.4 12.6 9.6 12.4 9.9 12.4C11.3 12.4 12.6 12.4 14 12.4C14.4 12.4 14.7 12.7 14.7 13ZM15.1 15.3C15 15.9 14.5 16.3 13.9 16.4C13 16.4 12.1 16.4 11.2 16.4C10.8 16.4 10.5 16.4 10.1 16.4C9.5 16.4 9 15.9 8.9 15.3C8.9 15.1 8.9 15.1 9.1 15.1C10.1 15.1 11.1 15.1 12 15.1C13 15.1 14 15.1 14.9 15.1C15.2 15 15.2 15.1 15.1 15.3Z" fill="#E46060"/>
<path d="M13.0998 19.3C12.3998 19.3 11.6998 19.3 10.9998 19.3C10.5998 19.3 10.2998 19.6 10.2998 20C10.2998 20.4 10.5998 20.7 10.9998 20.7C11.3998 20.7 11.6998 20.7 12.0998 20.7C12.4998 20.7 12.7998 20.7 13.1998 20.7C13.5998 20.7 13.8998 20.4 13.8998 20C13.7998 19.6 13.4998 19.3 13.0998 19.3Z" fill="#E46060"/>
</svg>
