<svg width="32" height="32" viewBox="0 0 32 32" fill="none" xmlns="http://www.w3.org/2000/svg">
<path d="M25.7342 2.80002C25.7342 2.66668 25.7342 2.53335 25.7342 2.40002C25.6009 1.73335 25.3342 1.33335 24.6676 1.06668C24.5342 1.06668 24.5342 1.06668 24.4009 0.93335C18.8009 0.93335 13.0676 0.93335 7.46758 0.93335C6.66758 1.20002 6.26758 1.73335 6.26758 2.66668C6.26758 11.4667 6.26758 20.4 6.26758 29.2C6.26758 30.2667 6.93425 30.9333 8.00091 30.9333C9.73425 30.9333 11.4676 30.9333 13.2009 30.9333C16.8009 30.9333 20.4009 30.9333 24.1342 30.9333C24.9342 30.9333 25.4676 30.5333 25.7342 29.8667C25.8676 29.6 25.8676 29.3333 25.8676 29.0667C25.7342 20.4 25.7342 11.6 25.7342 2.80002ZM11.7342 2.66668C13.2009 2.66668 14.5342 2.66668 16.0009 2.66668C17.3342 2.66668 18.8009 2.66668 20.1342 2.66668C20.4009 2.66668 20.4009 2.80002 20.4009 3.06668C20.2676 3.86668 19.7342 4.53335 18.8009 4.53335C16.8009 4.53335 14.9342 4.53335 12.9342 4.53335C12.0009 4.53335 11.4676 3.86668 11.3342 3.06668C11.4676 2.80002 11.6009 2.66668 11.7342 2.66668ZM23.7342 29.3333C18.6676 29.3333 13.4676 29.3333 8.40091 29.3333C8.00091 29.3333 8.00091 29.2 8.00091 28.9333C8.00091 20.2667 8.00091 11.6 8.00091 3.06668C8.00091 2.80002 8.00091 2.66668 8.26758 2.66668C8.53424 2.66668 8.93425 2.66668 9.20091 2.66668C9.60091 2.66668 9.60091 2.66668 9.73425 3.06668C9.86758 4.26668 10.4009 5.06668 11.3342 5.73335C11.8676 6.00002 12.4009 6.13335 12.9342 6.13335C14.9342 6.13335 16.9342 6.13335 18.9342 6.13335C20.6676 6.13335 22.0009 4.80002 22.1342 3.06668C22.1342 2.93335 22.1342 2.93335 22.1342 2.80002C22.1342 2.66668 22.1342 2.66668 22.2676 2.66668C22.8009 2.66668 23.2009 2.66668 23.7342 2.66668C24.0009 2.66668 24.0009 2.80002 24.0009 2.93335C24.0009 3.06668 24.0009 3.06668 24.0009 3.20002C24.0009 7.46668 24.0009 11.8667 24.0009 16.1334C24.0009 20.4 24.0009 24.8 24.0009 29.0667C24.0009 29.2 24.0009 29.3333 23.7342 29.3333Z" fill="#121212"/>
<path d="M21.3333 18.2666C21.2 18.2666 21.2 18.2666 21.2 18.1333C21.3333 17.6 21.3333 17.0666 21.2 16.6666C21.2 16.5333 21.2 16.5333 21.3333 16.5333C21.7333 16.4 22 16 21.8667 15.6C21.8667 13.0666 20 10.8 17.4667 10.2666C17.2 10.2666 16.9333 10.2666 16.8 10.1333C16.6667 9.99996 16.8 9.73329 16.8 9.46663C16.8 8.93329 16.4 8.66663 15.8667 8.66663C15.3333 8.66663 15.0667 9.06663 15.0667 9.59996C15.0667 10.1333 15.0667 10.1333 14.5333 10.2666C12 10.5333 10 12.9333 10 15.6C10 16 10.1333 16.4 10.5333 16.5333C10.6667 16.5333 10.6667 16.6666 10.6667 16.8C10.5333 17.3333 10.5333 17.7333 10.6667 18.2666C10.6667 18.4 10.6667 18.4 10.5333 18.5333C10.2667 18.6666 10 18.9333 10 19.2C10 19.7333 10 20.2666 10 20.8C10.4 22.5333 11.7333 23.7333 13.6 23.7333C14.4 23.7333 15.2 23.7333 16 23.7333C16.8 23.7333 17.7333 23.7333 18.5333 23.7333C19.6 23.7333 20.5333 23.2 21.2 22.2666C21.8667 21.3333 22 20.2666 21.8667 19.2C21.8667 18.6666 21.7333 18.4 21.3333 18.2666ZM12 14.4C12.5333 12.9333 13.6 12 15.0667 11.7333C15.0667 11.8666 15.0667 12 15.2 12.1333C15.3333 12.5333 15.7333 12.8 16.1333 12.8C16.5333 12.8 16.9333 12.4 16.9333 12C16.9333 11.7333 17.0667 11.7333 17.2 11.7333C18.6667 12.1333 19.6 12.9333 20 14.2666C20.1333 14.4 20 14.5333 19.8667 14.5333C17.3333 14.5333 14.8 14.5333 12.1333 14.5333C11.8667 14.6666 11.8667 14.6666 12 14.4ZM19.6 17.3333C19.6 17.8666 19.2 18.2666 18.6667 18.2666C17.7333 18.2666 16.8 18.2666 16 18.2666C15.0667 18.2666 14.2667 18.2666 13.3333 18.2666C12.6667 18.2666 12.2667 17.7333 12.4 17.2C12.5333 16.8 12.8 16.5333 13.2 16.5333C15.0667 16.5333 16.8 16.5333 18.6667 16.5333C19.2 16.5333 19.6 16.9333 19.6 17.3333ZM20.1333 20.4C20 21.2 19.3333 21.7333 18.5333 21.8666C17.3333 21.8666 16.1333 21.8666 14.9333 21.8666C14.4 21.8666 14 21.8666 13.4667 21.8666C12.6667 21.8666 12 21.2 11.8667 20.4C11.8667 20.1333 11.8667 20.1333 12.1333 20.1333C13.4667 20.1333 14.8 20.1333 16 20.1333C17.3333 20.1333 18.6667 20.1333 19.8667 20.1333C20.2667 20 20.2667 20.1333 20.1333 20.4Z" fill="#121212"/>
<path d="M17.4677 25.7334C16.5344 25.7334 15.601 25.7334 14.6677 25.7334C14.1344 25.7334 13.7344 26.1334 13.7344 26.6667C13.7344 27.2001 14.1344 27.6001 14.6677 27.6001C15.201 27.6001 15.601 27.6001 16.1344 27.6001C16.6677 27.6001 17.0677 27.6001 17.601 27.6001C18.1344 27.6001 18.5344 27.2001 18.5344 26.6667C18.401 26.1334 18.001 25.7334 17.4677 25.7334Z" fill="#121212"/>
</svg>
