<svg width="25" height="22" viewBox="0 0 25 22" fill="none" xmlns="http://www.w3.org/2000/svg">
<g clip-path="url(#clip0_4086_20237)">
<path d="M24.8591 14.6976C24.4574 13.6236 23.3099 13.06 22.1651 13.3834C21.7946 13.4881 21.4296 13.6106 21.0204 13.7377V13.3021C21.0204 9.46815 21.0204 5.63324 21.0204 1.79927C21.0204 0.611317 20.4198 0.0122004 19.227 0.0122004C14.7348 0.0112658 10.2427 0.0299589 5.75149 4.98574e-05C4.56716 -0.00742741 3.94671 0.827223 3.95614 1.77123C3.98632 5.08086 3.96746 8.39048 3.96746 11.701C3.96746 12.216 3.96746 12.2123 3.44696 12.2628C2.57852 12.3469 1.70819 12.3048 0.838803 12.3161C0.68699 12.3179 0.535178 12.3095 0.390909 12.3824C0.106143 12.5273 -0.0437831 12.817 0.0127929 13.1386C0.0703118 13.4694 0.34942 13.7003 0.752996 13.7087C1.37627 13.7218 1.99955 13.7171 2.62283 13.7106C4.21828 13.6928 5.69963 13.2797 7.07819 12.4768C8.74624 11.5048 10.4275 10.5542 12.1021 9.59432C12.2549 9.5074 12.402 9.41393 12.583 9.3915C13.0696 9.32981 13.5175 9.59058 13.674 10.0308C13.8371 10.4897 13.6618 10.9552 13.2035 11.2244C11.5684 12.1833 9.92963 13.1367 8.29269 14.0928C7.56946 14.5153 7.25735 15.1733 7.445 15.8734C7.63547 16.5837 8.25403 17.0108 9.10173 17.0118C10.6774 17.0136 12.253 17.0118 13.8287 17.0118C14.4529 17.0118 15.0743 16.9669 15.6844 16.8323C17.0026 16.5407 18.2604 16.0528 19.5485 15.6621C20.5339 15.363 21.5089 15.0294 22.4933 14.7237C23.1354 14.5246 23.6861 14.9649 23.5767 15.5761C23.5107 15.9425 23.2316 16.1033 22.9185 16.2379C20.4462 17.2987 17.9747 18.3633 15.5024 19.4269C15.2977 19.5148 15.0941 19.5942 14.8678 19.6241C12.6085 19.9176 10.3464 20.1943 8.09373 20.5261C7.20172 20.6579 6.40683 20.5167 5.61665 20.1102C4.80667 19.6933 3.96368 19.3381 3.1339 18.9587C2.34561 18.5979 1.50923 18.5175 0.654931 18.5614C0.298502 18.5801 0.0354233 18.8493 0.00619235 19.1839C-0.0239815 19.5335 0.176863 19.8335 0.515377 19.9251C0.615327 19.9522 0.724708 19.9588 0.829373 19.9522C1.62521 19.9017 2.35787 20.1027 3.06696 20.4504C3.92785 20.8729 4.8029 21.2673 5.67417 21.6682C6.38891 21.9972 7.14231 22.0552 7.91363 21.9543C9.82307 21.7056 11.7353 21.4692 13.642 21.2037C14.451 21.0906 15.2789 21.0729 16.0483 20.727C17.1252 20.2429 18.2171 19.7896 19.3033 19.3232C20.7649 18.6951 22.2321 18.0782 23.6861 17.4333C24.7789 16.9482 25.2646 15.778 24.86 14.6966L24.8591 14.6976ZM10.1738 1.41045H12.5359C13.3817 1.41045 14.2285 1.42821 15.0743 1.40204C15.409 1.39176 15.4316 1.517 15.3845 1.78151C15.1535 3.09003 14.0059 4.10414 12.6764 4.16396C11.2676 4.22751 10.0371 3.35921 9.68258 2.05256C9.56691 1.62511 9.73067 1.41138 10.1738 1.41138V1.41045ZM19.622 11.4936C19.622 12.3095 19.622 13.1255 19.622 13.9414C19.622 14.0657 19.6466 14.1807 19.4617 14.234C18.0473 14.6499 16.6725 15.1976 15.2251 15.507C14.8338 15.5902 14.435 15.621 14.0342 15.6201C12.4227 15.6191 10.8122 15.6219 9.20168 15.6154C9.07627 15.6154 8.88297 15.7042 8.83299 15.5238C8.7783 15.3247 8.99989 15.2976 9.11965 15.2275C10.7245 14.2863 12.336 13.3545 13.9409 12.4142C14.8489 11.8824 15.2855 11.0758 15.161 10.0439C15.0384 9.02979 14.4397 8.34655 13.4439 8.03905C12.765 7.82875 12.121 7.94652 11.5138 8.29515C9.75801 9.30177 8.00227 10.3103 6.24558 11.316C5.98345 11.4655 5.7232 11.6197 5.37903 11.7253V6.86325C5.37903 5.17339 5.38657 3.48352 5.37243 1.79366C5.3696 1.47961 5.47049 1.3955 5.77506 1.40484C6.46812 1.4254 7.16306 1.4198 7.85611 1.40671C8.0843 1.40204 8.17577 1.4441 8.1918 1.70019C8.32758 3.78448 9.98054 5.48182 12.0493 5.68278C14.1804 5.88934 16.1247 4.55838 16.6829 2.51148C16.7602 2.22921 16.8178 1.94321 16.8159 1.65159C16.814 1.47775 16.8621 1.40578 17.0544 1.40858C17.8182 1.41886 18.5829 1.42167 19.3476 1.40858C19.6805 1.40297 19.622 1.61888 19.622 1.81048C19.622 5.0388 19.622 8.26711 19.622 11.4954V11.4936Z" fill="black"/>
</g>
<defs>
<clipPath id="clip0_4086_20237">
<rect width="25" height="22" fill="white"/>
</clipPath>
</defs>
</svg>
