<svg width="20" height="20" viewBox="0 0 20 20" fill="none" xmlns="http://www.w3.org/2000/svg">
<g clip-path="url(#clip0_931_22460)">
<path d="M19.75 7.00004C19.75 6.83337 19.75 6.58337 19.6667 6.41671C19.25 5.58337 18.6667 5.16671 17.75 5.16671C17.0833 5.16671 16.3333 5.16671 15.6667 5.16671C15.4167 5.16671 15.4167 5.16671 15.4167 4.91671C15.4167 4.83337 15.4167 4.83337 15.4167 4.75004C15.4167 3.33337 15.4167 2.00004 15.4167 0.583374C15.4167 0.333374 15.4167 0.333374 15.1667 0.333374C11.75 0.333374 8.41667 0.333374 5 0.333374C4.58333 0.333374 4.58333 0.333374 4.58333 0.750041C4.58333 2.16671 4.58333 3.50004 4.58333 4.91671C4.58333 5.16671 4.58333 5.16671 4.33333 5.16671C3.66667 5.16671 2.91667 5.16671 2.25 5.16671C1.91667 5.16671 1.66667 5.25004 1.33333 5.41671C0.75 5.58337 0.333333 6.08337 0.25 6.75004C0.25 9.25004 0.25 11.75 0.25 14.25C0.333333 14.9167 0.666667 15.3334 1.25 15.6667C1.58333 15.8334 2 15.9167 2.33333 15.9167C3 15.9167 3.58333 15.9167 4.25 15.9167C4.5 15.9167 4.5 15.9167 4.5 16.1667C4.5 17.25 4.5 18.3334 4.5 19.4167C4.5 19.5 4.5 19.5834 4.58333 19.6667C8.16667 19.6667 11.75 19.6667 15.3333 19.6667C15.4167 19.5834 15.4167 19.5 15.4167 19.3334C15.4167 18.25 15.4167 17.1667 15.4167 16.0834C15.4167 15.8334 15.4167 15.8334 15.6667 15.8334C16 15.8334 16.4167 15.8334 16.75 15.8334C17.1667 15.8334 17.5833 15.8334 18.0833 15.8334C18.8333 15.75 19.75 15 19.75 13.9167C19.75 11.6667 19.75 9.33337 19.75 7.00004ZM5.58333 1.41671C5.58333 1.25004 5.66667 1.25004 5.75 1.25004C7.16667 1.25004 8.58333 1.25004 10 1.25004C11.4167 1.25004 12.75 1.25004 14.1667 1.25004C14.3333 1.25004 14.3333 1.25004 14.3333 1.41671C14.3333 2.58337 14.3333 3.75004 14.3333 5.00004C14.3333 5.16671 14.25 5.16671 14.1667 5.16671C11.3333 5.16671 8.58333 5.16671 5.75 5.16671C5.58333 5.16671 5.58333 5.16671 5.58333 5.00004C5.58333 3.75004 5.58333 2.58337 5.58333 1.41671ZM14.1667 18.75C12.75 18.75 11.4167 18.75 10 18.75C8.58333 18.75 7.16667 18.75 5.83333 18.75C5.66667 18.75 5.66667 18.6667 5.66667 18.5834C5.66667 16.0834 5.66667 13.6667 5.66667 11.1667C5.66667 11 5.75 11 5.83333 11C8.58333 11 11.4167 11 14.1667 11C14.3333 11 14.3333 11.0834 14.3333 11.1667C14.3333 13.6667 14.3333 16.0834 14.3333 18.5834C14.3333 18.75 14.3333 18.75 14.1667 18.75ZM18.75 13.8334C18.75 14.5 18.3333 14.8334 17.6667 14.8334C16.9167 14.8334 16.1667 14.8334 15.5 14.8334C15.4167 14.8334 15.3333 14.8334 15.3333 14.6667C15.3333 13.5 15.3333 12.25 15.3333 11.0834C15.3333 11 15.3333 10.9167 15.5 10.9167C15.75 10.9167 16 10.9167 16.25 10.9167C16.5833 10.9167 16.8333 10.6667 16.8333 10.4167C16.8333 10.1667 16.5833 9.91671 16.25 9.91671C12.0833 9.91671 7.91667 9.91671 3.75 9.91671C3.41667 9.91671 3.16667 10.0834 3.16667 10.4167C3.16667 10.6667 3.41667 10.9167 3.75 10.9167C4 10.9167 4.25 10.9167 4.5 10.9167C4.58333 10.9167 4.66667 10.9167 4.66667 11.0834C4.66667 12.3334 4.66667 13.5 4.66667 14.75C4.66667 14.8334 4.66667 14.9167 4.5 14.8334C3.75 14.8334 3 14.8334 2.16667 14.8334C1.58333 14.8334 1.25 14.4167 1.16667 13.9167C1.16667 13.75 1.16667 13.5834 1.16667 13.4167C1.16667 11.3334 1.16667 9.25004 1.16667 7.16671C1.16667 6.58337 1.41667 6.25004 1.91667 6.08337C2.08333 6.08337 2.16667 6.08337 2.33333 6.08337C4.91667 6.08337 7.41667 6.08337 10 6.08337C12.5833 6.08337 15.0833 6.08337 17.6667 6.08337C18.0833 6.08337 18.4167 6.25004 18.6667 6.66671C18.75 6.83337 18.75 7.00004 18.75 7.16671C18.75 9.41671 18.75 11.5834 18.75 13.8334Z" fill="#5855B3"/>
<path d="M16.2503 7.08337C15.0003 7.08337 13.7503 7.08337 12.5003 7.08337C12.167 7.08337 11.917 7.25004 11.917 7.58337C11.917 7.83337 12.167 8.08337 12.5003 8.08337C13.0837 8.08337 13.7503 8.08337 14.3337 8.08337C15.0003 8.08337 15.5837 8.08337 16.2503 8.08337C16.5837 8.08337 16.8337 7.91671 16.8337 7.58337C16.8337 7.25004 16.5837 7.08337 16.2503 7.08337Z" fill="#5855B3"/>
<path d="M13.1663 14.8334C12.083 14.8334 11.083 14.8334 9.99967 14.8334C8.91634 14.8334 7.83301 14.8334 6.74967 14.8334C6.58301 14.8334 6.58301 14.8334 6.58301 15C6.58301 15.25 6.58301 15.4167 6.58301 15.6667C6.58301 15.75 6.58301 15.8334 6.74967 15.8334C8.91634 15.8334 11.083 15.8334 13.2497 15.8334C13.333 15.8334 13.4163 15.75 13.4163 15.6667C13.4163 15.5 13.4163 15.25 13.4163 15.0834C13.4163 14.9167 13.333 14.8334 13.1663 14.8334Z" fill="#5855B3"/>
<path d="M13.2497 16.8334C12.1663 16.8334 11.083 16.8334 9.99967 16.8334C8.91634 16.8334 7.83301 16.8334 6.74967 16.8334C6.58301 16.8334 6.58301 16.8334 6.58301 17C6.58301 17.25 6.58301 17.4167 6.58301 17.6667C6.58301 17.8334 6.66634 17.8334 6.74967 17.8334C8.24967 17.8334 9.74967 17.8334 11.1663 17.8334C11.833 17.8334 12.4997 17.8334 13.1663 17.8334C13.333 17.8334 13.333 17.8334 13.333 17.6667C13.333 17.5 13.333 17.25 13.333 17C13.4163 16.8334 13.333 16.8334 13.2497 16.8334Z" fill="#5855B3"/>
<path d="M6.58301 13.7501C6.58301 13.8334 6.58301 13.9167 6.74967 13.9167C8.91634 13.9167 11.083 13.9167 13.2497 13.9167C13.333 13.9167 13.4163 13.8334 13.4163 13.7501C13.4163 13.5001 13.4163 13.3334 13.4163 13.0834C13.4163 12.9167 13.333 12.9167 13.2497 12.9167C12.1663 12.9167 11.083 12.9167 10.083 12.9167C8.99967 12.9167 7.91634 12.9167 6.83301 12.9167C6.74967 12.9167 6.66634 12.9167 6.66634 13.0834C6.58301 13.3334 6.58301 13.5001 6.58301 13.7501Z" fill="#5855B3"/>
</g>
<defs>
<clipPath id="clip0_931_22460">
<rect width="20" height="20" fill="white"/>
</clipPath>
</defs>
</svg>
