<svg width="124" height="124" viewBox="0 0 124 124" fill="none" xmlns="http://www.w3.org/2000/svg">
<path d="M77.5 108.5H67.1667V98.1667H77.5V108.5ZM67.1667 72.3333H56.8333V98.1667H67.1667V72.3333ZM108.5 62H98.1667V82.6667H108.5V62ZM98.1667 51.6667H87.8333V62H98.1667V51.6667ZM36.1667 62H25.8333V72.3333H36.1667V62ZM25.8333 51.6667H15.5V62H25.8333V51.6667ZM62 25.8333H72.3333V15.5H62V25.8333ZM23.25 23.25V38.75H38.75V23.25H23.25ZM46.5 46.5H15.5V15.5H46.5V46.5ZM23.25 85.25V100.75H38.75V85.25H23.25ZM46.5 108.5H15.5V77.5H46.5V108.5ZM85.25 23.25V38.75H100.75V23.25H85.25ZM108.5 46.5H77.5V15.5H108.5V46.5ZM98.1667 98.1667V82.6667H77.5V93H87.8333V108.5H108.5V98.1667H98.1667ZM87.8333 62H67.1667V72.3333H87.8333V62ZM67.1667 51.6667H36.1667V62H46.5V72.3333H56.8333V62H67.1667V51.6667ZM72.3333 46.5V36.1667H62V25.8333H51.6667V46.5H72.3333ZM34.875 27.125H27.125V34.875H34.875V27.125ZM34.875 89.125H27.125V96.875H34.875V89.125ZM96.875 27.125H89.125V34.875H96.875V27.125Z" fill="black"/>
</svg>
