<svg width="22" height="22" viewBox="0 0 22 22" fill="none" xmlns="http://www.w3.org/2000/svg">
<path d="M14.5 21.5H12.1667V19.1667H14.5V21.5ZM12.1667 13.3333H9.83333V19.1667H12.1667V13.3333ZM21.5 11H19.1667V15.6667H21.5V11ZM19.1667 8.66667H16.8333V11H19.1667V8.66667ZM5.16667 11H2.83333V13.3333H5.16667V11ZM2.83333 8.66667H0.5V11H2.83333V8.66667ZM11 2.83333H13.3333V0.5H11V2.83333ZM2.25 2.25V5.75H5.75V2.25H2.25ZM7.5 7.5H0.5V0.5H7.5V7.5ZM2.25 16.25V19.75H5.75V16.25H2.25ZM7.5 21.5H0.5V14.5H7.5V21.5ZM16.25 2.25V5.75H19.75V2.25H16.25ZM21.5 7.5H14.5V0.5H21.5V7.5ZM19.1667 19.1667V15.6667H14.5V18H16.8333V21.5H21.5V19.1667H19.1667ZM16.8333 11H12.1667V13.3333H16.8333V11ZM12.1667 8.66667H5.16667V11H7.5V13.3333H9.83333V11H12.1667V8.66667ZM13.3333 7.5V5.16667H11V2.83333H8.66667V7.5H13.3333ZM4.875 3.125H3.125V4.875H4.875V3.125ZM4.875 17.125H3.125V18.875H4.875V17.125ZM18.875 3.125H17.125V4.875H18.875V3.125Z" fill="#8A792C"/>
</svg>
