<svg width="15" height="20" viewBox="0 0 15 20" fill="none" xmlns="http://www.w3.org/2000/svg">
<path d="M3.24986 19.75V10.6577C2.43833 10.482 1.75468 10.0715 1.19891 9.42596C0.643126 8.78046 0.365234 8.01027 0.365234 7.11541V0.250031H1.86521V7.11541H3.24986V0.250031H4.74981V7.11541H6.13446V0.250031H7.63443V7.11541C7.63443 8.01027 7.35654 8.78046 6.80076 9.42596C6.24499 10.0715 5.56134 10.482 4.74981 10.6577V19.75L3.24986 19.75ZM12.8652 19.75V11.75H10.1345V5.00001C10.1345 3.75131 10.5354 2.6683 11.3373 1.75098C12.1392 0.833681 13.1485 0.339773 14.3652 0.269257V19.75H12.8652Z" fill="#5855B3"/>
</svg>
