<svg width="147" height="127" viewBox="0 0 147 127" fill="none" xmlns="http://www.w3.org/2000/svg">
<path d="M65.6965 33.5607C62.4743 30.1735 59.72 26.4894 58.4188 21.9017C57.9884 20.3784 57.9154 18.776 58.2053 17.2196C58.4952 15.6633 59.1403 14.1953 60.0902 12.9302C61.0401 11.6651 62.2691 10.6373 63.681 9.92703C65.0929 9.21675 66.6496 8.84328 68.2294 8.83577C71.7899 8.80628 74.5258 10.3133 76.6722 13.0647C76.8188 13.2696 76.98 13.4635 77.1547 13.6449C77.3185 13.8273 77.5195 13.9723 77.744 14.0702C77.9685 14.1681 78.2113 14.2166 78.4561 14.2124C78.7009 14.2082 78.942 14.1513 79.163 14.0458C79.3841 13.9402 79.5798 13.7883 79.7372 13.6004C80.3297 12.9719 80.805 12.2409 81.4481 11.6559C84.3138 9.04512 87.6528 8.18743 91.356 9.23851C95.0226 10.2804 97.3866 12.7471 98.448 16.4346C98.1682 18.9757 97.1541 21.2538 95.9326 23.4561C94.1613 26.601 91.7098 29.3085 88.7579 31.38C85.8061 33.4514 82.429 34.8342 78.8742 35.4269C77.5605 35.6421 76.2309 35.7454 74.8998 35.7359C72.1403 35.7125 69.4087 35.1785 66.8428 34.1607C66.4395 33.9949 66.1129 33.698 65.6965 33.5607Z" fill="#EFB519"/>
<path d="M65.6992 33.5607C65.9325 33.5373 66.1679 33.575 66.3824 33.67C68.7489 34.6891 71.2773 35.2784 73.8497 35.4105C77.8552 35.6748 81.8587 34.8649 85.4483 33.0642C89.9394 30.8472 93.6222 27.2726 95.9767 22.8449C96.9772 21.0076 97.7145 19.0382 98.167 16.9949C98.2114 16.7904 98.2341 16.5598 98.4502 16.4336C99.0564 18.6588 98.9209 21.0216 98.0642 23.1626C96.7486 26.7819 94.5468 29.8345 92.0207 32.6798C89.0647 36.0859 85.6264 39.0392 81.8154 41.4457C81.1246 41.8684 80.4022 42.2368 79.6545 42.5475C79.2659 42.7159 78.8467 42.802 78.4233 42.8005C77.9999 42.799 77.5814 42.7099 77.194 42.5388C75.3045 41.6905 73.5334 40.5991 71.9252 39.2923C69.7754 37.6562 67.7704 35.8372 65.9327 33.8556C65.8439 33.7657 65.7759 33.6593 65.6992 33.5607Z" fill="#C49006"/>
<path d="M86.8866 0.377838C87.8997 1.1601 88.0194 2.32576 88.1829 3.46386C88.2145 3.78646 88.2217 4.11099 88.2046 4.43468C88.1969 5.0632 88.319 5.62742 88.936 5.94168C89.5632 6.26125 90.0799 5.99921 90.5565 5.58971C90.6436 5.56923 90.7338 5.56642 90.822 5.58145C90.9102 5.59648 90.9945 5.62904 91.0699 5.67721C91.8666 6.06598 92.7831 6.12823 93.6248 5.85073C94.4665 5.57323 95.1672 4.97784 95.5779 4.19101C95.6792 3.98747 95.7391 3.73268 96.0604 3.80085C96.6393 5.30639 96.2722 6.47978 94.9247 7.35294C94.5573 7.58046 94.1751 7.78317 93.7808 7.9597C93.5868 8.05968 93.3728 8.11444 93.1547 8.11988C92.9367 8.12533 92.7202 8.08131 92.5215 7.99113C90.4875 7.02418 88.3827 7.20355 86.2768 7.62079C83.6901 8.13952 81.3676 9.5529 79.7155 11.6138C79.6591 11.7102 79.5833 11.7936 79.4928 11.8588C79.4023 11.9239 79.2991 11.9694 79.19 11.9922C79.0809 12.0149 78.9683 12.0145 78.8594 11.991C78.7505 11.9675 78.6477 11.9213 78.5576 11.8555C77.9138 11.5316 77.3045 11.1428 76.7393 10.6952C76.8256 10.2088 77.2255 10.3722 77.5049 10.3519C77.6892 10.3636 77.8739 10.3352 78.0462 10.2687C78.2185 10.2022 78.3745 10.0992 78.5034 9.9667C78.6324 9.83419 78.7312 9.67534 78.7932 9.501C78.8552 9.32667 78.8787 9.14098 78.8625 8.95663C78.909 8.39757 78.7438 7.84143 78.3998 7.39887C78.3559 7.3423 78.3144 7.28429 78.2691 7.22869C78.1533 7.088 78.0346 6.9415 78.1079 6.74521C78.1977 6.50928 78.4162 6.64126 78.5759 6.60017C79.1945 6.72675 79.7651 7.02552 80.222 7.46221C80.4278 7.66367 80.6663 7.82848 80.9273 7.94955C81.1089 8.02962 81.3077 8.06265 81.5053 8.04557C81.7029 8.0285 81.8931 7.96189 82.0583 7.85186C82.2235 7.74183 82.3584 7.59193 82.4507 7.41594C82.5429 7.23996 82.5894 7.04356 82.586 6.84481C82.5908 6.25448 82.5099 5.66416 82.4664 5.07384C82.5313 4.99686 82.6224 4.94674 82.722 4.93317C82.8217 4.91959 82.9227 4.94353 83.0058 5.00035C84.9882 6.09977 86.3535 4.56812 86.6396 2.87306C86.7573 2.28898 86.7715 1.68868 86.6815 1.09967C86.6342 0.847776 86.5865 0.552373 86.8866 0.377838Z" fill="#E22006"/>
<path d="M86.8884 0.377365C86.927 1.23215 87.1151 2.08355 86.899 2.94365C86.7759 3.65348 86.4602 4.31567 85.9866 4.85773C85.6312 5.27012 85.1409 5.5421 84.6035 5.62485C84.0661 5.70761 83.5169 5.59574 83.0543 5.3093C82.8672 5.2126 82.705 5.04726 82.4672 5.07433C82.2964 3.70174 82.3707 2.37364 83.2044 1.19541C83.6041 0.620742 84.2047 0.217649 84.8871 0.0661138C85.5695 -0.0854211 86.2839 0.025678 86.8884 0.377365Z" fill="#EF5A28"/>
<path d="M96.0609 3.80087C95.6933 4.49175 95.3985 5.20585 94.658 5.6521C93.7699 6.17458 92.7327 6.38362 91.7121 6.24581C91.2738 6.13949 90.8739 5.9124 90.5576 5.59021C91.3291 4.59028 92.2607 3.72539 93.3144 3.03069C93.4638 2.93036 93.6186 2.8382 93.778 2.75463C95.0155 2.10242 95.715 2.42296 96.0609 3.80087Z" fill="#EF5A28"/>
<path d="M78.5749 6.60114C78.2763 6.6901 78.1591 6.78003 78.4485 7.07543C78.782 7.40588 79.0103 7.82787 79.1047 8.28819C79.1992 8.74851 79.1555 9.22655 78.9792 9.66202C78.8913 9.95847 78.7035 10.2152 78.4478 10.3883C78.1921 10.5614 77.8844 10.6401 77.5772 10.6111C77.2983 10.6111 77.0031 10.5202 76.7382 10.6933C76.0994 10.1223 75.4235 9.56001 75.7429 8.5539C75.9079 8.00602 76.2309 7.51928 76.6713 7.15495C77.1117 6.79061 77.6499 6.56495 78.2179 6.50638C78.3407 6.52122 78.4609 6.55311 78.5749 6.60114Z" fill="#EF5A28"/>
<path d="M99.6552 19.5815C99.6248 18.7547 99.5003 17.9338 99.5341 17.1032C99.5519 16.6816 99.6851 16.5486 100.131 16.6047C101.411 16.7638 102.66 16.9722 103.671 17.871C103.737 17.9304 103.794 18.001 103.854 18.0643C103.882 18.5193 103.513 18.7243 103.246 18.9646C102.318 19.7986 101.194 19.9315 100.011 19.8053C99.8685 19.7779 99.7416 19.6981 99.6552 19.5815Z" fill="#CA795B"/>
<path d="M99.6554 19.5815C100.352 19.6186 101.051 19.5862 101.742 19.4848C102.627 19.2673 103.224 18.6455 103.856 18.0648C104.367 18.4426 104.727 18.9915 104.869 19.612C104.966 19.9369 104.86 20.1071 104.545 20.1438C103.87 20.2187 103.194 20.3029 102.513 20.3372C101.813 20.3706 101.111 20.3512 100.41 20.3502C99.6835 20.3449 99.653 20.3125 99.6554 19.5815Z" fill="#AF5B3C"/>
<path d="M92.9559 16.437C92.9475 16.7688 92.8413 17.0907 92.6508 17.3622C92.4602 17.6338 92.1938 17.8428 91.885 17.963C91.5763 18.0832 91.2389 18.1093 90.9154 18.0379C90.5919 17.9666 90.2967 17.801 90.0669 17.5619C89.8371 17.3229 89.6829 17.0211 89.6237 16.6945C89.5645 16.3679 89.6031 16.0311 89.7344 15.7264C89.8657 15.4216 90.084 15.1626 90.3618 14.9818C90.6397 14.8011 90.9647 14.7067 91.2959 14.7105C91.5209 14.7044 91.7447 14.7455 91.953 14.8309C92.1613 14.9164 92.3496 15.0444 92.5058 15.2069C92.662 15.3693 92.7827 15.5626 92.8602 15.7744C92.9377 15.9862 92.9703 16.2118 92.9559 16.437Z" fill="#0B7F7C"/>
<path d="M45.2188 123.333C45.2626 122.912 45.2627 122.449 45.8312 122.407C46.1773 122.382 46.4875 122.576 46.4016 122.941C46.3063 123.352 46.4274 123.975 45.7403 124.022C45.2608 124.054 45.2676 123.659 45.2188 123.333Z" fill="#EFB519"/>
<path d="M47.2227 123.307C47.269 122.873 47.2954 122.417 47.869 122.409C48.2062 122.403 48.4958 122.581 48.3942 122.974C48.2876 123.389 48.4055 124.013 47.7084 124.021C47.2339 124.027 47.2722 123.615 47.2227 123.307Z" fill="#EFB519"/>
<path d="M49.0635 123.322C49.1067 122.895 49.118 122.436 49.6903 122.407C50.0358 122.39 50.3366 122.589 50.2464 122.956C50.1454 123.366 50.2657 123.995 49.5705 124.024C49.0916 124.042 49.1111 123.642 49.0635 123.322Z" fill="#EFB519"/>
<path d="M69.6387 118.017C69.1573 117.791 68.8456 118.08 68.5798 118.428C68.1993 118.925 67.8326 119.433 67.4603 119.936C67.3893 119.119 67.4994 118.297 67.783 117.528C68.0595 116.626 68.3993 115.743 68.734 114.859C68.8832 114.467 69.0168 114.077 68.5316 113.864C68.0163 113.639 67.8577 114.067 67.6959 114.43C67.5499 114.759 67.405 115.091 67.2803 115.43C67.2458 115.566 67.1601 115.684 67.0411 115.757C66.922 115.831 66.779 115.856 66.6422 115.826C66.2586 115.787 66.3024 115.545 66.3501 115.283C66.3668 115.214 66.3685 115.143 66.3553 115.074C66.342 115.004 66.314 114.939 66.2732 114.881C66.2325 114.823 66.1799 114.775 66.119 114.74C66.058 114.705 65.9901 114.683 65.92 114.676C65.6323 114.609 65.4549 114.781 65.3458 115.04C65.2242 115.356 65.0009 115.621 64.7116 115.795C64.4222 115.968 64.0834 116.04 63.7486 115.999C63.427 115.989 63.1963 116.125 63.1963 116.476C63.1963 116.785 63.358 117.09 63.6739 117.045C64.6305 116.909 64.4031 117.492 64.3103 118.009C64.2357 118.42 64.1315 118.826 64.067 119.238C63.8371 120.443 63.7448 121.669 63.7918 122.895C63.8181 123.272 63.9856 123.673 64.415 123.656C64.9503 123.635 64.7152 123.165 64.7033 122.882C64.7127 121.098 64.9634 119.322 65.4486 117.605C65.4857 117.443 65.5478 117.287 65.6329 117.144C65.7148 116.977 65.8574 116.849 66.0311 116.786C66.2049 116.722 66.3964 116.729 66.5657 116.803C66.9418 116.962 66.6753 117.299 66.6145 117.529C66.2546 118.789 66.0857 120.095 66.1132 121.405C66.1257 121.731 66.0781 122.108 66.5175 122.222C66.9281 122.328 67.1255 122.034 67.3167 121.756C67.6867 121.086 68.1282 120.459 68.6332 119.885C68.5924 120.178 68.5629 120.329 68.5504 120.482C68.4623 121.174 68.4704 121.874 68.5743 122.564C68.6307 122.844 68.7949 123.097 69.1428 123.057C69.361 123.034 69.3747 122.836 69.349 122.669C69.1653 121.386 69.6625 120.199 69.8675 118.972C69.9239 118.625 70.0925 118.232 69.6387 118.017Z" fill="#EFB519"/>
<path d="M131.116 117.81C130.684 118.065 130.266 118.341 129.862 118.639C129.935 118.049 130.346 117.406 129.539 117.235C128.824 117.085 128.819 117.786 128.661 118.219C127.844 120.706 127.459 123.316 127.523 125.933C127.519 126.256 127.524 126.574 127.946 126.611C128.419 126.651 128.373 126.284 128.405 125.989C128.503 125.077 128.606 124.167 128.693 123.251C128.724 122.937 128.735 122.637 129.113 122.526C130.889 122.004 131.553 120.453 132.332 119.014C132.427 118.857 132.465 118.671 132.438 118.489C132.411 118.307 132.321 118.14 132.184 118.018C132.051 117.874 131.876 117.776 131.684 117.739C131.492 117.701 131.293 117.726 131.116 117.81ZM129.318 121.478C129.448 120.97 129.677 120.494 129.992 120.076C130.307 119.658 130.702 119.307 131.154 119.044C130.81 120.027 130.169 120.878 129.318 121.477V121.478Z" fill="#EFB519"/>
<path d="M118.904 118.012C118.386 117.784 118.089 118.161 117.799 118.514C117.435 119.094 117.003 119.628 116.513 120.105C116.604 119.615 116.671 119.235 116.747 118.857C117.042 117.441 117.486 116.061 118.073 114.741C118.226 114.389 118.207 114.065 117.847 113.878C117.452 113.672 117.22 113.922 117.073 114.262C116.007 116.504 115.44 118.952 115.41 121.435C115.418 121.77 115.393 122.133 115.836 122.229C116.25 122.317 116.424 122.019 116.61 121.732C116.954 121.199 117.308 120.669 117.656 120.139C117.705 120.156 117.753 120.174 117.802 120.192C117.802 120.772 117.798 121.352 117.802 121.933C117.774 122.112 117.784 122.296 117.832 122.471C117.88 122.646 117.965 122.808 118.081 122.948C118.21 123.048 118.372 123.095 118.534 123.077C118.704 123.056 118.674 122.861 118.66 122.732C118.491 121.481 118.898 120.311 119.139 119.115C119.213 118.734 119.443 118.251 118.904 118.012Z" fill="#EFB519"/>
<path d="M56.2045 117.362C55.7369 117.188 55.5865 117.57 55.463 117.931C55.1759 118.77 54.88 119.605 54.5722 120.486C54.387 120.189 54.3093 119.836 54.3521 119.488C54.3452 119.19 54.3032 118.928 53.9654 118.831C53.8176 118.786 53.6584 118.795 53.5171 118.858C53.3758 118.921 53.2618 119.032 53.1962 119.173C52.9742 119.509 52.7424 119.837 52.4277 120.297C52.3739 119.777 52.4441 119.251 52.6326 118.763C52.6576 118.69 52.6675 118.612 52.6617 118.535C52.656 118.458 52.6347 118.383 52.5991 118.314C52.5636 118.245 52.5144 118.185 52.4548 118.136C52.3952 118.086 52.3263 118.05 52.2522 118.028C51.8761 117.902 51.661 118.131 51.5488 118.442C51.1204 119.538 50.9824 120.726 51.1483 121.89C51.1588 122.045 51.2203 122.193 51.3233 122.309C51.4264 122.425 51.565 122.504 51.7174 122.532C51.8667 122.575 52.0252 122.569 52.1712 122.517C52.3172 122.465 52.4435 122.368 52.5324 122.241C52.7831 121.878 53.0201 121.502 53.3474 121C53.4727 121.398 53.5535 121.657 53.6394 121.913C53.7735 122.317 53.9045 122.712 54.4499 122.72C54.9953 122.727 55.0523 122.316 55.1683 121.948C55.5651 120.702 55.9482 119.452 56.3513 118.208C56.4548 117.887 56.6515 117.526 56.2045 117.362Z" fill="#EFB519"/>
<path d="M93.233 117.726C92.8086 117.491 92.5773 117.879 92.3384 118.133C91.6307 118.887 90.9355 119.654 90.1306 120.53C90.2085 119.864 90.3642 119.209 90.5945 118.58C90.6647 118.294 90.6572 117.997 90.3274 117.876C90.014 117.759 89.7939 117.935 89.656 118.213C89.2528 119.009 89.0127 119.877 88.9496 120.768C88.9227 120.949 88.9553 121.134 89.0425 121.296C89.1296 121.457 89.2666 121.586 89.4329 121.663C89.6049 121.759 89.804 121.794 89.9985 121.764C90.1931 121.734 90.3722 121.64 90.5074 121.497C90.7375 121.268 90.9524 121.023 91.3273 120.617C91.2264 121.831 91.0567 123.038 90.8189 124.232C90.6763 124.746 90.704 125.291 90.8978 125.788C90.9377 125.893 91.014 125.98 91.1129 126.033C91.2117 126.086 91.3264 126.102 91.4358 126.077C91.6508 126.039 91.6633 125.855 91.6664 125.689C91.7128 123.251 92.5271 121.004 93.3715 118.764C93.5044 118.401 93.6925 117.981 93.233 117.726Z" fill="#EFB519"/>
<path d="M124.152 117.732C123.731 117.48 123.495 117.862 123.256 118.122C122.542 118.893 121.838 119.67 121.038 120.545C121.078 119.918 121.224 119.302 121.471 118.724C121.577 118.397 121.64 118.026 121.22 117.874C120.856 117.743 120.652 118.011 120.516 118.305C120.155 119.06 119.934 119.874 119.864 120.709C119.832 120.91 119.868 121.117 119.967 121.295C120.066 121.474 120.221 121.614 120.409 121.694C120.596 121.773 120.805 121.787 121.002 121.734C121.198 121.681 121.372 121.563 121.494 121.4C121.735 121.113 121.975 120.824 122.216 120.537L122.386 120.614C122.168 121.807 121.944 122.994 121.738 124.188C121.602 124.703 121.62 125.247 121.793 125.751C121.823 125.86 121.891 125.954 121.986 126.016C122.08 126.078 122.194 126.103 122.306 126.086C122.559 126.048 122.578 125.839 122.582 125.641C122.642 123.23 123.425 121.001 124.274 118.785C124.414 118.416 124.596 117.998 124.152 117.732Z" fill="#EFB519"/>
<path d="M111.992 117.228C111.776 117.12 111.528 117.099 111.297 117.168C111.066 117.237 110.87 117.391 110.748 117.6C110.271 118.175 109.801 118.755 109.228 119.453C109.191 119.218 109.166 119.139 109.166 119.061C109.161 118.723 109.198 118.353 108.735 118.287C108.229 118.213 108.16 118.62 108.052 118.962C107.865 119.576 107.773 120.215 107.78 120.857C107.78 121.245 107.732 121.677 108.21 121.841C108.711 122.012 108.962 121.676 109.204 121.303C109.679 120.487 110.262 119.739 110.937 119.079C110.861 120.108 110.723 121.111 110.552 122.109C110.474 122.493 110.514 122.892 110.668 123.252C110.701 123.345 110.766 123.423 110.851 123.474C110.937 123.524 111.036 123.542 111.134 123.527C111.385 123.497 111.441 123.311 111.44 123.103C111.434 121.465 111.935 119.921 112.287 118.347C112.38 117.941 112.456 117.471 111.992 117.228Z" fill="#EFB519"/>
<path d="M137.925 118.151C137.796 117.986 137.619 117.864 137.419 117.802C137.218 117.741 137.004 117.742 136.805 117.806C136.13 117.989 135.535 118.39 135.112 118.947C134.688 119.503 134.46 120.184 134.462 120.884C134.436 121.155 134.467 121.428 134.551 121.686C134.636 121.945 134.773 122.183 134.953 122.386C135.134 122.589 135.354 122.752 135.6 122.866C135.847 122.979 136.114 123.041 136.385 123.047C136.829 123.014 137.25 122.882 137.221 122.33C137.184 121.658 136.754 121.916 136.378 122.006C136.278 122.042 136.172 122.056 136.066 122.046C135.961 122.037 135.858 122.005 135.766 121.952C135.674 121.899 135.595 121.826 135.534 121.739C135.473 121.653 135.431 121.554 135.411 121.449C135.272 120.906 135.748 120.924 136.075 120.81C136.812 120.543 137.444 120.045 137.878 119.391C138.026 119.221 138.112 119.005 138.121 118.78C138.129 118.554 138.06 118.332 137.925 118.151ZM135.835 119.91C135.903 119.597 136.061 119.311 136.288 119.086C136.516 118.862 136.804 118.708 137.117 118.644C137.02 118.942 136.853 119.213 136.63 119.433C136.408 119.654 136.135 119.818 135.837 119.911L135.835 119.91Z" fill="#EFB519"/>
<path d="M144.809 118.199C144.49 117.672 143.961 117.74 143.465 117.855C142.297 118.129 141.323 119.529 141.319 120.911C141.313 121.259 141.387 121.605 141.536 121.919C141.685 122.234 141.905 122.511 142.178 122.726C142.361 122.877 142.578 122.982 142.81 123.031C143.042 123.081 143.283 123.074 143.512 123.011C143.602 123.002 143.69 122.973 143.769 122.927C143.848 122.881 143.916 122.818 143.969 122.743C144.021 122.668 144.057 122.583 144.073 122.493C144.089 122.403 144.086 122.31 144.063 122.221C143.965 121.787 143.663 121.861 143.347 121.985C143.214 122.025 143.074 122.036 142.937 122.019C142.768 122.014 142.606 121.949 142.48 121.837C142.354 121.724 142.271 121.57 142.247 121.403C142.147 120.968 142.48 120.932 142.786 120.845C143.509 120.629 144.143 120.185 144.595 119.58C144.78 119.407 144.902 119.177 144.941 118.927C144.98 118.676 144.933 118.42 144.809 118.199ZM142.899 119.769C142.962 119.071 143.054 118.977 143.916 118.764C143.845 119.004 143.715 119.223 143.537 119.399C143.359 119.575 143.139 119.703 142.898 119.771L142.899 119.769Z" fill="#EFB519"/>
<path d="M76.444 117.811C75.9687 117.912 75.5245 118.125 75.1484 118.434C74.7724 118.742 74.4755 119.136 74.2825 119.583C74.0896 120.03 74.0062 120.517 74.0393 121.002C74.0725 121.488 74.2213 121.959 74.4732 122.375C74.6357 122.604 74.8552 122.787 75.1099 122.905C75.3646 123.023 75.6456 123.072 75.925 123.047C76.3801 123.006 76.7787 122.824 76.7185 122.287C76.6514 121.681 76.2441 121.945 75.9037 122.022C75.8032 122.055 75.6968 122.067 75.5915 122.056C75.4862 122.046 75.3842 122.013 75.2924 121.96C75.2007 121.907 75.1211 121.835 75.0589 121.75C74.9967 121.664 74.9532 121.566 74.9314 121.462C74.7672 120.903 75.2448 120.935 75.5676 120.815C76.3401 120.554 76.9957 120.028 77.4188 119.329C77.8859 118.527 77.514 117.825 76.444 117.811ZM75.3157 119.979C75.3776 119.659 75.5316 119.364 75.7588 119.131C75.9859 118.898 76.2762 118.737 76.5938 118.667C76.3888 119.373 75.9507 119.626 75.3157 119.979Z" fill="#EFB519"/>
<path d="M83.3547 117.968C82.8192 118.214 82.3622 118.604 82.0344 119.095C81.7067 119.585 81.5209 120.157 81.4979 120.747C81.4402 122.023 82.3029 123.072 83.3466 123.051C83.8325 123.042 84.2869 122.897 84.2568 122.322C84.2229 121.655 83.7721 121.945 83.4042 122.023C83.3036 122.055 83.1975 122.066 83.0926 122.054C82.9877 122.042 82.8864 122.008 82.7954 121.955C82.7044 121.901 82.6257 121.829 82.5644 121.743C82.5031 121.657 82.4605 121.559 82.4395 121.455C82.296 120.921 82.7529 120.911 83.0871 120.805C83.7273 120.605 84.2891 120.21 84.6937 119.674C85.0322 119.225 85.3877 118.706 84.9608 118.166C84.7604 117.947 84.4885 117.807 84.1942 117.77C83.8998 117.734 83.6023 117.804 83.3547 117.968ZM82.8927 119.943C82.9288 119.615 83.0765 119.31 83.311 119.079C83.5454 118.848 83.8522 118.705 84.1796 118.674C84.0609 118.961 83.8857 119.222 83.6647 119.44C83.4436 119.657 83.1811 119.829 82.8927 119.943Z" fill="#EFB519"/>
<path d="M81.5895 117.771C81.1457 117.45 80.9657 117.915 80.7507 118.175C80.0611 119.011 79.6581 120.032 78.9403 121.114C78.8529 120.321 78.874 119.52 79.0031 118.732C79.0733 118.339 78.9861 117.979 78.5279 117.902C78.0421 117.817 77.9969 118.23 77.948 118.545C77.7617 119.674 77.7464 120.825 77.9028 121.958C77.9655 122.385 78.1304 122.779 78.6287 122.865C79.144 122.952 79.3735 122.607 79.569 122.211C80.1461 121.007 80.804 119.843 81.5381 118.728C81.7412 118.428 81.987 118.06 81.5895 117.771Z" fill="#EFB519"/>
<path d="M107.27 118.075C107.223 118.044 107.171 118.023 107.116 118.012C107.061 118.002 107.004 118.002 106.949 118.014C106.895 118.026 106.843 118.048 106.797 118.08C106.751 118.112 106.712 118.153 106.682 118.201C106.531 118.399 106.403 118.615 106.255 118.816C105.822 119.605 105.296 120.34 104.688 121.003C104.669 120.232 104.847 119.469 105.205 118.786C105.323 118.48 105.291 118.221 104.985 118.085C104.679 117.95 104.536 118.206 104.405 118.42C103.85 119.332 103.634 120.41 103.795 121.466C103.804 121.614 103.855 121.756 103.943 121.874C104.031 121.993 104.152 122.083 104.291 122.134C104.43 122.185 104.58 122.194 104.724 122.16C104.868 122.126 104.998 122.051 105.1 121.944C105.249 121.83 105.333 121.63 105.575 121.604C105.712 121.989 105.616 122.428 105.835 122.791C105.873 122.866 105.931 122.929 106.003 122.971C106.075 123.014 106.157 123.035 106.241 123.032C106.478 123.02 106.492 122.834 106.484 122.673C106.46 121.277 106.783 119.898 107.424 118.659C107.454 118.611 107.474 118.557 107.483 118.501C107.491 118.445 107.488 118.388 107.473 118.333C107.459 118.279 107.433 118.227 107.398 118.183C107.363 118.139 107.319 118.102 107.27 118.075Z" fill="#EFB519"/>
<path d="M104.17 117.96C103.911 117.578 103.543 117.654 103.218 117.88C102.812 118.163 102.426 118.475 102.011 118.79C101.941 118.595 101.946 118.381 102.024 118.189C102.123 117.868 102.14 117.58 101.718 117.474C101.645 117.449 101.567 117.439 101.49 117.446C101.413 117.453 101.339 117.477 101.272 117.515C101.205 117.553 101.146 117.605 101.101 117.668C101.055 117.731 101.024 117.802 101.008 117.878C100.586 119.289 100.337 120.746 100.268 122.218C100.251 122.315 100.27 122.416 100.321 122.501C100.373 122.586 100.454 122.649 100.549 122.678C100.651 122.727 100.768 122.736 100.876 122.705C100.985 122.673 101.079 122.603 101.14 122.508C101.273 122.267 101.389 122.016 101.485 121.758C101.906 120.512 102.692 119.423 103.742 118.634C103.977 118.472 104.51 118.46 104.17 117.96Z" fill="#EFB519"/>
<path d="M63.7608 117.996C63.5295 117.574 63.1371 117.664 62.8205 117.865C62.3817 118.142 61.985 118.479 61.5436 118.811C61.5324 118.677 61.5185 118.595 61.5185 118.512C61.5185 118.148 61.9623 117.658 61.2809 117.487C60.6377 117.325 60.5776 117.871 60.4497 118.284C60.1287 119.494 59.9251 120.732 59.8416 121.981C59.809 122.285 59.7758 122.624 60.2059 122.698C60.582 122.76 60.763 122.52 60.8897 122.219C60.9868 121.99 61.0777 121.755 61.1636 121.521C61.5629 120.354 62.3192 119.343 63.3251 118.631C63.547 118.478 63.999 118.436 63.7608 117.996Z" fill="#EFB519"/>
<path d="M89.1412 117.972C89.0989 117.899 89.0403 117.836 88.9701 117.788C88.8998 117.74 88.8198 117.709 88.7358 117.697C88.6518 117.685 88.5661 117.692 88.4852 117.718C88.4044 117.744 88.3306 117.788 88.2693 117.847C87.8336 118.138 87.418 118.46 86.9196 118.822C86.9126 118.695 86.9126 118.567 86.9196 118.439C86.9823 118.077 87.2669 117.627 86.677 117.477C86.1085 117.33 86.0013 117.799 85.8709 118.208C85.5262 119.414 85.3173 120.655 85.2484 121.907C85.2233 122.213 85.1136 122.627 85.6138 122.7C86.0464 122.762 86.1781 122.423 86.3091 122.113C86.3975 121.909 86.4745 121.701 86.5598 121.493C86.9771 120.332 87.7392 119.327 88.7437 118.612C88.9757 118.455 89.4176 118.416 89.1412 117.972Z" fill="#EFB519"/>
<path d="M57.7901 118.146C57.1198 119.069 56.7566 120.18 56.752 121.321C56.8071 121.79 56.7406 122.399 57.4452 122.603C58.1172 122.796 58.4664 122.358 58.7956 121.89C59.0821 121.481 59.3086 121.034 59.4682 120.561C59.6319 120.176 59.6974 119.756 59.6589 119.34C59.6204 118.923 59.479 118.522 59.2475 118.174C58.7817 117.509 58.2577 117.489 57.7901 118.146ZM57.968 121.365C57.6239 120.381 57.9944 119.639 58.5623 118.798C58.7102 119.239 58.7329 119.713 58.6281 120.166C58.5233 120.619 58.295 121.034 57.9687 121.365L57.968 121.365Z" fill="#EFB519"/>
<path d="M140.216 117.657C139.993 117.659 139.776 117.732 139.596 117.864C138.588 118.541 137.817 120.859 138.228 122.01C138.289 122.287 138.452 122.529 138.685 122.689C138.918 122.849 139.203 122.914 139.482 122.871C140.114 122.785 140.365 122.258 140.591 121.747C140.618 121.667 140.618 121.58 140.59 121.501C140.562 121.421 140.509 121.353 140.438 121.307C140.363 121.245 140.269 121.211 140.172 121.211C140.075 121.211 139.98 121.245 139.906 121.307C139.674 121.44 139.57 121.766 139.185 121.752C139.196 120.506 139.415 119.379 140.564 118.649C140.778 118.514 141.015 118.368 140.884 118.059C140.828 117.931 140.734 117.823 140.614 117.751C140.494 117.679 140.355 117.647 140.216 117.657Z" fill="#EFB519"/>
<path d="M99.1958 117.661C99.0299 117.68 98.8696 117.732 98.7241 117.814C98.5786 117.896 98.4511 118.006 98.349 118.139C97.9256 118.618 97.6071 119.181 97.414 119.792C97.221 120.402 97.1576 121.046 97.2281 121.683C97.24 121.864 97.2882 122.041 97.3698 122.203C97.4515 122.365 97.5649 122.508 97.7033 122.625C97.8031 122.724 97.9234 122.8 98.0558 122.847C98.1881 122.894 98.3292 122.911 98.4688 122.896C98.6085 122.882 98.7435 122.837 98.8638 122.765C98.9842 122.693 99.0871 122.594 99.1652 122.478C99.436 122.163 99.9644 121.814 99.5205 121.363C98.9965 120.83 98.7902 121.712 98.2743 121.765C98.1956 121.177 98.2793 120.579 98.516 120.035C98.7527 119.491 99.1335 119.022 99.6171 118.68C99.8597 118.504 100.072 118.331 99.8954 118.006C99.8299 117.882 99.7272 117.782 99.6015 117.72C99.4759 117.658 99.3338 117.637 99.1958 117.661Z" fill="#EFB519"/>
<path d="M114.589 117.679C114.451 117.659 114.311 117.669 114.177 117.708C114.044 117.746 113.92 117.813 113.814 117.903C113.269 118.424 112.863 119.074 112.634 119.792C112.404 120.511 112.357 121.276 112.497 122.017C112.525 122.163 112.583 122.301 112.667 122.423C112.751 122.545 112.859 122.648 112.985 122.726C113.111 122.804 113.251 122.856 113.397 122.877C113.544 122.898 113.693 122.888 113.836 122.849C114.417 122.736 114.65 122.221 114.847 121.723C114.864 121.684 114.872 121.642 114.873 121.6C114.873 121.557 114.865 121.515 114.849 121.476C114.832 121.437 114.809 121.401 114.779 121.371C114.749 121.341 114.713 121.317 114.674 121.301C114.149 121.037 113.985 121.63 113.496 121.808C113.399 121.205 113.474 120.586 113.712 120.024C113.95 119.461 114.341 118.977 114.841 118.627C115.033 118.494 115.229 118.375 115.15 118.107C115.114 117.985 115.04 117.878 114.939 117.801C114.838 117.725 114.716 117.682 114.589 117.679Z" fill="#EFB519"/>
<path d="M133.773 118.051C133.331 117.917 133.168 118.25 133.089 118.585C132.846 119.44 132.703 120.32 132.662 121.209C132.676 121.513 132.676 121.819 132.705 122.122C132.702 122.192 132.714 122.262 132.74 122.327C132.766 122.393 132.805 122.452 132.855 122.501C132.905 122.55 132.965 122.588 133.031 122.613C133.096 122.638 133.166 122.648 133.236 122.644C133.609 122.634 133.559 122.334 133.55 122.089C133.541 121.005 133.732 119.928 134.114 118.914C134.254 118.51 134.222 118.185 133.773 118.051Z" fill="#EFB519"/>
<path d="M134.853 116.839C134.956 116.396 134.893 116.136 134.521 116.113C133.975 116.082 133.916 116.502 133.875 116.9C133.845 117.194 133.75 117.601 134.198 117.61C134.752 117.622 134.774 117.11 134.853 116.839Z" fill="#EFB519"/>
<path d="M46.0494 60.0572C45.1651 60.0572 44.4024 59.7477 43.7613 59.1287C43.1423 58.4876 42.8328 57.7249 42.8328 56.8406C42.8328 55.9784 43.1423 55.2378 43.7613 54.6188C44.4024 53.9777 45.1651 53.6571 46.0494 53.6571C46.9337 53.6571 47.6853 53.9777 48.3043 54.6188C48.9233 55.2378 49.2328 55.9784 49.2328 56.8406C49.2328 57.7249 48.9233 58.4876 48.3043 59.1287C47.6853 59.7477 46.9337 60.0572 46.0494 60.0572ZM40.2463 79.423C40.9979 79.003 41.4953 78.4724 41.7385 77.8313C42.0038 77.1902 42.1364 76.4828 42.1364 75.709V66.0593C42.1364 64.8213 42.0148 63.9259 41.7716 63.3732C41.5285 62.8206 41.02 62.4779 40.2463 62.3453V61.881H50.095V75.709C50.095 76.5049 50.2166 77.2234 50.4598 77.8645C50.725 78.4835 51.2335 79.003 51.9852 79.423V79.8873H40.2463V79.423Z" fill="#0B7F7C"/>
<path d="M63.0948 79.8873C59.8229 79.8873 57.2806 79.423 55.4678 78.4945C53.6771 77.566 52.7818 75.8417 52.7818 73.3215V62.9753H50.9911V61.881C52.1849 61.7263 53.4118 61.3283 54.672 60.6872C55.9542 60.024 57.0816 59.1618 58.0543 58.1007C59.0492 57.0395 59.7234 55.8789 60.0771 54.6188H60.7404V61.881H63.0616V62.9753H60.7404V74.8137C60.7404 75.6538 60.7735 76.3391 60.8398 76.8697C60.9062 77.3781 61.1051 77.8534 61.4367 78.2956C61.7905 78.7377 62.3431 79.0472 63.0948 79.2241V79.8873Z" fill="#0B7F7C"/>
<path d="M73.251 80.3515C71.4825 80.3515 69.8023 80.031 68.2106 79.3899C66.6189 78.7488 65.3146 77.7429 64.2976 76.3723C63.2807 74.9795 62.7722 73.233 62.7722 71.1329C62.7722 69.519 63.1481 67.9826 63.8997 66.5235C64.6514 65.0644 65.8009 63.8817 67.3484 62.9753C68.918 62.0468 70.8414 61.5826 73.1184 61.5826C75.2849 61.5826 77.1861 61.9805 78.822 62.7763C80.4801 63.5722 81.3091 64.8544 81.3091 66.623C81.3091 67.3083 81.0991 67.9163 80.679 68.4468C80.2811 68.9553 79.7505 69.3532 79.0873 69.6406C78.4462 69.9059 77.783 70.0385 77.0977 70.0385C76.5229 70.0385 75.9923 69.9391 75.506 69.7401C75.0196 69.5411 74.6217 69.2427 74.3122 68.8448C74.7322 68.4247 75.0528 67.872 75.2738 67.1867C75.4949 66.4793 75.6054 65.7719 75.6054 65.0644C75.6054 64.3128 75.4839 63.6938 75.2407 63.2074C74.9975 62.699 74.6438 62.4447 74.1795 62.4447C73.0521 62.4447 72.1899 63.0637 71.593 64.3017C70.9961 65.5397 70.6977 67.1094 70.6977 69.0106C70.6977 70.6244 71.0293 72.0614 71.6925 73.3215C72.3557 74.5595 73.1958 75.5322 74.2127 76.2396C75.2296 76.9249 76.2355 77.2676 77.2303 77.2676C78.1146 77.2676 78.8662 76.9802 79.4853 76.4054C80.1043 75.8306 80.5022 74.9795 80.679 73.852H81.4417C81.3533 75.1785 80.9333 76.3391 80.1816 77.3339C79.43 78.3066 78.4462 79.0583 77.2303 79.5888C76.0144 80.0973 74.688 80.3515 73.251 80.3515Z" fill="#0B7F7C"/>
<path d="M80.4472 79.423C81.1988 79.003 81.6962 78.4724 81.9394 77.8313C82.2047 77.1902 82.3373 76.4828 82.3373 75.709V62.4779C82.3373 60.9304 82.2931 59.814 82.2047 59.1287C82.1163 58.4433 81.9394 57.957 81.6741 57.6696C81.4309 57.3822 81.022 57.1943 80.4472 57.1059V56.6084H90.2959V62.9753C91.136 62.5111 92.0203 62.1684 92.9488 61.9473C93.8994 61.7041 94.8389 61.5826 95.7674 61.5826C97.0496 61.5826 98.2324 61.8036 99.3156 62.2458C100.399 62.6658 101.261 63.2959 101.902 64.1359C102.543 64.9539 102.864 65.9377 102.864 67.0872V75.709C102.864 76.5049 102.985 77.2234 103.229 77.8645C103.494 78.4835 104.002 79.003 104.754 79.423V79.8873H93.0151V79.423C93.7667 79.003 94.2641 78.4724 94.5073 77.8313C94.7726 77.1902 94.9053 76.4828 94.9053 75.709V67.2199C94.9053 66.0482 94.6289 65.1418 94.0762 64.5007C93.5236 63.8596 92.8051 63.539 91.9208 63.539C91.3681 63.539 90.8265 63.6496 90.2959 63.8707V75.709C90.2959 76.5049 90.4175 77.2234 90.6607 77.8645C90.926 78.4835 91.4344 79.003 92.1861 79.423V79.8873H80.4472V79.423Z" fill="#0B7F7C"/>
<path d="M114.916 80.3515C113.147 80.3515 111.467 80.031 109.875 79.3899C108.284 78.7488 106.979 77.7429 105.962 76.3723C104.945 74.9795 104.437 73.233 104.437 71.1329C104.437 69.519 104.813 67.9826 105.564 66.5235C106.316 65.0644 107.466 63.8817 109.013 62.9753C110.583 62.0468 112.506 61.5826 114.783 61.5826C116.994 61.5826 118.906 61.9915 120.52 62.8095C122.134 63.6275 122.941 64.9318 122.941 66.7225C122.941 68.4247 122.255 69.7622 120.885 70.7349C119.514 71.6855 117.812 72.1608 115.778 72.1608C114.805 72.1608 113.722 72.0171 112.528 71.7297C112.815 72.9677 113.291 74.0399 113.954 74.9463C114.617 75.8306 115.369 76.5049 116.209 76.9691C117.049 77.4113 117.889 77.6324 118.729 77.6324C119.702 77.6324 120.52 77.3118 121.183 76.6707C121.846 76.0296 122.266 75.09 122.443 73.852H123.106C123.018 75.1785 122.598 76.3391 121.846 77.3339C121.095 78.3066 120.111 79.0583 118.895 79.5888C117.679 80.0973 116.353 80.3515 114.916 80.3515ZM112.395 71.0997C112.705 71.1439 112.937 71.166 113.092 71.166C114.33 71.166 115.325 70.5691 116.076 69.3753C116.85 68.1815 117.237 66.6672 117.237 64.8323C117.237 64.0365 117.115 63.3843 116.872 62.8758C116.651 62.3674 116.308 62.1131 115.844 62.1131C114.717 62.1131 113.832 62.7874 113.191 64.1359C112.55 65.4624 112.23 67.0872 112.23 69.0106C112.23 69.6959 112.285 70.3923 112.395 71.0997Z" fill="#0B7F7C"/>
<path d="M122.759 79.423C123.511 79.003 124.009 78.4724 124.252 77.8313C124.517 77.1902 124.65 76.4828 124.65 75.709V67.7173C124.65 66.1698 124.605 65.0534 124.517 64.3681C124.429 63.6827 124.252 63.1964 123.986 62.909C123.743 62.6216 123.334 62.4337 122.759 62.3453V61.881H132.608V64.5007C133.382 63.5501 134.31 62.8316 135.394 62.3453C136.499 61.8589 137.627 61.6157 138.776 61.6157C139.904 61.6157 140.943 61.8368 141.893 62.2789C142.866 62.699 143.64 63.329 144.214 64.1691C144.811 64.9871 145.11 65.9598 145.11 67.0872V75.709C145.11 76.5049 145.231 77.2234 145.475 77.8645C145.74 78.4835 146.248 79.003 147 79.423V79.8873H135.261V79.423C136.013 79.003 136.51 78.4724 136.753 77.8313C137.019 77.1902 137.151 76.4828 137.151 75.709V67.5515C137.151 66.4904 136.93 65.6834 136.488 65.1308C136.046 64.556 135.493 64.2686 134.83 64.2686C134.034 64.2686 133.294 64.6333 132.608 65.3629V75.709C132.608 76.5049 132.73 77.2234 132.973 77.8645C133.238 78.4835 133.747 79.003 134.498 79.423V79.8873H122.759V79.423Z" fill="#0B7F7C"/>
<path d="M39.2804 81.7714C37.4385 81.3946 34.7585 82.1482 31.967 84.1982L31.6685 82.4407C31.1379 79.3899 30.6626 76.936 30.2426 75.079C29.8447 73.222 29.3362 71.6524 28.7172 70.3702C28.0982 69.0879 27.3797 68.4468 26.5618 68.4468C26.2301 68.4468 25.8875 68.5574 25.5338 68.7784V75.709C25.5338 76.5049 25.6554 77.2234 25.8985 77.8645C26.1638 78.4835 26.6723 79.003 27.4239 79.423V79.8873H15.685V79.423C16.4367 79.003 16.9341 78.4724 17.1773 77.8313C17.4425 77.1902 17.5752 76.4828 17.5752 75.709V60.7867C17.5752 59.6813 17.2767 58.8413 16.6799 58.2665C16.083 57.6696 15.3092 57.3711 14.3586 57.3711C13.2311 57.3711 12.0595 57.758 10.8436 58.5318C9.62767 59.2834 8.61074 60.3556 7.79277 61.7484C6.97481 63.1411 6.56583 64.7439 6.56583 66.5567C6.56583 68.0157 6.74268 69.2427 7.0964 70.2375C7.47222 71.2102 7.94752 71.9287 8.52231 72.393C9.0971 72.8572 9.67188 73.0893 10.2467 73.0893C10.8215 73.0893 11.2968 72.8793 11.6726 72.4593C12.0705 72.0392 12.2695 71.4866 12.2695 70.8012C12.2695 70.4033 12.1479 70.0275 11.9047 69.6738C11.6836 69.298 11.3078 69.0769 10.7772 69.0106C10.7772 68.5905 11.0094 68.1815 11.4736 67.7836C11.9379 67.3636 12.4684 67.1536 13.0653 67.1536C13.8833 67.1536 14.5244 67.3746 14.9887 67.8168C15.4529 68.2368 15.685 68.7674 15.685 69.4085C15.685 70.9339 15.1655 72.0945 14.1265 72.8904C13.1095 73.6641 11.7942 74.051 10.1803 74.051C8.61074 74.051 7.03008 73.6862 5.43836 72.9567C3.86875 72.2051 2.56443 71.1439 1.52539 69.7733C0.508465 68.3805 0 66.7777 0 64.965C0 63.5501 0.453197 62.2016 1.35959 60.9193C2.26598 59.6371 3.58136 58.5981 5.30572 57.8022C7.05218 57.0064 9.1192 56.6084 11.5068 56.6084H27.4239V57.0727C26.6723 57.4927 26.1638 58.0233 25.8985 58.6644C25.6554 59.2834 25.5338 59.9908 25.5338 60.7867V67.8168L29.1814 63.9038C31.2816 61.671 32.9286 59.4382 34.1224 57.2053C35.3162 54.9504 35.9131 53.0381 35.9131 51.4685C35.9131 50.4295 35.6257 49.6226 35.0509 49.0478C34.4761 48.4509 33.6029 48.1525 32.4312 48.1525C32.1217 48.1525 31.8896 48.1635 31.7348 48.1856C32.0443 46.7044 32.7849 45.5438 33.9566 44.7037C35.1504 43.8637 36.4658 43.4436 37.9027 43.4436C39.2955 43.4436 40.4782 43.8526 41.4509 44.6706C42.4236 45.4664 42.91 46.616 42.91 48.1193C42.91 49.9984 41.8267 52.3749 39.6602 55.2489C37.5159 58.1007 34.0892 61.3615 29.3804 65.0313C30.11 64.7439 30.8174 64.6002 31.5027 64.6002C33.1386 64.6002 34.4208 65.2745 35.3493 66.623C36.3 67.9715 36.9963 69.6185 37.4385 71.5639C37.8806 73.5094 38.8604 78.588 39.2804 81.7714Z" fill="#0B7F7C"/>
<path d="M35.0564 105.801C36.2059 105.69 37.1676 105.392 37.9413 104.906C38.7151 104.419 39.6325 103.48 40.6937 102.087L42.9155 99.2019L37.8419 91.1107C37.2008 90.2264 36.6481 89.6184 36.1838 89.2868C35.7417 88.9552 35.178 88.7894 34.4926 88.7894L34.4263 88.2589H46.6295V88.7894C45.8115 88.7894 45.4025 89.11 45.4025 89.7511C45.4025 90.0827 45.5241 90.4696 45.7673 90.9117L48.0222 94.5262L49.6139 92.4371C50.6751 91.0444 51.2057 90.0716 51.2057 89.519C51.2057 89.0989 50.9072 88.8336 50.3103 88.7231V88.2589H56.2461V88.7231C55.0965 88.8336 54.1348 89.1321 53.3611 89.6184C52.5873 90.1048 51.6699 91.0444 50.6088 92.4371L48.4865 95.2226L53.5932 103.38C54.2343 104.287 54.776 104.906 55.2181 105.237C55.6824 105.569 56.2571 105.735 56.9425 105.735V106.265H44.8056V105.735C45.6236 105.735 46.0326 105.414 46.0326 104.773C46.0326 104.419 45.911 104.021 45.6678 103.579L43.3797 99.8983L41.6885 102.087C40.6274 103.458 40.0968 104.43 40.0968 105.005C40.0968 105.425 40.3952 105.69 40.9921 105.801V106.265H35.0564V105.801Z" fill="#0B7F7C"/>
<path d="M56.6673 111.073C57.419 110.653 57.9164 110.123 58.1596 109.482C58.4248 108.841 58.5575 108.133 58.5575 107.359V94.0951C58.5575 92.5476 58.5133 91.4312 58.4248 90.7459C58.3364 90.0606 58.1596 89.5742 57.8943 89.2868C57.6511 88.9994 57.2421 88.8115 56.6673 88.7231V88.2589H66.5161V89.3863L70.0974 88.2589C71.9986 88.2589 73.6125 88.6789 74.9389 89.519C76.2653 90.359 77.2491 91.4754 77.8902 92.8682C78.5534 94.2388 78.885 95.709 78.885 97.2786C78.885 98.8924 78.5424 100.429 77.857 101.888C77.1717 103.347 76.1658 104.53 74.8394 105.436C73.5351 106.32 71.9765 106.763 70.1637 106.763C68.7931 106.763 67.5772 106.309 66.5161 105.403V107.359C66.5161 108.155 66.6377 108.863 66.8808 109.482C67.1461 110.123 67.6546 110.653 68.4062 111.073V111.538H56.6673V111.073ZM67.1461 105.071C68.4283 104.872 69.4121 104.088 70.0974 102.717C70.7827 101.324 71.1254 99.6993 71.1254 97.8423C71.1254 95.8085 70.7164 94.0067 69.8985 92.4371C69.1026 90.8454 67.9751 89.9279 66.5161 89.6848V105.005C66.8698 105.071 67.0798 105.093 67.1461 105.071Z" fill="#0B7F7C"/>
<path d="M78.5521 105.801C79.3038 105.381 79.8012 104.85 80.0444 104.209C80.3096 103.568 80.4423 102.861 80.4423 102.087V94.0951C80.4423 92.5476 80.3981 91.4312 80.3096 90.7459C80.2212 90.0606 80.0444 89.5742 79.7791 89.2868C79.5359 88.9994 79.1269 88.8115 78.5521 88.7231V88.2589H88.4009V92.4039C89.0641 91.2323 89.9373 90.2043 91.0206 89.32C92.1038 88.4136 93.1871 87.9604 94.2703 87.9604C95.2872 87.9604 96.061 88.2699 96.5916 88.8889C97.1221 89.4858 97.3874 90.2153 97.3874 91.0775C97.3874 91.9618 97.089 92.6582 96.4921 93.1666C95.8952 93.6751 95.1878 93.9293 94.3698 93.9293C93.5297 93.9293 92.8002 93.6641 92.1812 93.1335C91.5622 92.6029 91.2527 91.8623 91.2527 90.9117C91.2527 90.7128 91.2969 90.4696 91.3853 90.1822C90.9653 90.4917 90.4679 91.0001 89.8931 91.7076C89.3404 92.3929 88.843 93.1224 88.4009 93.8962V102.087C88.4009 102.883 88.5225 103.601 88.7656 104.242C89.0309 104.861 89.5394 105.381 90.291 105.801V106.265H78.5521V105.801Z" fill="#0B7F7C"/>
<path d="M106.22 106.729C104.452 106.729 102.771 106.409 101.18 105.768C99.588 105.127 98.2836 104.121 97.2667 102.75C96.2498 101.357 95.7413 99.6109 95.7413 97.5107C95.7413 95.8969 96.1171 94.3604 96.8688 92.9014C97.6204 91.4423 98.77 90.2596 100.317 89.3532C101.887 88.4247 103.81 87.9604 106.087 87.9604C108.298 87.9604 110.21 88.3694 111.824 89.1874C113.438 90.0053 114.245 91.3096 114.245 93.1003C114.245 94.8026 113.56 96.1401 112.189 97.1128C110.818 98.0634 109.116 98.5387 107.082 98.5387C106.11 98.5387 105.026 98.395 103.833 98.1076C104.12 99.3456 104.595 100.418 105.258 101.324C105.922 102.208 106.673 102.883 107.513 103.347C108.353 103.789 109.194 104.01 110.034 104.01C111.006 104.01 111.824 103.69 112.487 103.049C113.151 102.407 113.571 101.468 113.748 100.23H114.411C114.322 101.556 113.902 102.717 113.151 103.712C112.399 104.684 111.415 105.436 110.199 105.967C108.983 106.475 107.657 106.729 106.22 106.729ZM103.7 97.4775C104.009 97.5218 104.242 97.5439 104.396 97.5439C105.634 97.5439 106.629 96.947 107.381 95.7532C108.154 94.5594 108.541 93.0451 108.541 91.2102C108.541 90.4143 108.42 89.7621 108.177 89.2537C107.956 88.7452 107.613 88.491 107.149 88.491C106.021 88.491 105.137 89.1652 104.496 90.5138C103.855 91.8402 103.534 93.4651 103.534 95.3884C103.534 96.0737 103.589 96.7701 103.7 97.4775Z" fill="#0B7F7C"/>
<path d="M115.051 99.7988H115.515C115.67 100.794 116.156 101.744 116.974 102.651C117.814 103.557 118.765 104.287 119.826 104.839C120.909 105.37 121.849 105.635 122.645 105.635C123.64 105.635 124.137 105.215 124.137 104.375C124.137 103.933 123.993 103.458 123.706 102.949C123.419 102.418 122.954 101.921 122.313 101.457L121.749 101.059C120.246 99.9314 119.008 98.9808 118.035 98.2071C117.085 97.4112 116.234 96.549 115.482 95.6205C114.753 94.692 114.388 93.8188 114.388 93.0008C114.388 91.9618 114.719 91.0665 115.383 90.3148C116.068 89.5411 116.974 88.9552 118.102 88.5573C119.251 88.1594 120.534 87.9604 121.948 87.9604C122.59 87.9604 123.22 88.0378 123.839 88.1925C124.48 88.3252 125.176 88.5131 125.928 88.7563C126.878 89.0437 127.508 89.1874 127.818 89.1874C128.105 89.1874 128.315 89.121 128.448 88.9884C128.581 88.8336 128.647 88.5905 128.647 88.2589H129.111V93.863H128.647C128.647 92.9345 128.337 92.0834 127.718 91.3096C127.121 90.5138 126.381 89.8948 125.497 89.4526C124.634 88.9884 123.828 88.7563 123.076 88.7563C122.545 88.7563 122.114 88.8889 121.783 89.1542C121.473 89.3974 121.318 89.7732 121.318 90.2817C121.318 90.9891 121.517 91.6413 121.915 92.2381C122.335 92.835 122.833 93.3546 123.407 93.7967C124.004 94.2388 124.822 94.8026 125.861 95.4879C126.967 96.1953 127.84 96.8033 128.481 97.3117C129.122 97.7981 129.664 98.3839 130.106 99.0693C130.57 99.7546 130.802 100.517 130.802 101.357C130.802 102.242 130.526 103.06 129.973 103.811C129.443 104.541 128.625 105.138 127.519 105.602C126.436 106.044 125.088 106.265 123.474 106.265C123.032 106.265 122.7 106.254 122.479 106.232C122.125 106.21 121.672 106.166 121.119 106.099C120.589 106.033 120.191 105.989 119.926 105.967C118.621 105.768 117.615 105.668 116.908 105.668C116.289 105.668 115.891 105.867 115.714 106.265H115.051V99.7988Z" fill="#0B7F7C"/>
<path d="M131.139 99.7988H131.603C131.758 100.794 132.244 101.744 133.062 102.651C133.903 103.557 134.853 104.287 135.914 104.839C136.998 105.37 137.937 105.635 138.733 105.635C139.728 105.635 140.225 105.215 140.225 104.375C140.225 103.933 140.081 103.458 139.794 102.949C139.507 102.418 139.042 101.921 138.401 101.457L137.838 101.059C136.334 99.9314 135.096 98.9808 134.124 98.2071C133.173 97.4112 132.322 96.549 131.57 95.6205C130.841 94.692 130.476 93.8188 130.476 93.0008C130.476 91.9618 130.808 91.0665 131.471 90.3148C132.156 89.5411 133.062 88.9552 134.19 88.5573C135.339 88.1594 136.622 87.9604 138.037 87.9604C138.678 87.9604 139.308 88.0378 139.927 88.1925C140.568 88.3252 141.264 88.5131 142.016 88.7563C142.966 89.0437 143.596 89.1874 143.906 89.1874C144.193 89.1874 144.403 89.121 144.536 88.9884C144.669 88.8336 144.735 88.5905 144.735 88.2589H145.199V93.863H144.735C144.735 92.9345 144.426 92.0834 143.807 91.3096C143.21 90.5138 142.469 89.8948 141.585 89.4526C140.723 88.9884 139.916 88.7563 139.164 88.7563C138.633 88.7563 138.202 88.8889 137.871 89.1542C137.561 89.3974 137.406 89.7732 137.406 90.2817C137.406 90.9891 137.605 91.6413 138.003 92.2381C138.423 92.835 138.921 93.3546 139.496 93.7967C140.093 94.2388 140.91 94.8026 141.95 95.4879C143.055 96.1953 143.928 96.8033 144.569 97.3117C145.21 97.7981 145.752 98.3839 146.194 99.0693C146.658 99.7546 146.89 100.517 146.89 101.357C146.89 102.242 146.614 103.06 146.061 103.811C145.531 104.541 144.713 105.138 143.608 105.602C142.524 106.044 141.176 106.265 139.562 106.265C139.12 106.265 138.788 106.254 138.567 106.232C138.213 106.21 137.76 106.166 137.208 106.099C136.677 106.033 136.279 105.989 136.014 105.967C134.709 105.768 133.704 105.668 132.996 105.668C132.377 105.668 131.979 105.867 131.802 106.265H131.139V99.7988Z" fill="#0B7F7C"/>
<path d="M37.5292 119.132C35.6501 119.132 33.9036 118.811 32.2898 118.17C30.6981 117.529 29.2943 116.744 28.0784 115.815C26.8846 114.909 25.4587 113.715 23.8006 112.234C22.43 110.996 21.3025 110.034 20.4182 109.349C19.5339 108.664 18.5723 108.089 17.5332 107.625C16.5163 107.16 15.4441 106.928 14.3167 106.928C13.5871 106.928 13.0013 107.172 12.5591 107.658C12.117 108.166 11.8959 108.752 11.8959 109.415C11.8959 109.858 12.0065 110.255 12.2275 110.609C12.4707 110.985 12.8244 111.272 13.2887 111.471C13.0013 112.135 12.4044 112.466 11.498 112.466C10.7685 112.466 10.0942 112.245 9.47518 111.803C8.87829 111.361 8.57984 110.797 8.57984 110.112C8.57984 108.918 9.16568 107.945 10.3374 107.194C11.509 106.464 13.0234 106.077 14.8804 106.033C15.1015 105.834 15.2783 105.624 15.411 105.403C15.9415 104.563 16.2068 103.458 16.2068 102.087V87.4298C16.2068 86.1697 15.9415 85.2191 15.411 84.578C14.8804 83.9148 14.184 83.5832 13.3218 83.5832C12.3712 83.5832 11.3875 83.9701 10.3705 84.7438C9.35359 85.5176 8.50247 86.6229 7.81715 88.0599C7.15393 89.4747 6.82232 91.0996 6.82232 92.9345C6.82232 94.1504 6.97707 95.1784 7.28657 96.0185C7.59607 96.8364 7.9719 97.4444 8.41404 97.8423C8.85618 98.2402 9.29833 98.4392 9.74047 98.4392C10.0721 98.4392 10.3374 98.3287 10.5363 98.1076C10.7574 97.8865 10.8679 97.577 10.8679 97.1791C10.8679 96.7812 10.7463 96.4053 10.5032 96.0516C10.2821 95.6758 9.90627 95.4547 9.3757 95.3884C9.3757 94.9684 9.60783 94.5594 10.0721 94.1615C10.5363 93.7414 11.0669 93.5314 11.6638 93.5314C12.4818 93.5314 13.1229 93.7525 13.5871 94.1946C14.0514 94.6147 14.2835 95.1452 14.2835 95.7863C14.2835 96.3169 14.1066 96.8364 13.7529 97.3449C13.4213 97.8534 12.9128 98.2734 12.2275 98.605C11.5422 98.9145 10.7132 99.0693 9.74047 99.0693C7.86136 99.0693 6.23648 98.7155 4.86584 98.0081C3.5173 97.2786 2.48932 96.328 1.78189 95.1563C1.09657 93.9625 0.753906 92.6913 0.753906 91.3428C0.753906 89.8616 1.17394 88.491 2.01401 87.2309C2.87619 85.9708 4.23578 84.9538 6.09279 84.1801C7.94979 83.3842 10.3042 82.9863 13.156 82.9863H33.1188L33.4504 88.1262H32.754C32.4003 87.1756 32.0687 86.4461 31.7592 85.9376C31.295 85.186 30.8307 84.6775 30.3665 84.4122C29.9022 84.1248 29.3495 83.9811 28.7084 83.9811H26.0887C25.3592 83.9811 24.8618 84.3017 24.5965 84.9428C24.3312 85.5839 24.1986 86.3245 24.1986 87.1646V93.2661H26.5198C27.3599 93.2661 27.9899 93.233 28.41 93.1666C28.8521 93.1003 29.1837 92.9677 29.4048 92.7687C29.648 92.5476 29.8138 92.216 29.9022 91.7739C29.9906 91.3981 30.0459 91.0444 30.068 90.7128H30.5654V97.1459H30.068C30.0459 96.8143 29.9906 96.4385 29.9022 96.0185C29.7917 95.5763 29.6148 95.2558 29.3716 95.0568C29.1506 94.8578 28.83 94.7363 28.41 94.692C28.012 94.6257 27.382 94.5926 26.5198 94.5926H24.1986V102.087C24.1986 102.927 24.3312 103.668 24.5965 104.309C24.8618 104.95 25.3592 105.27 26.0887 105.27L24.1654 106.265C25.1823 106.553 26.1108 106.995 26.9509 107.592C27.6362 108.078 28.41 108.686 29.2722 109.415C30.1564 110.145 30.7202 110.609 30.9633 110.808C32.5108 112.135 33.8152 113.207 34.8763 114.025C35.9596 114.865 37.076 115.572 38.2256 116.147C39.3972 116.722 40.5026 117.009 41.5416 117.009C42.8902 117.009 44.0287 116.81 44.9572 116.412C45.8857 116.014 46.571 115.495 47.0131 114.854C47.4553 114.213 47.6764 113.527 47.6764 112.798C47.6764 112.002 47.4221 111.317 46.9137 110.742C46.4273 110.189 45.7751 109.913 44.9572 109.913C44.4929 109.913 44.1282 110.034 43.8629 110.278C43.5976 110.543 43.465 110.841 43.465 111.173C43.465 111.482 43.5644 111.748 43.7634 111.969C43.9845 112.19 44.294 112.311 44.6919 112.334C44.6698 112.599 44.504 112.875 44.1945 113.163C43.885 113.45 43.476 113.594 42.9675 113.594C42.1275 113.594 41.4864 113.339 41.0442 112.831C40.6242 112.345 40.4142 111.792 40.4142 111.173C40.4142 110.421 40.7347 109.769 41.3758 109.216C42.039 108.686 42.9123 108.421 43.9955 108.421C45.4325 108.421 46.56 108.796 47.3779 109.548C48.1959 110.322 48.6049 111.261 48.6049 112.367C48.6049 113.472 48.2069 114.533 47.4111 115.55C46.6152 116.589 45.3772 117.44 43.6971 118.104C42.039 118.789 39.9831 119.132 37.5292 119.132Z" fill="#0B7F7C"/>
</svg>
