<svg width="32" height="32" viewBox="0 0 32 32" fill="none" xmlns="http://www.w3.org/2000/svg">
<path d="M9.66648 29V16.8769C8.58443 16.6427 7.6729 16.0953 6.93188 15.2346C6.19083 14.3739 5.82031 13.347 5.82031 12.1538V3H7.82028V12.1538H9.66648V3H11.6664V12.1538H13.5126V3H15.5126V12.1538C15.5126 13.347 15.1421 14.3739 14.401 15.2346C13.66 16.0953 12.7485 16.6427 11.6664 16.8769V28.9999L9.66648 29ZM22.4869 29V18.3333H18.8459V9.3333C18.8459 7.66837 19.3806 6.22436 20.4498 5.00127C21.519 3.7782 22.8647 3.11966 24.4869 3.02563V29H22.4869Z" fill="#121212"/>
</svg>
