<svg width="161" height="285" viewBox="0 0 161 285" fill="none" xmlns="http://www.w3.org/2000/svg">
<path d="M-59.9723 78.1478C-95.3337 121.308 -89.0118 184.962 -45.852 220.323C-2.6922 255.684 60.9618 249.362 96.3232 206.203C131.685 163.043 125.363 99.3889 82.2029 64.0275C39.0431 28.6661 -24.6109 34.988 -59.9723 78.1478Z" fill="#C5DFDD"/>
<path d="M-56.2173 81.1745C-89.8067 122.172 -83.8016 182.636 -42.8045 216.225C-1.80743 249.815 58.6569 243.81 92.2464 202.813C125.836 161.816 119.831 101.351 78.8336 67.7617C37.8365 34.1723 -22.6278 40.1774 -56.2173 81.1745Z" fill="#E7EEF0"/>
<path d="M-48.0755 82.9054C-80.0438 121.924 -74.3285 179.47 -35.3101 211.438C3.70834 243.406 61.2544 237.691 93.2227 198.673C125.191 159.654 119.476 102.108 80.4573 70.14C41.4389 38.1717 -16.1072 43.8869 -48.0755 82.9054Z" fill="white"/>
<path opacity="0.59" d="M12.1029 156.953C13.1821 157.796 14.0387 158.89 14.598 160.141C15.1572 161.391 15.4021 162.759 15.3113 164.125C15.1595 165.221 14.7828 166.273 14.205 167.216C13.6271 168.159 12.8605 168.972 11.9534 169.605" stroke="white" stroke-width="0.113345" stroke-miterlimit="10"/>
<path d="M46.2993 173.65C45.9401 174.088 46.0043 174.735 46.4427 175.094C46.8811 175.453 47.5276 175.389 47.8868 174.95C48.2459 174.512 48.1817 173.866 47.7434 173.506C47.305 173.147 46.6584 173.211 46.2993 173.65Z" fill="#25262F"/>
<path d="M31.8781 139.072C32.1509 140.185 32.2792 141.329 32.2596 142.474" stroke="#25262F" stroke-width="0.452329" stroke-miterlimit="10"/>
<path d="M35.5895 162.573C34.9725 163.492 34.2162 164.31 33.3479 164.996" stroke="#51A380" stroke-width="0.452329" stroke-miterlimit="10"/>
<path d="M7.13281 127.332L3.93111 131.24" stroke="#51A380" stroke-width="0.452329" stroke-miterlimit="10"/>
<path d="M11.5586 184.336C11.2231 184.588 10.8164 184.728 10.3967 184.735C9.97694 184.742 9.56578 184.616 9.22198 184.375" stroke="#51A380" stroke-width="0.452329" stroke-miterlimit="10"/>
<path d="M31.2162 127.736C29.3553 126.147 27.2829 124.823 25.0582 123.802" stroke="#51A380" stroke-width="0.452329" stroke-miterlimit="10"/>
<path d="M77.1172 117.1L78.8149 118.833" stroke="#51A380" stroke-width="0.452329" stroke-miterlimit="10"/>
<path d="M47.0326 137.881L47.8818 138.576" stroke="#F91841" stroke-width="0.452329" stroke-miterlimit="10"/>
<path d="M23.0996 185.85L22.0697 186.43" stroke="#F91841" stroke-width="0.452329" stroke-miterlimit="10"/>
<path d="M21.6765 137.29C21.4436 136.983 21.149 136.729 20.8116 136.543C20.4742 136.357 20.1016 136.244 19.7178 136.211" stroke="#F91841" stroke-width="0.452329" stroke-miterlimit="10"/>
<path d="M11.0096 162.444C1.60447 173.923 3.28591 190.853 14.7652 200.258C26.2445 209.663 43.1747 207.982 52.5799 196.503C61.985 185.023 60.3036 168.093 48.8243 158.688C37.3449 149.283 20.4148 150.964 11.0096 162.444Z" fill="white"/>
<path opacity="0.49" d="M12.5847 163.734C3.89236 174.344 5.44637 189.991 16.0557 198.683C26.6649 207.375 42.312 205.821 51.0043 195.212C59.6966 184.603 58.1426 168.956 47.5333 160.263C36.9241 151.571 21.277 153.125 12.5847 163.734Z" fill="#88964D"/>
<path d="M14.457 165.268C6.61174 174.844 8.01431 188.966 17.5898 196.811C27.1652 204.656 41.2875 203.254 49.1328 193.678C56.978 184.103 55.5755 169.981 46 162.135C36.4246 154.29 22.3023 155.693 14.457 165.268Z" fill="#547918"/>
<path d="M17.8377 197.014C17.1421 196.449 16.4867 195.836 15.8762 195.181C20.497 198.132 26.0398 199.285 31.4542 198.422C36.8686 197.56 41.7785 194.741 45.2532 190.5C48.728 186.258 50.5262 180.89 50.3071 175.412C50.088 169.933 47.8668 164.726 44.0645 160.776C44.8277 161.245 45.5573 161.767 46.2479 162.338C50.8462 166.106 53.7596 171.545 54.3471 177.461C54.9346 183.376 53.1481 189.283 49.3807 193.881C45.6132 198.48 40.1734 201.393 34.258 201.98C28.3425 202.568 22.4359 200.781 17.8377 197.014Z" fill="#3B5B15"/>
<path d="M-46.3361 150.198C-55.7412 161.677 -54.0598 178.607 -42.5805 188.012C-31.1012 197.418 -14.171 195.736 -4.76584 184.257C4.6393 172.777 2.95785 155.847 -8.52145 146.442C-20.0008 137.037 -36.9309 138.718 -46.3361 150.198Z" fill="white"/>
<path opacity="0.49" d="M-44.763 151.489C-53.4553 162.098 -51.9013 177.745 -41.292 186.438C-30.6827 195.13 -15.0357 193.576 -6.34334 182.967C2.34899 172.357 0.79498 156.71 -9.81431 148.018C-20.4236 139.326 -36.0706 140.88 -44.763 151.489Z" fill="#88964D"/>
<path d="M-42.8906 153.021C-50.7359 162.597 -49.3333 176.719 -39.7579 184.564C-30.1825 192.409 -16.0602 191.007 -8.2149 181.431C-0.369622 171.856 -1.77219 157.734 -11.3476 149.888C-20.9231 142.043 -35.0454 143.446 -42.8906 153.021Z" fill="#C9172D"/>
<path d="M-39.5109 184.769C-40.2065 184.204 -40.8619 183.591 -41.4724 182.935C-36.8516 185.886 -31.3088 187.04 -25.8944 186.177C-20.4799 185.314 -15.5701 182.495 -12.0954 178.254C-8.62061 174.013 -6.82239 168.645 -7.04147 163.166C-7.26056 157.688 -9.48173 152.48 -13.284 148.53C-12.5209 149 -11.7913 149.522 -11.1007 150.093C-6.50237 153.86 -3.58902 159.3 -3.00152 165.216C-2.41402 171.131 -4.2005 177.038 -7.96793 181.636C-11.7354 186.234 -17.1752 189.148 -23.0906 189.735C-29.0061 190.323 -34.9126 188.536 -39.5109 184.769Z" fill="#840B01"/>
<path d="M74.2496 113.077C42.7615 99.36 14.9185 96.5234 -18.2246 89.1203C-18.6456 89.1069 -19.0578 88.9966 -19.4292 88.7979C-19.8006 88.5993 -20.1212 88.3176 -20.3661 87.9749C-20.6109 87.6321 -20.7734 87.2375 -20.8409 86.8218C-20.9084 86.406 -20.8791 85.9803 -20.7552 85.5777C-20.7212 85.2185 -20.6724 84.8329 -20.6209 84.4246C-20.2228 81.7119 -19.489 79.0593 -18.4362 76.5278C-18.1326 75.7518 -17.7545 75.0071 -17.307 74.3041C-16.6465 73.3874 -15.7277 72.9539 -13.8705 73.3618C18.3632 80.5043 46.5074 83.2911 76.7721 96.2659C78.1427 96.8531 79.5201 97.4625 80.9043 98.094C83.7681 99.4035 83.3548 100.792 82.6474 103.242C81.824 105.865 80.6713 108.374 79.2168 110.708C78.8128 111.326 78.4644 111.903 78.0938 112.355C77.2165 113.445 76.2409 113.945 74.2496 113.077Z" fill="#FE9A2C"/>
<path d="M86.2437 105.213C53.1625 95.715 24.8961 96.4456 -9.16722 93.3707C-9.58411 93.4189 -10.0065 93.3681 -10.4 93.2223C-10.7935 93.0765 -11.1471 92.8399 -11.432 92.5317C-11.7168 92.2235 -11.925 91.8525 -12.0394 91.4487C-12.1539 91.045 -12.1714 90.6199 -12.0906 90.2081C-12.0949 89.8514 -12.0872 89.4661 -12.0802 89.0598C-11.9687 86.3354 -11.5152 83.6358 -10.7306 81.0244C-9.96132 78.6846 -9.60242 77.0613 -6.4856 77.3353C28.1427 80.4113 57.7772 79.3732 91.3142 89.6526C94.3302 90.5775 94.0628 91.9951 93.6195 94.4842C93.0693 97.1757 92.1805 99.7868 90.9744 102.255C90.6353 102.912 90.3429 103.515 90.0231 104.016C89.2621 105.199 88.3352 105.813 86.2437 105.213Z" fill="#FAAC3E"/>
<path d="M64.3055 120.114C31.2245 110.618 2.95925 111.347 -31.1054 108.271C-31.5222 108.32 -31.9445 108.269 -32.3379 108.123C-32.7313 107.978 -33.0848 107.741 -33.3696 107.433C-33.6543 107.125 -33.8624 106.754 -33.9767 106.35C-34.091 105.946 -34.1084 105.522 -34.0274 105.11C-34.0331 104.752 -34.0254 104.367 -34.0173 103.959C-33.9059 101.235 -33.4525 98.5351 -32.6677 95.9238C-31.8971 93.5851 -31.5393 91.9631 -28.4225 92.2371C6.20451 95.312 35.8403 94.2749 69.376 104.553C72.3931 105.477 72.1257 106.894 71.6812 109.385C71.133 112.077 70.2441 114.688 69.0362 117.156C68.697 117.813 68.4061 118.417 68.0849 118.916C67.3228 120.101 66.3972 120.716 64.3055 120.114Z" fill="#FE7812"/>
<g opacity="0.22">
<path opacity="0.22" d="M86.3223 104.65C53.2414 95.1543 24.9761 95.8835 -9.08725 92.8086C-9.50413 92.8568 -9.92646 92.806 -10.32 92.6602C-10.7135 92.5144 -11.0671 92.2778 -11.352 91.9696C-11.6369 91.6615 -11.845 91.2904 -11.9594 90.8867C-12.0739 90.4829 -12.0914 90.0579 -12.0106 89.646C-11.3836 89.4632 -10.7256 89.4127 -10.078 89.4976C24.5525 92.5709 54.1861 91.5366 87.7218 101.815C88.216 101.896 88.686 102.085 89.0978 102.37C89.5096 102.655 89.8529 103.028 90.1028 103.462C89.341 104.638 88.4141 105.253 86.3223 104.65Z" fill="white"/>
</g>
<path d="M71.7327 131.573C38.6518 122.077 10.3864 122.806 -23.6782 119.73C-24.095 119.779 -24.5172 119.728 -24.9107 119.582C-25.3041 119.436 -25.6576 119.2 -25.9424 118.892C-26.2271 118.584 -26.4351 118.213 -26.5494 117.809C-26.6638 117.405 -26.6812 116.98 -26.6003 116.569C-26.6059 116.211 -26.5981 115.826 -26.5912 115.419C-26.4789 112.694 -26.0252 109.994 -25.2405 107.383C-24.471 105.045 -24.112 103.422 -20.9952 103.696C13.6317 106.771 43.2676 105.734 76.8032 116.012C79.8192 116.937 79.553 118.353 79.1085 120.844C78.5598 123.536 77.671 126.147 76.4634 128.615C76.1242 129.272 75.8333 129.875 75.5121 130.375C74.75 131.56 73.8245 132.175 71.7327 131.573Z" fill="#FE9A2C"/>
<path d="M68.056 158.238C56.4828 135.95 41.9679 121.516 26.5497 102.058C25.3975 100.605 25.8312 99.81 26.7416 98.8785C26.9256 98.6897 27.1325 98.4925 27.3483 98.2844C28.8231 96.9284 30.4605 95.7606 32.2228 94.8077C32.7526 94.5071 33.3099 94.258 33.8872 94.0638C34.6845 93.8478 35.4064 94.0249 36.2722 95.1123C51.2962 114.009 66.002 128.548 77.2221 149.85C77.7296 150.816 78.2309 151.797 78.7262 152.791C79.7523 154.854 78.8773 155.453 77.3481 156.518C75.6722 157.63 73.862 158.524 71.9609 159.181C71.4473 159.346 70.9834 159.512 70.5642 159.601C69.5725 159.814 68.786 159.649 68.056 158.238Z" fill="#FE9A2C"/>
<path d="M78.49 159.291C64.0683 138.667 47.6741 126.07 29.7424 108.641C28.4035 107.338 28.7383 106.513 29.5372 105.499C29.7037 105.296 29.8812 105.079 30.0699 104.849C31.3869 103.351 32.8874 102.026 34.5359 100.904C36.0493 99.9295 37.0006 99.1718 38.6443 100.763C56.9018 118.452 74.2148 131.505 88.5358 152.782C89.8235 154.697 89.0189 155.378 87.6149 156.589C86.0653 157.865 84.3592 158.938 82.538 159.782C82.0431 159.999 81.5998 160.209 81.1877 160.344C80.6893 160.553 80.1291 160.56 79.6257 160.364C79.1222 160.167 78.715 159.782 78.49 159.291Z" fill="#FAAC3E"/>
<path d="M59.1667 157.659C44.7451 137.034 28.3509 124.438 10.4202 107.008C9.08024 105.706 9.41619 104.879 10.2151 103.865C10.3805 103.663 10.5592 103.445 10.7478 103.215C12.0646 101.718 13.5647 100.393 15.2127 99.2713C16.7261 98.2972 17.6773 97.5395 19.3211 99.1307C37.5785 116.819 54.8916 129.872 69.2126 151.15C70.5003 153.065 69.6957 153.746 68.2917 154.957C66.7411 156.234 65.0339 157.309 63.2114 158.154C62.7166 158.371 62.2732 158.581 61.8612 158.716C61.3626 158.924 60.8028 158.929 60.3001 158.732C59.7974 158.535 59.391 158.15 59.1667 157.659Z" fill="#FE7812"/>
<g opacity="0.22">
<path opacity="0.22" d="M78.7916 159.009C64.3699 138.385 47.9768 125.787 30.045 108.358C28.705 107.057 29.041 106.23 29.8399 105.216C30.2796 105.401 30.6766 105.674 31.006 106.019C49.2646 123.707 66.5752 136.76 80.8962 158.037C81.489 158.919 81.6401 159.539 81.4928 160.072C80.9926 160.281 80.431 160.286 79.9268 160.088C79.4226 159.889 79.0155 159.503 78.7916 159.009Z" fill="white"/>
</g>
<path d="M58.1095 167.588C43.6878 146.964 27.2947 134.366 9.36159 116.936C8.02408 115.634 8.35888 114.808 9.15782 113.794C9.32318 113.593 9.50185 113.374 9.69051 113.144C11.0076 111.647 12.5081 110.322 14.1565 109.199C15.6699 108.225 16.6201 107.469 18.2649 109.059C36.521 126.746 53.8354 139.8 68.1553 161.079C69.4428 162.992 68.6395 163.674 67.2355 164.885C65.6841 166.161 63.9771 167.235 62.1552 168.082C61.6604 168.299 61.2171 168.509 60.8039 168.645C60.3052 168.852 59.7458 168.857 59.2433 168.66C58.7408 168.463 58.3344 168.079 58.1095 167.588Z" fill="#FE9A2C"/>
<path d="M32.2017 143.926C11.0948 123.656 -10.3259 113.158 -34.6148 97.4455C-36.4297 96.2732 -36.248 95.2336 -35.5926 93.8644C-35.4597 93.5862 -35.3059 93.2934 -35.1452 92.9813C-34.0244 90.9319 -32.6534 89.0294 -31.064 87.3176C-30.5931 86.7878 -30.0718 86.3051 -29.5074 85.8764C-28.7083 85.3404 -27.8448 85.2646 -26.4813 86.1395C-2.83443 101.375 18.8323 111.922 39.1824 131.237C40.1065 132.113 41.0269 133.007 41.9438 133.92C43.8465 135.814 43.1059 136.801 41.8162 138.549C40.3824 140.403 38.7193 142.067 36.8667 143.502C36.3627 143.876 35.9134 144.226 35.4826 144.486C34.4633 145.098 33.5317 145.215 32.2017 143.926Z" fill="#FE9A2C"/>
<path d="M44.1111 141.186C20.4815 123.819 -2.32197 116.047 -28.6292 103.516C-30.597 102.583 -30.5324 101.543 -30.0312 100.124C-29.9277 99.8378 -29.8088 99.5323 -29.6828 99.21C-28.788 97.0655 -27.6275 95.0418 -26.2283 93.1866C-24.9196 91.5423 -24.1564 90.3566 -21.7451 91.4946C5.01636 104.189 29.0066 112.12 52.7676 130.248C54.9043 131.879 54.2723 132.932 53.1768 134.794C51.9421 136.782 50.4599 138.606 48.766 140.221C48.3005 140.646 47.8895 141.043 47.4855 141.348C46.5267 142.068 45.6052 142.286 44.1111 141.186Z" fill="#FAAC3E"/>
<path d="M22.175 146.61C-1.45355 129.241 -24.2581 121.47 -50.5667 108.939C-52.5332 108.007 -52.4699 106.965 -51.9674 105.548C-51.8653 105.26 -51.7449 104.956 -51.6178 104.632C-50.7236 102.488 -49.5634 100.465 -48.1644 98.6101C-46.8557 96.9658 -46.0939 95.779 -43.6826 96.9169C-16.9198 109.612 7.06909 117.543 30.8301 135.67C32.9681 137.302 32.3361 138.355 31.2393 140.216C30.0046 142.205 28.5224 144.028 26.8285 145.644C26.3643 146.069 25.952 146.465 25.548 146.77C24.5906 147.491 23.6677 147.709 22.175 146.61Z" fill="#FE7812"/>
<g opacity="0.22">
<path opacity="0.22" d="M44.3396 140.762C20.7111 123.392 -2.09353 115.622 -28.4007 103.091C-30.3686 102.158 -30.3039 101.118 -29.8014 99.7005C-29.2472 99.7382 -28.707 99.8909 -28.2152 100.149C-1.44765 112.841 22.5377 120.773 46.2987 138.901C46.67 139.112 46.9897 139.402 47.2345 139.752C47.4793 140.102 47.6431 140.502 47.714 140.923C46.7563 141.641 45.8348 141.86 44.3396 140.762Z" fill="white"/>
</g>
<path d="M24.7204 157.96C1.0908 140.592 -21.7127 132.82 -48.0212 120.289C-49.9877 119.357 -49.9244 118.315 -49.4219 116.898C-49.3209 116.612 -49.1995 116.306 -49.0735 115.984C-48.179 113.839 -47.0184 111.815 -45.619 109.96C-44.3103 108.316 -43.5484 107.129 -41.1383 108.269C-14.3743 120.963 9.61455 128.893 33.3756 147.021C35.5136 148.652 34.8816 149.705 33.7848 151.566C32.5484 153.558 31.064 155.385 29.3673 157.002C28.9031 157.428 28.4919 157.822 28.0879 158.127C27.1387 158.844 26.2159 159.061 24.7204 157.96Z" fill="#FE9A2C"/>
<path d="M68.0542 184.138L68.0157 184.064C66.4111 181.024 66.0772 177.471 67.0871 174.185C68.0971 170.9 70.3686 168.148 73.4037 166.534C76.4389 164.92 79.9901 164.575 83.2791 165.575C86.5681 166.575 89.3266 168.838 90.9501 171.868L90.9897 171.941L68.0542 184.138Z" fill="#F7D316"/>
<path d="M69.0378 183.518C67.5642 180.747 67.2517 177.504 68.1692 174.502C69.0866 171.501 71.1588 168.987 73.9299 167.513C76.7009 166.04 79.944 165.727 82.9454 166.645C85.9469 167.562 88.461 169.634 89.9347 172.405C89.9491 172.429 89.9612 172.454 89.9707 172.48L69.081 183.59C69.0643 183.567 69.0498 183.543 69.0378 183.518Z" fill="#F5F164"/>
<path d="M78.4078 176.096C78.5678 176.037 78.7043 175.927 78.7966 175.783C78.889 175.64 78.9322 175.47 78.9198 175.3L76.747 168.281C76.702 168.18 76.6234 168.098 76.5246 168.048C76.4257 167.999 76.3127 167.985 76.2048 168.009C75.6236 168.06 75.0572 168.22 74.5358 168.482C73.9163 168.784 73.3696 169.217 72.9334 169.75C72.757 169.965 72.7304 170.199 72.8553 170.354L77.4544 176.069C77.629 176.273 78.0434 176.286 78.4078 176.096Z" fill="#F7D316"/>
<path d="M80.5363 176.255C80.8714 176.509 81.2738 176.565 81.4726 176.386L86.9357 171.481C87.0832 171.351 87.0922 171.116 86.9564 170.876C86.6666 170.369 86.2841 169.922 85.8289 169.558C85.2954 169.121 84.6735 168.805 84.0061 168.633C83.7356 168.565 83.5124 168.636 83.4256 168.814L80.1589 175.387C80.034 175.633 80.1968 176.007 80.5363 176.255Z" fill="#F7D316"/>
<path d="M77.38 177.624C77.3848 177.795 77.3342 177.962 77.2357 178.102C77.1372 178.242 76.9961 178.346 76.8336 178.399L69.525 179.03C69.4144 179.027 69.3083 178.985 69.2251 178.912C69.142 178.839 69.087 178.739 69.0697 178.63C68.8986 178.072 68.8347 177.488 68.8812 176.906C68.9272 176.218 69.1222 175.549 69.4527 174.943C69.4925 174.84 69.5673 174.753 69.664 174.699C69.7608 174.644 69.8736 174.625 69.9829 174.644L77.0053 176.758C77.2629 176.833 77.4232 177.206 77.38 177.624Z" fill="#F7D316"/>
</svg>
