<svg width="131" height="227" viewBox="0 0 131 227" fill="none" xmlns="http://www.w3.org/2000/svg">
<path d="M25.2606 87.9442C11.3096 136.514 39.3741 187.198 87.9442 201.149C136.514 215.1 187.198 187.035 201.149 138.465C215.1 89.8949 187.035 39.2115 138.465 25.2606C89.8949 11.3096 39.2116 39.374 25.2606 87.9442Z" fill="#C5DFDD"/>
<path d="M29.4689 89.1146C16.217 135.251 42.8752 183.395 89.0115 196.647C135.148 209.898 183.292 183.24 196.543 137.104C209.795 90.9676 183.137 42.8239 137.001 29.572C90.8645 16.3201 42.7208 42.9783 29.4689 89.1146Z" fill="#E7EEF0"/>
<path d="M36.8615 87.6375C24.2492 131.547 49.6207 177.367 93.5304 189.979C137.44 202.592 183.26 177.22 195.872 133.311C208.485 89.401 183.113 43.5809 139.204 30.9686C95.2939 18.3563 49.4738 43.7278 36.8615 87.6375Z" fill="white"/>
<path d="M55.5286 96.6061C46.5362 127.913 64.6258 160.582 95.9328 169.575C127.24 178.567 159.909 160.478 168.901 129.171C177.894 97.8635 159.804 65.1943 128.497 56.2019C97.1902 47.2095 64.521 65.2991 55.5286 96.6061Z" fill="#FE7D1D"/>
<path d="M51.779 95.338C42.2671 128.453 61.4016 163.01 94.5169 172.521C127.632 182.033 162.188 162.899 171.7 129.783C181.212 96.668 162.078 62.1119 128.962 52.6001C95.8469 43.0883 61.2908 62.2227 51.779 95.338Z" stroke="#FF8001" stroke-width="0.502821" stroke-miterlimit="10"/>
<path d="M140.284 81.0111C143.386 81.955 146.018 84.034 147.654 86.8332C149.29 89.6324 149.809 92.9457 149.11 96.1114C148.335 99.0885 146.448 102.099 147.445 105.009C148.342 107.631 151.197 108.932 153.285 110.759C155.694 113.055 157.103 116.209 157.205 119.536C157.307 122.863 156.094 126.097 153.83 128.537C152.631 129.505 151.541 130.602 150.58 131.808C148.304 135.343 150.49 139.999 150.116 144.189C149.423 151.968 139.478 156.126 132.082 153.617C129.547 152.758 126.899 151.326 124.349 152.145C122.623 152.919 121.143 154.153 120.073 155.713C117.604 158.905 114.366 161.418 110.662 163.018C108.801 163.787 106.764 164.033 104.773 163.729C102.782 163.425 100.913 162.582 99.3662 161.291C97.2692 159.291 95.9877 156.095 93.1695 155.423C91.5981 155.25 90.0082 155.391 88.4915 155.836C84.7936 156.313 81.0527 155.368 78.0242 153.194C74.9956 151.019 72.905 147.776 72.1746 144.12C71.5351 140.159 72.5941 136.099 72.1912 132.107C71.6197 126.457 68.2157 121.539 66.3382 116.178C64.4607 110.817 64.7114 103.734 69.5674 100.788C72.2453 99.1625 75.8387 99.1469 78.0519 96.928C80.6922 94.2789 80.1236 89.7957 81.9906 86.5533C83.8346 83.3505 87.835 81.9006 91.5286 82.0705C95.2111 82.4661 98.7907 83.5289 102.092 85.2071C102.513 83.232 103.332 81.3635 104.5 79.7161C105.667 78.0687 107.159 76.6771 108.884 75.6266C110.608 74.5762 112.529 73.8889 114.529 73.607C116.528 73.3251 118.565 73.4545 120.512 73.9872C122.958 74.7854 125.23 76.2549 127.797 76.431C130.426 76.612 132.943 75.4043 135.556 75.069C138.168 74.7337 141.428 75.8219 141.853 78.4207" stroke="#E7EFB2" stroke-width="0.475256" stroke-miterlimit="10"/>
<path opacity="0.51" d="M90.9011 63.2974C94.032 59.6013 99.8865 60.1641 104.449 61.8013C109.011 63.4385 113.71 65.8606 118.434 64.8135C120.374 64.3805 122.129 63.3996 124.015 62.7862C129.652 60.9699 135.958 62.7516 140.858 66.0863C145.758 69.421 149.524 74.1231 153.212 78.7597C155.94 82.1833 158.731 85.7423 159.895 89.9625C160.577 92.9773 160.831 96.0733 160.649 99.1589L160.251 131.203C160.201 135.327 160.104 139.634 158.155 143.269C156.93 145.345 155.39 147.219 153.59 148.823C145.241 156.88 135.426 163.806 124.201 166.745C104.153 171.998 80.186 161.393 73.5172 141.772C72.3647 138.634 71.8961 135.287 72.1428 131.953C72.4826 128.576 73.822 125.24 73.3128 121.882C72.6621 117.593 69.1509 114.278 67.8825 110.129C66.7765 106.511 67.4691 102.606 68.1723 98.8823L72.4972 75.9723C72.6447 74.584 73.1398 73.2552 73.9369 72.1089C75.1918 70.9202 76.7512 70.102 78.4425 69.7448C84.2091 67.8111 89.4001 64.4651 93.5427 60.0119" stroke="#E7EFB2" stroke-width="0.475256" stroke-miterlimit="10"/>
<path d="M80.6946 75.4322L106.027 68.3709C110.443 67.1395 115.361 65.9498 119.442 68.0394C126.718 71.7646 126.428 83.0374 132.943 87.9762C136.308 90.5252 140.846 90.8633 144.592 92.807C150.417 95.8202 153.665 102.469 154.241 109.002C154.817 115.535 153.124 122.047 151.248 128.326C149.891 132.867 148.146 137.755 144.111 140.241C137.773 144.148 128.256 140.574 122.875 145.72C121.069 147.447 120.076 149.917 118.161 151.522C115.198 154.001 110.796 153.783 107.124 152.606C97.9328 149.661 90.5188 140.51 91.4292 130.901C92.206 122.698 98.5239 115.042 96.5568 107.04C95.7667 104.662 94.8076 102.343 93.6869 100.102C91.7667 95.3492 91.522 90.0944 90.0747 85.1773C88.6275 80.2601 85.4012 75.2809 80.3905 74.2046" stroke="#E7EFB2" stroke-width="0.475256" stroke-miterlimit="10"/>
<path d="M105.629 91.3134C111.174 92.0215 116.613 93.3991 121.826 95.4162C128.285 97.9168 134.905 102.051 136.809 108.709C137.389 111.021 137.574 113.413 137.353 115.786C136.595 127.414 131.647 138.372 123.428 146.631C121.845 148.436 119.787 149.76 117.488 150.451C115.105 150.78 112.677 150.521 110.417 149.697C105.861 148.441 100.932 146.93 98.2341 143.048C94.8086 138.119 95.8991 130.559 91.2922 126.71C87.525 123.562 81.6749 124.489 77.5243 121.866C73.5336 119.347 72.0844 113.942 73.1108 109.335C74.4048 104.764 76.9881 100.662 80.5519 97.5206C86.0813 92.1092 93.0306 87.7574 100.726 86.9498C108.421 86.1421 116.84 89.514 120.49 96.3378" stroke="#E7EFB2" stroke-width="0.475256" stroke-miterlimit="10"/>
<path d="M80.3803 106.147C86.3461 103.316 92.5725 101.071 98.9721 99.4421C102.223 98.3994 105.675 98.1466 109.043 98.7046C115.062 100.103 119.186 106.227 119.669 112.386C120.088 117.767 118.245 123.381 120.033 128.474C120.674 130.308 121.79 132.123 121.454 134.032C120.883 137.3 116.601 138.37 113.348 137.725C111.074 137.259 108.92 136.329 107.021 134.994C105.122 133.659 103.518 131.947 102.31 129.965C101.696 128.518 100.677 127.279 99.3739 126.399C98.5578 126.102 97.6751 126.037 96.8246 126.213C95.974 126.389 95.1893 126.799 94.5583 127.396C93.3163 128.604 92.1994 129.934 91.2246 131.367C89.1589 134.152 86.0958 136.031 82.6763 136.609C80.9738 136.853 79.2374 136.562 77.707 135.778C76.1765 134.993 74.9273 133.752 74.1317 132.227C73.3188 129.841 73.2372 127.267 73.8975 124.834C75.6033 115.596 78.7914 106.695 83.3383 98.4744" fill="#FE2111"/>
<path opacity="0.73" d="M87.8305 84.3754C98.4708 79.3275 109.575 75.3226 120.988 72.417C126.863 70.9215 133.048 69.7211 138.953 71.0955C149.685 73.5941 157.046 84.5098 157.9 95.494C158.651 105.09 155.362 115.102 158.552 124.185C159.698 127.446 161.682 130.694 161.087 134.097C160.073 139.926 152.43 141.833 146.629 140.681C142.573 139.852 138.731 138.195 135.345 135.814C131.958 133.433 129.098 130.379 126.945 126.843C125.51 124.451 124.235 121.69 121.719 120.489C118.932 119.159 115.506 120.289 113.124 122.263C110.909 124.417 108.917 126.79 107.179 129.345C103.358 134.119 98.0044 137.958 91.934 138.693C85.8635 139.428 79.1758 136.469 76.6973 130.88C74.8851 126.797 75.4706 122.087 76.2801 117.694C79.3203 101.219 85.0052 85.3443 93.1145 70.6844" fill="#FE2111"/>
<path d="M74.2864 82.4062C91.3553 83.2402 108.208 86.59 124.298 92.3473C129.236 94.1138 134.271 96.2316 137.751 100.149C144.294 107.516 143.404 118.75 141.177 128.349C139.505 135.547 137.218 142.79 132.729 148.659C128.24 154.528 121.174 158.851 113.796 158.402C108.908 158.1 104.396 155.799 100.082 153.482C89.7886 147.955 79.4215 141.847 72.2481 132.617C65.0747 123.387 61.7379 110.318 66.8547 99.8118C70.2227 92.8886 76.6458 88.0424 82.8374 83.468C87.1371 80.2924 91.7257 77.0017 97.0508 76.4951C107.435 75.4995 115.462 85.0324 124.952 89.3637C134.442 93.695 147.257 93.8581 152.189 103.043C157.456 112.856 149.113 124.55 149.564 135.679C149.681 138.564 150.402 141.46 149.919 144.307C148.221 154.322 134.45 156.329 127.794 164.001C126.231 165.803 125.016 167.989 123.013 169.279C120.48 170.917 117.222 170.798 114.23 170.417C97.6298 168.3 82.5029 159.813 72.0451 146.749C66.9324 140.222 63.2206 132.71 61.1417 124.684C59.0627 116.657 58.6612 108.288 59.9623 100.099C60.8759 93.249 63.7646 86.813 68.2756 81.5774C72.638 76.9083 78.5575 74.0626 84.3312 71.3219C89.6266 68.5911 95.1782 66.3886 100.906 64.7465C114.423 61.3472 128.964 64.4134 141.42 70.6809C146.975 73.2854 151.969 76.9499 156.119 81.4687C163.999 90.5716 166.268 103.487 164.874 115.445C163.48 127.404 158.831 138.708 154.226 149.832C153.635 151.695 152.57 153.373 151.138 154.702C149.746 155.623 148.165 156.219 146.512 156.446C134.279 159.041 121.92 161.006 109.486 162.333C105.026 162.809 100.26 163.148 96.3083 161.023C93.0972 159.306 90.8917 156.207 88.8728 153.177C85.1424 147.574 81.5819 141.702 79.987 135.161C78.3922 128.621 79.0134 121.242 83.0692 115.871C89.9499 106.761 103.408 106.532 114.723 107.982C120.736 108.751 127.507 110.267 130.533 115.518C133.709 121.033 130.946 128.498 125.9 132.373C120.853 136.248 114.204 137.29 107.848 137.583C102.957 137.812 97.4274 137.405 94.216 133.712C90.5273 129.47 92.0429 122.137 96.718 119.016C101.393 115.895 108.079 116.834 112.361 120.475C114.92 122.654 116.746 126.52 114.883 129.324C114.152 130.184 113.247 130.879 112.228 131.364C111.209 131.849 110.098 132.112 108.97 132.137C105.965 132.51 102.655 132.374 100.288 130.486C97.9208 128.599 97.2754 124.452 99.7048 122.646L97.9915 127.858" stroke="#E7EFB2" stroke-width="0.475256" stroke-miterlimit="10"/>
<path opacity="0.38" d="M71.5547 86.5491C88.6236 87.3831 105.476 90.7329 121.566 96.4902C126.504 98.2582 131.539 100.374 135.019 104.293C141.563 111.659 140.672 122.894 138.445 132.492C136.774 139.69 134.487 146.933 129.998 152.802C125.508 158.671 118.441 162.995 111.065 162.544C106.177 162.241 101.665 159.94 97.3524 157.616C87.0591 152.09 76.6924 145.981 69.5168 136.758C62.3412 127.536 59.0015 114.455 64.1108 103.951C67.4789 97.0279 73.903 92.1837 80.0945 87.6094C84.3947 84.4322 88.9833 81.1415 94.308 80.6364C104.692 79.6408 112.719 89.1738 122.209 93.505C131.699 97.8363 144.514 98.0009 149.447 107.185C154.713 116.999 146.37 128.691 146.821 139.822C146.938 142.705 147.659 145.603 147.176 148.448C145.478 158.463 131.707 160.471 125.05 168.144C123.488 169.946 122.271 172.131 120.27 173.421C117.737 175.058 114.479 174.94 111.486 174.559C94.8868 172.442 79.7602 163.955 69.3018 150.892C64.1885 144.364 60.4767 136.851 58.3983 128.824C56.3198 120.796 55.9195 112.426 57.2223 104.237C58.1357 97.3862 61.0244 90.9501 65.5356 85.7145C69.8985 81.0439 75.8179 78.1982 81.5917 75.4575C86.8873 72.7273 92.4389 70.5249 98.166 68.8822C111.683 65.4829 126.224 68.549 138.68 74.8166C144.236 77.4209 149.229 81.0861 153.379 85.6058C161.259 94.7072 163.527 107.622 162.134 119.581C160.742 131.54 156.089 142.843 151.486 153.969C150.894 155.832 149.83 157.51 148.398 158.839C147.005 159.759 145.425 160.355 143.772 160.583C131.542 163.181 119.187 165.15 106.756 166.481C102.296 166.958 97.5304 167.297 93.5783 165.172C90.3672 163.454 88.1617 160.355 86.1428 157.325C82.4124 151.722 78.8519 145.85 77.257 139.31C75.6622 132.769 76.2834 125.391 80.3392 120.02C87.2199 110.909 100.678 110.681 111.993 112.131C118.004 112.9 124.777 114.415 127.803 119.667C130.979 125.181 128.216 132.646 123.169 136.523C118.122 140.4 111.473 141.44 105.117 141.733C100.227 141.962 94.6974 141.554 91.4845 137.86C87.7954 133.619 89.3114 126.285 93.988 123.164C98.6645 120.044 105.349 120.982 109.631 124.623C112.188 126.801 114.016 130.668 112.153 133.472C111.423 134.335 110.518 135.034 109.498 135.521C108.477 136.008 107.366 136.274 106.235 136.301C103.23 136.675 99.9197 136.539 97.5528 134.651C95.186 132.764 94.5391 128.616 96.9689 126.809L95.2567 132.023" stroke="#E7EFB2" stroke-width="0.475256" stroke-miterlimit="10"/>
<path d="M104.26 130.697C101.612 129.076 99.5658 126.634 98.4327 123.743C98.4327 123.743 103.685 121.382 107.645 123.371C111.605 125.36 112.771 130.949 112.771 130.949C110.003 131.933 106.966 131.844 104.26 130.697Z" fill="#6C9218"/>
<path d="M110.836 129.537C110.836 129.537 110.646 129.423 110.337 129.207C110.181 129.094 109.991 128.97 109.771 128.834C109.551 128.699 109.317 128.539 109.039 128.383C108.76 128.227 108.47 128.065 108.15 127.876C107.83 127.686 107.505 127.491 107.149 127.306C106.785 127.106 106.407 126.936 106.016 126.797C105.61 126.658 105.197 126.539 104.778 126.442C104.359 126.344 103.937 126.238 103.532 126.123C103.126 126.008 102.718 125.889 102.331 125.759C101.957 125.643 101.589 125.507 101.228 125.353C100.877 125.219 100.564 125.05 100.269 124.912C99.7958 124.681 99.3399 124.415 98.9049 124.118C98.5924 123.908 98.4176 123.775 98.4176 123.775L98.4444 123.733C98.4444 123.733 98.6533 123.793 99.0027 123.938C99.1802 124.004 99.3851 124.101 99.6357 124.187C99.8863 124.274 100.152 124.394 100.454 124.498C100.755 124.603 101.079 124.729 101.427 124.855C101.775 124.982 102.133 125.121 102.507 125.26C102.882 125.399 103.276 125.548 103.672 125.697C104.069 125.845 104.471 126.007 104.867 126.18C105.262 126.353 105.665 126.518 106.068 126.657C106.47 126.796 106.866 126.936 107.256 127.059C107.633 127.178 108.002 127.32 108.362 127.483C108.68 127.641 108.986 127.823 109.278 128.026C109.529 128.191 109.767 128.374 109.99 128.576C110.167 128.72 110.332 128.877 110.483 129.047C110.732 129.33 110.873 129.499 110.873 129.499L110.836 129.537Z" fill="#3E5011"/>
<path d="M105.828 126.741C105.828 126.741 105.882 126.756 105.983 126.775C106.114 126.806 106.238 126.861 106.348 126.94C106.511 127.041 106.663 127.159 106.801 127.292C106.954 127.438 107.097 127.593 107.228 127.758C107.474 128.068 107.669 128.415 107.806 128.786C107.853 128.912 107.882 129.045 107.891 129.18C107.893 129.228 107.893 129.277 107.89 129.326L107.792 129.207C107.744 129.138 107.64 129.047 107.542 128.929C107.331 128.704 107.061 128.392 106.812 128.069C106.692 127.913 106.567 127.738 106.455 127.589C106.343 127.44 106.244 127.283 106.162 127.175C106.119 127.116 106.081 127.054 106.046 127.001C106.012 126.949 105.964 126.908 105.932 126.87C105.86 126.788 105.828 126.741 105.828 126.741Z" fill="#3E5011"/>
<path d="M102.499 125.81C102.499 125.81 102.554 125.826 102.655 125.842C102.786 125.875 102.91 125.932 103.02 126.011C103.184 126.111 103.335 126.229 103.472 126.362C103.626 126.507 103.77 126.662 103.903 126.826C104.146 127.138 104.339 127.484 104.478 127.854C104.526 127.98 104.555 128.112 104.564 128.247C104.565 128.348 104.561 128.396 104.561 128.396L104.464 128.274C104.419 128.207 104.312 128.115 104.213 127.999C104.004 127.774 103.733 127.46 103.483 127.139C103.364 126.981 103.24 126.809 103.126 126.661C103.012 126.512 102.913 126.35 102.829 126.245C102.787 126.187 102.751 126.126 102.715 126.069C102.678 126.012 102.63 125.975 102.602 125.938L102.499 125.81Z" fill="#3E5011"/>
<path d="M106.144 126.589L106.29 126.536C106.334 126.518 106.395 126.504 106.453 126.478C106.512 126.452 106.575 126.415 106.644 126.387C106.772 126.333 106.935 126.248 107.113 126.176C107.29 126.103 107.475 126.019 107.664 125.945C108.038 125.791 108.431 125.67 108.728 125.573C108.871 125.524 109.012 125.49 109.09 125.461L109.233 125.41C109.211 125.455 109.186 125.498 109.159 125.539C109.085 125.651 108.994 125.751 108.889 125.834C108.581 126.082 108.238 126.282 107.87 126.428C107.673 126.501 107.471 126.561 107.266 126.607C107.079 126.652 106.889 126.677 106.697 126.681C106.562 126.693 106.427 126.679 106.298 126.639C106.199 126.611 106.144 126.589 106.144 126.589Z" fill="#3E5011"/>
<path d="M102.815 125.705C102.815 125.705 102.869 125.681 102.961 125.65C103.006 125.63 103.064 125.618 103.125 125.594C103.186 125.571 103.246 125.53 103.317 125.501C103.443 125.447 103.606 125.361 103.781 125.288C103.956 125.214 104.144 125.131 104.334 125.057C104.708 124.905 105.104 124.783 105.4 124.689C105.545 124.638 105.682 124.604 105.762 124.576C105.843 124.548 105.906 124.524 105.906 124.524C105.885 124.568 105.861 124.612 105.834 124.653C105.757 124.764 105.663 124.863 105.556 124.946C105.253 125.199 104.911 125.399 104.543 125.54C104.346 125.614 104.144 125.675 103.938 125.722C103.751 125.767 103.56 125.792 103.368 125.795C103.234 125.807 103.099 125.793 102.971 125.753C102.863 125.722 102.815 125.705 102.815 125.705Z" fill="#3E5011"/>
<path d="M95.4375 132.758C95.386 129.652 96.3505 126.615 98.1843 124.108C98.1843 124.108 102.993 127.273 103.435 131.68C103.877 136.088 99.7901 140.072 99.7901 140.072C97.4751 138.264 95.922 135.655 95.4375 132.758Z" fill="#6C9218"/>
<path d="M99.9523 137.681C99.9523 137.681 99.946 137.461 99.9592 137.082C99.9712 136.891 99.9737 136.664 99.9704 136.406C99.967 136.147 99.9772 135.865 99.9572 135.544C99.9605 135.228 99.9196 134.888 99.9087 134.524C99.8979 134.159 99.8871 133.772 99.8518 133.372C99.826 132.958 99.7663 132.548 99.6731 132.144C99.5743 131.726 99.4543 131.313 99.3139 130.907C99.1698 130.501 99.0325 130.089 98.9126 129.685C98.7927 129.281 98.6776 128.872 98.5766 128.476C98.4735 128.098 98.3902 127.715 98.327 127.329C98.2513 126.96 98.2248 126.605 98.1876 126.28C98.1307 125.757 98.11 125.23 98.1257 124.703C98.1369 124.325 98.1549 124.108 98.1549 124.108L98.2046 124.107C98.2046 124.107 98.2591 124.319 98.331 124.69C98.3725 124.867 98.3979 125.1 98.4686 125.36C98.5392 125.619 98.5708 125.905 98.6447 126.217C98.7185 126.529 98.7876 126.869 98.8655 127.229C98.9434 127.59 99.0195 127.968 99.1037 128.359L99.3602 129.574C99.4454 129.99 99.5261 130.415 99.5928 130.844C99.6595 131.272 99.7367 131.699 99.8354 132.113C99.9342 132.528 100.028 132.936 100.134 133.331C100.235 133.713 100.314 134.1 100.37 134.491C100.407 134.844 100.418 135.2 100.403 135.555C100.398 135.855 100.371 136.154 100.321 136.45C100.293 136.678 100.247 136.902 100.184 137.122C100.079 137.487 100.01 137.693 100.01 137.693L99.9523 137.681Z" fill="#3E5011"/>
<path d="M99.6177 131.957C99.6177 131.957 99.6405 132.01 99.6704 132.101C99.7129 132.228 99.7305 132.361 99.7222 132.495C99.7248 132.687 99.7068 132.879 99.6684 133.067C99.6276 133.275 99.5727 133.48 99.504 133.68C99.3749 134.053 99.1868 134.404 98.9468 134.718C98.8372 134.866 98.6971 134.99 98.5358 135.08L98.5796 134.927C98.612 134.849 98.6333 134.712 98.683 134.568C98.7705 134.263 98.8826 133.873 99.0156 133.49C99.0823 133.298 99.1641 133.105 99.2288 132.926C99.2935 132.746 99.3735 132.583 99.4253 132.454C99.4454 132.384 99.4834 132.321 99.5097 132.264C99.5359 132.207 99.5442 132.144 99.5574 132.098C99.5978 132.009 99.6177 131.957 99.6177 131.957Z" fill="#3E5011"/>
<path d="M98.6177 128.649C98.6177 128.649 98.639 128.702 98.6719 128.794C98.7135 128.922 98.7308 129.057 98.7228 129.191C98.7256 129.382 98.7078 129.573 98.6699 129.76C98.6293 129.968 98.5754 130.173 98.5085 130.374C98.3756 130.745 98.1868 131.094 97.9487 131.409C97.8687 131.518 97.7727 131.614 97.664 131.694C97.5805 131.749 97.5378 131.771 97.5378 131.771C97.5378 131.771 97.5531 131.718 97.5892 131.621C97.6253 131.524 97.6424 131.407 97.6921 131.263C97.7796 130.958 97.8917 130.568 98.0251 130.184C98.0934 129.992 98.1727 129.802 98.2381 129.626C98.3035 129.45 98.3856 129.279 98.4359 129.15C98.4552 129.083 98.4947 129.02 98.5229 128.962C98.5511 128.904 98.5579 128.84 98.5706 128.796L98.6177 128.649Z" fill="#3E5011"/>
<path d="M99.9159 132.143L100.039 132.238C100.078 132.267 100.122 132.31 100.173 132.344C100.225 132.379 100.29 132.414 100.35 132.454C100.464 132.532 100.63 132.626 100.778 132.742C100.926 132.859 101.106 132.963 101.269 133.085C101.6 133.322 101.918 133.583 102.153 133.782C102.271 133.876 102.37 133.98 102.438 134.029L102.56 134.124C102.51 134.129 102.46 134.131 102.409 134.13C102.275 134.128 102.142 134.104 102.015 134.06C101.641 133.934 101.288 133.751 100.97 133.518C100.802 133.392 100.643 133.254 100.494 133.106C100.356 132.974 100.232 132.828 100.124 132.67C100.043 132.562 99.9833 132.44 99.9471 132.31C99.927 132.202 99.9159 132.143 99.9159 132.143Z" fill="#3E5011"/>
<path d="M98.8728 128.852C98.8728 128.852 98.9229 128.885 98.9978 128.946C99.0396 128.972 99.08 129.015 99.1318 129.053C99.1836 129.091 99.2507 129.122 99.312 129.161C99.4252 129.238 99.5928 129.333 99.7404 129.439C99.8879 129.546 100.068 129.661 100.231 129.782C100.562 130.02 100.881 130.282 101.115 130.483C101.235 130.578 101.332 130.677 101.401 130.73C101.47 130.783 101.523 130.823 101.523 130.823C101.473 130.829 101.423 130.832 101.374 130.831C101.239 130.826 101.105 130.8 100.978 130.754C100.603 130.634 100.25 130.453 99.9343 130.218C99.7646 130.092 99.6046 129.954 99.4556 129.805C99.3163 129.674 99.1923 129.527 99.0858 129.369C99.0034 129.263 98.9428 129.142 98.9077 129.012C98.8858 128.91 98.8728 128.852 98.8728 128.852Z" fill="#3E5011"/>
<path d="M106.306 121.744C103.94 123.755 100.981 124.937 97.8809 125.111C97.8809 125.111 97.2731 119.385 100.397 116.242C103.521 113.098 109.203 113.735 109.203 113.735C109.275 116.673 108.242 119.532 106.306 121.744Z" fill="#6C9218"/>
<path d="M107.249 115.131C107.249 115.131 107.081 115.275 106.78 115.502C106.622 115.622 106.448 115.757 106.249 115.924C106.051 116.092 105.823 116.26 105.595 116.48C105.366 116.7 105.111 116.927 104.837 117.165C104.562 117.403 104.268 117.662 103.984 117.941C103.68 118.223 103.401 118.529 103.148 118.856C102.888 119.198 102.645 119.553 102.422 119.92C102.199 120.288 101.966 120.656 101.731 121.005C101.495 121.355 101.251 121.703 101.01 122.033C100.783 122.352 100.539 122.659 100.28 122.953C100.044 123.245 99.7871 123.492 99.5627 123.727C99.1939 124.103 98.7999 124.454 98.3835 124.776C98.0845 125.007 97.9046 125.134 97.9046 125.134L97.8724 125.097C97.8724 125.097 98.0005 124.92 98.2412 124.628C98.358 124.48 98.5153 124.318 98.6755 124.104C98.8357 123.891 99.0321 123.679 99.2256 123.424C99.4192 123.17 99.6394 122.903 99.8664 122.618C100.093 122.334 100.339 122.031 100.587 121.718L101.361 120.747C101.629 120.417 101.907 120.079 102.193 119.762C102.479 119.445 102.766 119.101 103.021 118.769C103.277 118.436 103.536 118.092 103.773 117.766C104.004 117.445 104.253 117.138 104.521 116.847C104.771 116.595 105.038 116.361 105.321 116.146C105.556 115.959 105.805 115.79 106.065 115.64C106.259 115.518 106.462 115.41 106.672 115.319C107.021 115.169 107.223 115.091 107.223 115.091L107.249 115.131Z" fill="#3E5011"/>
<path d="M103.036 119.021C103.036 119.021 103.062 118.97 103.113 118.889C103.183 118.775 103.275 118.675 103.383 118.594C103.53 118.471 103.69 118.364 103.859 118.274C104.044 118.174 104.234 118.086 104.43 118.01C104.8 117.873 105.191 117.796 105.586 117.783C105.72 117.776 105.855 117.79 105.985 117.823C106.034 117.834 106.081 117.848 106.128 117.865L105.984 117.92C105.903 117.943 105.783 118.015 105.642 118.071C105.357 118.199 104.981 118.362 104.598 118.498C104.413 118.57 104.206 118.628 104.027 118.69C103.847 118.752 103.667 118.794 103.539 118.838C103.468 118.861 103.397 118.877 103.336 118.894C103.275 118.911 103.223 118.943 103.177 118.961C103.088 119.004 103.036 119.021 103.036 119.021Z" fill="#3E5011"/>
<path d="M101.114 121.894C101.114 121.894 101.141 121.842 101.191 121.761C101.263 121.647 101.357 121.546 101.465 121.465C101.611 121.342 101.77 121.235 101.938 121.146C102.123 121.045 102.314 120.956 102.51 120.879C102.882 120.746 103.271 120.67 103.665 120.654C103.8 120.647 103.936 120.66 104.066 120.694C104.114 120.708 104.16 120.724 104.206 120.743C104.206 120.743 104.155 120.764 104.062 120.797C103.968 120.83 103.869 120.893 103.72 120.951C103.437 121.076 103.058 121.24 102.677 121.378C102.484 121.446 102.287 121.507 102.109 121.568C101.932 121.629 101.749 121.674 101.616 121.717C101.549 121.738 101.478 121.753 101.416 121.768C101.354 121.783 101.299 121.82 101.255 121.836L101.114 121.894Z" fill="#3E5011"/>
<path d="M102.991 118.672L102.986 118.518C102.983 118.469 102.988 118.408 102.979 118.351C102.971 118.294 102.959 118.214 102.953 118.143C102.94 118.006 102.909 117.824 102.897 117.632C102.884 117.441 102.86 117.239 102.849 117.036C102.822 116.631 102.823 116.218 102.827 115.911C102.825 115.758 102.842 115.618 102.831 115.534L102.827 115.381C102.863 115.417 102.896 115.454 102.927 115.494C103.011 115.599 103.077 115.716 103.122 115.842C103.262 116.212 103.345 116.601 103.368 116.996C103.377 117.205 103.372 117.416 103.353 117.625C103.338 117.816 103.303 118.006 103.247 118.19C103.215 118.321 103.159 118.446 103.082 118.557C103.032 118.628 102.991 118.672 102.991 118.672Z" fill="#3E5011"/>
<path d="M101.108 121.568C101.108 121.568 101.103 121.509 101.101 121.413C101.096 121.363 101.102 121.306 101.098 121.247C101.093 121.188 101.074 121.111 101.065 121.039C101.055 120.903 101.024 120.721 101.01 120.529C100.996 120.336 100.973 120.135 100.962 119.931C100.937 119.524 100.937 119.112 100.945 118.804C100.942 118.651 100.957 118.513 100.948 118.428C100.94 118.343 100.941 118.276 100.941 118.276C100.978 118.309 101.012 118.346 101.044 118.385C101.126 118.492 101.19 118.612 101.235 118.74C101.38 119.106 101.464 119.494 101.483 119.887C101.493 120.098 101.487 120.309 101.467 120.519C101.451 120.711 101.415 120.9 101.357 121.084C101.328 121.215 101.273 121.339 101.195 121.448C101.144 121.522 101.108 121.568 101.108 121.568Z" fill="#3E5011"/>
<path d="M123.312 95.1061C121.622 100.991 125.022 107.131 130.907 108.822C136.791 110.512 142.932 107.112 144.622 101.227C146.312 95.3424 142.912 89.2018 137.028 87.5116C131.143 85.8213 125.002 89.2215 123.312 95.1061Z" fill="#DA7D04"/>
<path d="M124.876 103.202C127.656 108.223 133.981 110.04 139.002 107.259C144.024 104.479 145.84 98.1541 143.06 93.1327C140.279 88.1114 133.955 86.2948 128.933 89.0752C123.912 91.8556 122.095 98.1802 124.876 103.202Z" fill="#FFC60B"/>
<path d="M142.391 104.239C140.307 104.931 138.056 104.944 135.964 104.275C133.871 103.607 132.045 102.292 130.747 100.519C129.45 98.7466 128.748 96.6082 128.744 94.4116C128.739 92.215 129.431 90.0735 130.721 88.2954C129.163 88.8069 127.748 89.68 126.592 90.8433C125.436 92.0066 124.571 93.4271 124.07 94.9885C123.568 96.55 123.443 98.208 123.705 99.827C123.967 101.446 124.609 102.98 125.577 104.303C126.546 105.627 127.814 106.702 129.278 107.441C130.742 108.18 132.361 108.563 134.001 108.556C135.641 108.55 137.256 108.156 138.714 107.405C140.173 106.655 141.433 105.57 142.391 104.239Z" fill="#FEAB05"/>
<path d="M130.348 94.6598C130.504 95.4142 131.614 95.238 131.418 94.5084C131.26 93.9087 130.227 94.0575 130.348 94.6598Z" fill="#FAFDC6"/>
<path d="M131 97.9052L131.015 98.0481C131.019 98.1688 131.068 98.2837 131.153 98.3694C131.238 98.4551 131.353 98.5053 131.473 98.5097C131.553 98.5137 131.631 98.4954 131.701 98.457C131.77 98.4186 131.827 98.3616 131.866 98.2924C131.926 98.1877 131.944 98.0641 131.917 97.9465C131.889 97.8289 131.818 97.7262 131.718 97.6591L131.606 97.571C131.546 97.5348 131.478 97.515 131.407 97.5137C131.337 97.5123 131.268 97.5295 131.207 97.5633C131.145 97.5972 131.094 97.6466 131.058 97.7066C131.021 97.7666 131.002 97.8351 131 97.9052Z" fill="#FAFDC6"/>
<path d="M128.738 102.149L128.846 102.193C129.364 102.41 129.64 101.451 129.085 101.359L128.97 101.341C128.863 101.31 128.748 101.323 128.65 101.377C128.553 101.431 128.481 101.522 128.45 101.629C128.419 101.736 128.432 101.851 128.486 101.949C128.54 102.046 128.631 102.118 128.738 102.149Z" fill="#FAFDC6"/>
<path d="M129.942 105.488C130.062 105.52 130.187 105.523 130.308 105.497C130.348 105.486 130.385 105.465 130.416 105.436C130.446 105.406 130.468 105.369 130.479 105.329C130.491 105.288 130.492 105.245 130.482 105.204C130.472 105.163 130.452 105.126 130.423 105.095C130.335 105.008 130.227 104.944 130.109 104.909C129.743 104.781 129.563 105.402 129.942 105.488Z" fill="#FAFDC6"/>
<path d="M128.472 92.6775L128.64 92.8908C128.697 92.9483 128.771 92.9859 128.851 92.9979C128.931 93.0099 129.013 92.9957 129.084 92.9574L129.183 92.9131C129.245 92.8787 129.291 92.821 129.311 92.7526C129.33 92.6843 129.322 92.611 129.287 92.5488L129.227 92.459C129.187 92.389 129.125 92.334 129.05 92.3019C128.976 92.2699 128.894 92.2626 128.815 92.2811L128.562 92.3635C128.529 92.3725 128.5 92.3897 128.476 92.4133C128.452 92.437 128.435 92.4663 128.426 92.4985C128.417 92.5308 128.416 92.5648 128.423 92.5975C128.431 92.6301 128.447 92.6603 128.469 92.6851L128.472 92.6775Z" fill="#FAFDC6"/>
<path d="M127.501 98.5861L127.599 98.6407C128.148 98.9419 128.43 97.9733 127.801 97.938L127.689 97.9322C127.613 97.9332 127.539 97.9587 127.478 98.005C127.417 98.0513 127.373 98.116 127.352 98.1894C127.331 98.2627 127.334 98.341 127.361 98.4124C127.388 98.4839 127.437 98.5448 127.501 98.5861Z" fill="#FAFDC6"/>
<path d="M131.724 99.2827L131.615 99.2431C131.137 99.068 130.898 99.8968 131.396 100.005L131.507 100.037C131.606 100.066 131.712 100.054 131.802 100.004C131.892 99.9542 131.958 99.8708 131.986 99.7722C132.015 99.6735 132.003 99.5677 131.953 99.4779C131.903 99.3881 131.82 99.3217 131.721 99.2934L131.724 99.2827Z" fill="#FAFDC6"/>
<path d="M89.4264 91.9052C87.7362 97.7897 91.1364 103.93 97.021 105.621C102.906 107.311 109.046 103.911 110.736 98.0261C112.427 92.1415 109.026 86.0009 103.142 84.3106C97.2573 82.6204 91.1167 86.0206 89.4264 91.9052Z" fill="#DA7D04"/>
<path d="M90.9901 99.9992C93.7705 105.021 100.095 106.837 105.116 104.057C110.138 101.276 111.954 94.9517 109.174 89.9304C106.394 84.909 100.069 83.0924 95.0477 85.8728C90.0263 88.6532 88.2097 94.9778 90.9901 99.9992Z" fill="#FFC60B"/>
<path d="M108.505 101.038C106.42 101.73 104.169 101.743 102.077 101.074C99.9844 100.406 98.158 99.0907 96.8606 97.3182C95.5632 95.5457 94.8616 93.4072 94.8569 91.2106C94.8521 89.014 95.5444 86.8726 96.8342 85.0945C95.2759 85.6059 93.8609 86.479 92.7049 87.6424C91.5488 88.8057 90.6846 90.2262 90.1829 91.7876C89.6812 93.3491 89.5562 95.0071 89.8183 96.6261C90.0804 98.2451 90.722 99.779 91.6907 101.102C92.6594 102.426 93.9276 103.501 95.3917 104.24C96.8557 104.98 98.4739 105.362 100.114 105.355C101.754 105.349 103.369 104.955 104.828 104.204C106.286 103.454 107.546 102.369 108.505 101.038Z" fill="#FEAB05"/>
<path d="M102.302 88.0031C102.239 88.0662 102.19 88.1423 102.159 88.226C102.138 88.301 102.137 88.3802 102.156 88.4558C102.175 88.5313 102.214 88.6006 102.268 88.6565C102.322 88.7125 102.39 88.7533 102.465 88.7748C102.54 88.7963 102.619 88.7979 102.695 88.7792C102.829 88.744 102.946 88.6598 103.022 88.5431C103.057 88.4833 103.076 88.4154 103.077 88.346C103.078 88.2767 103.061 88.2083 103.027 88.1476C102.994 88.0868 102.945 88.0359 102.886 87.9997C102.827 87.9635 102.759 87.9433 102.69 87.9411L102.815 87.977C102.748 87.9353 102.671 87.9124 102.593 87.9107C102.514 87.9091 102.437 87.9288 102.368 87.9677L102.338 87.9885L102.85 88.3008L102.852 88.255C102.852 88.1912 102.833 88.1288 102.798 88.0755C102.762 88.0221 102.713 87.9802 102.654 87.9546C102.596 87.9291 102.531 87.9211 102.468 87.9316C102.405 87.9421 102.346 87.9706 102.299 88.0138L102.302 88.0031Z" fill="#FAFDC6"/>
<path d="M105.42 90.252C105.403 90.3333 105.417 90.4181 105.459 90.4894C105.502 90.5607 105.57 90.6131 105.65 90.636C105.73 90.6589 105.816 90.6507 105.89 90.613C105.964 90.5753 106.021 90.5109 106.049 90.4328C106.067 90.3515 106.053 90.2666 106.01 90.1954C105.967 90.1241 105.899 90.0717 105.819 90.0487C105.739 90.0258 105.654 90.034 105.579 90.0717C105.505 90.1094 105.448 90.1739 105.42 90.252Z" fill="#FAFDC6"/>
<path d="M101.817 93.1042L101.795 93.0831C101.83 93.1462 101.883 93.1976 101.947 93.2307C102.011 93.2638 102.083 93.2772 102.155 93.2691C102.227 93.261 102.295 93.2318 102.35 93.1852C102.405 93.1386 102.445 93.0767 102.465 93.0073C102.485 92.938 102.484 92.8642 102.462 92.7955C102.44 92.7268 102.398 92.6661 102.341 92.6212C102.285 92.5762 102.216 92.5491 102.144 92.5431C102.072 92.5371 102 92.5527 101.937 92.5877L101.967 92.5814C101.9 92.5675 101.83 92.5795 101.771 92.6151C101.712 92.6507 101.669 92.7071 101.65 92.7732C101.631 92.8393 101.637 92.9101 101.668 92.9715C101.699 93.0328 101.752 93.0803 101.817 93.1042Z" fill="#FAFDC6"/>
<path d="M102.868 90.3669C102.913 90.5293 103.015 90.6703 103.155 90.7645C103.185 90.783 103.22 90.7931 103.255 90.7938C103.291 90.7945 103.326 90.7858 103.357 90.7686C103.388 90.7514 103.414 90.7263 103.432 90.6958C103.45 90.6653 103.46 90.6305 103.461 90.595C103.458 90.4256 103.392 90.2633 103.276 90.1394C103.132 89.9512 102.781 90.1422 102.868 90.3669Z" fill="#FAFDC6"/>
<path d="M108.089 95.104C108.053 95.2229 108.051 95.3494 108.083 95.4693C108.115 95.5893 108.18 95.6979 108.27 95.7831C108.536 96.1168 109.143 95.7795 109.002 95.3793C108.978 95.2572 108.92 95.1443 108.835 95.0532C108.75 94.9621 108.641 94.8964 108.521 94.8635C108.432 94.8383 108.337 94.8494 108.256 94.8945C108.175 94.9396 108.115 95.0149 108.089 95.104Z" fill="#FAFDC6"/>
<path d="M102.345 98.4029L102.291 98.4995C102.256 98.5569 102.237 98.6225 102.236 98.6897C102.234 98.7569 102.251 98.8232 102.284 98.8819L102.329 98.9492C102.368 99.0146 102.43 99.0626 102.504 99.0836C102.577 99.1047 102.655 99.0972 102.723 99.0626L102.799 99.0298C102.857 98.997 102.906 98.9494 102.94 98.8917C102.975 98.8341 102.993 98.7684 102.994 98.7014L102.999 98.5907C102.998 98.5144 102.973 98.4404 102.926 98.3797C102.88 98.319 102.815 98.2748 102.742 98.2537C102.669 98.2327 102.59 98.2358 102.519 98.2627C102.448 98.2895 102.387 98.3387 102.345 98.4029Z" fill="#FAFDC6"/>
<path d="M98.7072 94.6601C98.4251 94.9471 98.6133 95.28 98.9322 95.4162C99.5209 95.6645 99.7057 94.447 98.9454 94.6064L99.0098 94.6117L99.261 94.9496L99.2737 94.9053C99.2726 94.8411 99.2531 94.7784 99.2175 94.725C99.1818 94.6715 99.1315 94.6294 99.0725 94.6038C99.0136 94.5782 98.9485 94.57 98.8851 94.5804C98.8216 94.5908 98.7625 94.6192 98.7148 94.6623L98.7072 94.6601Z" fill="#FAFDC6"/>
<path d="M104.751 93.6869L104.824 93.8334C104.855 93.8893 104.901 93.9361 104.956 93.969C105.011 94.0019 105.074 94.0198 105.138 94.0209L105.218 94.0226C105.258 94.0237 105.297 94.0142 105.331 93.9951C105.366 93.976 105.395 93.948 105.415 93.9139L105.456 93.8434C105.49 93.7885 105.508 93.7258 105.509 93.6616C105.511 93.5973 105.495 93.5339 105.464 93.4777L105.378 93.3392C105.331 93.26 105.254 93.2023 105.165 93.1783C105.076 93.1544 104.981 93.166 104.9 93.2108C104.819 93.2556 104.758 93.33 104.731 93.4184C104.704 93.5068 104.713 93.6023 104.754 93.6847L104.751 93.6869Z" fill="#FAFDC6"/>
<path d="M104.933 96.3598C104.919 96.4252 104.931 96.4932 104.966 96.5502C105 96.6073 105.055 96.6492 105.119 96.6676C105.183 96.686 105.252 96.6796 105.311 96.6496C105.371 96.6195 105.417 96.5681 105.44 96.5056C105.454 96.4403 105.442 96.3723 105.407 96.3152C105.373 96.2582 105.318 96.2163 105.254 96.1979C105.19 96.1794 105.121 96.1859 105.062 96.2159C105.002 96.246 104.956 96.2973 104.933 96.3598Z" fill="#FAFDC6"/>
<path d="M106.766 97.9698L106.671 97.913C106.598 97.8696 106.513 97.851 106.428 97.86C106.344 97.869 106.264 97.9051 106.202 97.9629C106.148 98.0074 106.109 98.067 106.09 98.1339C106.071 98.2007 106.072 98.2718 106.094 98.3379C106.116 98.4202 106.164 98.4931 106.231 98.5457C106.298 98.5983 106.38 98.6277 106.466 98.6295L106.576 98.6314C106.653 98.6299 106.727 98.6039 106.788 98.557C106.849 98.5101 106.894 98.4448 106.915 98.3708C106.936 98.2968 106.933 98.2179 106.906 98.1457C106.879 98.0735 106.83 98.0118 106.766 97.9698Z" fill="#FAFDC6"/>
<path d="M99.9449 97.9495L100.052 97.9951C100.503 98.1855 100.745 97.3461 100.261 97.268L100.146 97.2483C100.053 97.2216 99.9536 97.2329 99.8689 97.2798C99.7843 97.3266 99.7217 97.4052 99.695 97.4982C99.6683 97.5912 99.6797 97.6909 99.7265 97.7756C99.7734 97.8602 99.852 97.9228 99.9449 97.9495Z" fill="#FAFDC6"/>
<path d="M102.499 95.7498C102.621 95.7795 102.748 95.7822 102.872 95.7577C102.915 95.7465 102.954 95.7242 102.986 95.693C103.018 95.6618 103.042 95.6229 103.054 95.5799C103.066 95.537 103.067 95.4916 103.057 95.4482C103.046 95.4048 103.024 95.3649 102.994 95.3324C102.902 95.2469 102.793 95.1818 102.674 95.1416C102.292 95.0005 102.099 95.6677 102.499 95.7513L102.499 95.7498Z" fill="#FAFDC6"/>
<path d="M98.8103 86.7579C98.7419 86.8311 98.6775 86.9079 98.6172 86.9879C98.2069 87.5202 99.4039 87.8739 99.3413 87.1959C99.3329 87.0958 99.3184 86.9964 99.2981 86.898C99.2852 86.8485 99.2596 86.8032 99.2238 86.7665C99.188 86.7299 99.1433 86.7032 99.0941 86.689C99.0449 86.6749 98.9929 86.6738 98.9431 86.6859C98.8933 86.698 98.8476 86.7228 98.8103 86.7579Z" fill="#FAFDC6"/>
<path d="M96.4622 91.4596C96.6184 92.2141 97.7284 92.0378 97.532 91.3082C97.3743 90.7085 96.3415 90.8573 96.4622 91.4596Z" fill="#FAFDC6"/>
<path d="M98.9434 91.9032C98.8962 91.971 98.8643 92.0483 98.8501 92.1297C98.8358 92.2111 98.8395 92.2946 98.8609 92.3745C98.8748 92.4277 98.9023 92.4764 98.9408 92.5158C98.9792 92.5552 99.0273 92.5839 99.0802 92.5991C99.1331 92.6143 99.189 92.6154 99.2425 92.6025C99.296 92.5895 99.3452 92.5628 99.3852 92.5251C99.4454 92.4685 99.4926 92.3995 99.5234 92.3229C99.5542 92.2463 99.568 92.1639 99.5638 92.0814C99.5624 92.0092 99.5379 91.9394 99.4939 91.8822C99.4499 91.825 99.3887 91.7834 99.3193 91.7635C99.25 91.7435 99.1761 91.7464 99.1084 91.7715C99.0408 91.7966 98.983 91.8428 98.9434 91.9032Z" fill="#FAFDC6"/>
<path d="M105.506 99.5766C105.48 99.3151 105.386 99.0867 105.093 99.0438C105.026 99.034 104.958 99.0385 104.893 99.057C104.828 99.0756 104.768 99.1076 104.717 99.1512C104.665 99.1948 104.623 99.2488 104.594 99.3097C104.565 99.3706 104.55 99.437 104.548 99.5045C104.539 100.112 105.56 100.107 105.506 99.5766Z" fill="#FAFDC6"/>
<path d="M108.679 97.366C108.559 97.3232 108.433 97.2956 108.306 97.2838C107.3 97.1334 107.669 98.6368 108.413 98.212C108.555 98.1307 108.682 98.027 108.82 97.9444C108.874 97.9081 108.916 97.8558 108.94 97.7947C108.963 97.7337 108.967 97.6668 108.951 97.6033C108.935 97.5398 108.9 97.4827 108.851 97.44C108.801 97.3973 108.739 97.371 108.674 97.3647L108.679 97.366Z" fill="#FAFDC6"/>
<path d="M103.664 91.8566C103.493 92.0747 103.415 92.097 103.378 92.3983C103.379 92.4683 103.402 92.5363 103.445 92.592C103.487 92.6478 103.546 92.6884 103.614 92.7077C103.681 92.7271 103.753 92.7241 103.818 92.6994C103.884 92.6746 103.94 92.6294 103.977 92.5703C104.103 92.301 104.053 92.2373 104.023 91.9595C104.022 91.9179 104.008 91.8776 103.982 91.8446C103.957 91.8115 103.921 91.7875 103.881 91.776C103.841 91.7645 103.799 91.7661 103.76 91.7806C103.721 91.7952 103.687 91.8218 103.664 91.8566Z" fill="#FAFDC6"/>
<path d="M97.1135 94.7042L97.1285 94.8472C97.1321 94.9679 97.1814 95.0827 97.2664 95.1685C97.3515 95.2542 97.466 95.3043 97.5867 95.3088C97.6659 95.3127 97.7446 95.2945 97.8139 95.2561C97.8833 95.2177 97.9405 95.1607 97.9791 95.0915C98.0394 94.9868 98.0577 94.8632 98.0301 94.7456C98.0026 94.628 97.9315 94.5252 97.831 94.4582L97.7194 94.37C97.6593 94.3338 97.5908 94.3141 97.5207 94.3127C97.4506 94.3114 97.3814 94.3285 97.3201 94.3624C97.2587 94.3963 97.2073 94.4456 97.171 94.5056C97.1348 94.5657 97.1149 94.6341 97.1135 94.7042Z" fill="#FAFDC6"/>
<path d="M101.469 94.0767L101.372 94.2455C101.3 94.3207 101.258 94.4207 101.255 94.5254C101.253 94.6301 101.29 94.732 101.359 94.8107L101.405 94.872C101.438 94.9082 101.481 94.9345 101.528 94.9481C101.575 94.9616 101.625 94.9618 101.672 94.9486L101.746 94.922C101.846 94.8922 101.932 94.8255 101.985 94.7353C102.039 94.6451 102.056 94.538 102.034 94.4355L102.042 94.2414C102.037 94.1764 102.013 94.1144 101.972 94.0637C101.931 94.013 101.876 93.9762 101.813 93.9582C101.75 93.9402 101.684 93.942 101.622 93.9632C101.561 93.9844 101.507 94.024 101.469 94.0767Z" fill="#FAFDC6"/>
<path d="M99.1388 98.6997L99.2387 98.7482C99.3339 98.8042 99.4472 98.8211 99.5546 98.7953C99.662 98.7696 99.7553 98.7031 99.8147 98.61C99.8501 98.5441 99.871 98.4713 99.876 98.3966C99.875 98.2861 99.8313 98.1804 99.7539 98.1015C99.6765 98.0227 99.5716 97.9769 99.4611 97.9738L99.3507 97.9619C99.2647 97.9633 99.1815 97.9923 99.1132 98.0446C99.045 98.0969 98.9953 98.1697 98.9716 98.2523C98.9478 98.335 98.9513 98.4231 98.9814 98.5036C99.0115 98.5841 99.0667 98.6529 99.1388 98.6997Z" fill="#FAFDC6"/>
<path d="M105.035 88.1676L105.146 88.1765C105.234 88.1748 105.318 88.1451 105.388 88.0918C105.457 88.0385 105.507 87.9644 105.532 87.8804C105.556 87.7964 105.552 87.7068 105.522 87.6249C105.491 87.5429 105.435 87.4729 105.362 87.425L105.263 87.3735C105.208 87.343 105.146 87.3254 105.082 87.3221C105.019 87.3187 104.956 87.3297 104.897 87.3541C104.838 87.3785 104.786 87.4159 104.744 87.4633C104.701 87.5107 104.67 87.567 104.653 87.628C104.635 87.6891 104.632 87.7532 104.642 87.8158C104.653 87.8784 104.678 87.9378 104.714 87.9897C104.751 88.0415 104.799 88.0844 104.854 88.1152C104.91 88.146 104.972 88.1639 105.035 88.1676Z" fill="#FAFDC6"/>
<path d="M106.603 92.2735C106.585 92.3369 106.593 92.4051 106.624 92.4628C106.656 92.5206 106.71 92.5633 106.774 92.5815C106.837 92.5998 106.905 92.592 106.963 92.5601C107.021 92.5281 107.063 92.4744 107.082 92.4109C107.1 92.3475 107.092 92.2794 107.06 92.2216C107.028 92.1638 106.975 92.1211 106.911 92.1029C106.848 92.0847 106.779 92.0924 106.722 92.1244C106.664 92.1564 106.621 92.21 106.603 92.2735Z" fill="#FAFDC6"/>
<path d="M103.584 95.9722L103.607 95.9441C103.542 95.9804 103.488 96.0354 103.454 96.102C103.419 96.1686 103.406 96.2439 103.414 96.3184C103.423 96.3929 103.453 96.4633 103.501 96.5205C103.55 96.5777 103.614 96.6193 103.686 96.64C103.758 96.6607 103.835 96.6596 103.906 96.6368C103.978 96.6139 104.041 96.5704 104.087 96.5118C104.134 96.4531 104.162 96.382 104.168 96.3073C104.175 96.2326 104.159 96.1577 104.122 96.0921L104.126 96.1311C104.147 96.0591 104.138 95.9819 104.102 95.9164C104.065 95.8509 104.005 95.8025 103.933 95.7818C103.861 95.7612 103.783 95.7699 103.718 95.8062C103.652 95.8425 103.604 95.9033 103.583 95.9752L103.584 95.9722Z" fill="#FAFDC6"/>
<path d="M98.383 88.1147C98.3917 87.9839 98.3642 87.8532 98.3034 87.7371C98.2624 87.6653 98.195 87.6124 98.1156 87.5896C98.0361 87.5668 97.9509 87.5759 97.8781 87.6149C97.7645 87.6806 97.6717 87.7768 97.6102 87.8927C97.2726 88.4938 98.3535 88.8092 98.383 88.1147Z" fill="#FAFDC6"/>
<path d="M101.349 86.2723C101.335 86.549 101.408 86.6408 101.625 86.8054C101.668 86.8315 101.717 86.8458 101.768 86.8468C101.818 86.8477 101.868 86.8353 101.912 86.8109C101.957 86.7864 101.994 86.7507 102.02 86.7074C102.046 86.6641 102.06 86.6147 102.06 86.5642C102.037 86.2951 102.004 86.1866 101.756 86.0459C101.715 86.0225 101.669 86.01 101.622 86.0096C101.575 86.0093 101.529 86.0211 101.488 86.0439C101.447 86.0667 101.413 86.0997 101.388 86.1398C101.364 86.1798 101.35 86.2255 101.349 86.2723Z" fill="#FAFDC6"/>
<path d="M94.852 98.9487L94.9598 98.9929C95.4784 99.2095 95.7538 98.2507 95.1993 98.1591L95.0841 98.1408C94.9769 98.1101 94.862 98.1231 94.7645 98.1771C94.6669 98.2311 94.5949 98.3216 94.5641 98.4287C94.5333 98.5359 94.5464 98.6508 94.6004 98.7484C94.6544 98.8459 94.7449 98.9179 94.852 98.9487Z" fill="#FAFDC6"/>
<path d="M96.0538 102.294C96.1734 102.326 96.2988 102.328 96.4196 102.302C96.46 102.291 96.4968 102.269 96.5266 102.24C96.5564 102.211 96.5781 102.174 96.5897 102.134C96.6013 102.093 96.6023 102.051 96.5927 102.01C96.583 101.969 96.5631 101.932 96.5347 101.901C96.4465 101.814 96.3386 101.751 96.2202 101.715C95.8548 101.585 95.6742 102.208 96.0538 102.294Z" fill="#FAFDC6"/>
<path d="M102.677 102.277C102.576 102.283 102.477 102.302 102.381 102.334C102.333 102.347 102.289 102.372 102.254 102.407C102.219 102.442 102.193 102.486 102.179 102.533C102.166 102.581 102.164 102.631 102.176 102.68C102.187 102.728 102.211 102.773 102.244 102.809C102.309 102.886 102.384 102.955 102.466 103.015C103.003 103.442 103.36 102.199 102.677 102.277Z" fill="#FAFDC6"/>
<path d="M94.5866 89.4776L94.7573 89.6817C94.8138 89.7398 94.8878 89.778 94.9679 89.7903C95.0481 89.8026 95.13 89.7884 95.2014 89.7499L95.2999 89.7056C95.3621 89.6711 95.4081 89.6134 95.4277 89.5451C95.4473 89.4768 95.439 89.4034 95.4046 89.3413L95.3446 89.2514C95.3039 89.1815 95.2419 89.1264 95.1677 89.0944C95.0934 89.0624 95.0108 89.055 94.932 89.0735L94.6789 89.1559C94.6467 89.165 94.6172 89.1822 94.5935 89.2058C94.5697 89.2295 94.5523 89.2588 94.5431 89.291C94.5338 89.3232 94.533 89.3573 94.5406 89.3899C94.5482 89.4226 94.564 89.4528 94.5866 89.4776Z" fill="#FAFDC6"/>
<path d="M93.6154 95.3837L93.7135 95.4383C94.2623 95.7395 94.5438 94.7709 93.9154 94.7356L93.8032 94.7298C93.7269 94.7308 93.6529 94.7563 93.5922 94.8026C93.5315 94.8489 93.4873 94.9136 93.4662 94.987C93.4452 95.0603 93.4483 95.1386 93.4752 95.21C93.502 95.2815 93.5512 95.3424 93.6154 95.3837Z" fill="#FAFDC6"/>
<path d="M97.8384 96.0825L97.7294 96.043C97.2517 95.8678 97.012 96.6966 97.5105 96.8051L97.6217 96.8371C97.7204 96.8654 97.8262 96.8534 97.916 96.8037C98.0058 96.754 98.0722 96.6706 98.1005 96.572C98.1288 96.4733 98.1168 96.3675 98.0671 96.2777C98.0174 96.1879 97.934 96.1216 97.8354 96.0932L97.8384 96.0825Z" fill="#FAFDC6"/>
<path d="M63.2653 120.211C61.575 126.095 64.9752 132.236 70.8598 133.926C76.7444 135.617 82.885 132.216 84.5753 126.332C86.2655 120.447 82.8653 114.307 76.9808 112.616C71.0962 110.926 64.9555 114.326 63.2653 120.211Z" fill="#DA7D04"/>
<path d="M64.829 128.305C67.6094 133.326 73.934 135.143 78.9554 132.362C83.9767 129.582 85.7934 123.257 83.0129 118.236C80.2325 113.215 73.9079 111.398 68.8865 114.178C63.8652 116.959 62.0485 123.283 64.829 128.305Z" fill="#FFC60B"/>
<path d="M82.344 129.344C80.259 130.036 78.0081 130.049 75.9155 129.38C73.8228 128.712 71.9962 127.397 70.6988 125.624C69.4013 123.851 68.6998 121.712 68.6954 119.515C68.6909 117.318 69.3837 115.177 70.674 113.399C69.1151 113.91 67.6993 114.783 66.5425 115.946C65.3857 117.109 64.5208 118.53 64.0186 120.092C63.5164 121.654 63.3911 123.312 63.6531 124.932C63.915 126.551 64.5567 128.086 65.5256 129.41C66.4945 130.734 67.7632 131.809 69.2277 132.549C70.6922 133.288 72.3109 133.67 73.9515 133.664C75.5921 133.657 77.2079 133.263 78.6666 132.512C80.1253 131.761 81.3855 130.675 82.344 129.344Z" fill="#FEAB05"/>
<path d="M76.1416 116.309C76.0784 116.372 76.0295 116.448 75.9984 116.532C75.9776 116.607 75.9768 116.686 75.9961 116.762C76.0154 116.837 76.0541 116.906 76.1083 116.962C76.1625 117.018 76.2304 117.058 76.3052 117.08C76.38 117.101 76.4591 117.102 76.5346 117.084C76.6696 117.049 76.7864 116.965 76.8615 116.848C76.8963 116.788 76.9149 116.72 76.9157 116.651C76.9164 116.582 76.8992 116.514 76.8657 116.453C76.8322 116.393 76.7835 116.342 76.7245 116.306C76.6655 116.27 76.5981 116.25 76.529 116.247L76.654 116.283C76.5873 116.242 76.5107 116.219 76.4323 116.217C76.3538 116.216 76.2762 116.235 76.2079 116.274L76.1767 116.296L76.6893 116.608L76.6909 116.563C76.6896 116.499 76.6701 116.437 76.6347 116.385C76.5994 116.332 76.5496 116.29 76.4913 116.265C76.433 116.24 76.3687 116.232 76.306 116.242C76.2433 116.252 76.1849 116.28 76.1377 116.323L76.1416 116.309Z" fill="#FAFDC6"/>
<path d="M79.2598 118.556C79.2424 118.637 79.2566 118.722 79.2993 118.794C79.3421 118.865 79.4103 118.917 79.4902 118.94C79.5701 118.963 79.6557 118.955 79.7298 118.917C79.8038 118.879 79.8609 118.815 79.8893 118.737C79.9066 118.656 79.8925 118.571 79.8497 118.5C79.807 118.428 79.7388 118.376 79.6589 118.353C79.579 118.33 79.4934 118.338 79.4193 118.376C79.3452 118.414 79.2882 118.478 79.2598 118.556Z" fill="#FAFDC6"/>
<path d="M75.6557 121.412L75.6337 121.391C75.6686 121.454 75.7215 121.505 75.7856 121.539C75.8497 121.572 75.9222 121.585 75.994 121.577C76.0657 121.569 76.1334 121.54 76.1885 121.493C76.2436 121.446 76.2837 121.385 76.3036 121.315C76.3235 121.246 76.3224 121.172 76.3004 121.103C76.2784 121.035 76.2365 120.974 76.1801 120.929C76.1236 120.884 76.055 120.857 75.9831 120.851C75.9112 120.845 75.8391 120.86 75.776 120.896L75.8054 120.891C75.7363 120.871 75.6621 120.879 75.5992 120.914C75.5363 120.949 75.4898 121.007 75.4699 121.077C75.45 121.146 75.4585 121.22 75.4933 121.283C75.5281 121.346 75.5865 121.392 75.6557 121.412Z" fill="#FAFDC6"/>
<path d="M76.7071 118.671C76.7518 118.834 76.8536 118.975 76.9939 119.069C77.0243 119.087 77.0589 119.097 77.0945 119.098C77.13 119.099 77.1651 119.09 77.1962 119.073C77.2272 119.056 77.2532 119.03 77.2715 119C77.2897 118.969 77.2996 118.935 77.3 118.899C77.2959 118.73 77.2302 118.569 77.1153 118.445C76.9713 118.257 76.6194 118.448 76.7071 118.671Z" fill="#FAFDC6"/>
<path d="M81.9287 123.408C81.8922 123.527 81.8898 123.654 81.9218 123.774C81.9537 123.895 82.0187 124.004 82.1094 124.089C82.3739 124.421 82.9817 124.085 82.8409 123.685C82.8167 123.563 82.7589 123.45 82.674 123.359C82.5892 123.268 82.4805 123.202 82.3604 123.169C82.2715 123.144 82.1762 123.155 82.0954 123.2C82.0145 123.245 81.9546 123.32 81.9287 123.408Z" fill="#FAFDC6"/>
<path d="M76.1841 126.707L76.1295 126.805C76.0947 126.862 76.0755 126.927 76.074 126.994C76.0725 127.061 76.0887 127.127 76.1209 127.186L76.1674 127.253C76.2064 127.319 76.269 127.367 76.3423 127.388C76.4157 127.409 76.4943 127.402 76.5622 127.367L76.6361 127.334C76.6949 127.302 76.7441 127.254 76.7785 127.197C76.813 127.14 76.8316 127.074 76.8322 127.007L76.838 126.895C76.8371 126.819 76.8115 126.745 76.7652 126.684C76.7189 126.623 76.6542 126.579 76.5809 126.558C76.5075 126.537 76.4293 126.54 76.3578 126.567C76.2863 126.594 76.2254 126.643 76.1841 126.707Z" fill="#FAFDC6"/>
<path d="M72.5443 122.965C72.2642 123.251 72.452 123.586 72.7714 123.72C73.3601 123.969 73.5448 122.751 72.7841 122.912L72.8474 122.915L73.1001 123.254L73.1047 123.209C73.104 123.144 73.0847 123.081 73.049 123.027C73.0133 122.974 72.9627 122.931 72.9035 122.905C72.8442 122.88 72.7788 122.872 72.715 122.882C72.6513 122.893 72.592 122.922 72.5443 122.965Z" fill="#FAFDC6"/>
<path d="M78.5912 121.992L78.6646 122.138C78.6957 122.194 78.7411 122.241 78.7963 122.274C78.8515 122.307 78.9144 122.325 78.9787 122.326L79.0586 122.329C79.098 122.33 79.137 122.32 79.1714 122.301C79.2059 122.282 79.2347 122.254 79.2549 122.22L79.2961 122.151C79.3292 122.096 79.3473 122.033 79.3487 121.969C79.35 121.905 79.3345 121.842 79.3038 121.785L79.2186 121.645C79.171 121.566 79.0945 121.509 79.0052 121.485C78.9159 121.461 78.8207 121.472 78.7399 121.517C78.659 121.562 78.5986 121.636 78.5715 121.725C78.5445 121.813 78.5527 121.909 78.5947 121.991L78.5912 121.992Z" fill="#FAFDC6"/>
<path d="M78.7716 124.665C78.7582 124.731 78.77 124.799 78.8045 124.856C78.839 124.913 78.8938 124.955 78.9579 124.973C79.0221 124.992 79.0908 124.985 79.1503 124.955C79.2099 124.925 79.2559 124.874 79.2792 124.811C79.2926 124.746 79.2809 124.678 79.2463 124.621C79.2118 124.564 79.157 124.522 79.0929 124.504C79.0288 124.485 78.9601 124.492 78.9005 124.522C78.841 124.552 78.7949 124.603 78.7716 124.665Z" fill="#FAFDC6"/>
<path d="M80.6051 126.275L80.5113 126.217C80.4379 126.174 80.3524 126.155 80.2676 126.165C80.1829 126.174 80.1034 126.21 80.0411 126.268C79.9877 126.313 79.9488 126.373 79.9296 126.439C79.9104 126.506 79.9117 126.577 79.9334 126.643C79.9554 126.726 80.0035 126.799 80.0705 126.851C80.1376 126.904 80.2199 126.933 80.3051 126.935L80.415 126.937C80.4921 126.935 80.5666 126.909 80.6277 126.863C80.6888 126.816 80.7333 126.75 80.7545 126.676C80.7758 126.602 80.7728 126.523 80.7459 126.451C80.719 126.379 80.6696 126.317 80.6051 126.275Z" fill="#FAFDC6"/>
<path d="M73.7795 126.254L73.8872 126.298C74.3375 126.489 74.5802 125.649 74.0961 125.571L73.9809 125.553C73.8879 125.526 73.7881 125.537 73.7034 125.584C73.6188 125.631 73.5563 125.71 73.5296 125.803C73.5028 125.896 73.5141 125.995 73.561 126.08C73.6079 126.165 73.6865 126.227 73.7795 126.254Z" fill="#FAFDC6"/>
<path d="M76.3382 124.056C76.4604 124.085 76.5873 124.087 76.7105 124.064C76.7538 124.052 76.7934 124.03 76.8254 123.998C76.8574 123.967 76.8807 123.928 76.8931 123.885C76.9054 123.842 76.9064 123.796 76.8959 123.753C76.8854 123.709 76.8637 123.669 76.8331 123.637C76.741 123.552 76.6319 123.487 76.5129 123.447C76.13 123.304 75.9382 123.972 76.3378 124.057L76.3382 124.056Z" fill="#FAFDC6"/>
<path d="M72.6493 115.062C72.58 115.135 72.5154 115.213 72.4558 115.294C72.0455 115.826 73.2425 116.18 73.1783 115.501C73.1709 115.401 73.1572 115.301 73.1371 115.202C73.1242 115.153 73.0986 115.107 73.0628 115.071C73.0271 115.034 72.9824 115.007 72.9332 114.993C72.8839 114.979 72.8319 114.978 72.7821 114.99C72.7324 115.002 72.6866 115.027 72.6493 115.062Z" fill="#FAFDC6"/>
<path d="M70.3011 119.764C70.4574 120.518 71.5669 120.343 71.371 119.612C71.2132 119.012 70.18 119.163 70.3011 119.764Z" fill="#FAFDC6"/>
<path d="M72.782 120.209C72.7344 120.276 72.7021 120.353 72.6876 120.435C72.6731 120.516 72.6766 120.6 72.6979 120.68C72.7116 120.733 72.7391 120.782 72.7776 120.822C72.8162 120.862 72.8644 120.89 72.9176 120.906C72.9707 120.921 73.027 120.922 73.0807 120.909C73.1344 120.896 73.1837 120.869 73.2238 120.831C73.2841 120.774 73.3314 120.705 73.3623 120.629C73.3931 120.552 73.4068 120.469 73.4024 120.387C73.401 120.315 73.3764 120.245 73.3324 120.188C73.2884 120.131 73.2273 120.089 73.1579 120.069C73.0885 120.049 73.0146 120.052 72.947 120.077C72.8793 120.102 72.8215 120.148 72.782 120.209Z" fill="#FAFDC6"/>
<path d="M79.3448 127.881C79.3192 127.619 79.2248 127.391 78.9303 127.348C78.8635 127.338 78.7954 127.343 78.7305 127.361C78.6656 127.38 78.6055 127.412 78.554 127.456C78.5026 127.5 78.461 127.554 78.4322 127.615C78.4033 127.676 78.3878 127.743 78.3866 127.81C78.3775 128.416 79.3987 128.411 79.3448 127.881Z" fill="#FAFDC6"/>
<path d="M82.5173 125.671C82.3971 125.629 82.2722 125.601 82.1453 125.588C81.1371 125.438 81.5056 126.942 82.2512 126.517C82.3938 126.435 82.5209 126.331 82.6585 126.248C82.7124 126.212 82.7538 126.159 82.777 126.099C82.8002 126.038 82.8041 125.971 82.7882 125.908C82.7722 125.845 82.7373 125.788 82.688 125.746C82.6387 125.703 82.5775 125.677 82.5127 125.67L82.5173 125.671Z" fill="#FAFDC6"/>
<path d="M77.5091 120.164C77.3375 120.382 77.2602 120.404 77.2232 120.706C77.2238 120.776 77.2471 120.844 77.2895 120.899C77.3319 120.955 77.3912 120.996 77.4585 121.015C77.5258 121.034 77.5976 121.032 77.6632 121.007C77.7287 120.982 77.7845 120.937 77.8222 120.878C77.9474 120.608 77.8981 120.545 77.8673 120.267C77.8665 120.225 77.8523 120.185 77.8269 120.152C77.8015 120.119 77.7661 120.095 77.7261 120.083C77.6861 120.072 77.6434 120.074 77.6044 120.088C77.5653 120.103 77.5319 120.129 77.5091 120.164Z" fill="#FAFDC6"/>
<path d="M70.9529 123.01L70.9683 123.151C70.9719 123.272 71.0212 123.387 71.1062 123.473C71.1913 123.558 71.3058 123.609 71.4265 123.613C71.5056 123.617 71.5843 123.599 71.6536 123.56C71.7229 123.522 71.7801 123.465 71.8189 123.396C71.8792 123.291 71.8974 123.167 71.8699 123.05C71.8424 122.932 71.7712 122.83 71.6708 122.763L71.5591 122.674C71.499 122.638 71.4303 122.618 71.36 122.617C71.2898 122.615 71.2204 122.633 71.1589 122.667C71.0974 122.701 71.046 122.75 71.0098 122.811C70.9736 122.871 70.954 122.94 70.9529 123.01Z" fill="#FAFDC6"/>
<path d="M75.3074 122.383L75.2096 122.551C75.1372 122.627 75.0959 122.727 75.0937 122.831C75.0915 122.936 75.1286 123.037 75.1977 123.116L75.244 123.178C75.277 123.215 75.3194 123.241 75.3665 123.254C75.4136 123.268 75.4635 123.268 75.5107 123.255L75.5848 123.227C75.6848 123.197 75.7698 123.13 75.8231 123.04C75.8764 122.95 75.8941 122.844 75.8726 122.742L75.879 122.547C75.8741 122.483 75.8496 122.421 75.8087 122.371C75.7678 122.321 75.7125 122.284 75.6503 122.266C75.588 122.249 75.5218 122.25 75.4605 122.271C75.3992 122.292 75.3458 122.331 75.3074 122.383Z" fill="#FAFDC6"/>
<path d="M72.9788 127.004L73.0787 127.053C73.1739 127.109 73.2872 127.125 73.3946 127.1C73.502 127.074 73.5953 127.007 73.6547 126.914C73.6901 126.848 73.711 126.776 73.716 126.701C73.7143 126.591 73.6702 126.485 73.593 126.407C73.5158 126.328 73.4113 126.282 73.3011 126.278L73.1907 126.266C73.1047 126.268 73.0215 126.297 72.9533 126.349C72.885 126.401 72.8353 126.474 72.8116 126.557C72.7879 126.639 72.7913 126.727 72.8214 126.808C72.8515 126.888 72.9067 126.957 72.9788 127.004Z" fill="#FAFDC6"/>
<path d="M78.875 116.472L78.9863 116.481C79.0738 116.48 79.1586 116.451 79.2281 116.398C79.2976 116.345 79.3482 116.27 79.3724 116.186C79.3965 116.102 79.393 116.013 79.3623 115.931C79.3315 115.849 79.2752 115.779 79.2017 115.731L79.1026 115.68C79.0469 115.649 78.985 115.631 78.9213 115.627C78.8576 115.623 78.7939 115.634 78.7349 115.658C78.6759 115.682 78.6232 115.72 78.5806 115.767C78.5381 115.815 78.5069 115.871 78.4892 115.933C78.4716 115.994 78.4681 116.058 78.4789 116.121C78.4897 116.184 78.5146 116.244 78.5517 116.296C78.5888 116.348 78.6372 116.391 78.6931 116.421C78.7491 116.452 78.8113 116.469 78.875 116.472Z" fill="#FAFDC6"/>
<path d="M80.4429 120.579C80.4246 120.643 80.4324 120.711 80.4644 120.769C80.4963 120.826 80.55 120.869 80.6135 120.887C80.6769 120.905 80.745 120.898 80.8028 120.866C80.8606 120.834 80.9033 120.78 80.9215 120.717C80.9397 120.653 80.932 120.585 80.9 120.527C80.868 120.469 80.8144 120.427 80.7509 120.409C80.6875 120.39 80.6193 120.398 80.5616 120.43C80.5038 120.462 80.4611 120.516 80.4429 120.579Z" fill="#FAFDC6"/>
<path d="M77.4214 124.277L77.4456 124.244C77.3797 124.281 77.326 124.336 77.2915 124.403C77.2569 124.47 77.2429 124.545 77.2514 124.62C77.2598 124.695 77.2903 124.766 77.3389 124.823C77.3875 124.881 77.4521 124.923 77.5245 124.943C77.5969 124.964 77.6739 124.963 77.7456 124.94C77.8173 124.917 77.8807 124.873 77.9275 124.814C77.9744 124.756 78.0027 124.684 78.0089 124.609C78.0151 124.534 77.999 124.459 77.9624 124.393L77.9656 124.433C77.9802 124.363 77.9677 124.29 77.9307 124.229C77.8937 124.168 77.8348 124.122 77.766 124.103C77.6971 124.083 77.6234 124.09 77.5595 124.122C77.4956 124.155 77.4462 124.21 77.4214 124.277Z" fill="#FAFDC6"/>
<path d="M72.2204 116.42C72.2295 116.289 72.2021 116.158 72.1412 116.041C72.1001 115.97 72.033 115.917 71.9539 115.894C71.8749 115.872 71.7901 115.881 71.7174 115.919C71.6039 115.986 71.511 116.082 71.4491 116.199C71.1114 116.8 72.1928 117.113 72.2204 116.42Z" fill="#FAFDC6"/>
<path d="M75.1878 114.579C75.1744 114.855 75.247 114.947 75.4638 115.112C75.5072 115.137 75.5566 115.151 75.6071 115.152C75.6576 115.153 75.7075 115.14 75.7516 115.116C75.7957 115.091 75.8326 115.055 75.8586 115.012C75.8847 114.969 75.8988 114.919 75.8998 114.869C75.8764 114.6 75.8432 114.491 75.5944 114.352C75.5539 114.328 75.5078 114.315 75.4608 114.315C75.4137 114.314 75.3673 114.326 75.3262 114.349C75.2851 114.372 75.2507 114.405 75.2264 114.445C75.2022 114.486 75.1888 114.532 75.1878 114.579Z" fill="#FAFDC6"/>
<path d="M68.6909 127.253L68.7982 127.299C69.3153 127.515 69.5926 126.555 69.0377 126.465L68.9229 126.445C68.8158 126.414 68.7008 126.427 68.6033 126.481C68.5058 126.535 68.4337 126.626 68.4029 126.733C68.3722 126.84 68.3852 126.955 68.4392 127.053C68.4932 127.15 68.5837 127.222 68.6909 127.253Z" fill="#FAFDC6"/>
<path d="M69.8918 130.598C70.0105 130.631 70.1354 130.634 70.2556 130.607C70.2963 130.596 70.3335 130.575 70.3636 130.545C70.3936 130.516 70.4156 130.479 70.4272 130.439C70.4388 130.398 70.4397 130.356 70.4298 130.315C70.4199 130.274 70.3996 130.236 70.3707 130.206C70.283 130.119 70.1758 130.055 70.0582 130.019C69.6909 129.89 69.5118 130.513 69.8918 130.598Z" fill="#FAFDC6"/>
<path d="M76.5153 130.586C76.4145 130.593 76.3148 130.612 76.2185 130.642C76.1707 130.656 76.127 130.681 76.0918 130.716C76.0565 130.751 76.0308 130.794 76.0171 130.842C76.0034 130.89 76.0022 130.94 76.0135 130.988C76.0249 131.037 76.0484 131.081 76.0819 131.118C76.1467 131.196 76.2212 131.265 76.3034 131.323C76.8409 131.75 77.1977 130.508 76.5153 130.586Z" fill="#FAFDC6"/>
<path d="M68.4269 117.781L68.595 117.994C68.6516 118.052 68.7253 118.089 68.8051 118.101C68.8848 118.114 68.9664 118.1 69.0376 118.062L69.1376 118.018C69.1998 117.984 69.2458 117.926 69.2654 117.858C69.285 117.789 69.2767 117.716 69.2423 117.654L69.1812 117.562C69.1404 117.492 69.0786 117.438 69.0047 117.406C68.9307 117.374 68.8486 117.367 68.7701 117.384L68.5145 117.476C68.4825 117.485 68.4534 117.502 68.4299 117.526C68.4064 117.55 68.3892 117.579 68.3801 117.611C68.3709 117.643 68.37 117.676 68.3774 117.709C68.3848 117.741 68.4003 117.771 68.4225 117.796L68.4269 117.781Z" fill="#FAFDC6"/>
<path d="M67.4533 123.691L67.5519 123.744C68.1006 124.045 68.3817 123.078 67.7533 123.043L67.6415 123.035C67.5653 123.037 67.4915 123.063 67.431 123.109C67.3706 123.156 67.3266 123.22 67.3055 123.294C67.2844 123.367 67.2875 123.445 67.314 123.517C67.3406 123.588 67.3894 123.649 67.4533 123.691Z" fill="#FAFDC6"/>
<path d="M71.6743 124.393L71.5657 124.352C71.0864 124.177 70.8478 125.007 71.3467 125.114L71.4607 125.137C71.5567 125.158 71.6572 125.142 71.7417 125.092C71.8261 125.041 71.8883 124.961 71.9154 124.866C71.9426 124.772 71.9327 124.67 71.8878 124.583C71.843 124.495 71.7665 124.428 71.6739 124.395L71.6743 124.393Z" fill="#FAFDC6"/>
</svg>
