<svg width="18" height="18" viewBox="0 0 18 18" fill="none" xmlns="http://www.w3.org/2000/svg">
<path d="M16.5422 17.5769L10.2615 11.2961C9.76146 11.7089 9.18646 12.032 8.53646 12.2653C7.88646 12.4987 7.21403 12.6153 6.51916 12.6153C4.80999 12.6153 3.36348 12.0236 2.17961 10.84C0.995742 9.65643 0.403809 8.21029 0.403809 6.50157C0.403809 4.79284 0.995592 3.34616 2.17916 2.16154C3.36273 0.976943 4.80888 0.384644 6.51761 0.384644C8.22633 0.384644 9.67299 0.976578 10.8576 2.16044C12.0422 3.34431 12.6345 4.79083 12.6345 6.49999C12.6345 7.21409 12.5147 7.89614 12.2749 8.54614C12.0352 9.19615 11.7153 9.76153 11.3153 10.2423L17.5961 16.5231L16.5422 17.5769ZM6.51916 11.1154C7.80763 11.1154 8.89898 10.6683 9.79321 9.77404C10.6874 8.87981 11.1346 7.78846 11.1346 6.49999C11.1346 5.21153 10.6874 4.12018 9.79321 3.22594C8.89898 2.33171 7.80763 1.88459 6.51916 1.88459C5.23069 1.88459 4.13934 2.33171 3.24511 3.22594C2.35089 4.12018 1.90378 5.21153 1.90378 6.49999C1.90378 7.78846 2.35089 8.87981 3.24511 9.77404C4.13934 10.6683 5.23069 11.1154 6.51916 11.1154Z" fill="#929292"/>
</svg>
