<svg width="32" height="32" viewBox="0 0 32 32" fill="none" xmlns="http://www.w3.org/2000/svg">
<path d="M25.9084 17.3066C25.9617 16.88 26.0017 16.4533 26.0017 16C26.0017 15.5466 25.9617 15.12 25.9084 14.6933L28.7217 12.4933C28.9751 12.2933 29.0417 11.9333 28.8817 11.64L26.2151 7.02663C26.0951 6.81329 25.8684 6.69329 25.6284 6.69329C25.5484 6.69329 25.4684 6.70663 25.4017 6.73329L22.0817 8.06663C21.3884 7.53329 20.6417 7.09329 19.8284 6.75996L19.3217 3.22663C19.2817 2.90663 19.0017 2.66663 18.6684 2.66663H13.3351C13.0017 2.66663 12.7217 2.90663 12.6817 3.22663L12.1751 6.75996C11.3617 7.09329 10.6151 7.54663 9.92174 8.06663L6.60174 6.73329C6.52174 6.70663 6.44174 6.69329 6.36174 6.69329C6.13507 6.69329 5.90841 6.81329 5.78841 7.02663L3.12174 11.64C2.94841 11.9333 3.02841 12.2933 3.28174 12.4933L6.09507 14.6933C6.04174 15.12 6.00174 15.56 6.00174 16C6.00174 16.44 6.04174 16.88 6.09507 17.3066L3.28174 19.5066C3.02841 19.7066 2.96174 20.0666 3.12174 20.36L5.78841 24.9733C5.90841 25.1866 6.13507 25.3066 6.37507 25.3066C6.45507 25.3066 6.53507 25.2933 6.60174 25.2666L9.92174 23.9333C10.6151 24.4666 11.3617 24.9066 12.1751 25.24L12.6817 28.7733C12.7217 29.0933 13.0017 29.3333 13.3351 29.3333H18.6684C19.0017 29.3333 19.2817 29.0933 19.3217 28.7733L19.8284 25.24C20.6417 24.9066 21.3884 24.4533 22.0817 23.9333L25.4017 25.2666C25.4817 25.2933 25.5617 25.3066 25.6417 25.3066C25.8684 25.3066 26.0951 25.1866 26.2151 24.9733L28.8817 20.36C29.0417 20.0666 28.9751 19.7066 28.7217 19.5066L25.9084 17.3066ZM23.2684 15.0266C23.3217 15.44 23.3351 15.72 23.3351 16C23.3351 16.28 23.3084 16.5733 23.2684 16.9733L23.0817 18.48L24.2684 19.4133L25.7084 20.5333L24.7751 22.1466L23.0817 21.4666L21.6951 20.9066L20.4951 21.8133C19.9217 22.24 19.3751 22.56 18.8284 22.7866L17.4151 23.36L17.2017 24.8666L16.9351 26.6666H15.0684L14.6017 23.36L13.1884 22.7866C12.6151 22.5466 12.0817 22.24 11.5484 21.84L10.3351 20.9066L8.92174 21.48L7.22841 22.16L6.29507 20.5466L7.73507 19.4266L8.92174 18.4933L8.73507 16.9866C8.69507 16.5733 8.66841 16.2666 8.66841 16C8.66841 15.7333 8.69507 15.4266 8.73507 15.0266L8.92174 13.52L7.73507 12.5866L6.29507 11.4666L7.22841 9.85329L8.92174 10.5333L10.3084 11.0933L11.5084 10.1866C12.0817 9.75996 12.6284 9.43996 13.1751 9.21329L14.5884 8.63996L14.8017 7.13329L15.0684 5.33329H16.9217L17.3884 8.63996L18.8017 9.21329C19.3751 9.45329 19.9084 9.75996 20.4417 10.16L21.6551 11.0933L23.0684 10.52L24.7617 9.83996L25.6951 11.4533L24.2684 12.5866L23.0817 13.52L23.2684 15.0266ZM16.0017 10.6666C13.0551 10.6666 10.6684 13.0533 10.6684 16C10.6684 18.9466 13.0551 21.3333 16.0017 21.3333C18.9484 21.3333 21.3351 18.9466 21.3351 16C21.3351 13.0533 18.9484 10.6666 16.0017 10.6666ZM16.0017 18.6666C14.5351 18.6666 13.3351 17.4666 13.3351 16C13.3351 14.5333 14.5351 13.3333 16.0017 13.3333C17.4684 13.3333 18.6684 14.5333 18.6684 16C18.6684 17.4666 17.4684 18.6666 16.0017 18.6666Z" fill="#121212"/>
</svg>
