<svg width="33" height="32" viewBox="0 0 33 32" fill="none" xmlns="http://www.w3.org/2000/svg">
<rect x="1" y="0.5" width="31" height="31" rx="3.5" stroke="#FF4F00"/>
<g clip-path="url(#clip0_5669_2691)">
<path fill-rule="evenodd" clip-rule="evenodd" d="M16.4777 6.57234C15.7611 6.5594 15.0489 6.6879 14.382 6.9505C13.7151 7.2131 13.1065 7.60463 12.5911 8.1027C12.0757 8.60076 11.6635 9.19558 11.3783 9.85311C11.093 10.5106 10.9402 11.218 10.9286 11.9346V19.4295C10.9286 19.8841 10.748 20.3202 10.4265 20.6417C10.105 20.9632 9.66894 21.1438 9.21429 21.1438H7.07143C6.38944 21.1438 5.73539 20.8729 5.25315 20.3906C4.77092 19.9084 4.5 19.2543 4.5 18.5723V15.1438C4.5 14.4618 4.77092 13.8077 5.25315 13.3255C5.73539 12.8433 6.38944 12.5723 7.07143 12.5723H8.35714V11.9038C8.37278 10.8502 8.59583 9.80995 9.01353 8.84254C9.43123 7.87514 10.0354 6.9995 10.7916 6.26563C11.5477 5.53176 12.4411 4.95404 13.4205 4.56545C14.4 4.17687 15.4464 3.98503 16.5 4.00091C17.5536 3.98503 18.6 4.17687 19.5795 4.56545C20.5589 4.95404 21.4523 5.53176 22.2084 6.26563C22.9646 6.9995 23.5688 7.87514 23.9865 8.84254C24.4042 9.80995 24.6272 10.8502 24.6429 11.9038V12.5723H25.9286C26.6106 12.5723 27.2646 12.8433 27.7468 13.3255C28.2291 13.8077 28.5 14.4618 28.5 15.1438V18.5723C28.5 19.2543 28.2291 19.9084 27.7468 20.3906C27.2646 20.8729 26.6106 21.1438 25.9286 21.1438H24.6429V22.0009C24.6431 23.1594 24.2168 24.2773 23.4452 25.1415C22.6737 26.0056 21.6111 26.5555 20.46 26.6861C20.2365 27.0852 19.9105 27.4174 19.5158 27.6485C19.121 27.8797 18.6717 28.0013 18.2143 28.0009H15.6429C14.9609 28.0009 14.3068 27.73 13.8246 27.2478C13.3423 26.7655 13.0714 26.1115 13.0714 25.4295C13.0714 24.7475 13.3423 24.0934 13.8246 23.6112C14.3068 23.129 14.9609 22.8581 15.6429 22.8581H18.2143C19.1434 22.8581 19.9577 23.3501 20.4086 24.0889C20.8811 23.9803 21.3028 23.7147 21.6048 23.3354C21.9068 22.9562 22.0713 22.4857 22.0714 22.0009V11.9329C22.0597 11.2126 21.9052 10.5017 21.6171 9.8414C21.3289 9.1811 20.9127 8.58447 20.3926 8.086C19.8724 7.58753 19.2586 7.1971 18.5867 6.93729C17.9147 6.67748 17.1979 6.55344 16.4777 6.57234Z" fill="#FF4F00"/>
</g>
<defs>
<clipPath id="clip0_5669_2691">
<rect width="24" height="24.0009" fill="white" transform="translate(4.5 4)"/>
</clipPath>
</defs>
</svg>
