<svg width="25" height="24" viewBox="0 0 25 24" fill="none" xmlns="http://www.w3.org/2000/svg">
<g clip-path="url(#clip0_5669_2621)">
<path fill-rule="evenodd" clip-rule="evenodd" d="M12.4777 2.57234C11.7611 2.5594 11.0489 2.6879 10.382 2.9505C9.71511 3.2131 9.10653 3.60463 8.59111 4.1027C8.07569 4.60076 7.66355 5.19558 7.37827 5.85311C7.09299 6.51064 6.94018 7.21797 6.92857 7.93462V15.4295C6.92857 15.8841 6.74796 16.3202 6.42647 16.6417C6.10498 16.9632 5.66894 17.1438 5.21429 17.1438H3.07143C2.38944 17.1438 1.73539 16.8729 1.25315 16.3906C0.770918 15.9084 0.5 15.2543 0.5 14.5723L0.5 11.1438C0.5 10.4618 0.770918 9.80773 1.25315 9.32549C1.73539 8.84326 2.38944 8.57234 3.07143 8.57234H4.35714V7.90377C4.37278 6.85016 4.59583 5.80995 5.01353 4.84254C5.43123 3.87514 6.03542 2.9995 6.79158 2.26563C7.54774 1.53176 8.44105 0.954035 9.42052 0.56545C10.4 0.176866 11.4464 -0.0149662 12.5 0.000910824C13.5536 -0.0149662 14.6 0.176866 15.5795 0.56545C16.5589 0.954035 17.4523 1.53176 18.2084 2.26563C18.9646 2.9995 19.5688 3.87514 19.9865 4.84254C20.4042 5.80995 20.6272 6.85016 20.6429 7.90377V8.57234H21.9286C22.6106 8.57234 23.2646 8.84326 23.7468 9.32549C24.2291 9.80773 24.5 10.4618 24.5 11.1438V14.5723C24.5 15.2543 24.2291 15.9084 23.7468 16.3906C23.2646 16.8729 22.6106 17.1438 21.9286 17.1438H20.6429V18.0009C20.6431 19.1594 20.2168 20.2773 19.4452 21.1415C18.6737 22.0056 17.6111 22.5555 16.46 22.6861C16.2365 23.0852 15.9105 23.4174 15.5158 23.6485C15.121 23.8797 14.6717 24.0013 14.2143 24.0009H11.6429C10.9609 24.0009 10.3068 23.73 9.82458 23.2478C9.34235 22.7655 9.07143 22.1115 9.07143 21.4295C9.07143 20.7475 9.34235 20.0934 9.82458 19.6112C10.3068 19.129 10.9609 18.8581 11.6429 18.8581H14.2143C15.1434 18.8581 15.9577 19.3501 16.4086 20.0889C16.8811 19.9803 17.3028 19.7147 17.6048 19.3354C17.9068 18.9562 18.0713 18.4857 18.0714 18.0009V7.93291C18.0597 7.21257 17.9052 6.5017 17.6171 5.8414C17.3289 5.1811 16.9127 4.58447 16.3926 4.086C15.8724 3.58753 15.2586 3.1971 14.5867 2.93729C13.9147 2.67748 13.1979 2.55344 12.4777 2.57234Z" fill="#FF4F00"/>
</g>
<defs>
<clipPath id="clip0_5669_2621">
<rect width="24" height="24.0009" fill="white" transform="translate(0.5)"/>
</clipPath>
</defs>
</svg>
