<svg width="24" height="18" viewBox="0 0 24 18" fill="none" xmlns="http://www.w3.org/2000/svg">
<path d="M12.0009 14.5385C12.1901 14.5385 12.3483 14.4768 12.4756 14.3534C12.603 14.23 12.6667 14.0771 12.6667 13.8947C12.6667 13.7123 12.6027 13.5597 12.4747 13.4369C12.3468 13.3142 12.1883 13.2528 11.9991 13.2528C11.8099 13.2528 11.6517 13.3144 11.5244 13.4378C11.397 13.5612 11.3333 13.7141 11.3333 13.8965C11.3333 14.0789 11.3973 14.2315 11.5253 14.3543C11.6532 14.4771 11.8117 14.5385 12.0009 14.5385ZM12.0009 9.64286C12.1901 9.64286 12.3483 9.58117 12.4756 9.45778C12.603 9.33441 12.6667 9.18153 12.6667 8.99913C12.6667 8.81673 12.6027 8.66414 12.4747 8.54135C12.3468 8.41855 12.1883 8.35714 11.9991 8.35714C11.8099 8.35714 11.6517 8.41884 11.5244 8.54222C11.397 8.66559 11.3333 8.81847 11.3333 9.00087C11.3333 9.18327 11.3973 9.33586 11.5253 9.45865C11.6532 9.58145 11.8117 9.64286 12.0009 9.64286ZM12.0009 4.74724C12.1901 4.74724 12.3483 4.68556 12.4756 4.5622C12.603 4.43881 12.6667 4.28592 12.6667 4.10352C12.6667 3.92114 12.6027 3.76855 12.4747 3.64574C12.3468 3.52293 12.1883 3.46153 11.9991 3.46153C11.8099 3.46153 11.6517 3.52322 11.5244 3.64661C11.397 3.76999 11.3333 3.92287 11.3333 4.10525C11.3333 4.28765 11.3973 4.44026 11.5253 4.56306C11.6532 4.68585 11.8117 4.74724 12.0009 4.74724ZM21.8462 18H2.15383C1.56152 18 1.05448 17.7966 0.6327 17.3899C0.2109 16.9832 0 16.4942 0 15.9231V12.6099C0.7846 12.3297 1.4252 11.8636 1.9218 11.2117C2.41838 10.5598 2.66667 9.82254 2.66667 9C2.66667 8.17746 2.41838 7.44024 1.9218 6.78832C1.4252 6.13639 0.7846 5.67033 0 5.39013V2.07691C0 1.50575 0.2109 1.01682 0.6327 0.610104C1.05448 0.203368 1.56152 0 2.15383 0H21.8462C22.4385 0 22.9455 0.203368 23.3673 0.610104C23.7891 1.01682 24 1.50575 24 2.07691V5.39013C23.2154 5.67033 22.5748 6.13639 22.0782 6.78832C21.5816 7.44024 21.3333 8.17746 21.3333 9C21.3333 9.82254 21.5816 10.5598 22.0782 11.2117C22.5748 11.8636 23.2154 12.3297 24 12.6099V15.9231C24 16.4942 23.7891 16.9832 23.3673 17.3899C22.9455 17.7966 22.4385 18 21.8462 18ZM21.8462 16.7143C22.0855 16.7143 22.2821 16.6401 22.4359 16.4918C22.5897 16.3434 22.6667 16.1539 22.6667 15.9231V13.4357C21.8444 12.9643 21.1944 12.3375 20.7167 11.5554C20.2389 10.7732 20 9.92143 20 9C20 8.07857 20.2389 7.22679 20.7167 6.44464C21.1944 5.6625 21.8444 5.03571 22.6667 4.56429V2.07691C22.6667 1.84615 22.5897 1.65659 22.4359 1.50824C22.2821 1.35989 22.0855 1.28571 21.8462 1.28571H2.15383C1.91452 1.28571 1.71794 1.35989 1.5641 1.50824C1.41026 1.65659 1.33333 1.84615 1.33333 2.07691V4.56429C2.15556 5.03571 2.80556 5.6625 3.28333 6.44464C3.76111 7.22679 4 8.07857 4 9C4 9.92143 3.76111 10.7732 3.28333 11.5554C2.80556 12.3375 2.15556 12.9643 1.33333 13.4357V15.9231C1.33333 16.1539 1.41026 16.3434 1.5641 16.4918C1.71794 16.6401 1.91452 16.7143 2.15383 16.7143H21.8462Z" fill="#B2B1DC"/>
</svg>
