<svg width="16" height="24" viewBox="0 0 16 24" fill="none" xmlns="http://www.w3.org/2000/svg">
<path d="M15.2992 2.09995C15.2992 1.99995 15.2992 1.89995 15.2992 1.79995C15.1992 1.29995 14.9992 0.999951 14.4992 0.799951C14.3992 0.799951 14.3992 0.799951 14.2992 0.699951C10.0992 0.699951 5.79922 0.699951 1.59922 0.699951C0.999219 0.899951 0.699219 1.29995 0.699219 1.99995C0.699219 8.59995 0.699219 15.2999 0.699219 21.9C0.699219 22.6999 1.19922 23.2 1.99922 23.2C3.29922 23.2 4.59922 23.2 5.89922 23.2C8.59922 23.2 11.2992 23.2 14.0992 23.2C14.6992 23.2 15.0992 22.9 15.2992 22.4C15.3992 22.1999 15.3992 22 15.3992 21.7999C15.2992 15.2999 15.2992 8.69995 15.2992 2.09995ZM4.79922 1.99995C5.89922 1.99995 6.89922 1.99995 7.99922 1.99995C8.99922 1.99995 10.0992 1.99995 11.0992 1.99995C11.2992 1.99995 11.2992 2.09995 11.2992 2.29995C11.1992 2.89995 10.7992 3.39995 10.0992 3.39995C8.59922 3.39995 7.19922 3.39995 5.69922 3.39995C4.99922 3.39995 4.59922 2.89995 4.49922 2.29995C4.59922 2.09995 4.69922 1.99995 4.79922 1.99995ZM13.7992 22C9.99922 22 6.09922 22 2.29922 22C1.99922 22 1.99922 21.9 1.99922 21.7C1.99922 15.2 1.99922 8.69995 1.99922 2.29995C1.99922 2.09995 1.99922 1.99995 2.19922 1.99995C2.39922 1.99995 2.69922 1.99995 2.89922 1.99995C3.19922 1.99995 3.19922 1.99995 3.29922 2.29995C3.39922 3.19995 3.79922 3.79995 4.49922 4.29995C4.89922 4.49995 5.29922 4.59995 5.69922 4.59995C7.19922 4.59995 8.69922 4.59995 10.1992 4.59995C11.4992 4.59995 12.4992 3.59995 12.5992 2.29995C12.5992 2.19995 12.5992 2.19995 12.5992 2.09995C12.5992 1.99995 12.5992 1.99995 12.6992 1.99995C13.0992 1.99995 13.3992 1.99995 13.7992 1.99995C13.9992 1.99995 13.9992 2.09995 13.9992 2.19995C13.9992 2.29995 13.9992 2.29995 13.9992 2.39995C13.9992 5.59995 13.9992 8.89995 13.9992 12.1C13.9992 15.3 13.9992 18.5999 13.9992 21.7999C13.9992 21.9 13.9992 22 13.7992 22Z" fill="#504DA3"/>
<path d="M12 13.7C11.9 13.7 11.9 13.7 11.9 13.6C12 13.2 12 12.8 11.9 12.5C11.9 12.4 11.9 12.4 12 12.4C12.3 12.3 12.5 12 12.4 11.7C12.4 9.8 11 8.1 9.1 7.7C8.9 7.7 8.7 7.7 8.6 7.6C8.5 7.5 8.6 7.3 8.6 7.1C8.6 6.7 8.3 6.5 7.9 6.5C7.5 6.5 7.3 6.8 7.3 7.2C7.3 7.6 7.3 7.6 6.9 7.7C5 7.9 3.5 9.7 3.5 11.7C3.5 12 3.6 12.3 3.9 12.4C4 12.4 4 12.5 4 12.6C3.9 13 3.9 13.3 4 13.7C4 13.8 4 13.8 3.9 13.9C3.7 14 3.5 14.2 3.5 14.4C3.5 14.8 3.5 15.2 3.5 15.6C3.8 16.9 4.8 17.8 6.2 17.8C6.8 17.8 7.4 17.8 8 17.8C8.6 17.8 9.3 17.8 9.9 17.8C10.7 17.8 11.4 17.4 11.9 16.7C12.4 16 12.5 15.2 12.4 14.4C12.4 14 12.3 13.8 12 13.7ZM5 10.8C5.4 9.7 6.2 9 7.3 8.8C7.3 8.9 7.3 9 7.4 9.1C7.5 9.4 7.8 9.6 8.1 9.6C8.4 9.6 8.7 9.3 8.7 9C8.7 8.8 8.8 8.8 8.9 8.8C10 9.1 10.7 9.7 11 10.7C11.1 10.8 11 10.9 10.9 10.9C9 10.9 7.1 10.9 5.1 10.9C4.9 11 4.9 11 5 10.8ZM10.7 13C10.7 13.4 10.4 13.7 10 13.7C9.3 13.7 8.6 13.7 8 13.7C7.3 13.7 6.7 13.7 6 13.7C5.5 13.7 5.2 13.3 5.3 12.9C5.4 12.6 5.6 12.4 5.9 12.4C7.3 12.4 8.6 12.4 10 12.4C10.4 12.4 10.7 12.7 10.7 13ZM11.1 15.3C11 15.9 10.5 16.3 9.9 16.4C9 16.4 8.1 16.4 7.2 16.4C6.8 16.4 6.5 16.4 6.1 16.4C5.5 16.4 5 15.9 4.9 15.3C4.9 15.1 4.9 15.1 5.1 15.1C6.1 15.1 7.1 15.1 8 15.1C9 15.1 10 15.1 10.9 15.1C11.2 15 11.2 15.1 11.1 15.3Z" fill="#504DA3"/>
<path d="M9.09883 19.3C8.39883 19.3 7.69883 19.3 6.99883 19.3C6.59883 19.3 6.29883 19.6 6.29883 20C6.29883 20.4 6.59883 20.7001 6.99883 20.7001C7.39883 20.7001 7.69883 20.7001 8.09883 20.7001C8.49883 20.7001 8.79883 20.7001 9.19883 20.7001C9.59883 20.7001 9.89883 20.4 9.89883 20C9.79883 19.6 9.49883 19.3 9.09883 19.3Z" fill="#504DA3"/>
</svg>
