<svg width="360" height="366" viewBox="0 0 360 366" fill="none" xmlns="http://www.w3.org/2000/svg">
<rect width="360" height="366" rx="20" fill="white"/>
<path d="M27.12 53H25.62V38.64H30.74C33.78 38.64 35.68 40.22 35.68 42.98C35.68 45.14 34.26 46.76 32 47.14L36.06 53H34.26L30.4 47.32H27.12V53ZM27.12 39.9V46.06H30.62C32.82 46.06 34.18 44.98 34.18 42.98C34.18 40.98 32.82 39.9 30.62 39.9H27.12ZM41.9975 53.2C39.0375 53.2 37.0775 50.98 37.0775 47.64C37.0775 44.56 39.1175 42.26 41.9175 42.26C44.9175 42.26 46.8775 44.68 46.6375 48.06H38.4775C38.5975 50.56 39.9175 52.1 41.9775 52.1C43.7375 52.1 44.9575 51.12 45.2975 49.44H46.6775C46.1975 51.78 44.4175 53.2 41.9975 53.2ZM41.8975 43.34C39.9975 43.34 38.6575 44.8 38.4775 47.1H45.1775C45.0575 44.74 43.8375 43.34 41.8975 43.34ZM50.5012 53H49.1012V42.46H50.4012V44.44C51.1012 43.08 52.3412 42.26 53.8412 42.26C55.4812 42.26 56.7012 43.16 57.1412 44.7C57.8012 43.22 59.1212 42.26 60.7812 42.26C62.9613 42.26 64.3212 43.7 64.3212 46.16V53H62.9412V46.62C62.9412 44.62 62.0213 43.48 60.3212 43.48C58.7213 43.48 57.4212 44.88 57.4212 46.82V53H56.0212V46.62C56.0212 44.62 55.1012 43.48 53.4012 43.48C51.7812 43.48 50.5012 44.88 50.5012 46.82V53ZM71.6353 53.2C68.7353 53.2 66.6353 50.9 66.6353 47.72C66.6353 44.56 68.7353 42.28 71.6353 42.28C74.5553 42.28 76.6553 44.56 76.6553 47.72C76.6553 50.9 74.5553 53.2 71.6353 53.2ZM71.6353 51.98C73.6953 51.98 75.2353 50.34 75.2353 47.72C75.2353 45.14 73.6953 43.5 71.6353 43.5C69.5953 43.5 68.0553 45.14 68.0553 47.72C68.0553 50.34 69.5953 51.98 71.6353 51.98ZM86.8767 42.46L82.8167 53H81.3567L77.3367 42.46H78.8367L82.1367 51.36L85.4367 42.46H86.8767ZM92.4803 53.2C89.5203 53.2 87.5603 50.98 87.5603 47.64C87.5603 44.56 89.6003 42.26 92.4003 42.26C95.4003 42.26 97.3603 44.68 97.1203 48.06H88.9603C89.0803 50.56 90.4003 52.1 92.4603 52.1C94.2203 52.1 95.4403 51.12 95.7803 49.44H97.1603C96.6803 51.78 94.9003 53.2 92.4803 53.2ZM92.3803 43.34C90.4803 43.34 89.1403 44.8 88.9603 47.1H95.6603C95.5403 44.74 94.3203 43.34 92.3803 43.34ZM112.383 53.2C109.423 53.2 107.463 50.98 107.463 47.64C107.463 44.56 109.503 42.26 112.303 42.26C115.303 42.26 117.263 44.68 117.023 48.06H108.863C108.983 50.56 110.303 52.1 112.363 52.1C114.123 52.1 115.343 51.12 115.683 49.44H117.063C116.583 51.78 114.803 53.2 112.383 53.2ZM112.283 43.34C110.383 43.34 109.043 44.8 108.863 47.1H115.563C115.443 44.74 114.223 43.34 112.283 43.34ZM120.887 53H119.487V42.46H120.787V44.44C121.487 43.08 122.727 42.26 124.227 42.26C125.867 42.26 127.087 43.16 127.527 44.7C128.187 43.22 129.507 42.26 131.167 42.26C133.347 42.26 134.707 43.7 134.707 46.16V53H133.327V46.62C133.327 44.62 132.407 43.48 130.707 43.48C129.107 43.48 127.807 44.88 127.807 46.82V53H126.407V46.62C126.407 44.62 125.487 43.48 123.787 43.48C122.167 43.48 120.887 44.88 120.887 46.82V53ZM147.461 47.72C147.461 50.98 145.641 53.2 142.841 53.2C141.261 53.2 139.921 52.34 139.201 50.84V56.86H137.801V42.46H139.101V44.74C139.821 43.18 141.221 42.26 142.841 42.26C145.641 42.26 147.461 44.5 147.461 47.72ZM146.041 47.72C146.041 45.06 144.661 43.48 142.601 43.48C140.641 43.48 139.181 45.04 139.181 47.72C139.181 50.34 140.601 51.98 142.601 51.98C144.661 51.98 146.041 50.42 146.041 47.72ZM151.265 53H149.865V38.64H151.265V53ZM158.669 53.2C155.769 53.2 153.669 50.9 153.669 47.72C153.669 44.56 155.769 42.28 158.669 42.28C161.589 42.28 163.689 44.56 163.689 47.72C163.689 50.9 161.589 53.2 158.669 53.2ZM158.669 51.98C160.729 51.98 162.269 50.34 162.269 47.72C162.269 45.14 160.729 43.5 158.669 43.5C156.629 43.5 155.089 45.14 155.089 47.72C155.089 50.34 156.629 51.98 158.669 51.98ZM173.91 42.46L168.51 56.86H167.01L168.55 52.86L164.37 42.46H165.87L169.27 51.18L172.49 42.46H173.91ZM179.514 53.2C176.554 53.2 174.594 50.98 174.594 47.64C174.594 44.56 176.634 42.26 179.434 42.26C182.434 42.26 184.394 44.68 184.154 48.06H175.994C176.114 50.56 177.434 52.1 179.494 52.1C181.254 52.1 182.474 51.12 182.814 49.44H184.194C183.714 51.78 181.934 53.2 179.514 53.2ZM179.414 43.34C177.514 43.34 176.174 44.8 175.994 47.1H182.694C182.574 44.74 181.354 43.34 179.414 43.34ZM190.562 53.2C187.602 53.2 185.642 50.98 185.642 47.64C185.642 44.56 187.682 42.26 190.482 42.26C193.482 42.26 195.442 44.68 195.202 48.06H187.042C187.162 50.56 188.482 52.1 190.542 52.1C192.302 52.1 193.522 51.12 193.862 49.44H195.242C194.762 51.78 192.982 53.2 190.562 53.2ZM190.462 43.34C188.562 43.34 187.222 44.8 187.042 47.1H193.742C193.622 44.74 192.402 43.34 190.462 43.34Z" fill="#121212"/>
<rect x="16.5" y="82.5" width="327" height="47" rx="4.5" stroke="#929292"/>
<path d="M36.69 112H35.654V102.886H32.28V101.948H40.064V102.886H36.69V112ZM43.5551 112.14C41.5251 112.14 40.0551 110.53 40.0551 108.304C40.0551 106.092 41.5251 104.496 43.5551 104.496C45.5991 104.496 47.0691 106.092 47.0691 108.304C47.0691 110.53 45.5991 112.14 43.5551 112.14ZM43.5551 111.286C44.9971 111.286 46.0751 110.138 46.0751 108.304C46.0751 106.498 44.9971 105.35 43.5551 105.35C42.1271 105.35 41.0491 106.498 41.0491 108.304C41.0491 110.138 42.1271 111.286 43.5551 111.286ZM49.8838 107.702V112H48.9038V104.622H49.8138V106.008C50.2898 105.098 51.1858 104.482 52.2498 104.482C53.7898 104.482 54.7838 105.462 54.7838 107.212V112H53.8038V107.548C53.8038 106.134 53.1598 105.336 51.9558 105.336C50.8078 105.336 49.8838 106.33 49.8838 107.702ZM62.5078 104.622L58.7278 114.702H57.6778L58.7558 111.902L55.8298 104.622H56.8798L59.2598 110.726L61.5138 104.622H62.5078ZM71.6358 112.21C68.7238 112.21 66.5678 109.886 66.5678 106.96C66.5678 104.034 68.7238 101.738 71.6358 101.738C74.5478 101.738 76.7178 104.034 76.7178 106.96C76.7178 109.886 74.5478 112.21 71.6358 112.21ZM71.6358 111.272C74.0158 111.272 75.6258 109.368 75.6258 106.96C75.6258 104.552 74.0158 102.676 71.6358 102.676C69.2698 102.676 67.6458 104.552 67.6458 106.96C67.6458 109.368 69.2698 111.272 71.6358 111.272ZM79.5538 112H78.5738V101.948H79.5538V112ZM86.4633 112V110.656C86.0293 111.58 85.1333 112.14 83.9853 112.14C82.4593 112.14 81.4653 111.286 81.4653 109.956C81.4653 108.514 82.6133 107.758 84.8533 107.758C85.3013 107.758 85.6373 107.786 86.3653 107.842V107.226C86.3653 105.994 85.7073 105.266 84.5873 105.266C83.3833 105.266 82.6273 106.008 82.6133 107.212H81.7173C81.7593 105.574 82.8933 104.482 84.5733 104.482C86.2953 104.482 87.3033 105.49 87.3033 107.198V112H86.4633ZM82.4033 109.928C82.4033 110.824 83.0893 111.426 84.1253 111.426C85.4973 111.426 86.3653 110.53 86.3653 109.144V108.486C85.7353 108.43 85.3013 108.416 84.8953 108.416C83.2153 108.416 82.4033 108.906 82.4033 109.928ZM90.5948 107.702V112H89.6148V104.622H90.5248V106.008C91.0008 105.098 91.8968 104.482 92.9608 104.482C94.5008 104.482 95.4948 105.462 95.4948 107.212V112H94.5148V107.548C94.5148 106.134 93.8708 105.336 92.6668 105.336C91.5188 105.336 90.5948 106.33 90.5948 107.702ZM98.7881 108.052V112H97.8081V104.622H98.7181V106.302C99.2221 105.21 100.314 104.51 101.532 104.51V105.532C99.9781 105.476 98.7881 106.442 98.7881 108.052ZM105.864 112.14C103.792 112.14 102.42 110.586 102.42 108.248C102.42 106.092 103.848 104.482 105.808 104.482C107.908 104.482 109.28 106.176 109.112 108.542H103.4C103.484 110.292 104.408 111.37 105.85 111.37C107.082 111.37 107.936 110.684 108.174 109.508H109.14C108.804 111.146 107.558 112.14 105.864 112.14ZM105.794 105.238C104.464 105.238 103.526 106.26 103.4 107.87H108.09C108.006 106.218 107.152 105.238 105.794 105.238ZM116.978 112L115.046 105.924L113.128 112H112.134L109.978 104.622H110.944L112.652 110.614L114.57 104.622H115.536L117.44 110.628L119.148 104.622H120.128L117.958 112H116.978ZM125.967 112V110.656C125.533 111.58 124.637 112.14 123.489 112.14C121.963 112.14 120.969 111.286 120.969 109.956C120.969 108.514 122.117 107.758 124.357 107.758C124.805 107.758 125.141 107.786 125.869 107.842V107.226C125.869 105.994 125.211 105.266 124.091 105.266C122.887 105.266 122.131 106.008 122.117 107.212H121.221C121.263 105.574 122.397 104.482 124.077 104.482C125.799 104.482 126.807 105.49 126.807 107.198V112H125.967ZM121.907 109.928C121.907 110.824 122.593 111.426 123.629 111.426C125.001 111.426 125.869 110.53 125.869 109.144V108.486C125.239 108.43 124.805 108.416 124.399 108.416C122.719 108.416 121.907 108.906 121.907 109.928ZM130.407 102.914C130.407 103.348 130.071 103.656 129.609 103.656C129.147 103.656 128.811 103.348 128.811 102.914C128.811 102.494 129.147 102.186 129.609 102.186C130.071 102.186 130.407 102.494 130.407 102.914ZM130.085 104.622V112.7C130.085 114.114 129.287 114.842 128.041 114.842C127.775 114.842 127.439 114.828 127.131 114.702V113.806C127.397 113.904 127.635 113.946 127.943 113.946C128.657 113.946 129.119 113.568 129.119 112.686V104.622H130.085ZM137.177 109.018V104.622H138.143V112H137.233V110.67C136.855 111.524 135.959 112.14 134.881 112.14C133.383 112.14 132.389 111.286 132.389 109.424V104.622H133.369V109.214C133.369 110.712 134.111 111.286 135.147 111.286C136.323 111.286 137.177 110.334 137.177 109.018Z" fill="#121212"/>
<path d="M277.184 112H276.134V101.948H279.718C281.846 101.948 283.176 103.054 283.176 104.986C283.176 106.498 282.182 107.632 280.6 107.898L283.442 112H282.182L279.48 108.024H277.184V112ZM277.184 102.83V107.142H279.634C281.174 107.142 282.126 106.386 282.126 104.986C282.126 103.586 281.174 102.83 279.634 102.83H277.184ZM287.743 112.14C285.671 112.14 284.299 110.586 284.299 108.248C284.299 106.092 285.727 104.482 287.687 104.482C289.787 104.482 291.159 106.176 290.991 108.542H285.279C285.363 110.292 286.287 111.37 287.729 111.37C288.961 111.37 289.815 110.684 290.053 109.508H291.019C290.683 111.146 289.437 112.14 287.743 112.14ZM287.673 105.238C286.343 105.238 285.405 106.26 285.279 107.87H289.969C289.885 106.218 289.031 105.238 287.673 105.238ZM293.841 112H292.861V104.622H293.771V106.008C294.261 105.056 295.129 104.482 296.179 104.482C297.327 104.482 298.181 105.112 298.489 106.19C298.951 105.154 299.875 104.482 301.037 104.482C302.563 104.482 303.515 105.49 303.515 107.212V112H302.549V107.534C302.549 106.134 301.905 105.336 300.715 105.336C299.595 105.336 298.685 106.316 298.685 107.674V112H297.705V107.534C297.705 106.134 297.061 105.336 295.871 105.336C294.737 105.336 293.841 106.316 293.841 107.674V112ZM308.78 112.14C306.75 112.14 305.28 110.53 305.28 108.304C305.28 106.092 306.75 104.496 308.78 104.496C310.824 104.496 312.294 106.092 312.294 108.304C312.294 110.53 310.824 112.14 308.78 112.14ZM308.78 111.286C310.222 111.286 311.3 110.138 311.3 108.304C311.3 106.498 310.222 105.35 308.78 105.35C307.352 105.35 306.274 106.498 306.274 108.304C306.274 110.138 307.352 111.286 308.78 111.286ZM319.594 104.622L316.752 112H315.73L312.916 104.622H313.966L316.276 110.852L318.586 104.622H319.594ZM323.661 112.14C321.589 112.14 320.217 110.586 320.217 108.248C320.217 106.092 321.645 104.482 323.605 104.482C325.705 104.482 327.077 106.176 326.909 108.542H321.197C321.281 110.292 322.205 111.37 323.647 111.37C324.879 111.37 325.733 110.684 325.971 109.508H326.937C326.601 111.146 325.355 112.14 323.661 112.14ZM323.591 105.238C322.261 105.238 321.323 106.26 321.197 107.87H325.887C325.803 106.218 324.949 105.238 323.591 105.238Z" fill="#ED5048"/>
<path d="M264.334 104.5V112.833H257.667V104.5H264.334ZM263.084 99.5H258.917L258.084 100.333H255.167V102H266.834V100.333H263.917L263.084 99.5ZM266 102.833H256V112.833C256 113.75 256.75 114.5 257.667 114.5H264.334C265.25 114.5 266 113.75 266 112.833V102.833Z" fill="#ED5048"/>
<rect x="16.5" y="146.5" width="327" height="47" rx="4.5" stroke="#929292"/>
<path d="M38.986 165.948V172.668C38.986 174.964 37.67 176.21 35.612 176.21C33.652 176.21 32.364 174.978 32.266 173.018H33.316C33.4 174.46 34.31 175.272 35.612 175.272C36.998 175.272 37.936 174.474 37.936 172.752V165.948H38.986ZM44.3207 176.14C42.2907 176.14 40.8207 174.53 40.8207 172.304C40.8207 170.092 42.2907 168.496 44.3207 168.496C46.3647 168.496 47.8347 170.092 47.8347 172.304C47.8347 174.53 46.3647 176.14 44.3207 176.14ZM44.3207 175.286C45.7627 175.286 46.8407 174.138 46.8407 172.304C46.8407 170.498 45.7627 169.35 44.3207 169.35C42.8927 169.35 41.8147 170.498 41.8147 172.304C41.8147 174.138 42.8927 175.286 44.3207 175.286ZM55.1347 168.622L51.3547 178.702H50.3047L51.3827 175.902L48.4567 168.622H49.5067L51.8867 174.726L54.1407 168.622H55.1347ZM65.8028 175.09V176H59.7688V165.948H65.7048V166.858H60.8188V170.358H65.2848V171.268H60.8188V175.09H65.8028ZM68.9131 176H67.9331V165.948H68.9131V176ZM72.5607 166.914C72.5607 167.348 72.2387 167.656 71.7627 167.656C71.3007 167.656 70.9787 167.348 70.9787 166.914C70.9787 166.494 71.3007 166.186 71.7627 166.186C72.2387 166.186 72.5607 166.494 72.5607 166.914ZM72.2667 176H71.2867V168.622H72.2667V176ZM79.8902 176H73.9822V175.286L78.5182 169.462H74.1222V168.622H79.7222V169.378L75.2142 175.16H79.8902V176ZM86.1117 176V174.656C85.6777 175.58 84.7817 176.14 83.6337 176.14C82.1077 176.14 81.1137 175.286 81.1137 173.956C81.1137 172.514 82.2617 171.758 84.5017 171.758C84.9497 171.758 85.2857 171.786 86.0137 171.842V171.226C86.0137 169.994 85.3557 169.266 84.2357 169.266C83.0317 169.266 82.2757 170.008 82.2617 171.212H81.3657C81.4077 169.574 82.5417 168.482 84.2217 168.482C85.9437 168.482 86.9517 169.49 86.9517 171.198V176H86.1117ZM82.0517 173.928C82.0517 174.824 82.7377 175.426 83.7737 175.426C85.1457 175.426 86.0137 174.53 86.0137 173.144V172.486C85.3837 172.43 84.9497 172.416 84.5437 172.416C82.8637 172.416 82.0517 172.906 82.0517 173.928ZM96.0252 172.304C96.0252 174.572 94.7512 176.14 92.7772 176.14C91.6432 176.14 90.6912 175.524 90.1732 174.446V176H89.2632V165.948H90.2432V170.176C90.7192 169.098 91.6572 168.482 92.7772 168.482C94.7512 168.482 96.0252 170.036 96.0252 172.304ZM95.0312 172.304C95.0312 170.428 94.0652 169.336 92.6232 169.336C91.2372 169.336 90.2292 170.414 90.2292 172.276C90.2292 174.124 91.2092 175.286 92.6232 175.286C94.0652 175.286 95.0312 174.18 95.0312 172.304ZM100.751 176.14C98.6791 176.14 97.3071 174.586 97.3071 172.248C97.3071 170.092 98.7351 168.482 100.695 168.482C102.795 168.482 104.167 170.176 103.999 172.542H98.2871C98.3711 174.292 99.2951 175.37 100.737 175.37C101.969 175.37 102.823 174.684 103.061 173.508H104.027C103.691 175.146 102.445 176.14 100.751 176.14ZM100.681 169.238C99.3511 169.238 98.4131 170.26 98.2871 171.87H102.977C102.893 170.218 102.039 169.238 100.681 169.238ZM109.649 175.062V175.93C109.271 176.084 108.949 176.14 108.585 176.14C107.367 176.14 106.429 175.51 106.429 173.914V169.448H104.693V168.622H106.429V166.438H107.409V168.622H109.719V169.448H107.409V173.704C107.409 174.852 107.969 175.244 108.781 175.244C109.089 175.244 109.341 175.188 109.649 175.062ZM112.431 171.702V176H111.451V165.948H112.431V169.98C112.893 169.098 113.733 168.482 114.797 168.482C116.337 168.482 117.331 169.462 117.331 171.212V176H116.351V171.548C116.351 170.134 115.707 169.336 114.503 169.336C113.355 169.336 112.431 170.33 112.431 171.702Z" fill="#121212"/>
<path d="M277.184 176H276.134V165.948H279.718C281.846 165.948 283.176 167.054 283.176 168.986C283.176 170.498 282.182 171.632 280.6 171.898L283.442 176H282.182L279.48 172.024H277.184V176ZM277.184 166.83V171.142H279.634C281.174 171.142 282.126 170.386 282.126 168.986C282.126 167.586 281.174 166.83 279.634 166.83H277.184ZM287.743 176.14C285.671 176.14 284.299 174.586 284.299 172.248C284.299 170.092 285.727 168.482 287.687 168.482C289.787 168.482 291.159 170.176 290.991 172.542H285.279C285.363 174.292 286.287 175.37 287.729 175.37C288.961 175.37 289.815 174.684 290.053 173.508H291.019C290.683 175.146 289.437 176.14 287.743 176.14ZM287.673 169.238C286.343 169.238 285.405 170.26 285.279 171.87H289.969C289.885 170.218 289.031 169.238 287.673 169.238ZM293.841 176H292.861V168.622H293.771V170.008C294.261 169.056 295.129 168.482 296.179 168.482C297.327 168.482 298.181 169.112 298.489 170.19C298.951 169.154 299.875 168.482 301.037 168.482C302.563 168.482 303.515 169.49 303.515 171.212V176H302.549V171.534C302.549 170.134 301.905 169.336 300.715 169.336C299.595 169.336 298.685 170.316 298.685 171.674V176H297.705V171.534C297.705 170.134 297.061 169.336 295.871 169.336C294.737 169.336 293.841 170.316 293.841 171.674V176ZM308.78 176.14C306.75 176.14 305.28 174.53 305.28 172.304C305.28 170.092 306.75 168.496 308.78 168.496C310.824 168.496 312.294 170.092 312.294 172.304C312.294 174.53 310.824 176.14 308.78 176.14ZM308.78 175.286C310.222 175.286 311.3 174.138 311.3 172.304C311.3 170.498 310.222 169.35 308.78 169.35C307.352 169.35 306.274 170.498 306.274 172.304C306.274 174.138 307.352 175.286 308.78 175.286ZM319.594 168.622L316.752 176H315.73L312.916 168.622H313.966L316.276 174.852L318.586 168.622H319.594ZM323.661 176.14C321.589 176.14 320.217 174.586 320.217 172.248C320.217 170.092 321.645 168.482 323.605 168.482C325.705 168.482 327.077 170.176 326.909 172.542H321.197C321.281 174.292 322.205 175.37 323.647 175.37C324.879 175.37 325.733 174.684 325.971 173.508H326.937C326.601 175.146 325.355 176.14 323.661 176.14ZM323.591 169.238C322.261 169.238 321.323 170.26 321.197 171.87H325.887C325.803 170.218 324.949 169.238 323.591 169.238Z" fill="#ED5048"/>
<path d="M264.334 168.5V176.833H257.667V168.5H264.334ZM263.084 163.5H258.917L258.084 164.333H255.167V166H266.834V164.333H263.917L263.084 163.5ZM266 166.833H256V176.833C256 177.75 256.75 178.5 257.667 178.5H264.334C265.25 178.5 266 177.75 266 176.833V166.833Z" fill="#ED5048"/>
<rect x="16.5" y="210.5" width="327" height="47" rx="4.5" stroke="#929292"/>
<path d="M37.754 240L34.114 231.474V240H33.134V229.948H34.492L38.216 238.712L41.968 229.948H43.312V240H42.346V231.474L38.678 240H37.754ZM50.2914 240V238.656C49.8574 239.58 48.9614 240.14 47.8134 240.14C46.2874 240.14 45.2934 239.286 45.2934 237.956C45.2934 236.514 46.4414 235.758 48.6814 235.758C49.1294 235.758 49.4654 235.786 50.1934 235.842V235.226C50.1934 233.994 49.5354 233.266 48.4154 233.266C47.2114 233.266 46.4554 234.008 46.4414 235.212H45.5454C45.5874 233.574 46.7214 232.482 48.4014 232.482C50.1234 232.482 51.1314 233.49 51.1314 235.198V240H50.2914ZM46.2314 237.928C46.2314 238.824 46.9174 239.426 47.9534 239.426C49.3254 239.426 50.1934 238.53 50.1934 237.144V236.486C49.5634 236.43 49.1294 236.416 48.7234 236.416C47.0434 236.416 46.2314 236.906 46.2314 237.928ZM54.4229 236.052V240H53.4429V232.622H54.3529V234.302C54.8569 233.21 55.9489 232.51 57.1669 232.51V233.532C55.6129 233.476 54.4229 234.442 54.4229 236.052ZM64.4355 232.622L60.6555 242.702H59.6055L60.6835 239.902L57.7575 232.622H58.8075L61.1875 238.726L63.4415 232.622H64.4355ZM74.9215 229.948V236.668C74.9215 238.964 73.6055 240.21 71.5475 240.21C69.5875 240.21 68.2995 238.978 68.2015 237.018H69.2515C69.3355 238.46 70.2455 239.272 71.5475 239.272C72.9335 239.272 73.8715 238.474 73.8715 236.752V229.948H74.9215ZM81.8383 240V238.656C81.4043 239.58 80.5083 240.14 79.3603 240.14C77.8343 240.14 76.8403 239.286 76.8403 237.956C76.8403 236.514 77.9883 235.758 80.2283 235.758C80.6763 235.758 81.0123 235.786 81.7403 235.842V235.226C81.7403 233.994 81.0823 233.266 79.9623 233.266C78.7583 233.266 78.0023 234.008 77.9883 235.212H77.0923C77.1343 233.574 78.2683 232.482 79.9483 232.482C81.6703 232.482 82.6783 233.49 82.6783 235.198V240H81.8383ZM77.7783 237.928C77.7783 238.824 78.4643 239.426 79.5003 239.426C80.8723 239.426 81.7403 238.53 81.7403 237.144V236.486C81.1103 236.43 80.6763 236.416 80.2703 236.416C78.5903 236.416 77.7783 236.906 77.7783 237.928ZM85.9698 235.702V240H84.9898V232.622H85.8998V234.008C86.3758 233.098 87.2718 232.482 88.3358 232.482C89.8758 232.482 90.8698 233.462 90.8698 235.212V240H89.8898V235.548C89.8898 234.134 89.2458 233.336 88.0418 233.336C86.8938 233.336 85.9698 234.33 85.9698 235.702ZM96.0811 240.14C94.0091 240.14 92.6371 238.586 92.6371 236.248C92.6371 234.092 94.0651 232.482 96.0251 232.482C98.1251 232.482 99.4971 234.176 99.3291 236.542H93.6171C93.7011 238.292 94.6251 239.37 96.0671 239.37C97.2991 239.37 98.1531 238.684 98.3911 237.508H99.3571C99.0211 239.146 97.7751 240.14 96.0811 240.14ZM96.0111 233.238C94.6811 233.238 93.7431 234.26 93.6171 235.87H98.3071C98.2231 234.218 97.3691 233.238 96.0111 233.238Z" fill="#121212"/>
<path d="M277.184 240H276.134V229.948H279.718C281.846 229.948 283.176 231.054 283.176 232.986C283.176 234.498 282.182 235.632 280.6 235.898L283.442 240H282.182L279.48 236.024H277.184V240ZM277.184 230.83V235.142H279.634C281.174 235.142 282.126 234.386 282.126 232.986C282.126 231.586 281.174 230.83 279.634 230.83H277.184ZM287.743 240.14C285.671 240.14 284.299 238.586 284.299 236.248C284.299 234.092 285.727 232.482 287.687 232.482C289.787 232.482 291.159 234.176 290.991 236.542H285.279C285.363 238.292 286.287 239.37 287.729 239.37C288.961 239.37 289.815 238.684 290.053 237.508H291.019C290.683 239.146 289.437 240.14 287.743 240.14ZM287.673 233.238C286.343 233.238 285.405 234.26 285.279 235.87H289.969C289.885 234.218 289.031 233.238 287.673 233.238ZM293.841 240H292.861V232.622H293.771V234.008C294.261 233.056 295.129 232.482 296.179 232.482C297.327 232.482 298.181 233.112 298.489 234.19C298.951 233.154 299.875 232.482 301.037 232.482C302.563 232.482 303.515 233.49 303.515 235.212V240H302.549V235.534C302.549 234.134 301.905 233.336 300.715 233.336C299.595 233.336 298.685 234.316 298.685 235.674V240H297.705V235.534C297.705 234.134 297.061 233.336 295.871 233.336C294.737 233.336 293.841 234.316 293.841 235.674V240ZM308.78 240.14C306.75 240.14 305.28 238.53 305.28 236.304C305.28 234.092 306.75 232.496 308.78 232.496C310.824 232.496 312.294 234.092 312.294 236.304C312.294 238.53 310.824 240.14 308.78 240.14ZM308.78 239.286C310.222 239.286 311.3 238.138 311.3 236.304C311.3 234.498 310.222 233.35 308.78 233.35C307.352 233.35 306.274 234.498 306.274 236.304C306.274 238.138 307.352 239.286 308.78 239.286ZM319.594 232.622L316.752 240H315.73L312.916 232.622H313.966L316.276 238.852L318.586 232.622H319.594ZM323.661 240.14C321.589 240.14 320.217 238.586 320.217 236.248C320.217 234.092 321.645 232.482 323.605 232.482C325.705 232.482 327.077 234.176 326.909 236.542H321.197C321.281 238.292 322.205 239.37 323.647 239.37C324.879 239.37 325.733 238.684 325.971 237.508H326.937C326.601 239.146 325.355 240.14 323.661 240.14ZM323.591 233.238C322.261 233.238 321.323 234.26 321.197 235.87H325.887C325.803 234.218 324.949 233.238 323.591 233.238Z" fill="#ED5048"/>
<path d="M264.334 232.5V240.833H257.667V232.5H264.334ZM263.084 227.5H258.917L258.084 228.333H255.167V230H266.834V228.333H263.917L263.084 227.5ZM266 230.833H256V240.833C256 241.75 256.75 242.5 257.667 242.5H264.334C265.25 242.5 266 241.75 266 240.833V230.833Z" fill="#ED5048"/>
</svg>
