<svg width="153" height="31" viewBox="0 0 153 31" fill="none" xmlns="http://www.w3.org/2000/svg">
<g clip-path="url(#clip0_330_928)">
<path d="M38.5469 9.7704V1.4624H43.7796V9.7704H49.0122V15.3085H43.7796V18.0784C43.7796 19.6065 44.2913 20.9122 45.313 21.9935C46.3347 23.0749 47.5684 23.6165 49.0122 23.6165V29.1545C47.6218 29.1545 46.2865 28.8737 45.0063 28.3102C43.7244 27.7486 42.5941 26.948 41.6138 25.9086C40.6334 24.8692 39.877 23.673 39.3446 22.3163C38.8139 20.9614 38.5469 19.5463 38.5469 18.0766V15.3066H35.9297V9.76858H38.5469V9.7704Z" fill="#0D0D0D"/>
<path d="M56.0256 18.0784V29.1545H50.793V18.0784C50.793 16.6068 51.0583 15.1936 51.5907 13.8387C52.1214 12.4838 52.8778 11.2858 53.8599 10.2464C54.8402 9.20878 55.9722 8.40825 57.2524 7.84478C58.5326 7.28314 59.8696 7.00049 61.2583 7.00049V12.5385C59.8145 12.5385 58.5808 13.0801 57.5591 14.1615C56.5374 15.2428 56.0256 16.5485 56.0256 18.0766V18.0784Z" fill="#0D0D0D"/>
<path d="M71.8286 29.1544C70.4382 29.1544 69.1029 28.8736 67.8227 28.3101C66.5408 27.7485 65.4105 26.9479 64.4302 25.9085C63.4498 24.8691 62.6934 23.6729 62.161 22.3162C61.6303 20.9613 61.3633 19.5462 61.3633 18.0765C61.3633 16.6067 61.6286 15.1917 62.161 13.8368C62.6917 12.4819 63.4481 11.2838 64.4302 10.2444C65.4105 9.20683 66.5425 8.4063 67.8227 7.84283C69.1029 7.28118 70.4399 6.99854 71.8286 6.99854C73.2173 6.99854 74.5544 7.27936 75.8345 7.84283C77.1147 8.40448 78.2467 9.20501 79.2271 10.2444C80.2074 11.2838 80.9638 12.4801 81.4962 13.8368C82.0269 15.1935 82.294 16.6067 82.294 18.0765C82.294 19.5462 82.0286 20.9613 81.4962 22.3162C80.9655 23.6729 80.2092 24.8691 79.2271 25.9085C78.2467 26.9461 77.1147 27.7467 75.8345 28.3101C74.5526 28.8718 73.2173 29.1544 71.8286 29.1544ZM71.8286 23.6164C73.2725 23.6164 74.5061 23.0748 75.5278 21.9934C76.5496 20.9121 77.0613 19.6064 77.0613 18.0783C77.0613 16.5502 76.5496 15.2445 75.5278 14.1632C74.5061 13.0818 73.2725 12.5402 71.8286 12.5402C70.3848 12.5402 69.1511 13.0818 68.1294 14.1632C67.1077 15.2445 66.5959 16.5502 66.5959 18.0783C66.5959 19.6064 67.1077 20.9121 68.1294 21.9934C69.1511 23.0748 70.3848 23.6164 71.8286 23.6164Z" fill="#0D0D0D"/>
<path d="M93.7036 29.1544C92.3132 29.1544 90.9779 28.8736 89.6977 28.3101C88.4158 27.7485 87.2855 26.9479 86.3052 25.9085C85.3248 24.8691 84.5684 23.6729 84.036 22.3162C83.5053 20.9613 83.2383 19.5462 83.2383 18.0765C83.2383 16.6067 83.5036 15.1917 84.036 13.8368C84.5667 12.4819 85.3231 11.2838 86.3052 10.2444C87.2855 9.20683 88.4175 8.4063 89.6977 7.84283C90.9779 7.28118 92.3149 6.99854 93.7036 6.99854C95.0923 6.99854 96.4294 7.27936 97.7095 7.84283C98.9897 8.40448 100.122 9.20501 101.102 10.2444C102.082 11.2838 102.839 12.4801 103.371 13.8368C103.902 15.1935 104.169 16.6067 104.169 18.0765C104.169 19.5462 103.904 20.9613 103.371 22.3162C102.841 23.6729 102.084 24.8691 101.102 25.9085C100.122 26.9461 98.9897 27.7467 97.7095 28.3101C96.4276 28.8718 95.0923 29.1544 93.7036 29.1544ZM93.7036 23.6164C95.1475 23.6164 96.3811 23.0748 97.4028 21.9934C98.4246 20.9121 98.9363 19.6064 98.9363 18.0783C98.9363 16.5502 98.4246 15.2445 97.4028 14.1632C96.3811 13.0818 95.1475 12.5402 93.7036 12.5402C92.2598 12.5402 91.0261 13.0818 90.0044 14.1632C88.9827 15.2445 88.4709 16.5502 88.4709 18.0783C88.4709 19.6064 88.9827 20.9121 90.0044 21.9934C91.0261 23.0748 92.2598 23.6164 93.7036 23.6164Z" fill="#0D0D0D"/>
<path d="M113.026 18.8932L113.017 19.7334H111.949V13.2427H113.051V15.9727C113.299 15.4491 113.811 15.0873 114.495 15.0873C115.698 15.0873 116.461 16.1179 116.461 17.4651C116.461 18.8123 115.7 19.8334 114.479 19.8334C113.753 19.8334 113.258 19.4454 113.026 18.8932ZM115.35 17.4651C115.35 16.7058 114.949 16.0917 114.196 16.0917C113.443 16.0917 113.051 16.7058 113.051 17.4651C113.051 18.2244 113.445 18.8289 114.196 18.8289C114.947 18.8289 115.35 18.2244 115.35 17.4651Z" fill="#0D0D0D"/>
<path d="M120.866 19.7331H119.816L119.807 18.9834C119.611 19.4547 119.184 19.8141 118.543 19.8141C117.63 19.8141 117.09 19.1643 117.09 18.1789V15.187H118.192V17.898C118.192 18.4217 118.43 18.7739 118.934 18.7739C119.438 18.7739 119.762 18.4407 119.762 17.7267V15.187H120.864V19.7331H120.866Z" fill="#0D0D0D"/>
<path d="M121.797 13.2451H122.915V14.4566H121.797V13.2451ZM121.806 15.1897H122.908V19.7358H121.806V15.1897Z" fill="#0D0D0D"/>
<path d="M123.848 13.2451H124.95V19.7358H123.848V13.2451Z" fill="#0D0D0D"/>
<path d="M128.315 15.1871V16.1273H127.145V18.0624C127.145 18.5598 127.377 18.7574 127.854 18.7574C128 18.7574 128.196 18.7121 128.349 18.6312V19.5714C128.178 19.7166 127.827 19.788 127.528 19.788C126.538 19.788 126.041 19.2263 126.041 18.3147V16.1273H125.461V15.875L126.81 14.2041H127.143V15.1895H128.313L128.315 15.1871Z" fill="#0D0D0D"/>
<path d="M132.173 13.1997C132.429 13.1997 132.677 13.2449 132.814 13.3354L132.985 14.3112C132.848 14.2565 132.677 14.2208 132.463 14.2208C132.036 14.2208 131.806 14.4017 131.806 14.8444V15.1872H132.899V16.1273H131.806V19.7333H130.705V16.1273H129.996L130.149 15.1872H130.705V14.8349C130.705 13.5234 131.584 13.1997 132.173 13.1997Z" fill="#0D0D0D"/>
<path d="M137.657 17.4555C137.657 18.8217 136.803 19.8785 135.352 19.8785C133.902 19.8785 133.045 18.8217 133.045 17.4555C133.045 16.0893 133.899 15.042 135.352 15.042C136.805 15.042 137.657 16.0988 137.657 17.4555ZM134.156 17.4555C134.156 18.2076 134.565 18.8669 135.352 18.8669C136.139 18.8669 136.549 18.2076 136.549 17.4555C136.549 16.7034 136.139 16.0536 135.352 16.0536C134.565 16.0536 134.156 16.7034 134.156 17.4555Z" fill="#0D0D0D"/>
<path d="M140.321 16.3439C139.799 16.3439 139.442 16.6319 139.442 17.484V19.7333H138.34V15.1871H139.381L139.39 16.1725C139.579 15.5751 139.928 15.1157 140.544 15.1157C140.739 15.1157 140.937 15.1871 141.057 15.3252L140.852 16.4915C140.708 16.401 140.51 16.3463 140.323 16.3463L140.321 16.3439Z" fill="#0D0D0D"/>
<path d="M113.932 25.6383C113.411 25.6383 113.053 25.9263 113.053 26.7784V29.0277H111.951V24.4816H112.992L113.001 25.467C113.19 24.8695 113.539 24.4102 114.155 24.4102C114.353 24.4102 114.549 24.4816 114.668 24.6196L114.463 25.7859C114.319 25.6954 114.121 25.6407 113.935 25.6407L113.932 25.6383Z" fill="#0D0D0D"/>
<path d="M117.33 29.1441C115.639 29.1441 114.793 28.1326 114.793 26.7402C114.793 25.4668 115.58 24.3647 116.97 24.3647C118.182 24.3647 118.89 25.412 118.89 26.633C118.89 26.7949 118.882 27.021 118.857 27.1662H115.935C116.073 27.8089 116.558 28.1611 117.447 28.1611C117.926 28.1611 118.411 28.0064 118.693 27.7898V28.8109C118.384 29.0275 117.789 29.1441 117.325 29.1441H117.33ZM116.929 25.3382C116.374 25.3382 116.016 25.7262 115.922 26.3522H117.818C117.75 25.7381 117.424 25.3382 116.929 25.3382Z" fill="#0D0D0D"/>
<path d="M122.191 25.6931C121.868 25.4479 121.465 25.3598 121.157 25.3598C120.714 25.3598 120.5 25.5027 120.5 25.7478C120.5 25.9287 120.577 26.0192 120.901 26.1548L121.584 26.4452C122.207 26.707 122.549 27.0331 122.549 27.6924C122.549 28.6064 121.874 29.1562 120.833 29.1562C120.354 29.1562 119.783 29.0301 119.509 28.7587V27.7091C119.988 28.0804 120.455 28.1803 120.84 28.1803C121.258 28.1803 121.472 28.0352 121.472 27.7733C121.472 27.5734 121.362 27.502 121.036 27.3663L120.336 27.0759C119.772 26.8427 119.414 26.5071 119.414 25.8097C119.414 24.96 120.089 24.3721 121.242 24.3721C121.685 24.3721 122.147 24.4887 122.43 24.7053L122.191 25.6907V25.6931Z" fill="#0D0D0D"/>
<path d="M125.641 24.4815V25.4217H124.472V27.3568C124.472 27.8543 124.703 28.0518 125.18 28.0518C125.326 28.0518 125.522 28.0066 125.675 27.9257V28.8658C125.504 29.011 125.153 29.0824 124.854 29.0824C123.864 29.0824 123.367 28.5207 123.367 27.6091V25.4217H122.787V25.1694L124.136 23.4985H124.469V24.4839H125.639L125.641 24.4815Z" fill="#0D0D0D"/>
<path d="M129.604 29.0279H128.572L128.563 28.2686C128.367 28.7922 127.989 29.0993 127.427 29.0993C126.581 29.0993 126.053 28.4757 126.053 27.7426C126.053 26.4954 127.094 26.3335 127.958 26.2502L128.522 26.1955V26.0955C128.522 25.6337 128.104 25.391 127.506 25.391C127.054 25.391 126.617 25.5171 126.199 25.7623L126.464 24.696C126.883 24.4698 127.335 24.3984 127.753 24.3984C128.751 24.3984 129.606 24.8959 129.606 26.0693V29.0255L129.604 29.0279ZM127.784 28.1782C128.178 28.1782 128.518 27.8354 128.518 27.2737V26.9571L127.91 27.0214C127.398 27.0761 127.15 27.238 127.15 27.6093C127.15 27.9259 127.346 28.1782 127.782 28.1782H127.784Z" fill="#0D0D0D"/>
<path d="M134.188 29.0276H133.138L133.129 28.2778C132.933 28.7491 132.506 29.1085 131.865 29.1085C130.952 29.1085 130.412 28.4587 130.412 27.4733V24.4814H131.514V27.1925C131.514 27.7161 131.752 28.0684 132.256 28.0684C132.76 28.0684 133.084 27.7351 133.084 27.0211V24.4814H134.186V29.0276H134.188Z" fill="#0D0D0D"/>
<path d="M137.11 25.6383C136.588 25.6383 136.231 25.9263 136.231 26.7784V29.0277H135.129V24.4816H136.17L136.179 25.467C136.368 24.8695 136.717 24.4102 137.333 24.4102C137.531 24.4102 137.726 24.4816 137.846 24.6196L137.641 25.7859C137.497 25.6954 137.299 25.6407 137.112 25.6407L137.11 25.6383Z" fill="#0D0D0D"/>
<path d="M141.491 29.0279H140.458L140.449 28.2686C140.254 28.7922 139.876 29.0993 139.314 29.0993C138.468 29.0993 137.939 28.4757 137.939 27.7426C137.939 26.4954 138.981 26.3335 139.844 26.2502L140.409 26.1955V26.0955C140.409 25.6337 139.99 25.391 139.392 25.391C138.94 25.391 138.504 25.5171 138.086 25.7623L138.351 24.696C138.769 24.4698 139.221 24.3984 139.64 24.3984C140.638 24.3984 141.493 24.8959 141.493 26.0693V29.0255L141.491 29.0279ZM139.671 28.1782C140.065 28.1782 140.404 27.8354 140.404 27.2737V26.9571L139.797 27.0214C139.284 27.0761 139.037 27.238 139.037 27.6093C139.037 27.9259 139.233 28.1782 139.669 28.1782H139.671Z" fill="#0D0D0D"/>
<path d="M144.292 25.4386C143.761 25.4386 143.455 25.8004 143.455 26.4692V29.0279H142.354V24.4817H143.422L143.431 25.222C143.662 24.7079 144.114 24.3984 144.71 24.3984C145.608 24.3984 146.145 25.0482 146.145 26.0336V29.0255H145.043V26.3311C145.043 25.798 144.805 25.4362 144.292 25.4362V25.4386Z" fill="#0D0D0D"/>
<path d="M149.459 24.4815V25.4217H148.29V27.3568C148.29 27.8543 148.522 28.0518 148.998 28.0518C149.145 28.0518 149.34 28.0066 149.493 27.9257V28.8658C149.322 29.011 148.971 29.0824 148.672 29.0824C147.683 29.0824 147.186 28.5207 147.186 27.6091V25.4217H146.605V25.1694L147.955 23.4985H148.288V24.4839H149.457L149.459 24.4815Z" fill="#0D0D0D"/>
<path d="M152.705 25.6931C152.381 25.4479 151.979 25.3598 151.671 25.3598C151.228 25.3598 151.014 25.5027 151.014 25.7478C151.014 25.9287 151.09 26.0192 151.414 26.1548L152.098 26.4452C152.721 26.707 153.063 27.0331 153.063 27.6924C153.063 28.6064 152.388 29.1562 151.347 29.1562C150.868 29.1562 150.297 29.0301 150.022 28.7587V27.7091C150.501 28.0804 150.969 28.1803 151.354 28.1803C151.772 28.1803 151.986 28.0352 151.986 27.7733C151.986 27.5734 151.875 27.502 151.549 27.3663L150.85 27.0759C150.285 26.8427 149.928 26.5071 149.928 25.8097C149.928 24.96 150.602 24.3721 151.756 24.3721C152.199 24.3721 152.66 24.4887 152.944 24.7053L152.705 25.6907V25.6931Z" fill="#0D0D0D"/>
<path d="M109.209 12.3999H108.301V29.1539H109.209V12.3999Z" fill="#0D0D0D"/>
<path d="M-0.000230152 18.2134C1.36264 25.4966 7.43095 30.9891 14.714 30.9891C23.0015 30.9891 29.7176 23.8791 29.7176 15.1098C29.7176 8.46664 25.865 2.77905 20.3946 0.412109C24.1955 3.02705 26.7076 7.56035 26.7076 12.7155C26.7076 20.8156 20.5031 27.3803 12.8497 27.3803C7.03467 27.3803 2.05355 23.5873 -0.00195312 18.2134H-0.000230152Z" fill="#0D0D0D"/>
<path d="M0.990234 14.6612C2.03608 20.3451 6.76736 24.6359 12.4446 24.6359C18.8902 24.6359 24.1143 19.1051 24.1143 12.2851C24.1125 5.89 19.5191 0.629118 13.6317 0C17.5359 1.49347 20.3254 5.45053 20.3254 10.0987C20.3254 16.0306 15.782 20.8393 10.1771 20.8393C6.11263 20.8393 2.60983 18.3119 0.990234 14.6612Z" fill="#0D0D0D"/>
<path d="M1.78516 9.6517C1.78516 13.5176 4.18353 16.7908 7.48992 17.8995C5.83587 16.5136 4.77624 14.3655 4.77624 11.9603C4.77624 7.77347 7.98097 4.3817 11.9369 4.3817C14.4542 4.3817 16.6682 5.75664 17.9466 7.83729C17.1575 3.93129 13.8787 1.00635 9.95549 1.00635C5.44303 1.00635 1.78516 4.87588 1.78516 9.6517Z" fill="#0D0D0D"/>
</g>
<defs>
<clipPath id="clip0_330_928">
<rect width="153" height="31" fill="white"/>
</clipPath>
</defs>
</svg>
