<svg width="64" height="64" viewBox="0 0 64 64" fill="none" xmlns="http://www.w3.org/2000/svg">
<rect width="64" height="64" rx="32" fill="#ED5048"/>
<path d="M13.6665 47L31.9998 15.3334L50.3332 47H13.6665ZM19.4165 43.6667H44.5832L31.9998 22L19.4165 43.6667ZM31.9998 42C32.4721 42 32.8679 41.8403 33.1873 41.5209C33.5068 41.2014 33.6665 40.8056 33.6665 40.3334C33.6665 39.8612 33.5068 39.4653 33.1873 39.1459C32.8679 38.8264 32.4721 38.6667 31.9998 38.6667C31.5276 38.6667 31.1318 38.8264 30.8123 39.1459C30.4929 39.4653 30.3332 39.8612 30.3332 40.3334C30.3332 40.8056 30.4929 41.2014 30.8123 41.5209C31.1318 41.8403 31.5276 42 31.9998 42ZM30.3332 37H33.6665V28.6667H30.3332V37Z" fill="white"/>
</svg>
