<svg width="41" height="40" viewBox="0 0 41 40" fill="none" xmlns="http://www.w3.org/2000/svg">
<g id="add-square-svgrepo-com 1">
<path id="Vector" d="M25.5 20H20.5M20.5 20H15.5M20.5 20V25M20.5 20V15" stroke="#FFFFFF" stroke-width="4" stroke-linecap="round"/>
<path id="Vector_2" d="M37.1668 19.9993C37.1668 12.1427 37.1668 8.21418 34.726 5.77352C32.2853 3.33268 28.3568 3.33268 20.5002 3.33268C12.6434 3.33268 8.71505 3.33268 6.27428 5.77352C3.8335 8.21418 3.8335 12.1427 3.8335 19.9993C3.8335 27.8561 3.8335 31.7845 6.27428 34.2252C8.71505 36.666 12.6434 36.666 20.5002 36.666C28.3568 36.666 32.2853 36.666 34.726 34.2252C36.349 32.6023 36.8928 30.3218 37.075 26.666" stroke="#FFFFFF" stroke-width="4" stroke-linecap="round"/>
</g>
</svg>
