<svg xmlns="http://www.w3.org/2000/svg" width="24" height="24" viewBox="0 0 24 24" fill="none">
  <path d="M10.88 17.715C10.9729 17.6222 11.0467 17.5119 11.097 17.3905C11.1473 17.2691 11.1732 17.1389 11.1732 17.0075C11.1732 16.8761 11.1473 16.746 11.097 16.6246C11.0467 16.5032 10.9729 16.3929 10.88 16.3L7.58796 13.007L18 13C18.2652 13 18.5195 12.8947 18.7071 12.7071C18.8946 12.5196 19 12.2652 19 12C19 11.7348 18.8946 11.4805 18.7071 11.2929C18.5195 11.1054 18.2652 11 18 11L7.58596 11.007L10.88 7.71503C11.0676 7.52752 11.1731 7.27315 11.1732 7.00788C11.1733 6.74261 11.068 6.48817 10.8805 6.30053C10.6929 6.11289 10.4386 6.00742 10.1733 6.00732C9.90804 6.00723 9.6536 6.11252 9.46596 6.30003L5.87996 9.88603C5.60133 10.1646 5.3803 10.4953 5.22951 10.8594C5.07871 11.2234 5.0011 11.6135 5.0011 12.0075C5.0011 12.4015 5.07871 12.7917 5.22951 13.1557C5.3803 13.5197 5.60133 13.8504 5.87996 14.129L9.46596 17.715C9.65349 17.9025 9.90779 18.0078 10.173 18.0078C10.4381 18.0078 10.6924 17.9025 10.88 17.715Z" fill="#606060"/>
</svg>