<svg width="201" height="96" viewBox="0 0 201 96" fill="none" xmlns="http://www.w3.org/2000/svg">
<g clip-path="url(#clip0_6620_4965)">
<path fill-rule="evenodd" clip-rule="evenodd" d="M113.881 34.247V37.6952C113.881 49.9937 105.317 57.4647 94.0522 57.4647C81.4079 57.4647 72.3269 48.1546 72.3269 36.6033C72.3269 24.937 81.5803 15.627 93.42 15.627C101.122 15.627 107.616 19.4199 111.007 24.8221L103.191 29.3047C101.524 26.6611 97.903 24.5922 93.3625 24.5922C86.5806 24.5922 81.5228 29.592 81.5228 36.6608C81.5228 43.4996 86.3506 48.4994 94.1672 48.4994C99.5123 48.4994 103.018 46.1432 104.455 42.2928H93.7074V34.247H113.881ZM29.7448 27.9254H38.136V55.2234C38.136 64.8782 30.6069 68.9586 22.9628 68.9586C16.9855 68.9586 11.9852 66.7172 9.34139 62.0048L16.6981 57.752C17.7901 59.7634 19.4569 61.3726 23.2502 61.3726C27.2734 61.3726 29.7448 59.3037 29.7448 55.2234V52.5798C27.8481 54.936 25.0893 56.3153 21.3535 56.3153C13.1922 56.3153 7.21484 49.6488 7.21484 41.7181C7.21484 33.7873 13.1922 27.1208 21.3535 27.1208C25.0893 27.1208 27.8481 28.5001 29.7448 30.8563V27.9254ZM22.7904 48.3845C26.8711 48.3845 29.7448 45.6834 29.7448 41.7181C29.7448 37.7527 26.8711 35.0516 22.7904 35.0516C18.7097 35.0516 15.836 37.7527 15.836 41.7181C15.836 45.6834 18.7097 48.3845 22.7904 48.3845ZM133.721 27.3507C130.1 27.3507 126.249 29.1897 125.1 33.0402V27.9254H116.479V56.6601H125.1V43.672C125.1 37.9825 130.158 36.5458 133.721 37.1205V27.3507ZM154.016 27.9254H162.637V56.6601H154.016V53.959C152.464 56.0854 149.591 57.4647 145.797 57.4647C139.993 57.4647 135.05 53.3269 135.05 45.5685V27.9254H143.671V44.3042C143.671 47.8673 145.912 49.5339 148.671 49.5339C151.832 49.5339 154.016 47.6949 154.016 43.6145V27.9254ZM197.582 42.2928C197.582 33.7298 191.375 27.1208 183.846 27.1208C179.995 27.1208 177.179 28.4426 175.282 30.6265V16.4315H166.661V56.6601H175.282V53.959C177.179 56.1429 179.995 57.4647 183.846 57.4647C191.375 57.4647 197.582 50.8557 197.582 42.2928ZM188.961 42.2928C188.961 46.603 186.087 49.304 182.122 49.304C178.156 49.304 175.282 46.603 175.282 42.2928C175.282 37.9825 178.156 35.2815 182.122 35.2815C186.087 35.2815 188.961 37.9825 188.961 42.2928ZM47.5742 23.6839C47.3611 23.4935 47.1949 23.2705 47.0756 23.0149C46.9563 22.7592 46.8893 22.5007 46.8746 22.2391C46.8599 21.9776 46.8957 21.717 46.9821 21.4573C47.0685 21.1976 47.2108 20.961 47.409 20.7475L48.2022 19.8596C48.3079 19.7412 48.3848 19.6095 48.4327 19.4644C48.4806 19.3192 48.5005 19.172 48.4924 19.0225C48.4842 18.8731 48.448 18.7289 48.3835 18.5902C48.319 18.4514 48.2279 18.3291 48.1101 18.2233L47.5538 17.7261C47.4591 17.6415 47.4102 17.5393 47.407 17.4196C47.4039 17.2998 47.4448 17.1926 47.5297 17.0979C47.6146 17.0032 47.7184 16.9523 47.8413 16.9454C47.9641 16.9385 48.0732 16.9774 48.1685 17.0619L48.713 17.5485C48.926 17.7389 49.0901 17.9583 49.2051 18.2066C49.3201 18.455 49.3851 18.7099 49.4001 18.9714C49.4151 19.2329 49.3792 19.4918 49.2922 19.7479C49.2053 20.004 49.0667 20.2385 48.8763 20.4513L48.0831 21.3392C47.9703 21.4654 47.8897 21.6011 47.8416 21.7463C47.7934 21.8914 47.7736 22.0387 47.7823 22.1881C47.791 22.3375 47.8273 22.4836 47.8911 22.6263C47.9549 22.769 48.0502 22.8966 48.177 23.0091L48.7334 23.5062C48.8281 23.5909 48.8789 23.6949 48.8858 23.8183C48.8928 23.9417 48.8539 24.0507 48.7693 24.1451C48.6847 24.2395 48.5807 24.2903 48.4573 24.2976C48.3339 24.3048 48.2249 24.2659 48.1305 24.181L47.5742 23.6839ZM45.3328 23.81C45.1197 23.6196 44.9555 23.3984 44.84 23.1465C44.7244 22.8945 44.6595 22.6375 44.645 22.3754C44.6306 22.1132 44.6663 21.8508 44.7523 21.5882C44.8382 21.3255 44.9767 21.0873 45.1676 20.8736L45.9608 19.9857C46.0666 19.8673 46.1434 19.7356 46.1913 19.5905C46.2392 19.4453 46.2591 19.2981 46.251 19.1486C46.2429 18.9992 46.2066 18.855 46.1421 18.7163C46.0777 18.5775 45.9865 18.4552 45.8688 18.3494L45.3124 17.8522C45.2256 17.7747 45.1768 17.6744 45.166 17.5515C45.1552 17.4286 45.1922 17.3196 45.2771 17.2246C45.3542 17.1303 45.4562 17.0778 45.583 17.0671C45.7098 17.0563 45.8206 17.0931 45.9153 17.1775L46.4716 17.6746C46.6847 17.865 46.8487 18.0844 46.9637 18.3327C47.0787 18.5811 47.1437 18.836 47.1588 19.0975C47.1738 19.359 47.1377 19.6179 47.0504 19.874C46.9632 20.1302 46.8247 20.3646 46.6349 20.5774L45.8417 21.4653C45.7289 21.5915 45.6484 21.7272 45.6002 21.8724C45.552 22.0175 45.5323 22.1648 45.541 22.3142C45.5497 22.4636 45.5859 22.6097 45.6497 22.7524C45.7135 22.8951 45.8088 23.0227 45.9357 23.1352L46.492 23.6323C46.5867 23.717 46.6375 23.821 46.6445 23.9444C46.6514 24.0678 46.6126 24.1768 46.528 24.2712C46.4433 24.3656 46.3393 24.4164 46.2159 24.4236C46.0925 24.4309 45.9836 24.392 45.8892 24.3071L45.3328 23.81ZM43.0908 23.9249C42.8778 23.7345 42.7136 23.5151 42.5983 23.2668C42.483 23.0184 42.4181 22.7634 42.4037 22.5019C42.3893 22.2404 42.425 21.978 42.511 21.7147C42.5969 21.4514 42.7353 21.2131 42.9263 20.9997L43.7188 20.1006C43.8246 19.9822 43.9014 19.8505 43.9493 19.7053C43.9972 19.5602 44.0171 19.413 44.009 19.2635C44.0009 19.1141 43.9646 18.9699 43.9002 18.8311C43.8357 18.6924 43.7446 18.5701 43.6268 18.4643L43.0704 17.9671C42.9836 17.8896 42.9348 17.7893 42.924 17.6664C42.9132 17.5435 42.9502 17.4345 43.0351 17.3395C43.1127 17.2527 43.215 17.2057 43.342 17.1986C43.469 17.1914 43.5759 17.2266 43.6627 17.3042L44.2303 17.8007C44.4433 17.9911 44.6074 18.2105 44.7224 18.4588C44.8374 18.7072 44.9024 18.9621 44.9174 19.2236C44.9324 19.4851 44.8963 19.744 44.8091 20.0001C44.7219 20.2563 44.5834 20.4907 44.3936 20.7035L43.6004 21.5914C43.4875 21.7176 43.4072 21.8553 43.3592 22.0043C43.3112 22.1533 43.2915 22.3024 43.3002 22.4515C43.3089 22.6006 43.3451 22.7447 43.4087 22.8839C43.4722 23.023 43.5675 23.1488 43.6943 23.2613L44.2507 23.7584C44.3454 23.8431 44.3943 23.9452 44.3974 24.065C44.4006 24.1847 44.3597 24.292 44.2748 24.3867C44.1897 24.4739 44.0876 24.5229 43.9682 24.5335C43.8489 24.5441 43.7419 24.5069 43.6472 24.422L43.0908 23.9249ZM49.5095 27.5155C48.6353 27.9171 47.8056 28.3988 47.0297 28.9513C47.1083 29.0125 47.1828 29.081 47.2523 29.1569L56.7588 39.5379C57.0165 38.9955 57.1701 38.4044 57.2055 37.7946C57.2761 36.5793 56.8715 35.3833 56.0759 34.4576L49.5095 27.5155ZM44.404 31.3218C43.775 32.0375 43.212 32.8125 42.7244 33.6374L49.0794 40.8057C49.9322 41.6801 51.0932 42.1929 52.3194 42.2337C52.931 42.2541 53.5343 42.1562 54.0983 41.9518L44.603 31.5831C44.5275 31.5007 44.4612 31.4132 44.404 31.3218ZM41.1661 37.2949C40.8033 38.5993 40.6094 39.9741 40.6094 41.3941C40.6094 49.8249 47.4445 56.6594 55.876 56.6594C59.2426 56.6594 62.3548 55.5698 64.8789 53.7239L56.6331 44.7198C55.2969 45.4873 53.7624 45.8756 52.1987 45.8235C50.0282 45.7512 47.971 44.836 46.4667 43.2717C46.4499 43.2542 46.4334 43.2364 46.4173 43.2183L41.1661 37.2949ZM67.5105 51.2785C69.7757 48.6152 71.1426 45.1643 71.1426 41.3941C71.1426 32.9633 64.3075 26.1288 55.876 26.1288C55.0123 26.1288 54.1654 26.2005 53.3409 26.3383L58.7128 32.0176C58.7294 32.0352 58.7457 32.0532 58.7617 32.0715C60.188 33.7074 60.9171 35.8356 60.7913 38.0017C60.701 39.5585 60.1742 41.0451 59.2888 42.3006L67.5105 51.2785Z" fill="black"/>
</g>
<path d="M162.264 82.675V77.8496H165.286V82.675H168.308V85.8916H165.286V87.5004C165.286 88.388 165.581 89.1463 166.171 89.7744C166.762 90.4025 167.474 90.717 168.308 90.717V93.9336C167.505 93.9336 166.734 93.7705 165.994 93.4433C165.254 93.117 164.601 92.6521 164.035 92.0484C163.469 91.4447 163.032 90.7499 162.724 89.9619C162.418 89.1749 162.264 88.3531 162.264 87.4994V85.8906H160.752V82.674H162.264V82.675Z" fill="#0D0D0D"/>
<path d="M172.358 87.5007V93.9338H169.336V87.5007C169.336 86.6459 169.489 85.8251 169.797 85.0382C170.103 84.2512 170.54 83.5554 171.107 82.9517C171.673 82.349 172.327 81.8841 173.067 81.5568C173.806 81.2306 174.578 81.0664 175.38 81.0664V84.283C174.546 84.283 173.834 84.5976 173.244 85.2256C172.654 85.8537 172.358 86.612 172.358 87.4996V87.5007Z" fill="#0D0D0D"/>
<path d="M181.487 93.9329C180.684 93.9329 179.912 93.7698 179.173 93.4426C178.433 93.1164 177.78 92.6514 177.214 92.0477C176.647 91.444 176.211 90.7492 175.903 89.9612C175.597 89.1743 175.442 88.3524 175.442 87.4987C175.442 86.645 175.596 85.8231 175.903 85.0362C176.21 84.2493 176.646 83.5534 177.214 82.9497C177.78 82.3471 178.434 81.8821 179.173 81.5548C179.912 81.2286 180.685 81.0645 181.487 81.0645C182.289 81.0645 183.061 81.2276 183.8 81.5548C184.54 81.881 185.194 82.346 185.76 82.9497C186.326 83.5534 186.763 84.2482 187.07 85.0362C187.377 85.8242 187.531 86.645 187.531 87.4987C187.531 88.3524 187.378 89.1743 187.07 89.9612C186.764 90.7492 186.327 91.444 185.76 92.0477C185.194 92.6503 184.54 93.1153 183.8 93.4426C183.06 93.7688 182.289 93.9329 181.487 93.9329ZM181.487 90.7163C182.321 90.7163 183.033 90.4018 183.623 89.7737C184.213 89.1457 184.509 88.3873 184.509 87.4998C184.509 86.6122 184.213 85.8539 183.623 85.2258C183.033 84.5977 182.321 84.2832 181.487 84.2832C180.653 84.2832 179.94 84.5977 179.35 85.2258C178.76 85.8539 178.465 86.6122 178.465 87.4998C178.465 88.3873 178.76 89.1457 179.35 89.7737C179.94 90.4018 180.653 90.7163 181.487 90.7163Z" fill="#0D0D0D"/>
<path d="M194.12 93.9329C193.317 93.9329 192.545 93.7698 191.806 93.4426C191.066 93.1164 190.413 92.6514 189.847 92.0477C189.28 91.444 188.843 90.7492 188.536 89.9612C188.229 89.1743 188.075 88.3524 188.075 87.4987C188.075 86.645 188.228 85.8231 188.536 85.0362C188.842 84.2493 189.279 83.5534 189.847 82.9497C190.413 82.3471 191.067 81.8821 191.806 81.5548C192.545 81.2286 193.318 81.0645 194.12 81.0645C194.922 81.0645 195.694 81.2276 196.433 81.5548C197.173 81.881 197.826 82.346 198.393 82.9497C198.959 83.5534 199.396 84.2482 199.703 85.0362C200.01 85.8242 200.164 86.645 200.164 87.4987C200.164 88.3524 200.011 89.1743 199.703 89.9612C199.397 90.7492 198.96 91.444 198.393 92.0477C197.826 92.6503 197.173 93.1153 196.433 93.4426C195.693 93.7688 194.922 93.9329 194.12 93.9329ZM194.12 90.7163C194.954 90.7163 195.666 90.4018 196.256 89.7737C196.846 89.1457 197.142 88.3873 197.142 87.4998C197.142 86.6122 196.846 85.8539 196.256 85.2258C195.666 84.5977 194.954 84.2832 194.12 84.2832C193.286 84.2832 192.573 84.5977 191.983 85.2258C191.393 85.8539 191.097 86.6122 191.097 87.4998C191.097 88.3873 191.393 89.1457 191.983 89.7737C192.573 90.4018 193.286 90.7163 194.12 90.7163Z" fill="#0D0D0D"/>
<path d="M140 87.5776C140.787 91.8077 144.292 94.9979 148.498 94.9979C153.285 94.9979 157.164 90.8683 157.164 85.7749C157.164 81.9165 154.939 78.613 151.779 77.2383C153.975 78.7571 155.425 81.3901 155.425 84.3843C155.425 89.0889 151.842 92.9018 147.422 92.9018C144.063 92.9018 141.186 90.6988 139.999 87.5776H140Z" fill="#0D0D0D"/>
<path d="M140.572 85.5154C141.176 88.8168 143.909 91.3089 147.188 91.3089C150.911 91.3089 153.928 88.0966 153.928 84.1354C153.927 80.421 151.274 77.3654 147.873 77C150.128 77.8674 151.74 80.1658 151.74 82.8655C151.74 86.3109 149.115 89.1038 145.878 89.1038C143.531 89.1038 141.508 87.6358 140.572 85.5154Z" fill="#0D0D0D"/>
<path d="M141.031 82.6053C141.031 84.8507 142.416 86.7519 144.326 87.3958C143.371 86.5909 142.759 85.3432 142.759 83.9462C142.759 81.5144 144.61 79.5444 146.895 79.5444C148.348 79.5444 149.627 80.343 150.366 81.5515C149.91 79.2828 148.016 77.584 145.75 77.584C143.144 77.584 141.031 79.8315 141.031 82.6053Z" fill="#0D0D0D"/>
<path d="M59.582 87.234C59.582 89.418 58.252 91.14 56.222 91.14C55.438 91.14 54.766 90.86 54.178 90.3V93.702H51.784V83.468H53.982V84.322C54.598 83.678 55.34 83.328 56.222 83.328C58.252 83.328 59.582 85.078 59.582 87.234ZM57.09 87.234C57.09 86.058 56.376 85.484 55.648 85.484C54.906 85.484 54.206 86.058 54.206 87.248C54.206 88.452 54.92 88.984 55.648 88.984C56.376 88.984 57.09 88.438 57.09 87.234ZM64.3787 91.14C62.1527 91.14 60.4447 89.39 60.4447 87.234C60.4447 85.078 62.1527 83.328 64.3787 83.328C66.6047 83.328 68.3127 85.078 68.3127 87.234C68.3127 89.39 66.6047 91.14 64.3787 91.14ZM64.3787 88.998C65.1207 88.998 65.8207 88.41 65.8207 87.234C65.8207 86.058 65.1207 85.484 64.3787 85.484C63.6367 85.484 62.9367 86.058 62.9367 87.234C62.9367 88.41 63.6367 88.998 64.3787 88.998ZM75.5739 91L74.4119 86.73L73.2499 91H70.8559L68.7419 83.468H71.0799L72.1299 87.598L73.2359 83.468H75.6299L76.6799 87.598L77.7299 83.468H80.0819L77.9539 91H75.5739ZM84.3872 91.126C82.0632 91.126 80.5092 89.558 80.5092 87.22C80.5092 84.966 82.1332 83.328 84.3732 83.328C86.8652 83.328 88.5312 85.358 88.0972 87.836H82.9872C83.1132 88.788 83.5612 89.264 84.3312 89.264C85.0032 89.264 85.4512 88.984 85.6612 88.438H88.0552C87.5932 90.16 86.2632 91.126 84.3872 91.126ZM84.3172 85.092C83.6032 85.092 83.1832 85.498 83.0152 86.338H85.5352C85.5072 85.582 85.0312 85.092 84.3172 85.092ZM91.9007 87.528V91H89.5067V83.468H91.7047V84.798C92.2787 83.916 93.4687 83.412 94.6727 83.412V85.904C92.9787 85.736 91.9007 85.862 91.9007 87.528ZM99.1743 91.126C96.8503 91.126 95.2963 89.558 95.2963 87.22C95.2963 84.966 96.9203 83.328 99.1603 83.328C101.652 83.328 103.318 85.358 102.884 87.836H97.7743C97.9003 88.788 98.3483 89.264 99.1183 89.264C99.7903 89.264 100.238 88.984 100.448 88.438H102.842C102.38 90.16 101.05 91.126 99.1743 91.126ZM99.1043 85.092C98.3903 85.092 97.9703 85.498 97.8023 86.338H100.322C100.294 85.582 99.8183 85.092 99.1043 85.092ZM103.681 87.234C103.681 85.05 105.011 83.328 107.041 83.328C107.825 83.328 108.497 83.608 109.085 84.168V80.948H111.479V91H109.281V90.146C108.665 90.79 107.923 91.14 107.041 91.14C105.011 91.14 103.681 89.39 103.681 87.234ZM106.173 87.234C106.173 88.41 106.887 88.984 107.615 88.984C108.357 88.984 109.057 88.41 109.057 87.22C109.057 86.016 108.343 85.484 107.615 85.484C106.887 85.484 106.173 86.03 106.173 87.234ZM124.268 87.234C124.268 89.39 122.938 91.14 120.908 91.14C120.026 91.14 119.284 90.79 118.668 90.146V91H116.47V80.948H118.864V84.168C119.452 83.608 120.124 83.328 120.908 83.328C122.938 83.328 124.268 85.05 124.268 87.234ZM121.776 87.234C121.776 86.03 121.062 85.484 120.334 85.484C119.606 85.484 118.892 86.016 118.892 87.22C118.892 88.41 119.592 88.984 120.334 88.984C121.062 88.984 121.776 88.41 121.776 87.234ZM132.571 83.468L128.987 93.702H126.369L127.419 90.916L124.479 83.468H127.083L128.707 88.13L130.163 83.468H132.571Z" fill="#929292"/>
<defs>
<clipPath id="clip0_6620_4965">
<rect width="200" height="96" fill="white" transform="translate(0 -8)"/>
</clipPath>
</defs>
</svg>
