<svg width="36" height="36" viewBox="0 0 36 36" fill="none" xmlns="http://www.w3.org/2000/svg">
<g clip-path="url(#clip0_1_13160)">
<path d="M33 25.3499C32.4 25.3499 31.8 25.3499 31.35 25.3499C31.05 25.3499 31.05 25.3499 31.05 25.0499C31.05 24.1499 31.05 23.2499 31.05 22.3499C31.05 21.5999 30.9 21.4499 30.15 21.4499C26.7 21.4499 23.1 21.4499 19.65 21.4499C19.35 21.4499 19.35 21.4499 19.35 21.1499C19.35 20.5499 19.35 19.9499 19.35 19.1999C19.35 18.8999 19.5 18.8999 19.65 18.8999C23.1 18.8999 26.7 18.8999 30.15 18.8999C30.6 18.8999 31.2 18.8999 31.65 18.7499C33.9 17.9999 35.4 16.0499 35.25 13.6499C35.25 11.3999 33.6 9.4499 31.35 8.8499C31.2 8.8499 31.05 8.6999 31.05 8.5499C30.9 5.3999 28.05 3.1499 25.05 3.7499C24.9 3.7499 24.75 3.7499 24.6 3.5999C23.55 1.9499 22.05 0.899902 20.25 0.299902C19.95 0.299902 19.65 0.299902 19.35 0.149902C18.75 0.149902 18.3 0.149902 17.7 0.149902C17.7 0.299902 17.55 0.149902 17.55 0.299902C15.45 0.599902 13.95 1.6499 12.75 3.4499C12.6 3.4499 12.45 3.4499 12.45 3.4499C10.05 2.9999 7.95001 4.0499 6.90001 6.2999C6.90001 6.4499 6.75001 6.4499 6.60001 6.4499C5.40001 6.4499 4.20001 6.8999 3.30001 7.6499C1.50001 9.1499 0.600013 10.9499 0.750013 13.0499C0.750013 13.4999 1.05001 13.7999 1.50001 13.7999C1.95001 13.7999 2.10001 13.4999 2.10001 12.8999V12.7499C2.10001 10.0499 4.20001 7.7999 7.05001 7.7999C7.65001 7.7999 7.80001 7.6499 7.95001 7.1999C8.70001 5.2499 10.65 4.3499 12.6 4.9499C13.2 5.0999 13.35 5.0999 13.65 4.4999C14.85 2.5499 16.5 1.4999 18.75 1.6499C21 1.7999 22.65 2.8499 23.55 4.7999C23.85 5.3999 24.15 5.5499 24.75 5.2499C25.5 4.9499 26.25 4.9499 27.15 5.2499C28.8 5.8499 29.85 7.3499 29.7 9.1499C29.7 9.8999 29.85 10.1999 30.45 10.1999C32.85 10.3499 34.5 12.7499 33.75 14.9999C33.15 16.4999 31.8 17.5499 30.15 17.5499C22.5 17.5499 14.85 17.5499 7.20001 17.5499C6.45001 17.5499 5.70001 17.3999 4.95001 17.0999C4.50001 16.9499 4.05001 17.0999 3.90001 17.3999C3.75001 17.8499 3.90001 18.1499 4.35001 18.2999C5.25001 18.7499 6.15001 18.8999 7.05001 18.8999C10.5 18.8999 14.1 18.8999 17.55 18.8999C17.85 18.8999 17.85 19.0499 17.85 19.1999C17.85 19.7999 17.85 20.3999 17.85 20.9999C17.85 21.2999 17.85 21.4499 17.4 21.4499C13.8 21.4499 10.35 21.4499 6.75001 21.4499C6.15001 21.4499 6.00001 21.7499 5.85001 22.3499C5.85001 23.2499 5.85001 24.2999 5.85001 25.1999C5.85001 25.4999 5.85001 25.4999 5.55001 25.4999C4.65001 25.4999 3.60001 25.4999 2.70001 25.4999C2.10001 25.4999 1.80001 25.7999 1.80001 26.3999C1.80001 28.1999 1.80001 29.8499 1.80001 31.6499C1.80001 32.3999 1.95001 32.5499 2.70001 32.5499C3.60001 32.5499 4.50001 32.5499 5.55001 32.5499C5.70001 32.5499 5.85001 32.5499 5.85001 32.6999C6.00001 33.2999 5.85001 33.4499 5.25001 33.4499H5.10001C4.65001 33.4499 4.35001 33.7499 4.35001 34.1999C4.50001 34.1999 4.80001 34.4999 5.25001 34.4999C6.30001 34.4999 7.20001 34.4999 8.25001 34.4999C8.70001 34.4999 9.00001 34.1999 9.00001 33.7499C9.00001 33.4499 8.70001 33.1499 8.10001 33.1499C7.50001 33.1499 7.50001 33.1499 7.50001 32.5499C7.50001 32.2499 7.50001 32.2499 7.80001 32.2499C8.70001 32.2499 9.75001 32.2499 10.65 32.2499C11.25 32.2499 11.55 31.9499 11.55 31.3499C11.55 29.5499 11.55 27.8999 11.55 26.0999C11.55 25.4999 11.25 25.1999 10.65 25.1999C9.75001 25.1999 8.70001 25.1999 7.80001 25.1999C7.65001 25.1999 7.50001 25.1999 7.50001 24.8999C7.50001 24.1499 7.50001 23.5499 7.50001 22.7999C7.50001 22.6499 7.50001 22.6499 7.80001 22.6499C11.1 22.6499 14.4 22.6499 17.7 22.6499C17.85 22.6499 18 22.6499 18 22.9499C18 23.5499 18 24.2999 18 24.8999C18 25.1999 18 25.1999 17.7 25.1999C16.95 25.1999 16.05 25.1999 15.3 25.1999C14.7 25.1999 14.4 25.4999 14.4 26.0999C14.4 26.8499 14.4 27.7499 14.4 28.4999C14.55 30.1499 14.25 31.6499 13.65 33.1499C13.65 33.2999 13.5 33.2999 13.5 33.4499C13.2 34.0499 13.5 34.4999 14.25 34.4999C17.25 34.4999 20.25 34.4999 23.25 34.4999C23.85 34.4999 24.15 34.0499 24 33.4499C23.7 32.6999 23.4 31.9499 23.1 31.1999C23.1 31.0499 22.95 30.8999 22.95 30.5999C22.95 29.0999 22.95 27.5999 22.95 26.0999C22.95 25.4999 22.65 25.1999 22.05 25.1999C21.3 25.1999 20.4 25.1999 19.65 25.1999C19.35 25.1999 19.35 25.1999 19.35 24.8999C19.35 24.2999 19.35 23.5499 19.35 22.9499C19.35 22.6499 19.35 22.6499 19.65 22.6499C21.6 22.6499 23.7 22.6499 25.65 22.6499C26.85 22.6499 28.2 22.6499 29.4 22.6499C29.7 22.6499 29.7 22.6499 29.7 22.9499C29.7 23.5499 29.7 24.2999 29.7 24.8999C29.7 25.0499 29.7 25.1999 29.4 25.1999C28.8 25.1999 28.2 25.1999 27.6 25.1999C27 25.1999 26.85 25.4999 26.85 25.9499C26.85 28.9499 26.85 31.7999 26.85 34.7999C26.85 35.2499 27.15 35.5499 27.6 35.5499C29.4 35.5499 31.2 35.5499 33 35.5499C33.6 35.5499 33.75 35.2499 33.75 34.7999C33.75 31.7999 33.75 28.7999 33.75 25.9499C33.9 25.6499 33.6 25.3499 33 25.3499ZM9.75001 26.6999C10.05 26.6999 10.05 26.6999 10.05 26.9999C10.05 28.1999 10.05 29.3999 10.05 30.5999C10.05 30.8999 9.90001 30.8999 9.75001 30.8999C8.70001 30.8999 7.80001 30.8999 6.75001 30.8999C5.70001 30.8999 4.80001 30.8999 3.75001 30.8999C3.45001 30.8999 3.45001 30.8999 3.45001 30.5999C3.45001 29.3999 3.45001 28.1999 3.45001 26.9999C3.45001 26.6999 3.45001 26.6999 3.75001 26.6999C5.85001 26.6999 7.80001 26.6999 9.75001 26.6999ZM21.75 31.9499C21.9 32.2499 21.9 32.5499 22.05 32.9999C22.2 33.2999 22.05 33.2999 21.9 33.2999C20.25 33.2999 18.45 33.2999 16.8 33.2999C16.2 33.2999 15.6 33.2999 14.85 33.2999C15 32.8499 15.15 32.3999 15.3 31.9499C15.3 31.7999 15.45 31.7999 15.6 31.7999C17.55 31.7999 19.5 31.7999 21.45 31.7999C21.6 31.7999 21.75 31.7999 21.75 31.9499ZM21.3 26.6999C21.45 26.6999 21.6 26.6999 21.6 26.9999C21.6 28.0499 21.6 29.0999 21.6 30.1499C21.6 30.2999 21.45 30.4499 21.3 30.4499C20.4 30.4499 19.5 30.4499 18.6 30.4499C17.7 30.4499 16.8 30.4499 16.05 30.4499C15.9 30.4499 15.75 30.4499 15.75 30.1499C15.75 29.0999 15.75 28.0499 15.75 26.9999C15.75 26.8499 15.75 26.6999 16.05 26.6999C17.7 26.6999 19.5 26.6999 21.3 26.6999ZM32.4 34.1999C32.4 34.3499 32.4 34.4999 32.1 34.4999C30.9 34.4999 29.7 34.4999 28.5 34.4999C28.2 34.4999 28.2 34.3499 28.2 34.1999C28.2 32.9999 28.2 31.7999 28.2 30.5999C28.2 29.3999 28.2 28.1999 28.2 26.9999C28.2 26.8499 28.2 26.6999 28.5 26.6999C29.7 26.6999 30.9 26.6999 32.1 26.6999C32.25 26.6999 32.4 26.6999 32.4 26.9999C32.4 29.3999 32.4 31.7999 32.4 34.1999Z" fill="#5855B3"/>
<path d="M16.5 10.4997C16.5 9.14971 16.5 7.79971 16.5 6.44971C16.5 5.99971 16.2 5.69971 15.75 5.69971C15.3 5.69971 15.15 5.99971 15.15 6.44971C15.15 8.54971 15.15 10.4997 15.15 12.5997C15.15 12.7497 15.15 12.8997 15.15 13.0497C15 13.0497 14.85 12.8997 14.7 12.7497C14.4 12.4497 13.95 12.4497 13.8 12.7497C13.5 13.0497 13.5 13.4997 13.8 13.7997C14.4 14.3997 14.85 14.8497 15.45 15.4497C15.75 15.7497 16.05 15.7497 16.35 15.4497C16.95 14.8497 17.4 14.3997 18 13.7997C18.3 13.4997 18.3 13.0497 18 12.8997C17.7 12.5997 17.4 12.5997 17.1 12.8997C16.95 13.0497 16.8 13.0497 16.65 13.1997C16.5 12.2997 16.5 11.3997 16.5 10.4997Z" fill="#121212"/>
<path d="M21.15 8.5499C21.45 8.8499 21.9 8.8499 22.2 8.5499C22.5 8.2499 22.5 7.7999 22.2 7.4999C21.75 6.8999 21.15 6.4499 20.55 5.9999C20.25 5.6999 19.8 5.6999 19.65 5.9999C19.05 6.4499 18.6 7.0499 18.15 7.4999C17.85 7.7999 17.85 8.2499 18.15 8.5499C18.45 8.8499 18.75 8.8499 19.05 8.5499C19.2 8.3999 19.2 8.3999 19.5 8.2499C19.5 10.4999 19.5 12.5999 19.5 14.6999C19.5 14.8499 19.5 14.9999 19.5 15.1499C19.5 15.4499 19.8 15.7499 20.1 15.7499C20.4 15.7499 20.7 15.5999 20.85 15.2999C20.85 15.1499 20.85 14.9999 20.85 14.8499C20.85 12.7499 20.85 10.7999 20.85 8.6999C20.85 8.5499 20.85 8.5499 20.85 8.2499C21 8.2499 21.15 8.3999 21.15 8.5499Z" fill="#121212"/>
<path d="M3.15002 15.75C3.15002 15.3 2.85002 15 2.40002 15C2.10002 15 1.65002 15.3 1.65002 15.75C1.65002 16.05 1.95002 16.5 2.25002 16.5C2.85002 16.5 3.15002 16.2 3.15002 15.75Z" fill="#121212"/>
<path d="M31.05 32.25C30.9 32.25 30.6 32.25 30.45 32.25C30.3 32.25 30 32.25 29.85 32.25C29.4 32.25 29.1 32.55 29.1 33C29.1 33.3 29.4 33.75 29.7 33.75C30.15 33.75 30.6 33.75 31.05 33.75C31.5 33.75 31.65 33.45 31.65 33C31.65 32.55 31.5 32.25 31.05 32.25Z" fill="#121212"/>
</g>
<defs>
<clipPath id="clip0_1_13160">
<rect width="36" height="36" fill="white"/>
</clipPath>
</defs>
</svg>
