<svg width="40" height="40" viewBox="0 0 40 40" fill="none" xmlns="http://www.w3.org/2000/svg">
<path d="M38 24.3332C37.6667 24.4998 37.5 24.6665 37.1667 24.8332C37.1667 24.6665 37.1667 24.6665 37.1667 24.4998C37.3333 23.6665 37.5 22.8332 37.5 21.9998C37.8333 18.3332 37.1667 14.8332 35.3333 11.4998C31.5 4.49984 23.8333 0.666502 15.8333 1.99984C10.8333 2.83317 7 5.33317 4 9.33317C1 13.9998 -5.96046e-08 18.9998 1 24.1665C1.16667 24.9998 1.5 25.9998 1.83333 26.8332C2 27.1665 2.33333 27.3332 2.66667 27.3332C3 27.3332 3.33333 26.9998 3.33333 26.6665C3.33333 26.4998 3.33333 26.1665 3.16667 25.9998C2.16667 22.9998 1.83333 19.8332 2.5 16.8332C4 9.33317 10.6667 3.83317 18.1667 3.49984C23 3.33317 27.1667 4.6665 30.6667 7.99984C35 11.9998 36.6667 17.1665 36 22.9998C36 23.4998 35.8333 23.9998 35.6667 24.6665C35.5 24.3332 35.3333 23.9998 35 23.4998C34.6667 22.9998 34.3333 22.8332 33.8333 22.9998C33.3333 23.3332 33.3333 23.6665 33.5 24.1665C34 24.9998 34.5 25.9998 35 26.8332C35.3333 27.3332 35.6667 27.4998 36.3333 27.1665C37.1667 26.6665 38 26.1665 38.8333 25.6665C39 25.4998 39.3333 25.3332 39.3333 25.1665C39.3333 24.9998 39.3333 24.8332 39.3333 24.6665C39 23.9998 38.6667 23.9998 38 24.3332Z" fill="#5855B3"/>
<path d="M19.8333 9.16667C19.8333 8.66667 19.4999 8.5 19.1666 8.5C18.8333 8.5 18.3333 8.83333 18.3333 9.16667C18.3333 9.66667 18.6666 10 18.9999 10C19.4999 10 19.8333 9.66667 19.8333 9.16667Z" fill="#121212"/>
<path d="M33.8333 36.5C32.8333 36.5 31.8333 36.3333 30.8333 36.1667C28.6666 36 26.4999 35.8333 24.3333 35.6667C21.8333 35.5 19.3333 35.1667 16.8333 35C15.6666 35 14.3333 35 12.9999 34.6667C10.4999 34 7.99992 33.3333 5.49992 32.6667C4.49992 32.3333 3.99992 31.6667 4.33325 30.6667C4.49992 29.8333 5.33325 29.3333 6.33325 29.5C8.33325 30 10.3333 30.5 12.3333 31C12.4999 31 12.6666 31.1667 12.8333 31.3333C13.3333 32 13.9999 32.5 14.8333 32.5C16.8333 32.6667 18.6666 32.5 20.6666 32.5C21.1666 32.5 21.4999 32 21.3333 31.5C21.1666 31.1667 20.8333 31 20.4999 31C18.8333 31 17.1666 31 15.4999 31C14.6666 31 13.9999 30.3333 13.9999 29.5C13.9999 28.8333 14.4999 28 15.4999 28C17.6666 28 19.9999 28 22.1666 28C23.1666 28 24.1666 28.1667 24.9999 28.8333C25.6666 29.3333 26.3333 29.6667 27.1666 30C27.9999 30.5 28.6666 30.8333 29.6666 30.8333C31.1666 31 32.8333 30.8333 34.3333 31C34.4999 31 34.6666 31 34.8333 30.8333C35.1666 30.6667 35.1666 30.3333 35.1666 30C34.9999 29.6667 34.8333 29.5 34.4999 29.5C33.3333 29.5 32.3333 29.5 31.1666 29.5C30.1666 29.5 29.3333 29.3333 28.4999 29C28.3333 28.8333 28.3333 28.8333 28.4999 28.6667C31.1666 25.8333 32.1666 22.3333 31.4999 18.5C30.6666 13.8333 27.8333 10.6667 23.3333 9C22.8333 8.83333 22.3333 9 22.3333 9.5C22.1666 10 22.4999 10.3333 22.9999 10.5C23.6666 10.6667 24.1666 11 24.6666 11.1667C28.6666 13.3333 30.8333 17.5 30.1666 22C29.8333 24.3333 28.8333 26.1667 27.3333 27.8333C27.1666 28 27.1666 28.1667 26.9999 28C26.4999 27.6667 25.9999 27.5 25.4999 27.1667C29.4999 23.6667 29.4999 17.8333 25.9999 14.3333C22.6666 11.1667 17.4999 11 13.9999 14.1667C10.3333 17.5 10.3333 23.6667 14.3333 27C14.1666 27.1667 13.8333 27.3333 13.6666 27.6667C13.4999 27.8333 13.3333 28.1667 13.1666 28.5C10.1666 25.8333 8.83325 22.5 9.66659 18.5C10.4999 14.5 12.8333 11.8333 16.6666 10.5C16.4999 10.3333 16.6666 10 16.4999 9.5C16.3333 9 15.9999 8.83333 15.4999 9C8.49992 11.1667 5.16659 19.3333 8.33325 25.8333C8.99992 27 9.66659 28 10.6666 29H10.4999C9.16659 28.6667 7.66659 28.3333 6.33325 28C5.66659 27.8333 5.16659 27.8333 4.49992 28C3.16659 28.5 2.33325 29.6667 2.33325 31C2.33325 32.3333 3.16659 33.5 4.49992 33.8333C5.83325 34.1667 6.99992 34.5 8.33325 34.8333C10.6666 35.3333 12.8333 36.1667 15.1666 36.3333C17.9999 36.5 20.6666 36.8333 23.4999 37C25.6666 37.1667 27.9999 37.3333 30.1666 37.5C31.3333 37.6667 32.3333 37.6667 33.4999 37.8333C34.1666 37.8333 34.4999 37.5 34.3333 36.8333C34.4999 36.6667 34.1666 36.6667 33.8333 36.5ZM12.1666 19.1667C12.6666 16.3333 14.9999 14.1667 17.8333 13.5C21.8333 12.6667 25.4999 15.3333 26.1666 19.3333C26.6666 22.1667 25.3333 25 22.8333 26.5C22.6666 26.5 22.6666 26.6667 22.4999 26.6667C21.3333 26.6667 20.1666 26.6667 19.1666 26.6667C17.9999 26.6667 16.9999 26.6667 15.8333 26.6667C15.6666 26.6667 15.4999 26.6667 15.3333 26.5C12.8333 24.8333 11.6666 22 12.1666 19.1667Z" fill="#121212"/>
<path d="M17 23.9998C17.3334 24.1665 17.6667 24.4998 18.1667 24.4998C18.3334 24.4998 18.5 24.6665 18.5 24.8332C18.5 25.3332 18.8334 25.6665 19.3334 25.6665C19.8334 25.6665 20 25.3332 20 24.8332C20 24.4998 20 24.4998 20.3334 24.3332C21.3334 23.8332 22 22.9998 21.8334 21.8332C21.8334 20.8332 21.1667 19.9998 20.1667 19.6665C19.6667 19.4998 19.1667 19.3332 18.6667 18.9998C18.5 18.8332 18.3334 18.6665 18.3334 18.3332C18.3334 17.9998 18.6667 17.8332 19 17.6665C19.5 17.6665 19.8334 17.6665 20.1667 17.8332C20.3334 17.9998 20.5 17.9998 20.6667 17.9998C21 17.9998 21.1667 17.8332 21.3334 17.6665C21.5 17.3332 21.5 17.1665 21.1667 16.8332C20.8334 16.4998 20.5 16.3332 20.1667 16.1665C20 16.3332 20 16.1665 20 15.9998C20 15.4998 19.6667 15.1665 19.3334 15.1665C18.8334 15.1665 18.5 15.4998 18.5 15.9998C18.5 16.3332 18.3334 16.3332 18.1667 16.4998C17.3334 16.8332 17 17.4998 16.8334 18.4998C16.8334 19.3332 17.1667 19.9998 17.8334 20.3332C18.3334 20.6665 19 20.8332 19.5 21.1665C20.1667 21.3332 20.3334 21.6665 20.1667 22.1665C20 22.6665 19.6667 22.9998 19.1667 23.1665C18.6667 23.1665 18.1667 23.1665 17.6667 22.8332C17.3334 22.6665 16.8334 22.6665 16.6667 22.9998C16.5 23.3332 16.6667 23.6665 17 23.9998Z" fill="#121212"/>
</svg>
