<svg xmlns="http://www.w3.org/2000/svg" width="24" height="24" viewBox="0 0 24 24" fill="none">
  <path d="M22 5.04873V17.9513C22 18.5238 21.8066 19.0083 21.4197 19.405C21.0329 19.8017 20.5603 20 20.002 20H2.99799C2.43968 20 1.96711 19.8017 1.58026 19.405C1.19342 19.0083 1 18.5238 1 17.9513V5.04873C1 4.47625 1.19342 3.99167 1.58026 3.595C1.96711 3.19833 2.43968 3 2.99799 3H20.002C20.5603 3 21.0329 3.19833 21.4197 3.595C21.8066 3.99167 22 4.47625 22 5.04873ZM2.65787 7.42438H20.3421V5.04873C20.3421 4.96154 20.3067 4.88161 20.2359 4.80895C20.165 4.7363 20.087 4.69998 20.002 4.69998H2.99799C2.91296 4.69998 2.83501 4.7363 2.76414 4.80895C2.6933 4.88161 2.65787 4.96154 2.65787 5.04873V7.42438ZM2.65787 11.0423V17.9513C2.65787 18.0385 2.6933 18.1184 2.76414 18.1911C2.83501 18.2637 2.91296 18.3 2.99799 18.3H20.002C20.087 18.3 20.165 18.2637 20.2359 18.1911C20.3067 18.1184 20.3421 18.0385 20.3421 17.9513V11.0423H2.65787Z" fill="#606060"/>
</svg>