<svg width="36" height="36" viewBox="0 0 36 36" fill="none" xmlns="http://www.w3.org/2000/svg">
<path d="M33.5813 18.8999C32.9625 18.3937 32.3438 17.8874 31.725 17.3812C31.5563 17.2687 31.4438 17.0999 31.3875 16.9312C30.5438 15.4687 29.7 14.0062 28.9125 12.5437C28.6313 12.0374 28.2375 11.8124 27.675 11.8124C25.8188 11.8124 24.0188 11.8124 22.1625 11.8124C21.3188 11.8124 20.9813 12.1499 20.9813 12.9937C20.9813 16.8187 20.9813 20.6999 20.9813 24.5249C20.9813 24.8062 20.925 24.8624 20.6438 24.8624C17.1563 24.8624 13.6688 24.8624 10.1813 24.8624C9.95627 24.8624 9.90002 24.8062 9.78752 24.5812C9.45002 23.4562 8.38127 22.7249 7.08752 22.6124C6.07502 22.5562 4.83752 23.2312 4.44377 24.1874C4.21877 24.7499 3.88127 24.9187 3.37502 24.8062C3.37502 24.8062 3.37502 24.8062 3.31877 24.8062C2.81252 24.8062 2.70002 24.6937 2.70002 24.1312C2.70002 19.0687 2.70002 14.0062 2.70002 8.9999C2.70002 8.49365 2.81252 8.3249 3.31877 8.3249C6.24377 8.3249 9.22502 8.3249 12.15 8.3249C16.0875 8.3249 20.025 8.3249 23.9625 8.3249C24.1875 8.3249 24.3 8.38115 24.3563 8.60615C24.4688 9.1124 24.6375 9.61865 24.8063 10.0687C24.8625 10.2937 24.975 10.4624 25.1438 10.5187C25.5375 10.6312 25.8188 10.2937 25.7063 9.84365C25.5375 9.3374 25.425 8.83115 25.2563 8.3249C25.0313 7.59365 24.75 7.36865 23.9625 7.36865C17.1 7.36865 10.1813 7.36865 3.31877 7.36865C2.25002 7.36865 1.74377 7.8749 1.74377 8.9999C1.74377 14.0624 1.74377 19.0687 1.74377 24.1312C1.74377 24.2437 1.74377 24.2999 1.74377 24.4124C1.80002 25.0874 2.25002 25.6499 2.98127 25.7062C3.37502 25.8749 3.65627 25.8749 3.93752 25.8749C4.10627 25.8749 4.16252 25.9312 4.21877 26.0999C4.44377 27.5062 5.62502 28.4624 7.03127 28.5187C8.43752 28.5187 9.61877 27.5624 9.90002 26.1562C9.95627 25.9312 10.0125 25.8749 10.2375 25.8749C15.4125 25.8749 20.5313 25.8749 25.7063 25.8749C25.9313 25.8749 25.9875 25.9312 26.0438 26.1562C26.325 27.5062 27.3938 28.4062 28.7438 28.5187C30.0375 28.5749 31.2188 27.7874 31.6688 26.4937C31.725 26.3249 31.6688 26.0437 31.8375 25.9312C32.0063 25.8749 32.2313 25.8749 32.4563 25.9312C33.2438 25.9874 33.8625 25.7062 34.1438 24.9187C34.1438 23.1749 34.1438 21.4312 34.1438 19.6874C34.0313 19.3499 33.8063 19.1249 33.5813 18.8999ZM7.08752 27.5624C6.01877 27.5624 5.11877 26.6624 5.17502 25.5937C5.17502 24.5249 6.07502 23.6249 7.14377 23.6249C8.21252 23.6249 9.11252 24.5249 9.11252 25.5937C9.05627 26.7187 8.15627 27.5624 7.08752 27.5624ZM28.9125 27.5624C27.8438 27.5624 26.9438 26.6624 27 25.5937C27 24.5249 27.9 23.6249 28.9688 23.6812C30.0375 23.6812 30.9375 24.5812 30.9375 25.6499C30.8813 26.6624 29.9813 27.5624 28.9125 27.5624ZM33.2438 24.5249C33.2438 24.7499 33.1313 24.9187 32.9063 24.9187C32.5688 24.9187 32.2313 24.9187 31.95 24.9187C31.7813 24.9187 31.7813 24.8062 31.725 24.6937C31.275 23.5124 30.4313 22.8374 29.1938 22.7249C27.9 22.6124 26.6625 23.3999 26.2125 24.6374C26.1563 24.8624 26.1 24.9187 25.875 24.9187C24.6938 24.9187 23.5125 24.9187 22.3313 24.9187C22.05 24.9187 21.9938 24.8624 21.9938 24.5812C21.9938 22.6687 21.9938 20.7562 21.9938 18.8437C21.9938 16.9312 21.9938 15.0187 21.9938 13.1062C21.9938 12.8812 22.05 12.8249 22.275 12.8249C24.075 12.8249 25.875 12.8249 27.675 12.8249C27.9 12.8249 28.0125 12.8812 28.125 13.1062C28.9688 14.6249 29.8125 16.0874 30.6563 17.5499C30.7688 17.7187 30.8813 17.8874 31.05 18.0562C31.725 18.6187 32.4 19.1812 33.075 19.6874C33.1875 19.7437 33.2438 19.7999 33.2438 19.9687C33.2438 20.1937 33.2438 20.3062 32.9625 20.2499C32.625 20.1937 32.3438 20.2499 32.0063 20.2499C31.3313 20.2499 30.8813 20.8124 31.05 21.4874C31.1063 21.7687 31.1625 22.0499 31.2188 22.3312C31.3875 22.8937 31.6688 23.1749 32.2875 23.1749C32.5125 23.1749 32.7938 23.1749 33.0188 23.1749C33.1875 23.1749 33.2438 23.2312 33.1875 23.3999C33.2438 23.7937 33.2438 24.1312 33.2438 24.5249ZM32.85 22.2749C32.175 22.2749 32.175 22.2749 32.0625 21.7124C31.95 21.2624 31.95 21.2624 32.4 21.2624C32.4563 21.2624 32.5125 21.2624 32.5688 21.2624C33.1875 21.2624 33.1875 21.2624 33.2438 21.9374C33.2438 22.2187 33.1313 22.2749 32.85 22.2749Z" fill="#5855B3" stroke="#5855B3" stroke-width="0.1"/>
<path d="M3.65622 19.5187C3.31872 19.6312 3.20622 19.8562 3.14997 20.1937C3.14997 20.5874 3.14997 20.9249 3.14997 21.3187C3.14997 21.7687 3.43122 21.9937 3.82497 22.0499C3.93747 22.0499 4.04997 22.0499 4.16247 22.0499C9.28122 22.0499 14.4 22.0499 19.5187 22.0499C19.575 22.0499 19.6875 22.0499 19.7437 22.0499C20.25 21.9937 20.5312 21.7687 20.5312 21.2624C20.5312 20.9249 20.5312 20.5874 20.5312 20.2499C20.5312 19.9124 20.4187 19.6312 20.0812 19.5187C19.8562 19.4624 19.8562 19.3499 19.8562 19.1812C19.8562 18.1124 19.8562 17.0437 19.8562 15.9749C19.8562 15.4687 19.8 14.9624 20.1375 14.5124C20.1937 14.4562 20.1937 14.3999 20.1937 14.2874C20.3062 13.6124 20.3625 12.9374 20.0812 12.3187C19.8562 11.8124 19.6312 11.2499 19.4062 10.6874C19.1812 10.0687 18.9 9.95615 18.2812 9.95615C15.3 9.95615 12.375 9.95615 9.39372 9.95615C9.28122 9.95615 9.11247 9.95615 8.99997 10.0124C8.77497 10.0687 8.66247 10.2374 8.66247 10.4624C8.66247 10.6874 8.83122 10.8562 9.05622 10.8562C9.16872 10.8562 9.28122 10.8562 9.39372 10.8562C10.9687 10.8562 12.5437 10.8562 14.1187 10.8562C15.4687 10.8562 16.8187 10.8562 18.1687 10.8562C18.2812 10.8562 18.45 10.7999 18.5062 11.0249C18.675 11.4749 18.8437 11.9249 19.0687 12.4312C14.1187 12.4312 9.16872 12.4312 4.27497 12.4312C4.44372 11.9812 4.61247 11.5312 4.78122 11.0812C4.83747 10.9124 4.94997 10.8562 5.11872 10.8562C5.68122 10.8562 6.29997 10.8562 6.86247 10.8562C7.25622 10.8562 7.42497 10.6874 7.48122 10.4062C7.48122 10.1249 7.25622 9.8999 6.91872 9.8999C6.29997 9.8999 5.62497 9.8999 5.00622 9.8999C4.55622 9.8999 4.21872 10.1249 4.04997 10.5749C3.88122 11.0812 3.71247 11.5874 3.43122 12.0374C3.14997 12.5999 3.09372 13.1624 3.14997 13.7249C3.14997 14.2312 3.31872 14.6812 3.65622 15.0749C3.76872 15.1874 3.76872 15.2999 3.76872 15.4124C3.76872 16.6499 3.76872 17.8874 3.76872 19.1249C3.76872 19.3499 3.76872 19.4624 3.65622 19.5187ZM19.6312 20.4749C19.6875 20.6999 19.6875 20.9249 19.6312 21.0937C19.6312 21.2062 19.4625 21.1499 19.35 21.1499C16.875 21.1499 14.3437 21.1499 11.8687 21.1499C9.39372 21.1499 6.91872 21.1499 4.49997 21.1499C4.38747 21.1499 4.21872 21.2062 4.16247 21.0937C4.10622 20.8687 4.16247 20.6999 4.16247 20.4749C4.16247 20.4749 4.21872 20.4187 4.27497 20.4187C4.33122 20.4187 4.44372 20.4187 4.49997 20.4187C9.44997 20.4187 14.4 20.4187 19.35 20.4187C19.4062 20.4187 19.575 20.3062 19.6312 20.4749ZM17.6062 13.4437C17.8312 13.4437 18 13.4437 18.225 13.4437C18.5625 13.4437 18.8437 13.4437 19.1812 13.4437C19.2375 13.4437 19.35 13.3874 19.35 13.5562C19.4062 14.2312 19.125 14.7374 18.5062 14.9624C17.9437 15.1312 17.325 14.7937 17.1 14.2312C17.1 14.1749 17.1 14.1749 17.0437 14.1187C16.9875 13.5562 17.0437 13.4437 17.6062 13.4437ZM13.8375 13.6124C13.8375 13.4999 13.8937 13.4437 14.0062 13.4437C14.3437 13.4437 14.6812 13.4437 14.9625 13.4437C15.3 13.4437 15.6375 13.4437 15.9187 13.4437C16.0312 13.4437 16.0875 13.4999 16.0875 13.6124C16.1437 14.3437 15.6375 14.9624 14.9062 14.9624C14.2875 14.9624 13.7812 14.3999 13.8375 13.6124ZM10.8 13.4437C11.1375 13.4437 11.4187 13.4437 11.7562 13.4437C12.0937 13.4437 12.375 13.4437 12.7125 13.4437C12.7687 13.4437 12.8812 13.3874 12.8812 13.5562C12.9375 14.2312 12.6562 14.7374 12.0375 14.9624C11.475 15.1312 10.8562 14.7937 10.6312 14.2312C10.575 14.0624 10.575 13.8374 10.575 13.6687C10.575 13.4437 10.6875 13.4437 10.8 13.4437ZM7.31247 13.6124C7.31247 13.4999 7.36872 13.4437 7.48122 13.4437C7.81872 13.4437 8.15622 13.4437 8.43747 13.4437C8.77497 13.4437 9.11247 13.4437 9.39372 13.4437C9.50622 13.4437 9.56247 13.4437 9.56247 13.6124C9.61872 14.3999 9.11247 14.9624 8.38122 14.9624C7.81872 14.9624 7.31247 14.3999 7.31247 13.6124ZM7.03122 15.2999C7.98747 16.1437 9.05622 16.1437 10.0125 15.2999C10.125 15.1874 10.1812 15.1874 10.2937 15.2999C11.1937 16.1437 12.375 16.1437 13.2187 15.2999C13.3312 15.1874 13.3875 15.1874 13.5562 15.2999C14.4562 16.1437 15.5812 16.1437 16.4812 15.2999C16.5937 15.2437 16.65 15.1312 16.7625 15.2437C17.3812 15.8624 18.1687 16.0312 19.0125 15.7499C19.0125 16.2562 19.0125 16.7624 19.0125 17.2124C19.0125 17.8312 19.0125 18.5062 19.0125 19.1249C19.0125 19.2937 19.0125 19.4062 18.7875 19.4062C14.175 19.4062 9.56247 19.4062 4.94997 19.4062C4.83747 19.4062 4.72497 19.4624 4.72497 19.2374C4.72497 18.1124 4.72497 16.9874 4.72497 15.8062C5.51247 15.9187 6.18747 15.8062 6.74997 15.1874C6.86247 15.1312 6.91872 15.1874 7.03122 15.2999ZM4.61247 13.4437C4.83747 13.4437 5.06247 13.4437 5.28747 13.4437C5.62497 13.4437 5.90622 13.4437 6.24372 13.4437C6.35622 13.4437 6.41247 13.3874 6.46872 13.5562C6.58122 14.1749 6.18747 14.7937 5.56872 14.9624C4.94997 15.0749 4.33122 14.7374 4.21872 14.1187V14.0624C3.99372 13.4999 4.04997 13.4437 4.61247 13.4437Z" fill="#5855B3"/>
<path d="M27.675 14.1188C27.5063 13.8376 27.2813 13.7251 26.9438 13.7251C25.7625 13.7251 24.525 13.7251 23.3438 13.7251C22.7813 13.7251 22.5563 13.9501 22.5563 14.5126C22.5563 15.6376 22.5563 16.7063 22.5563 17.8313C22.5563 18.3938 22.7813 18.6188 23.3438 18.6188C24.1875 18.6188 25.0313 18.6188 25.875 18.6188C26.7188 18.6188 27.5625 18.6188 28.35 18.6188C29.3063 18.6188 29.7563 17.8313 29.3063 17.0438C28.7438 16.0313 28.1813 15.0751 27.675 14.1188ZM28.2375 17.6063C27.5063 17.6063 26.775 17.6063 26.0438 17.6063C25.3125 17.6063 24.525 17.6063 23.7938 17.6063C23.5688 17.6063 23.5125 17.5501 23.5125 17.3251C23.5125 16.4813 23.5125 15.6938 23.5125 14.8501C23.5125 14.6251 23.5688 14.5688 23.7938 14.5688C24.75 14.5688 25.7063 14.5688 26.7188 14.5688C26.8875 14.5688 26.9438 14.6251 27.0563 14.7376C27.5063 15.5813 28.0125 16.4251 28.4625 17.2688C28.575 17.6063 28.4625 17.6063 28.2375 17.6063Z" fill="#5855B3" stroke="#5855B3" stroke-width="0.1"/>
<path d="M7.14383 24.0751C6.35633 24.0188 5.62508 24.6938 5.56883 25.5376C5.51258 26.3813 6.18758 27.0563 7.03133 27.1126C7.87508 27.1688 8.55008 26.4938 8.60633 25.6501C8.66258 24.8063 7.98758 24.1313 7.14383 24.0751ZM7.08758 26.1563C6.75008 26.1563 6.46883 25.8751 6.46883 25.5938C6.46883 25.3126 6.75008 25.0313 7.08758 25.0313C7.36883 25.0313 7.65008 25.3126 7.65008 25.5938C7.65008 25.9313 7.42508 26.1563 7.08758 26.1563Z" fill="#5855B3"/>
<path d="M28.9125 24.0747C28.0688 24.0747 27.3938 24.7497 27.3938 25.5935C27.3938 26.4372 28.0688 27.1122 28.9125 27.1122C29.7563 27.1122 30.4313 26.4372 30.4313 25.5935C30.4313 24.7497 29.7563 24.0747 28.9125 24.0747ZM28.9125 26.156C28.575 26.156 28.35 25.8747 28.35 25.5372C28.35 25.256 28.6313 24.9747 28.9125 24.9747C29.1938 24.9747 29.475 25.256 29.475 25.5935C29.475 25.931 29.1938 26.156 28.9125 26.156Z" fill="#5855B3"/>
</svg>
