<svg width="48" height="48" viewBox="0 0 48 48" fill="none" xmlns="http://www.w3.org/2000/svg">
<path d="M16.7 11.4C21.2 8.79995 25.7001 6.19995 30.2001 3.49995C31.2001 2.89995 32.2001 2.99995 32.9001 3.69995C33.1001 3.89995 33.3 4.09995 32.8 4.29995C27.7 7.29995 22.5 10.3 17.4 13.3C17.3 13.3 17.3 13.4 17.2 13.4H21.4C22.4 12.8 23.4 12.2 24.4 11.6C27.5 9.79995 30.7 7.99995 33.8 6.09995C34.2 5.99995 34.3 5.99995 34.5 6.39995C34.7001 6.79995 34.9001 7.19995 35.2001 7.59995C35.3001 7.79995 35.3 7.89995 35.1 7.99995C31.9 9.79995 28.8 11.7 25.6 13.5H29.7001C31.2001 12.6 32.7001 11.8 34.2001 10.9C34.8001 10.5 35.4 10.2 36.1 9.79995C36.3 9.69995 36.4 9.59995 36.5 9.89995C37.1 11.1 37.8 12.2 38.5 13.4C38.5 13.5 38.6 13.5 38.6 13.6H41.4001C41.2001 13.5 41.1001 13.4 40.9001 13.2C39.1001 9.99995 37.3001 6.79995 35.4001 3.59995C34.6001 2.29995 33.6 1.29995 31.9 1.19995C31.5 1.19995 31.2 1.19995 30.8 1.19995C30.1 1.19995 29.5 1.59995 28.9 1.89995C26.2 3.39995 23.6 4.99995 20.9 6.49995C17 8.79995 13.1 11 9.20005 13.3C8.90005 13.5 8.60005 13.5 8.30005 13.5H13.2C14.4 12.8 15.6 12.1 16.7 11.4Z" fill="#F48D42"/>
<path d="M46.3 25.0999C46 24.7999 45.7 24.4999 45.3 24.2999C45 24.1999 44.9 23.9999 44.9 23.6999C44.9 22.6999 44.9 21.7999 44.9 20.7999C44.9 19.5999 45 18.4999 44.8 17.2999C44.6 15.3999 43.3 13.9999 41.4 13.5999C41.3 13.5999 41.2 13.4999 41.1 13.4999H38.3C38.3 13.5999 38.3 13.5999 38.1 13.5999C35.2 13.5999 32.3 13.5999 29.5 13.5999V13.4999C29.5 13.4999 29.5 13.4999 29.6 13.4999H25.5C25.4 13.5999 25.2 13.5999 25.1 13.5999C23.9 13.5999 22.6 13.5999 21.4 13.5999V13.4999C21.4 13.4999 21.4 13.4999 21.5 13.4999H17.3C17.1 13.5999 16.9 13.5999 16.7 13.5999C15.5 13.5999 14.4 13.5999 13.2 13.5999V13.4999C13.2 13.4999 13.2 13.4999 13.3 13.4999H8.3H8.2C7.2 13.4999 6.2 13.4999 5.2 13.4999C3.3 13.3999 1 15.0999 1 17.5999C1 25.9999 1 34.4999 1 42.8999C1 44.3999 1.6 45.4999 2.8 46.2999C3.6 46.7999 4.4 46.9999 5.3 46.9999C9.4 46.9999 13.5 46.9999 17.7 46.9999C25.4 46.9999 33.1 46.9999 40.8 46.9999C42.6 46.9999 43.8 46.1999 44.6 44.5999C45 43.8999 45.1 43.0999 45.1 42.2999C45.1 40.4999 45.1 38.6999 45.1 36.8999C45.1 36.5999 45.2 36.2999 45.5 36.0999C46.3 35.5999 46.9 34.8999 47 33.8999C47 31.4999 47 28.9999 47 26.5999C46.9 25.9999 46.7 25.4999 46.3 25.0999ZM42.8 42.4999C42.8 43.9999 42 44.8999 40.4 44.8999C28.8 44.8999 17.1 44.8999 5.5 44.8999C4 44.8999 3.1 44.0999 3.1 42.4999C3.1 34.3999 3.1 26.1999 3.1 18.0999C3.1 16.4999 3.9 15.6999 5.5 15.6999C11.3 15.6999 17.1 15.6999 22.9 15.6999C28.8 15.6999 34.6 15.6999 40.5 15.6999C41.6 15.6999 42.4 16.2999 42.7 17.1999C42.8 17.3999 42.8 17.6999 42.8 17.9999C42.8 19.8999 42.8 21.7999 42.8 23.6999C42.8 23.9999 42.7 24.0999 42.4 24.0999C40.5 24.0999 38.5 24.0999 36.6 24.0999C33.6 24.0999 31.1 26.0999 30.4 28.9999C29.5 32.5999 32.2 36.2999 35.9 36.5999C38 36.7999 40.2 36.5999 42.3 36.5999C42.7 36.5999 42.8 36.6999 42.8 37.0999C42.8 38.7999 42.8 40.5999 42.8 42.4999ZM43.5 34.3999C42.3 34.3999 41.1 34.3999 39.9 34.3999C38.6 34.3999 37.4 34.3999 36.1 34.3999C34.3 34.2999 32.6 32.6999 32.4 30.9999C32.1 28.6999 33.5 26.8999 35.2 26.2999C35.7 26.0999 36.2 26.0999 36.7 26.0999C39 26.0999 41.2 26.0999 43.5 26.0999C44.4 26.0999 44.8 26.4999 44.8 27.3999C44.8 29.2999 44.8 31.1999 44.8 33.0999C44.9 33.9999 44.5 34.3999 43.5 34.3999Z" fill="#121212"/>
<path d="M36.4999 28.2C35.2999 28.2 34.3999 29.1999 34.3999 30.2999C34.3999 31.3999 35.3999 32.3999 36.4999 32.2999C37.5999 32.2999 38.5999 31.3 38.5999 30.2C38.5999 29.1 37.6999 28.2 36.4999 28.2Z" fill="#121212"/>
</svg>
