<svg width="48" height="48" viewBox="0 0 48 48" fill="none" xmlns="http://www.w3.org/2000/svg">
<path d="M46.6 20.7999C46.6 20.1999 46.3 19.7999 45.6 19.7999C43.8 19.7999 42 19.7999 40.2001 19.7999C39.5 19.7999 39.2001 20.0999 39.2001 20.7999C39.2001 22.1999 39.2001 23.6 39.2001 25C39.2001 25.6 39.5 26 40.1 26C40.7 26 41 25.6 41 25C41 24 41 22.9 41 21.9C41 21.6 41.1 21.5 41.3 21.6C42.4 21.6 43.4001 21.6 44.5 21.6C44.8 21.6 44.9001 21.7 44.9001 22C44.9001 24 44.9001 26.1 44.9001 28.1C44.9001 33.6 44.9001 39 44.9001 44.5C44.9001 44.9 44.8001 45 44.4001 44.9C43.4001 44.9 42.3 44.9 41.3 44.9C41 44.9 40.9001 44.7999 40.9001 44.5C40.9001 42.5 40.9001 40.5 40.9001 38.4C40.9001 36.2 40.9001 34.0999 40.9001 31.9C40.9001 31.5 40.8001 31.1 40.4001 31C39.8001 30.7 39.1 31.1999 39.1 31.9C39.1 34.7 39.1 37.5 39.1 40.2999C39.1 41.7 39.1 43.0999 39.1 44.5C39.1 44.7999 39 44.8999 38.8 44.7999C38.5 44.7999 38.1 44.7999 37.8 44.7999C37.4 44.7999 37.3 44.7 37.3 44.2999C37.3 38.3999 37.3 32.5 37.3 26.7C37.3 25.9 37 25.6 36.2001 25.6C34.5 25.6 32.7001 25.6 31 25.6C30.1 25.6 29.8 25.9 29.8 26.7999C29.8 32.4 29.8 37.9 29.8 43.5C29.8 43.9 30 44.5 29.7001 44.7999C29.5 45 28.9 44.8 28.5 44.9C28.1 44.9 28 44.7999 28 44.5C28 40.7 28 36.9 28 33C28 32.2 27.7 31.9 26.9 31.9C25.2 31.9 23.5 31.9 21.8 31.9C20.9 31.9 20.6 32.1999 20.6 33.0999C20.6 36.5999 20.6 40.0999 20.6 43.5C20.6 43.9 20.8 44.5 20.5 44.7999C20.2001 45.0999 19.6 44.8 19.2001 44.9C18.9001 44.9 18.8 44.7999 18.8 44.5C18.8 42.4 18.8 40.2999 18.8 38.0999C18.8 37.1999 18.5 36.9 17.6 36.9C15.9001 36.9 14.2 36.9 12.5 36.9C11.7 36.9 11.4 37.2 11.4 38C11.4 40.0999 11.4 42.3 11.4 44.4C11.4 44.7 11.3 44.7999 11 44.7999C8.70005 44.7999 6.30005 44.7999 4.00005 44.7999C3.20005 44.7999 2.90005 44.5 2.90005 43.7C2.90005 30.5 2.90005 17.3 2.90005 4.09995C2.90005 3.29995 3.20005 2.99995 4.00005 2.99995C11.4 2.99995 18.8001 2.99995 26.2001 2.99995C26.6 2.99995 26.6 3.09995 26.6 3.39995C26.6 5.19995 26.6 6.89995 26.6 8.69995C26.6 10.3 27.7 11.5 29.4 11.5C31.2 11.5 32.9001 11.5 34.7001 11.5C35.1001 11.5 35.2001 11.6 35.2001 11.9C35.2001 15.3 35.2001 18.7 35.2001 22.2C35.2001 22.9 35.5 23.2999 36.1 23.2999C36.6 23.2999 37 22.9 37 22.2C37 18.4 37 14.6 37 10.8C37 10.5 36.9001 10.2 36.7001 9.89995C33.9001 7.09995 31.2 4.39995 28.4 1.59995C28.2 1.39995 27.9 1.19995 27.6 1.19995C19.7001 1.19995 11.9 1.19995 4.00005 1.19995C2.90005 1.19995 2.00005 1.89995 1.50005 2.89995C1.50005 2.99995 1.50005 3.19995 1.30005 3.19995C1.30005 16.9 1.30005 30.7 1.30005 44.4C1.50005 45.5 2.20005 46.2 3.30005 46.4C17.5 46.4 31.7001 46.4 45.9001 46.4C46.3001 46.2 46.5 45.9 46.5 45.4C46.6 37.4 46.6 29.0999 46.6 20.7999ZM28.6 4.59995C30.4 6.39995 32.1001 8.09995 33.9001 9.89995C32.5001 9.89995 31 9.89995 29.5 9.89995C28.9 9.89995 28.6 9.49995 28.6 8.99995C28.6 7.49995 28.6 5.99995 28.6 4.59995ZM17 44.9C15.9 44.9 14.8 44.9 13.7 44.9C13.5 44.9 13.4 44.8999 13.4 44.5999C13.4 42.6999 13.4 40.9 13.4 39C13.4 38.7999 13.4 38.7 13.7 38.7C14.8 38.7 15.9 38.7 17.1 38.7C17.4 38.7 17.4 38.7999 17.4 39C17.4 39.9 17.4 40.8999 17.4 41.7999C17.4 42.7 17.4 43.6999 17.4 44.5999C17.3 44.7999 17.2 44.9 17 44.9ZM26.5 39.2999C26.5 41.0999 26.5 42.7999 26.5 44.5999C26.5 44.8999 26.4 45 26.1 45C25 45 23.9 45 22.9 45C22.6 45 22.6 44.9 22.6 44.7C22.6 41.2 22.6 37.5999 22.6 34.0999C22.6 33.8999 22.7 33.7999 22.9 33.7999C24 33.7999 25.1 33.7999 26.1 33.7999C26.4 33.7999 26.5 33.9 26.5 34.2C26.5 35.7999 26.5 37.5 26.5 39.2999ZM35.7001 44.5999C35.7001 44.7999 35.6001 44.9 35.4001 44.9C34.3001 44.9 33.2001 44.9 32.2001 44.9C31.9001 44.9 31.8 44.7999 31.8 44.5C31.8 41.7 31.8 38.8999 31.8 36.0999C31.8 33.2999 31.8 30.5999 31.8 27.7999C31.8 27.5 31.9001 27.4 32.2001 27.4C33.3 27.4 34.3001 27.4 35.4001 27.4C35.7001 27.4 35.7001 27.5 35.7001 27.7C35.7001 33.4 35.7001 39 35.7001 44.5999Z" fill="#121212"/>
<path d="M13.0001 8.69998C8.9001 9.39998 6.1001 12.7 6.1001 17.3C6.2001 19.9 7.6001 22.4 10.5001 23.9C13.4001 25.4 16.2001 25.1 18.9001 23.3C20.7001 22 21.8001 20.2 22.2001 18C22.3001 17.6 22.4001 17.5 22.8001 17.5C23.1001 17.5 23.5001 17.5 23.8001 17.5C24.4001 17.5 24.8001 17.1 24.8001 16.5C24.8001 15.7 24.7001 15 24.5001 14.3C23.5001 9.59998 19.2001 6.09998 14.3001 6.09998C13.6001 6.09998 13.3001 6.39998 13.3001 7.09998C13.3001 7.49998 13.3001 7.89998 13.3001 8.19998C13.4001 8.59998 13.3001 8.69998 13.0001 8.69998ZM15.1001 8.39998C15.1001 8.09998 15.1001 7.99998 15.5001 8.09998C19.2001 8.59998 22.5001 11.8 23.0001 15.5C23.0001 15.9 22.9001 15.9 22.6001 15.9C21.4001 15.9 20.2001 15.9 19.1001 15.9C17.9001 15.9 16.8001 15.9 15.6001 15.9C15.3001 15.9 15.2001 15.9 15.2001 15.5C15.1001 13.1 15.1001 10.8 15.1001 8.39998ZM13.4001 10.8C13.4001 11.8 13.4001 12.7 13.4001 13.7C13.4001 14.6 13.4001 15.6 13.4001 16.5C13.4001 17.2 13.7001 17.5 14.5001 17.5C16.4001 17.5 18.3001 17.5 20.2001 17.5C20.5001 17.5 20.6001 17.5 20.6001 17.9C20.0001 20.8 17.4001 23 14.3001 23C11.3001 23 8.6001 20.8 8.1001 17.9C7.4001 14.4 9.6001 11.1 13.1001 10.4C13.3001 10.4 13.4001 10.6 13.4001 10.8Z" fill="#F48D42"/>
<path d="M23.9001 29.0999C24.4001 29.0999 24.8001 28.6999 24.8001 28.1999C24.8001 27.6999 24.4001 27.2999 23.9001 27.2999C23.8001 27.2999 23.7001 27.2999 23.6001 27.2999C18.2001 27.2999 12.8001 27.2999 7.3001 27.2999C7.1001 27.2999 6.9001 27.2999 6.7001 27.3999C6.3001 27.4999 6.1001 27.8999 6.1001 28.2999C6.1001 28.6999 6.4001 28.9999 6.9001 29.0999C7.1001 29.0999 7.2001 29.0999 7.4001 29.0999C10.1001 29.0999 12.8001 29.0999 15.5001 29.0999C16.8001 29.0999 18.0001 29.0999 19.3001 29.0999C20.8001 29.0999 22.3001 29.1999 23.9001 29.0999Z" fill="#F48D42"/>
<path d="M9.8001 31.7C8.9001 31.7 8.0001 31.7 7.2001 31.7C6.5001 31.7 6.1001 31.9999 6.1001 32.5999C6.1001 33.0999 6.5001 33.5 7.1001 33.5C8.9001 33.5 10.7001 33.5 12.5001 33.5C13.1001 33.5 13.5001 33.0999 13.5001 32.5999C13.5001 32.0999 13.1001 31.8 12.5001 31.7C11.6001 31.7 10.7001 31.7 9.8001 31.7Z" fill="#F48D42"/>
<path d="M41 28.4C41 27.9 40.5999 27.5 40.0999 27.5C39.5999 27.5 39.2 27.9 39.2 28.3C39.2 28.8 39.5999 29.2 40.0999 29.2C40.4999 29.2 41 28.8 41 28.4Z" fill="#F48D42"/>
<path d="M16.2 32.5C16.2 33 16.6 33.4 17.1 33.4C17.6 33.4 18 33 18 32.5C18 32 17.6 31.6 17.1 31.6C16.6 31.7 16.2 32.1 16.2 32.5Z" fill="#F48D42"/>
</svg>
