<svg width="48" height="48" viewBox="0 0 48 48" fill="none" xmlns="http://www.w3.org/2000/svg">
<path d="M45.1 16.9C43.4 16.9 41.7 16.9 40 16.9C38.9 16.9 38.5 17.4 38.5 18.4C38.5 23 38.5 27.6 38.5 32.3C38.5 33.3 39 33.8 40.1 33.8C41.8 33.8 43.5 33.8 45.2 33.8C46 33.8 46.6 33.5 46.9 32.8C46.9 27.8 46.9 22.8 46.9 17.8C46.5 17.2 45.9 16.9 45.1 16.9Z" fill="#121212"/>
<path d="M34.2999 8.19998C35.9999 9.89998 37.1999 12 37.7999 14.3C37.7999 14.4 37.7999 14.7 38.0999 14.6C38.7999 14.3 39.4999 14.2 40.1999 14.3C40.4999 14.3 40.5999 14.2 40.4999 13.9C38.4999 7.29997 34.0999 3.09998 27.3999 1.49998C26.6999 1.29998 25.9999 1.29998 25.2999 1.09998C24.3999 1.09998 23.3999 1.09998 22.4999 1.09998C22.4999 1.19998 22.3999 1.19998 22.2999 1.19998C21.4999 1.29998 20.5999 1.39998 19.7999 1.59998C13.4999 3.49998 9.3999 7.59997 7.4999 13.9C7.3999 14.2 7.4999 14.2 7.7999 14.2C8.3999 14.2 9.0999 14.2 9.6999 14.5C10.0999 14.7 10.1999 14.5 10.1999 14.2C13.1999 3.69998 26.6999 0.299975 34.2999 8.19998Z" fill="#121212"/>
<path d="M8.09995 16.9C6.29995 16.9 4.59995 16.9 2.79995 16.9C1.69995 16.9 1.19995 17.4 1.19995 18.4C1.19995 23 1.19995 27.7 1.19995 32.3C1.19995 33.3 1.69995 33.8 2.69995 33.8C4.49995 33.8 6.19995 33.8 7.99995 33.8C9.09995 33.8 9.59995 33.3 9.59995 32.3C9.59995 30 9.59995 27.7 9.59995 25.4C9.59995 23.1 9.59995 20.8 9.59995 18.5C9.59995 17.4 9.09995 16.9 8.09995 16.9Z" fill="#121212"/>
<path d="M39.9998 36.6C39.2998 36.6 38.6998 36.5 38.0998 36.2C37.7998 36 37.6998 36.1 37.5998 36.4C36.6998 38.3 35.1998 39.7 33.2998 40.5C31.7998 41.2 30.1998 41.3 28.5998 41.2C28.2998 41.2 28.0998 41.1 27.8998 40.8C27.0998 39.1 25.1998 38.1 23.3998 38.4C21.4998 38.7 19.9998 40.3 19.8998 42.2C19.7998 44.2 20.8998 45.9 22.7998 46.5C24.5998 47.1 26.6998 46.5 27.5998 44.8C28.0998 44 28.4998 43.7 29.1998 43.9C30.1998 43.9 30.9998 43.9 31.7998 43.7C35.8998 42.9 38.6998 40.6 40.3998 36.8C40.3998 36.6 40.2998 36.6 39.9998 36.6Z" fill="#F48D42"/>
<path d="M22.5 31.1999C22.6 30.5999 22.1 29.9999 21.5 29.7999C21.3 29.6999 21.1 29.6999 20.9 29.6999C19.2 29.6999 17.6 29.6999 15.9 29.6999L15.8 29.5999C15.9 29.4999 16.1 29.3999 16.2 29.2999C18 27.4999 19.7 25.6999 21.6 23.9999C22.3 23.2999 22.6 22.4999 22.5 21.5999C22.3 18.5999 19.5 16.3999 16.5 16.9999C14.3 17.4999 12.6 19.4999 12.6 21.6999C12.6 22.3999 13 22.8999 13.7 23.0999C14.3 23.1999 14.9 22.8999 15.2 22.2999C15.3 22.0999 15.3 21.8999 15.3 21.5999C15.4 20.4999 16.3 19.5999 17.3 19.4999C18.5 19.3999 19.4 20.0999 19.7 21.2999C19.8 21.6999 19.7 21.8999 19.4 22.1999C17.6 23.9999 15.8 25.7999 14 27.4999C13.1 28.3999 12.5 29.5999 12.5 30.8999C12.5 31.6999 13 32.2999 13.8 32.2999C16.2 32.2999 18.7 32.2999 21.1 32.2999C21.9 32.3999 22.4 31.7999 22.5 31.1999Z" fill="#121212"/>
<path d="M34.8998 28.1C35.5998 28 36.0998 27.5 36.0998 26.8C36.0998 26.1 35.6998 25.6 34.9998 25.5C34.6998 25.5 34.6998 25.4 34.6998 25.1C34.6998 24 34.6998 22.8 34.6998 21.7C34.6998 20.6 34.6998 19.4 34.6998 18.3C34.6998 17.7 34.3998 17.2 33.8998 17C33.2998 16.8 32.7998 16.9 32.3998 17.4C30.3998 19.4 28.3998 21.4 26.3998 23.4C25.5998 24.3 25.0998 25.3 24.9998 26.5C24.8998 27.6 25.4998 28.2 26.4998 28.2C28.2998 28.2 29.9998 28.2 31.7998 28.2C32.0998 28.2 32.1998 28.3 32.1998 28.6C32.1998 29.4 32.1998 30.2 32.1998 31C32.1998 31.9 32.7998 32.5 33.5998 32.5C34.3998 32.5 34.8998 31.9 34.8998 31C34.8998 30.2 34.8998 29.3 34.8998 28.5C34.5998 28.2 34.5998 28.1 34.8998 28.1ZM31.9998 21.7C31.9998 22.8 31.9998 24 31.9998 25.1C31.9998 25.3 31.8998 25.4 31.6998 25.4C30.4998 25.4 29.2998 25.4 28.0998 25.4C29.3998 24.1 30.6998 22.8 31.9998 21.5V21.7Z" fill="#121212"/>
</svg>
