<svg width="48" height="48" viewBox="0 0 48 48" fill="none" xmlns="http://www.w3.org/2000/svg">
<path d="M35.1001 19.3C35.4001 19 35.6001 18.9 36.0001 19C36.9001 19.2 37.8001 19.2 38.6001 19.1C42.4001 18.7 45.7001 15.7 46.3001 12C46.3001 10.8 46.3001 9.69999 46.3001 8.49999C46.1001 8.29999 46.1001 7.99999 46.1001 7.69999C45.8001 6.69999 45.1001 6.49999 44.4001 7.29999C43.3001 8.39999 42.3001 9.39999 41.2001 10.5C41.0001 10.7 40.9001 10.7 40.6001 10.7C39.6001 10.8 38.9001 10.5 38.2001 9.69999C37.5001 8.99999 37.1001 8.29999 37.3001 7.29999C37.3001 7.09999 37.4001 6.89999 37.5001 6.69999C38.6001 5.59999 39.6001 4.49999 40.7001 3.39999C41.4001 2.99999 41.2001 2.29999 40.3001 1.99999C38.7001 1.49999 37.2001 1.49999 35.6001 1.89999C31.0001 2.99999 28.2001 7.59999 29.2001 12.3C29.3001 12.6 29.2001 12.7 29.0001 12.9C27.3001 14.6 25.5001 16.3 23.8001 18.1C23.5001 18.4 23.2001 18.8 22.9001 19.1C19.3001 15.5 15.8001 12 12.3001 8.49999C12.2001 8.39999 12.1001 8.19999 12.1001 7.99999C12.1001 7.39999 12.1001 6.89999 12.1001 6.29999C12.1001 5.89999 11.9001 5.59999 11.6001 5.39999C9.60007 4.19999 7.60007 2.99999 5.60007 1.79999C5.10007 1.49999 4.70007 1.59999 4.40007 1.89999C3.60007 2.69999 2.80007 3.49999 2.00007 4.29999C1.60007 4.69999 1.60007 5.09999 1.80007 5.49999C3.00007 7.49999 4.20007 9.59999 5.40007 11.6C5.70007 11.9 6.00007 12 6.40007 12C6.90007 12 7.50007 12 8.00007 12C8.30007 12 8.50007 12.1 8.70007 12.3C12.1001 15.7 15.5001 19.1 18.9001 22.5C19.0001 22.6 19.1001 22.7 19.2001 22.8C17.1001 24.9 15.0001 27 13.0001 29C12.9001 29.1 12.7001 29.2 12.5001 29.1C11.3001 28.8 10.1001 28.8 8.90007 29C3.80007 30 0.700072 35.1 2.20007 40.1C2.50007 41 3.20007 41.2 3.90007 40.5C5.00007 39.4 6.00007 38.4 7.10007 37.3C7.30007 37.1 7.50007 37.1 7.70007 37C8.70007 36.9 9.50007 37.2 10.1001 38C10.1001 38 10.1001 38 10.2001 38.1C11.0001 38.7 11.3001 39.4 11.1001 40.3C11.1001 40.6 11.0001 40.8 10.8001 41C9.70007 42 8.70007 43.1 7.60007 44.1C6.70007 45 6.90007 45.7 8.00007 46C8.40007 46.1 8.90007 46.1 9.40007 46.4C10.1001 46.4 10.7001 46.4 11.4001 46.4C11.9001 46.3 12.5001 46.3 13.0001 46.2C15.2001 45.5 16.9001 44.2 18.1001 42.2C19.2001 40.3 19.6001 38.3 19.2001 36.1C19.1001 35.6 19.2001 35.3 19.5001 35C20.9001 33.6 22.3001 32.2 23.7001 30.8C24.1001 30.4 24.1001 30.4 24.6001 30.8L24.7001 30.9C25.1001 31.4 25.1001 31.4 24.7001 31.9C24.3001 32.4 24.3001 33 24.8001 33.4C25.2001 33.7 25.7001 33.7 26.1001 33.2C26.4001 32.9 26.5001 32.9 26.8001 33.2C27.3001 33.8 27.9001 34.4 28.5001 35C29.3001 35.8 30.0001 36.7 30.8001 37.5C32.0001 38.8 33.3001 40.2 34.5001 41.5C35.3001 42.4 36.1001 43.2 36.9001 44.1C37.9001 45.2 39.0001 46.1 40.5001 46.3C41.0001 46.3 41.5001 46.3 42.0001 46.3C42.3001 46.2 42.7001 46.3 43.0001 46.2C44.8001 45.5 46.1001 44.4 46.5001 42.4C46.5001 41.5 46.5001 40.7 46.5001 39.8C46.4001 39 46.0001 38.4 45.6001 37.8C45.2001 37.2 44.6001 36.8 44.1001 36.3C43.3001 35.5 42.4001 34.7 41.5001 33.9C40.2001 32.8 39.0001 31.6 37.7001 30.5C36.8001 29.7 35.9001 28.8 34.9001 28C34.4001 27.5 33.9001 27.1 33.4001 26.6C33.1001 26.3 33.1001 26.1 33.4001 25.9L33.5001 25.8C33.8001 25.4 33.8001 24.9 33.4001 24.6C33.1001 24.3 32.6001 24.2 32.2001 24.5C32.0001 24.6 31.8001 25 31.5001 25C31.2001 24.9 31.1001 24.6 30.9001 24.4C30.5001 24.1 30.5001 24.1 30.9001 23.7C32.2001 22.2 33.7001 20.7 35.1001 19.3ZM9.60007 10.8C9.20007 10.4 8.80007 10.2 8.30007 10.3C8.00007 10.3 7.60007 10.3 7.30007 10.3C6.90007 10.4 6.60007 10.2 6.40007 9.79999C5.60007 8.29999 4.70007 6.89999 3.80007 5.39999C3.70007 5.19999 3.70007 4.99999 3.90007 4.89999C4.30007 4.59999 4.60007 4.19999 4.90007 3.89999C5.10007 3.69999 5.20007 3.69999 5.40007 3.89999C6.90007 4.79999 8.40007 5.69999 9.80007 6.59999C10.1001 6.79999 10.3001 6.99999 10.3001 7.39999C10.3001 7.59999 10.3001 7.79999 10.3001 7.99999C10.3001 8.19999 10.3001 8.39999 10.3001 8.49999C10.2001 8.99999 10.5001 9.39999 10.8001 9.69999C14.3001 13.2 17.7001 16.6 21.2001 20.1C21.5001 20.4 21.6001 20.6 21.2001 20.9C21.0001 21.1 20.8001 21.3 20.6001 21.5C20.4001 21.8 20.3001 21.7 20.1001 21.5C16.6001 17.8 13.1001 14.3 9.60007 10.8ZM26.6001 30.1C26.5001 30.2 26.5001 30.2 26.4001 30.3L26.3001 30.2C26.0001 29.9 25.7001 29.5 25.4001 29.2C25.3001 29.1 25.3001 29 25.4001 28.9C26.6001 27.8 27.7001 26.6 28.8001 25.5C28.9001 25.4 29.0001 25.4 29.2001 25.5C29.5001 25.8 29.8001 26.1 30.1001 26.3C30.3001 26.4 30.3001 26.5 30.1001 26.7C29.0001 27.7 27.8001 28.9 26.6001 30.1ZM31.4001 27.8C31.6001 27.6 31.7001 27.6 31.8001 27.8C35.7001 31.4 39.6001 35 43.6001 38.6C44.3001 39.3 44.7001 40.1 44.7001 41.2C44.7001 42.6 43.8001 43.9 42.5001 44.4C41.2001 44.9 39.6001 44.6 38.6001 43.5C35.0001 39.6 31.4001 35.7 27.8001 31.8C27.6001 31.6 27.6001 31.5 27.8001 31.4C29.0001 30.2 30.2001 29 31.4001 27.8ZM17.4001 34.3C17.0001 34.7 16.9001 35.1 17.1001 35.6C18.1001 38.8 16.5001 42.2 13.7001 43.7C12.5001 44.4 11.1001 44.6 9.70007 44.5C10.6001 43.6 11.4001 42.8 12.2001 41.9C12.5001 41.6 12.7001 41.3 12.7001 40.8C12.7001 40.1 12.7001 39.5 12.7001 38.8C12.7001 38.4 12.6001 38.1 12.3001 37.9C11.5001 37.2 10.8001 36.4 10.0001 35.6C9.70007 35.3 9.40007 35.2 9.10007 35.2C8.40007 35.2 7.70007 35.2 7.00007 35.2C6.60007 35.2 6.30007 35.3 6.00007 35.6C5.20007 36.5 4.30007 37.3 3.40007 38.2C3.20007 36.5 3.60007 34.9 4.60007 33.5C6.40007 31 9.30007 30 12.3001 30.8C12.9001 31 13.3001 30.8 13.7001 30.4C19.3001 24.8 24.9001 19.2 30.5001 13.6C30.9001 13.2 31.0001 12.8 30.9001 12.2C29.8001 8.29999 31.9001 4.59999 35.8001 3.49999C36.6001 3.29999 37.4001 3.19999 38.3001 3.29999C38.3001 3.49999 38.2001 3.49999 38.1001 3.59999C37.4001 4.39999 36.6001 5.09999 35.9001 5.89999C35.6001 6.19999 35.5001 6.49999 35.5001 6.89999C35.5001 7.59999 35.5001 8.29999 35.5001 8.99999C35.5001 9.39999 35.6001 9.69999 35.9001 9.89999C36.6001 10.6 37.3001 11.4 38.0001 12.1C38.3001 12.4 38.6001 12.5 39.0001 12.5C39.7001 12.5 40.4001 12.5 41.0001 12.5C41.4001 12.5 41.7001 12.4 42.0001 12.1C42.8001 11.3 43.7001 10.4 44.6001 9.59999C44.7001 10.6 44.6001 11.5 44.3001 12.5C43.0001 16.1 39.3001 18.1 35.6001 17C35.1001 16.8 34.7001 17 34.3001 17.3C28.7001 23 23.1001 28.7 17.4001 34.3Z" fill="#121212"/>
<path d="M29.9 17.7C29.5 17.5 29.2 17.7 28.9 18C25.3 21.6 21.7 25.2 18.1 28.8C17.7 29.2 17.7 29.8 18 30.1C18.4 30.5 18.9 30.4 19.3 30C22.9 26.4 26.5 22.8 30.1 19.2C30.3 19 30.4 18.8 30.4 18.5C30.4 18.2 30.2 17.9 29.9 17.7Z" fill="#F48D42"/>
<path d="M32.0001 15.2C31.5001 15.2 31.1001 15.6 31.1001 16.1C31.1001 16.6 31.5001 17 32.0001 17C32.5001 17 32.9001 16.6 32.9001 16.2C32.9001 15.6 32.5001 15.2 32.0001 15.2Z" fill="#F48D42"/>
<path d="M16.1 31.1C15.6 31.1 15.2 31.5 15.2 32C15.2 32.5 15.6 32.8 16.1 32.8C16.6 32.8 17 32.4 17 31.9C17 31.5 16.6 31.1 16.1 31.1Z" fill="#F48D42"/>
<path d="M39.7001 40.9C39.8001 41 40.0001 41.2 40.1001 41.3C40.7001 41.6 41.4001 41.2 41.4001 40.5C41.4001 40.2 41.2001 40 41.0001 39.7C38.5001 37.2 36.0001 34.8 33.6001 32.3C33.0001 31.8 32.5001 31.7 32.1001 32.1C31.7001 32.5 31.8001 33 32.3001 33.6C34.8001 36 37.3001 38.5 39.7001 40.9Z" fill="#121212"/>
</svg>
