<svg width="48" height="48" viewBox="0 0 48 48" fill="none" xmlns="http://www.w3.org/2000/svg">
<path d="M7.29995 17.5C7.69995 17.5 7.99995 17.2 7.99995 16.9C7.99995 16.5 7.69995 16.2 7.39995 16.2C6.99995 16.2 6.69995 16.5 6.69995 16.9C6.69995 17.2 6.99995 17.5 7.29995 17.5Z" fill="#F48D42"/>
<path d="M12.5 11.4C12.9 11.4 13.2 11.1 13.2 10.7C13.2 10.3 12.9 10 12.5 10C12.1 10 11.8 10.3 11.8 10.7C11.9 11.1 12.2 11.4 12.5 11.4Z" fill="#F48D42"/>
<path d="M6.3001 20C6.7001 20 7.0001 19.7 7.0001 19.4C7.0001 19 6.7001 18.7 6.3001 18.7C5.9001 18.7 5.7001 19 5.6001 19.4C5.6001 19.7 5.9001 20 6.3001 20Z" fill="#F48D42"/>
<path d="M8.8001 15.2C9.2001 15.2 9.5001 14.9 9.5001 14.5C9.5001 14.1 9.2001 13.8 8.8001 13.8C8.4001 13.8 8.2001 14.1 8.1001 14.5C8.1001 14.9 8.4001 15.2 8.8001 15.2Z" fill="#F48D42"/>
<path d="M6.20005 27.4C6.20005 27 5.90005 26.7 5.50005 26.7C5.20005 26.7 4.90005 27 4.80005 27.4C4.80005 27.8 5.10005 28.1 5.50005 28.1C6.00005 28 6.20005 27.7 6.20005 27.4Z" fill="#F48D42"/>
<path d="M6.10009 30.7C6.50009 30.7 6.80009 30.4 6.80009 30C6.80009 29.6 6.50009 29.3 6.10009 29.4C5.70009 29.4 5.40009 29.7 5.50009 30.1C5.50009 30.4 5.80009 30.7 6.10009 30.7Z" fill="#F48D42"/>
<path d="M5.6 22.6C6 22.6 6.3 22.3 6.3 22C6.3 21.6 6 21.3 5.6 21.3C5.3 21.3 5 21.6 5 22C5 22.3 5.3 22.6 5.6 22.6Z" fill="#F48D42"/>
<path d="M5.40014 25.3C5.80014 25.3 6.10014 25 6.10014 24.6C6.10014 24.2 5.80014 23.9 5.40014 23.9C5.00014 23.9 4.70014 24.2 4.80014 24.6C4.80014 25.1 5.00014 25.3 5.40014 25.3Z" fill="#F48D42"/>
<path d="M10.5 13.2C10.9 13.2 11.2 12.9 11.2 12.5C11.2 12.1 10.9 11.8 10.6 11.8C10.2 11.8 9.9 12.1 9.9 12.4C9.8 12.8 10.1 13.2 10.5 13.2Z" fill="#F48D42"/>
<path d="M14.9 9.89997C15.3 9.89997 15.6 9.59997 15.5 9.19998C15.5 8.79998 15.2 8.59998 14.8 8.59998C14.4 8.59998 14.1 8.89998 14.2 9.29998C14.2 9.69998 14.5 9.99997 14.9 9.89997Z" fill="#F48D42"/>
<path d="M22.4 42.1C22 42.1 21.7 42.4 21.7 42.8C21.7 43.2 22 43.4 22.4 43.5C22.8 43.5 23.1 43.2 23.1 42.8C23.1 42.4 22.8 42.1 22.4 42.1Z" fill="#F48D42"/>
<path d="M25.1001 42C24.7001 42 24.4001 42.3 24.4001 42.7C24.4001 43.1 24.7001 43.3 25.1001 43.3C25.5001 43.3 25.8001 43 25.8001 42.6C25.8001 42.3 25.5001 42 25.1001 42Z" fill="#F48D42"/>
<path d="M30.3 40.6C29.9 40.6 29.6 40.9 29.7 41.3C29.7 41.7 30 41.9 30.4 41.9C30.8 41.9 31.1 41.6 31.1 41.2C31 40.9 30.6 40.6 30.3 40.6Z" fill="#F48D42"/>
<path d="M27.8001 41.5C27.4001 41.5 27.1001 41.8 27.1001 42.1C27.1001 42.5 27.4001 42.8 27.7001 42.8C28.1001 42.8 28.4001 42.5 28.4001 42.1C28.4001 41.8 28.2001 41.5 27.8001 41.5Z" fill="#F48D42"/>
<path d="M17.2001 41C16.8001 41 16.6001 41.3 16.6001 41.7C16.6001 42.1 16.9001 42.4 17.3001 42.4C17.7001 42.4 18.0001 42.1 18.0001 41.7C17.9001 41.3 17.5001 41 17.2001 41Z" fill="#F48D42"/>
<path d="M19.8001 41.8C19.4001 41.8 19.1001 42.1 19.1001 42.5C19.1001 42.8 19.4001 43.2001 19.7001 43.2001C20.1001 43.2001 20.4001 42.9 20.4001 42.5C20.4001 42.1 20.2001 41.8 19.8001 41.8Z" fill="#F48D42"/>
<path d="M37.9 15.6C38.3 15.6 38.5999 15.3 38.5999 14.9C38.5999 14.5 38.3 14.2 37.9 14.2C37.5 14.2 37.2 14.5 37.2 14.8C37.2 15.3 37.5 15.6 37.9 15.6Z" fill="#F48D42"/>
<path d="M39.2001 18.1C39.6001 18.1 39.9001 17.9 39.9001 17.5C39.9001 17.1 39.6001 16.8 39.3001 16.8C38.9001 16.8 38.6001 17 38.6001 17.4C38.6001 17.7 38.9001 18 39.2001 18.1Z" fill="#F48D42"/>
<path d="M39.6001 20C39.6001 20.4 39.9001 20.7 40.3001 20.6C40.7001 20.6 40.9001 20.3 40.9001 19.9C40.9001 19.5 40.6001 19.2 40.2001 19.2C39.9001 19.3 39.6001 19.7 39.6001 20Z" fill="#F48D42"/>
<path d="M36.1001 13.4C36.5001 13.4 36.8001 13.1 36.8001 12.7C36.8001 12.3 36.5001 12 36.1001 12C35.7001 12 35.4001 12.3 35.4001 12.7C35.4001 13.1 35.7001 13.4 36.1001 13.4Z" fill="#F48D42"/>
<path d="M40.2 22.8C40.2 23.2 40.5 23.5 40.9 23.5C41.3 23.5 41.5999 23.2 41.5999 22.8C41.5999 22.4 41.3 22.1 40.9 22.1C40.5 22.1 40.2 22.4 40.2 22.8Z" fill="#F48D42"/>
<path d="M34 11.5C34.4 11.5 34.7001 11.2 34.7001 10.8C34.7001 10.4 34.4 10.1 34 10.1C33.6 10.1 33.3 10.4 33.3 10.8C33.3 11.2 33.6 11.5 34 11.5Z" fill="#F48D42"/>
<path d="M40.9 24.9C40.5 24.9 40.2 25.2 40.2 25.6C40.2 26 40.5 26.3 40.9 26.2C41.3 26.2 41.5 25.9 41.5 25.5C41.6 25.2 41.3 24.9 40.9 24.9Z" fill="#F48D42"/>
<path d="M31.6001 9.99995C32.0001 9.99995 32.3001 9.69995 32.3001 9.39995C32.3001 8.99995 32.0001 8.69995 31.6001 8.69995C31.2001 8.69995 30.9001 8.99995 30.9001 9.29995C31.0001 9.69995 31.2001 9.99995 31.6001 9.99995Z" fill="#F48D42"/>
<path d="M46.6 35.1C45.5 34 44.5 32.9 43.4001 31.9C42.9001 31.4 42.2 31.3 41.6 31.8C41.3 32 41.2 31.9 41.1 31.7C40.4 30.9 40.3001 30 40.4001 29C41 29 41.3001 28.8 41.4001 28.4C41.4001 28 41.2 27.7 40.6 27.7C40.4 27.7 40.4001 27.5 40.4001 27.4C40.3001 26.4 39.8 25.7 39.1 25C38.2 24.1 37.2001 23.1 36.3 22.2C35 20.9 33.4 20.7 31.8 21.6C31.5 21.8 31.4 21.6 31.3 21.4C31.2 21.3 31.3 21.2 31.3 21C31.3 18.6 31.3 16.2 31.3 13.9C31.3 12.9 31 12 30.4 11.2C29.9 10.6 29.7001 9.9 29.7001 9.1C29.7001 8.9 29.8 8.8 30 8.8C30.6 8.6 31 8.1 31 7.3C31 5.9 31 4.5 31 3.1C31 2.1 30.4 1.5 29.4 1.5C25.3 1.5 21.2001 1.5 17.1 1.5C16.1 1.5 15.5 2.1 15.5 3.1C15.5 4.5 15.5 5.8 15.5 7.2C15.5 8.1 15.9 8.6 16.8 8.8C17 8.8 17 9 17 9.1C17 9.8 16.7 10.5 16.2 11C15.8 11.4 15.3 11.9 14.9 12.3C14.1 13.1 13.7 14 13.7 15.2C13.7 16.6 13.7 18 13.7 19.3C13.7 19.8 13.7 20.3 14 20.7C14.1 21 14 21 13.8 21.1C13 21.2 12.3 21.6 11.8 22.1C10.8 23.1 9.80005 24.1 8.80005 25.1C8.20005 25.7 7.80005 26.5 7.70005 27.3C7.60005 28.1 7.70005 28.9 7.70005 29.8C7.70005 30.5 7.40005 31.1 7.00005 31.6C6.90005 31.8 6.80005 31.8 6.50005 31.7C5.90005 31.2 5.20005 31.3 4.60005 31.8C3.60005 32.8 2.50005 33.9 1.50005 34.9C0.900049 35.5 0.900049 36.3 1.50005 36.9C1.80005 37.2 2.20005 37.6 2.50005 37.9C2.80005 38.2 3.20005 38.2 3.50005 37.9C3.80005 37.6 3.80005 37.2 3.50005 36.9C3.20005 36.6 2.90005 36.3 2.60005 36C2.40005 35.8 2.40005 35.7 2.60005 35.5C3.60005 34.6 4.50005 33.6 5.40005 32.7C5.60005 32.5 5.70005 32.5 5.90005 32.7C8.70005 35.6 11.6 38.4 14.5 41.3C14.7 41.5 14.7 41.6 14.5 41.8C13.7 42.6 13 43.3 12.2 44.1C11.4 44.9 11.4 44.9 10.7 44.1C9.00005 42.4 7.30005 40.7 5.60005 39C5.30005 38.7 5.00005 38.6 4.70005 38.8C4.30005 39 4.20005 39.5 4.70005 40C6.60005 41.9 8.50005 43.8 10.4 45.8C11.1 46.5 11.9 46.4 12.5 45.8C13.5 44.8 14.5 43.8 15.5 42.8C16.1 42.2 16.2 41.6 15.7 40.9C15.6 40.7 15.6 40.7 15.7 40.5C16.2 39.9 16.9001 39.5 17.7001 39.5C18.7001 39.4 19.6 39 20.3 38.3C21.1 37.4 22 36.6 22.8 35.8C22.9 35.7 23 35.6 23.2001 35.5C23.9001 35.2 24.4 34.8 24.6 34.1C24.7001 33.9 24.7 33.8 24.9 33.9C26.5 34.4 27.9 33.3 27.9 31.7C27.9 31.2 27.9 30.7 27.9 30.2C29.8 30.8 31.3001 29.4 31.2001 27.7C31.1 26.4 31.2001 25.1 31.2001 23.8C31.2001 23.7 31.1 23.6 31.3 23.5C31.9 24.1 32.4 24.6 33 25.2C33.1 25.3 33.2001 25.4 33.3 25.5C33.6 25.8 34 25.8 34.3 25.5C34.6 25.2 34.6 24.8 34.3 24.5C33.7001 23.9 33.2 23.4 32.6 22.8C33.5 22.2 34.6001 22.4 35.4001 23.2C36.4001 24.2 37.4001 25.2 38.4001 26.2C38.9001 26.7 39.1001 27.3 39.2001 28C39.2001 28.6 39.2001 29.2 39.2001 29.8C39.2001 30.9 39.6001 31.9 40.4001 32.7C40.6001 32.9 40.6001 33 40.4001 33.2C38.3001 35.3 36.1 37.5 34 39.6C33.8 39.8 33.7001 39.8 33.5 39.6C32.8 38.8 31.8001 38.4 30.7001 38.3C30 38.2 29.5 38 29 37.5C28.3 36.8 27.6 36.1 27 35.5C26.7001 35.2 26.3 35.2 26 35.4C25.7001 35.7 25.7001 36.1 26 36.4C26.7001 37.2 27.5 37.9 28.3 38.6C28.9 39.2 29.7001 39.5 30.5 39.6C31.3 39.7 32 40 32.6 40.6C32.7 40.7 32.7 40.8 32.6 40.9C32.1 41.6 32.2 42.3 32.8 42.9C33.8 43.9 34.7001 44.8 35.7001 45.8C36.5 46.6 37.3 46.6 38.1 45.8C40.9 43 43.7001 40.2 46.4001 37.4C46.7001 37.1 47 36.8 47.2001 36.4C47.2001 36.2 47.2001 35.9 47.2001 35.7C46.9001 35.5 46.8 35.3 46.6 35.1ZM18.8 37.9C18.5 38.1 18.2 38.3 17.9 38.3C16.6 38.4 15.5 38.9 14.6 39.9C14.1 39.4 13.6 38.9 13.2 38.4C11.5 36.7 9.80005 35 8.10005 33.3C7.90005 33.1 7.80005 33 8.10005 32.7C8.60005 31.9 9.00005 31 9.00005 29.9C9.00005 29.3 9.00005 28.6 9.00005 28C9.00005 27.3 9.20005 26.7 9.70005 26.2C10.7 25.2 11.7 24.2 12.7 23.2C13.5 22.4 14.4 22.3 15.5 22.8C14.9 23.4 14.4 23.9 13.9 24.4C13.5 24.8 13.5 25.2 13.8 25.5C14.1 25.8 14.5 25.7 14.9 25.4C15.5 24.8 16.1 24.2 16.8 23.4C16.8 23.7 16.8 23.8 16.8 24C16.8 26.5 16.8 29.1 16.8 31.6C16.8 33.4 18.1 34.4 19.9 34C20.1 34 20.1 34 20.2001 34.1C20.5 34.8 20.6 34.9 21.3 35.5C20.4 36.2 19.6 37.1 18.8 37.9ZM29.1 29C28.7001 29.1 28.2001 28.9 28 28.5C27.9 28.3 27.9 28 27.9 27.8C27.9 25.5 27.9 23.2 27.9 21C27.9 20.3 27.7001 20 27.2001 20C26.7001 20 26.5 20.3 26.5 21.1C26.5 24.6 26.5 28.1 26.5 31.7C26.5 32.5 26.2001 32.9 25.6 32.9C25.1 32.9 24.7001 32.6 24.7001 32.1C24.7001 32 24.7001 31.8 24.7001 31.7C24.7001 28.2 24.7001 24.7 24.7001 21.1C24.7001 20.4 24.5 20.1 24 20.1C23.5 20.1 23.3 20.4 23.3 21.1C23.3 24.6 23.3 28.1 23.3 31.7C23.3 32.3 23.3 32.9 23.3 33.5C23.3 34.2 22.9 34.6 22.3 34.6C21.7 34.6 21.4 34.2 21.4 33.5C21.4 31.4 21.4 29.3 21.4 27.2C21.4 25.2 21.4 23.2 21.4 21.1C21.4 21 21.4 20.8 21.4 20.7C21.4 20.4 21.1 20.2 20.8 20.1C20.5 20.1 20.2001 20.2 20.1 20.6C20.1 20.8 20 21 20 21.1C20 24.6 20 28.2 20 31.7C20 32.1 20 32.5 19.6 32.7C19 33.1 18.2001 32.7 18.1 32C18.1 31.7 18.1 31.3 18.1 31C18.1 27.3 18.1 23.6 18.1 19.9C18.1 19.8 18.1 19.7 18.1 19.5C18.1 19 17.9 18.8 17.5 18.7C17.1 18.7 16.8 19 16.8 19.5C16.8 20.1 16.8 20.8 16.8 21.4C16.8 21.8 16.7 21.9 16.3 21.7C15.6 21.3 15.1 20.6 15.1 19.8C15.1 18.3 15.1 16.8 15.1 15.3C15.1 14.6 15.4 14.1 15.8 13.6C16.2 13.1 16.7001 12.7 17.1 12.3C17.9 11.5 18.3 10.6 18.3 9.5C18.3 9.2 18.4001 9.1 18.7001 9.1C19 9.1 19.3001 9.1 19.6 9.1C20.1 9.1 20.4 8.8 20.4 8.4C20.4 8 20.1 7.8 19.6 7.7C18.8001 7.7 18 7.7 17.2001 7.7C16.9001 7.7 16.8 7.6 16.8 7.3C16.8 6 16.8 4.7 16.8 3.4C16.8 3.1 16.9001 3 17.2001 3C21.2001 3 25.2001 3 29.2001 3C29.5 3 29.6 3.1 29.6 3.4C29.6 4.7 29.6 5.9 29.6 7.2C29.6 7.6 29.5 7.6 29.1 7.6C27.1 7.6 25.1 7.6 23.2001 7.6C23.1 7.6 22.9 7.6 22.8 7.6C22.5 7.7 22.3 7.9 22.3 8.2C22.3 8.5 22.4 8.8 22.8 8.9C23 9 23.2 9 23.3 9C24.8 9 26.3 9 27.8 9C28.1 9 28.2001 9.1 28.2001 9.4C28.1 10.5 28.5 11.5 29.2001 12.3C29.6 12.8 29.8 13.3 29.8 14C29.8 18.7 29.8 23.4 29.8 28.1C29.8 28.5 29.6 28.9 29.1 29ZM45.5 36.3C42.6 39.2 39.8001 42 36.9001 44.9C36.7001 45.1 36.6001 45.1 36.4001 44.9C35.5 43.9 34.5 43 33.6 42.1C33.4 41.9 33.4 41.8 33.6 41.6C36.5 38.7 39.3 35.9 42.2001 33C42.3 32.9 42.4 32.8 42.6 33C43.6 34 44.5 34.9 45.5 35.9C45.6 36 45.6001 36 45.7001 36.1C45.6001 36.2 45.5 36.3 45.5 36.3Z" fill="#121212"/>
</svg>
