<svg width="48" height="48" viewBox="0 0 48 48" fill="none" xmlns="http://www.w3.org/2000/svg">
<path d="M19.8 24.7C20.1 24.6 20.3 24.6 20.5 24.7C22.8 25.4 25.2 25.4 27.5 24.7C27.7 24.6 27.9 24.6 28.2 24.7C30.3 25.4 32.5 25.5 34.7 24.9C39.8 23.5 43.3 19 43.3 13.8C43.3 8.50002 39.9 3.90002 34.8 2.50002C34.1 2.30002 33.4 2.30002 32.8 2.10002C32.1 2.10002 31.4 2.10002 30.7 2.10002C30.3 2.20002 29.8 2.10002 29.4 2.20002C28.5 2.50002 27.6 2.60002 26.7 2.20002C26.5 2.10002 26.3 2.10002 26.1 2.10002C25.8 2.10002 25.5 2.10002 25.1 2.00002C24.4 2.00002 23.7 2.00002 23 2.00002C22.6 2.10002 22.1 2.00002 21.7 2.10002C20.8 2.40002 19.9 2.50002 19 2.10002C18.8 2.00002 18.6 2.00002 18.4 2.00002C18.1 2.00002 17.8 2.00002 17.4 1.90002C16.7 1.90002 15.9 1.90002 15.2 1.90002C15.2 2.00002 15.1 2.00002 15 2.00002C8.40003 3.00002 3.90003 8.90002 4.80003 15.3C5.80003 22.3 12.9 26.9 19.8 24.7ZM31.5 9.90002C32.2 9.80002 32.8 10.2 32.9 10.9C33 11.1 33 11.1 33.2 11.1C33.9 11.1 34.5 11.1 35.2 11.1C35.5 11.1 35.6 11 35.5 10.7C35.3 9.20002 34.6 8.20002 33.2 7.60002C33.1 7.50002 33 7.40002 33 7.20002C33 6.40002 33 5.60002 33 4.80002C37.1 5.40002 40.1 8.60003 40.7 12.8C41.3 17.5 38 21.9 33.4 22.7C33.2 22.7 33.1 22.7 33.1 22.5C33.1 21.8 33.1 21.1 33.1 20.4C33.1 20.2 33.2 20.1 33.3 20C35.1 19.2 35.9 17.5 35.5 15.6C35.1 13.9 33.6 12.6 31.8 12.6C31.1 12.6 30.5 12.1 30.5 11.4C30.4 10.6 30.9 10 31.5 9.90002ZM30.4 4.70002C30.4 5.60002 30.4 6.40002 30.4 7.30002C30.4 7.60002 30.2 7.60002 30.1 7.60002C28.7 8.30002 27.8 9.70003 27.8 11.3C27.9 13.3 29.5 14.9 31.4 15C31.6 15 31.8 15 32 15.1C32.6 15.3 32.9 15.9 32.9 16.4C32.8 17 32.3 17.5 31.8 17.6C31.2 17.7 30.6 17.3 30.5 16.7C30.4 16.3 30.2 16.3 29.9 16.3C29.4 16.3 28.8 16.3 28.3 16.3C28 16.3 27.9 16.4 27.9 16.7C28.1 18.1 28.8 19.2 30.1 19.8C30.4 19.9 30.4 20.1 30.4 20.3C30.4 21.1 30.4 21.8 30.4 22.6C26.6 22.5 22.9 18.4 22.7 14.2C22.5 9.50002 25.9 5.30002 30.4 4.70002ZM24.4 4.60002C21.6 7.00002 20.2 10 20.1 13.6C20.1 17.2 21.6 20.2 24.3 22.6C20 22.9 15.2 19.6 14.9 14.1C14.7 8.80002 19.1 4.40002 24.4 4.60002ZM16.7 4.60002C13.9 7.00002 12.5 10 12.4 13.6C12.4 17.2 13.9 20.2 16.6 22.6C12.2 23 7.50003 19.4 7.30003 14C7.10003 8.70002 11.5 4.30002 16.7 4.60002Z" fill="#F48D42"/>
<path d="M46 37C45.9 34 43 31.8001 40.1 32.4001C39.1 32.6001 38.3 33.1 37.4 33.6C35.2 34.7 33 35.8001 30.8 36.9001C30.7 36.9001 30.5 37.3 30.4 36.8C30.1 34.2 28.6 32.4 26.2 31.5C23.7 30.5 21.2 29.5 18.7 28.5C16.3 27.6 14 27.6001 11.7 28.7001C11.1 29.0001 10.4 29.3001 9.7 29.6C9.7 29.1 9.7 28.6001 9.7 28.2001C9.7 27.9001 9.6 27.8 9.3 27.8C6.9 27.8 4.4 27.8 2 27.8C2 33 2 38.1 2 43.3C4.4 43.3 6.9 43.3 9.3 43.3C9.6 43.3 9.7 43.2001 9.7 42.9001C9.7 42.1001 9.7 41.2 9.7 40.3C9.8 40.4 9.9 40.4001 10 40.4001C13.5 41.8001 17 43.2001 20.5 44.7001C25 46.5 29.3 46.4001 33.6 44.2001C37.4 42.3001 41.2 40.3001 45 38.4001C45.8 38.1001 46 37.7 46 37ZM6.9 40.7001C6.2 40.7001 5.6 40.7001 4.9 40.7001C4.6 40.7001 4.5 40.6 4.6 40.3C4.6 38.7 4.6 37.1 4.6 35.5C4.6 33.9 4.6 32.3001 4.6 30.7001C4.6 30.4001 4.7 30.3 5 30.3C5.7 30.3 6.3 30.3 7 30.3C7.2 30.3 7.3 30.4 7.3 30.6C7.3 33.9001 7.3 37.1001 7.3 40.4001C7.2 40.7001 7.1 40.7001 6.9 40.7001ZM43 36.6C39.3 38.5 35.6 40.4001 31.9 42.2001C28.6 43.8001 25.2 43.8001 21.8 42.4001C17.9 40.8001 14 39.3001 10.1 37.7001C9.8 37.6 9.7 37.5001 9.7 37.2001C9.7 35.8001 9.7 34.3001 9.7 32.9001C9.7 32.6001 9.8 32.5001 10 32.4001C10.9 32.0001 11.9 31.5001 12.8 31.1C14.4 30.4 15.9 30.3 17.5 30.9C20.1 31.9 22.7 33 25.3 34C26.7 34.6 27.6 35.7 27.7 37.3C27.7 37.4 27.7 37.5 27.7 37.6C26.4 37.1 25.1 36.6 23.8 36.1C22.9 35.7 22 35.4 21.1 35C20.9 34.9 20.7 34.9001 20.6 35.2001C20.4 35.8001 20.2 36.4 19.9 37C19.8 37.2 19.9 37.3001 20.1 37.4001C22.9 38.5001 25.8 39.6 28.6 40.7001C28.8 40.8001 28.9 40.7 29.1 40.6C32.7 38.8 36.3 37.0001 39.9 35.2001C41.3 34.5001 42.6 35.2001 43.1 36.2001C43.2 36.4001 43.2 36.5 43 36.6Z" fill="#121212"/>
</svg>
