<svg width="40" height="40" viewBox="0 0 40 40" fill="none" xmlns="http://www.w3.org/2000/svg">
<path d="M37.8334 17.3332C37.3334 17.3332 36.8334 17.4998 36.6667 17.9998C36.6667 18.1665 36.5001 18.3332 36.5001 18.4998C35.8334 19.8332 34.8334 20.9998 33.5001 21.4998C33.0001 21.6665 33.0001 21.6665 33.0001 21.1665C33.0001 18.3332 33.0001 15.4998 33.0001 12.6665C33.0001 12.3332 33.0001 12.1665 33.1667 11.8332C33.5001 11.1665 33.6667 10.6665 33.6667 9.83317C33.6667 7.99984 33.6667 6.1665 33.6667 4.49984C33.6667 3.83317 33.5001 3.1665 33.1667 2.6665C32.6667 1.83317 31.8334 1.33317 30.8334 1.1665C22.1667 1.1665 13.5001 1.1665 4.83341 1.1665C4.66675 1.33317 4.33341 1.1665 4.00008 1.33317C2.66675 1.99984 2.00008 2.99984 2.00008 4.49984C2.00008 6.33317 2.00008 7.99984 2.00008 9.83317C2.00008 10.4998 2.16675 11.1665 2.50008 11.8332C2.66675 12.1665 2.66675 12.3332 2.66675 12.6665C2.66675 20.4998 2.66675 28.1665 2.66675 35.9998C2.66675 36.4998 2.66675 36.4998 2.16675 36.4998C1.50008 36.6665 1.16675 37.1665 1.16675 37.8332C1.16675 38.4998 1.66675 38.8332 2.33341 38.8332H2.50008C12.6667 38.8332 22.8334 38.8332 33.0001 38.8332C33.1667 38.8332 33.1667 38.8332 33.3334 38.8332C33.6667 38.8332 34.0001 38.6665 34.1667 38.3332C34.6667 37.6665 34.1667 36.6665 33.3334 36.4998C33.0001 36.4998 32.8334 36.3332 32.8334 35.8332C32.8334 33.4998 32.8334 31.3332 32.8334 28.9998C32.8334 28.4998 32.8334 28.4998 33.3334 28.3332C35.0001 27.9998 36.3334 27.1665 37.3334 25.8332C38.1667 24.8332 38.6667 23.6665 38.6667 22.3332C38.6667 20.9998 38.6667 19.6665 38.6667 18.1665C38.6667 17.6665 38.3334 17.4998 37.8334 17.3332ZM31.3334 9.83317C31.3334 10.8332 30.5001 11.6665 29.5001 11.6665C28.5001 11.6665 27.6667 10.8332 27.6667 9.83317C27.6667 9.33317 27.6667 8.6665 27.6667 8.1665C27.6667 7.99984 27.6667 7.99984 27.8334 7.99984C28.3334 7.99984 28.8334 7.99984 29.5001 7.99984C30.0001 7.99984 30.5001 7.99984 31.0001 7.99984C31.1667 7.99984 31.3334 7.99984 31.1667 8.1665C31.3334 8.6665 31.3334 9.33317 31.3334 9.83317ZM27.6667 3.6665C27.6667 3.49984 27.6667 3.33317 28.0001 3.33317C28.8334 3.33317 29.5001 3.33317 30.3334 3.33317C31.0001 3.33317 31.5001 3.83317 31.5001 4.49984C31.5001 4.83317 31.5001 5.1665 31.5001 5.49984C31.5001 5.6665 31.5001 5.6665 31.3334 5.6665C30.8334 5.6665 30.3334 5.6665 29.6667 5.6665C29.1667 5.6665 28.6667 5.6665 28.1667 5.6665C28.0001 5.6665 27.8334 5.6665 27.8334 5.33317C27.6667 4.83317 27.6667 4.33317 27.6667 3.6665ZM22.0001 3.33317C22.5001 3.33317 23.0001 3.33317 23.5001 3.33317C24.0001 3.33317 24.5001 3.33317 25.0001 3.33317C25.1667 3.33317 25.3334 3.33317 25.1667 3.49984C25.1667 4.1665 25.1667 4.6665 25.1667 5.33317C25.1667 5.49984 25.1667 5.6665 25.0001 5.49984C24.0001 5.49984 22.8334 5.49984 21.8334 5.49984C21.6667 5.49984 21.5001 5.49984 21.6667 5.33317C21.6667 4.6665 21.6667 4.1665 21.6667 3.49984C21.8334 3.49984 21.8334 3.33317 22.0001 3.33317ZM25.5001 9.83317C25.5001 10.8332 24.6667 11.4998 23.6667 11.4998C22.6667 11.4998 21.8334 10.6665 21.8334 9.83317C21.8334 9.33317 21.8334 8.6665 21.8334 8.1665C21.8334 7.99984 21.8334 7.99984 22.0001 7.99984C22.5001 7.99984 23.0001 7.99984 23.6667 7.99984C24.1667 7.99984 24.6667 7.99984 25.3334 7.99984C25.5001 7.99984 25.5001 7.99984 25.5001 8.1665C25.5001 8.83317 25.5001 9.33317 25.5001 9.83317ZM19.5001 9.83317C19.5001 10.8332 18.6667 11.6665 17.6667 11.6665C16.6667 11.6665 15.8334 10.8332 15.8334 9.83317C15.8334 9.33317 15.8334 8.6665 15.8334 8.1665C15.8334 7.99984 15.8334 7.99984 16.0001 7.99984C16.5001 7.99984 17.0001 7.99984 17.6667 7.99984C18.1667 7.99984 18.6667 7.99984 19.1667 7.99984C19.3334 7.99984 19.5001 7.99984 19.3334 8.1665C19.5001 8.6665 19.6667 9.33317 19.5001 9.83317ZM16.1667 3.33317C16.6667 3.33317 17.1667 3.33317 17.8334 3.33317C18.3334 3.33317 18.8334 3.33317 19.3334 3.33317C19.5001 3.33317 19.5001 3.33317 19.5001 3.49984C19.5001 4.1665 19.5001 4.83317 19.5001 5.33317C19.5001 5.49984 19.5001 5.49984 19.3334 5.49984C18.3334 5.49984 17.1667 5.49984 16.1667 5.49984C16.0001 5.49984 16.0001 5.49984 16.0001 5.33317C16.0001 4.6665 16.0001 3.99984 16.0001 3.49984C15.8334 3.49984 16.0001 3.33317 16.1667 3.33317ZM10.0001 3.6665C10.0001 3.49984 10.1667 3.33317 10.3334 3.33317C11.3334 3.33317 12.5001 3.33317 13.5001 3.33317C13.6667 3.33317 13.6667 3.33317 13.6667 3.49984C13.6667 4.1665 13.6667 4.83317 13.6667 5.33317C13.6667 5.49984 13.6667 5.49984 13.5001 5.49984C13.0001 5.49984 12.5001 5.49984 11.8334 5.49984C11.3334 5.49984 10.8334 5.49984 10.3334 5.49984C10.1667 5.83317 10.0001 5.83317 10.0001 5.49984C10.0001 4.83317 10.0001 4.33317 10.0001 3.6665ZM10.3334 7.99984C10.8334 7.99984 11.3334 7.99984 11.8334 7.99984C12.3334 7.99984 12.8334 7.99984 13.3334 7.99984C13.5001 7.99984 13.5001 7.99984 13.5001 8.1665C13.5001 8.6665 13.5001 9.33317 13.5001 9.83317C13.6667 10.8332 12.8334 11.6665 11.8334 11.6665C10.8334 11.6665 10.0001 10.8332 10.0001 9.83317C10.0001 9.33317 10.0001 8.83317 10.0001 8.1665C10.0001 7.99984 10.1667 7.99984 10.3334 7.99984ZM4.16675 4.49984C4.16675 3.99984 4.66675 3.49984 5.16675 3.49984C6.00008 3.49984 6.83341 3.49984 7.50008 3.49984C7.66675 3.49984 7.66675 3.49984 7.66675 3.6665C7.66675 4.33317 7.66675 4.99984 7.66675 5.6665C7.66675 5.83317 7.66675 5.83317 7.50008 5.83317C7.00008 5.83317 6.33341 5.83317 5.83341 5.83317C5.33341 5.83317 4.83341 5.83317 4.33341 5.83317C4.16675 5.83317 4.16675 5.83317 4.16675 5.6665C4.16675 5.1665 4.16675 4.83317 4.16675 4.49984ZM4.16675 9.83317C4.16675 9.33317 4.16675 8.6665 4.16675 8.1665C4.16675 7.99984 4.16675 7.83317 4.50008 7.83317C5.00008 7.83317 5.50008 7.83317 6.00008 7.83317C6.50008 7.83317 7.00008 7.83317 7.66675 7.83317C7.83341 7.83317 7.83341 7.83317 7.83341 7.99984C7.83341 8.49984 7.83341 9.1665 7.83341 9.6665C7.83341 10.8332 7.00008 11.6665 6.00008 11.6665C5.00008 11.6665 4.16675 10.8332 4.16675 9.83317ZM16.0001 31.8332C16.0001 33.3332 16.0001 34.6665 16.0001 36.1665C16.0001 36.4998 16.0001 36.4998 15.6667 36.4998C13.6667 36.4998 11.8334 36.4998 9.83342 36.4998C9.50008 36.4998 9.50008 36.3332 9.50008 36.1665C9.50008 33.1665 9.50008 30.3332 9.50008 27.3332C9.50008 26.9998 9.66675 26.9998 9.83342 26.9998C11.8334 26.9998 13.6667 26.9998 15.6667 26.9998C16.0001 26.9998 16.0001 27.1665 16.0001 27.3332C15.8334 28.8332 16.0001 30.3332 16.0001 31.8332ZM30.5001 34.8332C30.5001 35.3332 30.5001 35.8332 30.5001 36.3332C30.5001 36.4998 30.5001 36.4998 30.3334 36.4998C26.3334 36.4998 22.3334 36.4998 18.3334 36.4998C18.0001 36.4998 18.1667 36.3332 18.1667 36.1665C18.1667 32.8332 18.1667 29.4998 18.1667 26.1665C18.1667 25.1665 17.8334 24.8332 16.8334 24.8332C14.0001 24.8332 11.3334 24.8332 8.50008 24.8332C7.66675 24.8332 7.16675 25.1665 7.16675 26.1665C7.16675 29.4998 7.16675 32.8332 7.16675 36.1665C7.16675 36.4998 7.00008 36.4998 6.83341 36.4998C6.33341 36.4998 5.83341 36.4998 5.33341 36.4998C5.00008 36.4998 5.00008 36.4998 5.00008 36.1665C5.00008 30.1665 5.00008 24.1665 5.00008 18.1665C5.00008 16.6665 5.00008 15.1665 5.00008 13.4998C6.50008 13.8332 7.83342 13.4998 8.83342 12.4998C9.00008 12.3332 9.00008 12.3332 9.16675 12.4998C10.8334 13.9998 13.0001 13.9998 14.6667 12.4998C14.8334 12.3332 14.8334 12.3332 15.0001 12.4998C16.6667 13.9998 18.8334 13.9998 20.5001 12.4998C20.6667 12.3332 20.6667 12.3332 20.8334 12.4998C22.5001 13.9998 24.6667 13.9998 26.3334 12.4998C26.5001 12.3332 26.5001 12.3332 26.6667 12.4998C27.8334 13.4998 29.0001 13.8332 30.5001 13.4998C30.5001 13.6665 30.5001 13.6665 30.5001 13.8332C30.5001 16.3332 30.5001 18.8332 30.5001 21.3332C30.5001 21.6665 30.3334 21.6665 30.1667 21.6665C29.6667 21.6665 29.1667 21.6665 28.6667 21.6665C28.3334 21.6665 28.3334 21.6665 28.3334 21.3332C28.3334 20.6665 28.3334 19.8332 28.3334 19.1665C28.3334 18.6665 28.1667 18.1665 27.6667 17.9998C27.1667 17.8332 26.8334 17.9998 26.5001 18.3332C24.5001 20.3332 22.6667 22.1665 20.6667 24.1665C20.1667 24.6665 20.1667 25.3332 20.6667 25.8332C22.6667 27.8332 24.5001 29.6665 26.5001 31.6665C26.8334 31.9998 27.3334 32.1665 27.6667 31.9998C28.1667 31.8332 28.3334 31.3332 28.3334 30.8332C28.3334 30.1665 28.3334 29.3332 28.3334 28.6665C28.3334 28.4998 28.3334 28.3332 28.5001 28.4998C29.0001 28.4998 29.6667 28.4998 30.1667 28.4998C30.5001 28.4998 30.5001 28.4998 30.5001 28.8332C30.5001 30.8332 30.5001 32.8332 30.5001 34.8332ZM35.5001 24.6665C34.5001 25.8332 33.3334 26.3332 31.8334 26.3332C30.3334 26.3332 28.8334 26.3332 27.5001 26.3332C26.6667 26.3332 26.3334 26.8332 26.3334 27.4998C26.3334 27.8332 26.3334 27.9998 26.3334 28.3332C25.3334 27.3332 24.3334 26.3332 23.3334 25.1665C23.1667 24.9998 23.1667 24.9998 23.3334 24.8332C24.3334 23.8332 25.3334 22.8332 26.3334 21.8332C26.3334 22.1665 26.3334 22.4998 26.3334 22.8332C26.3334 23.4998 26.8334 23.9998 27.5001 23.9998C29.0001 23.9998 30.5001 23.9998 32.0001 23.9998C33.5001 23.9998 35.0001 23.4998 36.3334 22.4998C36.5001 22.4998 36.5001 22.3332 36.6667 22.3332C36.5001 22.9998 36.0001 23.9998 35.5001 24.6665Z" fill="#5855B3"/>
<path d="M16.8334 16C15.5001 16 14.0001 16 12.6667 16C11.1667 16 9.83341 16 8.33341 16C7.50008 16 7.16675 16.5 7.16675 17.1667C7.16675 18.5 7.16675 20 7.16675 21.3333C7.16675 22.1667 7.66675 22.5 8.33341 22.5C11.1667 22.5 14.0001 22.5 16.8334 22.5C17.6667 22.5 18.0001 22 18.0001 21.3333C18.0001 20 18.0001 18.5 18.0001 17.1667C18.1667 16.5 17.6667 16 16.8334 16ZM15.6667 20.5C14.6667 20.5 13.6667 20.5 12.6667 20.5C11.6667 20.5 10.6667 20.5 9.66675 20.5C9.50008 20.5 9.33341 20.5 9.33341 20.1667C9.33341 19.6667 9.33341 19.1667 9.33341 18.5C9.33341 18.3333 9.33341 18.1667 9.66675 18.1667C11.6667 18.1667 13.6667 18.1667 15.6667 18.1667C15.8334 18.1667 16.0001 18.1667 16.0001 18.5C16.0001 19 16.0001 19.6667 16.0001 20.1667C16.0001 20.3333 15.8334 20.5 15.6667 20.5Z" fill="#121212"/>
</svg>
