<svg width="36" height="36" viewBox="0 0 36 36" fill="none" xmlns="http://www.w3.org/2000/svg">
<path d="M16.5 22.755L13.245 19.5L16.5 16.245L14.385 14.115L9 19.5L14.385 24.885L16.5 22.755Z" fill="#5855B3"/>
<path d="M21.615 24.885L27 19.5L21.615 14.115L19.5 16.245L22.755 19.5L19.5 22.755L21.615 24.885Z" fill="#5855B3"/>
<path d="M28.5 6H22.23C21.6 4.26 19.95 3 18 3C16.05 3 14.4 4.26 13.77 6H7.5C7.29 6 7.095 6.015 6.9 6.06C6.315 6.18 5.79 6.48 5.385 6.885C5.115 7.155 4.89 7.485 4.74 7.845C4.59 8.19 4.5 8.58 4.5 9V30C4.5 30.405 4.59 30.81 4.74 31.17C4.89 31.53 5.115 31.845 5.385 32.13C5.79 32.535 6.315 32.835 6.9 32.955C7.095 32.985 7.29 33 7.5 33H28.5C30.15 33 31.5 31.65 31.5 30V9C31.5 7.35 30.15 6 28.5 6ZM18 5.625C18.615 5.625 19.125 6.135 19.125 6.75C19.125 7.365 18.615 7.875 18 7.875C17.385 7.875 16.875 7.365 16.875 6.75C16.875 6.135 17.385 5.625 18 5.625ZM28.5 30H7.5V9H28.5V30Z" fill="#5855B3"/>
</svg>
