<svg xmlns="http://www.w3.org/2000/svg" width="200" height="200" viewBox="0 0 200 200" fill="none">
  <path d="M179.551 49.9139L150.088 20.4511C146.834 17.1968 141.558 17.1968 138.303 20.4511L97.0554 61.699C93.801 64.9534 93.801 70.2298 97.0553 73.4842L126.518 102.947C129.772 106.201 135.049 106.201 138.303 102.947L179.551 61.699C182.806 58.4447 182.806 53.1683 179.551 49.9139Z" stroke="#5855B3" stroke-width="4" stroke-linejoin="round"/>
  <path d="M102.952 126.519L73.4887 97.0566C70.2344 93.8022 64.958 93.8022 61.7036 97.0566L20.4557 138.305C17.2014 141.559 17.2014 146.835 20.4557 150.09L49.9185 179.552C53.1729 182.807 58.4493 182.807 61.7036 179.552L102.952 138.305C106.206 135.05 106.206 129.774 102.952 126.519Z" stroke="#5855B3" stroke-width="4" stroke-linejoin="round"/>
  <path d="M129.467 70.5391L70.542 129.464" stroke="#5855B3" stroke-width="4" stroke-linecap="round" stroke-linejoin="round"/>
</svg>