<svg xmlns="http://www.w3.org/2000/svg" width="200" height="200" viewBox="0 0 200 200" fill="none">
  <path d="M179.551 49.9139L150.088 20.4511C146.833 17.1968 141.557 17.1968 138.303 20.4511L97.0549 61.699C93.8005 64.9534 93.8005 70.2298 97.0549 73.4842L126.518 102.947C129.772 106.201 135.048 106.201 138.303 102.947L179.551 61.699C182.805 58.4447 182.805 53.1683 179.551 49.9139Z" stroke="#0D0D0D" stroke-width="4" stroke-linejoin="round"/>
  <path d="M102.951 126.519L73.4883 97.0566C70.2339 93.8022 64.9575 93.8022 61.7031 97.0566L20.4552 138.305C17.2009 141.559 17.2009 146.835 20.4552 150.09L49.918 179.552C53.1724 182.807 58.4488 182.807 61.7031 179.552L102.951 138.305C106.205 135.05 106.205 129.774 102.951 126.519Z" stroke="#0D0D0D" stroke-width="4" stroke-linejoin="round"/>
  <path d="M129.466 70.5391L70.541 129.464" stroke="#0D0D0D" stroke-width="4" stroke-linecap="round" stroke-linejoin="round"/>
</svg>