<svg width="32" height="32" viewBox="0 0 32 32" fill="none" xmlns="http://www.w3.org/2000/svg">
<path d="M21.3333 6.66667V17.3333C21.3333 18.8 20.1333 20 18.6666 20H10.6666C9.19996 20 7.99996 18.8 7.99996 17.3333V6.66667H21.3333ZM26.6666 4H5.33329V17.3333C5.33329 20.28 7.71996 22.6667 10.6666 22.6667H18.6666C21.6133 22.6667 24 20.28 24 17.3333V13.3333H26.6666C28.1466 13.3333 29.3333 12.1467 29.3333 10.6667V6.66667C29.3333 5.18667 28.1466 4 26.6666 4ZM24 10.6667V6.66667H26.6666V10.6667H24ZM26.6666 25.3333H2.66663V28H26.6666V25.3333Z" fill="#5855B3"/>
</svg>
