<svg width="33" height="32" viewBox="0 0 33 32" fill="none" xmlns="http://www.w3.org/2000/svg">
<path d="M9.83337 18C12.0467 18 13.8334 16.2133 13.8334 14C13.8334 11.7867 12.0467 10 9.83337 10C7.62004 10 5.83337 11.7867 5.83337 14C5.83337 16.2133 7.62004 18 9.83337 18ZM9.83337 12.6667C10.5667 12.6667 11.1667 13.2667 11.1667 14C11.1667 14.7333 10.5667 15.3333 9.83337 15.3333C9.10004 15.3333 8.50004 14.7333 8.50004 14C8.50004 13.2667 9.10004 12.6667 9.83337 12.6667ZM25.8334 8.66667H15.1667V19.3333H4.50004V6H1.83337V26H4.50004V22H28.5V26H31.1667V14C31.1667 11.0533 28.78 8.66667 25.8334 8.66667ZM28.5 19.3333H17.8334V11.3333H25.8334C27.3 11.3333 28.5 12.5333 28.5 14V19.3333Z" fill="#5855B3"/>
</svg>
