<svg width="36" height="35" viewBox="0 0 36 35" fill="none" xmlns="http://www.w3.org/2000/svg">
<path d="M0.00204554 20.57C1.62006 28.7953 8.82444 34.9983 17.4709 34.9983C27.3099 34.9983 35.2834 26.9686 35.2834 17.0648C35.2834 9.56232 30.7096 3.13896 24.215 0.46582C28.7275 3.41904 31.7099 8.53878 31.7099 14.3608C31.7099 23.5088 24.3439 30.9227 15.2576 30.9227C8.35397 30.9227 2.44032 26.6391 0 20.57H0.00204554Z" fill="white"/>
<path d="M1.17969 16.5578C2.42133 22.9771 8.03837 27.8229 14.7784 27.8229C22.4308 27.8229 28.6328 21.5766 28.6328 13.8744C28.6308 6.65196 23.1774 0.710503 16.1878 0C20.823 1.68667 24.1347 6.15563 24.1347 11.4051C24.1347 18.1044 18.7406 23.5352 12.0865 23.5352C7.26106 23.5352 3.10249 20.6808 1.17969 16.5578Z" fill="white"/>
<path d="M2.12109 10.9005C2.12109 15.2665 4.96848 18.9631 8.89386 20.2153C6.93015 18.6501 5.67214 16.2241 5.67214 13.5077C5.67214 8.77926 9.47684 4.94872 14.1734 4.94872C17.1619 4.94872 19.7904 6.50153 21.3082 8.85134C20.3714 4.44004 16.4787 1.13672 11.821 1.13672C6.46376 1.13672 2.12109 5.50683 2.12109 10.9005Z" fill="white"/>
</svg>
