<svg width="22" height="16" viewBox="0 0 22 16" fill="none" xmlns="http://www.w3.org/2000/svg">
<path d="M0.798828 15.3067V13.0837C0.798828 12.5683 0.931845 12.1083 1.19788 11.7039C1.46389 11.2994 1.81916 10.9847 2.26368 10.7598C3.21403 10.2949 4.16964 9.93657 5.13053 9.68466C6.09143 9.43274 7.14752 9.30678 8.2988 9.30678C9.45009 9.30678 10.5062 9.43274 11.4671 9.68466C12.428 9.93657 13.3836 10.2949 14.3339 10.7598C14.7784 10.9847 15.1337 11.2994 15.3997 11.7039C15.6657 12.1083 15.7988 12.5683 15.7988 13.0837V15.3067H0.798828ZM17.7988 15.3067V12.9606C17.7988 12.3042 17.638 11.6786 17.3166 11.0839C16.9952 10.4891 16.5392 9.9788 15.9488 9.55293C16.6193 9.65293 17.2558 9.80774 17.8584 10.0174C18.4609 10.227 19.0359 10.4747 19.5834 10.7606C20.1 11.0362 20.4991 11.3611 20.7805 11.7352C21.0619 12.1093 21.2026 12.5178 21.2026 12.9606V15.3067H17.7988ZM8.2988 7.69133C7.33632 7.69133 6.51237 7.34863 5.82695 6.66323C5.14154 5.97782 4.79883 5.15387 4.79883 4.19138C4.79883 3.22888 5.14154 2.40493 5.82695 1.71953C6.51237 1.03411 7.33632 0.691406 8.2988 0.691406C9.26129 0.691406 10.0852 1.03411 10.7707 1.71953C11.4561 2.40493 11.7988 3.22888 11.7988 4.19138C11.7988 5.15387 11.4561 5.97782 10.7707 6.66323C10.0852 7.34863 9.26129 7.69133 8.2988 7.69133ZM16.9333 4.19138C16.9333 5.15387 16.5906 5.97782 15.9052 6.66323C15.2198 7.34863 14.3958 7.69133 13.4334 7.69133C13.3205 7.69133 13.177 7.67852 13.0026 7.65288C12.8283 7.62725 12.6847 7.59905 12.5719 7.56828C12.9662 7.09417 13.2693 6.56819 13.4811 5.99036C13.6929 5.41252 13.7988 4.81247 13.7988 4.19018C13.7988 3.56792 13.6907 2.97024 13.4747 2.39716C13.2587 1.82409 12.9578 1.29653 12.5719 0.814482C12.7154 0.763199 12.859 0.729865 13.0026 0.714482C13.1462 0.699099 13.2898 0.691406 13.4334 0.691406C14.3958 0.691406 15.2198 1.03411 15.9052 1.71953C16.5906 2.40493 16.9333 3.22888 16.9333 4.19138ZM2.2988 13.8067H14.2988V13.0837C14.2988 12.8747 14.2466 12.6888 14.1421 12.526C14.0376 12.3631 13.8719 12.2208 13.645 12.099C12.8219 11.6747 11.9744 11.3532 11.1027 11.1346C10.2309 10.916 9.29624 10.8067 8.2988 10.8067C7.30137 10.8067 6.36675 10.916 5.49495 11.1346C4.62317 11.3532 3.77574 11.6747 2.95265 12.099C2.72574 12.2208 2.56003 12.3631 2.45553 12.526C2.35104 12.6888 2.2988 12.8747 2.2988 13.0837V13.8067ZM8.2988 6.19138C8.8488 6.19138 9.31964 5.99555 9.7113 5.60388C10.103 5.21222 10.2988 4.74138 10.2988 4.19138C10.2988 3.64138 10.103 3.17055 9.7113 2.77888C9.31964 2.38722 8.8488 2.19138 8.2988 2.19138C7.7488 2.19138 7.27797 2.38722 6.8863 2.77888C6.49464 3.17055 6.2988 3.64138 6.2988 4.19138C6.2988 4.74138 6.49464 5.21222 6.8863 5.60388C7.27797 5.99555 7.7488 6.19138 8.2988 6.19138Z" fill="white"/>
</svg>
