<svg width="18" height="18" viewBox="0 0 18 18" fill="none" xmlns="http://www.w3.org/2000/svg">
<path d="M1.33601 17.6543L0.28221 16.6005L10.4745 6.40816C10.1553 5.65688 10.0976 4.86681 10.3014 4.03796C10.5053 3.20913 10.9578 2.45433 11.6591 1.77356C12.427 1.00561 13.327 0.520993 14.3591 0.319709C15.3911 0.118426 16.2424 0.353042 16.9129 1.02356C17.5835 1.69406 17.8181 2.54533 17.6168 3.57738C17.4155 4.60943 16.9309 5.50943 16.1629 6.27736C15.4822 6.97864 14.7274 7.43121 13.8985 7.63506C13.0697 7.83891 12.2796 7.78122 11.5283 7.46198L9.98983 9.00046L17.5898 16.6005L16.536 17.6543L8.93601 10.1043L1.33601 17.6543ZM4.34371 9.16198L1.45911 6.27736C0.636043 5.45429 0.210084 4.47546 0.181234 3.34086C0.152384 2.20624 0.52706 1.20817 1.30526 0.346633L7.21676 6.28893L4.34371 9.16198Z" fill="#606060"/>
</svg>
