<?xml version="1.0" encoding="utf-8"?>
<!-- Generator: Adobe Illustrator 21.0.0, SVG Export Plug-In . SVG Version: 6.00 Build 0)  -->
<svg version="1.1" id="Layer_1" xmlns="http://www.w3.org/2000/svg" xmlns:xlink="http://www.w3.org/1999/xlink" x="0px" y="0px"
	 viewBox="0 0 3.8 17" style="enable-background:new 0 0 3.8 17;" xml:space="preserve">
<style type="text/css">
	.st0{fill:#606060;}
</style>
<path class="st0" d="M2,4.5c1.1,0,2-0.9,2-2s-0.9-2-2-2s-2,0.9-2,2S0.9,4.5,2,4.5z M2,6.5c-1.1,0-2,0.9-2,2s0.9,2,2,2s2-0.9,2-2
	S3.1,6.5,2,6.5z M2,12.5c-1.1,0-2,0.9-2,2s0.9,2,2,2s2-0.9,2-2S3.1,12.5,2,12.5z"/>
</svg>
