<svg width="135" height="32" viewBox="0 0 135 32" fill="none" xmlns="http://www.w3.org/2000/svg">
<path d="M118.5 12C119.6 12 120.5 11.1 120.5 10C120.5 8.9 119.6 8 118.5 8C117.4 8 116.5 8.9 116.5 10C116.5 11.1 117.4 12 118.5 12ZM118.5 14C117.4 14 116.5 14.9 116.5 16C116.5 17.1 117.4 18 118.5 18C119.6 18 120.5 17.1 120.5 16C120.5 14.9 119.6 14 118.5 14ZM118.5 20C117.4 20 116.5 20.9 116.5 22C116.5 23.1 117.4 24 118.5 24C119.6 24 120.5 23.1 120.5 22C120.5 20.9 119.6 20 118.5 20Z" fill="#606060"/>
</svg>
