<svg width="36" height="36" viewBox="0 0 36 36" fill="none" xmlns="http://www.w3.org/2000/svg">
<path d="M35.7 16.7999C35.7 16.1999 35.4 15.8999 34.8 15.8999C27.45 15.8999 20.1 15.8999 12.75 15.8999C12.15 15.8999 11.85 16.0499 11.85 16.7999C11.7 17.8499 10.8 18.7499 9.75005 18.7499C8.70005 18.7499 7.80005 17.8499 7.65005 16.7999C7.65005 16.1999 7.35005 16.0499 6.75005 16.0499C4.95005 16.0499 3.15005 16.0499 1.20005 16.0499C0.750049 16.0499 0.450049 16.1999 0.300049 16.4999C0.300049 22.1999 0.300049 27.7499 0.300049 33.4499C0.450049 33.8999 0.750049 33.8999 1.20005 33.8999C3.00005 33.8999 4.80005 33.8999 6.75005 33.8999C7.35005 33.8999 7.50005 33.7499 7.65005 33.1499C7.65005 32.0999 8.55005 31.1999 9.75005 31.1999C10.8 31.1999 11.7 32.0999 11.85 33.1499C11.85 33.7499 12.15 34.0499 12.75 34.0499C15.3 34.0499 17.85 34.0499 20.55 34.0499C20.7 34.0499 20.7 34.0499 20.85 34.0499C21.15 34.0499 21.3 33.7499 21.4501 33.5999C21.4501 33.2999 21.45 33.1499 21.3 32.8499C21.15 32.6999 20.85 32.6999 20.7001 32.6999C18.3 32.6999 16.05 32.6999 13.65 32.6999C13.5 32.6999 13.35 32.6999 13.35 32.3999C13.05 31.3499 12.45 30.5999 11.4 30.1499C10.8 29.9999 10.5 29.6999 10.65 29.0999C10.65 28.7999 10.35 28.4999 10.05 28.4999C9.75005 28.4999 9.45005 28.7999 9.30005 29.0999C9.30005 29.2499 9.30005 29.3999 9.30005 29.5499C9.30005 29.6999 9.30005 29.8499 9.00005 29.8499C7.80005 30.1499 7.05005 31.0499 6.60005 32.2499C6.60005 32.3999 6.45005 32.5499 6.30005 32.5499C4.95005 32.5499 3.60005 32.5499 2.25005 32.5499C2.10005 32.5499 1.95005 32.5499 1.95005 32.2499C1.95005 27.4499 1.95005 22.4999 1.95005 17.6999C1.95005 17.5499 1.95005 17.3999 2.25005 17.3999C3.60005 17.3999 4.95005 17.3999 6.30005 17.3999C6.45005 17.3999 6.60005 17.3999 6.60005 17.6999C6.90005 18.7499 7.50005 19.4999 8.40005 19.7999C9.00005 19.9499 9.30005 20.2499 9.15005 20.8499C9.15005 21.1499 9.45005 21.4499 9.75005 21.4499C10.05 21.4499 10.35 21.1499 10.5 20.8499C10.5 20.6999 10.5 20.5499 10.5 20.2499C10.5 20.0999 10.5 19.9499 10.8 19.9499C12 19.6499 12.75 18.7499 13.2 17.5499C13.2 17.2499 13.35 17.2499 13.65 17.2499C20.55 17.2499 27.3 17.2499 34.2 17.2499C34.5 17.2499 34.5 17.2499 34.5 17.5499C34.5 22.3499 34.5 27.2999 34.5 32.0999C34.5 32.3999 34.5 32.3999 34.2 32.3999C32.55 32.3999 30.9 32.3999 29.25 32.3999C28.5 32.3999 27.75 32.3999 27.15 32.3999C26.7 32.3999 26.25 32.8499 26.4 33.2999C26.55 33.5999 26.7 33.7499 27.15 33.7499C29.7 33.7499 32.4 33.7499 34.95 33.7499C35.55 33.7499 35.85 33.4499 35.85 32.8499C35.7 27.5999 35.7 22.1999 35.7 16.7999Z" fill="#5855B3"/>
<path d="M12.45 10.3501C12 10.8001 12 11.1001 12.45 11.5501C13.05 12.1501 13.65 12.7501 14.25 13.3501C14.7 13.8001 15 13.8001 15.45 13.3501C16.2 12.6001 16.95 11.8501 17.7 11.1001C17.85 10.9501 18 10.9501 18.15 11.1001C18.9 11.8501 19.65 12.6001 20.4 13.3501C20.55 13.3501 20.7 13.5001 21 13.5001C21.15 13.5001 21.45 13.3501 21.6 13.2001C22.2 12.6001 22.8 12.0001 23.4 11.4001C23.85 10.9501 23.85 10.6501 23.4 10.2001C22.65 9.4501 21.9 8.7001 21.15 7.9501C21 7.8001 21 7.6501 21.15 7.5001C21.9 6.7501 22.65 6.0001 23.4 5.2501C23.85 4.8001 23.85 4.5001 23.4 4.0501C22.8 3.4501 22.2 2.8501 21.6 2.2501C21.15 1.8001 20.85 1.8001 20.4 2.2501C19.65 3.0001 18.9 3.7501 18.15 4.5001C18 4.6501 17.85 4.6501 17.7 4.5001C16.95 3.7501 16.2 3.0001 15.45 2.2501C15 1.8001 14.7 1.8001 14.25 2.2501C13.65 3.0001 13.05 3.6001 12.45 4.2001C12 4.6501 12 4.9501 12.45 5.4001C13.2 6.1501 13.95 6.9001 14.7 7.6501C14.85 7.8001 14.85 7.9501 14.7 8.1001C13.95 8.8501 13.2 9.6001 12.45 10.3501ZM16.2 7.2001C15.45 6.4501 14.7 5.7001 14.1 5.1001C13.8 4.8001 13.8 4.6501 14.1 4.5001C14.25 4.3501 14.4 4.2001 14.7 3.9001C14.85 3.7501 15 3.7501 15 3.9001C15.75 4.6501 16.5 5.4001 17.25 6.1501C17.7 6.6001 18 6.6001 18.45 6.1501C19.2 5.4001 20.1 4.5001 21 3.6001C21.3 3.9001 21.45 4.2001 21.75 4.3501C21.9 4.5001 21.9 4.5001 21.75 4.6501C21 5.4001 20.25 6.1501 19.5 6.9001C19.05 7.3501 19.05 7.6501 19.5 8.2501C20.25 9.0001 21 9.7501 21.75 10.5001C21.9 10.6501 21.9 10.8001 21.75 10.9501C21.6 11.1001 21.3 11.4001 21.15 11.5501C21 11.7001 21 11.7001 20.85 11.5501C20.1 10.8001 19.35 10.0501 18.6 9.3001C18 9.0001 17.7 9.0001 17.25 9.4501C16.5 10.2001 15.6 11.1001 14.85 11.8501C14.55 11.5501 14.25 11.4001 13.95 11.1001C13.8 10.9501 13.8 10.8001 13.95 10.8001C14.7 10.0501 15.45 9.3001 16.2 8.5501C16.65 7.9501 16.65 7.6501 16.2 7.2001Z" fill="#121212"/>
<path d="M30.15 20.2501C30.15 19.6501 29.85 19.3501 29.4 19.3501C25.2 19.3501 21 19.3501 16.8 19.3501C16.2 19.3501 16.05 19.6501 16.05 20.2501C16.05 21.4501 16.05 22.8001 16.05 24.0001C16.05 24.7501 16.2 24.9001 16.95 24.9001C19.05 24.9001 21 24.9001 23.1 24.9001C25.2 24.9001 27.3 24.9001 29.4 24.9001C30 24.9001 30.3001 24.6001 30.3001 24.0001C30.1501 22.8001 30.15 21.4501 30.15 20.2501ZM28.8001 23.2501C28.8001 23.4001 28.8 23.5501 28.5 23.5501C24.9 23.5501 21.15 23.5501 17.55 23.5501C17.4 23.5501 17.25 23.5501 17.25 23.2501C17.25 22.5001 17.25 21.7501 17.25 21.0001C17.25 20.8501 17.25 20.7001 17.55 20.7001C19.35 20.7001 21.15 20.7001 22.95 20.7001C24.75 20.7001 26.55 20.7001 28.35 20.7001C28.65 20.7001 28.65 20.7001 28.65 21.0001C28.8 21.7501 28.8001 22.5001 28.8001 23.2501Z" fill="#121212"/>
<path d="M29.5501 26.25C29.4001 26.25 29.4 26.25 29.25 26.25C27.15 26.25 25.05 26.25 23.1 26.25C21 26.25 19.05 26.25 16.95 26.25C16.8 26.25 16.8 26.25 16.65 26.25C16.35 26.25 16.05 26.55 16.05 26.85C16.05 27.15 16.35 27.45 16.65 27.6C16.8 27.6 16.8 27.6 16.95 27.6C21.15 27.6 25.2 27.6 29.4 27.6C29.55 27.6 29.55 27.6 29.7 27.6C30 27.6 30.3001 27.3 30.3001 26.85C30.1501 26.55 29.85 26.4 29.5501 26.25Z" fill="#121212"/>
<path d="M16.5 30.4501C16.65 30.4501 16.65 30.4501 16.8 30.4501C21 30.4501 25.05 30.4501 29.25 30.4501C29.4 30.4501 29.4 30.4501 29.55 30.4501C29.85 30.4501 30.15 30.1501 30.15 29.7001C30.15 29.4001 29.85 29.1001 29.55 29.1001C29.4 29.1001 29.4 29.1001 29.25 29.1001C27.15 29.1001 25.2 29.1001 23.1 29.1001C21 29.1001 18.9 29.1001 16.95 29.1001C16.8 29.1001 16.8 29.1001 16.65 29.1001C16.35 29.1001 16.05 29.4001 16.05 29.7001C15.9 30.0001 16.2 30.3001 16.5 30.4501Z" fill="#121212"/>
<path d="M10.3501 23.5503C10.3501 23.1003 10.0501 22.8003 9.6001 22.8003C9.1501 22.8003 8.8501 23.1003 8.8501 23.5503C8.8501 24.4503 8.8501 25.3503 8.8501 26.1003C9.0001 26.7003 9.3001 27.0003 9.7501 27.0003C10.2001 27.0003 10.3501 26.7003 10.5001 26.2503C10.5001 25.8003 10.5001 25.3503 10.5001 24.9003C10.3501 24.4503 10.3501 24.0003 10.3501 23.5503Z" fill="#121212"/>
<path d="M23.7001 32.3999C23.4001 32.3999 22.9501 32.6999 22.9501 32.9999C22.9501 33.4499 23.2501 33.7499 23.7001 33.7499C24.0001 33.7499 24.4501 33.4499 24.4501 33.1499C24.4501 32.8499 24.1501 32.3999 23.7001 32.3999Z" fill="#121212"/>
</svg>
