<svg width="40" height="40" viewBox="0 0 40 40" fill="none" xmlns="http://www.w3.org/2000/svg">
<g clip-path="url(#clip0_46_9807)">
<path d="M23.1668 17.3332C27.8335 17.3332 31.5002 13.6665 31.5002 8.99984C31.5002 4.33317 27.8335 0.666504 23.1668 0.666504C18.5002 0.666504 14.8335 4.33317 14.8335 8.99984C14.8335 13.4998 18.6668 17.3332 23.1668 17.3332ZM23.3335 2.1665C27.1668 2.1665 30.1668 5.1665 30.1668 8.99984C30.1668 12.6665 27.1668 15.8332 23.3335 15.8332C19.5002 15.8332 16.5002 12.8332 16.5002 8.99984C16.5002 5.1665 19.5002 2.1665 23.3335 2.1665Z" fill="#5855B3"/>
<path d="M39.1667 18.6664C38.3334 16.4997 35.6667 15.9997 34.1667 17.6664C33.8334 18.1664 33.3334 18.4997 33.0001 18.9997C32.0001 19.9997 31.0001 21.1664 30.0001 22.1664C30.0001 22.1664 29.8334 22.4997 29.6667 22.333C29.0001 21.4997 28.0001 21.3331 27.0001 21.3331C24.5001 21.3331 21.8334 21.3331 19.3334 21.3331C19.1667 21.3331 19.0001 21.3331 18.8334 21.3331C17.6667 20.8331 16.6667 20.6664 15.3334 20.6664C11.6667 20.6664 8.66675 21.9997 6.83341 25.333C6.66675 25.4997 6.66675 25.4997 6.50008 25.4997C5.66675 25.4997 5.16675 25.6664 4.50008 26.3331C3.33341 27.4997 2.33341 28.4997 1.16675 29.6664C0.666748 30.1664 0.666748 30.4997 1.16675 31.1664C3.83341 33.833 6.50008 36.4997 9.16675 39.333C9.33342 39.4997 9.50008 39.6664 9.83342 39.833C10.0001 39.833 10.1667 39.833 10.3334 39.833C10.5001 39.6664 10.6667 39.6664 10.8334 39.4997C12.0001 38.333 13.1667 37.1664 14.3334 36.1664C14.6667 34.9997 14.8334 34.333 14.6667 33.333C14.6667 33.1664 14.6667 33.1664 14.6667 32.9997C15.3334 32.1664 16.1667 31.6664 17.3334 31.6664C20.5001 31.6664 23.6667 31.6664 26.8334 31.6664C29.0001 31.6664 30.8334 30.833 32.1667 29.1664C34.0001 26.9997 35.8334 24.6664 37.6667 22.4997C38.1667 21.833 38.8334 21.3331 39.1667 20.4997C39.3334 19.9997 39.3334 19.4997 39.1667 18.6664C39.3334 18.8331 39.3334 18.8331 39.1667 18.6664ZM13.0001 34.4997C12.0001 35.4997 11.0001 36.333 10.1667 37.333C10.0001 37.4997 10.0001 37.4997 9.83342 37.333C7.33342 34.9997 5.00008 32.6664 2.66675 30.1664C2.50008 29.9997 2.50008 29.9997 2.66675 29.833C3.66675 28.833 4.50008 27.9997 5.50008 26.9997C5.83341 26.6664 6.33341 26.6664 6.66675 26.9997C8.83342 29.1664 10.8334 31.1664 13.0001 33.333C13.1667 33.4997 13.3334 33.6664 13.3334 33.9997C13.3334 34.1664 13.1667 34.333 13.0001 34.4997ZM37.5001 20.8331C35.5001 23.1664 33.6667 25.4997 31.6667 27.8331C31.3334 28.1664 31.0001 28.6664 30.6667 28.9997C29.6667 29.833 28.5001 30.333 27.0001 30.333C25.3334 30.333 23.6667 30.333 22.0001 30.333C20.5001 30.333 19.0001 30.333 17.3334 30.333C16.0001 30.333 15.0001 30.6664 14.1667 31.6664C13.8334 31.9997 13.8334 31.9997 13.5001 31.6664C11.6667 29.833 10.0001 28.1664 8.16675 26.3331C8.00008 26.1664 8.00008 25.9997 8.16675 25.833C9.50008 23.6664 11.3334 22.4997 13.6667 22.1664C15.3334 21.8331 16.8334 21.9997 18.5001 22.6664C18.6667 22.8331 18.8334 22.833 19.1667 22.833C21.8334 22.833 24.6667 22.833 27.3334 22.833C28.3334 22.833 28.8334 23.3331 29.0001 24.1664C29.1667 24.9997 28.6667 25.6664 27.8334 25.833C27.6667 25.833 27.5001 25.833 27.3334 25.833C25.5001 25.833 23.6667 25.833 21.6667 25.833C21.5001 25.833 21.3334 25.833 21.1667 25.833C20.8334 25.833 20.6667 26.1664 20.5001 26.4997C20.5001 26.833 20.6667 27.1664 21.0001 27.333C21.1667 27.333 21.3334 27.333 21.5001 27.333C23.3334 27.333 25.3334 27.333 27.1667 27.333C29.3334 27.333 30.6667 25.6664 30.5001 23.9997C30.5001 23.833 30.6667 23.6664 30.6667 23.6664C32.3334 21.9997 33.8334 20.3331 35.5001 18.8331C36.1667 18.1664 37.0001 18.1664 37.6667 18.6664C38.0001 19.1664 38.0001 19.9997 37.5001 20.8331Z" fill="#121212"/>
<path d="M18.0001 25.6665C17.6667 25.6665 17.3334 25.9998 17.1667 26.3332C17.1667 26.6665 17.5001 27.1665 18.0001 27.1665C18.3334 27.1665 18.6667 26.8332 18.6667 26.4998C18.6667 25.9998 18.3334 25.6665 18.0001 25.6665Z" fill="#121212"/>
<path d="M23.5002 10.9998C23.1668 11.1665 22.8335 11.1665 22.5002 10.9998C22.3335 10.8332 22.1668 10.6665 22.0002 10.6665C21.6668 10.3332 21.1668 10.3332 20.8335 10.6665C20.5002 10.9998 20.5002 11.3332 20.8335 11.8332C21.0002 11.9998 21.1668 12.3332 21.5002 12.3332C22.1668 12.4998 22.3335 12.9998 22.1668 13.6665C22.1668 14.1665 22.5002 14.3332 22.8335 14.3332C23.3335 14.3332 23.5002 13.9998 23.6668 13.6665C23.6668 13.4998 23.6668 13.1665 23.6668 12.9998C23.6668 12.8332 23.6668 12.8332 23.8335 12.6665C25.0002 11.9998 25.5002 10.9998 25.3335 9.99984C25.0002 8.99984 24.3335 8.33317 23.1668 8.1665C22.8335 8.1665 22.5002 7.99984 22.5002 7.6665C22.3335 7.33317 22.5002 7.1665 22.6668 6.83317C22.8335 6.6665 23.1668 6.6665 23.5002 6.83317C23.6668 6.99984 23.8335 7.1665 24.0002 7.1665C24.3335 7.33317 24.6668 7.33317 25.0002 6.99984C25.3335 6.6665 25.3335 6.33317 25.0002 5.99984C24.8335 5.83317 24.6668 5.6665 24.5002 5.6665C23.8335 5.49984 23.6668 4.99984 23.8335 4.33317C23.8335 3.99984 23.5002 3.6665 23.1668 3.6665C22.8335 3.6665 22.5002 3.99984 22.5002 4.33317C22.5002 4.49984 22.5002 4.6665 22.5002 4.83317C22.5002 4.99984 22.5002 5.1665 22.1668 5.33317C21.0002 5.83317 20.6668 7.1665 21.1668 8.33317C21.5002 9.1665 22.1668 9.49984 23.1668 9.6665C23.5002 9.6665 23.8335 9.83317 24.0002 10.1665C23.8335 10.4998 23.8335 10.8332 23.5002 10.9998Z" fill="#121212"/>
</g>
<defs>
<clipPath id="clip0_46_9807">
<rect width="40" height="40" fill="white"/>
</clipPath>
</defs>
</svg>
