<svg width="40" height="40" viewBox="0 0 40 40" fill="none" xmlns="http://www.w3.org/2000/svg">
<path d="M7.49987 37.167C8.99987 37.167 10.6665 37.167 12.1665 37.167C13.8332 37.167 15.3332 37.167 16.9999 37.167C17.3332 37.167 17.6665 37.0003 17.6665 36.667C17.6665 36.3337 17.4999 36.167 16.9999 36.167H16.8332C13.8332 36.167 10.6665 36.167 7.66654 36.167C7.49987 36.167 7.33321 36.167 7.16654 36.167C6.83321 36.167 6.66654 36.667 6.83321 37.0003C6.99987 37.167 7.16654 37.167 7.49987 37.167Z" fill="#5855B3"/>
<path d="M22.1666 36.0002C21.8333 35.8335 21.6666 36.0002 21.4999 36.3335C20.9999 37.6668 20.3333 38.1668 18.9999 38.1668C16.4999 38.1668 14.1666 38.1668 11.6666 38.1668C9.49992 38.1668 7.49992 38.1668 5.33325 38.1668C4.66658 38.1668 3.99992 38.0002 3.49992 37.3335C2.99992 36.8335 2.83325 36.1668 2.83325 35.5002C2.83325 25.0002 2.83325 14.6668 2.83325 4.16683C2.83325 4.00016 2.83325 4.00016 2.83325 3.8335C2.83325 2.50016 3.83325 1.50016 5.16658 1.50016C5.66658 1.50016 6.16659 1.50016 6.66659 1.50016C6.83325 1.50016 6.99992 1.50016 6.99992 1.66683C7.16658 2.00016 7.33325 2.50016 7.49992 2.8335C7.83325 3.66683 8.33325 4.00016 9.33325 4.00016C11.3333 4.00016 13.1666 4.00016 15.1666 4.00016C16.1666 4.00016 16.6666 3.66683 16.9999 2.66683C17.1666 2.16683 17.1666 1.50016 17.6666 1.3335C17.9999 1.16683 18.6666 1.3335 19.1666 1.3335C19.9999 1.3335 20.6666 1.66683 21.1666 2.3335C21.4999 2.66683 21.6666 2.66683 21.9999 2.50016C22.3333 2.3335 22.3333 2.00016 21.9999 1.66683C21.4999 0.833496 20.6666 0.500163 19.6666 0.333496C18.8333 0.333496 17.9999 0.333496 17.1666 0.333496C13.1666 0.333496 9.33325 0.333496 5.33325 0.333496C4.99992 0.333496 4.66659 0.333496 4.49992 0.500163C2.83325 0.833496 1.83325 2.16683 1.83325 3.8335C1.83325 9.16683 1.83325 14.3335 1.83325 19.6668C1.83325 24.8335 1.83325 30.1668 1.83325 35.3335C1.83325 35.6668 1.83325 36.0002 1.99992 36.5002C2.49992 38.0002 3.66658 39.0002 5.49992 39.0002C9.99992 39.0002 14.4999 39.0002 18.9999 39.0002C19.1666 39.0002 19.3333 39.0002 19.6666 39.0002C20.9999 38.8335 22.3333 37.8335 22.4999 36.5002C22.4999 36.3335 22.4999 36.1668 22.1666 36.0002ZM16.4999 1.8335C16.3333 2.16683 16.1666 2.66683 15.9999 3.00016C15.8333 3.3335 15.4999 3.3335 15.3333 3.3335C13.3333 3.3335 11.3333 3.3335 9.33325 3.3335C8.99992 3.3335 8.66658 3.16683 8.49992 2.8335C8.49992 2.50016 8.33325 2.16683 8.16659 1.8335C10.9999 1.8335 13.6666 1.8335 16.4999 1.8335Z" fill="#121212"/>
<path d="M37.4999 13.5C32.6666 10.5 27.8332 7.5 22.8332 4.5C22.3332 4.16667 21.6666 4.16667 21.1666 4.5C16.3332 7.5 11.4999 10.5 6.66656 13.5C6.16656 13.8333 5.83323 14.1667 5.9999 14.6667C6.16656 15.1667 6.4999 15.5 7.16657 15.5C7.9999 15.5 8.9999 15.5 9.83323 15.5C10.1666 15.5 10.1666 15.5 10.1666 15.8333C10.1666 19 10.1666 22.1667 10.1666 25.5C10.1666 25.8333 10.3332 26.1667 10.1666 26.3333C9.9999 26.5 9.66656 26.3333 9.33323 26.3333C8.4999 26.3333 7.83323 26.8333 7.83323 27.8333C7.83323 28.3333 7.83323 28.8333 7.83323 29.5C7.83323 30.5 8.33323 31 9.33323 31C12.1666 31 14.9999 31 17.8332 31C18.3332 31 18.4999 30.8333 18.4999 30.5C18.4999 30.1667 18.1666 30 17.8332 30C17.6666 30 17.3332 30 17.1666 30C14.4999 30 11.9999 30 9.33323 30C8.9999 30 8.83323 29.8333 8.83323 29.5C8.83323 29 8.83323 28.5 8.83323 28.1667C8.83323 27.6667 8.83323 27.6667 9.33323 27.6667C11.9999 27.6667 14.6666 27.6667 17.1666 27.6667C17.4999 27.6667 17.6666 27.6667 17.9999 27.6667C18.3332 27.6667 18.4999 27.5 18.4999 27.1667C18.4999 27 18.3332 26.6667 18.1666 26.6667C17.8332 26.6667 17.8332 26.5 17.8332 26.1667C17.8332 24.5 17.8332 22.8333 17.8332 21C17.8332 19.3333 17.8332 17.5 17.8332 15.8333C17.8332 15.5 17.8332 15.5 18.1666 15.5C18.4999 15.5 18.8332 15.5 19.1666 15.5C19.4999 15.5 19.4999 15.6667 19.4999 15.8333C19.4999 17.5 19.4999 19 19.4999 20.6667C19.4999 20.8333 19.4999 21 19.4999 21C19.4999 21.1667 19.6666 21.3333 19.9999 21.3333C20.3332 21.3333 20.4999 21.1667 20.4999 21C20.4999 20.8333 20.4999 20.6667 20.4999 20.6667C20.4999 19 20.4999 17.3333 20.4999 15.8333C20.4999 15.5 20.4999 15.5 20.8332 15.5C21.4999 15.5 22.3332 15.5 22.9999 15.5C23.3332 15.5 23.4999 15.5 23.4999 15.8333C23.4999 17.5 23.4999 19 23.4999 20.6667C23.4999 20.8333 23.4999 21 23.4999 21C23.6666 21.1667 23.8332 21.3333 23.9999 21.3333C24.3332 21.3333 24.4999 21 24.4999 20.6667C24.4999 19.3333 24.4999 18 24.4999 16.5C24.4999 16 24.3332 15.5 24.4999 15.3333C24.6666 15 25.3332 15.3333 25.8332 15.1667C26.1666 15.1667 26.1666 15.3333 26.1666 15.5C26.1666 16.6667 26.1666 17.8333 26.1666 19C26.1666 19.5 26.1666 20 26.1666 20.5C26.1666 20.8333 26.3332 21 26.6666 21C26.9999 21 27.1666 20.8333 27.1666 20.5C27.1666 20.3333 27.1666 20.3333 27.1666 20.1667C27.1666 18.5 27.1666 17 27.1666 15.3333C27.1666 15 27.3332 15 27.4999 15C28.1666 15 28.9999 15 29.6666 15C29.9999 15 29.9999 15 29.9999 15.3333C29.9999 17 29.9999 18.5 29.9999 20.1667C29.9999 20.3333 29.9999 20.5 29.9999 20.6667C29.9999 20.8333 30.1666 21 30.4999 21C30.6666 21 30.8332 20.8333 30.9999 20.6667C30.9999 20.5 30.9999 20.3333 30.9999 20.1667C30.9999 18.8333 30.9999 17.5 30.9999 16.1667C30.9999 15.8333 30.8332 15.1667 30.9999 15C31.1666 14.6667 31.8332 15 32.1666 14.8333C32.4999 14.8333 32.4999 14.8333 32.4999 15.1667C32.4999 16.8333 32.4999 18.3333 32.4999 20C32.4999 20.1667 32.4999 20.1667 32.4999 20.3333C32.4999 20.6667 32.6666 20.8333 32.9999 20.8333C33.3332 20.8333 33.4999 20.6667 33.4999 20.3333C33.4999 20.1667 33.4999 20.1667 33.4999 20C33.4999 18.3333 33.4999 16.8333 33.4999 15.1667C33.4999 14.8333 33.6666 14.8333 33.8332 14.8333C34.6666 14.8333 35.6666 14.8333 36.4999 14.8333C37.1666 14.8333 37.4999 14.5 37.6666 13.8333C38.1666 14 37.9999 13.6667 37.4999 13.5ZM12.9999 21C12.9999 22.6667 12.9999 24.3333 12.9999 26.1667C12.9999 26.5 12.9999 26.5 12.6666 26.5C12.3332 26.5 11.9999 26.5 11.6666 26.5C11.3332 26.5 11.3332 26.3333 11.3332 26.1667C11.3332 23.3333 11.3332 20.5 11.3332 17.8333C11.3332 17.1667 11.3332 16.6667 11.3332 16C11.3332 15.6667 11.4999 15.6667 11.6666 15.6667C12.1666 15.6667 12.6666 15.5 12.9999 15.8333C13.1666 16 12.9999 16.6667 12.9999 17C12.9999 18.1667 12.9999 19.6667 12.9999 21ZM16.8332 26.1667C16.8332 26.3333 16.8332 26.5 16.4999 26.5C15.6666 26.5 14.9999 26.5 14.1666 26.5C13.8332 26.5 13.8332 26.5 13.8332 26.1667C13.8332 24.5 13.8332 22.6667 13.8332 21C13.8332 19.3333 13.8332 17.5 13.8332 15.8333C13.8332 15.5 13.9999 15.5 14.1666 15.5C14.8332 15.5 15.6666 15.5 16.3332 15.5C16.4999 15.5 16.6666 15.5 16.6666 15.8333C16.8332 19.3333 16.8332 22.6667 16.8332 26.1667ZM7.16657 14.5C7.16657 14.3333 7.33323 14.3333 7.33323 14.3333C12.1666 11.3333 16.9999 8.33333 21.6666 5.33333C21.8332 5.16667 22.1666 5.16667 22.3332 5.33333C27.1666 8.33333 31.9999 11.3333 36.8332 14.3333C36.8332 14.3333 36.8332 14.3333 36.9999 14.5C26.9999 14.5 17.1666 14.5 7.16657 14.5Z" fill="#121212"/>
<path d="M21.9998 7.16699C20.6665 7.16699 19.6665 8.16699 19.6665 9.50032C19.6665 10.8337 20.6665 11.8337 21.9998 11.8337C23.3332 11.8337 24.3332 10.8337 24.3332 9.50032C24.3332 8.16699 23.3332 7.16699 21.9998 7.16699ZM21.9998 10.667C21.3332 10.667 20.8332 10.167 20.8332 9.50032C20.8332 8.83366 21.3332 8.33366 21.9998 8.33366C22.6665 8.33366 23.1665 8.83366 23.1665 9.50032C23.3332 10.167 22.8332 10.667 21.9998 10.667Z" fill="#121212"/>
<path d="M36.1667 22.5C31.1667 22.5 26.1667 22.5 21.1667 22.5C20 22.5 19.5 23 19.5 24.1667C19.5 27.1667 19.5 30.1667 19.5 33.1667C19.5 34.3333 20 34.8333 21.1667 34.8333C23.6667 34.8333 26.1667 34.8333 28.6667 34.8333C31.1667 34.8333 33.6667 34.8333 36.1667 34.8333C37.3333 34.8333 37.8333 34.3333 37.8333 33.1667C37.8333 30.1667 37.8333 27.1667 37.8333 24.1667C37.8333 22.8333 37.3333 22.5 36.1667 22.5ZM36.8333 33.1667C36.8333 33.5 36.6667 33.6667 36.3333 33.6667C31.3333 33.6667 26.1667 33.6667 21.1667 33.6667C20.8333 33.6667 20.6667 33.5 20.6667 33.1667C20.6667 31.6667 20.6667 30.1667 20.6667 28.8333C20.6667 28.5 20.6667 28.5 21 28.5C23.5 28.5 26.1667 28.5 28.6667 28.5C31.1667 28.5 33.8333 28.5 36.3333 28.5C36.6667 28.5 36.6667 28.5 36.6667 28.8333C36.8333 30.1667 36.8333 31.6667 36.8333 33.1667ZM20.6667 26C20.6667 25.6667 20.6667 25.6667 21 25.6667C23.5 25.6667 26.1667 25.6667 28.6667 25.6667C31.1667 25.6667 33.8333 25.6667 36.3333 25.6667C36.6667 25.6667 36.8333 25.6667 36.6667 26C36.6667 26.3333 36.6667 26.6667 36.6667 27C36.6667 27.3333 36.5 27.3333 36.3333 27.3333C36.3333 27.3333 36.3333 27.3333 36.1667 27.3333C31 27.3333 26 27.3333 20.8333 27.3333C20.5 27.3333 20.3333 27.3333 20.5 27C20.6667 26.5 20.6667 26.3333 20.6667 26ZM36.8333 24.5C36.8333 24.6667 36.6667 24.6667 36.5 24.6667C34.8333 24.6667 33 24.6667 31.3333 24.6667C30.5 24.6667 29.6667 24.6667 28.8333 24.6667C26.3333 24.6667 23.6667 24.6667 21.1667 24.6667C20.8333 24.6667 20.8333 24.6667 20.8333 24.3333C20.8333 23.6667 20.8333 23.6667 21.5 23.6667C26.5 23.6667 31.3333 23.6667 36.3333 23.6667C36.6667 23.5 37 23.8333 36.8333 24.5Z" fill="#121212"/>
<path d="M23.4999 29C22.3333 29 21.4999 29.8333 21.3333 31C21.3333 32.1667 22.1666 33.1667 23.3333 33.1667C24.4999 33.1667 25.3332 32.1667 25.3332 31.1667C25.4999 30 24.4999 29 23.4999 29ZM23.3333 32C22.8333 32 22.3333 31.5 22.3333 31C22.3333 30.5 22.8333 30 23.3333 30C23.8333 30 24.3333 30.5 24.3333 31C24.3333 31.6667 23.9999 32.1667 23.3333 32Z" fill="#121212"/>
<path d="M28.6665 30.3335C29.6665 30.3335 30.8332 30.3335 31.8332 30.3335C32.9998 30.3335 33.9998 30.3335 35.1665 30.3335C35.6665 30.3335 35.8332 30.1668 35.8332 29.8335C35.8332 29.5002 35.6665 29.3335 35.1665 29.3335C32.9998 29.3335 30.8332 29.3335 28.8332 29.3335C28.3332 29.3335 28.1665 29.5002 28.1665 29.8335C27.9998 30.1668 28.1665 30.3335 28.6665 30.3335Z" fill="#121212"/>
<path d="M34.9999 31.3335C33.9999 31.3335 32.8333 31.3335 31.8333 31.3335C30.6666 31.3335 29.6666 31.3335 28.4999 31.3335C28.1666 31.3335 27.8333 31.5002 27.8333 31.8335C27.8333 32.1668 27.9999 32.3335 28.4999 32.3335C28.9999 32.3335 29.3333 32.3335 29.8333 32.3335C31.4999 32.3335 33.3333 32.3335 34.9999 32.3335C35.3333 32.3335 35.6666 32.1668 35.6666 31.8335C35.8333 31.6668 35.4999 31.3335 34.9999 31.3335Z" fill="#121212"/>
</svg>
