<svg width="40" height="40" viewBox="0 0 40 40" fill="none" xmlns="http://www.w3.org/2000/svg">
<g clip-path="url(#clip0_1_17263)">
<path d="M39.3334 39.1665C39.3334 38.8332 39.3334 38.4999 39.3334 38.1665C39.1667 37.9999 39.0001 37.9999 38.8334 37.9999C37.3334 37.9999 35.6667 37.9999 34.1667 37.9999C33.5001 37.9999 33.5001 37.9999 33.5001 37.3332C33.5001 32.1665 33.5001 26.9999 33.5001 21.8332C33.5001 20.9999 33.5001 20.9999 32.6667 20.9999C32.3334 20.9999 32.3334 20.8332 32.3334 20.6665C32.3334 20.1665 32.3334 19.6665 32.3334 19.1665C32.3334 18.8332 32.5001 18.6665 32.8334 18.6665C35.8334 17.8332 37.8334 15.9999 39.0001 13.1665C39.3334 12.3332 39.5001 11.6665 39.5001 10.8332C39.5001 10.1665 39.5001 9.49987 39.5001 8.99987C39.3334 8.66654 39.3334 8.33321 39.3334 7.99987C38.1667 2.99987 33.5001 -0.166793 28.3334 0.999873C23.8334 1.99987 20.6667 6.66654 21.3334 11.1665C22.0001 15.1665 24.3334 17.6665 28.1667 18.6665C28.3334 18.6665 28.5001 18.8332 28.5001 18.9999C28.5001 19.4999 28.5001 19.9999 28.5001 20.4999C28.5001 21.3332 28.5001 21.3332 27.6667 21.3332C27.3334 21.3332 27.3334 21.4999 27.3334 21.6665C27.3334 26.8332 27.3334 31.9999 27.3334 37.3332C27.3334 37.4999 27.3334 37.8332 27.3334 37.9999C27.3334 38.1665 27.3334 38.3332 27.0001 38.3332C26.5001 38.3332 25.8334 38.3332 25.3334 38.3332C25.0001 38.3332 24.8334 38.1665 24.8334 37.8332C24.8334 31.6665 24.8334 25.4999 24.8334 19.3332C24.8334 18.9999 24.8334 18.9999 24.5001 18.9999C22.6667 18.9999 21.0001 18.9999 19.1667 18.9999C18.8334 18.9999 18.8334 19.1665 18.8334 19.3332C18.8334 25.4999 18.8334 31.6665 18.8334 37.8332V37.9999C18.8334 38.1665 18.8334 38.1665 18.6667 38.1665C18.0001 38.1665 17.5001 38.1665 16.8334 38.1665C16.5001 38.1665 16.5001 38.1665 16.5001 37.8332C16.5001 33.1665 16.5001 28.6665 16.5001 23.9999C16.5001 23.6665 16.5001 23.6665 16.1667 23.6665C14.3334 23.6665 12.6667 23.6665 10.8334 23.6665C10.5001 23.6665 10.3334 23.8332 10.3334 24.1665C10.3334 28.8332 10.3334 33.3332 10.3334 37.9999C10.3334 38.3332 10.3334 38.3332 10.0001 38.3332C9.50006 38.3332 8.83339 38.3332 8.33339 38.3332C8.00006 38.3332 8.00006 38.3332 8.00006 37.9999C8.00006 35.3332 8.00006 32.8332 8.00006 30.1665C8.00006 29.8332 8.00006 29.8332 7.66673 29.8332C5.83339 29.8332 4.16673 29.8332 2.33339 29.8332C2.00006 29.8332 1.83339 29.8332 1.83339 30.3332C1.83339 32.8332 1.83339 35.4999 1.83339 37.9999C1.83339 38.1665 2.00006 38.3332 1.66673 38.3332C1.33339 38.3332 0.833392 38.1665 0.666725 38.3332C0.500059 38.4999 0.666725 38.9999 0.666725 39.3332V39.4999C13.5001 39.4999 26.3334 39.4999 39.0001 39.4999C39.1667 39.3332 39.1667 39.3332 39.3334 39.1665C39.3334 39.3332 39.3334 39.3332 39.3334 39.1665ZM6.33339 38.1665C5.33339 38.1665 4.33339 38.1665 3.33339 38.1665C3.16673 38.1665 3.00006 38.1665 3.00006 37.8332C3.00006 35.6665 3.00006 33.3332 3.00006 31.1665C3.00006 30.9999 3.00006 30.8332 3.33339 30.8332C4.33339 30.8332 5.33339 30.8332 6.50006 30.8332C6.66673 30.8332 6.83339 30.8332 6.83339 31.1665C6.83339 32.3332 6.83339 33.3332 6.83339 34.4999C6.83339 35.6665 6.83339 36.6665 6.83339 37.8332C6.66673 38.1665 6.66673 38.1665 6.33339 38.1665ZM14.8334 38.1665C13.8334 38.1665 12.8334 38.1665 11.8334 38.1665C11.6667 38.1665 11.5001 38.1665 11.5001 37.8332C11.5001 33.6665 11.5001 29.3332 11.5001 25.1665C11.5001 24.9999 11.5001 24.8332 11.8334 24.8332C12.8334 24.8332 13.8334 24.8332 14.8334 24.8332C15.0001 24.8332 15.1667 24.8332 15.1667 25.1665C15.1667 27.3332 15.1667 29.4999 15.1667 31.4999C15.1667 33.6665 15.1667 35.6665 15.1667 37.8332C15.1667 38.1665 15.1667 38.1665 14.8334 38.1665ZM23.6667 28.9999C23.6667 31.8332 23.6667 34.8332 23.6667 37.6665C23.6667 37.9999 23.6667 37.9999 23.3334 37.9999C22.3334 37.9999 21.3334 37.9999 20.3334 37.9999C20.1667 37.9999 20.0001 37.9999 20.0001 37.6665C20.0001 31.8332 20.0001 25.9999 20.0001 20.1665C20.0001 19.9999 20.0001 19.8332 20.3334 19.8332C21.3334 19.8332 22.3334 19.8332 23.3334 19.8332C23.6667 19.8332 23.6667 19.8332 23.6667 20.1665C23.6667 23.1665 23.6667 26.1665 23.6667 28.9999ZM25.5001 15.9999C22.8334 13.8332 21.8334 11.1665 22.6667 7.83321C23.3334 4.83321 26.0001 2.49987 29.0001 1.99987C33.3334 1.33321 37.5001 4.49987 38.0001 8.83321C38.5001 13.1665 35.5001 16.9999 31.1667 17.4999C30.8334 17.4999 30.8334 17.6665 30.8334 17.9999C30.8334 18.9999 30.8334 19.9999 30.8334 20.9999C30.8334 21.1665 30.8334 21.3332 30.5001 21.3332C29.5001 21.3332 29.5001 21.3332 29.5001 20.3332C29.5001 19.9999 29.5001 19.6665 29.5001 19.4999C29.5001 18.9999 29.5001 18.4999 29.5001 17.9999C29.5001 17.6665 29.3334 17.6665 29.1667 17.4999C28.0001 17.3332 26.6667 16.8332 25.5001 15.9999ZM31.8334 38.1665C30.8334 38.1665 29.8334 38.1665 28.8334 38.1665C28.6667 38.1665 28.5001 38.1665 28.5001 37.8332C28.5001 32.8332 28.5001 27.6665 28.5001 22.6665C28.5001 22.4999 28.5001 22.3332 28.8334 22.3332C29.8334 22.3332 30.8334 22.3332 31.8334 22.3332C32.0001 22.3332 32.1667 22.3332 32.1667 22.6665C32.1667 25.1665 32.1667 27.6665 32.1667 30.3332C32.1667 32.8332 32.1667 35.3332 32.1667 37.8332C32.1667 38.1665 32.0001 38.1665 31.8334 38.1665Z" fill="#5855B3"/>
<path d="M39.3334 21.1665C38.5001 21.1665 37.5001 21.1665 36.6667 21.1665C35.6667 21.1665 35.8334 21.1665 35.8334 21.9998C35.8334 22.1665 35.8334 22.3332 36.1667 22.3332C37.3334 22.3332 38.3334 22.3332 39.5001 22.3332C39.3334 21.9998 39.3334 21.6665 39.3334 21.1665Z" fill="#121212"/>
<path d="M39.3334 23.6665C38.5001 23.6665 37.5001 23.6665 36.6667 23.6665C35.6667 23.6665 35.8334 23.6665 35.8334 24.4998C35.8334 24.6665 35.8334 24.8332 36.1667 24.8332C37.3334 24.8332 38.3334 24.8332 39.5001 24.8332C39.3334 24.4998 39.3334 23.9998 39.3334 23.6665Z" fill="#121212"/>
<path d="M39.3334 26C38.5001 26 37.5001 26 36.6667 26C35.6667 26 35.8334 26 35.8334 26.8333C35.8334 27 35.8334 27.1667 36.1667 27.1667C37.3334 27.1667 38.3334 27.1667 39.5001 27.1667C39.3334 26.8333 39.3334 26.5 39.3334 26Z" fill="#121212"/>
<path d="M39.3334 28.5C38.5001 28.5 37.5001 28.5 36.6667 28.5C35.6667 28.5 35.8334 28.5 35.8334 29.3333C35.8334 29.5 35.8334 29.6667 36.1667 29.6667C37.3334 29.6667 38.3334 29.6667 39.5001 29.6667C39.3334 29.3333 39.3334 28.8333 39.3334 28.5Z" fill="#121212"/>
<path d="M39.3334 30.833C38.5001 30.833 37.5001 30.833 36.6667 30.833C35.6667 30.833 35.8334 30.833 35.8334 31.6663C35.8334 31.833 35.8334 31.9997 36.1667 31.9997C37.3334 31.9997 38.3334 31.9997 39.5001 31.9997C39.3334 31.6663 39.3334 31.333 39.3334 30.833Z" fill="#121212"/>
<path d="M39.3334 33.333C38.5001 33.333 37.5001 33.333 36.6667 33.333C35.6667 33.333 35.8334 33.333 35.8334 34.1663C35.8334 34.333 35.8334 34.4997 36.1667 34.4997C37.3334 34.4997 38.3334 34.4997 39.5001 34.4997C39.3334 34.1663 39.3334 33.6663 39.3334 33.333Z" fill="#121212"/>
<path d="M35.6667 36.6664C35.6667 36.8331 35.6667 36.9998 36.0001 36.9998C37.1667 36.9998 38.1667 36.9998 39.3334 36.9998C39.3334 36.6664 39.3334 36.1664 39.3334 35.8331C38.5001 35.8331 37.5001 35.8331 36.6667 35.8331C35.6667 35.6664 35.6667 35.6664 35.6667 36.6664Z" fill="#121212"/>
<path d="M1.5001 27.9998C1.66676 28.3332 1.66676 28.3332 2.0001 27.9998C4.33343 25.8332 6.83343 23.6665 9.16676 21.3332C9.33343 21.1665 9.5001 20.9998 9.83343 20.9998C11.0001 20.9998 12.1668 20.9998 13.3334 20.9998C13.5001 20.9998 13.6668 20.9998 14.0001 20.8332C15.5001 19.3332 17.0001 17.6665 18.6668 16.1665C18.8334 15.9998 18.8334 15.9998 18.8334 15.8332C18.8334 15.8332 18.8334 15.8332 19.0001 15.8332C19.0001 15.9998 19.0001 16.1665 19.0001 16.4998C19.0001 17.3332 19.0001 17.3332 20.0001 17.3332C20.1668 17.3332 20.3334 17.3332 20.3334 16.9998C20.3334 15.9998 20.3334 14.9998 20.3334 13.9998C20.3334 13.8332 20.3334 13.6665 20.0001 13.6665C19.1668 13.6665 18.3334 13.6665 17.5001 13.6665C16.5001 13.6665 16.5001 13.6665 16.5001 14.6665C16.5001 14.8332 16.5001 14.9998 16.6668 14.9998C17.0001 14.9998 17.5001 14.9998 18.0001 14.9998C16.3334 16.6665 14.8334 18.1665 13.3334 19.6665C13.1668 19.9998 13.0001 19.9998 12.8334 19.9998C11.6668 19.9998 10.3334 19.9998 9.16676 19.9998C9.0001 19.9998 8.83343 19.9998 8.66676 20.1665C6.33343 22.3332 3.83343 24.4998 1.5001 26.8332C1.33343 26.9998 1.0001 27.1665 1.0001 27.4998C0.83343 27.6665 1.33343 27.8332 1.5001 27.9998Z" fill="#121212"/>
<path d="M37.0001 9.66667C37.0001 6 34.0001 3 30.3334 3C26.6667 3 23.6667 6 23.6667 9.66667C23.6667 13.3333 26.6667 16.3333 30.3334 16.3333C34.0001 16.3333 37.0001 13.3333 37.0001 9.66667ZM24.8334 9.66667C24.8334 6.66667 27.3334 4.16667 30.3334 4.33333C33.3334 4.33333 35.8334 6.83333 35.6667 9.83333C35.6667 12.8333 33.1667 15.1667 30.1667 15.1667C27.3334 15.1667 24.8334 12.6667 24.8334 9.66667Z" fill="#121212"/>
<path d="M30.8334 12.9997C30.8334 11.333 30.8334 9.66634 30.8334 7.99967C30.8334 7.99967 30.8334 7.99967 31 7.99967C31.1667 8.16634 31.3334 8.33301 31.5 8.49967C31.6667 8.66634 31.8334 9.16634 32.1667 8.99967C32.3334 8.99967 32.6667 8.66634 32.8334 8.49967C33 8.33301 33 8.16634 32.8334 8.16634C32 7.33301 31.3334 6.66634 30.5 5.83301C30.3334 5.66634 30.1667 5.66634 30.1667 5.83301C29.5 6.49967 29 6.99967 28.3334 7.66634C27.6667 8.33301 27.6667 8.33301 28.3334 8.99967C28.5 9.16634 28.5 9.16634 28.6667 8.99967C29 8.66634 29.3334 8.33301 29.6667 7.99967C29.6667 8.16634 29.6667 8.33301 29.6667 8.49967C29.6667 9.83301 29.6667 11.333 29.6667 12.6663C29.6667 13.4997 29.6667 13.4997 30.5 13.4997C30.8334 13.333 31 13.333 30.8334 12.9997Z" fill="#121212"/>
</g>
<defs>
<clipPath id="clip0_1_17263">
<rect width="40" height="40" fill="white"/>
</clipPath>
</defs>
</svg>
