<svg width="36" height="36" viewBox="0 0 36 36" fill="none" xmlns="http://www.w3.org/2000/svg">
<path d="M30.6 11.2502C29.4 10.5002 28.2 10.2002 26.85 10.2002C26.7 10.2002 26.55 10.3502 26.55 10.0502C26.4 9.45019 25.95 9.00019 25.95 8.2502C25.95 6.7502 25.95 5.2502 25.95 3.6002C25.95 1.8002 24.75 0.450195 22.8 0.450195C17.85 0.450195 12.9 0.450195 7.79998 0.450195C5.99998 0.750195 4.64998 1.9502 4.64998 3.7502C4.64998 5.2502 4.64998 6.7502 4.64998 8.2502C4.64998 8.55019 4.64998 8.7002 4.49998 9.00019C4.04998 10.3502 3.59998 11.5502 2.99998 12.9002C2.84998 13.3502 2.84998 13.6502 2.84998 14.2502C2.84998 20.5502 2.84998 26.8502 2.84998 33.1502C2.84998 34.5002 3.59998 35.4002 4.94998 35.4002C8.39998 35.4002 11.85 35.4002 15.3 35.4002C18.75 35.4002 22.2 35.4002 25.65 35.4002C25.95 35.4002 26.25 35.4002 26.4 35.2502C27.3 34.9502 27.75 34.2002 27.75 33.3002C27.75 29.7002 27.75 26.1002 27.75 22.5002C27.75 22.2002 27.9 22.2002 28.05 22.0502C30.6 21.7502 32.4 19.9502 33 17.4002C33.6 15.0002 32.55 12.6002 30.6 11.2502ZM5.69998 3.7502C5.69998 2.5502 6.44998 1.8002 7.64998 1.8002C12.75 1.8002 17.7 1.8002 22.8 1.8002C24 1.8002 24.75 2.5502 24.75 3.7502C24.75 5.1002 24.75 6.6002 24.75 7.9502C24.75 8.2502 24.75 8.2502 24.45 8.2502C21.45 8.2502 18.3 8.2502 15.3 8.2502C12.3 8.2502 9.14998 8.2502 6.14998 8.2502C5.84998 8.2502 5.84998 8.1002 5.84998 7.9502C5.69998 6.6002 5.69998 5.1002 5.69998 3.7502ZM5.54998 9.60019C5.54998 9.4502 5.69998 9.4502 5.84998 9.4502C6.14998 9.4502 6.44998 9.4502 6.74998 9.4502C12.75 9.4502 18.6 9.4502 24.6 9.4502C24.9 9.4502 25.05 9.4502 25.2 9.75019C25.2 10.0502 25.5 10.2002 25.5 10.3502C25.5 10.5002 25.05 10.5002 24.9 10.6502C23.85 11.1002 23.1 11.8502 22.5 12.7502C22.35 12.9002 22.35 12.9002 22.05 12.9002C16.2 12.9002 10.35 12.9002 4.49998 12.9002H4.34998C4.64998 11.8502 5.09998 10.6502 5.54998 9.60019ZM26.7 33.1502C26.7 33.9002 26.4 34.2002 25.65 34.2002C18.75 34.2002 11.85 34.2002 4.94998 34.2002C4.19998 34.2002 3.89998 33.9002 3.89998 33.1502C3.89998 27.0002 3.89998 20.7002 3.89998 14.5502C3.89998 14.4002 3.89998 14.2502 4.19998 14.2502C9.89998 14.2502 15.75 14.2502 21.45 14.2502H21.6C21.15 15.6002 21.15 16.8002 21.6 18.1502C22.35 20.4002 24 21.7502 26.4 22.2002C26.7 22.2002 26.7 22.3502 26.7 22.6502C26.7 25.9502 26.7 29.5502 26.7 33.1502ZM27.45 21.0002C24.6 21.1502 22.35 18.7502 22.35 16.0502C22.35 13.3502 24.6 11.1002 27.3 11.1002C30 11.1002 32.1 13.3502 32.1 16.0502C32.1 18.9002 30 21.0002 27.45 21.0002Z" fill="#5855B3"/>
<path d="M23.55 25.0503C23.25 25.0503 22.95 25.0503 22.65 25.0503C22.5 25.0503 22.35 25.0503 22.35 24.9003C21.45 21.7503 19.35 19.9503 16.05 19.5003C16.05 19.5003 15.9 19.5003 15.9 19.3503C15.9 19.2003 15.9 18.9003 15.9 18.7503C15.9 18.6003 16.2 18.7503 16.35 18.7503C16.65 18.7503 16.8 18.6003 16.8 18.1503C16.8 17.8503 16.65 17.5503 16.35 17.5503C15.75 17.5503 15 17.5503 14.4 17.5503C14.1 17.5503 13.95 17.7003 13.95 18.0003C13.95 18.3003 13.95 18.4503 14.25 18.6003C14.4 18.6003 14.55 18.6003 14.7 18.6003C14.85 18.6003 14.85 18.6003 14.85 18.7503C14.85 18.9003 14.85 19.0503 14.85 19.0503C14.85 19.2003 14.85 19.3503 14.55 19.3503C11.4 19.8003 9.29997 21.6003 8.24997 24.7503C8.24997 24.9003 8.09997 25.0503 7.94997 25.0503C7.64997 25.0503 7.34997 25.0503 7.19997 25.0503C6.89997 25.0503 6.74997 25.0503 6.59997 25.3503C6.44997 25.6503 6.59997 25.8003 6.74997 25.9503C6.89997 26.2503 7.19997 26.5503 7.34997 26.8503C7.94997 27.9003 8.84997 28.2003 9.89997 28.2003C11.7 28.2003 13.5 28.2003 15.45 28.2003C17.25 28.2003 19.2 28.2003 21 28.2003C21.9 28.2003 22.8 27.9003 23.4 27.0003C23.7 26.5503 24 26.2503 24.15 25.8003C24.3 25.5003 24 25.0503 23.55 25.0503ZM14.85 20.5503C17.7 20.2503 20.7 22.3503 21.3 25.0503C17.25 25.0503 13.35 25.0503 9.44997 25.0503C9.44997 22.9503 12.15 20.7003 14.85 20.5503ZM20.85 27.3003C17.1 27.3003 13.35 27.3003 9.59997 27.3003C8.84997 27.3003 8.24997 27.0003 7.94997 26.2503C12.75 26.2503 17.55 26.2503 22.35 26.2503C22.2 26.8503 21.75 27.3003 20.85 27.3003Z" fill="#121212"/>
<path d="M29.7 14.4C29.4 14.25 29.25 14.4 29.1 14.55C28.35 15.15 27.6 15.75 26.7 16.35C26.55 16.5 26.4 16.5 26.25 16.35C26.1 16.05 25.8 15.75 25.5 15.45C25.2 15.15 24.9 15.15 24.75 15.3C24.45 15.45 24.45 15.75 24.75 16.05C25.2 16.5 25.5 17.1 25.95 17.55C26.1 17.7 26.25 17.85 26.4 17.85C26.55 17.85 26.7 17.85 26.85 17.7C27.9 16.95 28.95 16.05 30 15.3C30 15.15 30 14.55 29.7 14.4Z" fill="#121212"/>
<path d="M7.79993 7.05032C10.3499 7.05032 12.7499 7.05032 15.2999 7.05032C17.8499 7.05032 20.3999 7.05032 22.7999 7.05032C23.3999 7.05032 23.5499 6.90032 23.5499 6.30032C23.5499 5.70032 23.5499 4.95032 23.5499 4.35032C23.5499 3.60032 23.0999 3.15032 22.3499 3.15032C17.6999 3.15032 12.8999 3.15032 8.24993 3.15032C7.49993 3.00032 7.04993 3.45032 7.04993 4.20032C7.04993 4.80032 7.04993 5.55032 7.04993 6.15032C7.04993 6.90032 7.19993 7.05032 7.79993 7.05032ZM8.09993 5.70032C8.09993 5.25032 8.09993 4.80032 8.09993 4.35032C8.09993 4.20032 8.09993 4.05032 8.39993 4.05032C8.39993 4.05032 8.39993 4.05032 8.54993 4.05032C13.0499 4.05032 17.6999 4.05032 22.1999 4.05032C22.3499 4.05032 22.4999 4.20032 22.4999 4.50032C22.4999 4.80032 22.4999 5.25032 22.4999 5.55032C22.4999 6.00032 22.3499 6.00032 22.0499 6.00032C19.7999 6.00032 17.5499 6.00032 15.2999 6.00032C13.0499 6.00032 10.7999 6.00032 8.39993 6.00032C8.09993 6.00032 8.09993 5.85032 8.09993 5.70032Z" fill="#121212"/>
</svg>
