<svg width="40" height="40" viewBox="0 0 40 40" fill="none" xmlns="http://www.w3.org/2000/svg">
<path d="M32.1666 3.49984C32.1666 3.33317 32.1666 3.1665 32.1666 2.99984C32 2.1665 31.6666 1.6665 30.8333 1.33317C30.6666 1.33317 30.6666 1.33317 30.5 1.1665C23.5 1.1665 16.3333 1.1665 9.33331 1.1665C8.33331 1.49984 7.83331 2.1665 7.83331 3.33317C7.83331 14.3332 7.83331 25.4998 7.83331 36.4998C7.83331 37.8332 8.66665 38.6665 9.99998 38.6665C12.1666 38.6665 14.3333 38.6665 16.5 38.6665C21 38.6665 25.5 38.6665 30.1666 38.6665C31.1666 38.6665 31.8333 38.1665 32.1666 37.3332C32.3333 36.9998 32.3333 36.6665 32.3333 36.3332C32.1666 25.4998 32.1666 14.4998 32.1666 3.49984ZM14.6666 3.33317C16.5 3.33317 18.1666 3.33317 20 3.33317C21.6666 3.33317 23.5 3.33317 25.1666 3.33317C25.5 3.33317 25.5 3.49984 25.5 3.83317C25.3333 4.83317 24.6666 5.6665 23.5 5.6665C21 5.6665 18.6666 5.6665 16.1666 5.6665C15 5.6665 14.3333 4.83317 14.1666 3.83317C14.3333 3.49984 14.5 3.33317 14.6666 3.33317ZM29.6666 36.6665C23.3333 36.6665 16.8333 36.6665 10.5 36.6665C9.99998 36.6665 9.99998 36.4998 9.99998 36.1665C9.99998 25.3332 9.99998 14.4998 9.99998 3.83317C9.99998 3.49984 9.99998 3.33317 10.3333 3.33317C10.6666 3.33317 11.1666 3.33317 11.5 3.33317C12 3.33317 12 3.33317 12.1666 3.83317C12.3333 5.33317 13 6.33317 14.1666 7.1665C14.8333 7.49984 15.5 7.6665 16.1666 7.6665C18.6666 7.6665 21.1666 7.6665 23.6666 7.6665C25.8333 7.6665 27.5 5.99984 27.6666 3.83317C27.6666 3.6665 27.6666 3.6665 27.6666 3.49984C27.6666 3.33317 27.6666 3.33317 27.8333 3.33317C28.5 3.33317 29 3.33317 29.6666 3.33317C30 3.33317 30 3.49984 30 3.6665C30 3.83317 30 3.83317 30 3.99984C30 9.33317 30 14.8332 30 20.1665C30 25.4998 30 30.9998 30 36.3332C30 36.4998 30 36.6665 29.6666 36.6665Z" fill="#5855B3"/>
<path d="M26.6667 22.833C26.5 22.833 26.5 22.833 26.5 22.6663C26.6667 21.9997 26.6667 21.333 26.5 20.833C26.5 20.6663 26.5 20.6663 26.6667 20.6663C27.1667 20.4997 27.5 19.9997 27.3333 19.4997C27.3333 16.333 25 13.4997 21.8333 12.833C21.5 12.833 21.1667 12.833 21 12.6663C20.8333 12.4997 21 12.1663 21 11.833C21 11.1663 20.5 10.833 19.8333 10.833C19.1667 10.833 18.8333 11.333 18.8333 11.9997C18.8333 12.6663 18.8333 12.6663 18.1667 12.833C15 13.1663 12.5 16.1663 12.5 19.4997C12.5 19.9997 12.6667 20.4997 13.1667 20.6663C13.3333 20.6663 13.3333 20.833 13.3333 20.9997C13.1667 21.6663 13.1667 22.1663 13.3333 22.833C13.3333 22.9997 13.3333 22.9997 13.1667 23.1663C12.8333 23.333 12.5 23.6663 12.5 23.9997C12.5 24.6663 12.5 25.333 12.5 25.9997C13 28.1663 14.6667 29.6663 17 29.6663C18 29.6663 19 29.6663 20 29.6663C21 29.6663 22.1667 29.6663 23.1667 29.6663C24.5 29.6663 25.6667 28.9997 26.5 27.833C27.3333 26.6663 27.5 25.333 27.3333 23.9997C27.3333 23.333 27.1667 22.9997 26.6667 22.833ZM15 17.9997C15.6667 16.1663 17 14.9997 18.8333 14.6663C18.8333 14.833 18.8333 14.9997 19 15.1663C19.1667 15.6663 19.6667 15.9997 20.1667 15.9997C20.6667 15.9997 21.1667 15.4997 21.1667 14.9997C21.1667 14.6663 21.3333 14.6663 21.5 14.6663C23.3333 15.1663 24.5 16.1663 25 17.833C25.1667 17.9997 25 18.1663 24.8333 18.1663C21.6667 18.1663 18.5 18.1663 15.1667 18.1663C14.8333 18.333 14.8333 18.333 15 17.9997ZM24.5 21.6663C24.5 22.333 24 22.833 23.3333 22.833C22.1667 22.833 21 22.833 20 22.833C18.8333 22.833 17.8333 22.833 16.6667 22.833C15.8333 22.833 15.3333 22.1663 15.5 21.4997C15.6667 20.9997 16 20.6663 16.5 20.6663C18.8333 20.6663 21 20.6663 23.3333 20.6663C24 20.6663 24.5 21.1663 24.5 21.6663ZM25.1667 25.4997C25 26.4997 24.1667 27.1663 23.1667 27.333C21.6667 27.333 20.1667 27.333 18.6667 27.333C18 27.333 17.5 27.333 16.8333 27.333C15.8333 27.333 15 26.4997 14.8333 25.4997C14.8333 25.1663 14.8333 25.1663 15.1667 25.1663C16.8333 25.1663 18.5 25.1663 20 25.1663C21.6667 25.1663 23.3333 25.1663 24.8333 25.1663C25.3333 24.9997 25.3333 25.1663 25.1667 25.4997Z" fill="#121212"/>
<path d="M21.8333 32.1665C20.6666 32.1665 19.5 32.1665 18.3333 32.1665C17.6666 32.1665 17.1666 32.6665 17.1666 33.3332C17.1666 33.9998 17.6666 34.4998 18.3333 34.4998C19 34.4998 19.5 34.4998 20.1666 34.4998C20.8333 34.4998 21.3333 34.4998 22 34.4998C22.6666 34.4998 23.1666 33.9998 23.1666 33.3332C23 32.6665 22.5 32.1665 21.8333 32.1665Z" fill="#121212"/>
</svg>
