<svg width="20" height="20" viewBox="0 0 20 20" fill="none" xmlns="http://www.w3.org/2000/svg">
<path d="M16.675 17.3558L17.2981 16.7327L15.4423 14.8769V12.1154H14.5577V15.2385L16.675 17.3558ZM2.3077 17.5C1.80898 17.5 1.38302 17.3233 1.02982 16.9701C0.676608 16.6169 0.5 16.191 0.5 15.6923V2.3077C0.5 1.80898 0.676608 1.38302 1.02982 1.02982C1.38302 0.676608 1.80898 0.5 2.3077 0.5H15.6923C16.191 0.5 16.6169 0.676608 16.9701 1.02982C17.3233 1.38302 17.5 1.80898 17.5 2.3077V8.63265C17.2538 8.52753 17.0073 8.43844 16.7605 8.36538C16.5137 8.29229 16.2602 8.23396 16 8.19038V2.3077C16 2.23077 15.9679 2.16024 15.9038 2.09613C15.8397 2.03203 15.7692 1.99998 15.6923 1.99998H2.3077C2.23077 1.99998 2.16024 2.03203 2.09612 2.09613C2.03202 2.16024 1.99997 2.23077 1.99997 2.3077V15.6923C1.99997 15.7692 2.03202 15.8397 2.09612 15.9038C2.16024 15.9679 2.23077 16 2.3077 16H8.16538C8.20254 16.2769 8.25767 16.5387 8.33075 16.7855C8.40382 17.0323 8.49292 17.2705 8.59805 17.5H2.3077ZM1.99997 15V16V1.99998V8.19038V8.11538V15ZM4.25 13.6346H8.2673C8.31088 13.3743 8.37563 13.1208 8.46153 12.874C8.54743 12.6272 8.64102 12.3808 8.7423 12.1346H4.25V13.6346ZM4.25 9.74995H10.5904C11.0212 9.38458 11.4808 9.0785 11.9692 8.8317C12.4577 8.58492 12.9807 8.4096 13.5384 8.30575V8.25H4.25V9.74995ZM4.25 5.86535H13.75V4.36538H4.25V5.86535ZM15 19.5576C13.7513 19.5576 12.6891 19.1198 11.8135 18.2442C10.9378 17.3685 10.5 16.3064 10.5 15.0577C10.5 13.809 10.9378 12.7468 11.8135 11.8712C12.6891 10.9955 13.7513 10.5577 15 10.5577C16.2487 10.5577 17.3109 10.9955 18.1865 11.8712C19.0621 12.7468 19.5 13.809 19.5 15.0577C19.5 16.3064 19.0621 17.3685 18.1865 18.2442C17.3109 19.1198 16.2487 19.5576 15 19.5576Z" fill="#B2B1DC"/>
</svg>
