<svg width="22" height="16" viewBox="0 0 22 16" fill="none" xmlns="http://www.w3.org/2000/svg">
<path d="M12.7495 8.71133C12.0508 8.71133 11.4594 8.46935 10.9755 7.98538C10.4915 7.50142 10.2495 6.91008 10.2495 6.21136C10.2495 5.51266 10.4915 4.92133 10.9755 4.43736C11.4594 3.95339 12.0508 3.71141 12.7495 3.71141C13.4482 3.71141 14.0395 3.95339 14.5235 4.43736C15.0074 4.92133 15.2494 5.51266 15.2494 6.21136C15.2494 6.91008 15.0074 7.50142 14.5235 7.98538C14.0395 8.46935 13.4482 8.71133 12.7495 8.71133ZM6.15333 11.8075C5.65623 11.8075 5.23067 11.6305 4.87665 11.2765C4.52265 10.9225 4.34565 10.4969 4.34565 9.99981V2.42291C4.34565 1.92581 4.52265 1.50025 4.87665 1.14623C5.23067 0.792234 5.65623 0.615234 6.15333 0.615234H19.3456C19.8427 0.615234 20.2683 0.792234 20.6223 1.14623C20.9763 1.50025 21.1533 1.92581 21.1533 2.42291V9.99981C21.1533 10.4969 20.9763 10.9225 20.6223 11.2765C20.2683 11.6305 19.8427 11.8075 19.3456 11.8075H6.15333ZM7.6533 10.3075H17.8456C17.8456 9.80882 18.0226 9.38286 18.3766 9.02966C18.7306 8.67644 19.1562 8.49983 19.6533 8.49983V3.92288C19.1546 3.92288 18.7286 3.74588 18.3754 3.39188C18.0222 3.03787 17.8456 2.61231 17.8456 2.11521H7.6533C7.6533 2.61393 7.4763 3.03988 7.1223 3.39308C6.76829 3.74628 6.34273 3.92288 5.84563 3.92288V8.49983C6.34435 8.49983 6.7703 8.67684 7.1235 9.03086C7.4767 9.38486 7.6533 9.81042 7.6533 10.3075ZM18.1725 15.3075H2.65338C2.15626 15.3075 1.7307 15.1305 1.3767 14.7764C1.0227 14.4224 0.845703 13.9969 0.845703 13.4998V3.59601H2.34565V13.4998C2.34565 13.5767 2.37771 13.6472 2.44183 13.7113C2.50593 13.7754 2.57644 13.8075 2.65338 13.8075H18.1725V15.3075ZM6.15333 10.3075H5.84563V2.11521H6.15333C6.06999 2.11521 5.99788 2.14566 5.93698 2.20656C5.87608 2.26746 5.84563 2.33958 5.84563 2.42291V9.99981C5.84563 10.0831 5.87608 10.1553 5.93698 10.2162C5.99788 10.2771 6.06999 10.3075 6.15333 10.3075Z" fill="#B2B1DC"/>
</svg>
