<svg width="40" height="40" viewBox="0 0 40 40" fill="none" xmlns="http://www.w3.org/2000/svg">
<g clip-path="url(#clip0_46_9797)">
<path d="M32.3333 16.6665C31 16.6665 30 17.6665 30 18.9998C30 20.3332 31 21.3332 32.3333 21.3332C33.6667 21.3332 34.6667 20.3332 34.6667 18.9998C34.6667 17.8332 33.6667 16.6665 32.3333 16.6665ZM32.3333 20.1665C31.6667 20.1665 31.1667 19.6665 31.1667 18.9998C31.1667 18.3332 31.6667 17.8332 32.3333 17.8332C33 17.8332 33.5 18.3332 33.5 18.9998C33.5 19.6665 33 20.3332 32.3333 20.1665Z" fill="#5855B3"/>
<path d="M12.4999 15.6666C12.3333 15.6666 12.3333 15.6666 12.1666 15.5C11.4999 15.3333 10.6666 15 9.99992 14.8333C8.33325 14.3333 6.83325 14 5.16659 13.5C4.66659 13.3333 4.49992 13.5 4.33325 13.8333C4.16659 14.1666 4.33325 14.5 4.83325 14.6666C6.83325 15.1666 8.66659 15.8333 10.6666 16.3333C11.1666 16.5 11.8333 16.5 12.1666 16.6666C12.4999 16.6666 12.8333 16.5 12.8333 16.1666C12.9999 16 12.8333 15.6666 12.4999 15.6666Z" fill="#121212"/>
<path d="M39.5 11.9998C39.5 10.9998 39 10.4998 38 10.4998C35.6667 10.4998 33.1667 10.4998 30.8333 10.4998C30.5 10.4998 30 10.4998 29.6667 10.4998C29.6667 10.1665 29.8333 9.99982 29.8333 9.83315C30.1667 8.33315 29.6667 7.16649 28 6.66649C21.1667 4.66649 14.3333 2.66649 7.33333 0.666488C6 0.333154 4.66667 0.999821 4.33333 2.33315C3 6.66649 1.83333 10.8332 0.666667 15.1665C0.666667 15.3332 0.666667 15.4998 0.5 15.4998C0.5 15.8332 0.5 16.1665 0.5 16.4998C0.833333 17.6665 1.66667 18.1665 2.83333 18.4998C4.5 18.9998 6.33333 19.4998 8 19.9998C8.33333 19.9998 8.33333 20.1665 8.33333 20.4998C8.33333 22.4998 8.33333 24.3332 8.33333 26.3332C8.33333 27.3332 8.83333 27.8332 9.83333 27.8332C11.8333 27.8332 13.8333 27.8332 16 27.8332C16.3333 27.8332 16.3333 27.8332 16.3333 28.1665C16.1667 29.3332 15.6667 30.3332 15 31.1665C13.1667 33.4998 13 36.1665 13.5 39.1665C13.5 39.4998 13.8333 39.6665 14.1667 39.6665C14.5 39.6665 14.6667 39.3332 14.6667 38.8332C14.6667 38.3332 14.5 37.9998 14.5 37.4998C14 35.3332 14.3333 33.3332 15.8333 31.6665C16.3333 30.9998 16.6667 30.3332 17 29.4998C17.6667 27.3332 17.5 25.1665 17.3333 22.9998C17.3333 22.1665 17.1667 21.3332 17.1667 20.4998C17.1667 19.3332 18 18.3332 19.3333 18.3332C20.5 18.3332 21.5 19.3332 21.5 20.4998C21.3333 22.4998 21.3333 24.6665 21.5 26.6665C21.6667 28.1665 22 29.8332 22.6667 31.1665C23 31.6665 23.3333 32.3332 23.8333 32.6665C24.1667 32.8332 24.5 32.8332 24.6667 32.4998C24.8333 32.1665 24.8333 31.8332 24.5 31.6665C24.1667 31.4998 24 31.1665 23.8333 30.9998C23.3333 29.9998 23 28.9998 22.8333 27.9998C22.8333 27.6665 23 27.8332 23.1667 27.8332C25.5 27.8332 27.8333 27.8332 30.1667 27.8332C30.5 27.8332 30.5 27.9998 30.5 28.1665C30.5 29.4998 30.3333 30.6665 30 31.9998C29.3333 34.3332 28.3333 36.4998 27 38.4998C26.8333 38.8332 26.8333 39.1665 27.1667 39.4998C27.5 39.6665 27.8333 39.4998 28 39.1665C28.8333 37.6665 29.6667 36.3332 30.3333 34.6665C31.1667 32.4998 31.8333 30.3332 31.6667 27.9998C31.6667 27.6665 31.8333 27.6665 32 27.6665C34.1667 27.6665 36.1667 27.6665 38.3333 27.6665C39.3333 27.6665 39.8333 27.1665 39.8333 26.1665C39.5 21.4998 39.5 16.6665 39.5 11.9998ZM35.6667 11.6665C36.5 11.6665 37.3333 11.6665 38 11.6665C38.3333 11.6665 38.3333 11.6665 38.3333 11.8332C38.3333 12.1665 38.3333 12.6665 38.3333 12.9998C38.3333 13.3332 38.3333 13.8332 38.3333 14.1665C38.3333 14.3332 38.3333 14.3332 38.1667 14.3332C37 13.9998 35.8333 12.8332 35.5 11.6665C35.5 11.6665 35.5 11.6665 35.6667 11.6665ZM5.16667 3.49982C5.16667 3.33315 5.33333 2.99982 5.33333 2.66649C5.5 1.83315 6.16667 1.49982 7 1.83315C9.5 2.49982 12 3.33315 14.5 3.99982C18.8333 5.33315 23.3333 6.49982 27.6667 7.83315C28.5 7.99982 28.8333 8.49982 28.8333 9.16649C28.8333 9.66649 28.6667 10.1665 28.5 10.6665C28.5 10.8332 28.3333 10.6665 28.1667 10.6665C26.5 10.1665 24.8333 9.66649 23.1667 9.16649C17.3333 7.49982 11.3333 5.83315 5.5 4.16649C5 3.99982 5 3.83315 5.16667 3.49982ZM3.83333 7.99982C4.16667 7.16649 4.33333 6.33315 4.5 5.49982C4.66667 5.16649 4.83333 4.99982 5 5.16649C10.1667 6.66649 15.3333 8.16649 20.3333 9.49982C22.8333 10.1665 25.3333 10.8332 27.6667 11.6665C27.8333 11.6665 28 11.6665 28 11.8332V11.9998C27.6667 12.8332 27.5 13.8332 27.1667 14.6665C27.1667 14.9998 27.1667 14.9998 26.8333 14.9998C19.3333 12.6665 11.6667 10.4998 4.16667 8.33315C3.83333 8.33315 3.83333 8.33315 3.83333 7.99982ZM12 26.4998C11.1667 26.4998 10.3333 26.4998 9.66667 26.4998C9.5 26.4998 9.33333 26.4998 9.33333 26.1665C9.33333 25.8332 9.33333 25.3332 9.33333 24.9998C9.33333 24.6665 9.33333 24.1665 9.33333 23.8332C9.33333 23.6665 9.33333 23.4998 9.66667 23.6665C11 23.9998 11.8333 24.8332 12.3333 26.3332C12.3333 26.4998 12.3333 26.4998 12 26.4998ZM16 26.4998C15.3333 26.4998 14.5 26.4998 13.8333 26.4998C13.6667 26.4998 13.5 26.4998 13.5 26.1665C13.1667 24.1665 11.6667 22.6665 9.66667 22.3332C9.33333 22.3332 9.33333 22.1665 9.33333 21.9998C9.33333 21.4998 9.33333 20.9998 9.33333 20.6665C9.33333 20.4998 9.33333 20.3332 9.66667 20.4998C11.6667 20.9998 13.8333 21.6665 15.8333 22.1665C16 22.1665 16 22.3332 16 22.4998C16.1667 23.3332 16.1667 23.9998 16.1667 24.8332C16.1667 25.3332 16.1667 25.6665 16.1667 26.1665C16.1667 26.4998 16.1667 26.4998 16 26.4998ZM19.3333 17.1665C17.3333 17.1665 15.8333 18.4998 15.8333 20.4998C15.8333 20.6665 15.8333 20.6665 15.8333 20.8332C14.1667 20.3332 12.5 19.8332 10.8333 19.3332C8.16667 18.4998 5.33333 17.8332 2.66667 16.9998C1.83333 16.8332 1.5 16.1665 1.66667 15.3332C2.33333 13.6665 2.83333 11.6665 3.33333 9.83315C3.33333 9.66649 3.5 9.49982 3.83333 9.49982C11.3333 11.6665 18.8333 13.8332 26.5 15.9998C26.8333 16.1665 27 16.1665 26.8333 16.6665C26.3333 18.4998 25.8333 20.3332 25.1667 22.3332C25 23.1665 24.3333 23.4998 23.5 23.3332C23.1667 23.3332 23 23.1665 22.6667 23.1665C22.5 23.1665 22.3333 22.9998 22.3333 22.8332C22.3333 22.3332 22.3333 21.6665 22.5 21.1665C22.6667 18.9998 21.3333 17.3332 19.3333 17.1665ZM34 26.4998C30.3333 26.4998 26.5 26.4998 22.8333 26.4998C22.5 26.4998 22.5 26.3332 22.5 26.1665C22.5 25.4998 22.3333 24.8332 22.5 24.1665C22.8333 24.1665 23 24.3332 23.3333 24.3332C24.6667 24.6665 26 23.9998 26.3333 22.6665C27 20.3332 27.6667 17.9998 28.3333 15.6665C28.6667 14.4998 29 13.1665 29.3333 11.9998C29.3333 11.6665 29.5 11.6665 29.6667 11.6665C31.1667 11.6665 32.5 11.6665 34 11.6665C34.1667 11.6665 34.3333 11.8332 34.3333 11.9998C34.6667 13.9998 36.1667 15.3332 38 15.8332C38.3333 15.8332 38.3333 15.8332 38.3333 15.9998C38.3333 17.9998 38.3333 19.9998 38.3333 21.9998C38.3333 22.1665 38.3333 22.3332 38 22.3332C36 22.8332 34.6667 23.9998 34.3333 26.1665C34.3333 26.4998 34.1667 26.4998 34 26.4998ZM38.1667 26.4998C37.3333 26.4998 36.6667 26.4998 35.8333 26.4998C35.6667 26.4998 35.6667 26.3332 35.6667 26.1665C36 24.6665 37 23.8332 38.5 23.4998C38.5 24.4998 38.5 25.3332 38.5 26.1665C38.3333 26.4998 38.3333 26.4998 38.1667 26.4998Z" fill="#121212"/>
</g>
<defs>
<clipPath id="clip0_46_9797">
<rect width="40" height="40" fill="white"/>
</clipPath>
</defs>
</svg>
