<svg width="40" height="40" viewBox="0 0 40 40" fill="none" xmlns="http://www.w3.org/2000/svg">
<path d="M34 20.0002C34 14.8335 34 9.8335 34 4.66683C34 2.16683 32.1667 0.333496 29.6667 0.333496C23.1667 0.333496 16.8333 0.333496 10.3333 0.333496C7.83333 0.333496 6 2.16683 6 4.66683C6 14.8335 6 25.0002 6 35.1668C6 37.6668 7.83333 39.5002 10.3333 39.5002C16.8333 39.5002 23.3333 39.5002 29.6667 39.5002C30 39.5002 30.5 39.5002 30.8333 39.3335C32.6667 38.8335 34 37.1668 34 35.1668C34 30.1668 34 25.1668 34 20.0002ZM31.1667 35.1668C31.1667 36.3335 30.6667 36.8335 29.5 36.8335C23.1667 36.8335 16.8333 36.8335 10.5 36.8335C9.33333 36.8335 8.83333 36.3335 8.83333 35.1668C8.83333 34.0002 8.83333 32.8335 8.83333 31.6668C8.83333 31.3335 9 31.1668 9.33333 31.1668C15.1667 31.1668 21 31.1668 26.8333 31.1668C27 31.1668 27.3333 31.1668 27.5 31.1668C28.1667 31.0002 28.5 30.3335 28.5 29.6668C28.5 29.0002 27.8333 28.5002 27.1667 28.3335C27 28.3335 26.8333 28.3335 26.6667 28.3335C20.8333 28.3335 15 28.3335 9.33333 28.3335C9 28.3335 8.83333 28.3335 8.83333 27.8335C8.83333 20.1668 8.83333 12.5002 8.83333 4.66683C8.83333 3.50016 9.33333 3.00016 10.5 3.00016C16.8333 3.00016 23.1667 3.00016 29.6667 3.00016C30.8333 3.00016 31.3333 3.50016 31.3333 4.66683C31.3333 9.66683 31.3333 14.8335 31.3333 19.8335C31.1667 25.0002 31.1667 30.1668 31.1667 35.1668Z" fill="#5855B3"/>
<path d="M21.6666 11.8335C21.4999 11.8335 21.3332 11.6668 21.3332 11.5002C21.3332 11.0002 21.3332 10.6668 21.3332 10.1668C21.3332 9.3335 20.6666 8.8335 19.9999 8.8335C19.1666 8.8335 18.6666 9.50016 18.6666 10.1668C18.6666 10.5002 18.6666 11.0002 18.6666 11.3335C18.6666 11.6668 18.6666 11.6668 18.3332 11.8335C15.4999 12.5002 13.4999 14.0002 12.3332 16.5002C11.6666 18.0002 11.4999 19.6668 11.6666 21.1668C11.6666 22.1668 12.1666 22.6668 13.3332 22.6668C15.6666 22.6668 17.8332 22.6668 20.1666 22.6668C22.4999 22.6668 24.8332 22.6668 27.1666 22.6668C27.9999 22.6668 28.6666 22.0002 28.6666 21.1668C28.6666 20.8335 28.6666 20.3335 28.6666 20.0002C28.3332 16.0002 25.6666 12.6668 21.6666 11.8335ZM25.1666 20.0002C23.3332 20.0002 21.6666 20.0002 19.8332 20.0002C18.1666 20.0002 16.4999 20.0002 14.6666 20.0002C14.3332 20.0002 14.1666 20.0002 14.1666 19.5002C14.3332 16.8335 16.4999 14.6668 19.3332 14.3335C21.9999 14.1668 24.4999 16.0002 25.1666 18.5002C25.1666 18.8335 25.3332 19.1668 25.3332 19.5002C25.6666 20.0002 25.4999 20.0002 25.1666 20.0002Z" fill="#121212"/>
<path d="M21.3334 32.667C20.3334 32.667 19.5001 32.667 18.5001 32.667C17.6667 32.667 17.1667 33.3337 17.1667 34.0003C17.1667 34.8337 17.8334 35.3337 18.5001 35.3337C19.0001 35.3337 19.5001 35.3337 19.8334 35.3337C20.3334 35.3337 20.8334 35.3337 21.3334 35.3337C22.1667 35.3337 22.6667 34.667 22.6667 34.0003C22.8334 33.167 22.1667 32.667 21.3334 32.667Z" fill="#121212"/>
</svg>
