<svg width="18" height="18" viewBox="0 0 18 18" fill="none" xmlns="http://www.w3.org/2000/svg">
<path d="M4.89221 5.30801C4.43991 5.30801 4.05639 5.14983 3.74166 4.83348C3.42691 4.51713 3.26953 4.13684 3.26953 3.69261V2.38491C3.26953 1.94067 3.42771 1.56039 3.74406 1.24406C4.06041 0.927707 4.44069 0.769531 4.88491 0.769531H13.1084C13.5607 0.769531 13.9442 0.927707 14.259 1.24406C14.5737 1.56039 14.7311 1.94067 14.7311 2.38491V3.69261C14.7311 4.13684 14.5729 4.51713 14.2566 4.83348C13.9402 5.14983 13.5599 5.30801 13.1157 5.30801H4.89221ZM4.88491 4.30798H13.1157C13.308 4.30798 13.4586 4.2535 13.5676 4.14453C13.6766 4.03556 13.7311 3.88492 13.7311 3.69261V2.38491C13.7311 2.19261 13.6766 2.04197 13.5676 1.93298C13.4586 1.82402 13.308 1.76953 13.1157 1.76953H4.88491C4.69261 1.76953 4.54197 1.82402 4.43301 1.93298C4.32402 2.04197 4.26953 2.19261 4.26953 2.38491V3.69261C4.26953 3.88492 4.32402 4.03556 4.43301 4.14453C4.54197 4.2535 4.69261 4.30798 4.88491 4.30798ZM2.38491 17.2311C1.94067 17.2311 1.56039 17.0729 1.24406 16.7566C0.927706 16.4402 0.769531 16.0599 0.769531 15.6157V14.6157H17.2311V15.6157C17.2311 16.0631 17.0729 16.4442 16.7566 16.759C16.4402 17.0737 16.0599 17.2311 15.6157 17.2311H2.38491ZM0.769531 13.8465L3.49106 7.27921C3.62157 6.97147 3.82297 6.73267 4.09526 6.56281C4.36754 6.39294 4.66025 6.30801 4.97338 6.30801H13.0272C13.3404 6.30801 13.6331 6.39294 13.9054 6.56281C14.1776 6.73267 14.379 6.97147 14.5096 7.27921L17.2311 13.8465H0.769531ZM5.73108 12.2311H6.73108C6.83365 12.2311 6.92339 12.1926 7.00031 12.1157C7.07722 12.0388 7.11568 11.949 7.11568 11.8465C7.11568 11.7439 7.07722 11.6541 7.00031 11.5772C6.92339 11.5003 6.83365 11.4619 6.73108 11.4619H5.73108C5.62851 11.4619 5.53876 11.5003 5.46183 11.5772C5.38491 11.6541 5.34646 11.7439 5.34646 11.8465C5.34646 11.949 5.38491 12.0388 5.46183 12.1157C5.53876 12.1926 5.62851 12.2311 5.73108 12.2311ZM5.73108 10.4619H6.73108C6.83365 10.4619 6.92339 10.4234 7.00031 10.3465C7.07722 10.2695 7.11568 10.1798 7.11568 10.0772C7.11568 9.97466 7.07722 9.88492 7.00031 9.80801C6.92339 9.73107 6.83365 9.69261 6.73108 9.69261H5.73108C5.62851 9.69261 5.53876 9.73107 5.46183 9.80801C5.38491 9.88492 5.34646 9.97466 5.34646 10.0772C5.34646 10.1798 5.38491 10.2695 5.46183 10.3465C5.53876 10.4234 5.62851 10.4619 5.73108 10.4619ZM5.73108 8.69261H6.73108C6.83365 8.69261 6.92339 8.65415 7.00031 8.57723C7.07722 8.50032 7.11568 8.41057 7.11568 8.30801C7.11568 8.20544 7.07722 8.11569 7.00031 8.03876C6.92339 7.96184 6.83365 7.92338 6.73108 7.92338H5.73108C5.62851 7.92338 5.53876 7.96184 5.46183 8.03876C5.38491 8.11569 5.34646 8.20544 5.34646 8.30801C5.34646 8.41057 5.38491 8.50032 5.46183 8.57723C5.53876 8.65415 5.62851 8.69261 5.73108 8.69261ZM8.50031 12.2311H9.50031C9.60287 12.2311 9.69261 12.1926 9.76953 12.1157C9.84647 12.0388 9.88493 11.949 9.88493 11.8465C9.88493 11.7439 9.84647 11.6541 9.76953 11.5772C9.69261 11.5003 9.60287 11.4619 9.50031 11.4619H8.50031C8.39774 11.4619 8.308 11.5003 8.23108 11.5772C8.15415 11.6541 8.11568 11.7439 8.11568 11.8465C8.11568 11.949 8.15415 12.0388 8.23108 12.1157C8.308 12.1926 8.39774 12.2311 8.50031 12.2311ZM8.50031 10.4619H9.50031C9.60287 10.4619 9.69261 10.4234 9.76953 10.3465C9.84647 10.2695 9.88493 10.1798 9.88493 10.0772C9.88493 9.97466 9.84647 9.88492 9.76953 9.80801C9.69261 9.73107 9.60287 9.69261 9.50031 9.69261H8.50031C8.39774 9.69261 8.308 9.73107 8.23108 9.80801C8.15415 9.88492 8.11568 9.97466 8.11568 10.0772C8.11568 10.1798 8.15415 10.2695 8.23108 10.3465C8.308 10.4234 8.39774 10.4619 8.50031 10.4619ZM8.50031 8.69261H9.50031C9.60287 8.69261 9.69261 8.65415 9.76953 8.57723C9.84647 8.50032 9.88493 8.41057 9.88493 8.30801C9.88493 8.20544 9.84647 8.11569 9.76953 8.03876C9.69261 7.96184 9.60287 7.92338 9.50031 7.92338H8.50031C8.39774 7.92338 8.308 7.96184 8.23108 8.03876C8.15415 8.11569 8.11568 8.20544 8.11568 8.30801C8.11568 8.41057 8.15415 8.50032 8.23108 8.57723C8.308 8.65415 8.39774 8.69261 8.50031 8.69261ZM11.2695 12.2311H12.2695C12.3721 12.2311 12.4618 12.1926 12.5388 12.1157C12.6157 12.0388 12.6542 11.949 12.6542 11.8465C12.6542 11.7439 12.6157 11.6541 12.5388 11.5772C12.4618 11.5003 12.3721 11.4619 12.2695 11.4619H11.2695C11.167 11.4619 11.0772 11.5003 11.0003 11.5772C10.9234 11.6541 10.8849 11.7439 10.8849 11.8465C10.8849 11.949 10.9234 12.0388 11.0003 12.1157C11.0772 12.1926 11.167 12.2311 11.2695 12.2311ZM11.2695 10.4619H12.2695C12.3721 10.4619 12.4618 10.4234 12.5388 10.3465C12.6157 10.2695 12.6542 10.1798 12.6542 10.0772C12.6542 9.97466 12.6157 9.88492 12.5388 9.80801C12.4618 9.73107 12.3721 9.69261 12.2695 9.69261H11.2695C11.167 9.69261 11.0772 9.73107 11.0003 9.80801C10.9234 9.88492 10.8849 9.97466 10.8849 10.0772C10.8849 10.1798 10.9234 10.2695 11.0003 10.3465C11.0772 10.4234 11.167 10.4619 11.2695 10.4619ZM11.2695 8.69261H12.2695C12.3721 8.69261 12.4618 8.65415 12.5388 8.57723C12.6157 8.50032 12.6542 8.41057 12.6542 8.30801C12.6542 8.20544 12.6157 8.11569 12.5388 8.03876C12.4618 7.96184 12.3721 7.92338 12.2695 7.92338H11.2695C11.167 7.92338 11.0772 7.96184 11.0003 8.03876C10.9234 8.11569 10.8849 8.20544 10.8849 8.30801C10.8849 8.41057 10.9234 8.50032 11.0003 8.57723C11.0772 8.65415 11.167 8.69261 11.2695 8.69261Z" fill="#B2B1DC"/>
</svg>
