<svg width="36" height="36" viewBox="0 0 36 36" fill="none" xmlns="http://www.w3.org/2000/svg">
<g clip-path="url(#clip0_1_13140)">
<path d="M35.55 12.6001C35.55 12.3001 35.55 11.8501 35.4 11.5501C34.65 10.0501 33.6 9.3001 31.95 9.3001C30.75 9.3001 29.4 9.3001 28.2 9.3001C27.75 9.3001 27.75 9.3001 27.75 8.8501C27.75 8.7001 27.75 8.7001 27.75 8.5501C27.75 6.0001 27.75 3.6001 27.75 1.0501C27.75 0.600098 27.75 0.600098 27.3 0.600098C21.15 0.600098 15.15 0.600098 8.99995 0.600098C8.24995 0.600098 8.24995 0.600098 8.24995 1.3501C8.24995 3.9001 8.24995 6.3001 8.24995 8.8501C8.24995 9.3001 8.24995 9.3001 7.79995 9.3001C6.59995 9.3001 5.24995 9.3001 4.04995 9.3001C3.44995 9.3001 2.99995 9.4501 2.39995 9.7501C1.34995 10.0501 0.599951 10.9501 0.449951 12.1501C0.449951 16.6501 0.449951 21.1501 0.449951 25.6501C0.599951 26.8501 1.19995 27.6001 2.24995 28.2001C2.84995 28.5001 3.59995 28.6501 4.19995 28.6501C5.39995 28.6501 6.44995 28.6501 7.64995 28.6501C8.09995 28.6501 8.09995 28.6501 8.09995 29.1001C8.09995 31.0501 8.09995 33.0001 8.09995 34.9501C8.09995 35.1001 8.09995 35.2501 8.24995 35.4001C14.7 35.4001 21.15 35.4001 27.6 35.4001C27.75 35.2501 27.75 35.1001 27.75 34.8001C27.75 32.8501 27.75 30.9001 27.75 28.9501C27.75 28.5001 27.75 28.5001 28.2 28.5001C28.8 28.5001 29.55 28.5001 30.15 28.5001C30.9 28.5001 31.65 28.5001 32.55 28.5001C33.9 28.3501 35.55 27.0001 35.55 25.0501C35.55 21.0001 35.55 16.8001 35.55 12.6001ZM10.05 2.5501C10.05 2.2501 10.2 2.2501 10.35 2.2501C12.9 2.2501 15.45 2.2501 18 2.2501C20.55 2.2501 22.95 2.2501 25.5 2.2501C25.8 2.2501 25.8 2.2501 25.8 2.5501C25.8 4.6501 25.8 6.7501 25.8 9.0001C25.8 9.3001 25.65 9.3001 25.5 9.3001C20.4 9.3001 15.45 9.3001 10.35 9.3001C10.05 9.3001 10.05 9.3001 10.05 9.0001C10.05 6.7501 10.05 4.6501 10.05 2.5501ZM25.5 33.7501C22.95 33.7501 20.55 33.7501 18 33.7501C15.45 33.7501 12.9 33.7501 10.5 33.7501C10.2 33.7501 10.2 33.6001 10.2 33.4501C10.2 28.9501 10.2 24.6001 10.2 20.1001C10.2 19.8001 10.35 19.8001 10.5 19.8001C15.45 19.8001 20.55 19.8001 25.5 19.8001C25.8 19.8001 25.8 19.9501 25.8 20.1001C25.8 24.6001 25.8 28.9501 25.8 33.4501C25.8 33.7501 25.8 33.7501 25.5 33.7501ZM33.75 24.9001C33.75 26.1001 33 26.7001 31.8 26.7001C30.45 26.7001 29.1 26.7001 27.9 26.7001C27.75 26.7001 27.6 26.7001 27.6 26.4001C27.6 24.3001 27.6 22.0501 27.6 19.9501C27.6 19.8001 27.6 19.6501 27.9 19.6501C28.35 19.6501 28.8 19.6501 29.25 19.6501C29.85 19.6501 30.3 19.2001 30.3 18.7501C30.3 18.3001 29.85 17.8501 29.25 17.8501C21.75 17.8501 14.25 17.8501 6.74995 17.8501C6.14995 17.8501 5.69995 18.1501 5.69995 18.7501C5.69995 19.2001 6.14995 19.6501 6.74995 19.6501C7.19995 19.6501 7.64995 19.6501 8.09995 19.6501C8.24995 19.6501 8.39995 19.6501 8.39995 19.9501C8.39995 22.2001 8.39995 24.3001 8.39995 26.5501C8.39995 26.7001 8.39995 26.8501 8.09995 26.7001C6.74995 26.7001 5.39995 26.7001 3.89995 26.7001C2.84995 26.7001 2.24995 25.9501 2.09995 25.0501C2.09995 24.7501 2.09995 24.4501 2.09995 24.1501C2.09995 20.4001 2.09995 16.6501 2.09995 12.9001C2.09995 11.8501 2.54995 11.2501 3.44995 10.9501C3.74995 10.9501 3.89995 10.9501 4.19995 10.9501C8.84995 10.9501 13.35 10.9501 18 10.9501C22.65 10.9501 27.15 10.9501 31.8 10.9501C32.55 10.9501 33.15 11.2501 33.6 12.0001C33.75 12.3001 33.75 12.6001 33.75 12.9001C33.75 16.9501 33.75 20.8501 33.75 24.9001Z" fill="#5855B3"/>
<path d="M29.25 12.75C27 12.75 24.75 12.75 22.5 12.75C21.9 12.75 21.45 13.05 21.45 13.65C21.45 14.1 21.9 14.55 22.5 14.55C23.55 14.55 24.75 14.55 25.8 14.55C27 14.55 28.05 14.55 29.25 14.55C29.8499 14.55 30.3 14.25 30.3 13.65C30.3 13.05 29.8499 12.75 29.25 12.75Z" fill="#5855B3"/>
<path d="M23.7 26.7002C21.75 26.7002 19.95 26.7002 18 26.7002C16.05 26.7002 14.1 26.7002 12.15 26.7002C11.85 26.7002 11.85 26.7002 11.85 27.0002C11.85 27.4502 11.85 27.7502 11.85 28.2002C11.85 28.3502 11.85 28.5002 12.15 28.5002C16.05 28.5002 19.95 28.5002 23.85 28.5002C24 28.5002 24.15 28.3502 24.15 28.2002C24.15 27.9002 24.15 27.4502 24.15 27.1502C24.15 26.8502 24 26.7002 23.7 26.7002Z" fill="#121212"/>
<path d="M23.85 30.3003C21.9 30.3003 19.95 30.3003 18 30.3003C16.05 30.3003 14.1 30.3003 12.15 30.3003C11.85 30.3003 11.85 30.3003 11.85 30.6003C11.85 31.0503 11.85 31.3503 11.85 31.8003C11.85 32.1003 12 32.1003 12.15 32.1003C14.85 32.1003 17.55 32.1003 20.1 32.1003C21.3 32.1003 22.5 32.1003 23.7 32.1003C24 32.1003 24 32.1003 24 31.8003C24 31.5003 24 31.0503 24 30.6003C24.15 30.3003 24 30.3003 23.85 30.3003Z" fill="#121212"/>
<path d="M11.85 24.75C11.85 24.9 11.85 25.05 12.15 25.05C16.05 25.05 19.95 25.05 23.85 25.05C24 25.05 24.15 24.9 24.15 24.75C24.15 24.3 24.15 24 24.15 23.55C24.15 23.25 24 23.25 23.85 23.25C21.9 23.25 19.95 23.25 18.15 23.25C16.2 23.25 14.25 23.25 12.3 23.25C12.15 23.25 12 23.25 12 23.55C11.85 24 11.85 24.3 11.85 24.75Z" fill="#121212"/>
</g>
<defs>
<clipPath id="clip0_1_13140">
<rect width="36" height="36" fill="white"/>
</clipPath>
</defs>
</svg>
