<svg width="40" height="40" viewBox="0 0 40 40" fill="none" xmlns="http://www.w3.org/2000/svg">
<path d="M33.5 3.3335C33.5 1.66683 32.3333 0.333496 30.5 0.333496C26.5 0.333496 22.6667 0.333496 18.6667 0.333496C18.1667 0.333496 17.8333 0.333496 17.3333 0.666829C16.1667 1.16683 15.6667 2.16683 15.6667 3.3335C15.6667 8.66683 15.6667 14.0002 15.6667 19.3335C15.6667 19.6668 15.6667 19.6668 15.3333 19.8335C14.5 20.1668 13.6667 20.3335 12.6667 20.6668C11.5 21.0002 10.6667 21.8335 10.3333 23.0002C10 25.6668 9.16668 28.3335 8.50001 31.0002C8.33334 31.5002 8.16668 31.8335 7.83334 32.1668C7.50001 32.5002 7.16668 32.8335 6.83334 33.1668C6.50001 33.5002 6.50001 33.8335 6.83334 34.0002C7.00001 34.3335 7.50001 34.3335 7.83334 34.0002C8.00001 33.6668 8.33334 33.3335 8.66668 33.0002C9.16668 32.5002 9.50001 32.0002 9.66668 31.3335C10.3333 28.6668 11.1667 26.0002 11.8333 23.5002C12 22.6668 12.5 22.1668 13.5 21.8335C14.1667 21.6668 14.8333 21.3335 15.5 21.1668C16 21.0002 16 21.0002 16 21.5002C16 23.5002 16 25.6668 16 27.6668C16 28.0002 16 28.3335 16.3333 28.3335C16.6667 28.5002 16.8333 28.3335 17.1667 28.1668C18.3333 27.1668 19.5 26.1668 20.6667 25.1668C21.5 24.3335 22.5 23.6668 23.3333 22.8335C23.8333 22.5002 24.5 22.3335 25 22.8335C25.5 23.1668 25.5 23.8335 25.1667 24.3335C25 24.5002 24.8333 24.6668 24.8333 24.8335C23.1667 26.6668 21.5 28.3335 20 30.0002C19.6667 30.3335 19.5 30.6668 19.5 31.1668C19.5 31.5002 19.3333 31.8335 19.3333 32.1668C18.8333 34.1668 17.6667 35.6668 15.5 36.1668C15.3333 36.1668 15.3333 36.1668 15.1667 36.3335C14.5 36.5002 13.8333 36.8335 13.3333 37.5002C13 37.8335 12.6667 38.1668 12.3333 38.6668C11.8333 39.1668 12 39.5002 12.5 39.8335C12.6667 39.8335 12.8333 39.8335 12.8333 39.8335C13.1667 39.6668 13.3333 39.3335 13.6667 39.0002C14.3333 38.1668 15.1667 37.6668 16.3333 37.3335C18.1667 36.8335 19.5 35.6668 20.1667 33.8335C20.3333 33.3335 20.5 32.8335 20.6667 32.3335C20.6667 32.0002 20.8333 32.0002 21.1667 32.0002C24.3333 32.0002 27.5 32.0002 30.6667 32.0002C32.5 32.0002 33.6667 30.8335 33.6667 29.0002C33.6667 27.0002 33.6667 25.1668 33.6667 23.1668C33.5 16.3335 33.5 9.8335 33.5 3.3335ZM17.1667 3.3335C17.1667 2.3335 17.8333 1.66683 18.8333 1.66683C22.6667 1.66683 26.6667 1.66683 30.5 1.66683C31.6667 1.66683 32.1667 2.3335 32.1667 3.50016C32.1667 3.8335 32 3.8335 31.8333 3.8335C29.3333 3.8335 27 3.8335 24.5 3.8335C22.1667 3.8335 19.6667 3.8335 17.3333 3.8335C17.1667 3.66683 17.1667 3.66683 17.1667 3.3335ZM30.5 30.5002C27.5 30.5002 24.5 30.5002 21.5 30.5002C21.3333 30.5002 21.3333 30.5002 21.1667 30.5002C21.8333 29.8335 22.3333 29.1668 23 28.5002C23.1667 28.3335 23.1667 28.3335 23.3333 28.3335C26.1667 28.3335 29 28.3335 31.8333 28.3335C32.1667 28.3335 32.1667 28.3335 32.1667 28.6668C32.3333 29.8335 31.6667 30.5002 30.5 30.5002ZM31.8333 27.1668C29.5 27.1668 27 27.1668 24.6667 27.1668C24.5 27.1668 24.5 27.1668 24.1667 27.1668C24.6667 26.5002 25.1667 26.0002 25.6667 25.5002C26.1667 24.8335 26.5 24.1668 26.3333 23.1668C26 21.3335 23.8333 20.6668 22.3333 21.8335C21.1667 22.8335 20 23.8335 18.8333 24.8335C18.3333 25.3335 17.6667 25.8335 17.1667 26.3335C17 26.1668 17.1667 26.0002 17.1667 26.0002C17.1667 19.0002 17.1667 12.1668 17.1667 5.16683C17.1667 4.8335 17.1667 4.8335 17.5 4.8335C22.3333 4.8335 27.1667 4.8335 31.8333 4.8335C32.1667 4.8335 32.1667 5.00016 32.1667 5.16683C32.1667 12.3335 32.1667 19.5002 32.1667 26.6668C32.3333 27.1668 32.1667 27.1668 31.8333 27.1668Z" fill="#5855B3"/>
<path d="M26.8334 19C27.3334 19 27.5 18.8333 27.5 18.3333C27.5 18 27.5 17.5 27.5 17.1667C27.5 16.8333 27.5 16.8333 27.8334 16.8333C28.1667 16.8333 28.5 16.8333 28.8334 16.8333C29.1667 16.8333 29.5 16.5 29.5 16.1667C29.5 15.8333 29.1667 15.6667 28.8334 15.6667C28.6667 15.6667 28.6667 15.6667 28.5 15.6667C28.1667 15.6667 27.6667 15.8333 27.5 15.6667C27.3334 15.5 27.5 15 27.5 14.6667C27.5 14.5 27.5 14.3333 27.5 14.1667C27.5 13.6667 27.3334 13.5 26.8334 13.5C25.3334 13.5 23.8334 13.5 22.3334 13.5C22 13.5 21.6667 13.6667 21.6667 14.1667C21.6667 14.6667 21.6667 15 21.6667 15.5C21.6667 15.6667 21.6667 15.8333 21.3334 15.8333C21 15.8333 20.6667 15.8333 20.3334 15.8333C19.8334 15.8333 19.6667 16 19.6667 16.5C19.6667 16.8333 20 17.1667 20.3334 17.1667C20.6667 17.1667 20.8334 17.1667 21.1667 17.1667C21.5 17.1667 21.6667 17.1667 21.6667 17.6667C21.6667 18 21.6667 18.3333 21.6667 18.6667C21.6667 19.1667 21.8334 19.3333 22.3334 19.3333C23 19.3333 23.8334 19.3333 24.5 19.3333C25.3334 19 26.1667 19 26.8334 19ZM23.8334 14.5C24.6667 14.5 25.3334 14.5 26.1667 14.5C26.3334 14.5 26.5 14.5 26.5 14.8333C26.5 15.6667 26.5 15.6667 25.8334 15.6667C25.5 15.6667 25.1667 15.6667 25 15.6667C24.5 15.6667 24 15.6667 23.6667 15.6667C23.5 15.6667 23.5 15.6667 23.5 15.5C23 14.5 23 14.5 23.8334 14.5ZM24.6667 17.6667C24.1667 17.6667 23.6667 17.6667 23.3334 17.6667C23.1667 17.6667 23 17.6667 23 17.3333C23 16.5 23 16.5 23.6667 16.5C24.5 16.5 25.1667 16.5 26 16.5C26.1667 16.5 26.3334 16.5 26.3334 16.8333C26.3334 17.5 26.3334 17.5 25.6667 17.5C25.3334 17.6667 25 17.6667 24.6667 17.6667Z" fill="#121212"/>
<path d="M26.5 12.5002C27 12.5002 27.5 12.5002 28 12.5002C28.1667 12.5002 28.3333 12.5002 28.3333 12.8335C28.3333 13.3335 28.3333 13.8335 28.3333 14.3335C28.3333 14.6668 28.5 15.0002 29 15.0002C29.3333 15.0002 29.6667 14.6668 29.6667 14.3335C29.6667 13.5002 29.6667 12.8335 29.6667 12.0002C29.6667 11.5002 29.5 11.3335 29 11.3335C28.6667 11.3335 28.1667 11.3335 27.8333 11.3335C27.5 11.3335 27.1667 11.3335 26.6667 11.3335C26.1667 11.3335 25.8333 11.5002 25.8333 12.0002C25.8333 12.1668 26 12.5002 26.5 12.5002Z" fill="#121212"/>
<path d="M29 17.167C28.6667 17.167 28.5 17.5003 28.3333 17.8337C28.3333 18.3337 28.3333 18.8337 28.3333 19.3337C28.3333 19.5003 28.3333 19.667 28 19.667C27.5 19.667 27 19.667 26.5 19.667C26.1667 19.667 25.8333 20.0003 25.8333 20.3337C25.8333 20.667 26.1667 21.0003 26.5 21.0003C26.8333 21.0003 27.3333 21.0003 27.6667 21.0003C28 21.0003 28.5 21.0003 28.8333 21.0003C29.3333 21.0003 29.5 20.8337 29.5 20.3337C29.5 19.5003 29.5 18.8337 29.5 18.0003C29.5 17.3337 29.3333 17.167 29 17.167Z" fill="#121212"/>
<path d="M23 19.667C22.5 19.667 22 19.667 21.5 19.667C21.1667 19.667 21.1667 19.667 21.1667 19.3337C21.1667 18.8337 21.1667 18.3337 21.1667 17.8337C21.1667 17.5003 20.8333 17.167 20.5 17.167C20.1667 17.167 19.8333 17.3337 19.8333 17.8337C19.8333 18.667 19.8333 19.5003 19.8333 20.3337C19.8333 20.8337 20 21.0003 20.5 21.0003C20.8333 21.0003 21.3333 21.0003 21.6667 21.0003C22 21.0003 22.5 21.0003 22.8333 21.0003C23.3333 21.0003 23.5 20.667 23.5 20.3337C23.6667 19.8337 23.3333 19.667 23 19.667Z" fill="#121212"/>
<path d="M19.8333 14.3337C19.8333 14.8337 20 15.0003 20.5 15.0003C20.8333 15.0003 21.1667 14.667 21.1667 14.3337C21.1667 13.8337 21.1667 13.3337 21.1667 12.8337C21.1667 12.667 21.1667 12.5003 21.5 12.5003C22 12.5003 22.6667 12.5003 23.1667 12.5003C23.5 12.5003 23.8333 12.167 23.8333 11.8337C23.8333 11.5003 23.6667 11.167 23.1667 11.167C22.3333 11.167 21.5 11.167 20.6667 11.167C20.3333 11.167 20 11.5003 20 11.8337C20 12.167 20 12.667 20 13.0003C19.8333 13.5003 19.8333 13.8337 19.8333 14.3337Z" fill="#121212"/>
<path d="M24.6667 3.16683C25 3.16683 25.3333 3.00016 25.3333 2.50016C25.3333 2.16683 25.1667 1.8335 24.6667 1.8335C24.3333 1.8335 24 2.16683 24 2.50016C24 3.00016 24.3333 3.16683 24.6667 3.16683Z" fill="#121212"/>
<path d="M25.8333 28.8335C25.5 28.8335 25 28.8335 24.6667 28.8335C24.3333 28.8335 24 28.8335 23.5 28.8335C23.1667 28.8335 22.8333 29.0002 22.8333 29.3335C22.8333 29.6668 23 30.0002 23.5 30.0002C24.3333 30.0002 25 30.0002 25.8333 30.0002C26.1667 30.0002 26.5 29.6668 26.5 29.3335C26.5 29.1668 26.1667 28.8335 25.8333 28.8335Z" fill="#121212"/>
</svg>
