<svg xmlns="http://www.w3.org/2000/svg" width="64" height="64" viewBox="0 0 64 64" fill="none">
  <g clip-path="url(#clip0_8733_58341)">
    <path d="M0 0V22.1538H22.1538V0H0ZM27.0769 0V4.92308H32V0H27.0769ZM32 4.92308V9.84615H27.0769V19.6923H32V14.7692H36.9231V4.92308H32ZM32 19.6923V27.0769H9.84615V32H4.92308V36.9231H14.7692V32H19.6923V36.9231H32V32H36.9231V36.9231H44.3077V32H49.2308V27.0769H36.9231V19.6923H32ZM49.2308 32V36.9231H64V32H59.0769V27.0769H54.1538V32H49.2308ZM4.92308 32V27.0769H0V32H4.92308ZM41.8462 0V22.1538H64V0H41.8462ZM4.92308 4.92308H17.2308V17.2308H4.92308V4.92308ZM46.7692 4.92308H59.0769V17.2308H46.7692V4.92308ZM7.38462 7.38462V14.7692H14.7692V7.38462H7.38462ZM49.2308 7.38462V14.7692H56.6154V7.38462H49.2308ZM27.0769 39.3846V44.3077H32V39.3846H27.0769ZM32 44.3077V49.2308H27.0769V59.0769H32V54.1538H41.8462V49.2308H46.7692V44.3077H51.6923V49.2308H46.7692V54.1538H41.8462V64H46.7692V59.0769H51.6923V54.1538H54.1538V59.0769H51.6923V64H56.6154V59.0769H59.0769V54.1538H64V44.3077H59.0769V39.3846H41.8462V44.3077H32ZM59.0769 59.0769V64H64V59.0769H59.0769ZM32 59.0769V64H36.9231V59.0769H32ZM0 41.8462V64H22.1538V41.8462H0ZM4.92308 46.7692H17.2308V59.0769H4.92308V46.7692ZM7.38462 49.2308V56.6154H14.7692V49.2308H7.38462Z" fill="#414141"/>
  </g>
  <defs>
    <clipPath id="clip0_8733_58341">
      <rect width="64" height="64" fill="white"/>
    </clipPath>
  </defs>
</svg>