<svg width="24" height="24" viewBox="0 0 24 24" fill="none" xmlns="http://www.w3.org/2000/svg">
<path d="M12.0563 21C9.62022 21 7.54693 20.1261 5.83647 18.3782C4.126 16.6303 3.27077 14.5042 3.27077 12V11.0932L1.18698 13.2417L0 12.0179L4.11551 7.77472L8.23102 12.0179L7.04403 13.2417L4.96025 11.0932V12C4.96025 14.0174 5.64906 15.7314 7.02669 17.1421C8.40431 18.5528 10.0809 19.2581 12.0563 19.2581C12.5227 19.2581 12.9888 19.2056 13.4545 19.1007C13.9202 18.9957 14.3747 18.8383 14.8181 18.6283L16.0852 19.9347C15.4512 20.2861 14.7967 20.5515 14.1217 20.7309C13.4466 20.9103 12.7581 21 12.0563 21ZM19.8845 16.2253L15.769 11.9821L16.956 10.7583L19.0398 12.9068V12C19.0398 9.98262 18.3509 8.26859 16.9733 6.85791C15.5957 5.44722 13.9191 4.74188 11.9437 4.74188C11.4773 4.74188 11.0112 4.79436 10.5455 4.89933C10.0798 5.00429 9.62527 5.16173 9.18194 5.37165L7.91482 4.06526C8.54875 3.71389 9.20326 3.4485 9.87834 3.2691C10.5534 3.0897 11.2419 3 11.9437 3C14.3798 3 16.4531 3.87394 18.1635 5.62182C19.874 7.36973 20.7292 9.49579 20.7292 12V12.9068L22.813 10.7583L24 11.9821L19.8845 16.2253Z" fill="#121212"/>
</svg>
