<svg width="15" height="20" viewBox="0 0 15 20" fill="none" xmlns="http://www.w3.org/2000/svg">
<path d="M3.24986 19.75V10.6577C2.43833 10.482 1.75468 10.0714 1.19891 9.42593C0.643126 8.78043 0.365234 8.01024 0.365234 7.11538V0.25H1.86521V7.11538H3.24986V0.25H4.74981V7.11538H6.13446V0.25H7.63443V7.11538C7.63443 8.01024 7.35654 8.78043 6.80076 9.42593C6.24499 10.0714 5.56134 10.482 4.74981 10.6577V19.75L3.24986 19.75ZM12.8652 19.75V11.75H10.1345V4.99998C10.1345 3.75128 10.5354 2.66827 11.3373 1.75095C12.1392 0.833651 13.1485 0.339743 14.3652 0.269226V19.75H12.8652Z" fill="#606060"/>
</svg>
