<svg width="33" height="32" viewBox="0 0 33 32" fill="none" xmlns="http://www.w3.org/2000/svg">
<path d="M10.1667 29V16.8769C9.08468 16.6427 8.17315 16.0953 7.43212 15.2346C6.69108 14.3739 6.32056 13.347 6.32056 12.1538V3H8.32052V12.1538H10.1667V3H12.1667V12.1538H14.0129V3H16.0128V12.1538C16.0128 13.347 15.6423 14.3739 14.9013 15.2346C14.1602 16.0953 13.2487 16.6427 12.1667 16.8769V28.9999L10.1667 29ZM22.9872 29V18.3333H19.3462V9.3333C19.3462 7.66837 19.8808 6.22436 20.95 5.00127C22.0192 3.7782 23.3649 3.11966 24.9872 3.02563V29H22.9872Z" fill="#5855B3"/>
</svg>
