<svg width="36" height="36" viewBox="0 0 36 36" fill="none" xmlns="http://www.w3.org/2000/svg">
<path d="M33.3 24.2998C33.3 23.6998 33.3 23.0998 33.3 22.4998C33.3 22.0498 33.15 21.8998 32.85 21.7498C31.95 21.1498 30.9 20.6998 30 20.0998C29.85 19.9498 29.7 19.9498 29.7 19.6498C29.7 18.5998 29.7 17.5498 29.7 16.4998C29.7 16.3498 29.7 16.1998 30 16.0498C31.05 15.4498 31.95 14.8498 33 14.3998C33.3 14.2498 33.45 13.9498 33.45 13.6498C33.45 12.2998 33.45 11.0998 33.45 9.74981C33.45 9.44981 33.3 9.14981 33 8.99981C31.8 8.39981 30.75 7.64981 29.55 7.04981C29.25 6.89981 28.95 6.89981 28.65 7.04981C27.75 7.64981 26.7 8.09981 25.8 8.69981C25.65 8.84981 25.5 8.84981 25.2 8.69981C24.3 8.09981 23.4 7.64981 22.5 7.19981C22.35 7.04981 22.2 7.04981 22.2 6.74981C22.2 5.54981 22.2 4.4998 22.2 3.2998C22.2 2.9998 22.05 2.6998 21.75 2.5498C20.7 1.9498 19.5 1.1998 18.45 0.599805C18.15 0.449805 17.85 0.449805 17.55 0.599805C16.5 1.3498 15.3 1.9498 14.25 2.5498C13.95 2.6998 13.8 2.9998 13.8 3.2998C13.8 4.4998 13.8 5.54981 13.8 6.74981C13.8 6.89981 13.8 7.04981 13.5 7.19981C12.6 7.64981 11.7 8.24981 10.8 8.69981C10.65 8.84981 10.5 8.84981 10.35 8.69981C9.30001 8.09981 8.40001 7.49981 7.35001 7.04981C7.05001 6.89981 6.75001 6.89981 6.60001 7.04981C5.40001 7.64981 4.35001 8.24981 3.15001 8.99981C2.85001 9.14981 2.70001 9.29981 2.70001 9.74981C2.70001 11.0998 2.70001 12.2998 2.70001 13.6498C2.70001 13.9498 2.85001 14.2498 3.15001 14.3998C4.20001 14.9998 5.10001 15.5998 6.15001 16.0498C6.30001 16.1998 6.45001 16.1998 6.45001 16.4998C6.45001 17.5498 6.45001 18.5998 6.45001 19.6498C6.45001 19.7998 6.45001 19.9498 6.15001 20.0998C5.10001 20.6998 4.20001 21.2998 3.15001 21.7498C2.85001 21.8998 2.70001 22.1998 2.70001 22.4998C2.70001 23.8498 2.70001 25.0498 2.70001 26.3998C2.70001 26.6998 2.85001 26.9998 3.15001 27.1498C4.35001 27.7498 5.40001 28.4998 6.60001 29.0998C6.90001 29.2498 7.20001 29.2498 7.35001 29.0998C8.40001 28.4998 9.30001 27.8998 10.35 27.4498C10.5 27.2998 10.65 27.2998 10.8 27.4498C11.7 28.0498 12.6 28.4998 13.5 28.9498C13.65 29.0998 13.8 29.2498 13.8 29.3998C13.8 30.5998 13.8 31.6498 13.8 32.8498C13.8 33.1498 13.95 33.4498 14.25 33.5998C15.3 34.1998 16.5 34.7998 17.55 35.5498C17.85 35.6998 18.15 35.6998 18.45 35.5498C19.5 34.9498 20.7 34.1998 21.75 33.5998C22.05 33.4498 22.2 33.1498 22.2 32.8498C22.2 31.6498 22.2 30.5998 22.2 29.3998C22.2 29.2498 22.2 29.0998 22.5 28.9498C23.4 28.4998 24.3 27.8998 25.2 27.4498C25.35 27.2998 25.5 27.2998 25.8 27.4498C26.7 28.0498 27.75 28.4998 28.65 29.0998C28.95 29.2498 29.25 29.2498 29.55 29.0998C30.6 28.4998 31.8 27.7498 32.85 27.1498C33.15 26.9998 33.3 26.6998 33.3 26.3998C33.3 25.6498 33.3 25.0498 33.3 24.2998ZM32.1 13.1998C32.1 13.3498 32.1 13.3498 31.95 13.3498C31.2 13.7998 30.3 14.2498 29.55 14.6998C29.55 13.7998 29.55 12.8998 29.55 11.9998C29.55 11.8498 29.55 11.8498 29.7 11.8498C30.45 11.3998 31.35 10.9498 32.1 10.4998C32.1 11.3998 32.1 12.2998 32.1 13.1998ZM28.95 8.09981C29.1 7.94981 29.1 8.09981 29.25 8.09981C30 8.54981 30.75 8.99981 31.5 9.44981C31.35 9.59981 31.35 9.59981 31.2 9.74981C30.6 10.0498 30 10.4998 29.25 10.7998C29.1 10.9498 28.95 10.9498 28.8 10.7998C28.05 10.3498 27.3 9.89981 26.55 9.44981C27.45 8.99981 28.2 8.54981 28.95 8.09981ZM25.95 10.4998C26.7 10.9498 27.6 11.3998 28.35 11.8498C28.5 11.9998 28.5 11.9998 28.5 12.1498C28.5 13.0498 28.5 13.9498 28.5 14.8498C27.6 14.3998 26.85 13.9498 26.1 13.4998C25.95 13.4998 25.95 13.3498 25.95 13.1998C25.95 12.2998 25.95 11.3998 25.95 10.4998ZM21 6.74981C21 6.89981 21 7.04981 20.85 7.04981C20.1 7.49981 19.35 7.94981 18.6 8.39981C18.6 8.09981 18.6 7.94981 18.6 7.64981C18.6 7.04981 18.6 6.29981 18.6 5.6998C18.6 5.54981 18.6 5.39981 18.75 5.39981C19.5 4.9498 20.25 4.4998 21.15 4.0498C21 5.0998 21 5.99981 21 6.74981ZM17.85 1.7998C18 1.6498 18.15 1.6498 18.3 1.7998C19.05 2.2498 19.8 2.6998 20.55 3.1498C19.95 3.5998 19.2 3.89981 18.6 4.34981C18.15 4.64981 17.85 4.64981 17.55 4.34981C16.95 3.89981 16.35 3.5998 15.6 3.1498C16.35 2.6998 17.1 2.2498 17.85 1.7998ZM15 4.1998C15.75 4.64981 16.65 5.0998 17.4 5.54981C17.55 5.54981 17.55 5.6998 17.55 5.6998C17.55 6.5998 17.55 7.49981 17.55 8.39981C16.65 7.94981 15.9 7.49981 15 7.04981V6.89981C15 5.99981 15 5.0998 15 4.1998ZM11.4 9.74981C12.3 9.14981 13.2 8.69981 14.25 8.09981C14.4 7.94981 14.55 7.94981 14.7 8.09981C15.6 8.69981 16.65 9.14981 17.55 9.74981C17.85 9.89981 18.3 9.89981 18.6 9.74981C19.5 9.14981 20.55 8.69981 21.45 8.09981C21.6 7.94981 21.75 7.94981 22.05 8.09981C22.95 8.69981 23.85 9.14981 24.75 9.59981C24.9 9.74981 25.05 9.74981 25.05 10.0498C25.05 11.0998 25.05 11.9998 25.05 13.0498C25.05 13.1998 25.05 13.3498 24.75 13.4998C23.85 13.9498 22.95 14.5498 22.05 15.1498C21.9 15.2998 21.75 15.2998 21.6 15.1498C20.55 14.5498 19.65 13.9498 18.6 13.3498C18.3 13.1998 18 13.1998 17.7 13.3498C16.65 13.9498 15.75 14.5498 14.7 14.9998C14.55 15.1498 14.4 15.1498 14.25 14.9998C13.2 14.5498 12.3 14.0998 11.4 13.4998C11.25 13.3498 11.1 13.3498 11.1 13.1998C11.1 12.7498 11.1 12.1498 11.1 11.6998C11.1 11.2498 11.1 10.6498 11.1 10.1998C11.1 9.89981 11.25 9.74981 11.4 9.74981ZM18.6 18.4498C18.6 18.2998 18.6 18.2998 18.75 18.1498C19.5 17.6998 20.25 17.2498 21.15 16.7998C21.15 17.6998 21.15 18.5998 21.15 19.4998C21.15 19.6498 21.15 19.6498 21 19.7998C20.25 20.2498 19.5 20.6998 18.6 21.1498C18.6 20.2498 18.6 19.3498 18.6 18.4498ZM17.4 21.1498C16.65 20.6998 15.75 20.2498 15 19.7998C14.85 19.7998 14.85 19.6498 14.85 19.6498C14.85 18.7498 14.85 17.8498 14.85 16.9498C15.45 17.2498 15.9 17.6998 16.5 17.8498C17.1 18.1498 17.4 18.5998 17.25 19.1998C17.4 19.7998 17.4 20.5498 17.4 21.1498ZM15.45 15.8998C16.2 15.4498 17.1 14.9998 17.85 14.5498C18 14.5498 18 14.5498 18 14.5498C18.75 14.9998 19.5 15.4498 20.4 15.8998C19.65 16.3498 18.75 16.7998 18 17.2498C17.85 17.2498 17.85 17.2498 17.7 17.2498C17.1 16.7998 16.35 16.3498 15.45 15.8998ZM10.05 13.1998C10.05 13.3498 10.05 13.3498 9.90001 13.4998C9.15001 13.9498 8.40001 14.3998 7.50001 14.8498C7.50001 13.7998 7.50001 12.8998 7.50001 11.9998C7.50001 11.9998 7.50001 11.8498 7.65001 11.8498C8.40001 11.3998 9.15001 10.9498 10.05 10.4998C10.05 11.3998 10.05 12.2998 10.05 13.1998ZM6.45001 14.8498C6.15001 14.6998 6.00001 14.5498 5.85001 14.5498C5.25001 14.0998 4.65001 13.7998 4.05001 13.4998C3.90001 13.3498 3.90001 13.3498 3.90001 13.1998C3.90001 12.2998 3.90001 11.3998 3.90001 10.4998C4.65001 10.9498 5.55001 11.3998 6.30001 11.8498C6.45001 11.8498 6.45001 11.9998 6.45001 12.1498C6.45001 13.0498 6.45001 13.9498 6.45001 14.8498ZM4.50001 9.59981C5.10001 9.29981 5.70001 8.99981 6.30001 8.54981C6.75001 8.24981 7.20001 8.24981 7.65001 8.54981C8.25001 8.99981 8.85001 9.29981 9.45001 9.59981C8.70001 10.0498 7.80001 10.4998 7.05001 10.9498C6.90001 10.9498 6.90001 11.0998 6.75001 10.9498C6.00001 10.4998 5.25001 10.0498 4.50001 9.59981ZM6.45001 27.5998C5.70001 27.1498 5.10001 26.8498 4.35001 26.3998C4.05001 26.2498 3.90001 25.9498 3.90001 25.6498C3.90001 24.8998 3.90001 24.1498 3.90001 23.2498C4.80001 23.6998 5.55001 24.1498 6.30001 24.5998L6.45001 24.7498C6.45001 25.7998 6.45001 26.5498 6.45001 27.5998ZM7.05001 23.6998C6.90001 23.6998 6.90001 23.6998 6.90001 23.6998C6.15001 23.2498 5.40001 22.7998 4.50001 22.3498C5.25001 21.8998 6.15001 21.4498 6.90001 20.9998C7.05001 20.9998 7.05001 20.9998 7.20001 20.9998C7.95001 21.4498 8.70001 21.8998 9.60001 22.3498C8.55001 22.7998 7.80001 23.2498 7.05001 23.6998ZM9.90001 26.2498C9.15001 26.6998 8.40001 26.9998 7.80001 27.4498C7.50001 27.5998 7.50001 27.4498 7.50001 27.2998C7.50001 26.5498 7.50001 25.6498 7.50001 24.8998C7.50001 24.7498 7.50001 24.7498 7.65001 24.5998C8.40001 24.1498 9.30001 23.6998 10.05 23.2498C10.05 24.1498 10.05 25.0498 10.05 25.9498C10.05 26.0998 9.90001 26.2498 9.90001 26.2498ZM14.1 27.8998C13.2 27.2998 12.3 26.8498 11.4 26.3998C11.25 26.2498 11.1 26.0998 11.1 25.9498C11.1 24.7498 11.1 23.6998 11.1 22.4998C11.1 22.1998 10.95 21.8998 10.65 21.7498C9.60001 21.1498 8.70001 20.5498 7.65001 20.0998C7.50001 19.9498 7.50001 19.7998 7.50001 19.4998C7.50001 18.4498 7.50001 17.3998 7.50001 16.3498C7.50001 16.1998 7.50001 16.0498 7.80001 15.8998C8.70001 15.4498 9.60001 14.8498 10.35 14.3998C10.5 14.2498 10.65 14.2498 10.8 14.3998C11.7 14.9998 12.75 15.4498 13.65 16.0498C13.8 16.1998 13.8 16.1998 13.8 16.3498C13.8 16.9498 13.8 17.5498 13.8 18.1498C13.8 18.7498 13.8 19.3498 13.8 19.7998C13.8 20.0998 13.95 20.3998 14.25 20.5498C15.3 21.1498 16.2 21.7498 17.25 22.1998C17.4 22.3498 17.55 22.3498 17.55 22.6498C17.55 23.6998 17.55 24.7498 17.55 25.7998C17.55 25.9498 17.55 26.0998 17.25 26.2498C16.35 26.6998 15.6 27.2998 14.7 27.7498C14.4 28.0498 14.25 28.0498 14.1 27.8998ZM17.4 33.8998C16.65 33.4498 15.75 32.9998 15 32.5498C14.85 32.5498 14.85 32.3998 14.85 32.3998C14.85 31.4998 14.85 30.5998 14.85 29.6998C15.75 30.1498 16.5 30.5998 17.25 31.0498C17.4 31.0498 17.4 31.1998 17.4 31.3498C17.4 32.0998 17.4 32.9998 17.4 33.8998ZM17.4 29.8498C16.8 29.3998 16.2 29.0998 15.45 28.6498C16.35 28.1998 17.1 27.7498 17.85 27.2998C18 27.2998 18 27.2998 18.15 27.2998C18.9 27.7498 19.65 28.1998 20.55 28.6498C19.95 29.0998 19.2 29.3998 18.6 29.8498C18.15 29.9998 17.85 29.9998 17.4 29.8498ZM21 32.5498C20.25 32.9998 19.5 33.4498 18.6 33.8998C18.6 32.9998 18.6 32.0998 18.6 31.1998C18.6 31.0498 18.6 31.0498 18.75 31.0498C19.5 30.5998 20.25 30.1498 21.15 29.6998C21.15 30.5998 21.15 31.4998 21.15 32.3998C21 32.5498 21 32.5498 21 32.5498ZM25.35 21.7498C25.05 21.8998 24.9 22.1998 24.9 22.4998C24.9 23.6998 24.9 24.7498 24.9 25.9498C24.9 26.0998 24.9 26.2498 24.75 26.3998C23.85 26.9998 22.95 27.4498 21.9 28.0498C21.75 28.1998 21.6 28.1998 21.45 28.0498C20.55 27.4498 19.65 26.9998 18.75 26.5498C18.6 26.3998 18.6 26.3998 18.6 26.2498C18.6 25.1998 18.6 23.9998 18.6 22.9498C18.6 22.7998 18.75 22.6498 18.9 22.6498C19.95 22.0498 20.85 21.4498 21.9 20.9998C22.2 20.8498 22.35 20.5498 22.35 20.2498C22.35 19.6498 22.35 19.1998 22.35 18.5998C22.35 17.9998 22.35 17.3998 22.35 16.7998C22.35 16.6498 22.35 16.4998 22.5 16.4998C23.4 15.8998 24.45 15.4498 25.35 14.8498C25.5 14.6998 25.65 14.6998 25.8 14.8498C26.7 15.2998 27.6 15.8998 28.5 16.3498C28.65 16.4998 28.65 16.4998 28.65 16.6498C28.65 17.6998 28.65 18.7498 28.65 19.9498C28.65 20.0998 28.5 20.2498 28.35 20.3998C27.3 20.5498 26.25 21.1498 25.35 21.7498ZM28.2 27.4498C27.45 26.9998 26.85 26.6998 26.1 26.2498C25.95 26.0998 25.95 26.0998 25.95 25.9498C25.95 25.0498 25.95 24.1498 25.95 23.2498C26.7 23.6998 27.6 24.1498 28.35 24.5998C28.5 24.5998 28.5 24.7498 28.5 24.8998C28.5 25.6498 28.5 26.5498 28.5 27.2998C28.5 27.4498 28.5 27.5998 28.2 27.4498ZM29.1 23.6998C28.95 23.6998 28.95 23.6998 28.95 23.6998C28.2 23.2498 27.45 22.7998 26.55 22.3498C27.3 21.8998 28.2 21.4498 28.95 20.9998C29.1 20.9998 29.1 20.9998 29.25 20.9998C30 21.4498 30.75 21.8998 31.65 22.3498C30.75 22.7998 30 23.2498 29.1 23.6998ZM31.95 26.2498C31.2 26.6998 30.6 26.9998 29.85 27.4498C29.7 27.5998 29.55 27.4498 29.7 27.2998C29.7 26.5498 29.7 25.6498 29.7 24.8998C29.7 24.7498 29.7 24.7498 29.85 24.5998C30.6 24.1498 31.5 23.6998 32.25 23.2498C32.25 24.1498 32.25 25.0498 32.25 25.9498C32.1 26.0998 32.1 26.2498 31.95 26.2498Z" fill="#5855B3"/>
</svg>
