<svg width="40" height="40" viewBox="0 0 40 40" fill="none" xmlns="http://www.w3.org/2000/svg">
<g clip-path="url(#clip0_1_17262)">
<path d="M14.3333 33.8334C13.6666 33.5001 13 33.3334 12.1666 33.0001C4.16663 28.8334 0.833293 18.6667 5.16663 10.6667C5.16663 10.5001 5.33329 10.5001 5.33329 10.3334C5.49996 11.0001 5.66663 11.8334 5.99996 12.5001C5.99996 12.6667 5.99996 12.6667 5.99996 12.8334C6.49996 13.1667 6.83329 13.5001 7.33329 13.3334C7.83329 13.1667 7.99996 12.8334 7.83329 12.3334C7.49996 10.8334 6.99996 9.33339 6.66663 7.66672C6.49996 7.00005 5.99996 6.83339 5.33329 7.00005C3.83329 7.33339 2.49996 7.83339 0.999959 8.16672C0.666626 8.33339 0.333293 8.50006 0.166626 8.83339C0.166626 9.00006 0.166626 9.16672 0.166626 9.33339C0.333293 9.66672 0.666626 10.0001 1.16663 9.83339C1.33329 9.83339 1.49996 9.83339 1.66663 9.66672C2.49996 9.50006 3.49996 9.16672 4.49996 9.00006C4.49996 9.16672 4.49996 9.16672 4.49996 9.16672C2.33329 13.0001 1.49996 17.1667 2.33329 21.5001C3.66663 28.3334 7.66662 33.0001 14 35.5001C14.5 35.6667 15 35.5001 15.1666 35.0001C15.1666 34.5001 15 34.1667 14.3333 33.8334Z" fill="#5855B3"/>
<path d="M37.3333 17.5C36.8333 17.5 36.5 17.8333 36.5 18.3333C36.5 18.5 36.5 18.5 36.5 18.6667C36.5 19.8333 36.3333 20.8333 36.1666 22C34.6666 28.3333 29.3333 33.5 22.8333 34.6667C22.3333 34.8333 21.8333 34.8333 21.1666 34.8333C21.8333 34.1667 22.3333 33.6667 22.8333 33.1667C23.3333 32.6667 23.3333 32.1667 23 31.8333C22.6666 31.5 22.1666 31.5 21.6666 32C20.6666 33 19.6666 34 18.6666 35C18.1666 35.5 18.1666 36 18.6666 36.5C19.6666 37.5 20.6666 38.5 21.5 39.3333C21.6666 39.5 21.8333 39.6667 22.1666 39.8333C22.3333 39.8333 22.5 39.8333 22.6666 39.8333C23.3333 39.3333 23.5 38.8333 22.8333 38.1667C22.6666 38 22.3333 37.6667 22.1666 37.5C21.8333 37.1667 21.5 36.8333 21.1666 36.5C21.6666 36.5 22 36.3333 22.3333 36.3333C26.8333 35.6667 30.6666 33.6667 33.6666 30.3333C36.3333 27.3333 37.8333 23.8333 38.1666 20C38.1666 19.5 38.1666 19 38.1666 18.5C38.1666 17.8333 37.8333 17.5 37.3333 17.5Z" fill="#121212"/>
<path d="M39.8333 9.00023C39.6666 8.66689 39.5 8.50023 39.1666 8.50023C38.8333 8.50023 38.5 8.66689 38.3333 9.00023C37.8333 9.83356 37.3333 10.6669 36.8333 11.5002C32.6666 1.66689 21.3333 -2.49977 12 2.16689C10.8333 2.50023 9.83331 3.33356 8.83331 4.00023C8.33331 4.33356 8.33331 4.83356 8.66664 5.16689C8.99997 5.50023 9.49997 5.50023 9.83331 5.33356L9.99997 5.16689C13.6666 2.50023 17.6666 1.33356 22.1666 2.00023C27.3333 2.66689 31.5 5.50023 34.1666 10.0002C34.5 10.5002 34.8333 11.1669 35.1666 11.8336C34.3333 11.3336 33.5 10.8336 32.6666 10.5002C32.1666 10.1669 31.6666 10.3336 31.5 10.8336C31.3333 11.3336 31.3333 11.6669 31.8333 12.0002C33.1666 12.8336 34.6666 13.6669 36 14.5002C36.5 14.8336 36.8333 14.6669 37.1666 14.1669C38 12.8336 38.8333 11.3336 39.6666 9.83356C39.8333 9.50023 39.8333 9.16689 39.8333 9.00023Z" fill="#121212"/>
<path d="M29.8333 14.8337C29.3333 13.0003 27.6666 11.667 25.6666 11.667C21.9999 11.667 18.1666 11.667 14.4999 11.667C14.1666 11.667 13.9999 11.667 13.6666 11.667C11.3333 12.0003 9.83326 14.3337 10.1666 16.5003C10.3333 17.667 10.8333 18.5003 11.8333 19.167C11.6666 19.3337 11.6666 19.3337 11.4999 19.5003C10.3333 20.667 9.83326 22.3337 10.4999 24.0003C10.8333 25.5003 12.3333 26.667 13.9999 26.667C17.9999 26.667 21.9999 26.667 25.9999 26.667C28.4999 26.667 30.3333 24.0003 29.8333 21.667C29.6666 20.667 28.9999 20.0003 28.3333 19.3337C28.4999 19.167 28.6666 19.0003 28.8333 18.8337C29.8333 17.667 30.1666 16.3337 29.8333 14.8337ZM14.1666 13.3337C17.9999 13.3337 21.9999 13.3337 25.8333 13.3337C27.1666 13.3337 28.3333 14.5003 28.3333 15.8337C28.3333 17.167 27.1666 18.3337 25.8333 18.3337C23.8333 18.3337 21.9999 18.3337 19.9999 18.3337C18.1666 18.3337 16.1666 18.3337 14.3333 18.3337C12.8333 18.3337 11.6666 17.3337 11.6666 15.8337C11.6666 14.5003 12.8333 13.3337 14.1666 13.3337ZM25.6666 25.0003C23.8333 25.0003 21.8333 25.0003 19.9999 25.0003C17.9999 25.0003 16.1666 25.0003 14.1666 25.0003C12.9999 25.0003 11.9999 24.167 11.8333 22.8337C11.6666 21.667 12.3333 20.5003 13.4999 20.167C13.6666 20.0003 13.9999 20.0003 14.1666 20.0003C17.9999 20.0003 21.8333 20.0003 25.6666 20.0003C27.1666 20.0003 28.1666 21.167 28.1666 22.5003C28.3333 23.8337 27.1666 25.0003 25.6666 25.0003Z" fill="#121212"/>
<path d="M15.8333 21.667C15.4999 21.667 15.3333 21.667 14.9999 21.667C14.6666 21.667 14.4999 21.667 14.1666 21.667C13.6666 21.667 13.3333 22.0003 13.3333 22.5003C13.3333 23.0003 13.6666 23.3337 14.1666 23.3337C14.6666 23.3337 15.3333 23.3337 15.8333 23.3337C16.3333 23.3337 16.6666 23.0003 16.6666 22.5003C16.6666 22.0003 16.3333 21.667 15.8333 21.667Z" fill="#121212"/>
<path d="M20.8333 21.667C20.3333 21.667 19.6666 21.667 19.1666 21.667C18.6666 21.667 18.3333 22.0003 18.3333 22.5003C18.3333 23.0003 18.6666 23.3337 19.1666 23.3337C19.4999 23.3337 19.6666 23.3337 19.9999 23.3337C20.3333 23.3337 20.4999 23.3337 20.8333 23.3337C21.3333 23.3337 21.6666 23.0003 21.6666 22.5003C21.6666 22.0003 21.3333 21.667 20.8333 21.667Z" fill="#121212"/>
<path d="M14.1666 16.6667C14.4999 16.6667 14.6666 16.6667 14.9999 16.6667C15.3333 16.6667 15.6666 16.6667 15.8333 16.6667C16.3333 16.6667 16.6666 16.3333 16.6666 15.8333C16.6666 15.5 16.3333 15 15.9999 15C15.3333 15 14.6666 15 14.1666 15C13.6666 15 13.3333 15.5 13.3333 15.8333C13.3333 16.3333 13.6666 16.6667 14.1666 16.6667Z" fill="#121212"/>
<path d="M19.1666 16.6667C19.4999 16.6667 19.8333 16.6667 19.9999 16.6667C20.3333 16.6667 20.6666 16.6667 20.8333 16.6667C21.3333 16.6667 21.4999 16.3333 21.6666 15.8333C21.6666 15.5 21.3333 15 20.8333 15C20.1666 15 19.6666 15 18.9999 15C18.6666 15 18.3333 15.5 18.3333 15.8333C18.3333 16.3333 18.6666 16.6667 19.1666 16.6667Z" fill="#121212"/>
</g>
<defs>
<clipPath id="clip0_1_17262">
<rect width="40" height="40" fill="white"/>
</clipPath>
</defs>
</svg>
