<svg width="36" height="36" viewBox="0 0 36 36" fill="none" xmlns="http://www.w3.org/2000/svg">
<path d="M18.9 5.0998C19.05 4.9498 19.05 4.9498 18.9 4.7998C17.7 3.5998 16.35 2.2498 15.15 1.0498C14.85 1.3498 14.4 1.7998 13.95 2.2498C13.8 2.3998 13.8 2.5498 13.95 2.6998C14.4 2.9998 14.85 3.4498 15.3 3.8998C15.15 4.0498 15.15 3.8998 15 3.8998C13.8 3.8998 12.6 3.8998 11.4 3.8998C9.45001 3.8998 7.80001 5.24981 7.20001 7.19981C6.90001 8.09981 7.05001 9.14981 7.05001 10.1998C7.05001 10.3498 7.20001 10.3498 7.20001 10.3498C7.65001 10.3498 8.25001 10.3498 8.70001 10.3498C8.85001 10.3498 9.00001 10.3498 9.00001 10.0498C9.00001 9.5998 9.00001 8.9998 9.00001 8.5498C9.00001 7.0498 10.05 5.9998 11.55 5.9998C12.6 5.9998 13.8 5.9998 14.85 5.9998C15 5.9998 15 5.9998 15.15 5.9998C14.85 6.4498 14.4 6.74981 13.95 7.19981C14.4 7.64981 14.85 8.0998 15.15 8.39981C15.3 8.5498 15.3 8.5498 15.45 8.39981C16.65 7.3498 17.85 6.2998 18.9 5.0998Z" fill="#5855B3"/>
<path d="M29.1 25.7999C29.1 25.6499 28.95 25.6499 28.95 25.6499C28.5 25.6499 27.9 25.6499 27.45 25.6499C27.3 25.6499 27.15 25.7999 27.15 25.9499C27.15 26.3999 27.15 26.8499 27.15 27.4499C27.15 29.0999 26.1 30.1499 24.6 30.1499C23.4 30.1499 22.35 30.1499 21.15 30.1499C21.15 30.1499 21 30.1499 21 29.9999C21.45 29.5499 21.9 29.0999 22.2 28.7999C22.35 28.6499 22.35 28.6499 22.2 28.4999C21.9 28.1999 21.45 27.7499 21.15 27.4499C21 27.2999 21 27.2999 20.85 27.4499C20.55 27.7499 20.1 28.1999 19.8 28.4999C18.9 29.3999 18.15 30.1499 17.25 31.0499C18.45 32.2499 19.8 33.5999 21 34.7999C21.15 34.9499 21.15 34.9499 21.3 34.7999C21.75 34.3499 22.2 34.0499 22.65 33.5999C22.2 33.1499 21.75 32.6999 21.3 32.2499C21.3 32.0999 21.45 32.2499 21.45 32.2499C22.65 32.2499 23.85 32.2499 25.05 32.2499C27 32.0999 28.5 30.7499 29.1 28.9499C29.25 27.7499 29.1 26.8499 29.1 25.7999Z" fill="#121212"/>
<path d="M14.7 14.3999C10.35 14.3999 5.85001 14.3999 1.50001 14.3999C1.20001 14.3999 1.20001 14.5499 1.20001 14.8499C1.20001 21.4499 1.20001 28.0499 1.20001 34.6499C1.20001 34.7999 1.20001 34.7999 1.20001 34.9499C5.85001 34.9499 10.5 34.9499 15.15 34.9499V34.7999C15.15 28.0499 15.15 21.4499 15.15 14.6999C15 14.3999 14.85 14.3999 14.7 14.3999ZM12.75 32.9999C9.60001 32.9999 6.45001 32.9999 3.45001 32.9999C3.15001 32.9999 3.15001 32.9999 3.15001 32.6999C3.15001 27.4499 3.15001 22.0499 3.15001 16.7999C3.15001 16.4999 3.15001 16.4999 3.45001 16.4999C6.60001 16.4999 9.75001 16.4999 12.75 16.4999C13.05 16.4999 13.05 16.4999 13.05 16.7999C13.05 19.4999 13.05 22.0499 13.05 24.7499C13.05 27.4499 13.05 29.9999 13.05 32.6999C13.05 32.8499 13.05 32.9999 12.75 32.9999Z" fill="#121212"/>
<path d="M34.95 1.3498C34.95 1.0498 34.95 1.0498 34.65 1.0498C30.15 1.0498 25.8 1.0498 21.3 1.0498C21 1.0498 21 1.0498 21 1.3498C21 4.64981 21 7.94981 21 11.2498C21 14.5498 21 17.8498 21 21.1498C21 21.4498 21 21.4498 21.3 21.4498C25.8 21.4498 30.15 21.4498 34.65 21.4498C34.95 21.4498 34.95 21.4498 34.95 21.1498C34.95 14.5498 34.95 7.94981 34.95 1.3498ZM32.7 19.4998C29.55 19.4998 26.4 19.4998 23.4 19.4998C23.1 19.4998 23.1 19.4998 23.1 19.1998C23.1 16.4998 23.1 13.9498 23.1 11.2498C23.1 8.54981 23.1 5.9998 23.1 3.2998C23.1 2.9998 23.1 2.9998 23.4 2.9998C26.55 2.9998 29.7 2.9998 32.7 2.9998C32.85 2.9998 33 2.9998 33 3.2998C33 8.54981 33 13.9498 33 19.1998C33 19.4998 32.85 19.4998 32.7 19.4998Z" fill="#121212"/>
<path d="M9.89999 18.7496C9.89999 18.5996 9.89999 18.5996 9.74999 18.5996C8.69999 18.5996 7.49999 18.5996 6.44999 18.5996C6.29999 18.5996 6.29999 18.5996 6.29999 18.8996C6.29999 19.3496 6.29999 19.9496 6.29999 20.3996C6.29999 20.5496 6.44999 20.6996 6.59999 20.6996C7.19999 20.6996 7.64999 20.6996 8.24999 20.6996C8.84999 20.6996 9.29999 20.6996 9.89999 20.6996C10.05 20.6996 10.2 20.6996 10.2 20.3996C9.89999 19.7996 9.89999 19.1996 9.89999 18.7496Z" fill="#121212"/>
<path d="M29.55 5.09961C28.5 5.09961 27.3 5.09961 26.25 5.09961C26.1 5.09961 26.1 5.24961 26.1 5.39961C26.1 5.84961 26.1 6.44961 26.1 6.89961C26.1 7.04961 26.1 7.19961 26.4 7.19961C27 7.19961 27.45 7.19961 28.05 7.19961C28.65 7.19961 29.1 7.19961 29.7 7.19961C29.85 7.19961 29.85 7.19961 29.85 7.04961C29.85 6.44961 29.85 5.99961 29.85 5.39961C29.85 5.09961 29.7 5.09961 29.55 5.09961Z" fill="#121212"/>
</svg>
