<svg width="185" height="35" viewBox="0 0 185 35" fill="none" xmlns="http://www.w3.org/2000/svg">
<path d="M46.588 11.0351V1.65176H52.9121V11.0351H59.2361V17.2899H52.9121V20.4184C52.9121 22.1443 53.5305 23.6189 54.7654 24.8402C56.0002 26.0615 57.4911 26.6732 59.2361 26.6732V32.9281C57.5557 32.9281 55.9419 32.6109 54.3947 31.9745C52.8454 31.3402 51.4794 30.436 50.2946 29.2621C49.1097 28.0881 48.1956 26.7371 47.5522 25.2048C46.9108 23.6745 46.588 22.0763 46.588 20.4163V17.2879H43.425V11.033H46.588V11.0351Z" fill="#5855B3"/>
<path d="M67.7112 32.9281H61.3872V20.4184C61.3872 18.7563 61.7079 17.1602 62.3513 15.6299C62.9927 14.0997 63.9068 12.7466 65.0937 11.5726C66.2786 10.4007 67.6467 9.49659 69.1938 8.86019C70.741 8.22584 72.3569 7.90661 74.0353 7.90661V14.1615C72.2903 14.1615 70.7993 14.7732 69.5645 15.9945C68.3297 17.2158 67.7112 18.6904 67.7112 20.4163V32.9281Z" fill="#5855B3"/>
<path d="M86.8124 32.9281C85.132 32.9281 83.5182 32.6109 81.971 31.9745C80.4218 31.3402 79.0558 30.436 77.8709 29.2621C76.6861 28.0881 75.7719 26.7371 75.1285 25.2048C74.4871 23.6745 74.1644 22.0763 74.1644 20.4163C74.1644 18.7563 74.485 17.1581 75.1285 15.6279C75.7698 14.0976 76.684 12.7445 77.8709 11.5706C79.0558 10.3987 80.4239 9.49453 81.971 8.85813C83.5182 8.22378 85.1341 7.90455 86.8124 7.90455C88.4908 7.90455 90.1067 8.22172 91.6539 8.85813C93.201 9.49247 94.5691 10.3966 95.754 11.5706C96.9388 12.7445 97.853 14.0956 98.4964 15.6279C99.1378 17.1602 99.4605 18.7563 99.4605 20.4163C99.4605 22.0763 99.1398 23.6745 98.4964 25.2048C97.855 26.7371 96.9409 28.0881 95.754 29.2621C94.5691 30.434 93.201 31.3381 91.6539 31.9745C90.1046 32.6089 88.4908 32.9281 86.8124 32.9281ZM86.8124 26.6732C88.5574 26.6732 90.0484 26.0615 91.2832 24.8402C92.518 23.6189 93.1365 22.1443 93.1365 20.4184C93.1365 18.6925 92.518 17.2178 91.2832 15.9965C90.0484 14.7752 88.5574 14.1635 86.8124 14.1635C85.0674 14.1635 83.5765 14.7752 82.3417 15.9965C81.1069 17.2178 80.4884 18.6925 80.4884 20.4184C80.4884 22.1443 81.1069 23.6189 82.3417 24.8402C83.5765 26.0615 85.0674 26.6732 86.8124 26.6732Z" fill="#5855B3"/>
<path d="M113.248 32.9281C111.567 32.9281 109.953 32.6109 108.406 31.9745C106.857 31.3402 105.491 30.436 104.306 29.2621C103.121 28.0881 102.207 26.7371 101.564 25.2048C100.922 23.6745 100.6 22.0763 100.6 20.4163C100.6 18.7563 100.92 17.1581 101.564 15.6279C102.205 14.0976 103.119 12.7445 104.306 11.5706C105.491 10.3987 106.859 9.49453 108.406 8.85813C109.953 8.22378 111.569 7.90455 113.248 7.90455C114.926 7.90455 116.542 8.22172 118.089 8.85813C119.636 9.49247 121.004 10.3966 122.189 11.5706C123.374 12.7445 124.288 14.0956 124.932 15.6279C125.573 17.1602 125.896 18.7563 125.896 20.4163C125.896 22.0763 125.575 23.6745 124.932 25.2048C124.29 26.7371 123.376 28.0881 122.189 29.2621C121.004 30.434 119.636 31.3381 118.089 31.9745C116.54 32.6089 114.926 32.9281 113.248 32.9281ZM113.248 26.6732C114.993 26.6732 116.484 26.0615 117.718 24.8402C118.953 23.6189 119.572 22.1443 119.572 20.4184C119.572 18.6925 118.953 17.2178 117.718 15.9965C116.484 14.7752 114.993 14.1635 113.248 14.1635C111.503 14.1635 110.012 14.7752 108.777 15.9965C107.542 17.2178 106.924 18.6925 106.924 20.4184C106.924 22.1443 107.542 23.6189 108.777 24.8402C110.012 26.0615 111.503 26.6732 113.248 26.6732Z" fill="#5855B3"/>
<path d="M136.602 21.3371L136.592 22.2858H135.302V14.9527H136.633V18.0351C136.934 17.4443 137.551 17.0358 138.377 17.0358C139.832 17.0358 140.753 18.2006 140.753 19.7199C140.753 21.2392 139.835 22.3939 138.357 22.3939C137.48 22.3939 136.882 21.9549 136.602 21.3337V21.3371ZM139.412 19.7233C139.412 18.8657 138.927 18.1702 138.019 18.1702C137.111 18.1702 136.637 18.8657 136.637 19.7233C136.637 20.5808 137.111 21.2628 138.019 21.2628C138.927 21.2628 139.412 20.5774 139.412 19.7233Z" fill="#5855B3"/>
<path d="M146.078 22.2859H144.808L144.798 21.4385C144.559 21.9685 144.043 22.3771 143.269 22.3771C142.163 22.3771 141.514 21.641 141.514 20.5303V17.1507H142.845V20.2129C142.845 20.8037 143.135 21.2021 143.743 21.2021C144.351 21.2021 144.743 20.824 144.743 20.0171V17.1473H146.075V22.2825L146.078 22.2859Z" fill="#5855B3"/>
<path d="M147.205 14.956H148.557V16.3233H147.205V14.956ZM147.216 17.1505H148.547V22.2858H147.216V17.1505Z" fill="#5855B3"/>
<path d="M149.683 14.956H151.014V22.2891H149.683V14.956Z" fill="#5855B3"/>
<path d="M155.084 17.1505V18.2107H153.671V20.3951C153.671 20.9555 153.951 21.1817 154.527 21.1817C154.702 21.1817 154.94 21.1311 155.125 21.0399V22.1001C154.92 22.2621 154.497 22.3465 154.135 22.3465C152.937 22.3465 152.339 21.7118 152.339 20.6821V18.2107H151.636V17.9237L153.268 16.0364H153.671V17.1505H155.084Z" fill="#5855B3"/>
<path d="M159.751 14.9055C160.061 14.9055 160.358 14.9562 160.525 15.0575L160.73 16.1581C160.566 16.0973 160.358 16.0568 160.102 16.0568C159.587 16.0568 159.307 16.2594 159.307 16.7625V17.1507H160.628V18.2109H159.307V22.286H157.976V18.2109H157.119L157.303 17.1507H157.976V16.7523C157.976 15.2702 159.037 14.9055 159.751 14.9055Z" fill="#5855B3"/>
<path d="M166.376 19.7126C166.376 21.2556 165.345 22.4508 163.587 22.4508C161.829 22.4508 160.798 21.2556 160.798 19.7126C160.798 18.1697 161.829 16.988 163.587 16.988C165.345 16.988 166.376 18.1832 166.376 19.7126ZM162.143 19.7126C162.143 20.5601 162.638 21.3062 163.587 21.3062C164.536 21.3062 165.031 20.5601 165.031 19.7126C165.031 18.8652 164.536 18.1292 163.587 18.1292C162.638 18.1292 162.143 18.8652 162.143 19.7126Z" fill="#5855B3"/>
<path d="M169.599 18.4579C168.967 18.4579 168.534 18.7854 168.534 19.7443V22.2866H167.202V17.1513H168.462L168.472 18.2655C168.701 17.5902 169.124 17.0703 169.865 17.0703C170.104 17.0703 170.34 17.1513 170.486 17.3066L170.237 18.6234C170.063 18.5221 169.824 18.4613 169.599 18.4613V18.4579Z" fill="#5855B3"/>
<path d="M137.698 28.957C137.067 28.957 136.633 29.2845 136.633 30.2434V32.7857H135.302V27.6504H136.561L136.572 28.7646C136.8 28.0894 137.224 27.5694 137.964 27.5694C138.203 27.5694 138.439 27.6504 138.586 27.8058L138.336 29.1225C138.162 29.0212 137.923 28.9604 137.698 28.9604V28.957Z" fill="#5855B3"/>
<path d="M141.805 32.9176C139.76 32.9176 138.74 31.773 138.74 30.2031C138.74 28.7648 139.689 27.519 141.371 27.519C142.836 27.519 143.693 28.704 143.693 30.0815C143.693 30.2638 143.682 30.5204 143.652 30.6825H140.122C140.286 31.4084 140.877 31.8068 141.948 31.8068C142.525 31.8068 143.116 31.6346 143.454 31.3881V32.5428C143.082 32.7893 142.358 32.9209 141.802 32.9209L141.805 32.9176ZM141.32 28.6196C140.648 28.6196 140.214 29.0585 140.102 29.7642H142.392C142.31 29.0687 141.918 28.6196 141.317 28.6196H141.32Z" fill="#5855B3"/>
<path d="M147.68 29.0179C147.287 28.7411 146.802 28.6398 146.43 28.6398C145.894 28.6398 145.635 28.8018 145.635 29.0787C145.635 29.2813 145.727 29.3859 146.12 29.5378L146.946 29.8653C147.7 30.1624 148.113 30.5305 148.113 31.2732C148.113 32.303 147.297 32.9276 146.038 32.9276C145.461 32.9276 144.768 32.7858 144.437 32.4785V31.2935C145.014 31.7121 145.584 31.8236 146.048 31.8236C146.553 31.8236 146.813 31.6615 146.813 31.3644C146.813 31.1382 146.68 31.0571 146.287 30.9052L145.44 30.5777C144.758 30.3144 144.324 29.9329 144.324 29.1496C144.324 28.1907 145.14 27.5256 146.533 27.5256C147.069 27.5256 147.629 27.6573 147.967 27.9038L147.676 29.0179H147.68Z" fill="#5855B3"/>
<path d="M151.85 27.6503V28.7104H150.437V30.8948C150.437 31.4553 150.717 31.6815 151.294 31.6815C151.468 31.6815 151.707 31.6309 151.891 31.5397V32.5998C151.686 32.7619 151.263 32.8463 150.901 32.8463C149.703 32.8463 149.106 32.2116 149.106 31.1818V28.7104H148.402V28.4234L150.034 26.5361H150.437V27.6503H151.85Z" fill="#5855B3"/>
<path d="M156.64 32.7859H155.391L155.381 31.9284C155.142 32.5192 154.688 32.8669 154.009 32.8669C152.988 32.8669 152.346 32.1613 152.346 31.3341C152.346 29.9263 153.606 29.7406 154.647 29.6494L155.33 29.5886V29.4772C155.33 28.9573 154.824 28.6804 154.101 28.6804C153.555 28.6804 153.029 28.8222 152.52 29.0991L152.841 27.8938C153.346 27.6372 153.893 27.5561 154.401 27.5561C155.61 27.5561 156.64 28.1166 156.64 29.4435V32.7859ZM154.442 31.8271C154.917 31.8271 155.33 31.4388 155.33 30.8075V30.4496L154.596 30.5205C153.978 30.5812 153.677 30.7636 153.677 31.1856C153.677 31.5435 153.916 31.8304 154.442 31.8304V31.8271Z" fill="#5855B3"/>
<path d="M162.183 32.7863H160.913L160.903 31.9389C160.664 32.469 160.149 32.8775 159.374 32.8775C158.268 32.8775 157.619 32.1415 157.619 31.0307V27.6511H158.951V30.7133C158.951 31.3042 159.241 31.7026 159.848 31.7026C160.456 31.7026 160.849 31.3244 160.849 30.5175V27.6477H162.18V32.783L162.183 32.7863Z" fill="#5855B3"/>
<path d="M165.716 28.957C165.085 28.957 164.651 29.2845 164.651 30.2434V32.7857H163.32V27.6504H164.58L164.59 28.7646C164.819 28.0894 165.242 27.5694 165.983 27.5694C166.222 27.5694 166.457 27.6504 166.604 27.8058L166.355 29.1225C166.181 29.0212 165.942 28.9604 165.716 28.9604V28.957Z" fill="#5855B3"/>
<path d="M171.012 32.7859H169.762L169.752 31.9284C169.513 32.5192 169.059 32.8669 168.38 32.8669C167.359 32.8669 166.717 32.1613 166.717 31.3341C166.717 29.9263 167.977 29.7406 169.018 29.6494L169.701 29.5886V29.4772C169.701 28.9573 169.196 28.6804 168.472 28.6804C167.926 28.6804 167.4 28.8222 166.891 29.0991L167.212 27.8938C167.718 27.6372 168.264 27.5561 168.772 27.5561C169.981 27.5561 171.012 28.1166 171.012 29.4435V32.7859ZM168.813 31.8271C169.288 31.8271 169.701 31.4388 169.701 30.8075V30.4496L168.967 30.5205C168.349 30.5812 168.049 30.7636 168.049 31.1856C168.049 31.5435 168.288 31.8304 168.813 31.8304V31.8271Z" fill="#5855B3"/>
<path d="M174.398 28.731C173.756 28.731 173.387 29.1395 173.387 29.8958V32.7859H172.056V27.6506H173.346L173.357 28.4879C173.637 27.9072 174.183 27.5595 174.906 27.5595C175.992 27.5595 176.641 28.2955 176.641 29.4063V32.7859H175.309V29.7439C175.309 29.1429 175.019 28.7344 174.401 28.7344L174.398 28.731Z" fill="#5855B3"/>
<path d="M180.645 27.6503V28.7104H179.231V30.8948C179.231 31.4553 179.511 31.6815 180.088 31.6815C180.262 31.6815 180.501 31.6309 180.686 31.5397V32.5998C180.481 32.7619 180.057 32.8463 179.696 32.8463C178.497 32.8463 177.9 32.2116 177.9 31.1818V28.7104H177.197V28.4234L178.829 26.5361H179.231V27.6503H180.645Z" fill="#5855B3"/>
<path d="M184.566 29.0179C184.174 28.7411 183.689 28.6398 183.317 28.6398C182.781 28.6398 182.522 28.8018 182.522 29.0787C182.522 29.2813 182.614 29.3859 183.006 29.5378L183.833 29.8653C184.587 30.1624 185 30.5305 185 31.2732C185 32.303 184.184 32.9276 182.925 32.9276C182.348 32.9276 181.655 32.7858 181.324 32.4785V31.2935C181.9 31.7121 182.471 31.8236 182.935 31.8236C183.44 31.8236 183.699 31.6615 183.699 31.3644C183.699 31.1382 183.566 31.0571 183.174 30.9052L182.327 30.5777C181.644 30.3144 181.211 29.9329 181.211 29.1496C181.211 28.1907 182.027 27.5256 183.419 27.5256C183.955 27.5256 184.515 27.6573 184.853 27.9038L184.563 29.0179H184.566Z" fill="#5855B3"/>
<path d="M131.99 14.0008H130.891V32.928H131.99V14.0008Z" fill="#5855B3"/>
<path d="M0.00208233 20.5708C1.64921 28.7966 8.98318 35 17.7852 35C27.8012 35 35.9181 26.9698 35.9181 17.0654C35.9181 9.56249 31.262 3.13875 24.6506 0.465458C29.2443 3.41885 32.2803 8.53889 32.2803 14.3612C32.2803 23.5098 24.7818 30.9241 15.5321 30.9241C8.50424 30.9241 2.48422 26.6403 0 20.5708H0.00208233Z" fill="#5855B3"/>
<path d="M1.19946 16.5588C2.46344 22.9784 8.18152 27.8245 15.0428 27.8245C22.8328 27.8245 29.1464 21.5779 29.1464 13.8752C29.1444 6.65235 23.5929 0.710545 16.4775 0C21.1961 1.68677 24.5674 6.156 24.5674 11.4058C24.5674 18.1055 19.0763 23.5365 12.3025 23.5365C7.39023 23.5365 3.15685 20.682 1.19946 16.5588Z" fill="#5855B3"/>
<path d="M2.15942 10.9012C2.15942 15.2674 5.05802 18.9643 9.05402 20.2165C7.05498 18.6513 5.77434 16.2251 5.77434 13.5086C5.77434 8.77986 9.64748 4.9491 14.4285 4.9491C17.4708 4.9491 20.1466 6.502 21.6917 8.85195C20.738 4.44039 16.7753 1.13687 12.0338 1.13687C6.58021 1.13687 2.15942 5.50724 2.15942 10.9012Z" fill="#5855B3"/>
</svg>
