<svg width="170" height="32" viewBox="0 0 170 32" fill="none" xmlns="http://www.w3.org/2000/svg">
<path d="M42.8106 10.0895V1.51042H48.6219V10.0895H54.4332V15.8082H48.6219V18.6685C48.6219 20.2464 49.1902 21.5947 50.3249 22.7113C51.4596 23.8279 52.8297 24.3872 54.4332 24.3872V30.1059C52.889 30.1059 51.406 29.8159 49.9843 29.2341C48.5607 28.6541 47.3054 27.8275 46.2167 26.7542C45.1279 25.6808 44.2879 24.4456 43.6966 23.0446C43.1072 21.6455 42.8106 20.1843 42.8106 18.6666V15.8063H39.904V10.0876H42.8106V10.0895Z" fill="white"/>
<path d="M62.2211 30.1059H56.4098V18.6685C56.4098 17.1489 56.7045 15.6895 57.2958 14.2905C57.8851 12.8914 58.7252 11.6542 59.8159 10.5809C60.9046 9.50948 62.1618 8.68284 63.5835 8.10099C65.0052 7.52102 66.4901 7.22915 68.0324 7.22915V12.9479C66.4289 12.9479 65.0588 13.5071 63.9241 14.6238C62.7894 15.7404 62.2211 17.0886 62.2211 18.6666V30.1059Z" fill="white"/>
<path d="M79.7736 30.1059C78.2294 30.1059 76.7465 29.8159 75.3247 29.2341C73.9011 28.6541 72.6458 27.8275 71.5571 26.7542C70.4683 25.6808 69.6283 24.4456 69.037 23.0446C68.4476 21.6455 68.151 20.1843 68.151 18.6666C68.151 17.1489 68.4457 15.6877 69.037 14.2886C69.6263 12.8895 70.4664 11.6524 71.5571 10.579C72.6458 9.5076 73.903 8.68095 75.3247 8.0991C76.7465 7.51913 78.2313 7.22727 79.7736 7.22727C81.3159 7.22727 82.8008 7.51725 84.2225 8.0991C85.6442 8.67907 86.9014 9.50572 87.9901 10.579C89.0789 11.6524 89.9189 12.8876 90.5102 14.2886C91.0996 15.6895 91.3962 17.1489 91.3962 18.6666C91.3962 20.1843 91.1015 21.6455 90.5102 23.0446C89.9209 24.4456 89.0808 25.6808 87.9901 26.7542C86.9014 27.8256 85.6442 28.6522 84.2225 29.2341C82.7988 29.8141 81.3159 30.1059 79.7736 30.1059ZM79.7736 24.3872C81.3771 24.3872 82.7472 23.8279 83.8819 22.7113C85.0166 21.5947 85.5849 20.2464 85.5849 18.6685C85.5849 17.0905 85.0166 15.7423 83.8819 14.6256C82.7472 13.509 81.3771 12.9498 79.7736 12.9498C78.1701 12.9498 76.8 13.509 75.6653 14.6256C74.5306 15.7423 73.9623 17.0905 73.9623 18.6685C73.9623 20.2464 74.5306 21.5947 75.6653 22.7113C76.8 23.8279 78.1701 24.3872 79.7736 24.3872Z" fill="white"/>
<path d="M104.065 30.1059C102.521 30.1059 101.038 29.8159 99.6165 29.2341C98.1929 28.6541 96.9376 27.8275 95.8489 26.7542C94.7601 25.6808 93.9201 24.4456 93.3288 23.0446C92.7394 21.6455 92.4428 20.1843 92.4428 18.6666C92.4428 17.1489 92.7375 15.6877 93.3288 14.2886C93.9181 12.8895 94.7582 11.6524 95.8489 10.579C96.9376 9.5076 98.1948 8.68095 99.6165 8.0991C101.038 7.51913 102.523 7.22727 104.065 7.22727C105.608 7.22727 107.093 7.51725 108.514 8.0991C109.936 8.67907 111.193 9.50572 112.282 10.579C113.371 11.6524 114.211 12.8876 114.802 14.2886C115.391 15.6895 115.688 17.1489 115.688 18.6666C115.688 20.1843 115.393 21.6455 114.802 23.0446C114.213 24.4456 113.373 25.6808 112.282 26.7542C111.193 27.8256 109.936 28.6522 108.514 29.2341C107.091 29.8141 105.608 30.1059 104.065 30.1059ZM104.065 24.3872C105.669 24.3872 107.039 23.8279 108.174 22.7113C109.308 21.5947 109.877 20.2464 109.877 18.6685C109.877 17.0905 109.308 15.7423 108.174 14.6256C107.039 13.509 105.669 12.9498 104.065 12.9498C102.462 12.9498 101.092 13.509 99.9571 14.6256C98.8224 15.7423 98.2541 17.0905 98.2541 18.6685C98.2541 20.2464 98.8224 21.5947 99.9571 22.7113C101.092 23.8279 102.462 24.3872 104.065 24.3872Z" fill="white"/>
<path d="M125.527 19.5085L125.517 20.3759H124.331V13.6712H125.555V16.4895C125.831 15.9493 126.399 15.5758 127.158 15.5758C128.494 15.5758 129.341 16.6408 129.341 18.0299C129.341 19.4189 128.497 20.4746 127.139 20.4746C126.333 20.4746 125.784 20.0733 125.527 19.5054V19.5085ZM128.108 18.0329C128.108 17.2489 127.663 16.613 126.828 16.613C125.994 16.613 125.558 17.2489 125.558 18.0329C125.558 18.817 125.994 19.4405 126.828 19.4405C127.663 19.4405 128.108 18.8139 128.108 18.0329Z" fill="white"/>
<path d="M134.234 20.3759H133.067L133.057 19.6011C132.838 20.0858 132.364 20.4593 131.652 20.4593C130.636 20.4593 130.04 19.7863 130.04 18.7708V15.6809H131.263V18.4806C131.263 19.0208 131.53 19.3851 132.088 19.3851C132.647 19.3851 133.007 19.0393 133.007 18.3016V15.6778H134.231V20.3728L134.234 20.3759Z" fill="white"/>
<path d="M135.27 13.6743H136.512V14.9244H135.27V13.6743ZM135.279 15.6807H136.503V20.3758H135.279V15.6807Z" fill="white"/>
<path d="M137.547 13.6743H138.77V20.3789H137.547V13.6743Z" fill="white"/>
<path d="M142.509 15.6807V16.65H141.211V18.6472C141.211 19.1596 141.468 19.3664 141.998 19.3664C142.158 19.3664 142.378 19.3201 142.547 19.2368V20.206C142.359 20.3542 141.97 20.4314 141.637 20.4314C140.536 20.4314 139.988 19.851 139.988 18.9096V16.65H139.341V16.3876L140.841 14.6621H141.211V15.6807H142.509Z" fill="white"/>
<path d="M146.798 13.6282C147.083 13.6282 147.356 13.6745 147.51 13.7671L147.698 14.7734C147.548 14.7178 147.356 14.6808 147.121 14.6808C146.647 14.6808 146.39 14.866 146.39 15.3259V15.6809H147.604V16.6502H146.39V20.376H145.167V16.6502H144.379L144.549 15.6809H145.167V15.3167C145.167 13.9615 146.142 13.6282 146.798 13.6282Z" fill="white"/>
<path d="M152.886 18.0232C152.886 19.4339 151.939 20.5266 150.323 20.5266C148.708 20.5266 147.761 19.4339 147.761 18.0232C147.761 16.6125 148.708 15.5321 150.323 15.5321C151.939 15.5321 152.886 16.6249 152.886 18.0232ZM148.997 18.0232C148.997 18.798 149.451 19.4802 150.323 19.4802C151.195 19.4802 151.65 18.798 151.65 18.0232C151.65 17.2484 151.195 16.5755 150.323 16.5755C149.451 16.5755 148.997 17.2484 148.997 18.0232Z" fill="white"/>
<path d="M155.848 16.8761C155.267 16.8761 154.869 17.1755 154.869 18.0522V20.3765H153.645V15.6815H154.803L154.812 16.7001C155.023 16.0828 155.411 15.6074 156.092 15.6074C156.312 15.6074 156.528 15.6815 156.663 15.8235L156.434 17.0273C156.274 16.9347 156.055 16.8792 155.848 16.8792V16.8761Z" fill="white"/>
<path d="M126.533 26.4753C125.953 26.4753 125.555 26.7747 125.555 27.6513V29.9757H124.331V25.2807H125.489L125.498 26.2993C125.708 25.6819 126.097 25.2066 126.778 25.2066C126.998 25.2066 127.214 25.2807 127.349 25.4226L127.12 26.6265C126.96 26.5339 126.74 26.4783 126.533 26.4783V26.4753Z" fill="white"/>
<path d="M130.307 30.0963C128.428 30.0963 127.49 29.0499 127.49 27.6145C127.49 26.2995 128.362 25.1605 129.909 25.1605C131.255 25.1605 132.042 26.2439 132.042 27.5034C132.042 27.67 132.033 27.9046 132.004 28.0528H128.761C128.911 28.7165 129.454 29.0807 130.439 29.0807C130.969 29.0807 131.512 28.9233 131.822 28.698V29.7537C131.48 29.979 130.815 30.0994 130.304 30.0994L130.307 30.0963ZM129.862 26.1668C129.244 26.1668 128.846 26.568 128.742 27.2132H130.847C130.772 26.5773 130.411 26.1668 129.859 26.1668H129.862Z" fill="white"/>
<path d="M135.706 26.5309C135.345 26.2778 134.9 26.1852 134.558 26.1852C134.065 26.1852 133.827 26.3333 133.827 26.5865C133.827 26.7717 133.911 26.8674 134.272 27.0063L135.031 27.3057C135.725 27.5773 136.104 27.9138 136.104 28.5929C136.104 29.5344 135.354 30.1055 134.197 30.1055C133.667 30.1055 133.03 29.9758 132.726 29.6949V28.6114C133.256 28.9942 133.78 29.0961 134.206 29.0961C134.671 29.0961 134.909 28.9479 134.909 28.6763C134.909 28.4694 134.787 28.3954 134.426 28.2564L133.648 27.957C133.021 27.7162 132.622 27.3674 132.622 26.6513C132.622 25.7746 133.372 25.1665 134.652 25.1665C135.144 25.1665 135.659 25.2869 135.969 25.5122L135.703 26.5309H135.706Z" fill="white"/>
<path d="M139.538 25.2805V26.2498H138.239V28.247C138.239 28.7594 138.497 28.9662 139.027 28.9662C139.187 28.9662 139.406 28.9199 139.576 28.8365V29.8058C139.387 29.954 138.998 30.0312 138.666 30.0312C137.565 30.0312 137.016 29.4508 137.016 28.5093V26.2498H136.37V25.9874L137.869 24.2619H138.239V25.2805H139.538Z" fill="white"/>
<path d="M143.94 29.9759H142.792L142.782 29.1919C142.563 29.7321 142.146 30.05 141.521 30.05C140.583 30.05 139.994 29.4049 139.994 28.6486C139.994 27.3614 141.151 27.1916 142.108 27.1083L142.735 27.0527V26.9508C142.735 26.4755 142.271 26.2223 141.606 26.2223C141.104 26.2223 140.621 26.352 140.154 26.6051L140.449 25.5031C140.913 25.2685 141.415 25.1944 141.882 25.1944C142.993 25.1944 143.94 25.7068 143.94 26.92V29.9759ZM141.92 29.0993C142.356 29.0993 142.735 28.7443 142.735 28.1671V27.8398L142.061 27.9047C141.493 27.9602 141.217 28.1269 141.217 28.5128C141.217 28.84 141.437 29.1024 141.92 29.1024V29.0993Z" fill="white"/>
<path d="M149.033 29.9763H147.866L147.857 29.2015C147.637 29.6862 147.164 30.0597 146.452 30.0597C145.435 30.0597 144.839 29.3867 144.839 28.3712V25.2812H146.063V28.081C146.063 28.6212 146.329 28.9855 146.888 28.9855C147.446 28.9855 147.807 28.6397 147.807 27.902V25.2782H149.03V29.9732L149.033 29.9763Z" fill="white"/>
<path d="M152.28 26.4753C151.7 26.4753 151.301 26.7747 151.301 27.6513V29.9757H150.078V25.2807H151.235L151.245 26.2993C151.455 25.6819 151.844 25.2066 152.525 25.2066C152.744 25.2066 152.961 25.2807 153.096 25.4226L152.867 26.6265C152.707 26.5339 152.487 26.4783 152.28 26.4783V26.4753Z" fill="white"/>
<path d="M157.146 29.9759H155.998L155.988 29.1919C155.769 29.7321 155.352 30.05 154.727 30.05C153.789 30.05 153.2 29.4049 153.2 28.6486C153.2 27.3614 154.357 27.1916 155.314 27.1083L155.941 27.0527V26.9508C155.941 26.4755 155.477 26.2223 154.812 26.2223C154.31 26.2223 153.827 26.352 153.36 26.6051L153.655 25.5031C154.119 25.2685 154.621 25.1944 155.088 25.1944C156.199 25.1944 157.146 25.7068 157.146 26.92V29.9759ZM155.126 29.0993C155.562 29.0993 155.941 28.7443 155.941 28.1671V27.8398L155.267 27.9047C154.699 27.9602 154.423 28.1269 154.423 28.5128C154.423 28.84 154.643 29.1024 155.126 29.1024V29.0993Z" fill="white"/>
<path d="M160.257 26.2686C159.668 26.2686 159.329 26.6421 159.329 27.3336V29.9759H158.106V25.2808H159.291L159.301 26.0463C159.558 25.5154 160.06 25.1975 160.725 25.1975C161.722 25.1975 162.318 25.8704 162.318 26.886V29.9759H161.095V27.1946C161.095 26.6452 160.828 26.2717 160.261 26.2717L160.257 26.2686Z" fill="white"/>
<path d="M165.998 25.2805V26.2498H164.699V28.247C164.699 28.7594 164.956 28.9662 165.486 28.9662C165.646 28.9662 165.866 28.9199 166.035 28.8365V29.8058C165.847 29.954 165.458 30.0312 165.126 30.0312C164.025 30.0312 163.476 29.4508 163.476 28.5093V26.2498H162.83V25.9874L164.329 24.2619H164.699V25.2805H165.998Z" fill="white"/>
<path d="M169.602 26.5309C169.241 26.2778 168.795 26.1852 168.454 26.1852C167.961 26.1852 167.723 26.3333 167.723 26.5865C167.723 26.7717 167.807 26.8674 168.168 27.0063L168.927 27.3057C169.62 27.5773 170 27.9138 170 28.5929C170 29.5344 169.25 30.1055 168.093 30.1055C167.563 30.1055 166.926 29.9758 166.622 29.6949V28.6114C167.152 28.9942 167.676 29.0961 168.102 29.0961C168.566 29.0961 168.805 28.9479 168.805 28.6763C168.805 28.4694 168.683 28.3954 168.322 28.2564L167.544 27.957C166.917 27.7162 166.518 27.3674 166.518 26.6513C166.518 25.7746 167.268 25.1665 168.548 25.1665C169.04 25.1665 169.555 25.2869 169.865 25.5122L169.598 26.5309H169.602Z" fill="white"/>
<path d="M121.288 12.801H120.278V30.1058H121.288V12.801Z" fill="white"/>
<path d="M0.00191349 18.8078C1.51549 26.3286 8.25482 32.0002 16.3432 32.0002C25.5471 32.0002 33.0059 24.6584 33.0059 15.6029C33.0059 8.74309 28.7273 2.86996 22.6519 0.425806C26.8731 3.12605 29.663 7.80723 29.663 13.1305C29.663 21.4949 22.7725 28.2738 14.2728 28.2738C7.81471 28.2738 2.2828 24.3571 0 18.8078H0.00191349Z" fill="white"/>
<path d="M1.10221 15.1397C2.2637 21.0091 7.51815 25.4398 13.8231 25.4398C20.9815 25.4398 26.7832 19.7286 26.7832 12.6861C26.7813 6.08239 21.6799 0.649885 15.1415 0.000244141C19.4775 1.54244 22.5754 5.62858 22.5754 10.4284C22.5754 16.5539 17.5296 21.5194 11.305 21.5194C6.79103 21.5194 2.90089 18.9095 1.10221 15.1397Z" fill="white"/>
<path d="M1.98433 9.96706C1.98433 13.9591 4.64791 17.3391 8.31991 18.4839C6.48295 17.0529 5.30615 14.8347 5.30615 12.351C5.30615 8.02755 8.86525 4.52514 13.2586 4.52514C16.0542 4.52514 18.5131 5.94493 19.9329 8.09345C19.0565 4.06003 15.4151 1.03967 11.0581 1.03967C6.04668 1.03967 1.98433 5.03543 1.98433 9.96706Z" fill="white"/>
</svg>
