<svg width="140" height="27" viewBox="0 0 140 27" fill="none" xmlns="http://www.w3.org/2000/svg">
<path d="M35.2558 8.51277V1.27421H40.0416V8.51277H44.8273V13.3379H40.0416V15.7513C40.0416 17.0827 40.5096 18.2203 41.4441 19.1625C42.3785 20.1046 43.5068 20.5765 44.8273 20.5765V25.4017C43.5557 25.4017 42.3344 25.157 41.1636 24.6661C39.9911 24.1767 38.9574 23.4792 38.0608 22.5736C37.1641 21.668 36.4724 20.6258 35.9854 19.4437C35.5001 18.2632 35.2558 17.0303 35.2558 15.7497V13.3364H32.8621V8.51118H35.2558V8.51277Z" fill="white"/>
<path d="M51.2409 25.4017H46.4552V15.7513C46.4552 14.4692 46.6978 13.2378 47.1848 12.0574C47.6701 10.8769 48.3619 9.83306 49.2601 8.92744C50.1568 8.02342 51.1921 7.32594 52.3629 6.835C53.5337 6.34565 54.7566 6.09939 56.0267 6.09939V10.9246C54.7062 10.9246 53.5779 11.3964 52.6434 12.3386C51.7089 13.2807 51.2409 14.4183 51.2409 15.7497V25.4017Z" fill="white"/>
<path d="M65.6959 25.4017C64.4242 25.4017 63.203 25.157 62.0321 24.6661C60.8597 24.1767 59.826 23.4792 58.9293 22.5736C58.0327 21.668 57.3409 20.6258 56.854 19.4437C56.3686 18.2632 56.1244 17.0303 56.1244 15.7497C56.1244 14.4692 56.3671 13.2363 56.854 12.0558C57.3393 10.8753 58.0311 9.83147 58.9293 8.92586C59.826 8.02183 60.8613 7.32435 62.0321 6.83341C63.203 6.34406 64.4258 6.0978 65.6959 6.0978C66.966 6.0978 68.1889 6.34247 69.3597 6.83341C70.5305 7.32276 71.5658 8.02024 72.4625 8.92586C73.3591 9.83147 74.0509 10.8737 74.5378 12.0558C75.0232 13.2378 75.2674 14.4692 75.2674 15.7497C75.2674 17.0303 75.0247 18.2632 74.5378 19.4437C74.0525 20.6258 73.3607 21.668 72.4625 22.5736C71.5658 23.4776 70.5305 24.1751 69.3597 24.6661C68.1873 25.1554 66.966 25.4017 65.6959 25.4017ZM65.6959 20.5765C67.0164 20.5765 68.1447 20.1046 69.0792 19.1625C70.0136 18.2203 70.4817 17.0827 70.4817 15.7513C70.4817 14.4199 70.0136 13.2823 69.0792 12.3402C68.1447 11.398 67.0164 10.9262 65.6959 10.9262C64.3754 10.9262 63.2471 11.398 62.3126 12.3402C61.3782 13.2823 60.9101 14.4199 60.9101 15.7513C60.9101 17.0827 61.3782 18.2203 62.3126 19.1625C63.2471 20.1046 64.3754 20.5765 65.6959 20.5765Z" fill="white"/>
<path d="M85.7009 25.4017C84.4292 25.4017 83.208 25.157 82.0371 24.6661C80.8647 24.1767 79.831 23.4792 78.9344 22.5736C78.0377 21.668 77.3459 20.6258 76.859 19.4437C76.3736 18.2632 76.1294 17.0303 76.1294 15.7497C76.1294 14.4692 76.3721 13.2363 76.859 12.0558C77.3444 10.8753 78.0361 9.83147 78.9344 8.92586C79.831 8.02183 80.8663 7.32435 82.0371 6.83341C83.208 6.34406 84.4308 6.0978 85.7009 6.0978C86.971 6.0978 88.1939 6.34247 89.3647 6.83341C90.5355 7.32276 91.5708 8.02024 92.4675 8.92586C93.3641 9.83147 94.0559 10.8737 94.5428 12.0558C95.0282 13.2378 95.2724 14.4692 95.2724 15.7497C95.2724 17.0303 95.0298 18.2632 94.5428 19.4437C94.0575 20.6258 93.3657 21.668 92.4675 22.5736C91.5708 23.4776 90.5355 24.1751 89.3647 24.6661C88.1923 25.1554 86.971 25.4017 85.7009 25.4017ZM85.7009 20.5765C87.0215 20.5765 88.1497 20.1046 89.0842 19.1625C90.0187 18.2203 90.4867 17.0827 90.4867 15.7513C90.4867 14.4199 90.0187 13.2823 89.0842 12.3402C88.1497 11.398 87.0215 10.9262 85.7009 10.9262C84.3804 10.9262 83.2521 11.398 82.3176 12.3402C81.3832 13.2823 80.9152 14.4199 80.9152 15.7513C80.9152 17.0827 81.3832 18.2203 82.3176 19.1625C83.2521 20.1046 84.3804 20.5765 85.7009 20.5765Z" fill="white"/>
<path d="M103.375 16.46L103.367 17.1919H102.391V11.5349H103.398V13.9128C103.625 13.457 104.093 13.1419 104.718 13.1419C105.819 13.1419 106.516 14.0405 106.516 15.2125C106.516 16.3845 105.821 17.2753 104.703 17.2753C104.039 17.2753 103.587 16.9367 103.375 16.4574V16.46ZM105.501 15.2151C105.501 14.5535 105.134 14.017 104.447 14.017C103.76 14.017 103.401 14.5535 103.401 15.2151C103.401 15.8766 103.76 16.4028 104.447 16.4028C105.134 16.4028 105.501 15.874 105.501 15.2151Z" fill="white"/>
<path d="M110.545 17.192H109.585L109.577 16.5383C109.396 16.9472 109.006 17.2623 108.419 17.2623C107.583 17.2623 107.092 16.6945 107.092 15.8376V13.2305H108.099V15.5928C108.099 16.0486 108.319 16.3559 108.779 16.3559C109.238 16.3559 109.535 16.0642 109.535 15.4417V13.2279H110.543V17.1894L110.545 17.192Z" fill="white"/>
<path d="M111.399 11.5375H112.422V12.5923H111.399V11.5375ZM111.406 13.2304H112.414V17.1919H111.406V13.2304Z" fill="white"/>
<path d="M113.274 11.5375H114.281V17.1945H113.274V11.5375Z" fill="white"/>
<path d="M117.361 13.2304V14.0482H116.291V15.7333C116.291 16.1657 116.503 16.3402 116.94 16.3402C117.071 16.3402 117.252 16.3011 117.392 16.2308V17.0486C117.237 17.1736 116.916 17.2388 116.643 17.2388C115.736 17.2388 115.284 16.7491 115.284 15.9547V14.0482H114.752V13.8268L115.986 12.3709H116.291V13.2304H117.361Z" fill="white"/>
<path d="M120.892 11.4986C121.127 11.4986 121.352 11.5376 121.479 11.6158L121.634 12.4648C121.51 12.418 121.352 12.3867 121.158 12.3867C120.768 12.3867 120.557 12.543 120.557 12.931V13.2306H121.556V14.0484H120.557V17.192H119.549V14.0484H118.901L119.04 13.2306H119.549V12.9232C119.549 11.7798 120.352 11.4986 120.892 11.4986Z" fill="white"/>
<path d="M125.906 15.2069C125.906 16.3972 125.126 17.3192 123.796 17.3192C122.465 17.3192 121.685 16.3972 121.685 15.2069C121.685 14.0166 122.465 13.105 123.796 13.105C125.126 13.105 125.906 14.027 125.906 15.2069ZM122.703 15.2069C122.703 15.8606 123.078 16.4362 123.796 16.4362C124.514 16.4362 124.888 15.8606 124.888 15.2069C124.888 14.5532 124.514 13.9854 123.796 13.9854C123.078 13.9854 122.703 14.5532 122.703 15.2069Z" fill="white"/>
<path d="M128.345 14.239C127.867 14.239 127.539 14.4916 127.539 15.2313V17.1925H126.532V13.231H127.485L127.493 14.0905C127.666 13.5696 127.986 13.1685 128.546 13.1685C128.727 13.1685 128.906 13.231 129.017 13.3508L128.828 14.3666C128.696 14.2885 128.516 14.2416 128.345 14.2416V14.239Z" fill="white"/>
<path d="M104.204 22.3383C103.726 22.3383 103.398 22.5909 103.398 23.3306V25.2918H102.391V21.3303H103.344L103.352 22.1898C103.525 21.6689 103.845 21.2678 104.406 21.2678C104.586 21.2678 104.765 21.3303 104.876 21.4502L104.687 22.4659C104.555 22.3878 104.375 22.3409 104.204 22.3409V22.3383Z" fill="white"/>
<path d="M107.312 25.3936C105.765 25.3936 104.992 24.5106 104.992 23.2995C104.992 22.19 105.71 21.2289 106.984 21.2289C108.092 21.2289 108.74 22.1431 108.74 23.2058C108.74 23.3464 108.733 23.5443 108.709 23.6694H106.038C106.162 24.2293 106.609 24.5367 107.42 24.5367C107.857 24.5367 108.304 24.4038 108.56 24.2137V25.1045C108.278 25.2946 107.73 25.3962 107.309 25.3962L107.312 25.3936ZM106.945 22.078C106.436 22.078 106.108 22.4166 106.023 22.9609H107.756C107.694 22.4244 107.397 22.078 106.942 22.078H106.945Z" fill="white"/>
<path d="M111.758 22.3852C111.461 22.1717 111.094 22.0935 110.812 22.0935C110.407 22.0935 110.21 22.2186 110.21 22.4321C110.21 22.5884 110.28 22.6691 110.577 22.7863L111.202 23.039C111.773 23.2682 112.086 23.5521 112.086 24.1251C112.086 24.9194 111.468 25.4013 110.515 25.4013C110.079 25.4013 109.554 25.2919 109.304 25.0549V24.1407C109.74 24.4636 110.172 24.5496 110.523 24.5496C110.905 24.5496 111.102 24.4246 111.102 24.1954C111.102 24.0209 111.001 23.9584 110.704 23.8412L110.063 23.5885C109.546 23.3854 109.218 23.0911 109.218 22.4868C109.218 21.7471 109.836 21.234 110.89 21.234C111.295 21.234 111.719 21.3356 111.975 21.5258L111.755 22.3852H111.758Z" fill="white"/>
<path d="M114.914 21.3302V22.148H113.844V23.8332C113.844 24.2655 114.056 24.44 114.493 24.44C114.624 24.44 114.805 24.401 114.945 24.3306V25.1485C114.79 25.2735 114.469 25.3386 114.195 25.3386C113.289 25.3386 112.837 24.8489 112.837 24.0546V22.148H112.305V21.9267L113.539 20.4707H113.844V21.3302H114.914Z" fill="white"/>
<path d="M118.539 25.292H117.593L117.585 24.6304C117.405 25.0862 117.061 25.3545 116.547 25.3545C115.775 25.3545 115.289 24.8102 115.289 24.1721C115.289 23.086 116.242 22.9427 117.03 22.8724L117.547 22.8255V22.7396C117.547 22.3385 117.164 22.1249 116.617 22.1249C116.203 22.1249 115.806 22.2343 115.421 22.4479L115.664 21.518C116.046 21.3201 116.459 21.2576 116.844 21.2576C117.759 21.2576 118.539 21.6899 118.539 22.7135V25.292ZM116.875 24.5523C117.234 24.5523 117.547 24.2528 117.547 23.7657V23.4897L116.991 23.5444C116.524 23.5912 116.296 23.7319 116.296 24.0575C116.296 24.3335 116.477 24.5549 116.875 24.5549V24.5523Z" fill="white"/>
<path d="M122.733 25.2923H121.772L121.765 24.6386C121.584 25.0475 121.194 25.3626 120.607 25.3626C119.77 25.3626 119.28 24.7949 119.28 23.938V21.3308H120.287V23.6931C120.287 24.1489 120.507 24.4563 120.966 24.4563C121.426 24.4563 121.723 24.1646 121.723 23.5421V21.3282H122.731V25.2897L122.733 25.2923Z" fill="white"/>
<path d="M125.407 22.3383C124.929 22.3383 124.601 22.5909 124.601 23.3306V25.2918H123.594V21.3303H124.547L124.555 22.1898C124.728 21.6689 125.048 21.2678 125.609 21.2678C125.789 21.2678 125.968 21.3303 126.079 21.4502L125.89 22.4659C125.758 22.3878 125.578 22.3409 125.407 22.3409V22.3383Z" fill="white"/>
<path d="M129.414 25.292H128.469L128.461 24.6304C128.28 25.0862 127.937 25.3545 127.423 25.3545C126.65 25.3545 126.165 24.8102 126.165 24.1721C126.165 23.086 127.118 22.9427 127.906 22.8724L128.422 22.8255V22.7396C128.422 22.3385 128.04 22.1249 127.492 22.1249C127.079 22.1249 126.681 22.2343 126.296 22.4479L126.539 21.518C126.921 21.3201 127.335 21.2576 127.72 21.2576C128.634 21.2576 129.414 21.6899 129.414 22.7135V25.292ZM127.751 24.5523C128.11 24.5523 128.422 24.2528 128.422 23.7657V23.4897L127.867 23.5444C127.399 23.5912 127.172 23.7319 127.172 24.0575C127.172 24.3335 127.353 24.5549 127.751 24.5549V24.5523Z" fill="white"/>
<path d="M131.977 22.1639C131.491 22.1639 131.212 22.4791 131.212 23.0625V25.292H130.205V21.3305H131.181L131.189 21.9764C131.401 21.5284 131.814 21.2602 132.362 21.2602C133.183 21.2602 133.674 21.8279 133.674 22.6848V25.292H132.666V22.9453C132.666 22.4817 132.447 22.1665 131.979 22.1665L131.977 22.1639Z" fill="white"/>
<path d="M136.704 21.3302V22.148H135.635V23.8332C135.635 24.2655 135.846 24.44 136.283 24.44C136.415 24.44 136.596 24.401 136.735 24.3306V25.1485C136.58 25.2735 136.26 25.3386 135.986 25.3386C135.079 25.3386 134.627 24.8489 134.627 24.0546V22.148H134.095V21.9267L135.33 20.4707H135.635V21.3302H136.704Z" fill="white"/>
<path d="M139.672 22.3852C139.375 22.1717 139.008 22.0935 138.726 22.0935C138.321 22.0935 138.125 22.2186 138.125 22.4321C138.125 22.5884 138.194 22.6691 138.491 22.7863L139.117 23.039C139.687 23.2682 140 23.5521 140 24.1251C140 24.9194 139.383 25.4013 138.429 25.4013C137.993 25.4013 137.468 25.2919 137.218 25.0549V24.1407C137.654 24.4636 138.086 24.5496 138.437 24.5496C138.819 24.5496 139.016 24.4246 139.016 24.1954C139.016 24.0209 138.915 23.9584 138.618 23.8412L137.977 23.5885C137.461 23.3854 137.133 23.0911 137.133 22.4868C137.133 21.7471 137.75 21.234 138.804 21.234C139.21 21.234 139.633 21.3356 139.889 21.5258L139.669 22.3852H139.672Z" fill="white"/>
<path d="M99.8846 10.8006H99.0528V25.4016H99.8846V10.8006Z" fill="white"/>
<path d="M0.00157582 15.8689C1.24805 22.2145 6.79808 27 13.4591 27C21.0388 27 27.1813 20.8053 27.1813 13.1648C27.1813 7.37678 23.6578 2.42132 18.6545 0.359068C22.1308 2.6374 24.4283 6.58715 24.4283 11.0787C24.4283 18.1361 18.7538 23.8558 11.754 23.8558C6.43564 23.8558 1.87995 20.5511 0 15.8689H0.00157582Z" fill="white"/>
<path d="M0.907701 12.7739C1.86422 17.7262 6.19142 21.4646 11.3837 21.4646C17.2789 21.4646 22.0568 16.6458 22.0568 10.7037C22.0552 5.13181 17.8541 0.548135 12.4695 0C16.0403 1.30122 18.5915 4.74891 18.5915 8.79875C18.5915 13.9671 14.4361 18.1568 9.30997 18.1568C5.59261 18.1568 2.38897 15.9547 0.907701 12.7739Z" fill="white"/>
<path d="M1.63415 8.4095C1.63415 11.7777 3.82769 14.6296 6.85169 15.5956C5.3389 14.3881 4.36977 12.5165 4.36977 10.4209C4.36977 6.77304 7.3008 3.81788 10.9189 3.81788C13.2211 3.81788 15.2461 5.01583 16.4153 6.82864C15.6936 3.42544 12.6948 0.877015 9.10668 0.877015C4.97962 0.877015 1.63415 4.24844 1.63415 8.4095Z" fill="white"/>
</svg>
