<svg width="241" height="46" viewBox="0 0 241 46" fill="none" xmlns="http://www.w3.org/2000/svg">
<g clip-path="url(#clip0_2792_8604)">
<path d="M60.9648 14.4982V2.17017H69.1729V14.4982H77.381V22.7159H69.1729V26.8262C69.1729 29.0937 69.9756 31.0311 71.5783 32.6357C73.181 34.2403 75.1161 35.0439 77.381 35.0439V43.2617C75.1999 43.2617 73.1053 42.845 71.0972 42.0089C69.0864 41.1755 67.3134 39.9876 65.7756 38.4452C64.2378 36.9029 63.0513 35.1278 62.2161 33.1146C61.3837 31.1042 60.9648 29.0044 60.9648 26.8235V22.7132H56.8594V14.4955H60.9648V14.4982Z" fill="#121212"/>
<path d="M88.3819 26.8262V43.2617H80.1738V26.8262C80.1738 24.6425 80.59 22.5455 81.4252 20.535C82.2576 18.5245 83.4441 16.7468 84.9846 15.2044C86.5225 13.6648 88.2982 12.4769 90.3063 11.6408C92.3144 10.8074 94.4117 10.3879 96.59 10.3879V18.6057C94.3252 18.6057 92.39 19.4094 90.7873 21.0139C89.1846 22.6185 88.3819 24.5559 88.3819 26.8235V26.8262Z" fill="#121212"/>
<path d="M113.172 43.2617C110.991 43.2617 108.896 42.845 106.888 42.0089C104.877 41.1755 103.105 39.9876 101.567 38.4453C100.029 36.9029 98.8423 35.1278 98.0072 33.1147C97.1748 31.1042 96.7559 29.0044 96.7559 26.8235C96.7559 24.6425 97.1721 22.5428 98.0072 20.5323C98.8396 18.5218 100.026 16.7441 101.567 15.2017C103.105 13.6621 104.88 12.4742 106.888 11.6381C108.896 10.8047 110.994 10.3853 113.172 10.3853C115.35 10.3853 117.448 10.802 119.456 11.6381C121.464 12.4715 123.24 13.6594 124.777 15.2017C126.315 16.7441 127.502 18.5191 128.337 20.5323C129.169 22.5455 129.588 24.6425 129.588 26.8235C129.588 29.0044 129.172 31.1042 128.337 33.1147C127.505 35.1278 126.318 36.9029 124.777 38.4453C123.24 39.9849 121.464 41.1728 119.456 42.0089C117.445 42.8423 115.35 43.2617 113.172 43.2617ZM113.172 35.044C115.437 35.044 117.372 34.2403 118.975 32.6357C120.577 31.0311 121.38 29.0937 121.38 26.8262C121.38 24.5587 120.577 22.6213 118.975 21.0167C117.372 19.4121 115.437 18.6084 113.172 18.6084C110.907 18.6084 108.972 19.4121 107.369 21.0167C105.767 22.6213 104.964 24.5587 104.964 26.8262C104.964 29.0937 105.767 31.0311 107.369 32.6357C108.972 34.2403 110.907 35.044 113.172 35.044Z" fill="#121212"/>
<path d="M147.485 43.2617C145.303 43.2617 143.209 42.845 141.201 42.0089C139.19 41.1755 137.417 39.9876 135.879 38.4453C134.341 36.9029 133.155 35.1278 132.32 33.1147C131.487 31.1042 131.068 29.0044 131.068 26.8235C131.068 24.6425 131.485 22.5428 132.32 20.5323C133.152 18.5218 134.339 16.7441 135.879 15.2017C137.417 13.6621 139.193 12.4742 141.201 11.6381C143.209 10.8047 145.306 10.3853 147.485 10.3853C149.663 10.3853 151.76 10.802 153.768 11.6381C155.776 12.4715 157.552 13.6594 159.09 15.2017C160.628 16.7441 161.814 18.5191 162.649 20.5323C163.482 22.5455 163.901 24.6425 163.901 26.8235C163.901 29.0044 163.485 31.1042 162.649 33.1147C161.817 35.1278 160.631 36.9029 159.09 38.4453C157.552 39.9849 155.776 41.1728 153.768 42.0089C151.758 42.8423 149.663 43.2617 147.485 43.2617ZM147.485 35.044C149.749 35.044 151.685 34.2403 153.287 32.6357C154.89 31.0311 155.693 29.0937 155.693 26.8262C155.693 24.5587 154.89 22.6213 153.287 21.0167C151.685 19.4121 149.749 18.6084 147.485 18.6084C145.22 18.6084 143.285 19.4121 141.682 21.0167C140.079 22.6213 139.276 24.5587 139.276 26.8262C139.276 29.0937 140.079 31.0311 141.682 32.6357C143.285 34.2403 145.22 35.044 147.485 35.044Z" fill="#121212"/>
<path d="M177.797 28.0348L177.783 29.2816H176.107V19.6501H177.836V23.7012C178.224 22.9242 179.028 22.3873 180.101 22.3873C181.988 22.3873 183.184 23.9166 183.184 25.9157C183.184 27.9147 181.992 29.4299 180.076 29.4299C178.937 29.4299 178.161 28.8542 177.797 28.0348ZM181.441 25.9157C181.441 24.789 180.813 23.8778 179.632 23.8778C178.45 23.8778 177.836 24.789 177.836 25.9157C177.836 27.0423 178.453 27.9394 179.632 27.9394C180.81 27.9394 181.441 27.0423 181.441 25.9157Z" fill="#121212"/>
<path d="M190.095 29.2815H188.447L188.433 28.169C188.126 28.8683 187.456 29.4016 186.451 29.4016C185.019 29.4016 184.172 28.4374 184.172 26.9752V22.5356H185.9V26.5584C185.9 27.3355 186.274 27.8582 187.065 27.8582C187.855 27.8582 188.363 27.3637 188.363 26.3041V22.5356H190.091V29.2815H190.095Z" fill="#121212"/>
<path d="M191.555 19.6538H193.308V21.4515H191.555V19.6538ZM191.569 22.5393H193.297V29.2852H191.569V22.5393Z" fill="#121212"/>
<path d="M194.773 19.6538H196.502V29.2852H194.773V19.6538Z" fill="#121212"/>
<path d="M201.779 22.5358V23.9309H199.945V26.8023C199.945 27.5405 200.308 27.8336 201.056 27.8336C201.286 27.8336 201.592 27.7665 201.832 27.6464V29.0415C201.564 29.257 201.014 29.3629 200.545 29.3629C198.993 29.3629 198.213 28.5294 198.213 27.1767V23.9309H197.303V23.5565L199.419 21.0771H199.941V22.5393H201.776L201.779 22.5358Z" fill="#121212"/>
<path d="M207.833 19.5867C208.235 19.5867 208.623 19.6538 208.838 19.788L209.106 21.2361C208.891 21.1548 208.623 21.1018 208.288 21.1018C207.618 21.1018 207.258 21.3703 207.258 22.0272V22.5358H208.972V23.9309H207.258V29.2816H205.529V23.9309H204.418L204.658 22.5358H205.529V22.0131C205.529 20.067 206.909 19.5867 207.833 19.5867Z" fill="#121212"/>
<path d="M216.433 25.9016C216.433 27.9289 215.092 29.4971 212.817 29.4971C210.541 29.4971 209.197 27.9289 209.197 25.9016C209.197 23.8743 210.538 22.3203 212.817 22.3203C215.096 22.3203 216.433 23.8885 216.433 25.9016ZM210.94 25.9016C210.94 27.0177 211.582 27.996 212.817 27.996C214.051 27.996 214.693 27.0177 214.693 25.9016C214.693 24.7856 214.051 23.8214 212.817 23.8214C211.582 23.8214 210.94 24.7856 210.94 25.9016Z" fill="#121212"/>
<path d="M220.614 24.2524C219.795 24.2524 219.234 24.6797 219.234 25.9441V29.2818H217.506V22.5359H219.139L219.153 23.9981C219.45 23.1116 219.996 22.4299 220.963 22.4299C221.27 22.4299 221.58 22.5359 221.767 22.7407L221.446 24.4714C221.221 24.3371 220.91 24.2559 220.617 24.2559L220.614 24.2524Z" fill="#121212"/>
<path d="M179.217 38.0441C178.399 38.0441 177.838 38.4715 177.838 39.7359V43.0735H176.109V36.3276H177.743L177.757 37.7898C178.053 36.9033 178.6 36.2217 179.567 36.2217C179.877 36.2217 180.184 36.3276 180.371 36.5325L180.05 38.2631C179.824 38.1289 179.514 38.0477 179.221 38.0477L179.217 38.0441Z" fill="#121212"/>
<path d="M184.548 43.2465C181.895 43.2465 180.568 41.7455 180.568 39.6793C180.568 37.7898 181.803 36.1545 183.983 36.1545C185.885 36.1545 186.996 37.7086 186.996 39.5204C186.996 39.7606 186.982 40.0961 186.943 40.3116H182.36C182.576 41.2652 183.338 41.7879 184.731 41.7879C185.482 41.7879 186.244 41.5583 186.685 41.2369V42.7521C186.202 43.0735 185.267 43.2465 184.541 43.2465H184.548ZM183.92 37.5991C183.048 37.5991 182.487 38.1748 182.339 39.1037H185.313C185.207 38.1924 184.696 37.5991 183.92 37.5991Z" fill="#121212"/>
<path d="M192.171 38.1252C191.663 37.7614 191.032 37.6308 190.548 37.6308C189.853 37.6308 189.518 37.8427 189.518 38.2065C189.518 38.4749 189.638 38.6091 190.146 38.8104L191.219 39.2413C192.196 39.6298 192.732 40.1137 192.732 41.092C192.732 42.4482 191.674 43.2641 190.04 43.2641C189.289 43.2641 188.393 43.0769 187.963 42.6743V41.1167C188.714 41.6677 189.448 41.816 190.051 41.816C190.707 41.816 191.042 41.6006 191.042 41.2121C191.042 40.9154 190.869 40.8094 190.358 40.6081L189.261 40.1772C188.375 39.8311 187.814 39.3331 187.814 38.2983C187.814 37.0374 188.873 36.165 190.682 36.165C191.377 36.165 192.101 36.3381 192.545 36.6595L192.171 38.1217V38.1252Z" fill="#121212"/>
<path d="M197.582 36.3276V37.7226H195.748V40.5941C195.748 41.3322 196.111 41.6254 196.859 41.6254C197.088 41.6254 197.395 41.5583 197.635 41.4382V42.8333C197.367 43.0487 196.817 43.1547 196.347 43.1547C194.795 43.1547 194.016 42.3211 194.016 40.9684V37.7226H193.105V37.3483L195.222 34.8689H195.744V36.3311H197.579L197.582 36.3276Z" fill="#121212"/>
<path d="M203.799 43.0733H202.18L202.165 41.9467C201.859 42.7237 201.266 43.1793 200.384 43.1793C199.058 43.1793 198.229 42.2539 198.229 41.1661C198.229 39.3154 199.862 39.0753 201.216 38.9517L202.102 38.8704V38.7221C202.102 38.0369 201.446 37.6767 200.507 37.6767C199.798 37.6767 199.114 37.8638 198.458 38.2276L198.874 36.6453C199.53 36.3098 200.239 36.2039 200.895 36.2039C202.462 36.2039 203.802 36.942 203.802 38.6832V43.0698L203.799 43.0733ZM200.945 41.8125C201.562 41.8125 202.095 41.3039 202.095 40.4704V40.0006L201.142 40.096C200.338 40.1772 199.95 40.4174 199.95 40.9683C199.95 41.4381 200.257 41.8125 200.941 41.8125H200.945Z" fill="#121212"/>
<path d="M210.991 43.0735H209.344L209.33 41.961C209.023 42.6603 208.353 43.1936 207.347 43.1936C205.915 43.1936 205.068 42.2294 205.068 40.7672V36.3276H206.797V40.3504C206.797 41.1274 207.171 41.6502 207.961 41.6502C208.751 41.6502 209.259 41.1557 209.259 40.0961V36.3276H210.988V43.0735H210.991Z" fill="#121212"/>
<path d="M215.575 38.0441C214.756 38.0441 214.195 38.4715 214.195 39.7359V43.0735H212.467V36.3276H214.1L214.114 37.7898C214.411 36.9033 214.957 36.2217 215.924 36.2217C216.234 36.2217 216.541 36.3276 216.728 36.5325L216.407 38.2631C216.181 38.1289 215.871 38.0477 215.578 38.0477L215.575 38.0441Z" fill="#121212"/>
<path d="M222.445 43.0733H220.826L220.812 41.9467C220.505 42.7237 219.912 43.1793 219.03 43.1793C217.704 43.1793 216.875 42.2539 216.875 41.1661C216.875 39.3154 218.508 39.0753 219.863 38.9517L220.748 38.8704V38.7221C220.748 38.0369 220.092 37.6767 219.154 37.6767C218.445 37.6767 217.76 37.8638 217.104 38.2276L217.521 36.6453C218.177 36.3098 218.886 36.2039 219.542 36.2039C221.108 36.2039 222.449 36.942 222.449 38.6832V43.0698L222.445 43.0733ZM219.591 41.8125C220.209 41.8125 220.741 41.3039 220.741 40.4704V40.0006L219.789 40.096C218.985 40.1772 218.597 40.4174 218.597 40.9683C218.597 41.4381 218.903 41.8125 219.588 41.8125H219.591Z" fill="#121212"/>
<path d="M226.842 37.7473C226.009 37.7473 225.529 38.2841 225.529 39.2766V43.0733H223.801V36.3275H225.476L225.491 37.4259C225.854 36.663 226.563 36.2039 227.498 36.2039C228.905 36.2039 229.749 37.1681 229.749 38.6303V43.0698H228.02V39.0717C228.02 38.2806 227.646 37.7438 226.842 37.7438V37.7473Z" fill="#121212"/>
<path d="M234.945 36.3276V37.7226H233.111V40.5941C233.111 41.3322 233.474 41.6254 234.222 41.6254C234.452 41.6254 234.758 41.5583 234.998 41.4382V42.8333C234.73 43.0487 234.18 43.1547 233.711 43.1547C232.159 43.1547 231.379 42.3211 231.379 40.9684V37.7226H230.469V37.3483L232.585 34.8689H233.107V36.3311H234.942L234.945 36.3276Z" fill="#121212"/>
<path d="M240.038 38.1252C239.53 37.7614 238.899 37.6308 238.416 37.6308C237.721 37.6308 237.386 37.8427 237.386 38.2065C237.386 38.4749 237.505 38.6091 238.013 38.8104L239.086 39.2413C240.063 39.6298 240.599 40.1137 240.599 41.092C240.599 42.4482 239.541 43.2641 237.908 43.2641C237.156 43.2641 236.26 43.0769 235.83 42.6743V41.1167C236.581 41.6677 237.315 41.816 237.918 41.816C238.574 41.816 238.91 41.6006 238.91 41.2121C238.91 40.9154 238.737 40.8094 238.225 40.6081L237.128 40.1772C236.243 39.8311 235.682 39.3331 235.682 38.2983C235.682 37.0374 236.74 36.165 238.55 36.165C239.245 36.165 239.968 36.3381 240.412 36.6595L240.038 38.1217V38.1252Z" fill="#121212"/>
<path d="M171.81 18.3999H170.385V43.2607H171.81V18.3999Z" fill="#121212"/>
<path d="M0.50075 27.0264C2.63859 37.8337 12.1575 45.9838 23.5818 45.9838C36.5818 45.9838 47.117 35.4336 47.117 22.421C47.117 12.5635 41.0737 4.12381 32.4926 0.611572C38.4548 4.49181 42.3953 11.2186 42.3953 18.8682C42.3953 30.8877 32.6629 40.6289 20.6575 40.6289C11.5359 40.6289 3.72237 35.0006 0.498047 27.0264H0.50075Z" fill="#121212"/>
<path d="M2.05469 21.7553C3.69523 30.1895 11.1169 36.5565 20.0223 36.5565C30.1331 36.5565 38.3277 28.3495 38.3277 18.2295C38.325 8.74 31.1196 0.933529 21.8844 0C28.0087 2.21612 32.3844 8.08788 32.3844 14.9852C32.3844 23.7874 25.2574 30.9228 16.4655 30.9228C10.0898 30.9228 4.59523 27.1725 2.05469 21.7553Z" fill="#121212"/>
<path d="M3.30078 14.3222C3.30078 20.0587 7.06294 24.9158 12.2494 26.5609C9.65484 24.5045 7.99267 21.3169 7.99267 17.7479C7.99267 11.5352 13.0197 6.50224 19.2251 6.50224C23.1738 6.50224 26.6467 8.54248 28.6521 11.6299C27.4143 5.83389 22.2711 1.49365 16.117 1.49365C9.03862 1.49365 3.30078 7.23553 3.30078 14.3222Z" fill="#121212"/>
</g>
<defs>
<clipPath id="clip0_2792_8604">
<rect width="240" height="46" fill="white" transform="translate(0.5)"/>
</clipPath>
</defs>
</svg>
