<svg xmlns="http://www.w3.org/2000/svg" width="241" height="46" viewBox="0 0 241 46" fill="none">
  <g clip-path="url(#clip0_1_2232)">
    <path d="M60.9648 14.4979V2.16992H69.1729V14.4979H77.3811V22.7157H69.1729V26.8259C69.1729 29.0935 69.9756 31.0309 71.5784 32.6355C73.1811 34.24 75.1162 35.0437 77.3811 35.0437V43.2615C75.2 43.2615 73.1054 42.8447 71.0973 42.0086C69.0865 41.1752 67.3135 39.9873 65.7757 38.445C64.2378 36.9026 63.0513 35.1276 62.2162 33.1144C61.3838 31.1039 60.9648 29.0042 60.9648 26.8232V22.713H56.8594V14.4952H60.9648V14.4979Z" fill="#0D0D0D"/>
    <path d="M88.3811 26.8259V43.2615H80.173V26.8259C80.173 24.6423 80.5892 22.5452 81.4243 20.5348C82.2568 18.5243 83.4432 16.7465 84.9838 15.2042C86.5216 13.6645 88.2973 12.4766 90.3054 11.6405C92.3135 10.8071 94.4108 10.3877 96.5892 10.3877V18.6055C94.3243 18.6055 92.3892 19.4091 90.7865 21.0137C89.1838 22.6183 88.3811 24.5557 88.3811 26.8232V26.8259Z" fill="#0D0D0D"/>
    <path d="M113.173 43.2612C110.992 43.2612 108.897 42.8445 106.889 42.0084C104.878 41.175 103.105 39.9871 101.568 38.4448C100.03 36.9024 98.8432 35.1274 98.0081 33.1142C97.1756 31.1037 96.7567 29.0039 96.7567 26.823C96.7567 24.6421 97.1729 22.5423 98.0081 20.5318C98.8405 18.5214 100.027 16.7436 101.568 15.2012C103.105 13.6616 104.881 12.4737 106.889 11.6376C108.897 10.8042 110.995 10.3848 113.173 10.3848C115.351 10.3848 117.449 10.8015 119.457 11.6376C121.465 12.471 123.24 13.6589 124.778 15.2012C126.316 16.7436 127.503 18.5186 128.338 20.5318C129.17 22.545 129.589 24.6421 129.589 26.823C129.589 29.0039 129.173 31.1037 128.338 33.1142C127.505 35.1274 126.319 36.9024 124.778 38.4448C123.24 39.9844 121.465 41.1723 119.457 42.0084C117.446 42.8418 115.351 43.2612 113.173 43.2612ZM113.173 35.0435C115.438 35.0435 117.373 34.2398 118.976 32.6352C120.578 31.0306 121.381 29.0932 121.381 26.8257C121.381 24.5582 120.578 22.6208 118.976 21.0162C117.373 19.4116 115.438 18.6079 113.173 18.6079C110.908 18.6079 108.973 19.4116 107.37 21.0162C105.768 22.6208 104.965 24.5582 104.965 26.8257C104.965 29.0932 105.768 31.0306 107.37 32.6352C108.973 34.2398 110.908 35.0435 113.173 35.0435Z" fill="#0D0D0D"/>
    <path d="M147.484 43.2612C145.303 43.2612 143.208 42.8445 141.2 42.0084C139.189 41.175 137.416 39.9871 135.878 38.4448C134.341 36.9024 133.154 35.1274 132.319 33.1142C131.486 31.1037 131.068 29.0039 131.068 26.823C131.068 24.6421 131.484 22.5423 132.319 20.5318C133.151 18.5214 134.338 16.7436 135.878 15.2012C137.416 13.6616 139.192 12.4737 141.2 11.6376C143.208 10.8042 145.305 10.3848 147.484 10.3848C149.662 10.3848 151.759 10.8015 153.768 11.6376C155.776 12.471 157.551 13.6589 159.089 15.2012C160.627 16.7436 161.814 18.5186 162.649 20.5318C163.481 22.545 163.9 24.6421 163.9 26.823C163.9 29.0039 163.484 31.1037 162.649 33.1142C161.816 35.1274 160.63 36.9024 159.089 38.4448C157.551 39.9844 155.776 41.1723 153.768 42.0084C151.757 42.8418 149.662 43.2612 147.484 43.2612ZM147.484 35.0435C149.749 35.0435 151.684 34.2398 153.286 32.6352C154.889 31.0306 155.692 29.0932 155.692 26.8257C155.692 24.5582 154.889 22.6208 153.286 21.0162C151.684 19.4116 149.749 18.6079 147.484 18.6079C145.219 18.6079 143.284 19.4116 141.681 21.0162C140.078 22.6208 139.276 24.5582 139.276 26.8257C139.276 29.0932 140.078 31.0306 141.681 32.6352C143.284 34.2398 145.219 35.0435 147.484 35.0435Z" fill="#0D0D0D"/>
    <path d="M177.796 28.0346L177.781 29.2813H176.106V19.6499H177.834V23.701C178.222 22.9239 179.027 22.3871 180.099 22.3871C181.986 22.3871 183.182 23.9164 183.182 25.9154C183.182 27.9145 181.99 29.4296 180.074 29.4296C178.935 29.4296 178.159 28.8539 177.796 28.0346ZM181.44 25.9154C181.44 24.7888 180.812 23.8775 179.63 23.8775C178.448 23.8775 177.834 24.7888 177.834 25.9154C177.834 27.0421 178.452 27.9392 179.63 27.9392C180.808 27.9392 181.44 27.0421 181.44 25.9154Z" fill="#0D0D0D"/>
    <path d="M190.093 29.2815H188.446L188.432 28.169C188.125 28.8683 187.454 29.4016 186.449 29.4016C185.017 29.4016 184.17 28.4374 184.17 26.9752V22.5356H185.899V26.5584C185.899 27.3355 186.273 27.8582 187.063 27.8582C187.853 27.8582 188.361 27.3637 188.361 26.3041V22.5356H190.09V29.2815H190.093Z" fill="#0D0D0D"/>
    <path d="M191.554 19.6533H193.307V21.451H191.554V19.6533ZM191.568 22.5389H193.296V29.2847H191.568V22.5389Z" fill="#0D0D0D"/>
    <path d="M194.771 19.6533H196.499V29.2847H194.771V19.6533Z" fill="#0D0D0D"/>
    <path d="M201.777 22.5353V23.9304H199.942V26.8018C199.942 27.54 200.306 27.8331 201.054 27.8331C201.283 27.8331 201.59 27.766 201.83 27.6459V29.041C201.562 29.2565 201.011 29.3624 200.542 29.3624C198.99 29.3624 198.21 28.5289 198.21 27.1762V23.9304H197.3V23.556L199.417 21.0767H199.939V22.5389H201.773L201.777 22.5353Z" fill="#0D0D0D"/>
    <path d="M207.83 19.5864C208.233 19.5864 208.621 19.6535 208.836 19.7877L209.104 21.2358C208.889 21.1546 208.621 21.1016 208.286 21.1016C207.615 21.1016 207.255 21.37 207.255 22.0269V22.5355H208.97V23.9306H207.255V29.2814H205.527V23.9306H204.416L204.655 22.5355H205.527V22.0128C205.527 20.0668 206.906 19.5864 207.83 19.5864Z" fill="#0D0D0D"/>
    <path d="M216.431 25.9016C216.431 27.9289 215.091 29.4971 212.815 29.4971C210.54 29.4971 209.196 27.9289 209.196 25.9016C209.196 23.8743 210.536 22.3203 212.815 22.3203C215.094 22.3203 216.431 23.8885 216.431 25.9016ZM210.938 25.9016C210.938 27.0177 211.58 27.996 212.815 27.996C214.05 27.996 214.692 27.0177 214.692 25.9016C214.692 24.7856 214.05 23.8214 212.815 23.8214C211.58 23.8214 210.938 24.7856 210.938 25.9016Z" fill="#0D0D0D"/>
    <path d="M220.611 24.2521C219.793 24.2521 219.232 24.6795 219.232 25.9439V29.2815H217.503V22.5356H219.137L219.151 23.9978C219.447 23.1113 219.994 22.4297 220.961 22.4297C221.268 22.4297 221.578 22.5356 221.765 22.7405L221.444 24.4711C221.218 24.3369 220.908 24.2557 220.615 24.2557L220.611 24.2521Z" fill="#0D0D0D"/>
    <path d="M179.217 38.0441C178.399 38.0441 177.838 38.4715 177.838 39.7359V43.0735H176.109V36.3276H177.743L177.757 37.7898C178.053 36.9033 178.6 36.2217 179.566 36.2217C179.877 36.2217 180.184 36.3276 180.371 36.5325L180.05 38.2631C179.824 38.1289 179.514 38.0477 179.221 38.0477L179.217 38.0441Z" fill="#0D0D0D"/>
    <path d="M184.548 43.2468C181.895 43.2468 180.568 41.7457 180.568 39.6796C180.568 37.79 181.803 36.1548 183.983 36.1548C185.885 36.1548 186.996 37.7088 186.996 39.5207C186.996 39.7608 186.982 40.0964 186.943 40.3118H182.36C182.576 41.2654 183.338 41.7881 184.731 41.7881C185.482 41.7881 186.244 41.5585 186.685 41.2371V42.7523C186.202 43.0737 185.267 43.2468 184.541 43.2468H184.548ZM183.92 37.5993C183.048 37.5993 182.487 38.175 182.339 39.1039H185.313C185.207 38.1927 184.696 37.5993 183.92 37.5993Z" fill="#0D0D0D"/>
    <path d="M192.171 38.1257C191.663 37.7619 191.031 37.6313 190.548 37.6313C189.853 37.6313 189.518 37.8432 189.518 38.207C189.518 38.4754 189.638 38.6096 190.146 38.8109L191.218 39.2418C192.196 39.6303 192.732 40.1142 192.732 41.0925C192.732 42.4487 191.674 43.2646 190.04 43.2646C189.289 43.2646 188.393 43.0774 187.962 42.6748V41.1172C188.714 41.6682 189.448 41.8165 190.051 41.8165C190.707 41.8165 191.042 41.6011 191.042 41.2126C191.042 40.9159 190.869 40.8099 190.358 40.6086L189.261 40.1777C188.375 39.8316 187.814 39.3336 187.814 38.2988C187.814 37.0379 188.873 36.1655 190.682 36.1655C191.377 36.1655 192.1 36.3386 192.545 36.66L192.171 38.1222V38.1257Z" fill="#0D0D0D"/>
    <path d="M197.582 36.3278V37.7229H195.748V40.5943C195.748 41.3325 196.111 41.6256 196.859 41.6256C197.089 41.6256 197.395 41.5585 197.635 41.4384V42.8335C197.367 43.0489 196.817 43.1549 196.348 43.1549C194.796 43.1549 194.016 42.3214 194.016 40.9687V37.7229H193.106V37.3485L195.222 34.8691H195.745V36.3313H197.579L197.582 36.3278Z" fill="#0D0D0D"/>
    <path d="M203.798 43.0736H202.179L202.165 41.9469C201.858 42.7239 201.265 43.1795 200.383 43.1795C199.057 43.1795 198.228 42.2542 198.228 41.1664C198.228 39.3157 199.861 39.0755 201.216 38.9519L202.101 38.8707V38.7223C202.101 38.0371 201.445 37.6769 200.507 37.6769C199.798 37.6769 199.113 37.8641 198.457 38.2279L198.874 36.6456C199.53 36.3101 200.239 36.2041 200.895 36.2041C202.461 36.2041 203.802 36.9423 203.802 38.6835V43.0701L203.798 43.0736ZM200.944 41.8127C201.562 41.8127 202.094 41.3041 202.094 40.4706V40.0009L201.142 40.0962C200.338 40.1775 199.95 40.4176 199.95 40.9686C199.95 41.4383 200.256 41.8127 200.941 41.8127H200.944Z" fill="#0D0D0D"/>
    <path d="M210.991 43.0735H209.344L209.33 41.961C209.023 42.6603 208.353 43.1936 207.347 43.1936C205.915 43.1936 205.068 42.2294 205.068 40.7672V36.3276H206.797V40.3504C206.797 41.1274 207.171 41.6502 207.961 41.6502C208.751 41.6502 209.259 41.1557 209.259 40.0961V36.3276H210.988V43.0735H210.991Z" fill="#0D0D0D"/>
    <path d="M215.574 38.0441C214.755 38.0441 214.195 38.4715 214.195 39.7359V43.0735H212.466V36.3276H214.099L214.113 37.7898C214.41 36.9033 214.957 36.2217 215.923 36.2217C216.234 36.2217 216.54 36.3276 216.727 36.5325L216.406 38.2631C216.181 38.1289 215.87 38.0477 215.577 38.0477L215.574 38.0441Z" fill="#0D0D0D"/>
    <path d="M222.446 43.0736H220.827L220.813 41.9469C220.506 42.7239 219.913 43.1795 219.031 43.1795C217.705 43.1795 216.876 42.2542 216.876 41.1664C216.876 39.3157 218.509 39.0755 219.864 38.9519L220.749 38.8707V38.7223C220.749 38.0371 220.093 37.6769 219.155 37.6769C218.445 37.6769 217.761 37.8641 217.105 38.2279L217.521 36.6456C218.177 36.3101 218.886 36.2041 219.543 36.2041C221.109 36.2041 222.449 36.9423 222.449 38.6835V43.0701L222.446 43.0736ZM219.592 41.8127C220.209 41.8127 220.742 41.3041 220.742 40.4706V40.0009L219.79 40.0962C218.985 40.1775 218.597 40.4176 218.597 40.9686C218.597 41.4383 218.904 41.8127 219.588 41.8127H219.592Z" fill="#0D0D0D"/>
    <path d="M226.841 37.7475C226.009 37.7475 225.529 38.2844 225.529 39.2768V43.0736H223.8V36.3277H225.476L225.49 37.4261C225.854 36.6632 226.563 36.2041 227.498 36.2041C228.905 36.2041 229.748 37.1683 229.748 38.6305V43.0701H228.02V39.072C228.02 38.2808 227.646 37.744 226.841 37.744V37.7475Z" fill="#0D0D0D"/>
    <path d="M234.945 36.3278V37.7229H233.11V40.5943C233.11 41.3325 233.474 41.6256 234.221 41.6256C234.451 41.6256 234.758 41.5585 234.997 41.4384V42.8335C234.729 43.0489 234.179 43.1549 233.71 43.1549C232.158 43.1549 231.378 42.3214 231.378 40.9687V37.7229H230.468V37.3485L232.585 34.8691H233.107V36.3313H234.941L234.945 36.3278Z" fill="#0D0D0D"/>
    <path d="M240.039 38.1257C239.531 37.7619 238.899 37.6313 238.416 37.6313C237.721 37.6313 237.386 37.8432 237.386 38.207C237.386 38.4754 237.506 38.6096 238.014 38.8109L239.086 39.2418C240.063 39.6303 240.599 40.1142 240.599 41.0925C240.599 42.4487 239.541 43.2646 237.908 43.2646C237.156 43.2646 236.26 43.0774 235.83 42.6748V41.1172C236.581 41.6682 237.315 41.8165 237.918 41.8165C238.575 41.8165 238.91 41.6011 238.91 41.2126C238.91 40.9159 238.737 40.8099 238.225 40.6086L237.128 40.1777C236.243 39.8316 235.682 39.3336 235.682 38.2988C235.682 37.0379 236.74 36.1655 238.55 36.1655C239.245 36.1655 239.968 36.3386 240.413 36.66L240.039 38.1222V38.1257Z" fill="#0D0D0D"/>
    <path d="M171.809 18.3999H170.384V43.2607H171.809V18.3999Z" fill="#0D0D0D"/>
    <path d="M0.499956 27.0262C2.63779 37.8334 12.1567 45.9836 23.581 45.9836C36.581 45.9836 47.1162 35.4333 47.1162 22.4207C47.1162 12.5632 41.0729 4.12356 32.4918 0.611328C38.454 4.49156 42.3945 11.2184 42.3945 18.8679C42.3945 30.8874 32.6621 40.6286 20.6567 40.6286C11.5351 40.6286 3.72158 35.0004 0.497253 27.0262H0.499956Z" fill="#0D0D0D"/>
    <path d="M2.05402 21.7553C3.69456 30.1895 11.1162 36.5565 20.0216 36.5565C30.1324 36.5565 38.327 28.3495 38.327 18.2295C38.3243 8.74 31.1189 0.933529 21.8837 0C28.0081 2.21612 32.3837 8.08788 32.3837 14.9852C32.3837 23.7874 25.2567 30.9228 16.4648 30.9228C10.0892 30.9228 4.59456 27.1725 2.05402 21.7553Z" fill="#0D0D0D"/>
    <path d="M3.29999 14.3222C3.29999 20.0587 7.06215 24.9158 12.2486 26.5609C9.65404 24.5045 7.99188 21.3169 7.99188 17.7479C7.99188 11.5352 13.0189 6.50224 19.2243 6.50224C23.173 6.50224 26.6459 8.54248 28.6513 11.6299C27.4135 5.83389 22.2703 1.49365 16.1162 1.49365C9.03783 1.49365 3.29999 7.23553 3.29999 14.3222Z" fill="#0D0D0D"/>
  </g>
  <defs>
    <clipPath id="clip0_1_2232">
      <rect width="240" height="46" fill="white" transform="translate(0.5)"/>
    </clipPath>
  </defs>
</svg>