<svg width="185" height="35" viewBox="0 0 185 35" fill="none" xmlns="http://www.w3.org/2000/svg">
<g clip-path="url(#clip0_8954_47561)">
<path d="M45.7624 11.0351V1.65234H51.9747V11.0351H58.187V17.2896H51.9747V20.4179C51.9747 22.1437 52.5823 23.6182 53.7953 24.8395C55.0083 26.0607 56.4729 26.6723 58.187 26.6723V32.9268C56.5363 32.9268 54.951 32.6097 53.4312 31.9733C51.9093 31.339 50.5674 30.4349 49.4035 29.2611C48.2396 28.0872 47.3416 26.7362 46.7095 25.204C46.0795 23.6738 45.7624 22.0757 45.7624 20.4158V17.2875H42.6553V11.033H45.7624V11.0351Z" fill="#606060"/>
<path d="M66.5121 20.4173V32.9263H60.2998V20.4173C60.2998 18.7553 60.6148 17.1593 61.2469 15.6291C61.8769 14.099 62.7749 12.7459 63.9409 11.572C65.1048 10.4002 66.4487 9.49613 67.9685 8.85977C69.4883 8.22546 71.0757 7.90625 72.7244 7.90625V14.1607C71.0102 14.1607 69.5456 14.7724 68.3326 15.9936C67.1196 17.2149 66.5121 18.6894 66.5121 20.4152V20.4173Z" fill="#606060"/>
<path d="M85.2761 32.9264C83.6254 32.9264 82.0401 32.6092 80.5203 31.9728C78.9984 31.3385 77.6565 30.4345 76.4926 29.2606C75.3287 28.0867 74.4307 26.7357 73.7986 25.2035C73.1686 23.6733 72.8516 22.0752 72.8516 20.4153C72.8516 18.7554 73.1666 17.1573 73.7986 15.6272C74.4287 14.097 75.3267 12.744 76.4926 11.5701C77.6565 10.3983 79.0004 9.49418 80.5203 8.85781C82.0401 8.22351 83.6274 7.9043 85.2761 7.9043C86.9248 7.9043 88.5122 8.22145 90.032 8.85781C91.5519 9.49212 92.8958 10.3962 94.0597 11.5701C95.2236 12.744 96.1216 14.0949 96.7536 15.6272C97.3837 17.1594 97.7007 18.7554 97.7007 20.4153C97.7007 22.0752 97.3857 23.6733 96.7536 25.2035C96.1236 26.7357 95.2256 28.0867 94.0597 29.2606C92.8958 30.4324 91.5519 31.3365 90.032 31.9728C88.5101 32.6072 86.9248 32.9264 85.2761 32.9264ZM85.2761 26.6719C86.9903 26.6719 88.4549 26.0602 89.6679 24.839C90.8809 23.6177 91.4884 22.1432 91.4884 20.4174C91.4884 18.6916 90.8809 17.217 89.6679 15.9958C88.4549 14.7746 86.9903 14.1629 85.2761 14.1629C83.562 14.1629 82.0974 14.7746 80.8844 15.9958C79.6714 17.217 79.0639 18.6916 79.0639 20.4174C79.0639 22.1432 79.6714 23.6177 80.8844 24.839C82.0974 26.0602 83.562 26.6719 85.2761 26.6719Z" fill="#606060"/>
<path d="M111.244 32.9264C109.593 32.9264 108.008 32.6092 106.488 31.9728C104.966 31.3385 103.624 30.4345 102.46 29.2606C101.296 28.0867 100.398 26.7357 99.7664 25.2035C99.1364 23.6733 98.8193 22.0752 98.8193 20.4153C98.8193 18.7554 99.1343 17.1573 99.7664 15.6272C100.396 14.097 101.294 12.744 102.46 11.5701C103.624 10.3983 104.968 9.49418 106.488 8.85781C108.008 8.22351 109.595 7.9043 111.244 7.9043C112.893 7.9043 114.48 8.22145 116 8.85781C117.52 9.49212 118.864 10.3962 120.027 11.5701C121.191 12.744 122.089 14.0949 122.721 15.6272C123.351 17.1594 123.669 18.7554 123.669 20.4153C123.669 22.0752 123.353 23.6733 122.721 25.2035C122.091 26.7357 121.193 28.0867 120.027 29.2606C118.864 30.4324 117.52 31.3365 116 31.9728C114.478 32.6072 112.893 32.9264 111.244 32.9264ZM111.244 26.6719C112.958 26.6719 114.423 26.0602 115.636 24.839C116.849 23.6177 117.456 22.1432 117.456 20.4174C117.456 18.6916 116.849 17.217 115.636 15.9958C114.423 14.7746 112.958 14.1629 111.244 14.1629C109.53 14.1629 108.065 14.7746 106.852 15.9958C105.639 17.217 105.032 18.6916 105.032 20.4174C105.032 22.1432 105.639 23.6177 106.852 24.839C108.065 26.0602 109.53 26.6719 111.244 26.6719Z" fill="#606060"/>
<path d="M134.187 21.3352L134.177 22.2839H132.909V14.9512H134.217V18.0335C134.512 17.4427 135.119 17.0342 135.93 17.0342C137.359 17.0342 138.264 18.1989 138.264 19.7181C138.264 21.2373 137.362 22.3919 135.91 22.3919C135.049 22.3919 134.462 21.9531 134.187 21.3319V21.3352ZM136.947 19.7215C136.947 18.864 136.47 18.1685 135.578 18.1685C134.686 18.1685 134.22 18.864 134.22 19.7215C134.22 20.579 134.686 21.261 135.578 21.261C136.47 21.261 136.947 20.5756 136.947 19.7215Z" fill="#606060"/>
<path d="M143.495 22.2848H142.248L142.238 21.4374C142.003 21.9675 141.496 22.376 140.735 22.376C139.649 22.376 139.012 21.64 139.012 20.5293V17.1499H140.319V20.2119C140.319 20.8027 140.605 21.2011 141.201 21.2011C141.798 21.2011 142.184 20.823 142.184 20.0161V17.1465H143.492V22.2814L143.495 22.2848Z" fill="#606060"/>
<path d="M144.603 14.9549H145.93V16.3222H144.603V14.9549ZM144.613 17.1493H145.92V22.2843H144.613V17.1493Z" fill="#606060"/>
<path d="M147.036 14.9551H148.344V22.2878H147.036V14.9551Z" fill="#606060"/>
<path d="M152.342 17.1493V18.2094H150.954V20.3937C150.954 20.9541 151.229 21.1803 151.795 21.1803C151.966 21.1803 152.201 21.1296 152.382 21.0385V22.0986C152.181 22.2606 151.765 22.345 151.41 22.345C150.233 22.345 149.646 21.7103 149.646 20.6806V18.2094H148.955V17.9224L150.558 16.0352H150.954V17.1493H152.342Z" fill="#606060"/>
<path d="M156.926 14.9045C157.231 14.9045 157.523 14.9551 157.687 15.0564L157.889 16.157C157.728 16.0962 157.523 16.0557 157.272 16.0557C156.765 16.0557 156.49 16.2583 156.49 16.7613V17.1495H157.788V18.2096H156.49V22.2845H155.182V18.2096H154.341L154.522 17.1495H155.182V16.7512C155.182 15.2691 156.225 14.9045 156.926 14.9045Z" fill="#606060"/>
<path d="M163.434 19.7108C163.434 21.2536 162.422 22.4487 160.695 22.4487C158.968 22.4487 157.955 21.2536 157.955 19.7108C157.955 18.1679 158.968 16.9863 160.695 16.9863C162.422 16.9863 163.434 18.1814 163.434 19.7108ZM159.276 19.7108C159.276 20.5582 159.762 21.3043 160.695 21.3043C161.627 21.3043 162.113 20.5582 162.113 19.7108C162.113 18.8634 161.627 18.1274 160.695 18.1274C159.762 18.1274 159.276 18.8634 159.276 19.7108Z" fill="#606060"/>
<path d="M166.6 18.4559C165.98 18.4559 165.554 18.7834 165.554 19.7422V22.2843H164.246V17.1494H165.483L165.493 18.2635C165.718 17.5883 166.134 17.0684 166.862 17.0684C167.096 17.0684 167.328 17.1494 167.472 17.3047L167.227 18.6213C167.056 18.5201 166.821 18.4593 166.6 18.4593V18.4559Z" fill="#606060"/>
<path d="M135.263 28.9558C134.643 28.9558 134.217 29.2833 134.217 30.2421V32.7843H132.909V27.6493H134.147L134.157 28.7634C134.381 28.0882 134.797 27.5683 135.525 27.5683C135.759 27.5683 135.991 27.6493 136.135 27.8046L135.89 29.1213C135.719 29.02 135.484 28.9592 135.263 28.9592V28.9558Z" fill="#606060"/>
<path d="M139.297 32.9159C137.289 32.9159 136.286 31.7714 136.286 30.2015C136.286 28.7633 137.218 27.5176 138.871 27.5176C140.31 27.5176 141.152 28.7026 141.152 30.08C141.152 30.2623 141.142 30.5189 141.111 30.6809H137.644C137.805 31.4068 138.385 31.8051 139.438 31.8051C140.005 31.8051 140.585 31.633 140.917 31.3865V32.5411C140.551 32.7876 139.841 32.9192 139.294 32.9192L139.297 32.9159ZM138.821 28.6182C138.161 28.6182 137.735 29.057 137.624 29.7626H139.874C139.794 29.0672 139.408 28.6182 138.818 28.6182H138.821Z" fill="#606060"/>
<path d="M145.069 29.0176C144.683 28.7408 144.207 28.6395 143.841 28.6395C143.315 28.6395 143.06 28.8015 143.06 29.0784C143.06 29.2809 143.151 29.3856 143.536 29.5375L144.348 29.865C145.089 30.1621 145.495 30.5301 145.495 31.2728C145.495 32.3025 144.693 32.927 143.456 32.927C142.889 32.927 142.208 32.7852 141.883 32.478V31.293C142.45 31.7117 143.01 31.8231 143.466 31.8231C143.962 31.8231 144.217 31.661 144.217 31.3639C144.217 31.1377 144.086 31.0567 143.701 30.9048L142.869 30.5773C142.198 30.314 141.772 29.9325 141.772 29.1493C141.772 28.1905 142.574 27.5254 143.942 27.5254C144.468 27.5254 145.018 27.6571 145.35 27.9035L145.065 29.0176H145.069Z" fill="#606060"/>
<path d="M149.165 27.6492V28.7093H147.777V30.8935C147.777 31.454 148.052 31.6802 148.619 31.6802C148.79 31.6802 149.024 31.6295 149.205 31.5384V32.5984C149.004 32.7605 148.588 32.8449 148.233 32.8449C147.056 32.8449 146.469 32.2102 146.469 31.1805V28.7093H145.778V28.4223L147.381 26.5351H147.777V27.6492H149.165Z" fill="#606060"/>
<path d="M153.871 32.7842H152.643L152.633 31.9266C152.399 32.5174 151.953 32.8652 151.285 32.8652C150.283 32.8652 149.652 32.1596 149.652 31.3325C149.652 29.9247 150.89 29.739 151.912 29.6478L152.583 29.5871V29.4756C152.583 28.9557 152.087 28.6789 151.376 28.6789C150.839 28.6789 150.323 28.8207 149.823 29.0975L150.139 27.8923C150.635 27.6357 151.171 27.5547 151.671 27.5547C152.858 27.5547 153.871 28.1151 153.871 29.4419V32.7808V32.7842ZM151.711 31.8254C152.177 31.8254 152.583 31.4371 152.583 30.8058V30.4479L151.862 30.5188C151.255 30.5796 150.96 30.7619 150.96 31.1839C150.96 31.5418 151.195 31.8287 151.711 31.8287V31.8254Z" fill="#606060"/>
<path d="M159.315 32.7848H158.068L158.058 31.9374C157.823 32.4675 157.317 32.876 156.556 32.876C155.469 32.876 154.832 32.14 154.832 31.0293V27.6499H156.14V30.7119C156.14 31.3027 156.425 31.7011 157.022 31.7011C157.619 31.7011 158.004 31.323 158.004 30.5161V27.6465H159.312V32.7814L159.315 32.7848Z" fill="#606060"/>
<path d="M162.787 28.9558C162.166 28.9558 161.74 29.2833 161.74 30.2421V32.7843H160.433V27.6493H161.67L161.68 28.7634C161.905 28.0882 162.32 27.5683 163.048 27.5683C163.283 27.5683 163.514 27.6493 163.658 27.8046L163.414 29.1213C163.243 29.02 163.008 28.9592 162.787 28.9592V28.9558Z" fill="#606060"/>
<path d="M167.988 32.7842H166.761L166.751 31.9266C166.516 32.5174 166.07 32.8652 165.403 32.8652C164.4 32.8652 163.77 32.1596 163.77 31.3325C163.77 29.9247 165.007 29.739 166.03 29.6478L166.7 29.5871V29.4756C166.7 28.9557 166.204 28.6789 165.493 28.6789C164.957 28.6789 164.44 28.8207 163.941 29.0975L164.256 27.8923C164.752 27.6357 165.289 27.5547 165.788 27.5547C166.975 27.5547 167.988 28.1151 167.988 29.4419V32.7808V32.7842ZM165.828 31.8254C166.295 31.8254 166.7 31.4371 166.7 30.8058V30.4479L165.979 30.5188C165.372 30.5796 165.077 30.7619 165.077 31.1839C165.077 31.5418 165.312 31.8287 165.828 31.8287V31.8254Z" fill="#606060"/>
<path d="M171.314 28.7301C170.684 28.7301 170.321 29.1386 170.321 29.8948V32.7847H169.014V27.6497H170.281L170.291 28.487C170.566 27.9063 171.103 27.5586 171.814 27.5586C172.88 27.5586 173.517 28.2946 173.517 29.4053V32.7847H172.209V29.7429C172.209 29.142 171.924 28.7335 171.317 28.7335L171.314 28.7301Z" fill="#606060"/>
<path d="M177.451 27.6492V28.7093H176.063V30.8936C176.063 31.454 176.338 31.6802 176.905 31.6802C177.076 31.6802 177.31 31.6296 177.491 31.5384V32.5985C177.29 32.7606 176.874 32.845 176.519 32.845C175.342 32.845 174.755 32.2103 174.755 31.1806V28.7093H174.064V28.4224L175.667 26.5352H176.063V27.6492H177.451Z" fill="#606060"/>
<path d="M181.303 29.0156C180.917 28.7388 180.441 28.6375 180.076 28.6375C179.549 28.6375 179.294 28.7996 179.294 29.0764C179.294 29.279 179.385 29.3836 179.771 29.5355L180.582 29.863C181.323 30.1601 181.729 30.5281 181.729 31.2708C181.729 32.3005 180.928 32.9251 179.69 32.9251C179.123 32.9251 178.443 32.7833 178.117 32.4761V31.2911C178.684 31.7097 179.244 31.8211 179.7 31.8211C180.197 31.8211 180.451 31.6591 180.451 31.362C180.451 31.1358 180.321 31.0548 179.935 30.9028L179.103 30.5754C178.433 30.312 178.007 29.9305 178.007 29.1473C178.007 28.1885 178.808 27.5234 180.176 27.5234C180.703 27.5234 181.253 27.6551 181.585 27.9016L181.3 29.0156H181.303Z" fill="#606060"/>
<path d="M129.656 14H128.576V32.926H129.656V14Z" fill="#606060"/>
<path d="M9.24102e-05 20.569C1.61811 28.7944 8.82249 34.9974 17.469 34.9974C27.308 34.9974 35.2815 26.9676 35.2815 17.0638C35.2815 9.56134 30.7077 3.13798 24.2131 0.464844C28.7255 3.41807 31.7079 8.53781 31.7079 14.3598C31.7079 23.5078 24.342 30.9217 15.2557 30.9217C8.35201 30.9217 2.43837 26.6381 -0.00195312 20.569H9.24102e-05Z" fill="#606060"/>
<path d="M1.17676 16.5578C2.4184 22.9771 8.03544 27.8229 14.7755 27.8229C22.4278 27.8229 28.6299 21.5766 28.6299 13.8744C28.6278 6.65196 23.1744 0.710503 16.1849 0C20.82 1.68667 24.1318 6.15563 24.1318 11.4051C24.1318 18.1044 18.7377 23.5352 12.0836 23.5352C7.25813 23.5352 3.09956 20.6808 1.17676 16.5578Z" fill="#606060"/>
<path d="M2.11914 10.9005C2.11914 15.2665 4.96653 18.9632 8.89191 20.2153C6.92819 18.6502 5.67019 16.2242 5.67019 13.5078C5.67019 8.77932 9.47489 4.94878 14.1714 4.94878C17.16 4.94878 19.7885 6.50159 21.3063 8.8514C20.3694 4.4401 16.4768 1.13678 11.8191 1.13678C6.46181 1.13678 2.11914 5.50689 2.11914 10.9005Z" fill="#606060"/>
</g>
<defs>
<clipPath id="clip0_8954_47561">
<rect width="185" height="35" fill="white"/>
</clipPath>
</defs>
</svg>
