<svg width="41" height="40" viewBox="0 0 41 40" fill="none" xmlns="http://www.w3.org/2000/svg">
<g id="upgrade-svgrepo-com 1" clip-path="url(#clip0_11743_1976)">
<g id="upgrade">
<g id="Group">
<path id="Vector" d="M20.5 40C9.5 40 0.5 31 0.5 20C0.5 9 9.5 0 20.5 0C31.5 0 40.5 9 40.5 20C40.5 31 31.5 40 20.5 40ZM20.5 3.33333C11.3333 3.33333 3.83333 10.8333 3.83333 20C3.83333 29.1667 11.3333 36.6667 20.5 36.6667C29.6667 36.6667 37.1667 29.1667 37.1667 20C37.1667 10.8333 29.6667 3.33333 20.5 3.33333ZM22.1667 30H18.8333V15.6667L13.3333 21.1667L11 18.8333L20.5 9.33333L30 18.8333L27.6667 21.1667L22.1667 15.6667V30Z" fill="#0D0D0D"/>
</g>
</g>
</g>
<defs>
<clipPath id="clip0_11743_1976">
<rect width="40" height="40" fill="white" transform="translate(0.5)"/>
</clipPath>
</defs>
</svg>
