<svg width="31" height="30" viewBox="0 0 31 30" fill="none" xmlns="http://www.w3.org/2000/svg">
<path d="M25.7934 28.8333H24V27.1667H25.3534H25.8059L25.8509 26.7164L27.7176 8.04975L27.7725 7.5H27.22H14.9192L14.7275 5.83333H20.8334H21.3334V5.33333V0.5H23V5.33333V5.83333H23.5H29.6143L27.4698 27.3179C27.3631 28.1719 26.6451 28.8333 25.7934 28.8333ZM3.92019 15.7089L3.35365 16.5H4.32671H17.34H18.3131L17.7466 15.7089C16.9237 14.5598 15.66 13.8423 14.3982 13.4118C13.1324 12.98 11.8203 12.82 10.8334 12.82C9.84645 12.82 8.53431 12.98 7.2686 13.4118C6.00674 13.8423 4.74307 14.5598 3.92019 15.7089ZM2.18004 28.82C1.70952 28.82 1.33337 28.4439 1.33337 27.9733V27.1667H20.3467V27.9733C20.3467 28.4439 19.9706 28.82 19.5 28.82H2.18004ZM1.33337 21.8333H20.3334V23.5H1.33337V21.8333ZM1.34933 18.1667C1.49391 15.9287 2.61002 14.2353 4.24862 13.0671C6.0218 11.8031 8.41426 11.1533 10.8334 11.1533C13.2525 11.1533 15.6449 11.8031 17.4181 13.0671C19.0567 14.2353 20.1728 15.9287 20.3174 18.1667H1.34933Z" fill="#5855B3" stroke="#5855B3"/>
</svg>
